<svg xmlns="http://www.w3.org/2000/svg" xmlns:xlink="http://www.w3.org/1999/xlink" width="108" height="108" viewBox="0 0 108 108">
  <defs>
    <filter id="Trazado_978624" x="0" y="0" width="108" height="108" filterUnits="userSpaceOnUse">
      <feOffset dy="3" input="SourceAlpha"/>
      <feGaussianBlur stdDeviation="3" result="blur"/>
      <feFlood flood-opacity="0.161"/>
      <feComposite operator="in" in2="blur"/>
      <feComposite in="SourceGraphic"/>
    </filter>
    <filter id="Trazado_1076716" x="0" y="0" width="108" height="108" filterUnits="userSpaceOnUse">
      <feOffset dy="3" input="SourceAlpha"/>
      <feGaussianBlur stdDeviation="3" result="blur-2"/>
      <feFlood flood-opacity="0.161"/>
      <feComposite operator="in" in2="blur-2"/>
      <feComposite in="SourceGraphic"/>
    </filter>
  </defs>
  <g id="Grupo_1216227" data-name="Grupo 1216227" transform="translate(-196 -534)">
    <g id="Grupo_1215980" data-name="Grupo 1215980" transform="translate(205 540)">
      <g id="Grupo_1208503" data-name="Grupo 1208503" transform="translate(0)">
        <g id="Grupo_1200660" data-name="Grupo 1200660">
          <g id="Grupo_1181203" data-name="Grupo 1181203">
            <g id="Grupo_1172348" data-name="Grupo 1172348">
              <g id="Grupo_1171897" data-name="Grupo 1171897">
                <g id="Grupo_1171052" data-name="Grupo 1171052">
                  <g id="Grupo_1164581" data-name="Grupo 1164581">
                    <g id="Grupo_1144123" data-name="Grupo 1144123">
                      <g transform="matrix(1, 0, 0, 1, -9, -6)" filter="url(#Trazado_978624)">
                        <g id="Trazado_978624-2" data-name="Trazado 978624" transform="translate(9 6)" fill="#e7f2f8">
                          <path d="M 45 88.5 C 39.12687683105469 88.5 33.43022537231445 87.35007476806641 28.06830024719238 85.08217620849609 C 22.88852500915527 82.89131164550781 18.23629951477051 79.75458526611328 14.2408504486084 75.75914764404297 C 10.24541282653809 71.76370239257812 7.108687400817871 67.11147308349609 4.917825222015381 61.93170166015625 C 2.649924993515015 56.56977462768555 1.5 50.87312316894531 1.5 45 C 1.5 39.12687683105469 2.649924993515015 33.43022537231445 4.917825222015381 28.06830024719238 C 7.108687400817871 22.88852500915527 10.24541282653809 18.23629951477051 14.2408504486084 14.2408504486084 C 18.23629951477051 10.24541282653809 22.88852500915527 7.108687400817871 28.06830024719238 4.917825222015381 C 33.43022537231445 2.649924993515015 39.12687683105469 1.5 45 1.5 C 50.87312316894531 1.5 56.56977462768555 2.649924993515015 61.93170166015625 4.917825222015381 C 67.11147308349609 7.108687400817871 71.76370239257812 10.24541282653809 75.75914764404297 14.2408504486084 C 79.75458526611328 18.23629951477051 82.89131164550781 22.88852500915527 85.08217620849609 28.06830024719238 C 87.35007476806641 33.43022537231445 88.5 39.12687683105469 88.5 45 C 88.5 50.87312316894531 87.35007476806641 56.56977462768555 85.08217620849609 61.93170166015625 C 82.89131164550781 67.11147308349609 79.75458526611328 71.76370239257812 75.75914764404297 75.75914764404297 C 71.76370239257812 79.75458526611328 67.11147308349609 82.89131164550781 61.93170166015625 85.08217620849609 C 56.56977462768555 87.35007476806641 50.87312316894531 88.5 45 88.5 Z" stroke="none"/>
                          <path d="M 45 3 C 39.32871246337891 3 33.82865524291992 4.110054016113281 28.65262985229492 6.299339294433594 C 23.65165710449219 8.414573669433594 19.15968322753906 11.44334411621094 15.301513671875 15.301513671875 C 11.44334411621094 19.15968322753906 8.414573669433594 23.65165710449219 6.299339294433594 28.65262985229492 C 4.110054016113281 33.82865524291992 3 39.32871246337891 3 45 C 3 50.67128753662109 4.110054016113281 56.17134475708008 6.299339294433594 61.34737396240234 C 8.414573669433594 66.34834289550781 11.44334411621094 70.84031677246094 15.301513671875 74.698486328125 C 19.15968322753906 78.55665588378906 23.65165710449219 81.58542633056641 28.65262985229492 83.70066070556641 C 33.82865524291992 85.88994598388672 39.32871246337891 87 45 87 C 50.67128753662109 87 56.17134475708008 85.88994598388672 61.34737396240234 83.70066070556641 C 66.34834289550781 81.58542633056641 70.84031677246094 78.55665588378906 74.698486328125 74.698486328125 C 78.55665588378906 70.84031677246094 81.58542633056641 66.34834289550781 83.70066070556641 61.34737396240234 C 85.88994598388672 56.17134475708008 87 50.67128753662109 87 45 C 87 39.32871246337891 85.88994598388672 33.82865524291992 83.70066070556641 28.65262985229492 C 81.58542633056641 23.65165710449219 78.55665588378906 19.15968322753906 74.698486328125 15.301513671875 C 70.84031677246094 11.44334411621094 66.34834289550781 8.414573669433594 61.34737396240234 6.299339294433594 C 56.17134475708008 4.110054016113281 50.67128753662109 3 45 3 M 45 0 C 69.85281372070312 0 90 20.14718627929688 90 45 C 90 69.85281372070312 69.85281372070312 90 45 90 C 20.14718627929688 90 0 69.85281372070312 0 45 C 0 20.14718627929688 20.14718627929688 0 45 0 Z" stroke="none" fill="#248abf"/>
                        </g>
                      </g>
                      <g transform="matrix(1, 0, 0, 1, -9, -6)" filter="url(#Trazado_1076716)">
                        <g id="Trazado_1076716-2" data-name="Trazado 1076716" transform="translate(9 6)" fill="#e7f2f8">
                          <path d="M 45 88.5 C 39.12687683105469 88.5 33.43022537231445 87.35007476806641 28.06830024719238 85.08217620849609 C 22.88852500915527 82.89131164550781 18.23629951477051 79.75458526611328 14.2408504486084 75.75914764404297 C 10.24541282653809 71.76370239257812 7.108687400817871 67.11147308349609 4.917825222015381 61.93170166015625 C 2.649924993515015 56.56977462768555 1.5 50.87312316894531 1.5 45 C 1.5 39.12687683105469 2.649924993515015 33.43022537231445 4.917825222015381 28.06830024719238 C 7.108687400817871 22.88852500915527 10.24541282653809 18.23629951477051 14.2408504486084 14.2408504486084 C 18.23629951477051 10.24541282653809 22.88852500915527 7.108687400817871 28.06830024719238 4.917825222015381 C 33.43022537231445 2.649924993515015 39.12687683105469 1.5 45 1.5 C 50.87312316894531 1.5 56.56977462768555 2.649924993515015 61.93170166015625 4.917825222015381 C 67.11147308349609 7.108687400817871 71.76370239257812 10.24541282653809 75.75914764404297 14.2408504486084 C 79.75458526611328 18.23629951477051 82.89131164550781 22.88852500915527 85.08217620849609 28.06830024719238 C 87.35007476806641 33.43022537231445 88.5 39.12687683105469 88.5 45 C 88.5 50.87312316894531 87.35007476806641 56.56977462768555 85.08217620849609 61.93170166015625 C 82.89131164550781 67.11147308349609 79.75458526611328 71.76370239257812 75.75914764404297 75.75914764404297 C 71.76370239257812 79.75458526611328 67.11147308349609 82.89131164550781 61.93170166015625 85.08217620849609 C 56.56977462768555 87.35007476806641 50.87312316894531 88.5 45 88.5 Z" stroke="none"/>
                          <path d="M 45 3 C 39.32871246337891 3 33.82865524291992 4.110054016113281 28.65262985229492 6.299339294433594 C 23.65165710449219 8.414573669433594 19.15968322753906 11.44334411621094 15.301513671875 15.301513671875 C 11.44334411621094 19.15968322753906 8.414573669433594 23.65165710449219 6.299339294433594 28.65262985229492 C 4.110054016113281 33.82865524291992 3 39.32871246337891 3 45 C 3 50.67128753662109 4.110054016113281 56.17134475708008 6.299339294433594 61.34737396240234 C 8.414573669433594 66.34834289550781 11.44334411621094 70.84031677246094 15.301513671875 74.698486328125 C 19.15968322753906 78.55665588378906 23.65165710449219 81.58542633056641 28.65262985229492 83.70066070556641 C 33.82865524291992 85.88994598388672 39.32871246337891 87 45 87 C 50.67128753662109 87 56.17134475708008 85.88994598388672 61.34737396240234 83.70066070556641 C 66.34834289550781 81.58542633056641 70.84031677246094 78.55665588378906 74.698486328125 74.698486328125 C 78.55665588378906 70.84031677246094 81.58542633056641 66.34834289550781 83.70066070556641 61.34737396240234 C 85.88994598388672 56.17134475708008 87 50.67128753662109 87 45 C 87 39.32871246337891 85.88994598388672 33.82865524291992 83.70066070556641 28.65262985229492 C 81.58542633056641 23.65165710449219 78.55665588378906 19.15968322753906 74.698486328125 15.301513671875 C 70.84031677246094 11.44334411621094 66.34834289550781 8.414573669433594 61.34737396240234 6.299339294433594 C 56.17134475708008 4.110054016113281 50.67128753662109 3 45 3 M 45 0 C 69.85281372070312 0 90 20.14718627929688 90 45 C 90 69.85281372070312 69.85281372070312 90 45 90 C 20.14718627929688 90 0 69.85281372070312 0 45 C 0 20.14718627929688 20.14718627929688 0 45 0 Z" stroke="none" fill="#248abf"/>
                        </g>
                      </g>
                    </g>
                  </g>
                </g>
              </g>
            </g>
          </g>
        </g>
      </g>
    </g>
    <g id="legal-services" transform="translate(205.345 559.042)">
      <g id="Grupo_1216225" data-name="Grupo 1216225" transform="translate(10.323 1.039)">
        <path id="Trazado_1162543" data-name="Trazado 1162543" d="M84.687,7.5V65.568h34.519a1.344,1.344,0,0,0,1.344-1.344V8.844A1.344,1.344,0,0,0,119.206,7.5Z" transform="translate(-78.109 -7.5)" fill="#e5eef9"/>
        <path id="Trazado_1162544" data-name="Trazado 1162544" d="M309.64,7.5h-3.881A1.344,1.344,0,0,1,307.1,8.844V64.223a1.344,1.344,0,0,1-1.344,1.344h3.881a1.344,1.344,0,0,0,1.344-1.344V8.844A1.344,1.344,0,0,0,309.64,7.5Z" transform="translate(-268.542 -7.5)" fill="#c4e2ff"/>
        <path id="Trazado_1162545" data-name="Trazado 1162545" d="M43.8,7.5V65.568H38.564a1.344,1.344,0,0,1-1.344-1.344V8.844A1.344,1.344,0,0,1,38.564,7.5Z" transform="translate(-37.22 -7.5)" fill="#0ed2b3"/>
        <path id="Trazado_1162546" data-name="Trazado 1162546" d="M419.886,344.622h-11.75a.416.416,0,0,0-.416.416v1.185a6.291,6.291,0,0,0,12.582,0v-1.185A.416.416,0,0,0,419.886,344.622Z" transform="translate(-356.372 -297.9)" fill="#fee903"/>
        <path id="Trazado_1162547" data-name="Trazado 1162547" d="M457.059,344.622h-3.326a.44.44,0,0,1,.416.46v1.311a7.1,7.1,0,0,1-3.275,6.112c.1.005.206.008.31.008a6.291,6.291,0,0,0,6.291-6.291v-1.185A.416.416,0,0,0,457.059,344.622Z" transform="translate(-393.546 -297.9)" fill="#fac600"/>
        <path id="Trazado_1162548" data-name="Trazado 1162548" d="M440.136,255.99a2.088,2.088,0,1,0,2.088,2.088A2.088,2.088,0,0,0,440.136,255.99Z" transform="translate(-382.497 -221.552)" fill="#0ed2b3"/>
        <path id="Trazado_1162549" data-name="Trazado 1162549" d="M190.262,344.622h11.75a.416.416,0,0,1,.416.416v1.185a6.291,6.291,0,0,1-12.582,0v-1.185A.416.416,0,0,1,190.262,344.622Z" transform="translate(-168.694 -297.9)" fill="#fee903"/>
        <path id="Trazado_1162550" data-name="Trazado 1162550" d="M239.185,344.622h-3.326a.44.44,0,0,1,.416.46v1.311A7.1,7.1,0,0,1,233,352.505c.1.005.206.008.31.008a6.291,6.291,0,0,0,6.291-6.291v-1.185A.416.416,0,0,0,239.185,344.622Z" transform="translate(-205.867 -297.9)" fill="#fac600"/>
        <path id="Trazado_1162551" data-name="Trazado 1162551" d="M222.261,255.99a2.088,2.088,0,1,1-2.088,2.088A2.088,2.088,0,0,1,222.261,255.99Z" transform="translate(-194.818 -221.552)" fill="#0ed2b3"/>
        <path id="Trazado_1162552" data-name="Trazado 1162552" d="M329.338,252.6h-5.69V226.514a2.408,2.408,0,0,1,.255-1.078l2.59-5.173,2.59,5.173a2.407,2.407,0,0,1,.255,1.078Z" transform="translate(-283.952 -190.776)" fill="#e19974"/>
        <g id="Grupo_1216224" data-name="Grupo 1216224" transform="translate(31.255 25.158)">
          <circle id="Elipse_14342" data-name="Elipse 14342" cx="3.152" cy="3.152" r="3.152" transform="translate(8.134)" fill="#596c76"/>
          <path id="Trazado_1162553" data-name="Trazado 1162553" d="M281,442.9v-1.436a2.712,2.712,0,0,0-2.712-2.712h-8.516a2.712,2.712,0,0,0-2.712,2.712V442.9a.54.54,0,0,1-.54.54h-1.68a2.1,2.1,0,0,0-2.1,2.1v1.82a.508.508,0,0,0,.508.508H284.8a.508.508,0,0,0,.508-.508v-1.82a2.1,2.1,0,0,0-2.1-2.1h-1.68A.54.54,0,0,1,281,442.9Z" transform="translate(-262.74 -404.145)" fill="#596c76"/>
        </g>
      </g>
      <g id="Grupo_1216226" data-name="Grupo 1216226" transform="translate(5.995 0)">
        <path id="Trazado_1162554" data-name="Trazado 1162554" d="M174.36,146.39a1.039,1.039,0,0,0,1.039,1.039h8.929a1.039,1.039,0,0,0,0-2.079H175.4A1.039,1.039,0,0,0,174.36,146.39Z" transform="translate(-151.026 -125.207)"/>
        <path id="Trazado_1162555" data-name="Trazado 1162555" d="M191.677,44.577a2.741,2.741,0,0,1-2.014-.843,1.039,1.039,0,0,0-1.54,1.4,4.659,4.659,0,0,0,2.326,1.374v.7a1.039,1.039,0,1,0,2.079,0v-.642a3.217,3.217,0,0,0,2.553-2.493c.2-1.13-.309-2.606-2.349-3.358a19.411,19.411,0,0,1-2.187-.88.382.382,0,0,1-.184-.4.825.825,0,0,1,.633-.68,2.622,2.622,0,0,1,2.162.5,1.039,1.039,0,0,0,1.332-1.6,5.132,5.132,0,0,0-1.96-.948v-.665a1.039,1.039,0,0,0-2.079,0v.7l-.055.015a2.91,2.91,0,0,0-2.1,2.456,2.44,2.44,0,0,0,1.257,2.442,18.833,18.833,0,0,0,2.462,1c.266.1,1.125.463,1.022,1.043A1.307,1.307,0,0,1,191.677,44.577Z" transform="translate(-162.649 -30.149)"/>
        <path id="Trazado_1162556" data-name="Trazado 1162556" d="M73.836,46.722h-.379V43.916a7.231,7.231,0,0,0-2.408-5.383l-.09-.081A3.125,3.125,0,0,0,69,34.616V31.839a4.032,4.032,0,0,0,3.1-3.921,1.039,1.039,0,1,0-2.079,0A1.949,1.949,0,0,1,68,29.867a2,2,0,0,1-1.877-2.019v-.039a5.172,5.172,0,0,0-8.58-3.89l-2.278,2a4.173,4.173,0,0,0-1.459-.65V2.384A2.386,2.386,0,0,0,51.42,0H46.7a1.039,1.039,0,0,0,0,2.079H51.42a.305.305,0,0,1,.3.3V25.316a4.176,4.176,0,0,0-1.261.6l-2.279-2a5.172,5.172,0,0,0-8.58,3.891v.039a2,2,0,0,1-1.876,2.019,1.949,1.949,0,0,1-2.021-1.948,1.039,1.039,0,0,0-2.079,0,4.032,4.032,0,0,0,3.1,3.921v2.777a3.125,3.125,0,0,0-1.959,3.836l-.089.08a7.232,7.232,0,0,0-2.409,5.384v2.805h-.379a1.457,1.457,0,0,0-1.455,1.455v1.185a7.33,7.33,0,1,0,14.661,0V48.177a1.457,1.457,0,0,0-1.455-1.455h-.38V43.916a7.235,7.235,0,0,0-2.406-5.383l-.091-.081a3.125,3.125,0,0,0-1.959-3.835V31.78a4.072,4.072,0,0,0,2.879-3.932v-.039a3.093,3.093,0,0,1,5.132-2.327l2.292,2.008a4.185,4.185,0,0,0,1.436,5.348l-1.2,2.4a3.467,3.467,0,0,0-.365,1.543v21.29H17.941V2.079H41.852a1.039,1.039,0,0,0,0-2.079H11.667A2.387,2.387,0,0,0,9.283,2.384v5.2H7.034a1.039,1.039,0,0,0,0,2.079H9.283v8.647H7.034a1.039,1.039,0,0,0,0,2.079H9.283v8.647H7.034a1.039,1.039,0,0,0,0,2.079H9.283V39.76H7.034a1.039,1.039,0,0,0,0,2.079H9.283v8.647H7.034a1.039,1.039,0,1,0,0,2.079H9.283v5.2a2.387,2.387,0,0,0,2.384,2.384h35.3a3.756,3.756,0,0,0-2.11,3.373v.936H43.673a3.138,3.138,0,0,0-3.135,3.135v1.82a1.55,1.55,0,0,0,1.548,1.548H63.641a1.55,1.55,0,0,0,1.548-1.548V67.59a3.138,3.138,0,0,0-3.135-3.135H60.873v-.936a3.756,3.756,0,0,0-3.752-3.752h-.374V36.778a3.49,3.49,0,0,0-.364-1.543l-1.2-2.4a4.185,4.185,0,0,0,1.434-5.347l2.291-2.008a3.093,3.093,0,0,1,5.132,2.326v.039a4.072,4.072,0,0,0,2.879,3.932v2.837a3.125,3.125,0,0,0-1.959,3.835l-.09.081a7.236,7.236,0,0,0-2.407,5.384v2.805h-.38a1.457,1.457,0,0,0-1.455,1.455v1.185a7.326,7.326,0,0,0,.32,2.149,1.039,1.039,0,1,0,1.988-.609,5.258,5.258,0,0,1-.229-1.541V48.8h10.5v.561a5.254,5.254,0,0,1-7.754,4.618,1.039,1.039,0,1,0-.993,1.826,7.332,7.332,0,0,0,10.826-6.445V48.177a1.457,1.457,0,0,0-1.455-1.455Zm-30.819,2.64a5.252,5.252,0,0,1-10.5,0V48.8h10.5v.561Zm-1.835-5.445v2.805H34.348V43.916A5.15,5.15,0,0,1,36,40.144a3.119,3.119,0,0,0,3.535,0,5.152,5.152,0,0,1,1.649,3.773Zm-3.417-5.3a1.048,1.048,0,1,1,1.048-1.048,1.05,1.05,0,0,1-1.048,1.048Zm15.1-7.151a2.113,2.113,0,1,1,2.113-2.113A2.116,2.116,0,0,1,52.863,31.463Zm-41.5,26.3v-5.2h.924a1.039,1.039,0,1,0,0-2.079h-.924V41.838h.924a1.039,1.039,0,1,0,0-2.079h-.924V31.113h.924a1.039,1.039,0,1,0,0-2.079h-.924V20.387h.924a1.039,1.039,0,1,0,0-2.079h-.924V9.661h.924a1.039,1.039,0,1,0,0-2.079h-.924v-5.2a.305.305,0,0,1,.305-.305h4.195V58.068H11.667a.305.305,0,0,1-.305-.305Zm47.433,5.757v1.436a1.581,1.581,0,0,0,1.579,1.579h1.68A1.057,1.057,0,0,1,63.11,67.59v1.289H42.617V67.59a1.057,1.057,0,0,1,1.056-1.056h1.68a1.581,1.581,0,0,0,1.579-1.579V63.519a1.675,1.675,0,0,1,1.673-1.673h8.516a1.675,1.675,0,0,1,1.673,1.673ZM54.523,36.161a1.394,1.394,0,0,1,.145.616v22.99h-3.61V36.778a1.378,1.378,0,0,1,.145-.613l1.32-2.638c.112.009.225.015.34.015s.229-.006.341-.015Zm13.438.356a1.048,1.048,0,1,1-1.048,1.048A1.05,1.05,0,0,1,67.961,36.517Zm-3.417,7.4a5.153,5.153,0,0,1,1.649-3.773,3.119,3.119,0,0,0,3.535,0,5.149,5.149,0,0,1,1.65,3.773v2.805H64.544Z" transform="translate(-5.995 0)"/>
      </g>
    </g>
  </g>
</svg>
