<svg xmlns="http://www.w3.org/2000/svg" xmlns:xlink="http://www.w3.org/1999/xlink" width="93.934" height="93.934" viewBox="0 0 93.934 93.934">
  <defs>
    <filter id="Trazado_982547" x="0" y="0" width="93.934" height="93.934" filterUnits="userSpaceOnUse">
      <feOffset dy="3" input="SourceAlpha"/>
      <feGaussianBlur stdDeviation="3" result="blur"/>
      <feFlood flood-opacity="0.161"/>
      <feComposite operator="in" in2="blur"/>
      <feComposite in="SourceGraphic"/>
    </filter>
  </defs>
  <g id="Grupo_1216259" data-name="Grupo 1216259" transform="translate(-191.066 -1042.849)">
    <g id="Grupo_1215981" data-name="Grupo 1215981" transform="translate(-0.229 -2679.151)">
      <g id="Grupo_1214594" data-name="Grupo 1214594" transform="translate(0 -1406)">
        <g id="Grupo_1214432" data-name="Grupo 1214432" transform="translate(-0.771 -2738.674)">
          <g id="Grupo_1183196" data-name="Grupo 1183196" transform="translate(1 1016.674)">
            <g id="Grupo_1179610" data-name="Grupo 1179610" transform="translate(8 4723.467)">
              <g id="Grupo_1175227" data-name="Grupo 1175227" transform="translate(-5.967 140.533)">
                <g id="Grupo_1167337" data-name="Grupo 1167337" transform="translate(198.033 1992)">
                  <g id="Grupo_1166720" data-name="Grupo 1166720">
                    <g id="Grupo_1164305" data-name="Grupo 1164305">
                      <g id="Grupo_1163948" data-name="Grupo 1163948">
                        <g id="Grupo_1158168" data-name="Grupo 1158168">
                          <g id="Grupo_1152576" data-name="Grupo 1152576">
                            <g id="Grupo_1148633" data-name="Grupo 1148633">
                              <g id="Grupo_1148525" data-name="Grupo 1148525">
                                <g transform="matrix(1, 0, 0, 1, -9, -6)" filter="url(#Trazado_982547)">
                                  <g id="Trazado_982547-2" data-name="Trazado 982547" transform="translate(9 6)" fill="#eae4dc">
                                    <path d="M 37.966796875 74.43359375 C 33.04315185546875 74.43359375 28.26757431030273 73.46962738037109 23.77274131774902 71.56847381591797 C 19.43047523498535 69.73184967041016 15.53040790557861 67.10224914550781 12.18087482452393 63.75271987915039 C 8.831341743469238 60.4031867980957 6.201741218566895 56.50312042236328 4.365118980407715 52.16086196899414 C 2.463963508605957 47.66601943969727 1.499996900558472 42.89044189453125 1.499996900558472 37.966796875 C 1.499996900558472 33.04315185546875 2.463963508605957 28.26757431030273 4.365118980407715 23.77274131774902 C 6.201741218566895 19.43047523498535 8.831341743469238 15.53040790557861 12.18087482452393 12.18087482452393 C 15.53040790557861 8.831341743469238 19.43047523498535 6.201741218566895 23.77274131774902 4.365118980407715 C 28.26757431030273 2.463963508605957 33.04315185546875 1.499996900558472 37.966796875 1.499996900558472 C 42.89044189453125 1.499996900558472 47.66601943969727 2.463963508605957 52.16086196899414 4.365118980407715 C 56.50312042236328 6.201741218566895 60.4031867980957 8.831341743469238 63.75271987915039 12.18087482452393 C 67.10224914550781 15.53040790557861 69.73184967041016 19.43047523498535 71.56847381591797 23.77274131774902 C 73.46962738037109 28.26757431030273 74.43359375 33.04315185546875 74.43359375 37.966796875 C 74.43359375 42.89044189453125 73.46962738037109 47.66601943969727 71.56847381591797 52.16086196899414 C 69.73184967041016 56.50313186645508 67.10224914550781 60.4031867980957 63.75271987915039 63.75271987915039 C 60.4031867980957 67.10224914550781 56.50313186645508 69.73184967041016 52.16086196899414 71.56847381591797 C 47.66601943969727 73.46962738037109 42.89044189453125 74.43359375 37.966796875 74.43359375 Z" stroke="none"/>
                                    <path d="M 37.966796875 3 C 33.2449836730957 3 28.66600799560547 3.924095153808594 24.35705947875977 5.746635437011719 C 20.19359588623047 7.507637023925781 16.45379638671875 10.02928161621094 13.24153518676758 13.24153518676758 C 10.02927398681641 16.45379638671875 7.507621765136719 20.19359588623047 5.746635437011719 24.35705947875977 C 3.924095153808594 28.66600799560547 3 33.2449836730957 3 37.966796875 C 3 42.6886100769043 3.924095153808594 47.26758575439453 5.746635437011719 51.57653427124023 C 7.507621765136719 55.73999786376953 10.02927398681641 59.47979736328125 13.24153518676758 62.69205856323242 C 16.45379638671875 65.90431976318359 20.19359588623047 68.42597198486328 24.35705947875977 70.18695831298828 C 28.66600799560547 72.00949859619141 33.2449836730957 72.93359375 37.966796875 72.93359375 C 42.6886100769043 72.93359375 47.26758575439453 72.00949859619141 51.57653427124023 70.18695831298828 C 55.73999786376953 68.42597198486328 59.47979736328125 65.90431976318359 62.69205856323242 62.69205856323242 C 65.90431976318359 59.47979736328125 68.42597198486328 55.73999786376953 70.18695831298828 51.57653427124023 C 72.00949859619141 47.26758575439453 72.93359375 42.6886100769043 72.93359375 37.966796875 C 72.93359375 33.2449836730957 72.00949859619141 28.66600799560547 70.18695831298828 24.35705947875977 C 68.42597198486328 20.19359588623047 65.90431976318359 16.45379638671875 62.69205856323242 13.24153518676758 C 59.47979736328125 10.02928161621094 55.73999786376953 7.507637023925781 51.57653427124023 5.746635437011719 C 47.26758575439453 3.924095153808594 42.6886100769043 3 37.966796875 3 M 37.966796875 0 C 58.93528366088867 0 75.93359375 16.99832153320312 75.93359375 37.966796875 C 75.93359375 58.93528366088867 58.93528366088867 75.93359375 37.966796875 75.93359375 C 16.99831008911133 75.93359375 0 58.93528366088867 0 37.966796875 C 0 16.99832153320312 16.99831008911133 0 37.966796875 0 Z" stroke="none" fill="#665b4e"/>
                                  </g>
                                </g>
                              </g>
                            </g>
                          </g>
                        </g>
                      </g>
                    </g>
                  </g>
                </g>
              </g>
            </g>
          </g>
        </g>
      </g>
    </g>
    <g id="obligacion" transform="translate(225.23 1043.969)">
      <path id="Trazado_1162557" data-name="Trazado 1162557" d="M106.566,133.236a7.927,7.927,0,0,1-1.677-15.675,24.267,24.267,0,0,0-3.836-4.833,2.692,2.692,0,0,1-4.234-3.3,24.045,24.045,0,0,0-5.32-2.434v6.657a.565.565,0,0,1-.564.564H77.44a.565.565,0,0,1-.564-.564v-6.657a24.039,24.039,0,0,0-5.32,2.434,2.692,2.692,0,0,1-4.234,3.3,24.267,24.267,0,0,0-3.836,4.833,7.927,7.927,0,0,1-3.272,15.513,24.166,24.166,0,0,0,47.947,0A7.933,7.933,0,0,1,106.566,133.236Z" transform="translate(-70.175 -83.332)" fill="#f9f3f1"/>
      <g id="Grupo_1216228" data-name="Grupo 1216228" transform="translate(21.446 23.702)">
        <path id="Trazado_1162558" data-name="Trazado 1162558" d="M329.908,117.736a24.23,24.23,0,0,0-13.2-10.417v2.993A24.258,24.258,0,0,1,325.3,120.65,8.048,8.048,0,0,1,329.908,117.736Z" transform="translate(-316.709 -107.319)" fill="#f3eae6"/>
        <path id="Trazado_1162559" data-name="Trazado 1162559" d="M370.321,312.826a8.01,8.01,0,0,1-4.42-1.323,24.046,24.046,0,0,1-5.129,12.985,7.389,7.389,0,0,1,3.125,3.156,24.119,24.119,0,0,0,8-14.974A8.081,8.081,0,0,1,370.321,312.826Z" transform="translate(-355.377 -286.501)" fill="#f3eae6"/>
      </g>
      <g id="Grupo_1216229" data-name="Grupo 1216229" transform="translate(3.091 34.155)">
        <path id="Trazado_1162560" data-name="Trazado 1162560" d="M168.318,219.52h18.824a7.207,7.207,0,0,1,1.51.16V203.611a10.921,10.921,0,0,0-21.843,0V219.68a7.217,7.217,0,0,1,1.51-.16Z" transform="translate(-166.808 -192.69)" fill="#a44f3e"/>
      </g>
      <g id="Grupo_1216230" data-name="Grupo 1216230" transform="translate(11.564 34.155)">
        <path id="Trazado_1162561" data-name="Trazado 1162561" d="M307.9,345.253h-1.316a7.537,7.537,0,0,1-1.391,3.045v4.267h3.388a7.207,7.207,0,0,1,1.51.16V344.3A2.987,2.987,0,0,1,307.9,345.253Z" transform="translate(-296.72 -325.735)" fill="#883f2e"/>
        <path id="Trazado_1162562" data-name="Trazado 1162562" d="M244.443,202.846a1.83,1.83,0,0,1,1.577,1.811v1.561h1.159a2.987,2.987,0,0,1,2.191.954v-3.561A10.93,10.93,0,0,0,236,192.966,10.926,10.926,0,0,1,244.443,202.846Z" transform="translate(-236 -192.69)" fill="#883f2e"/>
      </g>
      <g id="Grupo_1216231" data-name="Grupo 1216231" transform="translate(-1.941 60.846)">
        <path id="Trazado_1162563" data-name="Trazado 1162563" d="M141.66,420.684a24.07,24.07,0,0,0,15.954-6.017,7.351,7.351,0,0,0-6.543-4H132.249a7.351,7.351,0,0,0-6.542,4A24.07,24.07,0,0,0,141.66,420.684Z" transform="translate(-125.706 -410.668)" fill="#fe646f"/>
      </g>
      <g id="Grupo_1216232" data-name="Grupo 1216232" transform="translate(10.957 61.688)">
        <path id="Trazado_1162564" data-name="Trazado 1162564" d="M234.1,426.72a24.07,24.07,0,0,0,15.954-6.017,7.389,7.389,0,0,0-3.125-3.156,24.135,24.135,0,0,1-15.885,8.981A24.38,24.38,0,0,0,234.1,426.72Z" transform="translate(-231.046 -417.546)" fill="#fb2b3a"/>
      </g>
      <g id="Grupo_1216236" data-name="Grupo 1216236" transform="translate(6.579 12.953)">
        <g id="Grupo_1216233" data-name="Grupo 1216233" transform="translate(0 0)">
          <path id="Trazado_1162565" data-name="Trazado 1162565" d="M195.29,25V36.9a.687.687,0,0,0,.687.687h13.494a.687.687,0,0,0,.687-.687V25l-7.434-5.469Z" transform="translate(-195.29 -19.534)" fill="#ffcebf"/>
        </g>
        <g id="Grupo_1216234" data-name="Grupo 1216234" transform="translate(4.642 8.512)">
          <path id="Trazado_1162566" data-name="Trazado 1162566" d="M233.2,98.592h5.584V89.326a.275.275,0,0,0-.275-.275h-5.035a.275.275,0,0,0-.275.275v9.266Z" transform="translate(-233.198 -89.051)" fill="#fd8087"/>
        </g>
        <g id="Grupo_1216235" data-name="Grupo 1216235" transform="translate(7.502 8.512)">
          <path id="Trazado_1162567" data-name="Trazado 1162567" d="M259.008,89.051h-2.449a.275.275,0,0,1,.275.275v9.266h2.449V89.326A.275.275,0,0,0,259.008,89.051Z" transform="translate(-256.559 -89.051)" fill="#fe646f"/>
        </g>
      </g>
      <g id="Grupo_1216245" data-name="Grupo 1216245" transform="translate(2.287 44.291)">
        <g id="Grupo_1216244" data-name="Grupo 1216244">
          <g id="Grupo_1216237" data-name="Grupo 1216237" transform="translate(8.584 14.575)">
            <path id="Trazado_1162568" data-name="Trazado 1162568" d="M233.488,395.2a7.386,7.386,0,0,1-3.141-.7v2.973a3.141,3.141,0,0,0,6.282,0V394.5A7.388,7.388,0,0,1,233.488,395.2Z" transform="translate(-230.347 -394.501)" fill="#f89580"/>
          </g>
          <g id="Grupo_1216243" data-name="Grupo 1216243">
            <g id="Grupo_1216240" data-name="Grupo 1216240" transform="translate(0 3.391)">
              <g id="Grupo_1216238" data-name="Grupo 1216238" transform="translate(0 0)">
                <path id="Trazado_1162569" data-name="Trazado 1162569" d="M164.534,307.616v-3.775a1.683,1.683,0,0,1,.141-.675h-1.439a3,3,0,1,0,0,5.991H164.7A7.441,7.441,0,0,1,164.534,307.616Z" transform="translate(-160.241 -303.166)" fill="#ffb09e"/>
              </g>
              <g id="Grupo_1216239" data-name="Grupo 1216239" transform="translate(18.996)">
                <path id="Trazado_1162570" data-name="Trazado 1162570" d="M316.837,303.166h-1.3v4.45a7.433,7.433,0,0,1-.162,1.541h1.459a3,3,0,1,0,0-5.991Z" transform="translate(-315.378 -303.166)" fill="#f89580"/>
              </g>
            </g>
            <g id="Grupo_1216241" data-name="Grupo 1216241" transform="translate(4.154)">
              <path id="Trazado_1162571" data-name="Trazado 1162571" d="M203.438,276.005l-.585.585a3.805,3.805,0,0,1-2.691,1.115H196a1.831,1.831,0,0,0-1.831,1.831v3.775a7.571,7.571,0,1,0,15.142,0V277.3a1.831,1.831,0,0,0-1.831-1.831h-2.747A1.831,1.831,0,0,0,203.438,276.005Z" transform="translate(-194.168 -275.469)" fill="#ffcebf"/>
            </g>
            <g id="Grupo_1216242" data-name="Grupo 1216242" transform="translate(9.889 0)">
              <path id="Trazado_1162572" data-name="Trazado 1162572" d="M248.578,275.47h-2.747a1.831,1.831,0,0,0-.463.062,1.83,1.83,0,0,1,1.367,1.769v6.01A7.573,7.573,0,0,1,241,290.657a7.573,7.573,0,0,0,9.408-7.346V277.3A1.831,1.831,0,0,0,248.578,275.47Z" transform="translate(-241.001 -275.47)" fill="#ffb09e"/>
            </g>
          </g>
        </g>
      </g>
      <g id="Grupo_1216252" data-name="Grupo 1216252" transform="translate(-19.753 30.592)">
        <g id="Grupo_1216248" data-name="Grupo 1216248" transform="translate(0 0)">
          <g id="Grupo_1216246" data-name="Grupo 1216246">
            <circle id="Elipse_14343" data-name="Elipse 14343" cx="8.05" cy="8.05" r="8.05" transform="translate(0 11.382) rotate(-45)" fill="#ffe177"/>
          </g>
          <g id="Grupo_1216247" data-name="Grupo 1216247" transform="translate(9.55 3.335)">
            <path id="Trazado_1162573" data-name="Trazado 1162573" d="M60.078,190.826a8.063,8.063,0,0,0-1.837.213,8.049,8.049,0,0,1,0,15.674,8.05,8.05,0,1,0,1.837-15.887Z" transform="translate(-58.241 -190.826)" fill="#ffd15b"/>
          </g>
        </g>
        <g id="Grupo_1216251" data-name="Grupo 1216251" transform="translate(48.094 3.335)">
          <g id="Grupo_1216249" data-name="Grupo 1216249" transform="translate(0 0)">
            <circle id="Elipse_14344" data-name="Elipse 14344" cx="8.05" cy="8.05" r="8.05" fill="#c8effe"/>
          </g>
          <g id="Grupo_1216250" data-name="Grupo 1216250" transform="translate(5.973)">
            <path id="Trazado_1162574" data-name="Trazado 1162574" d="M423.874,190.826a8.056,8.056,0,0,0-2.077.272,8.051,8.051,0,0,1,0,15.556,8.05,8.05,0,1,0,2.077-15.828Z" transform="translate(-421.797 -190.826)" fill="#99e6fc"/>
          </g>
        </g>
      </g>
      <g id="Grupo_1216257" data-name="Grupo 1216257" transform="translate(-3.681 24.765)">
        <g id="Grupo_1216253" data-name="Grupo 1216253" transform="translate(0 0)">
          <circle id="Elipse_14345" data-name="Elipse 14345" cx="2.816" cy="2.816" r="2.816" fill="#05e39c"/>
        </g>
        <g id="Grupo_1216254" data-name="Grupo 1216254" transform="translate(1.592 0)">
          <path id="Trazado_1162575" data-name="Trazado 1162575" d="M125.724,116a2.8,2.8,0,0,0-1.224.28,2.817,2.817,0,0,1,0,5.074A2.817,2.817,0,1,0,125.724,116Z" transform="translate(-124.5 -116)" fill="#0ed290"/>
        </g>
        <g id="Grupo_1216255" data-name="Grupo 1216255" transform="translate(29.755 0)">
          <circle id="Elipse_14346" data-name="Elipse 14346" cx="2.816" cy="2.816" r="2.816" fill="#05e39c"/>
        </g>
        <g id="Grupo_1216256" data-name="Grupo 1216256" transform="translate(31.347 0)">
          <path id="Trazado_1162576" data-name="Trazado 1162576" d="M368.724,116a2.8,2.8,0,0,0-1.224.28,2.817,2.817,0,0,1,0,5.074A2.817,2.817,0,1,0,368.724,116Z" transform="translate(-367.5 -116)" fill="#0ed290"/>
        </g>
      </g>
      <g id="Grupo_1216258" data-name="Grupo 1216258" transform="translate(-17.334 12.034)">
        <path id="Trazado_1162577" data-name="Trazado 1162577" d="M237.51,355.594H233.2a.918.918,0,1,0,0,1.837h4.312a.918.918,0,1,0,0-1.837Z" transform="translate(-203.838 -313.526)"/>
        <path id="Trazado_1162578" data-name="Trazado 1162578" d="M281.455,296.525a.918.918,0,0,0-1.837,0v1.191a.918.918,0,1,0,1.837,0Z" transform="translate(-245.379 -260.884)"/>
        <path id="Trazado_1162579" data-name="Trazado 1162579" d="M244.935,316.786c.029,0,.059,0,.087,0a3.244,3.244,0,0,1,.913-2.775.92.92,0,0,0-1-.828,1.807,1.807,0,0,0,0,3.6Z" transform="translate(-213.507 -276.308)"/>
        <path id="Trazado_1162580" data-name="Trazado 1162580" d="M47.424,210.3v.47H47.3a2.436,2.436,0,0,0-2.433,2.433v.442a2.436,2.436,0,0,0,2.433,2.433h2.083a.6.6,0,0,1,.6.6v.442a.6.6,0,0,1-.6.6H47.3a.6.6,0,0,1-.6-.6.918.918,0,1,0-1.837,0,2.436,2.436,0,0,0,2.433,2.433h.123v.47a.918.918,0,0,0,1.837,0v-.47h.123a2.436,2.436,0,0,0,2.433-2.433v-.442a2.436,2.436,0,0,0-2.433-2.433H47.3a.6.6,0,0,1-.6-.6V213.2a.6.6,0,0,1,.6-.6h2.083a.6.6,0,0,1,.6.6.918.918,0,0,0,1.837,0,2.436,2.436,0,0,0-2.433-2.433h-.123v-.47a.918.918,0,1,0-1.837,0Z" transform="translate(-39.374 -185.217)"/>
        <path id="Trazado_1162581" data-name="Trazado 1162581" d="M25.123,242.739a.918.918,0,0,0-.918.918v1.11a.918.918,0,0,0,1.837,0v-1.11A.918.918,0,0,0,25.123,242.739Z" transform="translate(-21.241 -214.49)"/>
        <path id="Trazado_1162582" data-name="Trazado 1162582" d="M108.2,245.687a.918.918,0,0,0,.918-.918v-1.11a.918.918,0,1,0-1.837,0v1.11A.918.918,0,0,0,108.2,245.687Z" transform="translate(-94.141 -214.491)"/>
        <path id="Trazado_1162583" data-name="Trazado 1162583" d="M53.725,33.009a8.9,8.9,0,0,0-1.311.1,25.262,25.262,0,0,0-2.928-3.71,3.732,3.732,0,0,0-5.817-4.536,24.964,24.964,0,0,0-3.97-1.812V20.237l.109.08A.918.918,0,0,0,40.9,18.838l-9.005-6.625a.918.918,0,0,0-1.088,0L21.8,18.838a.918.918,0,0,0,1.088,1.479l.109-.08v2.812a24.964,24.964,0,0,0-3.97,1.812A3.732,3.732,0,0,0,13.208,29.4a25.247,25.247,0,0,0-2.927,3.708A8.967,8.967,0,0,0,6.57,50.617a24.833,24.833,0,0,0,1.78,6.107.918.918,0,1,0,1.683-.735,23.012,23.012,0,0,1-1.545-5.057c.159.008.319.013.479.013A8.967,8.967,0,0,0,12.159,33.6a23.411,23.411,0,0,1,2.312-2.864,3.732,3.732,0,0,0,5.544-4.323,23.171,23.171,0,0,1,2.98-1.4v5.312a1.607,1.607,0,0,0,1.605,1.6H38.094a1.607,1.607,0,0,0,1.605-1.6V25.007a23.139,23.139,0,0,1,2.98,1.4,3.732,3.732,0,0,0,5.544,4.323A23.408,23.408,0,0,1,50.536,33.6,8.987,8.987,0,0,0,45.08,39.59a.918.918,0,0,0,1.771.488,7.131,7.131,0,1,1,0,3.8.918.918,0,0,0-1.771.488,8.989,8.989,0,0,0,8.645,6.581c.16,0,.319,0,.478-.013A23.226,23.226,0,0,1,47.493,63.4a8.229,8.229,0,0,0-4.307-3.113V53.051a3.9,3.9,0,0,0,0-4.745V45.077a11.84,11.84,0,1,0-23.679,0v3.229a3.9,3.9,0,0,0,0,4.745V60.29a8.229,8.229,0,0,0-4.315,3.124,23.382,23.382,0,0,1-3.179-3.807.918.918,0,0,0-1.527,1.021,25.083,25.083,0,0,0,45.633-10.01,8.967,8.967,0,0,0-2.394-17.609ZM16.1,41.977a7.131,7.131,0,1,1-7.131-7.131A7.139,7.139,0,0,1,16.1,41.977Zm.37-12.5a1.9,1.9,0,1,1,1.9-1.9A1.9,1.9,0,0,1,16.469,29.479Zm21.393.609H35.057V21.74a1.194,1.194,0,0,0-1.193-1.193H28.829a1.194,1.194,0,0,0-1.193,1.193v2.529a.918.918,0,1,0,1.837,0V22.383H33.22v7.7H29.473V28.554a.918.918,0,1,0-1.837,0v1.533H24.831v-11.2l6.515-4.793,6.515,4.793Zm8.362-.609a1.9,1.9,0,1,1,1.9-1.9A1.9,1.9,0,0,1,46.224,29.479Zm-4.07,21.2a2.079,2.079,0,0,1-2.077,2.077h-.263c.015-.206.023-.413.023-.623V48.6h.24A2.079,2.079,0,0,1,42.154,50.678ZM31.347,58.785a6.66,6.66,0,0,1-6.653-6.653V48.358a.913.913,0,0,1,.912-.912h1.381a.916.916,0,0,0-.03.23v1.192a.918.918,0,0,0,1.837,0V47.676a.921.921,0,0,0-.03-.23H29.77a4.693,4.693,0,0,0,3.34-1.384l.585-.585h0a.906.906,0,0,1,.645-.267h2.747a.914.914,0,0,1,.912.912v6.01A6.661,6.661,0,0,1,31.347,58.785Zm2.223,1.539V61.84a2.223,2.223,0,0,1-4.446,0V60.325a8.461,8.461,0,0,0,4.446,0Zm-6.282-.738v.341H21.935q-.3,0-.591.021V54.378a3.9,3.9,0,0,0,1.273.214h.6A8.53,8.53,0,0,0,27.287,59.587Zm8.119,0a8.53,8.53,0,0,0,4.066-4.995h.6a3.9,3.9,0,0,0,1.273-.214v5.571q-.294-.021-.591-.021H35.406ZM21.344,45.076a10,10,0,0,1,20.006,0v1.9a3.9,3.9,0,0,0-1.273-.214h-.24v-.642a2.752,2.752,0,0,0-2.749-2.749H34.34a2.731,2.731,0,0,0-1.944.805l-.585.585a2.868,2.868,0,0,1-2.041.846H25.606a2.747,2.747,0,0,0-2.238,1.156h-.751a3.9,3.9,0,0,0-1.273.214v-1.9ZM22.617,48.6h.24v3.532q0,.314.023.623h-.263a2.077,2.077,0,0,1,0-4.154Zm8.73,21.343a23.2,23.2,0,0,1-14.774-5.3,6.408,6.408,0,0,1,5.362-2.88h5.352v.075a4.06,4.06,0,0,0,8.119,0v-.075h5.352a6.408,6.408,0,0,1,5.356,2.87A23.133,23.133,0,0,1,31.347,69.944Z" transform="translate(0 -12.034)"/>
        <path id="Trazado_1162584" data-name="Trazado 1162584" d="M432.177,206.236a.918.918,0,0,0-.918.918V212.4a.918.918,0,0,0,.918.918h4.391a.918.918,0,0,0,0-1.837H433.1v-4.326A.918.918,0,0,0,432.177,206.236Z" transform="translate(-378.452 -182.456)"/>
      </g>
    </g>
  </g>
</svg>
