<svg xmlns="http://www.w3.org/2000/svg" xmlns:xlink="http://www.w3.org/1999/xlink" width="93.934" height="93.934" viewBox="0 0 93.934 93.934">
  <defs>
    <filter id="Trazado_982547" x="0" y="0" width="93.934" height="93.934" filterUnits="userSpaceOnUse">
      <feOffset dy="3" input="SourceAlpha"/>
      <feGaussianBlur stdDeviation="3" result="blur"/>
      <feFlood flood-opacity="0.161"/>
      <feComposite operator="in" in2="blur"/>
      <feComposite in="SourceGraphic"/>
    </filter>
  </defs>
  <g id="Grupo_1216282" data-name="Grupo 1216282" transform="translate(-1031.066 -1042.849)">
    <g id="Grupo_1215983" data-name="Grupo 1215983" transform="translate(-0.229 -2679.151)">
      <g id="Grupo_1214661" data-name="Grupo 1214661" transform="translate(0 -1406)">
        <g id="Grupo_1214434" data-name="Grupo 1214434" transform="translate(-0.771 -2738.522)">
          <g id="Grupo_1183184" data-name="Grupo 1183184" transform="translate(1 1016.523)">
            <g id="Grupo_1179612" data-name="Grupo 1179612" transform="translate(848 4723.467)">
              <g id="Grupo_1175227" data-name="Grupo 1175227" transform="translate(-5.967 140.533)">
                <g id="Grupo_1167337" data-name="Grupo 1167337" transform="translate(198.033 1992)">
                  <g id="Grupo_1166720" data-name="Grupo 1166720">
                    <g id="Grupo_1164305" data-name="Grupo 1164305">
                      <g id="Grupo_1163948" data-name="Grupo 1163948">
                        <g id="Grupo_1158168" data-name="Grupo 1158168">
                          <g id="Grupo_1152576" data-name="Grupo 1152576">
                            <g id="Grupo_1148633" data-name="Grupo 1148633">
                              <g id="Grupo_1148525" data-name="Grupo 1148525">
                                <g transform="matrix(1, 0, 0, 1, -9, -6)" filter="url(#Trazado_982547)">
                                  <g id="Trazado_982547-2" data-name="Trazado 982547" transform="translate(9 6)" fill="#eae4dc">
                                    <path d="M 37.966796875 74.43359375 C 33.04315185546875 74.43359375 28.26757431030273 73.46962738037109 23.77274131774902 71.56847381591797 C 19.43047523498535 69.73184967041016 15.53040790557861 67.10224914550781 12.18087482452393 63.75271987915039 C 8.831341743469238 60.4031867980957 6.201741218566895 56.50312042236328 4.365118980407715 52.16086196899414 C 2.463963508605957 47.66601943969727 1.499996900558472 42.89044189453125 1.499996900558472 37.966796875 C 1.499996900558472 33.04315185546875 2.463963508605957 28.26757431030273 4.365118980407715 23.77274131774902 C 6.201741218566895 19.43047523498535 8.831341743469238 15.53040790557861 12.18087482452393 12.18087482452393 C 15.53040790557861 8.831341743469238 19.43047523498535 6.201741218566895 23.77274131774902 4.365118980407715 C 28.26757431030273 2.463963508605957 33.04315185546875 1.499996900558472 37.966796875 1.499996900558472 C 42.89044189453125 1.499996900558472 47.66601943969727 2.463963508605957 52.16086196899414 4.365118980407715 C 56.50312042236328 6.201741218566895 60.4031867980957 8.831341743469238 63.75271987915039 12.18087482452393 C 67.10224914550781 15.53040790557861 69.73184967041016 19.43047523498535 71.56847381591797 23.77274131774902 C 73.46962738037109 28.26757431030273 74.43359375 33.04315185546875 74.43359375 37.966796875 C 74.43359375 42.89044189453125 73.46962738037109 47.66601943969727 71.56847381591797 52.16086196899414 C 69.73184967041016 56.50313186645508 67.10224914550781 60.4031867980957 63.75271987915039 63.75271987915039 C 60.4031867980957 67.10224914550781 56.50313186645508 69.73184967041016 52.16086196899414 71.56847381591797 C 47.66601943969727 73.46962738037109 42.89044189453125 74.43359375 37.966796875 74.43359375 Z" stroke="none"/>
                                    <path d="M 37.966796875 3 C 33.2449836730957 3 28.66600799560547 3.924095153808594 24.35705947875977 5.746635437011719 C 20.19359588623047 7.507637023925781 16.45379638671875 10.02928161621094 13.24153518676758 13.24153518676758 C 10.02927398681641 16.45379638671875 7.507621765136719 20.19359588623047 5.746635437011719 24.35705947875977 C 3.924095153808594 28.66600799560547 3 33.2449836730957 3 37.966796875 C 3 42.6886100769043 3.924095153808594 47.26758575439453 5.746635437011719 51.57653427124023 C 7.507621765136719 55.73999786376953 10.02927398681641 59.47979736328125 13.24153518676758 62.69205856323242 C 16.45379638671875 65.90431976318359 20.19359588623047 68.42597198486328 24.35705947875977 70.18695831298828 C 28.66600799560547 72.00949859619141 33.2449836730957 72.93359375 37.966796875 72.93359375 C 42.6886100769043 72.93359375 47.26758575439453 72.00949859619141 51.57653427124023 70.18695831298828 C 55.73999786376953 68.42597198486328 59.47979736328125 65.90431976318359 62.69205856323242 62.69205856323242 C 65.90431976318359 59.47979736328125 68.42597198486328 55.73999786376953 70.18695831298828 51.57653427124023 C 72.00949859619141 47.26758575439453 72.93359375 42.6886100769043 72.93359375 37.966796875 C 72.93359375 33.2449836730957 72.00949859619141 28.66600799560547 70.18695831298828 24.35705947875977 C 68.42597198486328 20.19359588623047 65.90431976318359 16.45379638671875 62.69205856323242 13.24153518676758 C 59.47979736328125 10.02928161621094 55.73999786376953 7.507637023925781 51.57653427124023 5.746635437011719 C 47.26758575439453 3.924095153808594 42.6886100769043 3 37.966796875 3 M 37.966796875 0 C 58.93528366088867 0 75.93359375 16.99832153320312 75.93359375 37.966796875 C 75.93359375 58.93528366088867 58.93528366088867 75.93359375 37.966796875 75.93359375 C 16.99831008911133 75.93359375 0 58.93528366088867 0 37.966796875 C 0 16.99832153320312 16.99831008911133 0 37.966796875 0 Z" stroke="none" fill="#665b4e"/>
                                  </g>
                                </g>
                              </g>
                            </g>
                          </g>
                        </g>
                      </g>
                    </g>
                  </g>
                </g>
              </g>
            </g>
          </g>
        </g>
      </g>
    </g>
    <g id="obligacion_1_" data-name="obligacion (1)" transform="translate(1044.5 1031.88)">
      <g id="Grupo_1216262" data-name="Grupo 1216262" transform="translate(23.025 24.415)">
        <g id="Grupo_1216260" data-name="Grupo 1216260" transform="translate(0 0)">
          <circle id="Elipse_14347" data-name="Elipse 14347" cx="9.792" cy="9.792" r="9.792" fill="#01c0fa"/>
        </g>
        <g id="Grupo_1216261" data-name="Grupo 1216261" transform="translate(6.155 0)">
          <ellipse id="Elipse_14348" data-name="Elipse 14348" cx="3.637" cy="9.792" rx="3.637" ry="9.792" fill="#08a9f1"/>
        </g>
      </g>
      <g id="Grupo_1216266" data-name="Grupo 1216266" transform="translate(19.251 47.954)">
        <g id="Grupo_1216263" data-name="Grupo 1216263" transform="translate(0 8.528)">
          <path id="Trazado_1162585" data-name="Trazado 1162585" d="M149.513,280.646v10.579a9.763,9.763,0,0,1,1.153,6.545h5.7V280h-6.212A.644.644,0,0,0,149.513,280.646Z" transform="translate(-149.513 -280.002)" fill="#766e6e"/>
          <path id="Trazado_1162586" data-name="Trazado 1162586" d="M314.8,296.1a9.743,9.743,0,0,1,1.3-4.871V280.646a.644.644,0,0,0-.644-.644h-6.212V297.77h5.7A9.835,9.835,0,0,1,314.8,296.1Z" transform="translate(-288.677 -280.002)" fill="#766e6e"/>
        </g>
        <g id="Grupo_1216264" data-name="Grupo 1216264" transform="translate(6.856 0)">
          <path id="Trazado_1162587" data-name="Trazado 1162587" d="M216.468,240.067H202.757V214.415a.644.644,0,0,1,.644-.644h12.423a.644.644,0,0,1,.644.644v25.652Z" transform="translate(-202.757 -213.771)" fill="#e1d3ce"/>
        </g>
        <g id="Grupo_1216265" data-name="Grupo 1216265" transform="translate(16.06 0)">
          <path id="Trazado_1162588" data-name="Trazado 1162588" d="M278.106,213.771h-3.863a.644.644,0,0,1,.644.644v25.652h3.863V214.415A.644.644,0,0,0,278.106,213.771Z" transform="translate(-274.243 -213.771)" fill="#cdbfba"/>
        </g>
      </g>
      <g id="Grupo_1216280" data-name="Grupo 1216280" transform="translate(0.966 58.73)">
        <g id="Grupo_1216269" data-name="Grupo 1216269" transform="translate(40.342)">
          <g id="Grupo_1216267" data-name="Grupo 1216267">
            <circle id="Elipse_14349" data-name="Elipse 14349" cx="9.792" cy="9.792" r="9.792" transform="translate(0 13.846) rotate(-45)" fill="#ffe177"/>
          </g>
          <g id="Grupo_1216268" data-name="Grupo 1216268" transform="translate(11.926 4.054)">
            <path id="Trazado_1162589" data-name="Trazado 1162589" d="M415.38,328.949a9.828,9.828,0,0,0-1.931.191,9.793,9.793,0,0,1,0,19.2,9.792,9.792,0,1,0,1.931-19.393Z" transform="translate(-413.449 -328.949)" fill="#ffd15b"/>
          </g>
        </g>
        <g id="Grupo_1216279" data-name="Grupo 1216279" transform="translate(0 4.054)">
          <g id="Grupo_1216273" data-name="Grupo 1216273">
            <g id="Grupo_1216272" data-name="Grupo 1216272">
              <g id="Grupo_1216271" data-name="Grupo 1216271">
                <g id="Grupo_1216270" data-name="Grupo 1216270">
                  <circle id="Elipse_14350" data-name="Elipse 14350" cx="9.792" cy="9.792" r="9.792" fill="#c8effe"/>
                </g>
              </g>
            </g>
          </g>
          <path id="Trazado_1162590" data-name="Trazado 1162590" d="M37.55,435.008a5.17,5.17,0,0,1-6.879,0,9.812,9.812,0,0,0-3.867,2.653,9.787,9.787,0,0,0,14.613,0A9.813,9.813,0,0,0,37.55,435.008Z" transform="translate(-24.318 -421.352)" fill="#00f2a6"/>
          <g id="Grupo_1216277" data-name="Grupo 1216277" transform="translate(4.618 4.618)">
            <g id="Grupo_1216276" data-name="Grupo 1216276">
              <g id="Grupo_1216275" data-name="Grupo 1216275">
                <g id="Grupo_1216274" data-name="Grupo 1216274">
                  <circle id="Elipse_14351" data-name="Elipse 14351" cx="5.174" cy="5.174" r="5.174" fill="#05e39c"/>
                </g>
              </g>
            </g>
          </g>
          <g id="Grupo_1216278" data-name="Grupo 1216278" transform="translate(8.164 4.618)">
            <path id="Trazado_1162591" data-name="Trazado 1162591" d="M72.533,364.818a5.167,5.167,0,0,0-1.628.263,5.173,5.173,0,0,1,0,9.821,5.174,5.174,0,1,0,1.628-10.084Z" transform="translate(-70.905 -364.818)" fill="#0ed290"/>
          </g>
        </g>
      </g>
      <g id="Grupo_1216281" data-name="Grupo 1216281" transform="translate(0 23.449)">
        <path id="Trazado_1162592" data-name="Trazado 1162592" d="M353.268,138.852c.519.334,1.03.692,1.521,1.064a.966.966,0,0,0,1.167-1.539c-.53-.4-1.083-.788-1.643-1.149a.966.966,0,1,0-1.046,1.624Z" transform="translate(-307.397 -122.444)"/>
        <path id="Trazado_1162593" data-name="Trazado 1162593" d="M389.049,168.563a.966.966,0,1,0,1.486-1.233c-.425-.512-.875-1.014-1.338-1.493a.966.966,0,0,0-1.388,1.343C388.239,167.624,388.656,168.089,389.049,168.563Z" transform="translate(-337.64 -147.247)"/>
        <path id="Trazado_1162594" data-name="Trazado 1162594" d="M442.743,286.176a.966.966,0,0,0-.89,1.036c.047.613.07,1.238.07,1.856a.966.966,0,1,0,1.931,0c0-.667-.026-1.34-.076-2A.966.966,0,0,0,442.743,286.176Z" transform="translate(-384.959 -252.346)"/>
        <path id="Trazado_1162595" data-name="Trazado 1162595" d="M415.893,204.258a.966.966,0,1,0,1.729-.861c-.3-.6-.621-1.188-.963-1.759a.966.966,0,0,0-1.657.992C415.318,203.159,415.618,203.706,415.893,204.258Z" transform="translate(-361.448 -178.286)"/>
        <path id="Trazado_1162596" data-name="Trazado 1162596" d="M433.358,243.355c.186.587.352,1.189.492,1.789a.966.966,0,0,0,1.881-.44c-.152-.648-.331-1.3-.532-1.934a.966.966,0,1,0-1.841.584Z" transform="translate(-377.521 -213.945)"/>
        <path id="Trazado_1162597" data-name="Trazado 1162597" d="M56.488,254.092a.965.965,0,0,0,1.128-.771c.114-.606.253-1.215.413-1.809a.966.966,0,0,0-1.865-.5c-.173.642-.323,1.3-.446,1.955a.965.965,0,0,0,.771,1.127Z" transform="translate(-48.529 -221.087)"/>
        <path id="Trazado_1162598" data-name="Trazado 1162598" d="M69.624,212.179a.965.965,0,0,0,1.275-.491c.25-.563.525-1.123.819-1.666a.966.966,0,0,0-1.7-.918c-.317.586-.614,1.192-.884,1.8A.966.966,0,0,0,69.624,212.179Z" transform="translate(-60.16 -184.759)"/>
        <path id="Trazado_1162599" data-name="Trazado 1162599" d="M53.306,297.462a.966.966,0,0,0,.966-.966c0-.266,0-.535.013-.8a.966.966,0,0,0-1.93-.063c-.009.286-.014.576-.014.862A.966.966,0,0,0,53.306,297.462Z" transform="translate(-45.601 -259.774)"/>
        <path id="Trazado_1162600" data-name="Trazado 1162600" d="M161.529,38.646a.963.963,0,0,0,.43-.1c.249-.124.5-.243.756-.359a10.753,10.753,0,0,0,19.994-.026.965.965,0,0,0,.572-1.831l-.026-.011a10.758,10.758,0,1,0-21.1,0c-.358.158-.712.324-1.06.5a.966.966,0,0,0,.431,1.83Zm3.592.067h3.373a16.557,16.557,0,0,0,.735,2.754,10.685,10.685,0,0,0,.44,1.028,8.875,8.875,0,0,1-4.549-3.782Zm7.585,4.32c-.629,0-1.669-1.5-2.248-4.32h4.5C174.375,41.534,173.335,43.033,172.706,43.033Zm8.442-11.4a8.822,8.822,0,0,1,0,5.15h-3.962c.081-.832.123-1.7.123-2.575s-.042-1.743-.123-2.575Zm-.857-1.931h-3.373a16.557,16.557,0,0,0-.735-2.754,10.658,10.658,0,0,0-.44-1.028A8.875,8.875,0,0,1,180.291,29.7Zm-4.108,11.767a16.554,16.554,0,0,0,.735-2.754h3.373a8.874,8.874,0,0,1-4.549,3.781A10.689,10.689,0,0,0,176.183,41.467ZM172.706,25.38c.629,0,1.669,1.5,2.249,4.32h-4.5C171.037,26.879,172.077,25.38,172.706,25.38Zm-2.542,6.251h5.084a25.74,25.74,0,0,1,0,5.15h-5.084a25.737,25.737,0,0,1,0-5.15Zm-.494-5.713a10.654,10.654,0,0,0-.44,1.028,16.554,16.554,0,0,0-.735,2.754h-3.373A8.874,8.874,0,0,1,169.669,25.919Zm-5.406,5.713h3.962c-.081.832-.123,1.7-.123,2.575s.042,1.743.123,2.575h-3.962a8.822,8.822,0,0,1,0-5.15Z" transform="translate(-139.889 -23.449)"/>
        <path id="Trazado_1162601" data-name="Trazado 1162601" d="M92.274,175.047a.966.966,0,0,0,1.353-.186c.373-.491.769-.974,1.178-1.435a.966.966,0,0,0-1.445-1.282c-.442.5-.869,1.019-1.272,1.549A.966.966,0,0,0,92.274,175.047Z" transform="translate(-80.06 -152.716)"/>
        <path id="Trazado_1162602" data-name="Trazado 1162602" d="M123.91,144.965a.961.961,0,0,0,.616-.222c.475-.394.971-.774,1.474-1.13a.966.966,0,1,0-1.116-1.576c-.543.384-1.078.795-1.591,1.22a.966.966,0,0,0,.617,1.709Z" transform="translate(-107.114 -126.613)"/>
        <path id="Trazado_1162603" data-name="Trazado 1162603" d="M230.994,243.226a.966.966,0,0,0,.966-.966V241a.966.966,0,0,0-1.931,0v1.259A.966.966,0,0,0,230.994,243.226Z" transform="translate(-200.41 -212.149)"/>
        <path id="Trazado_1162604" data-name="Trazado 1162604" d="M267.938,243.226a.966.966,0,0,0,.966-.966V241a.966.966,0,0,0-1.931,0v1.259A.966.966,0,0,0,267.938,243.226Z" transform="translate(-232.598 -212.149)"/>
        <path id="Trazado_1162605" data-name="Trazado 1162605" d="M230.028,281.379a.966.966,0,0,0,1.931,0V280.12a.966.966,0,1,0-1.931,0Z" transform="translate(-200.41 -246.23)"/>
        <path id="Trazado_1162606" data-name="Trazado 1162606" d="M266.972,281.379a.966.966,0,0,0,1.931,0V280.12a.966.966,0,1,0-1.931,0Z" transform="translate(-232.598 -246.23)"/>
        <path id="Trazado_1162607" data-name="Trazado 1162607" d="M230.028,320.5a.966.966,0,1,0,1.931,0v-1.259a.966.966,0,0,0-1.931,0Z" transform="translate(-200.41 -280.312)"/>
        <path id="Trazado_1162608" data-name="Trazado 1162608" d="M266.972,320.5a.966.966,0,1,0,1.931,0v-1.259a.966.966,0,1,0-1.931,0Z" transform="translate(-232.598 -280.312)"/>
        <path id="Trazado_1162609" data-name="Trazado 1162609" d="M230.028,359.614a.966.966,0,1,0,1.931,0v-1.259a.966.966,0,1,0-1.931,0Z" transform="translate(-200.41 -314.392)"/>
        <path id="Trazado_1162610" data-name="Trazado 1162610" d="M266.972,359.614a.966.966,0,1,0,1.931,0v-1.259a.966.966,0,0,0-1.931,0Z" transform="translate(-232.598 -314.392)"/>
        <path id="Trazado_1162611" data-name="Trazado 1162611" d="M324.808,302.448h1.259a.966.966,0,0,0,0-1.931h-1.259a.966.966,0,0,0,0,1.931Z" transform="translate(-282.145 -264.843)"/>
        <path id="Trazado_1162612" data-name="Trazado 1162612" d="M324.808,332.448h1.259a.966.966,0,0,0,0-1.931h-1.259a.966.966,0,0,0,0,1.931Z" transform="translate(-282.145 -290.98)"/>
        <path id="Trazado_1162613" data-name="Trazado 1162613" d="M324.808,362.448h1.259a.966.966,0,0,0,0-1.931h-1.259a.966.966,0,0,0,0,1.931Z" transform="translate(-282.145 -317.117)"/>
        <path id="Trazado_1162614" data-name="Trazado 1162614" d="M166.587,302.448h1.259a.966.966,0,0,0,0-1.931h-1.259a.966.966,0,1,0,0,1.931Z" transform="translate(-144.296 -264.843)"/>
        <path id="Trazado_1162615" data-name="Trazado 1162615" d="M166.587,332.448h1.259a.966.966,0,0,0,0-1.931h-1.259a.966.966,0,1,0,0,1.931Z" transform="translate(-144.296 -290.98)"/>
        <path id="Trazado_1162616" data-name="Trazado 1162616" d="M166.587,362.448h1.259a.966.966,0,1,0,0-1.931h-1.259a.966.966,0,1,0,0,1.931Z" transform="translate(-144.296 -317.117)"/>
        <path id="Trazado_1162617" data-name="Trazado 1162617" d="M55.166,221.1a10.832,10.832,0,0,0-2.212.229.966.966,0,0,0,.4,1.89,8.827,8.827,0,1,1-7.01,8.638,8.787,8.787,0,0,1,3.329-6.9.966.966,0,1,0-1.2-1.51,10.956,10.956,0,0,0-.826.731v-7.769a1.611,1.611,0,0,0-1.609-1.609H40.783v-6.918a1.611,1.611,0,0,0-1.609-1.609H26.75a1.611,1.611,0,0,0-1.609,1.609v1.642a.966.966,0,0,0,1.931,0V208.2H38.852v24.364H27.072V214.03a.966.966,0,0,0-1.931,0v.769H19.895a1.611,1.611,0,0,0-1.609,1.609v7.775a10.746,10.746,0,0,0-13.1-1.53.966.966,0,1,0,1,1.651,8.823,8.823,0,0,1,11.789,12.62,10.829,10.829,0,0,0-2.2-1.544,6.14,6.14,0,1,0-10.048,0,10.832,10.832,0,0,0-2.2,1.544,8.807,8.807,0,0,1-.246-9.771.966.966,0,0,0-1.633-1.031A10.757,10.757,0,1,0,21.187,234.5h23.55a10.758,10.758,0,1,0,10.429-13.4Zm-44.408,6.55a4.208,4.208,0,1,1-4.208,4.208A4.213,4.213,0,0,1,10.758,227.651Zm0,13.034a8.792,8.792,0,0,1-5.948-2.311,8.885,8.885,0,0,1,2.352-1.544,6.12,6.12,0,0,0,7.191,0,8.888,8.888,0,0,1,2.352,1.544A8.792,8.792,0,0,1,10.758,240.686Zm14.383-8.118H21.49c.015-.234.026-.47.026-.708a10.691,10.691,0,0,0-1.3-5.121V216.731h4.924Zm20.566-5.839a10.719,10.719,0,0,0-1.3,5.131c0,.238.011.474.026.708H40.783V216.731h4.924Z" transform="translate(0 -182.732)"/>
        <path id="Trazado_1162618" data-name="Trazado 1162618" d="M400.877,351.591a.966.966,0,0,0-.966.966v.723h-.3a2.811,2.811,0,0,0-2.808,2.808v.537a2.811,2.811,0,0,0,2.808,2.808h2.533a.878.878,0,0,1,.877.877v.537a.878.878,0,0,1-.877.877H399.61a.878.878,0,0,1-.877-.877.966.966,0,1,0-1.931,0,2.811,2.811,0,0,0,2.808,2.808h.3v.723a.966.966,0,1,0,1.931,0v-.723h.3a2.811,2.811,0,0,0,2.808-2.808v-.537a2.811,2.811,0,0,0-2.808-2.808H399.61a.878.878,0,0,1-.877-.877v-.537a.878.878,0,0,1,.877-.877h2.533a.878.878,0,0,1,.877.877.966.966,0,0,0,1.931,0,2.811,2.811,0,0,0-2.808-2.808h-.3v-.723A.966.966,0,0,0,400.877,351.591Z" transform="translate(-345.711 -309.341)"/>
        <path id="Trazado_1162619" data-name="Trazado 1162619" d="M373.864,390.18a.966.966,0,0,0-.966.966v1.35a.966.966,0,1,0,1.931,0v-1.35A.966.966,0,0,0,373.864,390.18Z" transform="translate(-324.885 -342.961)"/>
        <path id="Trazado_1162620" data-name="Trazado 1162620" d="M470.931,392.5v-1.35a.966.966,0,0,0-1.931,0v1.35a.966.966,0,1,0,1.931,0Z" transform="translate(-408.613 -342.961)"/>
        <path id="Trazado_1162621" data-name="Trazado 1162621" d="M63.167,393.333a.966.966,0,0,0,.966-.966v-.9a.966.966,0,0,0-1.931,0v.9A.966.966,0,0,0,63.167,393.333Z" transform="translate(-54.192 -343.24)"/>
        <path id="Trazado_1162622" data-name="Trazado 1162622" d="M90.867,393.333a.966.966,0,0,0,.966-.966v-.9a.966.966,0,0,0-1.931,0v.9A.966.966,0,0,0,90.867,393.333Z" transform="translate(-78.326 -343.24)"/>
      </g>
    </g>
  </g>
</svg>
