<svg xmlns="http://www.w3.org/2000/svg" width="105.957" height="136.843" viewBox="0 0 105.957 136.843">
  <g id="Grupo_1217841" data-name="Grupo 1217841" transform="matrix(0.978, -0.208, 0.208, 0.978, -253.076, -38.996)">
    <path id="Trazado_1167430" data-name="Trazado 1167430" d="M250.61,173.808c3.239,3.209,9.312,7.662,9.392,12.61.033,2.037-.2,4.057-.08,6.044a10.146,10.146,0,0,0-2.533,13.806c-3.266,4.24-2.349,9.827,1.762,13.373,2.486,2.143,5.9,3.242,9.435,3.808,1.983,8.229,14.317,8.907,16.189.221a.987.987,0,0,0,.016-.135,22.406,22.406,0,0,0,11.126-4.748c4.273-3.591,5.531-9.475,1.37-13.372,3.4-5.174,2.405-11.122-3.382-14.053a36.355,36.355,0,0,0-.095-4.459c-.294-3.894,3.411-7.012,5.859-9.565,5.549-5.788,11.754-11.03,15.534-18.237,7.034-13.412.812-32.359-10.131-41.772-12.155-10.455-31.087-12.542-45.661-6.384-15.544,6.567-23.351,20.449-23.529,37.031-.116,10.774,7.588,18.761,14.729,25.834Z" transform="translate(0 0)" fill="#68182b"/>
    <path id="Trazado_1167431" data-name="Trazado 1167431" d="M458.186,852.778a68.577,68.577,0,0,0,7.406.32,47.634,47.634,0,0,0,4.94-.245C468.7,858.933,460.235,858.424,458.186,852.778Z" transform="translate(-187.642 -629.067)" fill="#ff8e5b"/>
    <path id="Trazado_1167432" data-name="Trazado 1167432" d="M407.6,756.929c-3.893,2.551-9.041,2.941-13.553,3.11a42.474,42.474,0,0,1-14.218-1.736c-5.576-1.742-9.888-7.568-6.219-12.732,4.47,5.011,14.453,5.109,20.437,4.993,6.036-.117,13.1-1.1,17.266-5.887,4.155,4.16.578,9.44-3.713,12.252Z" transform="translate(-115.109 -537.822)" fill="#ff8e5b"/>
    <path id="Trazado_1167433" data-name="Trazado 1167433" d="M411.471,670.639c-3.636,3.959-9.527,4.593-14.573,4.876a41.515,41.515,0,0,1-16.019-1.988,9.841,9.841,0,0,1-4.392-3.1,1.025,1.025,0,0,0-.336-.443c-2.357-3.293-2.454-7.839,1.025-10.876a9.618,9.618,0,0,0,.724,2.094c2.767,5.7,12.553,5.447,17.692,5.014.546-.046,1.168-.1,1.84-.179a1,1,0,0,0,.686-.082c4.519-.567,10.787-1.98,12.225-6.054a.927.927,0,0,0,.082-.232.965.965,0,0,0,.039-.215c.1-.513.179-1.021.243-1.523C415.681,660.959,415.326,666.441,411.471,670.639Z" transform="translate(-116.972 -464.606)" fill="#ff8e5b"/>
    <path id="Trazado_1167434" data-name="Trazado 1167434" d="M471.947,422.382a13.639,13.639,0,0,0,4.814,3.89c-2.211,12.825-1.809,26.29-1.258,39.226-.692.069-4.147.327-5.467.331a150.76,150.76,0,0,0-.177-27.934,104.454,104.454,0,0,0-2.027-12.2A19.412,19.412,0,0,0,471.947,422.382Z" transform="translate(-195.784 -265.783)" fill="#fbf199"/>
    <path id="Trazado_1167435" data-name="Trazado 1167435" d="M482.738,319.05c-.969-4.032-2.607-13.55,1.517-12.416,4.736,1.3,2.336,9.723,1.032,12.374q-.135.274-.281.545C484.6,320.295,483.435,321.96,482.738,319.05Z" transform="translate(-207.394 -168.004)" fill="#fbf199"/>
    <path id="Trazado_1167436" data-name="Trazado 1167436" d="M263.8,124.5c15.945-9.312,38.679-6.787,51.454,6.764,5.249,5.568,7.919,13.014,8.854,20.5,1.121,8.967-1.222,16.3-6.962,23.192-4.569,5.485-10.571,9.836-14.728,15.658-3.1,4.34-1.373,8.7-2.383,13.649-.734,2.447-4.031,3.731-7.364,4.435-2.418.511-2.873.08-2.961-2.548-.272-8.194-.282-16.4.2-24.582a104.761,104.761,0,0,1,1.039-10.677c.028.011.053.023.08.033,4.531,1.679,10.068,1.069,13.465-2.531a10.667,10.667,0,0,0,0-13.882c-6.928-7.348-13.514,7.987-14.836,13.691a13.1,13.1,0,0,1-4.036-3.246,19.864,19.864,0,0,0,2.857-4.93c1.461-3.651,2.028-8.141-.365-11.546-1.369-1.948-3.864-2.818-5.751-1.076-2.4,2.217-1.748,6.814-1.35,9.611a21.347,21.347,0,0,0,2.42,7.7,19.242,19.242,0,0,1-3.537,3.053,42.43,42.43,0,0,0-3.212-8.412c-1.794-3.441-7.037-10.689-11.581-6.5-3.845,3.542-4.347,10.238-2.334,14.805,2.215,5.026,8.443,5.181,12.966,3.932a18.491,18.491,0,0,0,3.02-1.13c.607,2.94,1.024,5.847,1.433,8.4,1.433,8.948,1.346,18.021.828,27.045-.171,2.983-.941,3.891-3.511,3.4-2.806-.534-5.357-1.677-6.711-3.938-1.47-2.453-.906-6.068-.7-8.793a8.888,8.888,0,0,0-2.231-6.142c-5.344-6.836-12.477-12.036-17.435-19.21-10.731-15.529-1.718-37.9,13.374-46.718Z" transform="translate(-8.314 -9.67)" fill="#fbf199"/>
    <path id="Trazado_1167437" data-name="Trazado 1167437" d="M541.273,359.516a25.659,25.659,0,0,1,3.69-7.567c1.274-1.849,3.295-3.956,5.761-3.536,3.557.607,4,5.53,3.588,8.248-.9,5.87-5.9,7.62-10.851,6.747C541.367,363.038,540.562,362.058,541.273,359.516Z" transform="translate(-257.56 -203.302)" fill="#fbf199"/>
    <path id="Trazado_1167438" data-name="Trazado 1167438" d="M372.264,357.368a13.184,13.184,0,0,1-8.411.584c-3.753-1.049-4.926-5.236-4.718-8.689.252-4.194,2.975-10.475,7.8-6.456,3.166,2.635,5.079,6.585,6.354,10.832C373.9,355.647,374.056,356.663,372.264,357.368Z" transform="translate(-104.016 -197.527)" fill="#fbf199"/>
    <path id="Trazado_1167439" data-name="Trazado 1167439" d="M557.524,268.212c-4.52,7.631-12.929,11.613-18.02,18.685a19.347,19.347,0,0,0-3.621,10.142c-.184,2.1-.17,4.33-1.571,6.053-1.472,1.81-4.284,2.453-6.609,2.884,0,.158.008.316.013.474.088,2.628.543,3.059,2.961,2.548,3.333-.7,6.63-1.988,7.364-4.435,1.01-4.951-.717-9.308,2.383-13.649,4.157-5.822,10.159-10.173,14.728-15.658,5.74-6.89,8.083-14.226,6.962-23.192a40.454,40.454,0,0,0-4.39-14.275c4.536,9.727,5.311,21.121-.2,30.424Z" transform="translate(-246.319 -109.972)" fill="#f3af79"/>
    <path id="Trazado_1167440" data-name="Trazado 1167440" d="M270.113,301.123c-.206,2.725-.77,6.339.7,8.793,1.355,2.261,3.906,3.4,6.711,3.938,2.538.483,3.32-.4,3.5-3.3-2.7-.484-5.105-1.71-6.18-4.262-1.386-3.291-.909-7.189-1.783-10.631-2.03-8-9.853-13.638-15.374-19.187a32.288,32.288,0,0,1-7.118-33.656c-5.76,10.21-7.01,22.985-.126,32.948,4.958,7.175,12.091,12.374,17.435,19.21A8.888,8.888,0,0,1,270.113,301.123Z" transform="translate(-8.335 -114.222)" fill="#f3af79"/>
    <path id="Trazado_1167441" data-name="Trazado 1167441" d="M482.187,677.321q-.1,1.748-.22,3.5c1.32,0,4.774-.262,5.467-.331q-.072-1.694-.138-3.4A24.358,24.358,0,0,1,482.187,677.321Z" transform="translate(-207.715 -480.77)" fill="#f3af79"/>
    <path id="Trazado_1167442" data-name="Trazado 1167442" d="M349.658,143.391c-11.862-5.122-28.438-1.44-36.618,7.087-3.194,3.33-6.6,9.14-3.734,13.662,2.918,4.6,10.623-.284,13.942-1.749a32.865,32.865,0,0,1,13.685-3.275c4.254.014,8.474.914,12.726,1.077,4.3.165,7.813-1.672,8.1-6.266C358.083,148.909,353.782,145.172,349.658,143.391Z" transform="translate(-61.066 -28.317)" fill="#fff7cf"/>
    <path id="Trazado_1167443" data-name="Trazado 1167443" d="M414.761,744.677c-4.17,4.784-11.231,5.77-17.266,5.887-5.983.116-15.967.018-20.437-4.993a7.872,7.872,0,0,0-.725,1.25,14.558,14.558,0,0,0,5.331,4.378c5.109,2.608,11.242,3.12,16.876,2.688,4.876-.374,9.684-1.561,13.626-4.554a10.967,10.967,0,0,0,3.217-3.948A7.462,7.462,0,0,0,414.761,744.677Z" transform="translate(-118.552 -537.822)" fill="#ff564d"/>
    <path id="Trazado_1167444" data-name="Trazado 1167444" d="M466.481,856.948a4.267,4.267,0,0,1-3.747-1.555,2.005,2.005,0,0,1-.195-2.336c-1.411-.041-2.876-.119-4.353-.279A6.845,6.845,0,0,0,466.481,856.948Z" transform="translate(-187.642 -629.068)" fill="#ff564d"/>
    <path id="Trazado_1167445" data-name="Trazado 1167445" d="M387.816,663.631c2.307,3.135,6.507,4.341,10.131,5.039,7.867,1.514,19.442-.268,23.331-8.3a7.282,7.282,0,0,0,.559-1.627,9.3,9.3,0,0,0-1.116-.807c-.064.5-.143,1.01-.243,1.524a.969.969,0,0,1-.039.215.932.932,0,0,1-.082.232c-1.438,4.074-7.706,5.487-12.225,6.054a1,1,0,0,1-.686.082c-.672.075-1.294.133-1.84.179-5.138.432-14.925.684-17.692-5.014a9.62,9.62,0,0,1-.724-2.094,8.52,8.52,0,0,0-.865.884A8.113,8.113,0,0,0,387.816,663.631Z" transform="translate(-126.986 -464.605)" fill="#ff564d"/>
    <path id="Trazado_1167446" data-name="Trazado 1167446" d="M392.5,719.658c1.234,4.147,7.593,5.489,11.173,4.235a.521.521,0,0,0,0-1c-1.833-.689-3.715-.913-5.58-1.464-1.813-.535-3.265-1.754-5.027-2.341A.464.464,0,0,0,392.5,719.658Z" transform="translate(-132.187 -516.209)" fill="#fbc471"/>
    <path id="Trazado_1167447" data-name="Trazado 1167447" d="M472.384,742.726a1.717,1.717,0,0,0,2.5.3.865.865,0,0,0-.172-1.331,1.844,1.844,0,0,0-2.324.542A.479.479,0,0,0,472.384,742.726Z" transform="translate(-199.569 -535.113)" fill="#fbc471"/>
    <path id="Trazado_1167448" data-name="Trazado 1167448" d="M525.675,800.2c3.765,1.4,9.873-.247,11.926-3.784a.566.566,0,0,0-.634-.824c-1.8.528-3.4,1.4-5.156,2.027-2,.708-4.183.837-6.137,1.628A.5.5,0,0,0,525.675,800.2Z" transform="translate(-244.311 -580.783)" fill="#fbc471"/>
    <g id="Grupo_1217840" data-name="Grupo 1217840" transform="translate(239.636 119.017)">
      <path id="Trazado_1167449" data-name="Trazado 1167449" d="M644.568,190.835a35.725,35.725,0,0,1,3.939,11.016,57.449,57.449,0,0,1,.88,10.116,38.145,38.145,0,0,1-.229,6.43.113.113,0,0,0,.217.059c2.039-5.247,1.428-11.57.384-16.95-1.534-7.9-5.577-16.7-13.374-20.136-.083-.036-.188.068-.105.136A34.3,34.3,0,0,1,644.568,190.835Z" transform="translate(-577.576 -181.363)" fill="#68182b"/>
      <path id="Trazado_1167450" data-name="Trazado 1167450" d="M711.82,427.126c-.1.165-.235.284-.332.456a5.408,5.408,0,0,0-.266.579,4.413,4.413,0,0,0-.37,1.391c-.006.062.076.084.115.048a2.927,2.927,0,0,0,.787-1.139,3.711,3.711,0,0,0,.217-.675,1.881,1.881,0,0,0-.03-.627A.065.065,0,0,0,711.82,427.126Z" transform="translate(-640.545 -388.778)" fill="#68182b"/>
      <path id="Trazado_1167451" data-name="Trazado 1167451" d="M262.059,285.23c0-.055-.073-.07-.1-.027-1.785,2.95-2.037,7.047-1.982,10.41a23.5,23.5,0,0,0,3.12,11.341.121.121,0,0,0,.22-.093,45.364,45.364,0,0,1-2.246-11.248C260.887,292.046,261.782,288.735,262.059,285.23Z" transform="translate(-259.972 -268.99)" fill="#68182b"/>
      <path id="Trazado_1167452" data-name="Trazado 1167452" d="M276.814,262.617c-.158.113-.4.164-.506.337a3.851,3.851,0,0,0-.325.709,3.408,3.408,0,0,0-.236,1.552c0,.03.043.058.067.028a6.7,6.7,0,0,0,.693-1.17c.108-.2.222-.407.328-.613.138-.27.066-.441.123-.732C276.972,262.652,276.89,262.562,276.814,262.617Z" transform="translate(-273.273 -249.932)" fill="#68182b"/>
      <path id="Trazado_1167453" data-name="Trazado 1167453" d="M512.668,733.687C508.193,736.7,502.8,737,497.64,737.7c-.048.006-.044.083,0,.092,4.993,1.106,11.711.125,15.184-3.9C512.915,733.784,512.8,733.6,512.668,733.687Z" transform="translate(-460.552 -647.544)" fill="#68182b"/>
      <path id="Trazado_1167454" data-name="Trazado 1167454" d="M415.117,811a49.592,49.592,0,0,0-6.4-1.283c-2.123-.407-4.09-1.3-6.189-1.758a.039.039,0,0,0-.038.066c2.884,2.945,8.7,3.625,12.594,3.2A.113.113,0,0,0,415.117,811Z" transform="translate(-380.26 -710.254)" fill="#68182b"/>
      <path id="Trazado_1167455" data-name="Trazado 1167455" d="M489.017,826.917c-.1,0-.106.115-.044.162a2.139,2.139,0,0,0,.512.338,2.077,2.077,0,0,0,.564.112,1.3,1.3,0,0,0,1.215-.432.134.134,0,0,0-.058-.22A8.2,8.2,0,0,0,489.017,826.917Z" transform="translate(-453.232 -726.149)" fill="#68182b"/>
    </g>
  </g>
</svg>
