<svg xmlns="http://www.w3.org/2000/svg" xmlns:xlink="http://www.w3.org/1999/xlink" width="805.22" height="412.376" viewBox="0 0 805.22 412.376">
  <defs>
    <filter id="Trazado_1162540" x="36" y="88.067" width="164" height="237.594" filterUnits="userSpaceOnUse">
      <feOffset dy="3" input="SourceAlpha"/>
      <feGaussianBlur stdDeviation="3" result="blur"/>
      <feFlood flood-opacity="0.161"/>
      <feComposite operator="in" in2="blur"/>
      <feComposite in="SourceGraphic"/>
    </filter>
    <filter id="Trazado_1162539" x="321" y="88.067" width="164" height="237.594" filterUnits="userSpaceOnUse">
      <feOffset dy="3" input="SourceAlpha"/>
      <feGaussianBlur stdDeviation="3" result="blur-2"/>
      <feFlood flood-opacity="0.161"/>
      <feComposite operator="in" in2="blur-2"/>
      <feComposite in="SourceGraphic"/>
    </filter>
    <filter id="Rectángulo_420228" x="606" y="88.067" width="164" height="238" filterUnits="userSpaceOnUse">
      <feOffset dy="3" input="SourceAlpha"/>
      <feGaussianBlur stdDeviation="3" result="blur-3"/>
      <feFlood flood-opacity="0.161"/>
      <feComposite operator="in" in2="blur-3"/>
      <feComposite in="SourceGraphic"/>
    </filter>
    <clipPath id="clip-path">
      <rect id="Rectángulo_420225" data-name="Rectángulo 420225" width="805.22" height="412.376" fill="none"/>
    </clipPath>
    <clipPath id="clip-path-2">
      <rect id="Rectángulo_420224" data-name="Rectángulo 420224" width="805.221" height="412.376" fill="none"/>
    </clipPath>
    <clipPath id="clip-path-3">
      <rect id="Rectángulo_420219" data-name="Rectángulo 420219" width="14.359" height="11.203" fill="none"/>
    </clipPath>
    <clipPath id="clip-path-4">
      <rect id="Rectángulo_420220" data-name="Rectángulo 420220" width="14.36" height="11.203" fill="none"/>
    </clipPath>
  </defs>
  <g id="Grupo_1216221" data-name="Grupo 1216221" transform="translate(-390 -3038.933)">
    <g id="Grupo_1216210" data-name="Grupo 1216210">
      <g transform="matrix(1, 0, 0, 1, 390, 3038.93)" filter="url(#Trazado_1162540)">
        <path id="Trazado_1162540-2" data-name="Trazado 1162540" d="M73,0c40.317,0,73,26.582,73,59.372V160.222c0,32.79-32.683,59.372-73,59.372S0,193.013,0,160.222V59.372C0,26.582,32.683,0,73,0Z" transform="translate(45 94.07)" fill="#fff"/>
      </g>
      <g transform="matrix(1, 0, 0, 1, 390, 3038.93)" filter="url(#Trazado_1162539)">
        <path id="Trazado_1162539-2" data-name="Trazado 1162539" d="M73,0c40.317,0,73,26.582,73,59.372V160.222c0,32.79-32.683,59.372-73,59.372S0,193.013,0,160.222V59.372C0,26.582,32.683,0,73,0Z" transform="translate(330 94.07)" fill="#fff"/>
      </g>
      <g transform="matrix(1, 0, 0, 1, 390, 3038.93)" filter="url(#Rectángulo_420228)">
        <rect id="Rectángulo_420228-2" data-name="Rectángulo 420228" width="146" height="220" rx="73" transform="translate(615 94.07)" fill="#fff"/>
      </g>
      <g id="Grupo_1216209" data-name="Grupo 1216209" transform="translate(390 3038.933)">
        <g id="Grupo_1216208" data-name="Grupo 1216208" clip-path="url(#clip-path)">
          <g id="Grupo_1216207" data-name="Grupo 1216207">
            <g id="Grupo_1216206" data-name="Grupo 1216206" clip-path="url(#clip-path-2)">
              <path id="Trazado_1162368" data-name="Trazado 1162368" d="M1014.933,45.857a15.232,15.232,0,0,0-2.291-21.895,117.393,117.393,0,0,0-143.034.675,15.353,15.353,0,1,0,18.839,24.247A86.556,86.556,0,0,1,994,48.355a15.32,15.32,0,0,0,20.936-2.5" transform="translate(-253.731 0)" fill="#fb8c00"/>
              <path id="Trazado_1162369" data-name="Trazado 1162369" d="M1042.547,179.815V330.508c0,64.729-51.777,118.382-116.507,118.855A117.381,117.381,0,0,1,807.775,331.98V179.815a117.135,117.135,0,0,1,6.264-37.926,15.346,15.346,0,1,1,29.093,9.778,86.427,86.427,0,0,0-4.688,28.148V330.662c0,47.585,37.784,87.3,85.363,88.025a86.818,86.818,0,0,0,88.073-86.708V179.815a86.322,86.322,0,0,0-6.425-32.77,15.326,15.326,0,0,1,5.92-18.714h0a15.378,15.378,0,0,1,22.533,7.212,117.017,117.017,0,0,1,8.64,44.274" transform="translate(-237.327 -36.991)" fill="#fb8c00"/>
              <path id="Trazado_1162370" data-name="Trazado 1162370" d="M1019.272,166.184a77.529,77.529,0,1,1-77.528-77.528,77.527,77.527,0,0,1,77.528,77.528" transform="translate(-253.909 -26.047)" fill="#ffb74d"/>
              <path id="Trazado_1162371" data-name="Trazado 1162371" d="M986.955,165.722l-12.676-1.915c-3.842-1.34-7.4-5.419-7.4-7.885,0-.078-.027-6.872-.027-6.872a61.093,61.093,0,0,1-9.038,3.528,48.838,48.838,0,0,1-8.046-3.477s-.027,6.681-.027,6.758c0,2.507-4.193,6.681-8.272,7.95l-12.653,1.912c-5.315,0-9.624,5.3-9.624,11.838S923.5,189.4,928.814,189.4h58.141c5.315,0,9.624-5.3,9.624-11.838s-4.309-11.838-9.624-11.838" transform="translate(-270.061 -43.791)" fill="#fcc397"/>
              <path id="Trazado_1162372" data-name="Trazado 1162372" d="M986.165,84.59c-2.508,7.389-11.191,11.123-19.4,8.337S953.946,81.9,956.456,74.5s11.192-11.123,19.4-8.338S988.674,77.2,986.165,84.59" transform="translate(-280.809 -19.169)" fill="#663412"/>
              <path id="Trazado_1162373" data-name="Trazado 1162373" d="M989.7,98.638c0,14.488-11.25,26.308-25.127,26.232-17.717-.1-25.126-11.744-25.126-26.232s11.248-26.232,25.126-26.232S989.7,84.151,989.7,98.638" transform="translate(-276.012 -21.273)" fill="#663412"/>
              <path id="Trazado_1162374" data-name="Trazado 1162374" d="M962.458,145.58v4.39a47.537,47.537,0,0,0,7.1,4.078,2.34,2.34,0,0,0,1.864.068,55.922,55.922,0,0,0,8.169-4.215V145.58Z" transform="translate(-282.773 -42.772)" fill="#ea9f6c"/>
              <path id="Trazado_1162375" data-name="Trazado 1162375" d="M985.363,104.8a2.346,2.346,0,0,0-1.748.148c.616-5.87.962-11.786.068-13.185a23.507,23.507,0,0,0-18.762-10.83h0a23.506,23.506,0,0,0-18.763,10.83c-.884,1.386-.554,7.2.05,13.009a2.175,2.175,0,0,0-1.249.02c-1.727.581-2.333,3.41-1.354,6.316.807,2.39,2.432,4.085,3.943,4.291.238,1.646.4,2.678.4,2.678,3.556,9.427,12.941,14.065,16,15.351a2.453,2.453,0,0,0,1.864.038c2.957-1.232,12.493-5.867,16.085-15.389,0,0,.161-1.028.4-2.669,1.628.115,3.51-1.665,4.4-4.288.987-2.9.391-5.733-1.332-6.32" transform="translate(-277.096 -23.778)" fill="#fcc397"/>
              <path id="Trazado_1162376" data-name="Trazado 1162376" d="M980.777,110.774c.5-.351,4.624-3.585,9.118-.414,2.728,1.924-1.41-.955-3.453-.717a11.553,11.553,0,0,0-5.2,2.064c-.684.479-1.15-.455-.466-.934" transform="translate(-288.057 -32.018)" fill="#663412"/>
              <path id="Trazado_1162377" data-name="Trazado 1162377" d="M963.247,110.8c-.484-.347-4.453-3.535-8.841-.316-2.664,1.954,1.374-.969,3.354-.754a10.8,10.8,0,0,1,5.025,2.006c.657.472,1.119-.466.461-.937" transform="translate(-280.148 -32.043)" fill="#663412"/>
              <path id="Trazado_1162378" data-name="Trazado 1162378" d="M964.647,117.773c-2.18.724-3.018,1.178-4.2,1.225-1.723.071-3.131-.905-3.131-1.982s1.4-1.95,3.119-1.95a5.842,5.842,0,0,1,4.21,2.706" transform="translate(-281.263 -33.807)" fill="#fff"/>
              <path id="Trazado_1162379" data-name="Trazado 1162379" d="M962.61,117.105a1.82,1.82,0,1,1-1.816-1.918,1.869,1.869,0,0,1,1.816,1.918" transform="translate(-281.75 -33.842)" fill="#7b9368"/>
              <path id="Trazado_1162380" data-name="Trazado 1162380" d="M962.354,117.091a1.234,1.234,0,1,1-1.231-1.3,1.266,1.266,0,0,1,1.231,1.3" transform="translate(-282.019 -34.019)"/>
              <path id="Trazado_1162381" data-name="Trazado 1162381" d="M963.178,117.2a.6.6,0,1,1-.585-.453.533.533,0,0,1,.585.453" transform="translate(-282.641 -34.301)" fill="#fff"/>
              <path id="Trazado_1162382" data-name="Trazado 1162382" d="M963.664,117.291c-1.414-2.523-4.591-2.623-6.657-1.853-1.818.675-2.17.318-2.244.23.028.7.955,2.138,2.91,2.854a2.154,2.154,0,0,1-1.032-1.112c.191-1.143,2.634-1.832,4.282-1.335,2.373.718,2.975,1.693,2.975,1.693a1.938,1.938,0,0,0-.234-.478" transform="translate(-280.512 -33.792)"/>
              <path id="Trazado_1162383" data-name="Trazado 1162383" d="M980.523,117.773c2.211.724,3.063,1.178,4.258,1.225,1.746.071,3.174-.905,3.174-1.982s-1.415-1.95-3.163-1.95a5.925,5.925,0,0,0-4.269,2.706" transform="translate(-288.081 -33.807)" fill="#fff"/>
              <path id="Trazado_1162384" data-name="Trazado 1162384" d="M984.148,117.105a1.845,1.845,0,1,0,1.841-1.918,1.881,1.881,0,0,0-1.841,1.918" transform="translate(-289.146 -33.842)" fill="#7b9368"/>
              <path id="Trazado_1162385" data-name="Trazado 1162385" d="M984.9,117.091a1.25,1.25,0,1,0,1.249-1.3,1.275,1.275,0,0,0-1.249,1.3" transform="translate(-289.367 -34.019)"/>
              <path id="Trazado_1162386" data-name="Trazado 1162386" d="M987.338,117.342a.615.615,0,1,0,.595-.455.54.54,0,0,0-.595.455" transform="translate(-290.083 -34.342)" fill="#fff"/>
              <path id="Trazado_1162387" data-name="Trazado 1162387" d="M989.787,115.668c-.076.089-.433.446-2.277-.23-2.1-.77-5.318-.67-6.753,1.853a2,2,0,0,0-.239.478s.612-.975,3.019-1.693c1.672-.5,4.148.189,4.344,1.333a2.152,2.152,0,0,1-1.045,1.113c1.2-.432,2.9-1.6,2.951-2.854" transform="translate(-288.079 -33.792)"/>
              <path id="Trazado_1162388" data-name="Trazado 1162388" d="M989.7,95c0-12.479-11.25-22.6-25.127-22.6S939.446,82.524,939.446,95a24.294,24.294,0,0,0,2.63,11.476c-.163-2.051.5-3.753,1.8-4.191a2.082,2.082,0,0,1,.91-.084c.672,2.622,1.381,4.434,1.381,2.97,0-1.727.348-4.9.636-7.24,5.77-1.488,17.044-4.975,24.166-10.914C972.756,91.8,976,97.126,981.74,98.607c.251,2.227.516,4.93.516,6.474,0,1.447.657-.308,1.288-2.883a2.05,2.05,0,0,1,.734.1c1.355.461,2.009,2.31,1.75,4.489A20.9,20.9,0,0,0,989.7,95" transform="translate(-276.012 -21.273)" fill="#843e09"/>
              <path id="Trazado_1162389" data-name="Trazado 1162389" d="M970.12,79.163a2.585,2.585,0,0,1-.138,2.148c-3,7.385-13.48,14.212-18.875,17.337,6.1-2.241,18.236-7.476,22.994-15.074,1.943-3.1-.8-4.126-3.981-4.41" transform="translate(-279.438 -23.258)" fill="#ba672f"/>
              <path id="Trazado_1162390" data-name="Trazado 1162390" d="M973.906,131.117h-2.353a1.849,1.849,0,0,1-1.709-1.307,2.215,2.215,0,0,0-.128.734c0,1.128,1.375,1.49,2.389,1.49h1.249c1.014,0,2.388-.362,2.388-1.49a2.252,2.252,0,0,0-.127-.734,1.852,1.852,0,0,1-1.709,1.307" transform="translate(-284.905 -38.139)" fill="#ea9f6c"/>
              <path id="Trazado_1162391" data-name="Trazado 1162391" d="M944.04,117.264c-.018-.234.441-1.286,1.014-1.105.874.275,1.425,1.978,1.795,3.681s.195,2.943,0,2.485a24.707,24.707,0,0,0-1.566-4.648c-.691-1.288-1.1,1.427-1.243-.412" transform="translate(-277.362 -34.122)" fill="#ea9f6c"/>
              <path id="Trazado_1162392" data-name="Trazado 1162392" d="M1003.366,117.264c.018-.234-.441-1.286-1.012-1.105-.876.275-1.427,1.978-1.8,3.681s-.195,2.943,0,2.485a24.777,24.777,0,0,1,1.565-4.648c.691-1.288,1.105,1.427,1.243-.412" transform="translate(-293.904 -34.122)" fill="#ea9f6c"/>
              <path id="Trazado_1162393" data-name="Trazado 1162393" d="M960.67,127.586c-.458,1.453-2.725,2.035-5.06,1.3s-3.858-2.512-3.4-3.966,2.725-2.035,5.061-1.3,3.857,2.511,3.4,3.966" transform="translate(-279.738 -36.226)" fill="#ffb18a"/>
              <path id="Trazado_1162394" data-name="Trazado 1162394" d="M983.49,127.586c.459,1.453,2.725,2.035,5.059,1.3s3.859-2.512,3.4-3.966-2.725-2.035-5.059-1.3-3.857,2.511-3.4,3.966" transform="translate(-288.928 -36.226)" fill="#ffb18a"/>
              <path id="Trazado_1162395" data-name="Trazado 1162395" d="M932.576,280.225l-.006,0c.076.138.083.147.006,0" transform="translate(-273.992 -82.331)" fill="#012e43"/>
              <path id="Trazado_1162396" data-name="Trazado 1162396" d="M923.532,286.711l-.007,0c.088.1.083.091.007,0" transform="translate(-271.334 -84.237)" fill="#012e43"/>
              <path id="Trazado_1162397" data-name="Trazado 1162397" d="M992.966,222.331c.064,3.958-9.028,20.469-11.607,25.4l6.436,4.682c6.621-7.641,16.045-22.48,17.086-32.145,1.1-10.028-10.706-34.241-15.861-42.833-1.655-3.079-4.562-5.342-8.042-5.342l-8.9-1.345c1.247,10.441-11.116,41.993-19.164,49.309-1.912-1.471-22.538-37.89-21.162-49.312l-8.918,1.347c-3.486,0-6.38,2.273-8.025,5.313-3.379,5.613-15.679,29.935-15.956,40.735-.253,11.091,10.691,25.94,17.426,34.5l6.381-4.578c-2.224-4.039-10.911-20.3-11.693-24.848v0c-.97-5.252,8.907-22.289,11.615-26.859q.459.649.9,1.328a13.19,13.19,0,0,0,7.414,16.771,71.494,71.494,0,0,1,1.861,8.938,94.4,94.4,0,0,1,1.054,17.477,33.068,33.068,0,0,0-8.944,10.363,34.773,34.773,0,0,0-3.68,10.269,77.707,77.707,0,0,0,62.257-.352,34.145,34.145,0,0,0-3.747-10.153,33.05,33.05,0,0,0-9.029-10.288,94.856,94.856,0,0,1,1.064-17.315,71.556,71.556,0,0,1,1.8-8.738,13.193,13.193,0,0,0,7.246-16.632c.25-.386.5-.768.756-1.141,2.988,5.057,11.334,19.606,11.424,25.451" transform="translate(-264.086 -50.167)" fill="#012e43"/>
              <path id="Trazado_1162398" data-name="Trazado 1162398" d="M966.128,140.594c1.581,1.641,2.926,2.883,5.55,2.883a6.9,6.9,0,0,0,5.544-2.86,32.445,32.445,0,0,1-11.094-.023" transform="translate(-283.851 -41.307)" fill="#fc7365"/>
              <path id="Trazado_1162399" data-name="Trazado 1162399" d="M971.477,139.336c-1.74-1.2-2.627.307-6.021.422a1.369,1.369,0,0,0,.044.313,36.052,36.052,0,0,0,11.916.024,1.345,1.345,0,0,0,.052-.337c-3.395-.3-4.422-1.479-5.99-.422" transform="translate(-283.654 -40.802)" fill="#ef4141"/>
              <path id="Trazado_1162400" data-name="Trazado 1162400" d="M967.089,221.735c7.616-6.924,18.012-33.631,19.178-45.29-1.065,9.373-9.693,16.679-20.177,16.679-8.706,0-16.128-5.037-19.007-12.109,4.289,14.053,18,39.174,20.006,40.72" transform="translate(-278.256 -51.84)" fill="#fff"/>
              <path id="Trazado_1162401" data-name="Trazado 1162401" d="M1003.215,103c2.065,8.951-1.792,18.728-7.162,27.542-4.633,7.6-2.2,12.531-.275,12.945s-7.987,1.239-1.791-13.221,8.125-16.8,6.747-26.439a37.987,37.987,0,0,0-3.58-10.878c4.269,2.753,6.061,10.052,6.061,10.052" transform="translate(-291.43 -27.308)" fill="#843e09"/>
              <path id="Trazado_1162402" data-name="Trazado 1162402" d="M949.605,231.054a13.064,13.064,0,0,1-5.362-1.153c.359,1.287.68,2.6.971,3.938a11.644,11.644,0,0,0,4.391.876c6.21,0,11.4-4.922,12.779-11.532h-.77a13.117,13.117,0,0,1-12.009,7.871" transform="translate(-277.421 -65.572)" fill="#012a3a"/>
              <path id="Trazado_1162403" data-name="Trazado 1162403" d="M993.075,230.753a13.115,13.115,0,0,1-12.009-7.872h-.745c1.412,6.513,6.58,11.35,12.754,11.35a11.621,11.621,0,0,0,3.46-.54c.27-1.251.564-2.486.891-3.692a13.072,13.072,0,0,1-4.351.754" transform="translate(-288.021 -65.483)" fill="#012a3a"/>
              <path id="Trazado_1162404" data-name="Trazado 1162404" d="M935.456,285.661a4.447,4.447,0,0,0-5.485,0l-1.484,1.146a5.207,5.207,0,0,0-1.373,6.417l.011,0c4.318-1.006,7.621-3.907,8.409-7.5-.025-.021-.052-.039-.079-.058" transform="translate(-272.224 -83.65)" fill="#fcc397"/>
              <path id="Trazado_1162405" data-name="Trazado 1162405" d="M1015.564,286.177l-1.483-1.146a4.481,4.481,0,0,0-6.3.791c1.141,3.471,4.662,6.169,9.083,6.911a5.211,5.211,0,0,0-1.3-6.556" transform="translate(-296.09 -83.465)" fill="#fcc397"/>
              <path id="Trazado_1162406" data-name="Trazado 1162406" d="M938.541,284.262a9.818,9.818,0,0,0-2.479-1.213c-.961,4.441-4.991,8.023-10.256,9.265.017.232.047.467.084.7q1.523.744,3.085,1.419c4.943-1.879,8.6-5.642,9.566-10.17" transform="translate(-272.005 -83.161)" fill="#024b68"/>
              <path id="Trazado_1162407" data-name="Trazado 1162407" d="M1006.378,283.1a9.81,9.81,0,0,0-2.479,1.213c.976,4.542,4.65,8.318,9.62,10.19q1.528-.659,3.024-1.381c.042-.251.074-.5.093-.758-5.266-1.242-9.295-4.823-10.258-9.265" transform="translate(-294.949 -83.175)" fill="#024b68"/>
              <path id="Trazado_1162408" data-name="Trazado 1162408" d="M950.534,167.519l-7.528,1.835-1.652,18.36,5.875,1.47-2.57,4.957,21.115,26.623Z" transform="translate(-276.572 -49.218)" fill="#024b68"/>
              <path id="Trazado_1162409" data-name="Trazado 1162409" d="M987.119,167.519l7.528,1.835,1.652,18.36-5.874,1.47,2.569,4.957-21.481,33.967Z" transform="translate(-285.433 -49.218)" fill="#024b68"/>
              <path id="Trazado_1162410" data-name="Trazado 1162410" d="M969.365,178.7c6.175,0,11.283-5.559,12.022-12.715-.364-.324-.708-.66-1.027-1.006-.333,7.027-5.138,12.62-11,12.62s-10.678-5.612-11-12.654c-.324.316-.674.624-1.037.922.694,7.214,5.825,12.834,12.035,12.834" transform="translate(-281.266 -48.46)" fill="#fff"/>
              <path id="Trazado_1162411" data-name="Trazado 1162411" d="M979.122,264.337a1.79,1.79,0,1,1-1.789-1.79,1.79,1.79,0,0,1,1.789,1.79" transform="translate(-286.617 -77.137)" fill="#024b68"/>
              <path id="Trazado_1162412" data-name="Trazado 1162412" d="M979.122,276.816a1.79,1.79,0,1,1-1.789-1.79,1.791,1.791,0,0,1,1.789,1.79" transform="translate(-286.617 -80.803)" fill="#024b68"/>
              <path id="Trazado_1162413" data-name="Trazado 1162413" d="M948.426,128.481a.872.872,0,1,1-.872-.871.871.871,0,0,1,.872.871" transform="translate(-278.138 -37.492)" fill="#fff"/>
              <path id="Trazado_1162414" data-name="Trazado 1162414" d="M1000.686,128.481a.872.872,0,1,1-.871-.871.872.872,0,0,1,.871.871" transform="translate(-293.492 -37.492)" fill="#fff"/>
              <path id="Trazado_1162415" data-name="Trazado 1162415" d="M931.443,283.247c-.357-.756-.885-1.791-1.525-3.021l-6.393,4.585c.8.91,2.354,2.613,2.41,2.665l5.51-4.225,0,0" transform="translate(-271.334 -82.331)" fill="#fff"/>
              <path id="Trazado_1162416" data-name="Trazado 1162416" d="M1021.5,284.445l-6.436-4.682c-.6,1.154-1.119,2.155-1.5,2.934l5.458,4.426c.664-.641,1.653-1.729,2.476-2.678" transform="translate(-297.788 -82.195)" fill="#fff"/>
              <path id="Trazado_1162417" data-name="Trazado 1162417" d="M783.375,302.037a19.066,19.066,0,1,1-19.066-19.067,19.067,19.067,0,0,1,19.066,19.067" transform="translate(-218.954 -83.137)" fill="#ffb300" fill-rule="evenodd"/>
              <path id="Trazado_1162418" data-name="Trazado 1162418" d="M611.047,45.857a15.235,15.235,0,0,0-2.291-21.895,117.395,117.395,0,0,0-143.035.675A15.353,15.353,0,1,0,484.56,48.885a86.556,86.556,0,0,1,105.55-.53,15.322,15.322,0,0,0,20.937-2.5" transform="translate(-135.068 0)" fill="#c0ca33"/>
              <path id="Trazado_1162419" data-name="Trazado 1162419" d="M638.661,179.815V330.508c0,64.729-51.778,118.382-116.508,118.855A117.381,117.381,0,0,1,403.888,331.98V179.815a117.155,117.155,0,0,1,6.264-37.926,15.347,15.347,0,1,1,29.094,9.778,86.41,86.41,0,0,0-4.69,28.148V330.662c0,47.585,37.784,87.3,85.363,88.025a86.818,86.818,0,0,0,88.073-86.708V179.815a86.338,86.338,0,0,0-6.424-32.77,15.324,15.324,0,0,1,5.92-18.714h0a15.379,15.379,0,0,1,22.533,7.212,117.048,117.048,0,0,1,8.64,44.274" transform="translate(-118.663 -36.991)" fill="#c0ca33"/>
              <path id="Trazado_1162420" data-name="Trazado 1162420" d="M615.5,165.816a77.729,77.729,0,1,1-77.729-77.729A77.729,77.729,0,0,1,615.5,165.816" transform="translate(-135.162 -25.88)" fill="#d4e157"/>
              <path id="Trazado_1162421" data-name="Trazado 1162421" d="M561.138,73.065a6.231,6.231,0,0,1,1.883-3.7c2.251-2.463,12.006-4.555,18.494.769,11.322,9.291,14.969,22.127,12.507,58.916-.154,2.3-1.979,23.093-1.21,24.245s-10.148-4.921-12.694-18.474-18.98-61.756-18.98-61.756" transform="translate(-164.864 -19.629)" fill="#ba7a4a"/>
              <path id="Trazado_1162422" data-name="Trazado 1162422" d="M583.1,165.352l-12.674-1.916c-3.865-1.33-7.329-5.871-7.483-7.913-.005-.078,0-6.888,0-6.888a61.072,61.072,0,0,1-9.061,3.537,48.944,48.944,0,0,1-8.068-3.484s-.027,6.7-.027,6.775c0,2.527-4.25,6.733-8.362,7.981l-12.617,1.906c-5.329,0-9.648,5.313-9.648,11.869s4.319,11.868,9.648,11.868H583.1c5.329,0,9.649-5.314,9.649-11.868s-4.32-11.869-9.649-11.869" transform="translate(-151.356 -43.67)" fill="#fcc397"/>
              <path id="Trazado_1162423" data-name="Trazado 1162423" d="M601.938,215.175c-.244-10.152-12.35-32.232-16.866-39.725-1.947-3.642-5.111-5.357-8.062-5.357l-16.42-3.539c-.384,9.708-10.763,19.074-10.763,19.074s-12.876-7.428-13.106-18.322a14.038,14.038,0,0,1,.177-2.53l-5.344,3.34-12.258,1.89a30.97,30.97,0,0,1-3.38,9.195c-3.944,6.765-7.566,18.426-8.961,20.718s-3.223,3.329-6.9,5.3-6.5,1.145-5.376,1.825c2.129,1.282,8.406-1.251,23.787-12.633q.461.654.905,1.331A13.23,13.23,0,0,0,526.8,212.56a70.948,70.948,0,0,1,1.864,8.96,94.533,94.533,0,0,1,1.059,17.523,33.053,33.053,0,0,0-8.967,10.392c-.505.912-.964,1.855-1.386,2.821a148.876,148.876,0,0,0,57.938.139,34.142,34.142,0,0,0-1.58-3.2,33.016,33.016,0,0,0-9.053-10.314,95.378,95.378,0,0,1,1.067-17.361,71.551,71.551,0,0,1,1.806-8.76,13.228,13.228,0,0,0,7.265-16.675c.251-.387.5-.77.757-1.143a151.946,151.946,0,0,1,9.692,18.828,16.2,16.2,0,0,1,.64,7.238c-.7,3.246-4.918,10.324-6.857,14.673-1.469,3.3-.449,4.55-.449,4.55s4.085,3.667,7.882,4.88c2.179.7,5-4.239,6.729-8.468,1.444-3.533,3.575-8.994,4.881-12.955a24.375,24.375,0,0,0,1.847-8.51" transform="translate(-145.264 -48.412)" fill="#6f6f84"/>
              <path id="Trazado_1162424" data-name="Trazado 1162424" d="M558.57,144.969v4.391a47.583,47.583,0,0,0,7.1,4.078,2.347,2.347,0,0,0,1.864.069,56.079,56.079,0,0,0,8.17-4.217v-4.321Z" transform="translate(-164.11 -42.592)" fill="#ea9f6c"/>
              <path id="Trazado_1162425" data-name="Trazado 1162425" d="M581.474,104.189a2.339,2.339,0,0,0-1.746.149c.615-5.87.961-11.786.067-13.186a23.5,23.5,0,0,0-18.762-10.83h0a23.508,23.508,0,0,0-18.763,10.83c-.884,1.386-.554,7.2.05,13.009a2.168,2.168,0,0,0-1.248.022c-1.726.581-2.333,3.409-1.353,6.316.805,2.388,2.43,4.084,3.943,4.291.238,1.646.4,2.678.4,2.678,3.556,9.426,12.94,14.064,15.994,15.35a2.46,2.46,0,0,0,1.865.037c2.956-1.232,12.493-5.867,16.084-15.387,0,0,.162-1.029.4-2.67,1.628.115,3.51-1.665,4.4-4.288.988-2.9.391-5.734-1.333-6.32" transform="translate(-158.433 -23.599)" fill="#fcc397"/>
              <path id="Trazado_1162426" data-name="Trazado 1162426" d="M584.978,94.39c0-12.478-10.1-22.6-23.975-22.6s-24.357,10.118-24.357,22.6c0,4.2.073,8.117,1.861,11.477-.162-2.051,1.258-2.948,2.553-3.384a2.051,2.051,0,0,1,.91-.085c.672,2.622.517-.475.687-1.93.2-1.744-.052-.946.237-3.283.266-5.282,1.667-11.15,7.308-11.263,4.448-4.768,18.4-3.6,23.948,1.2a13.3,13.3,0,0,1,4.436,10.464,65.025,65.025,0,0,1,.1,6.88c0,1.448.658-.309,1.289-2.883a2.029,2.029,0,0,1,.733.1c1.355.46,2.011,2.309,1.751,4.488,2.328-3.435,2.518-7.47,2.518-11.781" transform="translate(-157.668 -21.094)" fill="#cc9456"/>
              <path id="Trazado_1162427" data-name="Trazado 1162427" d="M570.018,130.506h-2.353a1.85,1.85,0,0,1-1.709-1.308,2.241,2.241,0,0,0-.129.735c0,1.126,1.375,1.489,2.39,1.489h1.249c1.013,0,2.387-.363,2.387-1.489a2.241,2.241,0,0,0-.127-.735,1.851,1.851,0,0,1-1.708,1.308" transform="translate(-166.242 -37.959)" fill="#ea9f6c"/>
              <path id="Trazado_1162428" data-name="Trazado 1162428" d="M540.357,116.855c-.018-.234.44-1.285,1.012-1.1.875.276,1.425,1.979,1.794,3.681s.2,2.943,0,2.486a24.655,24.655,0,0,0-1.565-4.649c-.69-1.287-1.1,1.428-1.242-.413" transform="translate(-158.758 -34.002)" fill="#ea9f6c"/>
              <path id="Trazado_1162429" data-name="Trazado 1162429" d="M599.479,116.652c.018-.234-.441-1.285-1.014-1.105-.874.275-1.424,1.979-1.794,3.681s-.2,2.942,0,2.486a24.619,24.619,0,0,1,1.566-4.649c.689-1.288,1.1,1.428,1.243-.413" transform="translate(-175.24 -33.942)" fill="#ea9f6c"/>
              <path id="Trazado_1162430" data-name="Trazado 1162430" d="M545.656,230.854a13.114,13.114,0,0,1-5.374-1.155c.359,1.288.681,2.609.973,3.948a11.677,11.677,0,0,0,4.4.878c6.227,0,11.431-4.935,12.813-11.562H557.7a13.153,13.153,0,0,1-12.041,7.892" transform="translate(-158.736 -65.507)" fill="#54546b"/>
              <path id="Trazado_1162431" data-name="Trazado 1162431" d="M589.238,230.552a13.151,13.151,0,0,1-12.039-7.893h-.746c1.414,6.53,6.594,11.38,12.785,11.38a11.7,11.7,0,0,0,3.47-.541c.271-1.255.566-2.493.894-3.7a13.116,13.116,0,0,1-4.364.756" transform="translate(-169.364 -65.418)" fill="#54546b"/>
              <path id="Trazado_1162432" data-name="Trazado 1162432" d="M557.3,302.471a77.461,77.461,0,0,0,31.614-6.7,34.279,34.279,0,0,0-2.177-6.981,148.9,148.9,0,0,1-57.938-.139,34.354,34.354,0,0,0-2.3,7.474,77.46,77.46,0,0,0,30.8,6.349" transform="translate(-154.685 -84.806)" fill="#424242"/>
              <path id="Trazado_1162433" data-name="Trazado 1162433" d="M586.878,282.892s1,1.52,3.391.264c.852-.448,1.571-.9,2.354-1.3.885-.451,3.4-.034,3.4-.034a20.674,20.674,0,0,0-4.11,2.111c-1.167.967-4.415,3.95-4.415,3.95a2.68,2.68,0,0,0,3.347-.412,9.759,9.759,0,0,1,3.012-1.922,18.689,18.689,0,0,1,4.39-1.058,18.917,18.917,0,0,0-3.739,2.556c-.752.848-4.15,3.606-4.15,3.606a2.426,2.426,0,0,0,3.213-.011c.72-.5,2.457-1.577,3.475-2.275a9.864,9.864,0,0,1,3.013-1.056s-1.572,2.537-2.081,3.35-1.64,2.949-1.64,2.949,1.693.715,2.871-1.5a12.611,12.611,0,0,1,2.851-3.169c.652-.44,3.739-.745,5.088-1.3s1.667-1.064,2.937-2.662a30.441,30.441,0,0,0,2.451-3.806,4.253,4.253,0,0,0-5.382-2.386c-2.907.925-5.859.363-7.547.254-1.657-.109-4.405-.513-6.091-.158s-6.638,4.007-6.638,4.007" transform="translate(-172.426 -81.833)" fill="#fcc397"/>
              <path id="Trazado_1162434" data-name="Trazado 1162434" d="M586.6,284.181l2.039-1.338a.605.605,0,0,1,.266.374c.056.257-1.507,1.3-1.764,1.29s-.541-.326-.541-.326" transform="translate(-172.346 -83.1)" fill="#f47c6c"/>
              <path id="Trazado_1162435" data-name="Trazado 1162435" d="M587.62,291.133l1.834-1.608a.6.6,0,0,1,.314.333c.093.247-1.311,1.492-1.568,1.523a.985.985,0,0,1-.58-.247" transform="translate(-172.644 -85.063)" fill="#f47c6c"/>
              <path id="Trazado_1162436" data-name="Trazado 1162436" d="M591.6,295.123l1.919-1.507a.605.605,0,0,1,.3.35c.078.253-1.392,1.418-1.649,1.436a.993.993,0,0,1-.566-.279" transform="translate(-173.813 -86.265)" fill="#f47c6c"/>
              <path id="Trazado_1162437" data-name="Trazado 1162437" d="M600.082,299.295l.944-1.524a.516.516,0,0,1,.305.2c.124.173-.595,1.35-.772,1.414s-.477-.093-.477-.093" transform="translate(-176.306 -87.486)" fill="#f47c6c"/>
              <path id="Trazado_1162438" data-name="Trazado 1162438" d="M568.468,140.038c-.16,0-.316-.013-.472-.024-.156.011-.311.02-.471.024a19.775,19.775,0,0,1-4.574-.627,5.479,5.479,0,0,0,10.091,0,19.782,19.782,0,0,1-4.574.627" transform="translate(-165.396 -40.959)" fill="#ff7f66"/>
              <path id="Trazado_1162439" data-name="Trazado 1162439" d="M567.834,138.419c-1.44-1.151-3.943.458-5.432.5a13.744,13.744,0,0,0,10.866,0c-1.488-.041-3.992-1.65-5.433-.5" transform="translate(-165.235 -40.546)" fill="#ea684e"/>
              <path id="Trazado_1162440" data-name="Trazado 1162440" d="M576.634,117.376c2.211.724,3.063,1.177,4.26,1.224,1.746.071,3.174-.9,3.174-1.982s-1.4-1.438-3.145-1.438-4.043,1.385-4.289,2.2" transform="translate(-169.417 -33.84)" fill="#fff"/>
              <path id="Trazado_1162441" data-name="Trazado 1162441" d="M580.26,116.671a1.845,1.845,0,1,0,3.686,0c0-1.059-.824-1.491-1.843-1.491s-1.843.432-1.843,1.491" transform="translate(-170.482 -33.84)" fill="#7b9368"/>
              <path id="Trazado_1162442" data-name="Trazado 1162442" d="M581.014,116.478a1.25,1.25,0,1,0,1.249-1.3,1.275,1.275,0,0,0-1.249,1.3" transform="translate(-170.704 -33.84)"/>
              <path id="Trazado_1162443" data-name="Trazado 1162443" d="M583.45,116.731a.615.615,0,1,0,.595-.455.539.539,0,0,0-.595.455" transform="translate(-171.419 -34.162)" fill="#fff"/>
              <path id="Trazado_1162444" data-name="Trazado 1162444" d="M585.9,115.2c-.076.089-.356.754-2.2.077a6.38,6.38,0,0,0-6.831,1.547,1.135,1.135,0,0,0-.238.48,8.224,8.224,0,0,1,3.1-1.387c1.671-.5,3.912-.046,4.266,1.025a2.143,2.143,0,0,1-1.046,1.113c1.2-.432,2.9-1.6,2.952-2.854" transform="translate(-169.416 -33.753)" fill="#5b3927"/>
              <path id="Trazado_1162445" data-name="Trazado 1162445" d="M576.63,118.305a19.43,19.43,0,0,0,4.28.943,5.746,5.746,0,0,0,2.957-.621c1.05-.533-.987,1.018-.987,1.018l-3.154.324-2.853-.913Z" transform="translate(-169.416 -34.758)" fill="#fcc397"/>
              <path id="Trazado_1162446" data-name="Trazado 1162446" d="M561.478,117.236c-2.213.724-3.063,1.177-4.26,1.225-1.746.071-3.174-.9-3.174-1.981s1.4-1.439,3.146-1.439,4.042,1.386,4.288,2.2" transform="translate(-162.78 -33.799)" fill="#fff"/>
              <path id="Trazado_1162447" data-name="Trazado 1162447" d="M559.411,116.531a1.845,1.845,0,1,1-3.686,0c0-1.059.824-1.492,1.843-1.492s1.843.432,1.843,1.492" transform="translate(-163.274 -33.799)" fill="#7b9368"/>
              <path id="Trazado_1162448" data-name="Trazado 1162448" d="M559.153,116.339a1.25,1.25,0,1,1-1.25-1.3,1.275,1.275,0,0,1,1.25,1.3" transform="translate(-163.547 -33.799)"/>
              <path id="Trazado_1162449" data-name="Trazado 1162449" d="M560.271,116.691a.615.615,0,1,1-.593-.454.538.538,0,0,1,.593.454" transform="translate(-164.26 -34.151)" fill="#fff"/>
              <path id="Trazado_1162450" data-name="Trazado 1162450" d="M551.45,115.057c.076.09.357.754,2.2.078a6.375,6.375,0,0,1,6.832,1.546,1.148,1.148,0,0,1,.239.478,8.251,8.251,0,0,0-3.1-1.386c-1.671-.5-3.91-.046-4.267,1.025a2.149,2.149,0,0,0,1.047,1.112c-1.2-.432-2.9-1.6-2.953-2.854" transform="translate(-162.018 -33.712)" fill="#5b3927"/>
              <path id="Trazado_1162451" data-name="Trazado 1162451" d="M561.439,118.164a19.444,19.444,0,0,1-4.28.945,5.75,5.75,0,0,1-2.959-.623c-1.048-.532.989,1.02.989,1.02l3.154.324,2.853-.914Z" transform="translate(-162.738 -34.717)" fill="#fcc397"/>
              <path id="Trazado_1162452" data-name="Trazado 1162452" d="M559.741,110.971a20.048,20.048,0,0,0-5.886-2.637c-.826-.15-2.97,1.013-3.977,1.724.86-.135,3.454-1.107,4.076-.894a26.781,26.781,0,0,1,5.24,2.542c.681.436,1.165-.211.547-.734" transform="translate(-161.556 -31.825)" fill="#ba7a4a"/>
              <path id="Trazado_1162453" data-name="Trazado 1162453" d="M576.949,111.058a19.985,19.985,0,0,1,5.972-2.438c.83-.121,3.112,1.107,4.094,1.852-.854-.164-3.415-1.222-4.044-1.03a26.682,26.682,0,0,0-5.321,2.362c-.7.415-1.334-.244-.7-.746" transform="translate(-169.433 -31.911)" fill="#ba7a4a"/>
              <g id="Grupo_1216202" data-name="Grupo 1216202" transform="translate(405.379 79.103)" opacity="0.2">
                <g id="Grupo_1216201" data-name="Grupo 1216201">
                  <g id="Grupo_1216200" data-name="Grupo 1216200" clip-path="url(#clip-path-3)">
                    <path id="Trazado_1162454" data-name="Trazado 1162454" d="M574.031,115.153s.256-1.747,1.345-2.22a7.74,7.74,0,0,1,4.422-.919c2.787.031,6.28.064,7.241.256s1.506.126,1.313,2.753-.18,4.905-1.121,6.282a4.493,4.493,0,0,1-3.14,1.73c-.609.1-4,.352-4.967,0a7.2,7.2,0,0,1-3.217-2.018,12.333,12.333,0,0,1-1.876-5.864" transform="translate(-574.031 -112.012)" fill="#fff"/>
                  </g>
                </g>
              </g>
              <g id="Grupo_1216205" data-name="Grupo 1216205" transform="translate(386.155 79.103)" opacity="0.2">
                <g id="Grupo_1216204" data-name="Grupo 1216204">
                  <g id="Grupo_1216203" data-name="Grupo 1216203" clip-path="url(#clip-path-4)">
                    <path id="Trazado_1162455" data-name="Trazado 1162455" d="M561.169,115.153s-.255-1.747-1.345-2.22a7.739,7.739,0,0,0-4.422-.919c-2.787.031-6.28.064-7.241.256s-1.506.126-1.314,2.753.181,4.905,1.123,6.282a4.488,4.488,0,0,0,3.139,1.73c.609.1,4,.352,4.966,0a7.2,7.2,0,0,0,3.217-2.018,12.333,12.333,0,0,0,1.876-5.864" transform="translate(-546.809 -112.012)" fill="#fff"/>
                  </g>
                </g>
              </g>
              <path id="Trazado_1162456" data-name="Trazado 1162456" d="M541.766,123.472a34.218,34.218,0,0,1,1.074-4.9c.456-.992,1.442-2.352,2.237-2.588-1.556-3.717-3.665,1.917-3.665,1.917l-.669,4.257a16.132,16.132,0,0,0,1.023,1.311" transform="translate(-158.872 -33.704)" fill="#ea9f6c"/>
              <path id="Trazado_1162457" data-name="Trazado 1162457" d="M582.123,111.566a23.76,23.76,0,0,0-2.6-.205c-1.448-.022-5.529-.094-8.41-.035-4.4.09-6.784,1.528-7.323,1.528h-3.235c-.539,0-2.921-1.438-7.324-1.528-2.88-.059-6.96.013-8.409.035a23.717,23.717,0,0,0-2.6.205c-.994.136-.7,2.369-.2,2.275.508-.1,2.585-.09,2.719.314s.225,3.64.629,4.989a4.826,4.826,0,0,0,2.426,3.46c1.843,1.167,5.662.763,6.7.539a6.985,6.985,0,0,0,3.55-1.976c1.437-1.35,1.946-3.948,2.335-4.809.333-.729,1.8-.707,1.8-.707s1.465-.023,1.8.707c.391.861.9,3.46,2.337,4.809a6.978,6.978,0,0,0,3.549,1.976c1.035.225,4.854.629,6.695-.539a4.826,4.826,0,0,0,2.426-3.46c.4-1.349.494-4.583.629-4.989s2.212-.411,2.718-.314.792-2.14-.2-2.275m-23.843,7.594a5.759,5.759,0,0,1-3.133,3.033c-1.652.64-5.628.4-6.774-.337a5.706,5.706,0,0,1-2.09-4.313c-.168-1.922-.15-2.354-.168-2.8a2.327,2.327,0,0,1,2.09-2.225,21.965,21.965,0,0,1,8.055,0c1.34.332,2.8,1.281,2.9,2.36a9.286,9.286,0,0,1-.876,4.279m19.781-1.616a5.706,5.706,0,0,1-2.09,4.313c-1.146.741-5.123.977-6.774.337a5.762,5.762,0,0,1-3.133-3.033,9.288,9.288,0,0,1-.876-4.279c.1-1.079,1.556-2.028,2.9-2.36a21.957,21.957,0,0,1,8.054,0,2.323,2.323,0,0,1,2.089,2.225c-.016.443,0,.875-.167,2.8" transform="translate(-159.113 -32.701)" fill="#333"/>
              <path id="Trazado_1162458" data-name="Trazado 1162458" d="M539.045,111.148a11.94,11.94,0,0,0,2.271-.786c.936-.512,1.474-1.952,1.049-2.334-.3.093-5.7,1.837-5.7,1.837s1.794,1.437,2.378,1.283" transform="translate(-157.674 -31.739)" fill="#fcc397"/>
              <path id="Trazado_1162459" data-name="Trazado 1162459" d="M543.921,107.918l-2.227.761a.573.573,0,0,0,.129.422c.164.2,1.881-.38,2.028-.579a.939.939,0,0,0,.069-.6" transform="translate(-159.151 -31.707)" fill="#ff958a"/>
              <path id="Trazado_1162460" data-name="Trazado 1162460" d="M543.166,108.989s-.1,2-1.223,2.29-4.479.732-4.479.732-2.432-1.121-1.766-1.67a2.752,2.752,0,0,1,1.524-.758c.54-.091,5.944-.595,5.944-.595" transform="translate(-157.356 -32.021)" fill="#ea9f6c"/>
              <path id="Trazado_1162461" data-name="Trazado 1162461" d="M542.831,109.261s-.054,1.628-1.174,1.917a46.747,46.747,0,0,1-4.948.518s-1.963-.909-1.3-1.456a2.243,2.243,0,0,1,1.484-.571c.538-.091,5.936-.408,5.936-.408" transform="translate(-157.265 -32.101)" fill="#fcc397"/>
              <path id="Trazado_1162462" data-name="Trazado 1162462" d="M539.033,110.634a2.674,2.674,0,0,1-2.332,2.328c-2.068.179-8.115.249-8-.27a3.8,3.8,0,0,1,.62-1.526,2.047,2.047,0,0,1,1.273-.424c.484-.044,3.651-.457,4.22-.423s4.224.316,4.224.316" transform="translate(-155.332 -32.411)" fill="#ea9f6c"/>
              <path id="Trazado_1162463" data-name="Trazado 1162463" d="M538.572,110.886s.108,1.624-1.958,1.8-8.116.249-8-.271a3.8,3.8,0,0,1,.621-1.526,2.036,2.036,0,0,1,1.271-.424c.484-.045,3.416-.191,3.984-.157s4.087.576,4.087.576" transform="translate(-155.307 -32.408)" fill="#fcc397"/>
              <path id="Trazado_1162464" data-name="Trazado 1162464" d="M534.419,113.1s-2.633-.691-2.957-.812a2.063,2.063,0,0,0-1.308-.22c-.563.129-1.782.277-2.572.426s-1.1.961-1.379,1.454-1.654,2.7-2.191,3.926,8.825-.434,8.825-.434Z" transform="translate(-153.95 -32.914)" fill="#ea9f6c"/>
              <path id="Trazado_1162465" data-name="Trazado 1162465" d="M533.892,113.334s.03,1.278-1.578,1.449a5.041,5.041,0,0,1-2.534-.275s-1.646.728-1.84.746-.641,2.23-1.346,2.458-3.365,1.665-2.828.436,1.81-3.859,2.092-4.353a1.574,1.574,0,0,1,1.3-.925c.79-.148,2.008-.3,2.571-.426a1.827,1.827,0,0,1,1.228.179c.326.122,2.931.711,2.931.711" transform="translate(-153.864 -33.023)" fill="#fcc397"/>
              <path id="Trazado_1162466" data-name="Trazado 1162466" d="M525.514,119.427a5.576,5.576,0,0,1,1.141-.625,6.518,6.518,0,0,1,1.362-.313c.521-.006,2.014.087-.175.6a11.224,11.224,0,0,1-2.328.335" transform="translate(-154.398 -34.812)" fill="#ea9f6c"/>
              <path id="Trazado_1162467" data-name="Trazado 1162467" d="M528.457,147.314c-.2.581-2.879.842-5.691-.131s-4.654-2.872-4.453-3.453,2.607-.2,5.419.772,4.926,2.231,4.725,2.812" transform="translate(-152.277 -42.148)" fill="#616172"/>
              <path id="Trazado_1162468" data-name="Trazado 1162468" d="M535.341,114.918c-1.975.586-2.878,4.253-3,5.007s-.507,2.094-.867,2.109-.452-1.114-.43-1.877a13.766,13.766,0,0,0,.184-1.922c-.133-.992-5.2-1.48-9.02.688-.543,1.09-.446,3.431-.535,4.77s-.125,5.038-.128,5.232h0l-3.037,8.512s2.195,2.955,4.3,3.229a4.518,4.518,0,0,0,3.026-.372l2.9-7.121a13.98,13.98,0,0,0,4.974-6.149,14.66,14.66,0,0,0,1.021-2.871c.286-1.054.5-3.87.8-5.126a15.2,15.2,0,0,1,2.189-3.666s-.4-1.028-2.375-.443" transform="translate(-152.337 -33.71)" fill="#fcc397"/>
              <path id="Trazado_1162469" data-name="Trazado 1162469" d="M541.89,110.954l-2.335-.292a.577.577,0,0,0-.066.436c.061.247,1.857.481,2.077.367s.325-.511.325-.511" transform="translate(-158.498 -32.513)" fill="#ff958a"/>
              <path id="Trazado_1162470" data-name="Trazado 1162470" d="M537.378,113.517l-1.975-.436a.493.493,0,0,0-.092.367c.032.218,1.551.559,1.748.48s.319-.411.319-.411" transform="translate(-157.274 -33.224)" fill="#ff958a"/>
              <path id="Trazado_1162471" data-name="Trazado 1162471" d="M545.1,109.205l-2.347.169a.583.583,0,0,0,.019.441c.109.231,1.915.111,2.109-.045a.944.944,0,0,0,.219-.565" transform="translate(-159.452 -32.085)" fill="#ff958a"/>
              <path id="Trazado_1162472" data-name="Trazado 1162472" d="M502.057,207.4c3.679-1.973,5.508-3.009,6.9-5.3s5.017-13.954,8.961-20.719a30.953,30.953,0,0,0,3.38-9.194l-.577.088a9.39,9.39,0,0,0-8.049,5.33c-4.52,7.506-14.3,31.77-10.617,29.8" transform="translate(-147.268 -50.588)" fill="#54546b"/>
              <path id="Trazado_1162473" data-name="Trazado 1162473" d="M509.756,143.844l-3.689,9.48s-3.7.66-8.1,14.131c-1.349,4.128-8.833,19.537-8.79,22.887s2.507,8.325,3.023,9.424,1.436,2.236,5.037.126,5.39-3.215,6.7-5.559,4.486-14.132,8.171-21.043,4.175-16.6,4.175-16.6l3.621-9.263s-.276.415-1.264.278c-2.849-.4-8.784-1.9-8.88-3.862" transform="translate(-143.721 -42.262)" fill="#6f6f84"/>
              <path id="Trazado_1162474" data-name="Trazado 1162474" d="M526.122,154.433a.817.817,0,1,1-.816-.817.816.816,0,0,1,.816.817" transform="translate(-154.096 -45.133)" fill="#c8beed"/>
              <path id="Trazado_1162475" data-name="Trazado 1162475" d="M517.683,159.027a19.468,19.468,0,0,0,7.02,2c-.028.35-.095.807-.095.807a13.964,13.964,0,0,1-6.925-2.811" transform="translate(-152.097 -46.723)" fill="#616172"/>
              <path id="Trazado_1162476" data-name="Trazado 1162476" d="M611.573,276.93s.946,3.781,6.072,5.768c2.434-1.816,5.254-6.526,5.254-6.526a19.661,19.661,0,0,1-7.677-5.67c-1.871,2.97-3.649,6.428-3.649,6.428" transform="translate(-179.682 -79.474)" fill="#6f6f84"/>
              <path id="Trazado_1162477" data-name="Trazado 1162477" d="M621.992,281.936a.817.817,0,1,1-.816-.816.816.816,0,0,1,.816.816" transform="translate(-182.263 -82.594)" fill="#c8beed"/>
              <path id="Trazado_1162478" data-name="Trazado 1162478" d="M622.161,275.6a45.867,45.867,0,0,1-6.08-4.325c-.182.3-.43.728-.43.728a22.115,22.115,0,0,0,6.51,3.6" transform="translate(-180.88 -79.701)" fill="#616172"/>
              <path id="Trazado_1162479" data-name="Trazado 1162479" d="M572.876,186.5s8.213-7.374,8.742-7.119a20.846,20.846,0,0,1,4.217,5.16c2.724-8.094,1.929-15.077,2.054-16.2-1.544-.344-2.816-.607-2.816-.607s-4.3,9.449-5.927,11.514c-1.97,2.5-6.27,7.251-6.27,7.251" transform="translate(-168.313 -49.28)" fill="#54546b"/>
              <path id="Trazado_1162480" data-name="Trazado 1162480" d="M586.282,166.487s-3.01-5-6.337-7.67c.078.431,1.85,11.385-.968,16.368a55.15,55.15,0,0,1-6.1,8.693,64.064,64.064,0,0,0,9.5-11.477,3.291,3.291,0,0,1,1.313,1.455,31.133,31.133,0,0,1,2.146,8.063c1.7-10.585.448-15.432.448-15.432" transform="translate(-168.313 -46.661)" fill="#6f6f84"/>
              <path id="Trazado_1162481" data-name="Trazado 1162481" d="M550.984,173.2l.484-8.424-3.847,2.4a42.983,42.983,0,0,0-3.555,6.955c-.383,4.792,1.427,8.58,2.866,9.043l.031.033a6.372,6.372,0,0,1,.122-2.321,8.7,8.7,0,0,1,.97-3.09c.826-.963,14.659,6.46,16.2,7.689-1.662-1.577-13.269-12.29-13.269-12.29" transform="translate(-159.833 -48.412)" fill="#54546b"/>
              <path id="Trazado_1162482" data-name="Trazado 1162482" d="M572.674,194.108l.143.138a.694.694,0,0,0-.143-.138" transform="translate(-168.253 -57.03)" fill="#54546b"/>
              <path id="Trazado_1162483" data-name="Trazado 1162483" d="M554.589,158.727s-1.012,6.157-1.213,8.6a11.085,11.085,0,0,0,1.417,6.616c.891,1.26,9.582,8.967,9.943,9.9s-14.322-11.046-15.619-11.788c-.441-.253-2.523.333-2.806,2.376a12.909,12.909,0,0,0,.991,7,9.82,9.82,0,0,1-1.738-8.727c1.309-3.187,2.909-4.916,4.385-8.138s2.955-5.028,3.629-5.506,1.01-.331,1.01-.331" transform="translate(-160.174 -46.628)" fill="#6f6f84"/>
              <path id="Trazado_1162484" data-name="Trazado 1162484" d="M573.389,263.632h-.513V194.109l.513-.469Z" transform="translate(-168.313 -56.892)" fill="#54546b"/>
              <path id="Trazado_1162485" data-name="Trazado 1162485" d="M570.245,204.374a.9.9,0,1,1-.9-.9.9.9,0,0,1,.9.9" transform="translate(-167.012 -59.782)" fill="#54546b"/>
              <path id="Trazado_1162486" data-name="Trazado 1162486" d="M570.245,220.707a.9.9,0,1,1-.9-.9.9.9,0,0,1,.9.9" transform="translate(-167.012 -64.581)" fill="#54546b"/>
              <path id="Trazado_1162487" data-name="Trazado 1162487" d="M570.245,237.04a.9.9,0,1,1-.9-.9.9.9,0,0,1,.9.9" transform="translate(-167.012 -69.38)" fill="#54546b"/>
              <path id="Trazado_1162488" data-name="Trazado 1162488" d="M570.245,253.372a.9.9,0,1,1-.9-.9.9.9,0,0,1,.9.9" transform="translate(-167.012 -74.178)" fill="#54546b"/>
              <path id="Trazado_1162489" data-name="Trazado 1162489" d="M570.245,269.7a.9.9,0,1,1-.9-.9.9.9,0,0,1,.9.9" transform="translate(-167.012 -78.976)" fill="#54546b"/>
              <path id="Trazado_1162490" data-name="Trazado 1162490" d="M604.984,139.833s-4.732,16.618,1.91,30.159c-2.157-10.943-1.91-30.159-1.91-30.159" transform="translate(-177.266 -41.083)" fill="#cc9456"/>
              <path id="Trazado_1162491" data-name="Trazado 1162491" d="M585.679,145.048c.631,2.208,2.593,8.938,5.152,16.316a38.619,38.619,0,0,0,6.135,8.777c-5.023-7.3-8.51-18.331-10.481-25.9-.267.276-.534.546-.807.806" transform="translate(-172.074 -42.379)" fill="#cc9456"/>
              <path id="Trazado_1162492" data-name="Trazado 1162492" d="M590.755,161.755a57.516,57.516,0,0,1-5.3-16.182l-.041.039c.2,4.192,1.647,21.612,12.376,33.366a138.885,138.885,0,0,1-7.039-17.223" transform="translate(-171.998 -42.77)" fill="#cc9456"/>
              <path id="Trazado_1162493" data-name="Trazado 1162493" d="M585.4,145.133c0,.1.009.22.015.35l.041-.039c-.019-.1-.037-.208-.056-.311" transform="translate(-171.991 -42.641)" fill="#d8a150"/>
              <path id="Trazado_1162494" data-name="Trazado 1162494" d="M585.476,145.517a57.532,57.532,0,0,0,5.3,16.182c-2.559-7.378-4.522-14.108-5.152-16.316l-.143.134" transform="translate(-172.015 -42.714)" fill="#cc9456"/>
              <path id="Trazado_1162495" data-name="Trazado 1162495" d="M604.077,161.942c-6.844-11.688-6.174-30.929-5.926-35.23q-.147.182-.3.349c-1.294,4.785-5.078,22.586,6.228,34.881" transform="translate(-175.163 -37.228)" fill="#cc9456"/>
              <path id="Trazado_1162496" data-name="Trazado 1162496" d="M595.7,138.046s-7.05,21.867,6.28,36.037c-4.939-12.568-6.28-36.037-6.28-36.037" transform="translate(-174.47 -40.558)" fill="#cc9456"/>
              <path id="Trazado_1162497" data-name="Trazado 1162497" d="M555.61,86.309s-1.648-2.145-.015-5.525a17.343,17.343,0,0,1,7.1-6.023c3.693-1.663,7.919-2.088,11.343-.737-1.147-.018-3.545-1-9.837,1.537s-9.037,8.768-8.6,10.748" transform="translate(-163.024 -21.512)" fill="#ba7a4a"/>
              <path id="Trazado_1162498" data-name="Trazado 1162498" d="M555.85,88.8a4.55,4.55,0,0,1,1.435-3.954,11.135,11.135,0,0,1,5.864-2.893c2.188-.452,10.4-.793,15.978,3.352-6.2-3.376-15.665-2.337-18.093-1.455s-5.405,2.833-5.184,4.949" transform="translate(-163.297 -24.002)" fill="#ba7a4a"/>
              <path id="Trazado_1162499" data-name="Trazado 1162499" d="M542.113,92.186a9.939,9.939,0,0,1,4.995-1.859c2.41-.215,3.874-.014,4.438.727-.119-.339-1.039-1.941-3.95-1.749-5.308.348-6.42,4.076-6.606,4.818a6.972,6.972,0,0,1,1.124-1.936" transform="translate(-158.944 -26.233)" fill="#ba7a4a"/>
              <path id="Trazado_1162500" data-name="Trazado 1162500" d="M544.75,86.808a4.2,4.2,0,0,1,3.177-1.315,3.946,3.946,0,0,1,3.07,1.3,6.969,6.969,0,0,1,1.653,2.8s-.255-4.688-3.9-5.1a4.311,4.311,0,0,0-4,2.317" transform="translate(-160.049 -24.818)" fill="#ba7a4a"/>
              <path id="Trazado_1162501" data-name="Trazado 1162501" d="M377.794,302.037a19.067,19.067,0,1,1-19.067-19.067,19.067,19.067,0,0,1,19.067,19.067" transform="translate(-99.793 -83.137)" fill="#26a69a" fill-rule="evenodd"/>
              <path id="Trazado_1162502" data-name="Trazado 1162502" d="M207.159,45.857a15.235,15.235,0,0,0-2.291-21.895,117.395,117.395,0,0,0-143.035.675A15.353,15.353,0,1,0,80.672,48.885a86.556,86.556,0,0,1,105.55-.53,15.322,15.322,0,0,0,20.937-2.5" transform="translate(-16.404 0)" fill="#00897b"/>
              <path id="Trazado_1162503" data-name="Trazado 1162503" d="M234.773,179.815V330.508c0,64.729-51.778,118.382-116.508,118.855A117.381,117.381,0,0,1,0,331.98V179.815a117.136,117.136,0,0,1,6.264-37.926,15.347,15.347,0,1,1,29.094,9.778,86.391,86.391,0,0,0-4.689,28.148V330.662c0,47.585,37.784,87.3,85.363,88.025A86.818,86.818,0,0,0,204.1,331.98V179.815a86.336,86.336,0,0,0-6.424-32.77A15.325,15.325,0,0,1,203.6,128.33h0a15.379,15.379,0,0,1,22.533,7.212,117.034,117.034,0,0,1,8.64,44.274" transform="translate(0 -36.991)" fill="#00897b"/>
              <path id="Trazado_1162504" data-name="Trazado 1162504" d="M211.5,166.184a77.528,77.528,0,1,1-77.528-77.528A77.527,77.527,0,0,1,211.5,166.184" transform="translate(-16.583 -26.047)" fill="#4db6ac"/>
              <path id="Trazado_1162505" data-name="Trazado 1162505" d="M192.633,171.12a11.09,11.09,0,0,0-10.532-7.626l-16.721-1.949c-3.061-1.215-5.837-4.2-6.445-6.418l-.186-8.464c-1.865,1.328-3.628,2.226-5.743,3.583a19.963,19.963,0,0,1-6.119-.037,55.009,55.009,0,0,1-9.985-6.985l-.369,12.139c-.792,2.131-3.686,4.862-6.7,6.1l-16.574,2.036a11.088,11.088,0,0,0-10.923,9.219c-.039.2-.07.4-.091.6-.015.118-.023.237-.035.355-.006.076-.015.149-.017.225l16.2,13.322,5.969,19.276h46.662l6.445-20.813h1.72Z" transform="translate(-30.023 -42.079)" fill="#fcc397"/>
              <rect id="Rectángulo_420221" data-name="Rectángulo 420221" width="28.092" height="51.777" transform="translate(102.916 124.406)" fill="#e5e5e5"/>
              <path id="Trazado_1162506" data-name="Trazado 1162506" d="M187.793,177.241a11.083,11.083,0,0,0-10.375-7.208L160.7,168.084a32.038,32.038,0,0,1-3.547-.994l-13.883,53.993-14.154-55.6A14.422,14.422,0,0,1,125.146,168l-16.575,2.036a11.037,11.037,0,0,0-8.434,3.908l-.044-.033a7.3,7.3,0,0,0-.6.862,10.971,10.971,0,0,0-1.1,1.986c-4.116,8.041-11.9,30.511-12.14,40.289-.275,11.456,14.252,32.487,20.036,37.776l14.437-1.086-8.221,4.972-.081,1.432a77.731,77.731,0,0,0,61.142-.237l-.294-5.18c1.871,1.3,4.412,1.42,7.082-1.7,5.785-5.288,20.1-25.558,19.83-37.013-.231-9.64-8.222-30.472-12.393-38.763m-74.329,64.7a210.336,210.336,0,0,1-10.682-21.781c-1.945-4.761,3.359-16.074,8.786-24.331l1.9,45.992Zm59.141,1.029-.129-2.245,1.786-43.764c4.666,8.057,9.6,18.112,9.673,23.016.055,3.573-7.062,14.715-11.33,22.993" transform="translate(-25.341 -48.618)" fill="#333"/>
              <path id="Trazado_1162507" data-name="Trazado 1162507" d="M181.561,188.175,180.4,169.3l-5.6-.648a13.009,13.009,0,0,1-2.371-1.257l-2.922,3.968L156.8,221.323l-12.762-50.142-2.922-3.97a13.291,13.291,0,0,1-2.369,1.294l-5.217.641-.989,18.846,7.161,1.285-1.468,7.344,17.574,33.768-.316,4.422,20.379-38.006L174.4,189.46Z" transform="translate(-38.94 -49.127)" fill="#515151"/>
              <path id="Trazado_1162508" data-name="Trazado 1162508" d="M159.33,202.441l5.339,20.977,4.464-17.536-2.7-21.429,3.27-4.731-1.912-5.193-6.667-.186L159.393,180l3.024,4.359Z" transform="translate(-46.812 -51.222)" fill="#5fa6b2"/>
              <path id="Trazado_1162509" data-name="Trazado 1162509" d="M148,159.979l11.751,10.1-8.629,8.63-8.446-13.037Z" transform="translate(-41.919 -47.002)" fill="#fff"/>
              <path id="Trazado_1162510" data-name="Trazado 1162510" d="M132.373,291.178a.426.426,0,0,0,0-.06l-2.81-4.236a4.681,4.681,0,0,0-6.491-1.314c-5.237,3.472-4.328,2.849-4.779,3.2a10.378,10.378,0,0,0-.976,4.463,76.966,76.966,0,0,0,8.065,3.466,13.47,13.47,0,0,0,6.99-5.52" transform="translate(-34.468 -83.671)" fill="#fcc397"/>
              <path id="Trazado_1162511" data-name="Trazado 1162511" d="M178.608,159.979l-11.752,10.1,8.629,8.63,8.448-13.037Z" transform="translate(-49.023 -47.002)" fill="#fff"/>
              <rect id="Rectángulo_420222" data-name="Rectángulo 420222" width="12.07" height="3.029" transform="matrix(0.809, -0.588, 0.588, 0.809, 81.057, 205.708)" fill="#fff"/>
              <path id="Trazado_1162512" data-name="Trazado 1162512" d="M140.308,279.644l-2.8.035a13.624,13.624,0,0,1,.3,2.66,13.323,13.323,0,0,1-2.082,7.328,13.47,13.47,0,0,1-6.991,5.52c.768.279,2.323.816,3.813,1.27a16.146,16.146,0,0,0,7.757-16.813" transform="translate(-37.824 -82.16)" fill="#515151"/>
              <path id="Trazado_1162513" data-name="Trazado 1162513" d="M208.64,287.914,204.13,285a4.685,4.685,0,0,0-6.475,1.4c-1.135,1.761-.48.746-2.754,4.27,0,.018,0,.042,0,.061a13.461,13.461,0,0,0,7.145,5.46,76.813,76.813,0,0,0,7.939-3.519c-.006-1.474-.484-4.209-1.345-4.762" transform="translate(-57.262 -83.516)" fill="#fcc397"/>
              <path id="Trazado_1162514" data-name="Trazado 1162514" d="M192.852,289.284a13.365,13.365,0,0,1-1.907-9.965h-2.8a16.4,16.4,0,0,0-.221,2.664,16.146,16.146,0,0,0,8.258,14.09c1.582-.5,2.695-.9,3.816-1.329a13.461,13.461,0,0,1-7.145-5.46" transform="translate(-55.212 -82.065)" fill="#515151"/>
              <rect id="Rectángulo_420223" data-name="Rectángulo 420223" width="3.029" height="12.069" transform="matrix(0.588, -0.809, 0.809, 0.588, 143.711, 200.299)" fill="#fff"/>
              <path id="Trazado_1162515" data-name="Trazado 1162515" d="M161.377,148.145a59.867,59.867,0,0,1-10.3-4.425v5.439c1.679,1.065,4.174,2.7,5.911,3.78a7.28,7.28,0,0,0,2.51.7h6.392a6.8,6.8,0,0,0,2.518-.688c1.4-.928,3.013-2.227,4.759-3.381v-5.993a77.164,77.164,0,0,1-11.791,4.564" transform="translate(-44.387 -42.185)" fill="#ea9f6c"/>
              <path id="Trazado_1162516" data-name="Trazado 1162516" d="M177.943,99.785a2.47,2.47,0,0,0-1.777.119c.236-6.873.174-13.036-.7-14.406-4.837-7.589-10.522-10.89-18.891-11.2h0c-8.368.314-13.423,3.615-18.26,11.2-.895,1.4-1.046,7.842-.915,14.92a2.9,2.9,0,0,0-2.648-.638c-1.845.622-2.494,3.645-1.448,6.752.9,2.679,2.773,4.542,4.454,4.6.274,6.034.588,10.735.588,10.735,5.651,3.874,9.4,6.491,12.666,8.421a5.448,5.448,0,0,0,2.015.571H159.8a8.286,8.286,0,0,0,2.305-.631c3.275-1.919,7.034-4.578,12.7-8.361,0,0,.409-4.766.8-10.86,1.475-.463,2.977-2.162,3.763-4.47,1.059-3.1.42-6.126-1.423-6.755" transform="translate(-39.018 -21.828)" fill="#fcc397"/>
              <path id="Trazado_1162517" data-name="Trazado 1162517" d="M172.988,106.5c.575-.318,7.606-3.087,9.741.588,1.79,3.088-1.516,0-3.715.024a31.315,31.315,0,0,0-5.635.434c-.883.131-1.173-.614-.391-1.045" transform="translate(-50.691 -30.908)" fill="#663412"/>
              <path id="Trazado_1162518" data-name="Trazado 1162518" d="M154.47,106.683c-.55-.318-7.412-2.756-9.443.544-1.85,3.007,1.477.006,3.606.04a46.876,46.876,0,0,1,5.441.462c.859.088,1.144-.61.4-1.047" transform="translate(-42.451 -31.002)" fill="#663412"/>
              <path id="Trazado_1162519" data-name="Trazado 1162519" d="M155.739,113.645a12.289,12.289,0,0,1-4.5.842c-1.814,0-3.469-.61-3.469-1.76s1.633-1.975,3.476-1.975a6.235,6.235,0,0,1,4.5,2.893" transform="translate(-43.414 -32.539)" fill="#fff"/>
              <path id="Trazado_1162520" data-name="Trazado 1162520" d="M153.832,112.65a1.752,1.752,0,1,1-1.749-1.846,1.8,1.8,0,0,1,1.749,1.846" transform="translate(-44.168 -32.555)" fill="#7b9368"/>
              <path id="Trazado_1162521" data-name="Trazado 1162521" d="M153.54,112.942a1.123,1.123,0,1,1-1.121-1.185,1.154,1.154,0,0,1,1.121,1.185" transform="translate(-44.451 -32.835)"/>
              <path id="Trazado_1162522" data-name="Trazado 1162522" d="M154.876,113.286a.583.583,0,1,1-.564-.435.513.513,0,0,1,.564.435" transform="translate(-45.172 -33.156)" fill="#fff"/>
              <path id="Trazado_1162523" data-name="Trazado 1162523" d="M155.625,113.65s-.643-1.042-3.179-1.809c-1.818-.549-4.549.249-4.6,1.541-.761-.552-.785-1.576,1.157-2.3a5.3,5.3,0,0,1,6.37,2.054,1.654,1.654,0,0,1,.25.513" transform="translate(-43.297 -32.532)" fill="#ea9f6c"/>
              <path id="Trazado_1162524" data-name="Trazado 1162524" d="M173.059,113.645a10.826,10.826,0,0,0,4.441.831c1.816-.046,3.472-.5,3.472-1.657s-1.573-2.066-3.415-2.066a6.239,6.239,0,0,0-4.5,2.893" transform="translate(-50.845 -32.539)" fill="#fff"/>
              <path id="Trazado_1162525" data-name="Trazado 1162525" d="M176.792,112.584a1.753,1.753,0,1,0,1.751-1.848,1.8,1.8,0,0,0-1.751,1.848" transform="translate(-51.942 -32.535)" fill="#7b9368"/>
              <path id="Trazado_1162526" data-name="Trazado 1162526" d="M177.676,112.872a1.124,1.124,0,1,0,1.122-1.184,1.155,1.155,0,0,0-1.122,1.184" transform="translate(-52.202 -32.814)"/>
              <path id="Trazado_1162527" data-name="Trazado 1162527" d="M180.152,113.012a.583.583,0,1,0,.566-.436.513.513,0,0,0-.566.436" transform="translate(-52.929 -33.075)" fill="#fff"/>
              <path id="Trazado_1162528" data-name="Trazado 1162528" d="M173.054,113.633s.644-1.042,3.18-1.809c1.82-.549,4.547.249,4.6,1.541.759-.552.686-1.625-1.258-2.347a5.2,5.2,0,0,0-6.271,2.1,1.653,1.653,0,0,0-.25.513" transform="translate(-50.844 -32.516)" fill="#ea9f6c"/>
              <path id="Trazado_1162529" data-name="Trazado 1162529" d="M165.787,128.5h-2.919a2.3,2.3,0,0,1-2.12-1.622,2.772,2.772,0,0,0-.157.911c0,1.4,1.7,1.847,2.963,1.847H165.1c1.256,0,2.96-.449,2.96-1.847a2.736,2.736,0,0,0-.158-.911,2.3,2.3,0,0,1-2.119,1.622" transform="translate(-47.182 -37.277)" fill="#ea9f6c"/>
              <path id="Trazado_1162530" data-name="Trazado 1162530" d="M133.771,113.1c-.02-.25.471-1.373,1.082-1.181.934.294,1.525,2.116,1.919,3.936s.208,3.145,0,2.657a26.516,26.516,0,0,0-1.673-4.969c-.739-1.377-1.181,1.526-1.328-.443" transform="translate(-39.302 -32.875)" fill="#ea9f6c"/>
              <path id="Trazado_1162531" data-name="Trazado 1162531" d="M197.188,113.1c.019-.25-.471-1.373-1.081-1.181-.936.294-1.524,2.116-1.919,3.936s-.21,3.145,0,2.657a26.213,26.213,0,0,1,1.672-4.969c.738-1.377,1.181,1.526,1.328-.443" transform="translate(-56.985 -32.875)" fill="#ea9f6c"/>
              <path id="Trazado_1162532" data-name="Trazado 1162532" d="M172.668,74.3c-3.144-5.5-21.056-3.149-26.763-1.575s-9.445,4.722-9.247,9.642c.17,4.253.193,13.8.2,16.3a3.356,3.356,0,0,1,1.443.58l1.115,5.155,1.181-8.068S138.232,80.6,153.581,83.353c-2.166,1.18-6.1,5.314-6.1,5.314s9.052-2.165,12.593-3.543,0,2.953,0,2.953,6.888-2.559,9.053-3.345,4.328-.2,4.722,3.542,1.377,17.906,1.377,17.906l2.472-7.418a2.884,2.884,0,0,1,.574-.1c.079-1.5.178-3.361.3-5.671,1.181-22.434-3.542-14.56-5.9-18.693" transform="translate(-40.148 -20.817)" fill="#663412"/>
              <path id="Trazado_1162533" data-name="Trazado 1162533" d="M158.593,138.2c.129.691,1.237,2.35,1.883,2.35h6.465c.648,0,1.756-1.658,1.883-2.35Z" transform="translate(-46.595 -40.603)" fill="#ea8c63"/>
              <path id="Trazado_1162534" data-name="Trazado 1162534" d="M166.216,138.063c-1.371-.168-5.889-.1-6.592-.062-1.8.083-2.854-.924-2.789-1.118.105-.31.339-.238.538.066.186.276,1.368.181,1.956.056,2.98-.642,2.214.076,3.669.1,1.365.021.9-.667,3.482-.083A5.732,5.732,0,0,0,169,137.3c.3-.15.534-.316.615,0,.078.3-1.205,1.035-3.4.766" transform="translate(-46.078 -40.158)" fill="#d87350"/>
            </g>
          </g>
        </g>
      </g>
    </g>
    <path id="Trazado_1168193" data-name="Trazado 1168193" d="M12.294,19H4.788V6.4H7.627V16.7h4.667Zm8.914,0H18.58V17.708h-.035a2.933,2.933,0,0,1-2.681,1.512,2.8,2.8,0,0,1-2.061-.743,2.661,2.661,0,0,1-.751-1.982q0-2.619,3.1-3.023l2.443-.325q0-1.477-1.6-1.477a5.46,5.46,0,0,0-3.059.958V10.536a6.881,6.881,0,0,1,1.586-.527,8.339,8.339,0,0,1,1.833-.229q3.85,0,3.85,3.841ZM18.6,15.344v-.606l-1.635.211q-1.354.176-1.354,1.222a1.01,1.01,0,0,0,.33.778,1.266,1.266,0,0,0,.892.3,1.644,1.644,0,0,0,1.274-.541A1.952,1.952,0,0,0,18.6,15.344Zm16.6,3.331a5.492,5.492,0,0,1-2.716.545,4.593,4.593,0,0,1-3.357-1.257,4.341,4.341,0,0,1-1.283-3.243A4.782,4.782,0,0,1,29.214,11.1,5.083,5.083,0,0,1,32.892,9.78a4.72,4.72,0,0,1,2.3.422v2.355a3.166,3.166,0,0,0-1.942-.65,2.559,2.559,0,0,0-1.894.7,2.607,2.607,0,0,0-.7,1.929,2.565,2.565,0,0,0,.668,1.876,2.455,2.455,0,0,0,1.837.681,3.666,3.666,0,0,0,2.03-.65Zm6.11.545a4.838,4.838,0,0,1-3.538-1.261,4.573,4.573,0,0,1-1.288-3.423,4.573,4.573,0,0,1,1.336-3.494A5.048,5.048,0,0,1,41.428,9.78a4.78,4.78,0,0,1,3.516,1.261,4.483,4.483,0,0,1,1.274,3.335A4.759,4.759,0,0,1,44.9,17.919,4.892,4.892,0,0,1,41.305,19.22Zm.07-7.312a1.852,1.852,0,0,0-1.529.677A2.984,2.984,0,0,0,39.3,14.5q0,2.593,2.092,2.593,2,0,2-2.663Q43.388,11.907,41.376,11.907ZM56.714,19H53.946V14q0-2.092-1.494-2.092a1.483,1.483,0,0,0-1.187.554,2.109,2.109,0,0,0-.466,1.406V19H48.022V10H50.8v1.424h.035A3.183,3.183,0,0,1,53.726,9.78q2.988,0,2.988,3.709ZM67.72,19H64.943V17.761h-.035a3.114,3.114,0,0,1-2.786,1.459,3.412,3.412,0,0,1-2.716-1.191A4.93,4.93,0,0,1,58.377,14.7a5.366,5.366,0,0,1,1.134-3.577A3.7,3.7,0,0,1,62.482,9.78a2.527,2.527,0,0,1,2.426,1.248h.035V5.676H67.72ZM65,14.623v-.677a2.13,2.13,0,0,0-.51-1.459,1.8,1.8,0,0,0-2.769.145,3.367,3.367,0,0,0-.519,1.991,2.914,2.914,0,0,0,.5,1.828,1.779,1.779,0,0,0,2.764-.035A2.821,2.821,0,0,0,65,14.623Zm6.471-6.047a1.622,1.622,0,0,1-1.151-.417,1.345,1.345,0,0,1-.448-1.024,1.3,1.3,0,0,1,.448-1.02,1.88,1.88,0,0,1,2.307,0,1.3,1.3,0,0,1,.444,1.02,1.34,1.34,0,0,1-.444,1.037A1.65,1.65,0,0,1,71.466,8.576ZM72.837,19H70.06V10h2.777ZM82,18.675a5.492,5.492,0,0,1-2.716.545,4.593,4.593,0,0,1-3.357-1.257,4.341,4.341,0,0,1-1.283-3.243A4.782,4.782,0,0,1,76.016,11.1,5.083,5.083,0,0,1,79.694,9.78,4.72,4.72,0,0,1,82,10.2v2.355a3.166,3.166,0,0,0-1.942-.65,2.559,2.559,0,0,0-1.894.7,2.607,2.607,0,0,0-.7,1.929,2.565,2.565,0,0,0,.668,1.876,2.455,2.455,0,0,0,1.837.681,3.666,3.666,0,0,0,2.03-.65Zm3.227-10.1a1.622,1.622,0,0,1-1.151-.417,1.345,1.345,0,0,1-.448-1.024,1.3,1.3,0,0,1,.448-1.02,1.88,1.88,0,0,1,2.307,0,1.3,1.3,0,0,1,.444,1.02,1.34,1.34,0,0,1-.444,1.037A1.65,1.65,0,0,1,85.225,8.576ZM86.6,19H83.818V10H86.6Zm6.629.22a4.838,4.838,0,0,1-3.538-1.261A4.573,4.573,0,0,1,88.4,14.535a4.573,4.573,0,0,1,1.336-3.494A5.048,5.048,0,0,1,93.347,9.78a4.78,4.78,0,0,1,3.516,1.261,4.483,4.483,0,0,1,1.274,3.335,4.759,4.759,0,0,1-1.314,3.542A4.892,4.892,0,0,1,93.224,19.22Zm.07-7.312a1.852,1.852,0,0,0-1.529.677,2.984,2.984,0,0,0-.545,1.916q0,2.593,2.092,2.593,2,0,2-2.663Q95.307,11.907,93.295,11.907Zm2.979-6.17L93.523,8.576h-2L93.8,5.737ZM108.625,19h-2.769V14q0-2.092-1.494-2.092a1.483,1.483,0,0,0-1.187.554,2.109,2.109,0,0,0-.466,1.406V19H99.932V10h2.777v1.424h.035a3.183,3.183,0,0,1,2.892-1.644q2.988,0,2.988,3.709Z" transform="translate(454.2 3288.911)" fill="#0b0a0a"/>
    <path id="Trazado_1168194" data-name="Trazado 1168194" d="M32.869,19H25.31V6.4h7.269V8.708h-4.43v2.8h4.122v2.3H28.149V16.7h4.72ZM37.4,19H34.62V5.676H37.4Zm10.12-1.046h-.035V23.14H44.7V10h2.777v1.354h.035a3.534,3.534,0,0,1,5.594-.374,5.108,5.108,0,0,1,.954,3.265,5.537,5.537,0,0,1-1.112,3.612A3.625,3.625,0,0,1,50,19.22,2.8,2.8,0,0,1,47.517,17.954Zm-.079-3.691v.721A2.291,2.291,0,0,0,47.93,16.5a1.6,1.6,0,0,0,1.292.589,1.7,1.7,0,0,0,1.472-.734,3.543,3.543,0,0,0,.523-2.079q0-2.373-1.846-2.373a1.733,1.733,0,0,0-1.393.646A2.576,2.576,0,0,0,47.438,14.263ZM58.645,19H55.868V5.676h2.777Zm9.828,0H65.845V17.708H65.81A2.933,2.933,0,0,1,63.13,19.22a2.8,2.8,0,0,1-2.061-.743,2.661,2.661,0,0,1-.751-1.982q0-2.619,3.1-3.023l2.443-.325q0-1.477-1.6-1.477a5.46,5.46,0,0,0-3.059.958V10.536a6.881,6.881,0,0,1,1.586-.527,8.339,8.339,0,0,1,1.833-.229q3.85,0,3.85,3.841Zm-2.61-3.656v-.606l-1.635.211q-1.354.176-1.354,1.222a1.01,1.01,0,0,0,.33.778,1.266,1.266,0,0,0,.892.3,1.644,1.644,0,0,0,1.274-.541A1.952,1.952,0,0,0,65.863,15.344ZM77.8,19H69.723V17.849l4.518-5.8H70.171V10h7.594v1.371l-4.28,5.581H77.8Zm5.785.22a4.838,4.838,0,0,1-3.538-1.261,4.573,4.573,0,0,1-1.288-3.423A4.573,4.573,0,0,1,80.1,11.042,5.048,5.048,0,0,1,83.708,9.78a4.78,4.78,0,0,1,3.516,1.261A4.483,4.483,0,0,1,88.5,14.377a4.759,4.759,0,0,1-1.314,3.542A4.892,4.892,0,0,1,83.585,19.22Zm.07-7.312a1.852,1.852,0,0,0-1.529.677,2.984,2.984,0,0,0-.545,1.916q0,2.593,2.092,2.593,2,0,2-2.663Q85.668,11.907,83.656,11.907Z" transform="translate(736.11 3288.911)" fill="#0b0a0a"/>
    <path id="Trazado_1168195" data-name="Trazado 1168195" d="M30.844,19H23.285V6.4h7.269V8.708h-4.43v2.8h4.122v2.3H26.124V16.7h4.72Zm4.528,0H32.595V5.676h2.777Zm21.6,0H54.2V13.867q0-1.96-1.441-1.96a1.324,1.324,0,0,0-1.116.589,2.42,2.42,0,0,0-.431,1.468V19H48.436V13.814q0-1.907-1.415-1.907a1.356,1.356,0,0,0-1.138.563A2.475,2.475,0,0,0,45.457,14v5H42.679V10h2.777v1.406h.035A3.41,3.41,0,0,1,48.4,9.78a2.592,2.592,0,0,1,2.61,1.679A3.329,3.329,0,0,1,54.035,9.78q2.936,0,2.936,3.621Zm6.488.22a4.838,4.838,0,0,1-3.538-1.261,4.573,4.573,0,0,1-1.288-3.423,4.573,4.573,0,0,1,1.336-3.494A5.048,5.048,0,0,1,63.581,9.78,4.78,4.78,0,0,1,67.1,11.042a4.483,4.483,0,0,1,1.274,3.335,4.759,4.759,0,0,1-1.314,3.542A4.892,4.892,0,0,1,63.458,19.22Zm.07-7.312A1.852,1.852,0,0,0,62,12.584a2.984,2.984,0,0,0-.545,1.916q0,2.593,2.092,2.593,2,0,2-2.663Q65.541,11.907,63.529,11.907ZM78.982,19H76.2V17.761h-.035a3.114,3.114,0,0,1-2.786,1.459,3.412,3.412,0,0,1-2.716-1.191A4.93,4.93,0,0,1,69.639,14.7a5.366,5.366,0,0,1,1.134-3.577A3.7,3.7,0,0,1,73.743,9.78a2.527,2.527,0,0,1,2.426,1.248H76.2V5.676h2.777Zm-2.725-4.377v-.677a2.13,2.13,0,0,0-.51-1.459,1.8,1.8,0,0,0-2.769.145,3.367,3.367,0,0,0-.519,1.991,2.914,2.914,0,0,0,.5,1.828,1.779,1.779,0,0,0,2.764-.035A2.821,2.821,0,0,0,76.257,14.623Zm9.353,4.6a4.838,4.838,0,0,1-3.538-1.261,4.573,4.573,0,0,1-1.288-3.423,4.573,4.573,0,0,1,1.336-3.494A5.048,5.048,0,0,1,85.733,9.78a4.78,4.78,0,0,1,3.516,1.261,4.483,4.483,0,0,1,1.274,3.335,4.759,4.759,0,0,1-1.314,3.542A4.892,4.892,0,0,1,85.61,19.22Zm.07-7.312a1.852,1.852,0,0,0-1.529.677,2.984,2.984,0,0,0-.545,1.916q0,2.593,2.092,2.593,2,0,2-2.663Q87.693,11.907,85.681,11.907Z" transform="translate(1018.02 3288.911)" fill="#0b0a0a"/>
  </g>
</svg>
