<svg xmlns="http://www.w3.org/2000/svg" xmlns:xlink="http://www.w3.org/1999/xlink" width="104.054" height="104.054" viewBox="0 0 104.054 104.054">
  <defs>
    <filter id="Trazado_978624" x="0" y="0" width="104.054" height="104.054" filterUnits="userSpaceOnUse">
      <feOffset dy="3" input="SourceAlpha"/>
      <feGaussianBlur stdDeviation="3" result="blur"/>
      <feFlood flood-opacity="0.161"/>
      <feComposite operator="in" in2="blur"/>
      <feComposite in="SourceGraphic"/>
    </filter>
  </defs>
  <g id="Grupo_1217829" data-name="Grupo 1217829" transform="translate(-159.964 -3546.842)">
    <g id="Grupo_1216086" data-name="Grupo 1216086" transform="translate(168.964 3552.842)">
      <g id="Grupo_1210476" data-name="Grupo 1210476" transform="translate(0 0)">
        <g id="Grupo_1210475" data-name="Grupo 1210475" transform="translate(0 0)">
          <g id="Grupo_1209741" data-name="Grupo 1209741" transform="translate(0 0)">
            <g id="Grupo_1178144" data-name="Grupo 1178144">
              <g id="Grupo_1177896" data-name="Grupo 1177896">
                <g id="Grupo_1176881" data-name="Grupo 1176881">
                  <g id="Grupo_1175148" data-name="Grupo 1175148">
                    <g id="Grupo_1173798" data-name="Grupo 1173798">
                      <g id="Grupo_1171925" data-name="Grupo 1171925">
                        <g id="Grupo_1164524" data-name="Grupo 1164524">
                          <g id="Grupo_1144123" data-name="Grupo 1144123">
                            <g transform="matrix(1, 0, 0, 1, -9, -6)" filter="url(#Trazado_978624)">
                              <g id="Trazado_978624-2" data-name="Trazado 978624" transform="translate(9 6)" fill="#eae4dc">
                                <path d="M 43.02708435058594 84.55416870117188 C 37.42029571533203 84.55416870117188 31.98203468322754 83.45640563964844 26.86333465576172 81.2913818359375 C 21.91849708557129 79.19989776611328 17.47725868225098 76.20543670654297 13.66299724578857 72.39117431640625 C 9.848747253417969 68.57691192626953 6.85427188873291 64.13568115234375 4.762784481048584 59.19084548950195 C 2.597759246826172 54.07214736938477 1.499996900558472 48.63387298583984 1.499996900558472 43.02708435058594 C 1.499996900558472 37.42031097412109 2.597759246826172 31.98203468322754 4.762784481048584 26.86333465576172 C 6.85427188873291 21.91849708557129 9.848747253417969 17.47725868225098 13.66299724578857 13.66299724578857 C 17.47725868225098 9.848747253417969 21.91849708557129 6.85427188873291 26.86333465576172 4.762784481048584 C 31.98203468322754 2.597759246826172 37.42031097412109 1.499996900558472 43.02708435058594 1.499996900558472 C 48.63387298583984 1.499996900558472 54.07214736938477 2.597759246826172 59.19084548950195 4.762784481048584 C 64.13568115234375 6.85427188873291 68.57691192626953 9.848747253417969 72.39117431640625 13.66299724578857 C 76.20543670654297 17.47725868225098 79.19989776611328 21.91849708557129 81.2913818359375 26.86333465576172 C 83.45640563964844 31.98203468322754 84.55416870117188 37.42029571533203 84.55416870117188 43.02708435058594 C 84.55416870117188 48.63387298583984 83.45640563964844 54.07214736938477 81.2913818359375 59.19084548950195 C 79.19989776611328 64.13568115234375 76.20543670654297 68.57691192626953 72.39117431640625 72.39117431640625 C 68.57691192626953 76.20543670654297 64.13568115234375 79.19989776611328 59.19084548950195 81.2913818359375 C 54.07214736938477 83.45640563964844 48.63387298583984 84.55416870117188 43.02708435058594 84.55416870117188 Z" stroke="none"/>
                                <path d="M 43.02708435058594 3.000007629394531 C 37.62213897705078 3.000007629394531 32.38047027587891 4.057899475097656 27.44765853881836 6.144294738769531 C 22.68161773681641 8.160163879394531 18.40064239501953 11.04668426513672 14.72367095947266 14.72367095947266 C 11.04668426513672 18.40064239501953 8.160163879394531 22.68161773681641 6.144294738769531 27.44765853881836 C 4.057899475097656 32.38047027587891 3.000007629394531 37.62213897705078 3.000007629394531 43.02708435058594 C 3.000007629394531 48.43202972412109 4.057899475097656 53.67369842529297 6.144294738769531 58.60651016235352 C 8.160163879394531 63.37255096435547 11.04668426513672 67.65352630615234 14.72367095947266 71.33049774169922 C 18.40064239501953 75.00748443603516 22.68161773681641 77.89400482177734 27.44765853881836 79.90987396240234 C 32.38047027587891 81.99626922607422 37.62213897705078 83.05416107177734 43.02708435058594 83.05416107177734 C 48.43202972412109 83.05416107177734 53.67369842529297 81.99626922607422 58.60651016235352 79.90987396240234 C 63.37255096435547 77.89400482177734 67.65352630615234 75.00748443603516 71.33049774169922 71.33049774169922 C 75.00748443603516 67.65352630615234 77.89400482177734 63.37255096435547 79.90987396240234 58.60651016235352 C 81.99626922607422 53.67369842529297 83.05416107177734 48.43202972412109 83.05416107177734 43.02708435058594 C 83.05416107177734 37.62213897705078 81.99626922607422 32.38047027587891 79.90987396240234 27.44765853881836 C 77.89400482177734 22.68161773681641 75.00748443603516 18.40064239501953 71.33049774169922 14.72367095947266 C 67.65352630615234 11.04668426513672 63.37255096435547 8.160163879394531 58.60651016235352 6.144294738769531 C 53.67369842529297 4.057899475097656 48.43202972412109 3.000007629394531 43.02708435058594 3.000007629394531 M 43.02708435058594 7.62939453125e-06 C 66.790283203125 7.62939453125e-06 86.05416107177734 19.26388549804688 86.05416107177734 43.02708435058594 C 86.05416107177734 66.790283203125 66.790283203125 86.05416107177734 43.02708435058594 86.05416107177734 C 19.26388549804688 86.05416107177734 7.62939453125e-06 66.790283203125 7.62939453125e-06 43.02708435058594 C 7.62939453125e-06 19.26388549804688 19.26388549804688 7.62939453125e-06 43.02708435058594 7.62939453125e-06 Z" stroke="none" fill="#665b4e"/>
                              </g>
                            </g>
                          </g>
                        </g>
                      </g>
                    </g>
                  </g>
                </g>
              </g>
            </g>
          </g>
        </g>
      </g>
    </g>
    <g id="cooperacion" transform="translate(180.087 3564.366)">
      <g id="Grupo_1217827" data-name="Grupo 1217827" transform="translate(0.935 5.503)">
        <g id="Grupo_1217826" data-name="Grupo 1217826">
          <g id="Grupo_1217809" data-name="Grupo 1217809" transform="translate(7.946 26.825)">
            <g id="Grupo_1217808" data-name="Grupo 1217808">
              <g id="Grupo_1217807" data-name="Grupo 1217807">
                <g id="Grupo_1217806" data-name="Grupo 1217806">
                  <g id="Grupo_1217805" data-name="Grupo 1217805">
                    <g id="Grupo_1217804" data-name="Grupo 1217804">
                      <g id="Grupo_1217801" data-name="Grupo 1217801">
                        <g id="Grupo_1217800" data-name="Grupo 1217800">
                          <path id="Trazado_1167392" data-name="Trazado 1167392" d="M111.265,279.721,96.61,271.043a1.582,1.582,0,0,1-.554-2.167l.75-1.266-2.965-1.754c-1.956-1.122-2.871-1.33-4.635-.648l-1.923.744a4.094,4.094,0,0,1-3.563-.3l-5.148-3.035L71.26,274.96l6.591,3.89a4.093,4.093,0,0,1,1.155,1.022l2.221,2.88a25.557,25.557,0,0,0,5.383,4.258l8.477,5.022a2.355,2.355,0,0,0,2.4-4.052l2.648,1.569a2.355,2.355,0,1,0,2.4-4.052l1.766,1.046a2.355,2.355,0,1,0,2.4-4.052l2.161,1.28a2.355,2.355,0,0,0,2.4-4.052Z" transform="translate(-71.26 -262.62)" fill="#f9eae2"/>
                        </g>
                        <path id="Trazado_1167393" data-name="Trazado 1167393" d="M241.327,377.383l-5.365-3.177a.142.142,0,0,0-.194.2A2.418,2.418,0,0,1,235.7,377a2.349,2.349,0,0,1-3.142.662l-.8-.475a.348.348,0,0,0-.5.435,2.883,2.883,0,0,1-.091,2.164,1.869,1.869,0,0,1-2.748.9l-.348-.206a.659.659,0,0,0-.755.058.283.283,0,0,0-.285.388,2.419,2.419,0,0,1-.264,1.94,2.467,2.467,0,0,1-3.358.786l-.946-.56a.418.418,0,0,0-.543.1.413.413,0,0,0-.075.357,2.423,2.423,0,0,1-2,3l5.263,3.118a2.392,2.392,0,0,0,3.23-.724,2.355,2.355,0,0,0-.781-3.3l2.6,1.54a2.392,2.392,0,0,0,3.23-.724,2.355,2.355,0,0,0-.781-3.3l1.766,1.046a2.355,2.355,0,1,0,2.4-4.052l2.112,1.251a2.392,2.392,0,0,0,3.23-.724A2.355,2.355,0,0,0,241.327,377.383Z" transform="translate(-201.322 -360.281)" fill="#f5dbcc"/>
                      </g>
                      <g id="Grupo_1217802" data-name="Grupo 1217802" transform="translate(20.967 0.737)">
                        <path id="Trazado_1167394" data-name="Trazado 1167394" d="M257.267,268.531l-3.954,2.3a4.094,4.094,0,0,1-3.563.3l-2.169-.852a3.486,3.486,0,0,0-2.13-.135l-3.323.841a3.486,3.486,0,0,0-2.631,3.379v4.436a1.137,1.137,0,0,0,1.135,1.138,3.423,3.423,0,0,0,3.425-3.423v-.188l14.224,8.423a4.093,4.093,0,0,1,.9-.72l5.4-3.153Z" transform="translate(-239.498 -268.531)" fill="#ecb784"/>
                      </g>
                      <g id="Grupo_1217803" data-name="Grupo 1217803" transform="translate(3.88 15.117)">
                        <path id="Trazado_1167395" data-name="Trazado 1167395" d="M107.991,387.645l-1.334,1.858a2.354,2.354,0,0,1-3.825-2.746l1.334-1.858a2.354,2.354,0,1,1,3.825,2.746Z" transform="translate(-102.391 -383.918)" fill="#ecb784"/>
                        <path id="Trazado_1167396" data-name="Trazado 1167396" d="M140.153,393.228l-2.805,3.908a2.354,2.354,0,1,1-3.825-2.746l2.805-3.908a2.354,2.354,0,1,1,3.825,2.746Z" transform="translate(-129.256 -388.805)" fill="#ecb784"/>
                        <path id="Trazado_1167397" data-name="Trazado 1167397" d="M170.843,415.261l-2.805,3.908a2.354,2.354,0,0,1-3.825-2.746l2.805-3.908a2.354,2.354,0,1,1,3.825,2.746Z" transform="translate(-156.121 -408.092)" fill="#ecb784"/>
                        <path id="Trazado_1167398" data-name="Trazado 1167398" d="M204.685,451.227l-.933,1.3a2.354,2.354,0,1,1-3.825-2.746l.933-1.3a2.354,2.354,0,0,1,3.825,2.746Z" transform="translate(-187.384 -439.576)" fill="#ecb784"/>
                      </g>
                    </g>
                  </g>
                </g>
              </g>
            </g>
          </g>
          <g id="Grupo_1217812" data-name="Grupo 1217812" transform="translate(0 16.353)">
            <g id="Grupo_1217810" data-name="Grupo 1217810" transform="translate(42.599 0)">
              <path id="Trazado_1167399" data-name="Trazado 1167399" d="M367.051,178.745l-16.766,9.994a1.991,1.991,0,0,0-.693,2.725l7.666,12.941a1.991,1.991,0,0,0,2.732.7l7.32-4.363a2.753,2.753,0,0,0,1.344-2.365V179.655a1.06,1.06,0,0,0-1.6-.911Z" transform="translate(-349.313 -178.594)" fill="#407093"/>
            </g>
            <path id="Trazado_1167400" data-name="Trazado 1167400" d="M409.091,182.526V194.69a9.234,9.234,0,0,1-4.506,7.932l1.056,1.783a1.991,1.991,0,0,0,2.732.7l7.32-4.363a2.753,2.753,0,0,0,1.344-2.365V179.656a1.06,1.06,0,0,0-1.6-.911Z" transform="translate(-355.097 -178.594)" fill="#365e7d"/>
            <g id="Grupo_1217811" data-name="Grupo 1217811">
              <path id="Trazado_1167401" data-name="Trazado 1167401" d="M9.1,178.745l16.766,9.994a1.991,1.991,0,0,1,.693,2.725L18.9,204.4a1.991,1.991,0,0,1-2.732.7l-7.32-4.364A2.753,2.753,0,0,1,7.5,198.371V179.655a1.06,1.06,0,0,1,1.6-.911Z" transform="translate(-7.5 -178.594)" fill="#407093"/>
            </g>
          </g>
          <g id="Grupo_1217825" data-name="Grupo 1217825" transform="translate(17.671)">
            <g id="Grupo_1217824" data-name="Grupo 1217824">
              <g id="Grupo_1217823" data-name="Grupo 1217823">
                <g id="Grupo_1217822" data-name="Grupo 1217822">
                  <g id="Grupo_1217821" data-name="Grupo 1217821">
                    <g id="Grupo_1217820" data-name="Grupo 1217820">
                      <g id="Grupo_1217819" data-name="Grupo 1217819">
                        <g id="Grupo_1217818" data-name="Grupo 1217818">
                          <g id="Grupo_1217817" data-name="Grupo 1217817">
                            <g id="Grupo_1217816" data-name="Grupo 1217816">
                              <g id="Grupo_1217815" data-name="Grupo 1217815">
                                <g id="Grupo_1217814" data-name="Grupo 1217814">
                                  <path id="Trazado_1167402" data-name="Trazado 1167402" d="M173.308,65.3H151.879a2.584,2.584,0,0,1-2.584-2.584V49.966a2.584,2.584,0,0,1,2.584-2.584h21.429a2.584,2.584,0,0,1,2.584,2.584v12.75A2.584,2.584,0,0,1,173.308,65.3Z" transform="translate(-149.295 -47.382)" fill="#ddb7a0"/>
                                  <g id="Grupo_1217813" data-name="Grupo 1217813">
                                    <path id="Trazado_1167403" data-name="Trazado 1167403" d="M286.592,47.382h-7.885a2.584,2.584,0,0,1,2.584,2.584v12.75a2.584,2.584,0,0,1-2.584,2.584h7.885a2.584,2.584,0,0,0,2.584-2.584V49.966A2.584,2.584,0,0,0,286.592,47.382Z" transform="translate(-262.579 -47.382)" fill="#d6a889"/>
                                    <path id="Trazado_1167404" data-name="Trazado 1167404" d="M175.891,51.072V49.966a2.584,2.584,0,0,0-2.584-2.584H151.878a2.584,2.584,0,0,0-2.584,2.584v1.106a4.682,4.682,0,0,0,4.682,4.682h17.232A4.682,4.682,0,0,0,175.891,51.072Z" transform="translate(-149.294 -47.382)" fill="#cc9675"/>
                                    <path id="Trazado_1167405" data-name="Trazado 1167405" d="M281.292,49.965v5.788h3.2a4.682,4.682,0,0,0,4.682-4.682V49.965a2.584,2.584,0,0,0-2.584-2.584h-7.885A2.584,2.584,0,0,1,281.292,49.965Z" transform="translate(-262.58 -47.381)" fill="#c4845c"/>
                                  </g>
                                </g>
                              </g>
                            </g>
                          </g>
                        </g>
                      </g>
                    </g>
                  </g>
                </g>
              </g>
            </g>
          </g>
        </g>
      </g>
      <g id="Grupo_1217828" data-name="Grupo 1217828" transform="translate(0 0)">
        <path id="Trazado_1167406" data-name="Trazado 1167406" d="M60.793,171.364l-16.766,9.994a2.932,2.932,0,0,0-1.234,3.559,3.135,3.135,0,0,1-2.35.032l-2.169-.852a4.393,4.393,0,0,0-2.7-.171l-3.323.841q-.193.049-.379.114c-2.03-1.159-3.24-1.505-5.382-.677l-1.923.744a3.143,3.143,0,0,1-2.751-.23l-.642-.379a2.932,2.932,0,0,0-1.39-2.981L3.016,171.364A1.994,1.994,0,0,0,0,173.078v18.715a3.7,3.7,0,0,0,1.8,3.168l7.32,4.364a2.924,2.924,0,0,0,3.96-.933l.313.185-.949,1.322a3.289,3.289,0,0,0,3.245,5.157,3.286,3.286,0,0,0,3.826,2.744,3.288,3.288,0,0,0,4.609,2.506,3.29,3.29,0,0,0,5.651.944l2.459,1.457a3.289,3.289,0,0,0,4.953-2.54l.1.057a3.292,3.292,0,0,0,4.964-2.665,3.295,3.295,0,0,0,4.16-2.913,3.29,3.29,0,0,0,3.746-5.207l.964-.563a2.926,2.926,0,0,0,3.573.449l1.77-1.055a.935.935,0,1,0-.957-1.606l-1.77,1.055a1.056,1.056,0,0,1-1.253-.126c-.006-.053-7.863-13.183-7.863-13.183a1.058,1.058,0,0,1,.368-1.445L61.75,172.97a.125.125,0,0,1,.19.108v18.716a1.827,1.827,0,0,1-.887,1.562l-1.767,1.053a.935.935,0,0,0,.957,1.606l1.767-1.053a3.7,3.7,0,0,0,1.8-3.168V173.078a1.994,1.994,0,0,0-3.016-1.714ZM36.031,185.738a2.538,2.538,0,0,1,1.559.1l2.174.854a5,5,0,0,0,3.95-.137l6.373,10.758-1.033.6a5.005,5.005,0,0,0-.539.369l-13.631-8.072a.935.935,0,0,0-1.411.8v.188a2.488,2.488,0,0,1-2.488,2.488.209.209,0,0,1-.2-.2v-4.436a2.549,2.549,0,0,1,1.369-2.261.935.935,0,0,0,.12-.059,2.569,2.569,0,0,1,.436-.153Zm-25.153,12.1a1.05,1.05,0,0,1-.8-.116l-7.32-4.363a1.827,1.827,0,0,1-.887-1.562V173.078a.115.115,0,0,1,.063-.109A.127.127,0,0,1,2,172.951a.12.12,0,0,1,.063.019l16.766,9.994a1.058,1.058,0,0,1,.368,1.445L11.526,197.35a1.049,1.049,0,0,1-.648.485Zm4.467,5.383a1.419,1.419,0,0,1-1.383-2.228l1.334-1.858a1.42,1.42,0,0,1,.1-.128.94.94,0,0,0,.079-.08,1.42,1.42,0,0,1,2.123,1.864l0,0-1.331,1.854a1.41,1.41,0,0,1-.923.573Zm2.767,2.5a1.419,1.419,0,0,1-.325-1.981l1.334-1.858h0l1.472-2.05a1.41,1.41,0,0,1,.923-.573,1.434,1.434,0,0,1,.233-.019,1.42,1.42,0,0,1,1.15,2.248l-2.805,3.908A1.421,1.421,0,0,1,18.112,205.716Zm4.883,2.994a1.419,1.419,0,0,1-1.383-2.229l0,0,2.8-3.9a1.42,1.42,0,1,1,2.306,1.656l-2.805,3.908A1.411,1.411,0,0,1,22.995,208.71Zm3.393,1.626a1.419,1.419,0,0,1-.325-1.981l0,0,.931-1.3a1.42,1.42,0,0,1,2.305,1.657l-.533.743-.016.023-.383.534a1.421,1.421,0,0,1-1.981.325Zm22.52-8a1.422,1.422,0,0,1-1.946.5l-2.161-1.28,0,0-6.692-3.965a.935.935,0,0,0-.953,1.608l6.7,3.967h0a1.42,1.42,0,0,1-1.449,2.443l-1.761-1.043,0,0,0,0L35.7,201.64a.935.935,0,1,0-.953,1.608l4.931,2.921,0,0a1.42,1.42,0,0,1-1.448,2.444l-2.643-1.566,0,0L33.653,205.9a.935.935,0,0,0-.953,1.608l1.933,1.145,0,0a1.42,1.42,0,0,1-1.45,2.442l-2.314-1.371a3.288,3.288,0,0,0-2.249-5.1A3.288,3.288,0,0,0,25,200.165a3.288,3.288,0,0,0-5.649-1.76,3.288,3.288,0,0,0-4.65-1.229l-.663-.391,6.359-10.735.47.277a5,5,0,0,0,4.377.364l1.923-.744a3.027,3.027,0,0,1,2.928.1,4.414,4.414,0,0,0-1.178,3.006v4.436a2.074,2.074,0,0,0,2.07,2.073h0a4.365,4.365,0,0,0,4.152-3.027l13.019,7.71a.926.926,0,0,0,.133.065.946.946,0,0,0,.121.085,1.422,1.422,0,0,1,.5,1.945Z" transform="translate(0 -150.161)"/>
        <path id="Trazado_1167407" data-name="Trazado 1167407" d="M145.311,27.583H166.74a3.523,3.523,0,0,0,3.519-3.519V11.315A3.523,3.523,0,0,0,166.74,7.8h-5.159V6.315a3.09,3.09,0,0,0-3.087-3.087h-4.939a3.09,3.09,0,0,0-3.087,3.087V7.8h-5.159a3.523,3.523,0,0,0-3.519,3.519v7.023a.935.935,0,0,0,1.869,0V16.6a5.594,5.594,0,0,0,3.747,1.436h.732v1.028a.935.935,0,1,0,1.869,0V18.037H162.04v1.028a.935.935,0,0,0,1.869,0V18.037h.731a5.6,5.6,0,0,0,3.748-1.436v7.463a1.651,1.651,0,0,1-1.649,1.649H145.311a1.651,1.651,0,0,1-1.649-1.649V22.708a.935.935,0,1,0-1.869,0v1.356a3.523,3.523,0,0,0,3.519,3.519Zm7.028-21.268A1.219,1.219,0,0,1,153.556,5.1h4.939a1.219,1.219,0,0,1,1.217,1.218V7.8h-7.373V6.315Zm12.3,9.853h-.731V15.14a.935.935,0,1,0-1.869,0v1.028H150.01V15.14a.935.935,0,0,0-1.869,0v1.028h-.732a3.752,3.752,0,0,1-3.747-3.747V11.315a1.651,1.651,0,0,1,1.649-1.649H166.74a1.651,1.651,0,0,1,1.649,1.649v1.106A3.752,3.752,0,0,1,164.642,16.168Z" transform="translate(-124.121 -3.228)"/>
      </g>
    </g>
  </g>
</svg>
