<svg xmlns="http://www.w3.org/2000/svg" xmlns:xlink="http://www.w3.org/1999/xlink" width="108" height="108" viewBox="0 0 108 108">
  <defs>
    <filter id="Trazado_904820" x="0" y="0" width="108" height="108" filterUnits="userSpaceOnUse">
      <feOffset dy="3" input="SourceAlpha"/>
      <feGaussianBlur stdDeviation="3" result="blur"/>
      <feFlood flood-opacity="0.161"/>
      <feComposite operator="in" in2="blur"/>
      <feComposite in="SourceGraphic"/>
    </filter>
  </defs>
  <g id="Grupo_1219828" data-name="Grupo 1219828" transform="translate(-617 -5626)">
    <g id="Grupo_1209015" data-name="Grupo 1209015" transform="translate(626 5632)">
      <g id="Grupo_1207774" data-name="Grupo 1207774" transform="translate(0 0)">
        <g id="Grupo_1206630" data-name="Grupo 1206630" transform="translate(0 0)">
          <g id="Grupo_1185091" data-name="Grupo 1185091">
            <g id="Grupo_1179560" data-name="Grupo 1179560">
              <g id="Grupo_1173787" data-name="Grupo 1173787">
                <g id="Grupo_1171910" data-name="Grupo 1171910">
                  <g id="Grupo_1167341" data-name="Grupo 1167341">
                    <g id="Grupo_1166792" data-name="Grupo 1166792">
                      <g transform="matrix(1, 0, 0, 1, -9, -6)" filter="url(#Trazado_904820)">
                        <g id="Trazado_904820-2" data-name="Trazado 904820" transform="translate(9 6)" fill="#e7f2f8">
                          <path d="M 44.99996948242188 88.50005340576172 C 39.12684631347656 88.50005340576172 33.43020629882812 87.35012817382812 28.06828117370605 85.08221435546875 C 22.88851928710938 82.89136505126953 18.23629379272461 79.754638671875 14.2408447265625 75.75918579101562 C 10.24540710449219 71.76374053955078 7.108694553375244 67.11151123046875 4.917831897735596 61.93173980712891 C 2.649931907653809 56.56980133056641 1.500007033348083 50.87314987182617 1.500007033348083 45.00002670288086 C 1.500007033348083 39.12690353393555 2.649931907653809 33.43025207519531 4.917831897735596 28.06831359863281 C 7.108694553375244 22.8885383605957 10.24540710449219 18.23631477355957 14.2408447265625 14.24086380004883 C 18.23629379272461 10.2454137802124 22.88851928710938 7.108689308166504 28.06828117370605 4.917839050292969 C 33.43020629882812 2.649926662445068 39.12684631347656 1.500001668930054 44.99996948242188 1.500001668930054 C 50.87309265136719 1.500001668930054 56.56973266601562 2.649926662445068 61.93165588378906 4.917839050292969 C 67.11143493652344 7.108689308166504 71.76364135742188 10.2454137802124 75.75909423828125 14.24086380004883 C 79.75454711914062 18.23631477355957 82.89125823974609 22.8885383605957 85.08212280273438 28.06831359863281 C 87.35002136230469 33.43025207519531 88.49994659423828 39.12690353393555 88.49994659423828 45.00002670288086 C 88.49994659423828 50.87314987182617 87.35002136230469 56.56980133056641 85.08212280273438 61.93173980712891 C 82.89125823974609 67.11151123046875 79.75454711914062 71.76374053955078 75.75909423828125 75.75918579101562 C 71.76364135742188 79.754638671875 67.11143493652344 82.89136505126953 61.93165588378906 85.08221435546875 C 56.56973266601562 87.35012817382812 50.87309265136719 88.50005340576172 44.99996948242188 88.50005340576172 Z" stroke="none"/>
                          <path d="M 44.99996948242188 3 C 39.32868194580078 3 33.82863998413086 4.110054016113281 28.65261077880859 6.299339294433594 C 23.65164184570312 8.414566040039062 19.15968322753906 11.44334411621094 15.301513671875 15.30152893066406 C 11.44332885742188 19.15969848632812 8.414566040039062 23.65167236328125 6.299324035644531 28.65264129638672 C 4.110054016113281 33.82868194580078 3 39.32873916625977 3 45.00002670288086 C 3 50.67131423950195 4.110054016113281 56.17137145996094 6.299324035644531 61.347412109375 C 8.414566040039062 66.34838104248047 11.44332885742188 70.84035491943359 15.301513671875 74.69852447509766 C 19.15968322753906 78.55670928955078 23.65164184570312 81.58547973632812 28.65261077880859 83.70071411132812 C 33.82863998413086 85.88999938964844 39.32868194580078 87.00005340576172 44.99996948242188 87.00005340576172 C 50.67125701904297 87.00005340576172 56.17129898071289 85.88999938964844 61.34732818603516 83.70071411132812 C 66.34829711914062 81.58547973632812 70.84025573730469 78.55670928955078 74.69842529296875 74.69852447509766 C 78.55661010742188 70.84035491943359 81.58537292480469 66.34838104248047 83.70061492919922 61.347412109375 C 85.88988494873047 56.17137145996094 86.99993896484375 50.67131423950195 86.99993896484375 45.00002670288086 C 86.99993896484375 39.32873916625977 85.88988494873047 33.82868194580078 83.70061492919922 28.65264129638672 C 81.58537292480469 23.65167236328125 78.55661010742188 19.15969848632812 74.69842529296875 15.30152893066406 C 70.84025573730469 11.44334411621094 66.34829711914062 8.414566040039062 61.34732818603516 6.299339294433594 C 56.17129898071289 4.110054016113281 50.67125701904297 3 44.99996948242188 3 M 44.99996948242188 0 C 69.85276794433594 0 89.99993896484375 20.14720153808594 89.99993896484375 45.00002670288086 C 89.99993896484375 69.85285949707031 69.85276794433594 90.00005340576172 44.99996948242188 90.00005340576172 C 20.14717102050781 90.00005340576172 0 69.85285949707031 0 45.00002670288086 C 0 20.14720153808594 20.14717102050781 0 44.99996948242188 0 Z" stroke="none" fill="#248abf"/>
                        </g>
                      </g>
                    </g>
                  </g>
                </g>
              </g>
            </g>
          </g>
        </g>
      </g>
    </g>
    <g id="ley_7_" data-name="ley (7)" transform="translate(620.001 5629.794)">
      <g id="Grupo_1219819" data-name="Grupo 1219819" transform="translate(18.251 63.246)">
        <g id="Grupo_1219814" data-name="Grupo 1219814" transform="translate(0 4.474)">
          <path id="Trazado_1168098" data-name="Trazado 1168098" d="M163.144,359.966a14.244,14.244,0,0,0,3.42,9.381H115.018a1.631,1.631,0,0,1-1.331-.681,16.605,16.605,0,0,1,0-17.4,1.631,1.631,0,0,1,1.331-.681h51.545A14.246,14.246,0,0,0,163.144,359.966Z" transform="translate(-111.226 -350.585)" fill="#fb3a82"/>
          <path id="Trazado_1168099" data-name="Trazado 1168099" d="M126.955,350.587,112.42,366.332a16.471,16.471,0,0,1-1.19-6.363,14.887,14.887,0,0,1,2.461-8.7,1.629,1.629,0,0,1,1.331-.681Z" transform="translate(-111.229 -350.587)" fill="#fb1466"/>
          <path id="Trazado_1168100" data-name="Trazado 1168100" d="M197.709,359.966a14.244,14.244,0,0,0,3.42,9.381H148.8s-3.008-3.046-3.008-9.381,3.008-9.381,3.008-9.381h52.329A14.246,14.246,0,0,0,197.709,359.966Z" transform="translate(-140.119 -350.585)" fill="#e0d3ce"/>
          <g id="Grupo_1219813" data-name="Grupo 1219813" transform="translate(5.672 0)">
            <path id="Trazado_1168101" data-name="Trazado 1168101" d="M155.844,350.587l-10,10.832c-.034-.463-.054-.947-.054-1.451,0-6.336,3.008-9.381,3.008-9.381Z" transform="translate(-145.79 -350.587)" fill="#cdbfbb"/>
            <path id="Trazado_1168102" data-name="Trazado 1168102" d="M430.6,359.972a14.242,14.242,0,0,0,3.42,9.38h-6.2a14.575,14.575,0,0,1,0-18.76h6.2A14.239,14.239,0,0,0,430.6,359.972Z" transform="translate(-378.681 -350.591)" fill="#cdbfbb"/>
          </g>
        </g>
        <g id="Grupo_1219818" data-name="Grupo 1219818" transform="translate(7.061 0)">
          <g id="Grupo_1219816" data-name="Grupo 1219816" transform="translate(0)">
            <path id="Trazado_1168103" data-name="Trazado 1168103" d="M211.73,326.041a2.723,2.723,0,0,1-2.722,2.722H156.982a2.723,2.723,0,0,1,0-5.446h52.026A2.723,2.723,0,0,1,211.73,326.041Z" transform="translate(-154.26 -323.317)" fill="#fb3a82"/>
            <g id="Grupo_1219815" data-name="Grupo 1219815">
              <path id="Trazado_1168104" data-name="Trazado 1168104" d="M167.054,323.317l-5.026,5.446h-5.046a2.723,2.723,0,0,1,0-5.446Z" transform="translate(-154.26 -323.317)" fill="#fb1466"/>
              <path id="Trazado_1168105" data-name="Trazado 1168105" d="M463.719,326.043a2.726,2.726,0,0,1-2.724,2.724h-5.281a2.723,2.723,0,0,0,0-5.447h5.281A2.724,2.724,0,0,1,463.719,326.043Z" transform="translate(-406.247 -323.32)" fill="#fb1466"/>
            </g>
          </g>
          <g id="Grupo_1219817" data-name="Grupo 1219817" transform="translate(0 22.264)">
            <path id="Trazado_1168106" data-name="Trazado 1168106" d="M209.005,464.442H156.98a2.723,2.723,0,1,1,0-5.446h52.025a2.723,2.723,0,1,1,0,5.446Z" transform="translate(-154.257 -458.996)" fill="#fb3a82"/>
            <path id="Trazado_1168107" data-name="Trazado 1168107" d="M463.719,461.722a2.722,2.722,0,0,1-2.724,2.722h-5.281a2.722,2.722,0,1,0,0-5.444h5.281A2.724,2.724,0,0,1,463.719,461.722Z" transform="translate(-406.246 -458.999)" fill="#fb1466"/>
          </g>
        </g>
      </g>
      <g id="Grupo_1219827" data-name="Grupo 1219827" transform="translate(-0.001 12.193)">
        <g id="Grupo_1219822" data-name="Grupo 1219822" transform="translate(1.231 32.521)">
          <g id="Grupo_1219820" data-name="Grupo 1219820" transform="translate(0 10.416)">
            <path id="Trazado_1168108" data-name="Trazado 1168108" d="M43.345,278.253l-4.4-4.4L9.025,301.482a4.739,4.739,0,1,0,6.7,6.7Z" transform="translate(-7.5 -273.857)" fill="#873f30"/>
            <path id="Trazado_1168109" data-name="Trazado 1168109" d="M16.773,315.2a4.74,4.74,0,0,1-6.7,0,4.692,4.692,0,0,1-1.156-1.888,4.731,4.731,0,0,0,4.809-1.151c.045-.045.091-.094.135-.14L41.487,282.1l3.044,3.044L16.906,315.065C16.862,315.112,16.817,315.159,16.773,315.2Z" transform="translate(-8.685 -280.744)" fill="#6c3328"/>
          </g>
          <path id="Trazado_1168110" data-name="Trazado 1168110" d="M200.758,210.382l-10.122,12.075,4.135,4.135,12.074-10.122Z" transform="translate(-160.585 -210.382)" fill="#873f30"/>
          <path id="Trazado_1168111" data-name="Trazado 1168111" d="M209.056,210.382l-3.271,3.9.981.981a1.85,1.85,0,0,1,0,2.616l-6.2,6.2,2.506,2.506,12.074-10.122Z" transform="translate(-168.882 -210.382)" fill="#6c3328"/>
          <g id="Grupo_1219821" data-name="Grupo 1219821" transform="translate(26.701 9.602)">
            <path id="Trazado_1168112" data-name="Trazado 1168112" d="M175.106,277.986l-4.014-4.014a2.972,2.972,0,0,1,4.2-4.2l4.014,4.014a2.972,2.972,0,0,1-4.2,4.2Z" transform="translate(-170.222 -268.899)" fill="#ba5d4f"/>
            <path id="Trazado_1168113" data-name="Trazado 1168113" d="M188.686,287.368a2.971,2.971,0,0,1-4.2,0l-3.042-3.042a2.972,2.972,0,0,0,4.2-4.2l3.042,3.042A2.97,2.97,0,0,1,188.686,287.368Z" transform="translate(-179.6 -278.281)" fill="#a34f41"/>
          </g>
        </g>
        <g id="Grupo_1219823" data-name="Grupo 1219823" transform="translate(32.657 4.924)">
          <path id="Trazado_1168114" data-name="Trazado 1168114" d="M0,0H12.606V19.792H0Z" transform="translate(13.993 0) rotate(45)" fill="#ba5d4f"/>
          <path id="Trazado_1168115" data-name="Trazado 1168115" d="M0,0H12.606V19.792H0Z" transform="translate(28.436 42.44) rotate(-135)" fill="#a34f41"/>
        </g>
        <g id="Grupo_1219826" data-name="Grupo 1219826" transform="translate(0 0)">
          <path id="Trazado_1168116" data-name="Trazado 1168116" d="M177.67,40.451l-.31-.31a3.006,3.006,0,0,1,0-4.251l15.316-15.316a3.006,3.006,0,0,1,4.251,0l.31.31a3.006,3.006,0,0,1,0,4.251L181.921,40.451A3.006,3.006,0,0,1,177.67,40.451Z" transform="translate(-147.521 -18.463)" fill="#873f30"/>
          <path id="Trazado_1168117" data-name="Trazado 1168117" d="M349.124,211.9l.31.31a3.006,3.006,0,0,0,4.251,0L369,196.9a3.006,3.006,0,0,0,0-4.251l-.31-.31a3.006,3.006,0,0,0-4.251,0l-15.316,15.316A3.006,3.006,0,0,0,349.124,211.9Z" transform="translate(-291.099 -162.041)" fill="#6c3328"/>
          <g id="Grupo_1219825" data-name="Grupo 1219825">
            <path id="Trazado_1168118" data-name="Trazado 1168118" d="M0,0H14.157V29.891H0Z" transform="translate(59.43 10.563) rotate(45)" fill="#fcc16d"/>
            <path id="Trazado_1168119" data-name="Trazado 1168119" d="M0,0H29.891V7.165H0Z" transform="translate(43.234 36.65) rotate(-45)" fill="#fca62f"/>
            <path id="Trazado_1168120" data-name="Trazado 1168120" d="M246.431,68.036l-2.452-1a2.255,2.255,0,0,0-2.448.493L224.313,84.745a2.255,2.255,0,0,0-.493,2.448l1,2.452a1.5,1.5,0,0,0,2.454.494L246.925,70.49a1.5,1.5,0,0,0-.494-2.454Z" transform="translate(-186.952 -57.894)" fill="#873f30"/>
            <path id="Trazado_1168121" data-name="Trazado 1168121" d="M310.964,132.57l1,2.452a2.255,2.255,0,0,1-.493,2.448l-17.219,17.219a2.255,2.255,0,0,1-2.448.493l-2.452-1a1.5,1.5,0,0,1-.494-2.454l19.649-19.649A1.5,1.5,0,0,1,310.964,132.57Z" transform="translate(-241.093 -112.036)" fill="#6c3328"/>
            <g id="Grupo_1219824" data-name="Grupo 1219824">
              <path id="Trazado_1168122" data-name="Trazado 1168122" d="M80.06,84.279h-.915a12.728,12.728,0,0,1-1.06-2.021,1.231,1.231,0,1,0-2.274.942c.152.368.322.726.5,1.079H28.035a3.938,3.938,0,0,0-1.073.149A14.306,14.306,0,0,1,25.153,77.1c0-.537.024-1.066.07-1.584H48.8a1.231,1.231,0,1,0,0-2.461H26.26l2.892-3.133H76.305a15.363,15.363,0,0,0-1.185,3.133H58.944a1.231,1.231,0,1,0,0,2.461H74.69c-.048.5-.076,1.005-.078,1.514a1.231,1.231,0,0,0,1.226,1.236h.005a1.231,1.231,0,0,0,1.231-1.225,13.169,13.169,0,0,1,2.07-7.119h.918a3.954,3.954,0,0,0,0-7.907H64.676l14.1-14.1a4.237,4.237,0,0,0,0-5.992l-.31-.31a4.235,4.235,0,0,0-5.774-.2l-2.178-2.178.742-.742a3.477,3.477,0,0,0,.762-3.784l-1-2.452a2.728,2.728,0,0,0-1.98-1.643l-1.712-1.712a1.231,1.231,0,0,0-1.741,1.74l.842.842-19.4,19.4-5.7-5.7,19.4-19.4.755.755a1.231,1.231,0,1,0,1.74-1.74l-1.625-1.625a2.728,2.728,0,0,0-1.643-1.98h0l-2.452-1a3.478,3.478,0,0,0-3.784.762l-.742.742-2.179-2.178a4.235,4.235,0,0,0-.2-5.774l-.31-.31a4.237,4.237,0,0,0-5.992,0L28.969,28.75a4.237,4.237,0,0,0,0,5.992l.309.31a4.235,4.235,0,0,0,5.774.2l2.179,2.179-.742.742a3.478,3.478,0,0,0-.762,3.783l1,2.452a2.727,2.727,0,0,0,1.952,1.636l-6.171,7.361a4.2,4.2,0,0,0-5.554,5.331l-2.8,2.583a1.231,1.231,0,0,0,1.67,1.809l2.586-2.387,3.049,3.049L8.546,88.616a3.508,3.508,0,1,1-4.957-4.957L21.565,67.064a1.231,1.231,0,1,0-1.67-1.808L1.92,81.85A5.969,5.969,0,0,0,5.964,92.206h.123a5.918,5.918,0,0,0,4.267-1.919l7.376-7.99a14.184,14.184,0,0,0,1.979,4.219,2.866,2.866,0,0,0,2.334,1.2h2.073a3.947,3.947,0,0,0,3.918,4.474H80.06a3.954,3.954,0,0,0,0-7.907ZM81.552,65.97a1.494,1.494,0,0,1-1.492,1.492H31.424l2.046-2.216a4.206,4.206,0,0,0,4.2-.768H80.06a1.494,1.494,0,0,1,1.492,1.492Zm-37.128-14.2L37.3,57.741l-2.833-2.833,5.974-7.126Zm-5.369,10.25a4.226,4.226,0,0,0-.257-2.322l7.361-6.171A2.728,2.728,0,0,0,47.8,55.475l2.452,1a3.478,3.478,0,0,0,3.783-.762l.742-.742,2.179,2.179a4.245,4.245,0,0,0-.49,4.863H39.056ZM75.466,42.84a1.764,1.764,0,0,1,1.255.52l.31.31a1.775,1.775,0,0,1,0,2.511L61.715,61.5a1.775,1.775,0,0,1-2.511,0l-.31-.31a1.777,1.777,0,0,1,0-2.511L74.21,43.36A1.763,1.763,0,0,1,75.466,42.84Zm-4.527.31L58.685,55.4l-2.17-2.17L68.768,40.979Zm-22.3,9.6L68.287,33.1a.259.259,0,0,1,.188-.08.3.3,0,0,1,.058.006.262.262,0,0,1,.2.164l1,2.452a1.021,1.021,0,0,1-.224,1.111L52.291,53.976a1.022,1.022,0,0,1-1.111.224l-2.452-1a.272.272,0,0,1-.09-.445ZM32.275,33.831a1.763,1.763,0,0,1-1.255-.52L30.71,33a1.775,1.775,0,0,1,0-2.511L46.025,15.175a1.775,1.775,0,0,1,2.511,0l.31.31a1.775,1.775,0,0,1,0,2.511L33.53,33.311a1.765,1.765,0,0,1-1.255.52Zm4.527-.31L49.056,21.267l2.17,2.17L38.972,35.691Zm1.429,6.393L55.449,22.695a1.021,1.021,0,0,1,1.112-.224l2.452,1a.272.272,0,0,1,.089.445L39.453,43.567a.272.272,0,0,1-.445-.09l-1-2.452a1.022,1.022,0,0,1,.224-1.111ZM29.162,57.288a1.741,1.741,0,0,1,2.972-1.231l4.014,4.014a1.741,1.741,0,0,1-2.462,2.462l-4.014-4.014a1.73,1.73,0,0,1-.51-1.231Zm-7.447,27.8a12.416,12.416,0,0,1-1.971-4.973l2.95-3.2c0,.061,0,.122,0,.183a17.076,17.076,0,0,0,1.909,8.15H22.043A.4.4,0,0,1,21.715,85.088ZM80.06,89.725H28.035a1.492,1.492,0,0,1,0-2.985H80.06a1.492,1.492,0,0,1,0,2.985Z" transform="translate(0.001 -12.193)"/>
              <path id="Trazado_1168123" data-name="Trazado 1168123" d="M203.558,417.166a1.231,1.231,0,0,0,0,2.461h28.671a1.231,1.231,0,0,0,0-2.461Z" transform="translate(-169.127 -350.713)"/>
            </g>
          </g>
        </g>
      </g>
    </g>
  </g>
</svg>
