<svg xmlns="http://www.w3.org/2000/svg" width="188.439" height="163.392" viewBox="0 0 188.439 163.392">
  <g id="Grupo_1216412" data-name="Grupo 1216412" transform="translate(-180 -258.608)">
    <rect id="Rectángulo_417865" data-name="Rectángulo 417865" width="168" height="155" rx="37" transform="translate(190.641 267)" fill="#248abf"/>
    <g id="Grupo_1216411" data-name="Grupo 1216411" transform="translate(689.501 1132.632)">
      <g id="Grupo_1216410" data-name="Grupo 1216410" transform="translate(-509.501 -874.023)">
        <path id="Trazado_1162840" data-name="Trazado 1162840" d="M117.739,290.911c.917,10.332,1.36,21.247,6.339,30.583,4.44,7.943,12.6,12.264,20.738,15.587,29.581,12.117,68,12.2,97.565-.035,6.672-2.973,13.624-7.084,16.869-13.922q10.5,10.229,21.136,20.316c2.888,2.495,5.3,5.88,9.028,7.142,5.257,1.641,10.573-2.1,13.041-6.552,3.454-6.177,1.264-11.319-4.071-15.281q-11.773-10.435-23.662-20.74c-3.8-3.3-7.633-6.568-11.451-9.85,2.924-12.09-3.257-24.418-12.635-31.939,10.27-7.348,15.471-16.023,13.351-28.854-2.281-16.543-10.187-33.839-24.937-42.692-9.548-5.373-20.323-.484-29.351,3.781a11.867,11.867,0,0,0-5.091,3.251,18.922,18.922,0,0,0-3.117,6.05c-.158-.021-.315-.049-.474-.066-13.8-.387-26.2,7.861-38.155,13.767a11.54,11.54,0,0,0-6.277,4.556,21.851,21.851,0,0,0-9.964-.984c-6.387.795-12.389,3.463-18.207,6.1-17.783,7.714-13.436,31.493-7.814,46.086a32.658,32.658,0,0,0-2.862,13.7Z" transform="translate(-115.682 -192.309)" fill="#68182b"/>
        <path id="Trazado_1162841" data-name="Trazado 1162841" d="M158.665,437.169c16.712-10.3,35.969,27.376,40.239,39.939,3.361,9.121,7.707,26.441-4.306,30.827-10.243,2.165-18.585-6.768-23.95-14.354C162.122,481.746,145.327,449.294,158.665,437.169Z" transform="translate(-146.298 -388.104)" fill="#aa8053"/>
        <path id="Trazado_1162842" data-name="Trazado 1162842" d="M184.385,446.743c-5.731-16.96-17.314-39.418-34.262-47.121-12.811-4.936-22.094,5.146-22.586,17.489-.63,17.947,8.064,36.386,18.2,50.805,3.555,4.8,7.756,9.66,12.914,12.79,10.868,6.614,24.57,4.185,27.867-9.311C188.652,463.247,186.88,454.593,184.385,446.743Zm-3.3,26.133c-4.364,10.276-17.492,7.457-24.175,1.189a63.358,63.358,0,0,1-11.469-14.015c-7.484-12.551-16.115-30.113-13.629-45,2.183-11.466,12.626-13.866,21.413-7.3,7.464,5.535,12.955,13.422,17.6,21.362,6.6,12.082,15.559,30.013,10.263,43.763Z" transform="translate(-125.204 -358.251)" fill="#db9f6e"/>
        <path id="Trazado_1162843" data-name="Trazado 1162843" d="M139.472,644.745c.064-.183.14-.361.207-.543a104.826,104.826,0,0,0,9.111,17.911c7.707,12.7,22.562,27.851,38.7,20.509a136.778,136.778,0,0,0,32.644,1.639c14.165-1.2,29.638-3.524,40.764-13.086q3.63,3.555,7.264,7.107c-7.966,6.449-18.271,9.709-28.154,11.795-28.743,5.719-80.425,4.869-98.116-22.358A26.842,26.842,0,0,1,139.472,644.745Z" transform="translate(-133.606 -556.271)" fill="#fbf199"/>
        <path id="Trazado_1162844" data-name="Trazado 1162844" d="M430.546,668.851c5.161-3.454,10.429-6.754,15.54-10.284a9.009,9.009,0,0,0,3.121.2c2.636,2.412,5.168,4.907,7.74,7.382q8.06,7.8,16.063,15.656c-6.367,5.777-15.029,8.57-23.278,10.374a130.634,130.634,0,0,1-47.251.963c6.593-4.614,13.856-9.749,17.714-17.024a22.1,22.1,0,0,0,1.717-4.306C425.146,672.11,427.917,670.514,430.546,668.851Z" transform="translate(-346.674 -567.841)" fill="#fac135"/>
        <path id="Trazado_1162845" data-name="Trazado 1162845" d="M392.444,412.177c13.179.515,23.793,25,23.963,36.577.069,3.007-.347,6.327-2.264,8.708-.038-.24-.075-.481-.114-.721C411.187,440.291,403.962,424.4,392.444,412.177Z" transform="translate(-338.591 -369.394)" fill="#aa8053"/>
        <path id="Trazado_1162846" data-name="Trazado 1162846" d="M690.295,627.01l2.133,1.8a12.983,12.983,0,0,0-9.037,10.759q-1.117-1.086-2.239-2.168c-.2-2.448,1.3-5.006,2.825-6.764S687.826,627.053,690.295,627.01Z" transform="translate(-571.107 -542.424)" fill="#aa8053"/>
        <path id="Trazado_1162847" data-name="Trazado 1162847" d="M723.416,606.018a18.834,18.834,0,0,0,5.176-.451c4.294,3.331,7.893,7.669,9.471,12.862Q730.75,612.21,723.416,606.018Z" transform="translate(-605.161 -525.154)" fill="#fac135"/>
        <path id="Trazado_1162848" data-name="Trazado 1162848" d="M639.78,588.148c-8.548,7.713-.239,12.066-12.166.918-4.253-4.2-2-12.153,4.494-11.648a8.088,8.088,0,0,1,4.181,1.905c2.6,2.188,5.2,4.391,7.8,6.583A10.428,10.428,0,0,0,639.78,588.148Z" transform="translate(-526.251 -502.463)" fill="#db9f6e"/>
        <path id="Trazado_1162849" data-name="Trazado 1162849" d="M609.163,557.3c-6.416,2.069-7.417,10.633-2.862,15.089.43.4.474.511-.145.306-10.563-3.171-3.3-20.3,6.136-17.707a7.212,7.212,0,0,1,4.079,3.268A8.662,8.662,0,0,0,609.163,557.3Z" transform="translate(-506.522 -484.201)" fill="#aa8053"/>
        <path id="Trazado_1162850" data-name="Trazado 1162850" d="M266.755,793.087c-28.344,13.067-65.055,13.179-94.314,2.931-8.129-3-17.223-6.635-22.41-13.99-3.939-5.586-5.464-12.517-6.318-19.366,11.419,20.108,36.915,25.257,58.188,27.307,23.306,1.579,48.837.321,69.213-12.23,1.144-.768,2.238-1.607,3.3-2.48q2.86,2.8,5.723,5.6C277.53,786.631,272.274,790.28,266.755,793.087Z" transform="translate(-138.259 -651.68)" fill="#db9f6e"/>
        <path id="Trazado_1162851" data-name="Trazado 1162851" d="M1007.529,916.015a11.472,11.472,0,0,1-7.766,10.756c-2.639.806-6.013-.069-7.5-2.423-1.928-5.6,2.762-12.083,8.13-13.641C1004.174,909.488,1007.338,912.064,1007.529,916.015Z" transform="translate(-821.337 -770.674)" fill="#aa8053"/>
        <path id="Trazado_1162852" data-name="Trazado 1162852" d="M927.282,838.91q4.966,4.357,9.91,8.741c-5.812.27-11.071,5.86-12.13,11.46-.39,1.365.295,3.221-1.241,1.4q-6.149-5.782-12.211-11.655c-.692-3.272,1.3-6.808,3.371-9.185,1.961-2.254,4.914-4.532,8.062-4.465Q925.161,837.06,927.282,838.91Z" transform="translate(-756.623 -710.11)" fill="#db9f6e"/>
        <path id="Trazado_1162853" data-name="Trazado 1162853" d="M900.955,816.835q1.355,1.181,2.707,2.364a12.172,12.172,0,0,0-5.673,2.79c-3.109,2.639-5.7,6.494-5.83,10.674q-1.508-1.454-3.014-2.909c-.288-3.061,1.563-6.257,3.479-8.46C894.64,818.975,897.707,816.626,900.955,816.835Z" transform="translate(-738.618 -695.302)" fill="#aa8053"/>
        <path id="Trazado_1162854" data-name="Trazado 1162854" d="M746.957,674.829c-5.986,1.1-10.931,6.922-11.7,12.882-11.867-11.511-23.626-23.143-35.507-34.646-.664-4.82,4.192-10.522,8.956-11.007Q727.939,658.317,746.957,674.829Z" transform="translate(-586.049 -554.544)" fill="#a2603f"/>
        <path id="Trazado_1162855" data-name="Trazado 1162855" d="M777.313,593.578a26.865,26.865,0,0,1,1.48,14.466q-5.489-4.712-10.988-9.413c-1.2-5.982-4.993-10.967-9.648-14.793,3.052-.921,5.5-2.879,8.09-4.706A36.114,36.114,0,0,1,777.313,593.578Z" transform="translate(-633.141 -503.863)" fill="#fbf199"/>
        <path id="Trazado_1162856" data-name="Trazado 1162856" d="M656.713,204.858c14.428,7.539,22.211,24.007,24.962,39.445,2.4,11.9-.572,20.411-10.4,27.8,2.537-5.229,2.849-11.437,2.049-17.158-2.52-17.325-16.828-45.677-35.88-48.392C643.465,204.17,650.485,201.986,656.713,204.858Z" transform="translate(-535.919 -201.315)" fill="#a2603f"/>
        <path id="Trazado_1162857" data-name="Trazado 1162857" d="M570.422,234.01c4.652-5.05,12.878-4.462,18.381-1.117,13.756,8.834,21.794,24.816,25.721,40.277,3.852,14.106-2.137,31.6-19.549,27.821l-.884-.743a21.4,21.4,0,0,0,2.037-5.57c8.935-4.962,10.163-16.453,7.773-25.492-2.381-9.962-8.31-20.289-17.077-25.924-4.235-2.722-9.347-4.057-14.277-2.6a21.539,21.539,0,0,0-4.513-1.857A16.225,16.225,0,0,1,570.422,234.01Z" transform="translate(-480.014 -222.908)" fill="#db9f6e"/>
        <path id="Trazado_1162858" data-name="Trazado 1162858" d="M625.7,328.721c-2.59-13.835-9.25-27.806-20.7-36.418,13.374-.833,22.4,14.037,25.95,25.276,2.392,7.9,2.8,18.539-4.554,23.94A47.633,47.633,0,0,0,625.7,328.721Z" transform="translate(-509.792 -272.818)" fill="#aa8053"/>
        <path id="Trazado_1162859" data-name="Trazado 1162859" d="M427.286,284.588c16.455,8.5,28.82,38.571,22.133,56-1.2-6.027-8.879-8.9-13.893-5.5-5.18,3.308-8.869,11.343-5.1,16.9a10.188,10.188,0,0,0,3.288,3.095c-2.917,1.983-5.87,3.911-8.825,5.837,3.729-7.229,2.291-15.954-.016-23.384-4.613-14.583-18.047-41.389-34.655-43.769,10.395-4.91,25.635-14.527,37.071-9.18Z" transform="translate(-336.796 -265.367)" fill="#a2603f"/>
        <path id="Trazado_1162860" data-name="Trazado 1162860" d="M340.682,351.09c11.823-5.935,21.891,7.359,27.853,15.965,7.77,12.137,20.934,36.778,9.864,49.741-1.977,2.116-5.087,4.026-8.112,3.985.821-3.563.326-7.5.3-11.023,11.049-10.739-2.914-39.082-13.271-46.816-3.084-2.393-6.985-4.153-10.926-3.093a45.923,45.923,0,0,0-5.653-4.488C336.91,353.085,336.579,353.7,340.682,351.09Z" transform="translate(-294.527 -319.004)" fill="#db9f6e"/>
        <path id="Trazado_1162861" data-name="Trazado 1162861" d="M242.741,373.41c16.118,10.275,25.212,29.161,29.318,47.314,2.532,10.687,2.414,21.731-6.376,29.569-1.368,1.361-2.814,2.64-4.308,3.863,3.15-6.638,2.958-14.516,1.6-21.58-2-10.415-6.366-20.58-11.623-29.746-7.3-11.986-16.761-26.348-31.7-28.633,7.535-3.025,15.815-5.015,23.089-.787Z" transform="translate(-199.421 -336.22)" fill="#a2603f"/>
        <g id="Grupo_1216409" data-name="Grupo 1216409" transform="translate(7.413 22.594)">
          <path id="Trazado_1162862" data-name="Trazado 1162862" d="M623.879,308.426c9.212,8.652,14.726,21.028,17.024,33.308a47.634,47.634,0,0,1,.7,12.8,13.623,13.623,0,0,0,3.507-3.8,32.309,32.309,0,0,0,.054-3.231c-.195-6.148-2.247-12.3-4.482-17.969C637.489,321.436,631.809,312.646,623.879,308.426Z" transform="translate(-532.405 -308.426)" fill="#865725"/>
          <path id="Trazado_1162863" data-name="Trazado 1162863" d="M416.395,440.23a88.213,88.213,0,0,1,16.925,39.1c.04.24.076.481.114.721a10.181,10.181,0,0,0,1.95-4.528,46.144,46.144,0,0,0-3.669-13.479,73.338,73.338,0,0,0-9.056-15.952A32,32,0,0,0,416.395,440.23Z" transform="translate(-365.294 -414.583)" fill="#865725"/>
          <path id="Trazado_1162864" data-name="Trazado 1162864" d="M194.666,516.963c12.014-4.386,7.667-21.706,4.306-30.827-.27-.793-.6-1.686-.984-2.661a50,50,0,0,1,1.2,11.485c-.067,4.162-.754,8.667-3.177,12.153-3.207,4.612-9.084,3.767-13.528,1.64-4.9-2.347-8.4-6.928-11.229-11.406-2.739-4.335-5.115-8.97-7.481-13.518-5.848-11.24-9.147-24.777-5.448-37.211-12.542,12.428,3.96,44.287,12.392,55.992C176.081,510.2,184.423,519.128,194.666,516.963Z" transform="translate(-153.779 -419.727)" fill="#865725"/>
          <path id="Trazado_1162865" data-name="Trazado 1162865" d="M889.147,861.631q1.5,1.457,3.014,2.909a11.711,11.711,0,0,1,.783-3.792,6.893,6.893,0,0,1-2.422-3.791c-.052-.184-.076-.371-.116-.557A9.529,9.529,0,0,0,889.147,861.631Z" transform="translate(-746.033 -749.774)" fill="#865725"/>
          <path id="Trazado_1162866" data-name="Trazado 1162866" d="M992.256,934.325c1.49,2.354,4.863,3.229,7.5,2.423a11.627,11.627,0,0,0,7.557-8.49,10.112,10.112,0,0,1-1.483,2.259,10.336,10.336,0,0,1-6.665,3.434c-6.036.543-4.8-6.458-2.71-11.162C993.037,925.547,990.828,930.178,992.256,934.325Z" transform="translate(-828.747 -803.244)" fill="#865725"/>
          <path id="Trazado_1162867" data-name="Trazado 1162867" d="M606.175,607.591c.619.205.575.1.145-.306a9.345,9.345,0,0,1-2.5-4.468,13.884,13.884,0,0,1-1.667-2.416,8.124,8.124,0,0,1-.862-2.352c-.974,3.967.192,8.133,4.888,9.543Z" transform="translate(-513.954 -541.692)" fill="#865725"/>
          <path id="Trazado_1162868" data-name="Trazado 1162868" d="M681.153,659.925q1.125,1.078,2.239,2.168a11.086,11.086,0,0,1,.443-2.148c-.288-.677-.52-1.35-.7-1.927a10.158,10.158,0,0,1-.489-3.044A8.39,8.39,0,0,0,681.153,659.925Z" transform="translate(-578.521 -587.542)" fill="#865725"/>
        </g>
        <path id="Trazado_1162869" data-name="Trazado 1162869" d="M1025.767,923.7c-1.374-2.7-4.775-2.349-6.516-.41-2.364,2.631-4.029,7.2-1.347,8.266,3.044,1.2,6.5-1.461,7.862-4.047a4.5,4.5,0,0,0,0-3.809Z" transform="translate(-841.239 -779.818)" fill="#d4ba89"/>
        <path id="Trazado_1162870" data-name="Trazado 1162870" d="M231.759,502.93c-3.765-9.693-9.25-19.712-16.7-27.244-5.137-5.2-12.286-6.646-10.851,4.053a58.557,58.557,0,0,0,1.441,6.962,115.823,115.823,0,0,0,6.023,17.406c2.048,4.645,4.989,10.19,9.039,14.166,8.537,8.378,16.475,6.7,13.274-8.251A47.035,47.035,0,0,0,231.759,502.93Z" transform="translate(-186.833 -417.345)" fill="#d4ba89"/>
        <path id="Trazado_1162871" data-name="Trazado 1162871" d="M456.012,393.466c2.307,7.43,3.745,16.155.016,23.384,2.955-1.926,5.909-3.855,8.825-5.837a10.187,10.187,0,0,1-3.288-3.095c-3.766-5.558-.077-13.592,5.1-16.9,5.013-3.407,12.69-.53,13.893,5.5a28.812,28.812,0,0,0,1.723-8.059c-.141-.221-.284-.441-.449-.651-.04-.051-.076-.1-.118-.155-.1-.131-.219-.251-.329-.376a8.323,8.323,0,0,0-7.748-2.681c-4.257.636-8.235,3.5-12.671,2.648-3.912-.755-6.243-5.038-7.908-8.25-3.5-6.745-6.952-13.13-12.344-18.609a33.332,33.332,0,0,0-11.837-7.925C441.944,360.148,452.119,381.159,456.012,393.466Z" transform="translate(-367.938 -321.295)" fill="#81391c"/>
        <path id="Trazado_1162872" data-name="Trazado 1162872" d="M263.084,401.73c10.24,5.255,17.431,16.309,23.251,25.86,5.257,9.166,9.624,19.33,11.623,29.746,1.356,7.065,1.547,14.943-1.6,21.58,1.2-.979,2.349-2.008,3.468-3.072a26.855,26.855,0,0,0,1.575-5c1.471-6.933.282-14.28-1.536-21.024a105.122,105.122,0,0,0-10.185-23.878c-3.888-6.919-8.345-13.269-14.689-18.152A36.065,36.065,0,0,0,263.084,401.73Z" transform="translate(-234.402 -360.98)" fill="#81391c"/>
        <path id="Trazado_1162873" data-name="Trazado 1162873" d="M671.1,229.474c15.721,7.29,27.109,31.127,29.331,46.4.8,5.721.488,11.929-2.049,17.158a37.089,37.089,0,0,0,4.169-3.64c2.738-10.478.027-22.26-4.087-31.954C693.247,245.143,684.178,232.923,671.1,229.474Z" transform="translate(-563.025 -222.242)" fill="#81391c"/>
        <path id="Trazado_1162874" data-name="Trazado 1162874" d="M709.678,667.7c-2.277-2.479-4.585-5.086-5.773-8.279a8.5,8.5,0,0,1-.406-4.395c-2.47,2.213-4.16,5.514-3.75,8.483,11.881,11.5,23.64,23.135,35.507,34.646a14.786,14.786,0,0,1,1.611-4.944c-5.426-4.222-10.276-9.136-15.33-13.924C717.523,675.487,713.422,671.777,709.678,667.7Z" transform="translate(-586.051 -564.991)" fill="#81391c"/>
        <path id="Trazado_1162875" data-name="Trazado 1162875" d="M393.5,294.568a70.812,70.812,0,0,1,14.378-6.162,36.421,36.421,0,0,1,9.082-2,18.639,18.639,0,0,1,9.284,2.261c5.261,2.663,9.806,7.269,13.67,11.645a60.183,60.183,0,0,1,8.53,12.809c-4.026-12.265-11.948-23.772-21.153-28.529-11.436-5.347-26.676,4.27-37.071,9.18a18.343,18.343,0,0,1,3.28.8Z" transform="translate(-336.796 -265.367)" fill="#f5995a"/>
        <path id="Trazado_1162876" data-name="Trazado 1162876" d="M786.067,676.1q7.171,7.374,14.427,14.665,6.3,6.352,12.638,12.658a12.419,12.419,0,0,1,3.4-1.177Q801.393,689.067,786.067,676.1Z" transform="translate(-655.621 -581.965)" fill="#f5995a"/>
        <path id="Trazado_1162877" data-name="Trazado 1162877" d="M222.556,374.811a28.569,28.569,0,0,1,9.846-2.484c4.215-.194,8.1,1.533,11.438,3.961a48.758,48.758,0,0,1,8.575,8.639c2.623,3.173,5.28,6.379,7.7,9.708,5.58,7.676,9.136,16.327,11.759,25.321-4.187-17.916-13.239-36.415-29.13-46.545-7.274-4.227-15.555-2.238-23.089.787A26.808,26.808,0,0,1,222.556,374.811Z" transform="translate(-199.422 -336.22)" fill="#f5995a"/>
        <path id="Trazado_1162878" data-name="Trazado 1162878" d="M656.813,207.667c6.082,3.105,10.766,8.681,14.488,14.265a73.157,73.157,0,0,1,11.146,30.333,35.913,35.913,0,0,0-.772-7.961c-2.751-15.437-10.534-31.906-24.962-39.445-6.228-2.871-13.248-.687-19.268,1.7a21.845,21.845,0,0,1,2.231.453A19.763,19.763,0,0,1,656.813,207.667Z" transform="translate(-535.92 -201.316)" fill="#f5995a"/>
        <path id="Trazado_1162879" data-name="Trazado 1162879" d="M370.455,390.073c.781.639,1.548,1.3,2.29,1.984,3.941-1.06,7.842.7,10.926,3.093,10.356,7.734,24.319,36.077,13.271,46.816.012,1.789.145,3.686.166,5.587,2.016-4.091,4.5-8.015,5.544-12.544,1.734-7.529-1.128-15.536-4.288-22.275C393.326,401.988,384.018,386.723,370.455,390.073Z" transform="translate(-320.88 -351.212)" fill="#c98450"/>
        <path id="Trazado_1162880" data-name="Trazado 1162880" d="M147.986,585.408c3.555,4.8,7.756,9.66,12.914,12.79,10.868,6.614,24.57,4.185,27.867-9.311,2.137-8.149.365-16.8-2.13-24.653-.015-.045-.032-.093-.047-.139a72.252,72.252,0,0,1,.5,22.265c-.987,7.066-5.7,11.781-12.829,12.61a19.459,19.459,0,0,1-11.846-2.335c-6.8-3.878-12.127-10.558-16.5-16.892a106.283,106.283,0,0,1-13.9-29.167c-.647-2.1-1.211-4.225-1.71-6.359C132.308,558.993,139.659,573.558,147.986,585.408Z" transform="translate(-127.456 -475.742)" fill="#c98450"/>
        <path id="Trazado_1162881" data-name="Trazado 1162881" d="M911.617,891.373q6.073,5.862,12.211,11.655c1.535,1.818.85-.038,1.24-1.4,1.036-5.479,6.1-10.935,11.756-11.421-3.007-1.76-7.863.575-10.194,2.664a26.957,26.957,0,0,1-3.785,3.418c-2.533,1.524-5.836-1.607-7.5-3.185a15.081,15.081,0,0,1-3.594-5.108A7.43,7.43,0,0,0,911.617,891.373Z" transform="translate(-756.63 -752.625)" fill="#c98450"/>
        <path id="Trazado_1162882" data-name="Trazado 1162882" d="M599.8,276.63c8.767,5.634,14.7,15.962,17.077,25.924,2.39,9.039,1.163,20.53-7.773,25.492a22.825,22.825,0,0,1-.651,2.32c5.617-1.976,9.867-8.143,11.14-13.6,1.959-8.4-.261-17.343-3.76-25.008-3.2-7-7.642-14.022-14.63-17.67a19.552,19.552,0,0,0-17.058-.739c.466.217.927.443,1.378.684C590.455,272.573,595.567,273.907,599.8,276.63Z" transform="translate(-492.992 -256.275)" fill="#c98450"/>
        <path id="Trazado_1162883" data-name="Trazado 1162883" d="M189,859.684c29.258,10.248,65.969,10.137,94.314-2.931,5.519-2.807,10.775-6.456,13.386-12.235l-1.147-1.122a31.141,31.141,0,0,1-6.2,6.94c-4.564,3.7-10.121,6.186-15.61,8.156-11.605,4.165-24.114,5.7-36.371,6.255a127.946,127.946,0,0,1-37.74-3.827c-10.914-2.813-22.341-7.385-31.008-14.749a34.1,34.1,0,0,1-4.354-4.463,27.606,27.606,0,0,0,2.317,3.984C171.776,853.049,180.87,856.679,189,859.684Z" transform="translate(-154.817 -715.347)" fill="#c98450"/>
        <path id="Trazado_1162884" data-name="Trazado 1162884" d="M639.787,605.245a11.077,11.077,0,0,1,3.4-1.968,5.806,5.806,0,0,0-2.1-.135c-1.644.187-3.027,1.55-4.163,2.624-1.308,1.237-2.53,2.575-4.52,2.291-1.575-.225-2.962-1.973-3.854-3.164a15.707,15.707,0,0,1-2.728-6.271,7.367,7.367,0,0,0,1.8,7.541C639.547,617.311,631.238,612.958,639.787,605.245Z" transform="translate(-526.258 -519.56)" fill="#c98450"/>
        <path id="Trazado_1162885" data-name="Trazado 1162885" d="M948.184,850.852c-.971-1.027-1.839-2.1-3.3-2.327-2.25-.355-4.97,2.505-5.7,4.359-.985,2.489,2.026,4.515,4.032,4.958,2.116.466,3.935-1.064,5.774-2.29,1.721-1.147,2.243-1.864.527-3.423C949.059,851.715,948.608,851.3,948.184,850.852Z" transform="translate(-778.786 -720.811)" fill="#ffb980"/>
        <path id="Trazado_1162886" data-name="Trazado 1162886" d="M646.144,592.131a4.182,4.182,0,0,0,1.532,4.662,3.076,3.076,0,0,0,2.566.253,19.771,19.771,0,0,0,2.328-.842c1.127-.454,3.091-1.218.717-3.241C650.893,590.923,647.466,589.142,646.144,592.131Z" transform="translate(-542.744 -513.053)" fill="#ffb980"/>
        <path id="Trazado_1162887" data-name="Trazado 1162887" d="M138.629,408.058c3.184-4.845,8.052-8.314,14.234-8a19.465,19.465,0,0,1,6.988,1.744c.4.18.8.376,1.193.579l.161.085q.561.3,1.112.619c.062.037.125.072.187.109q.486.291.964.6c.474.306.927.637,1.383.964,5.626,4.12,10.293,10.214,13.9,15.3a139.093,139.093,0,0,1,12.7,21.466c-6.205-16.076-17.113-34.972-32.373-41.907-9.432-3.635-16.947.876-20.454,8.433Z" transform="translate(-134.164 -358.254)" fill="#ffb980"/>
        <path id="Trazado_1162888" data-name="Trazado 1162888" d="M338.948,354.333a16.392,16.392,0,0,1,7.114-2.877c3.531-.459,6.934,1.32,9.748,3.247,5.46,3.737,9.679,9.349,13.224,14.837,2.995,4.638,5.9,9.356,8.547,14.211a123.183,123.183,0,0,0-9.039-16.7c-5.962-8.605-16.031-21.9-27.853-15.965C337.367,353.206,336.953,353.2,338.948,354.333Z" transform="translate(-294.533 -319.003)" fill="#ffb980"/>
        <path id="Trazado_1162889" data-name="Trazado 1162889" d="M321.08,829.876c-20.376,12.552-45.907,13.809-69.213,12.23-15.491-1.492-33.214-4.636-46.117-13.994a68.784,68.784,0,0,0,14.094,8.044,111.5,111.5,0,0,0,18.577,6.484,116.744,116.744,0,0,0,19.261,2.726c20.155,1.523,41.6-.5,59.591-10.359a59.651,59.651,0,0,0,8.837-5.925l-1.726-1.687C323.317,828.269,322.224,829.108,321.08,829.876Z" transform="translate(-188.224 -703.819)" fill="#ffb980"/>
        <path id="Trazado_1162890" data-name="Trazado 1162890" d="M574.213,234.441c3.3-2.008,7.263-2.072,10.919-1.223,6.1,1.417,11.293,6.024,15.473,10.47a72.021,72.021,0,0,1,10.118,13.921c-4.561-9.885-11.146-18.869-20.251-24.715-5.5-3.345-13.73-3.934-18.381,1.117a13.864,13.864,0,0,0-1.985,3.706A23.948,23.948,0,0,1,574.213,234.441Z" transform="translate(-481.683 -222.908)" fill="#ffb980"/>
        <path id="Trazado_1162891" data-name="Trazado 1162891" d="M421.556,688.9c7-3.717,11.781-10.412,17.664-15.522,3.466-3.01,7.572-5.564,12.195-6.166,5.015-.654,9.766,1.861,13.554,4.888a51.461,51.461,0,0,1,11.453,12.615,31.694,31.694,0,0,0,3.751-2.909q-8.014-7.846-16.063-15.656c-2.573-2.475-5.1-4.97-7.74-7.382a9.009,9.009,0,0,1-3.121-.2c-5.11,3.53-10.378,6.83-15.54,10.284-2.628,1.663-5.4,3.259-8.635,2.963a22.123,22.123,0,0,1-1.717,4.306c-3.524,6.643-9.885,11.5-15.984,15.807,3.533.062,7.71-1.711,10.183-3.024Z" transform="translate(-353.837 -567.841)" fill="#ee9e2b"/>
        <path id="Trazado_1162892" data-name="Trazado 1162892" d="M730.071,606.784c-.483-.419-.976-.826-1.48-1.218a18.833,18.833,0,0,1-5.176.451q4.345,3.662,8.67,7.347A26.108,26.108,0,0,1,730.071,606.784Z" transform="translate(-605.161 -525.153)" fill="#ee9e2b"/>
        <path id="Trazado_1162893" data-name="Trazado 1162893" d="M449.732,816.771a75.082,75.082,0,0,0,11.882-3.515l-.581.151a172.571,172.571,0,0,1-18.608,3.553c-12.53,1.756-26.343,2.993-38.871.02l-1.074.753a130.635,130.635,0,0,0,47.252-.963Z" transform="translate(-346.674 -692.43)" fill="#fbe134"/>
        <path id="Trazado_1162894" data-name="Trazado 1162894" d="M422.241,784.872l-2.1-2.05c-11.126,9.562-26.6,11.888-40.764,13.086a136.769,136.769,0,0,1-32.644-1.639,20.381,20.381,0,0,1-11.082,1.762c4.464,1.723,9.586,2.154,14.486,2.376,5.87.266,11.725.824,17.6.8a140.718,140.718,0,0,0,20.342-1.753c11.362-1.718,23.047-4.153,32.431-11.18C421.113,785.827,421.683,785.355,422.241,784.872Z" transform="translate(-292.853 -667.919)" fill="#f3af79"/>
        <path id="Trazado_1162895" data-name="Trazado 1162895" d="M771.652,611.262c-.589-6.952-4.244-13.419-9.272-18.306a17.185,17.185,0,0,1-4.223,2.016c4.655,3.827,8.452,8.812,9.648,14.794q1.966,1.674,3.922,3.359C771.725,612.508,771.7,611.888,771.652,611.262Z" transform="translate(-633.142 -514.997)" fill="#f3af79"/>
        <path id="Trazado_1162896" data-name="Trazado 1162896" d="M240.01,690.077a106.075,106.075,0,0,0,10.268-2.667c-11.558,3.164-23.844,4.054-35.888,4.192-24.3.28-52.736-2.285-67.726-24.214-3.7-5.418-5.746-11.82-4.811-18.086q-1.148-2.524-2.173-5.1c-.068.182-.143.36-.207.543a26.841,26.841,0,0,0,2.422,22.975C159.585,694.946,211.267,695.8,240.01,690.077Z" transform="translate(-133.606 -556.271)" fill="#fff7cf"/>
      </g>
    </g>
  </g>
</svg>
