<svg xmlns="http://www.w3.org/2000/svg" xmlns:xlink="http://www.w3.org/1999/xlink" width="112.317" height="112.317" viewBox="0 0 112.317 112.317">
  <defs>
    <filter id="Trazado_978624" x="0" y="0" width="112.317" height="112.317" filterUnits="userSpaceOnUse">
      <feOffset dy="3" input="SourceAlpha"/>
      <feGaussianBlur stdDeviation="3" result="blur"/>
      <feFlood flood-opacity="0.161"/>
      <feComposite operator="in" in2="blur"/>
      <feComposite in="SourceGraphic"/>
    </filter>
  </defs>
  <g id="Grupo_1218278" data-name="Grupo 1218278" transform="translate(-203.964 -2988.342)">
    <g id="Grupo_1216173" data-name="Grupo 1216173" transform="translate(212.964 2994.342)">
      <g id="Grupo_1210476" data-name="Grupo 1210476">
        <g id="Grupo_1210475" data-name="Grupo 1210475" transform="translate(0)">
          <g id="Grupo_1209741" data-name="Grupo 1209741" transform="translate(0 0)">
            <g id="Grupo_1178144" data-name="Grupo 1178144">
              <g id="Grupo_1177896" data-name="Grupo 1177896">
                <g id="Grupo_1176881" data-name="Grupo 1176881">
                  <g id="Grupo_1175148" data-name="Grupo 1175148">
                    <g id="Grupo_1173798" data-name="Grupo 1173798">
                      <g id="Grupo_1171925" data-name="Grupo 1171925">
                        <g id="Grupo_1164524" data-name="Grupo 1164524">
                          <g id="Grupo_1144123" data-name="Grupo 1144123">
                            <g transform="matrix(1, 0, 0, 1, -9, -6)" filter="url(#Trazado_978624)">
                              <g id="Trazado_978624-2" data-name="Trazado 978624" transform="translate(9 6)" fill="#cfd7c8">
                                <path d="M 47.15840148925781 92.81680297851562 C 40.993896484375 92.81680297851562 35.01457595825195 91.60981750488281 29.38654899597168 89.22934722900391 C 23.94976234436035 86.92978668212891 19.06670761108398 83.63744354248047 14.8730411529541 79.44376373291016 C 10.67936134338379 75.25009155273438 7.387014865875244 70.36704254150391 5.087454795837402 64.93025207519531 C 2.706988096237183 59.30222702026367 1.500001430511475 53.32290649414062 1.500001430511475 47.15840148925781 C 1.500001430511475 40.993896484375 2.706988096237183 35.01457595825195 5.087454795837402 29.38654899597168 C 7.387014865875244 23.94976234436035 10.67936134338379 19.06670761108398 14.8730411529541 14.8730411529541 C 19.06670761108398 10.67936134338379 23.94976234436035 7.387014865875244 29.38654899597168 5.087454795837402 C 35.01457595825195 2.706988096237183 40.993896484375 1.500001430511475 47.15840148925781 1.500001430511475 C 53.32290649414062 1.500001430511475 59.30222702026367 2.706988096237183 64.93025207519531 5.087454795837402 C 70.36704254150391 7.387014865875244 75.25009155273438 10.67936134338379 79.44376373291016 14.8730411529541 C 83.63744354248047 19.06670761108398 86.92978668212891 23.94976234436035 89.22934722900391 29.38654899597168 C 91.60981750488281 35.01457595825195 92.81680297851562 40.993896484375 92.81680297851562 47.15840148925781 C 92.81680297851562 53.32290649414062 91.60981750488281 59.30222702026367 89.22934722900391 64.93025207519531 C 86.92978668212891 70.36704254150391 83.63744354248047 75.25009155273438 79.44376373291016 79.44376373291016 C 75.25009155273438 83.63744354248047 70.36704254150391 86.92978668212891 64.93025207519531 89.22934722900391 C 59.30222702026367 91.60981750488281 53.32290649414062 92.81680297851562 47.15840148925781 92.81680297851562 Z" stroke="none"/>
                                <path d="M 47.15840148925781 3 C 41.19572830200195 3 35.41301727294922 4.167129516601562 29.97087097167969 6.468955993652344 C 24.712890625 8.692901611328125 19.99008941650391 11.87730407714844 15.93370056152344 15.93370056152344 C 11.87730407714844 19.99008941650391 8.692901611328125 24.712890625 6.468955993652344 29.97087097167969 C 4.167129516601562 35.41301727294922 3 41.19572830200195 3 47.15840148925781 C 3 53.12107467651367 4.167129516601562 58.90378570556641 6.468955993652344 64.34593200683594 C 8.692901611328125 69.60391235351562 11.87730407714844 74.32671356201172 15.93370056152344 78.38310241699219 C 19.99008941650391 82.43949890136719 24.712890625 85.6239013671875 29.97087097167969 87.84784698486328 C 35.41301727294922 90.14967346191406 41.19572830200195 91.31680297851562 47.15840148925781 91.31680297851562 C 53.12107467651367 91.31680297851562 58.90378570556641 90.14967346191406 64.34593200683594 87.84784698486328 C 69.60391235351562 85.6239013671875 74.32671356201172 82.43949890136719 78.38310241699219 78.38310241699219 C 82.43949890136719 74.32671356201172 85.6239013671875 69.60391235351562 87.84784698486328 64.34593200683594 C 90.14967346191406 58.90378570556641 91.31680297851562 53.12107467651367 91.31680297851562 47.15840148925781 C 91.31680297851562 41.19572830200195 90.14967346191406 35.41301727294922 87.84784698486328 29.97087097167969 C 85.6239013671875 24.712890625 82.43949890136719 19.99008941650391 78.38310241699219 15.93370056152344 C 74.32671356201172 11.87730407714844 69.60391235351562 8.692901611328125 64.34593200683594 6.468955993652344 C 58.90378570556641 4.167129516601562 53.12107467651367 3 47.15840148925781 3 M 47.15840148925781 0 C 73.20327758789062 0 94.31680297851562 21.11353302001953 94.31680297851562 47.15840148925781 C 94.31680297851562 73.20327758789062 73.20327758789062 94.31680297851562 47.15840148925781 94.31680297851562 C 21.11353302001953 94.31680297851562 0 73.20327758789062 0 47.15840148925781 C 0 21.11353302001953 21.11353302001953 0 47.15840148925781 0 Z" stroke="none" fill="#899e78"/>
                              </g>
                            </g>
                          </g>
                        </g>
                      </g>
                    </g>
                  </g>
                </g>
              </g>
            </g>
          </g>
        </g>
      </g>
    </g>
    <g id="obligacion_2_" data-name="obligacion (2)" transform="translate(215.109 3005.387)">
      <g id="Grupo_1218277" data-name="Grupo 1218277" transform="translate(14.977 4.78)">
        <path id="Trazado_1167717" data-name="Trazado 1167717" d="M188.142,32.183V35.1a1.574,1.574,0,0,1-1.571,1.571h-2.2a18.829,18.829,0,0,1-2.217,5.348l1.553,1.553a1.569,1.569,0,0,1,0,2.221l-4.124,4.127a1.576,1.576,0,0,1-2.221,0l-1.553-1.556a18.769,18.769,0,0,1-5.348,2.217v2.2a1.574,1.574,0,0,1-1.571,1.571h-5.831a1.572,1.572,0,0,1-1.571-1.571v-2.2a18.828,18.828,0,0,1-5.348-2.217l-1.556,1.556a1.576,1.576,0,0,1-2.221,0l-4.124-4.127a1.576,1.576,0,0,1,0-2.221l1.553-1.553a18.829,18.829,0,0,1-2.217-5.348h-2.2a1.577,1.577,0,0,1-1.571-1.571V29.269a1.574,1.574,0,0,1,1.571-1.571h2.2a18.829,18.829,0,0,1,2.217-5.348l-1.553-1.556a1.576,1.576,0,0,1,0-2.221l4.124-4.124a1.576,1.576,0,0,1,2.221,0l1.556,1.556a18.726,18.726,0,0,1,5.348-2.217v-2.2a1.571,1.571,0,0,1,1.571-1.567H168.9a1.573,1.573,0,0,1,1.571,1.567v2.2a18.778,18.778,0,0,1,5.348,2.221l1.553-1.556a1.576,1.576,0,0,1,2.221,0l4.124,4.124a1.569,1.569,0,0,1,0,2.221l-1.553,1.556a18.829,18.829,0,0,1,2.217,5.348h2.2a1.572,1.572,0,0,1,1.571,1.571v2.914Z" transform="translate(-128.07 -10.024)" fill="#777878" fill-rule="evenodd"/>
        <path id="Trazado_1167718" data-name="Trazado 1167718" d="M170.468,50.58v2.2a1.574,1.574,0,0,1-1.571,1.571h-5.831a1.572,1.572,0,0,1-1.571-1.571v-2.2a18.828,18.828,0,0,1-5.348-2.217l-1.556,1.556a1.576,1.576,0,0,1-2.221,0l-4.124-4.127a1.576,1.576,0,0,1,0-2.221l1.553-1.553a18.829,18.829,0,0,1-2.217-5.348h-2.2a1.577,1.577,0,0,1-1.571-1.571V29.269a1.574,1.574,0,0,1,1.571-1.571h2.2a18.829,18.829,0,0,1,2.217-5.348l-1.553-1.556a1.576,1.576,0,0,1,0-2.221l4.124-4.124a1.576,1.576,0,0,1,2.221,0l1.556,1.556A18.726,18.726,0,0,1,161.5,13.79v-2.2a1.571,1.571,0,0,1,1.571-1.567H168.9a1.573,1.573,0,0,1,1.571,1.567v2.2a18.4,18.4,0,1,0,0,36.794Z" transform="translate(-128.071 -10.024)" fill="#6a6e6d" fill-rule="evenodd"/>
        <path id="Trazado_1167719" data-name="Trazado 1167719" d="M234.079,88.061a12.221,12.221,0,1,1-12.223,12.219,12.222,12.222,0,0,1,12.223-12.219Z" transform="translate(-196.169 -78.121)" fill="#fcd53a" fill-rule="evenodd"/>
        <path id="Trazado_1167720" data-name="Trazado 1167720" d="M271.314,90.131a12.222,12.222,0,0,1,0,23.914,12.223,12.223,0,0,1,0-23.914Z" transform="translate(-230.873 -79.927)" fill="#ffe100" fill-rule="evenodd"/>
        <path id="Trazado_1167721" data-name="Trazado 1167721" d="M20.2,289.4c.607-16.6,37.65-16.6,38.256,0v8.962H20.2Z" transform="translate(-20.2 -242.947)" fill="#f6576f" fill-rule="evenodd"/>
        <path id="Trazado_1167722" data-name="Trazado 1167722" d="M87.075,278.266c8.218.849,15.613,4.94,15.88,12.284v8.962H71.2V290.55C71.466,283.206,78.857,279.115,87.075,278.266Z" transform="translate(-64.699 -244.097)" fill="#fc657c" fill-rule="evenodd"/>
        <path id="Trazado_1167723" data-name="Trazado 1167723" d="M101.1,129.05a10.114,10.114,0,1,1-10.114,10.114A10.113,10.113,0,0,1,101.1,129.05Z" transform="translate(-81.966 -113.888)" fill="#fee0b4" fill-rule="evenodd"/>
        <path id="Trazado_1167724" data-name="Trazado 1167724" d="M141.462,132.027a10.117,10.117,0,0,1,0,19.473,10.118,10.118,0,0,1,0-19.473Z" transform="translate(-119.588 -116.486)" fill="#ffe9ce" fill-rule="evenodd"/>
      </g>
      <path id="Trazado_1167725" data-name="Trazado 1167725" d="M138.3,336.328v-2.336h-7.384v2.336Zm1.527-2.43v2.524a1.422,1.422,0,0,1-.365.953c-.018.022-.036.043-.054.061a1.433,1.433,0,0,1-1.015.419h-7.572a1.418,1.418,0,0,1-1.011-.419v0a1.428,1.428,0,0,1-.423-1.011V333.9a1.422,1.422,0,0,1,.419-1.007l0,0a1.441,1.441,0,0,1,1.011-.423H138.4a1.428,1.428,0,0,1,1.011.423h0a1.424,1.424,0,0,1,.419,1.011Z" transform="translate(-100.505 -286.611)" fill="#777878"/>
      <path id="Trazado_1167726" data-name="Trazado 1167726" d="M62.339,378.723h24.38a1.8,1.8,0,0,0,1.8-1.8v-14.4a1.806,1.806,0,0,0-1.8-1.8H62.339a1.807,1.807,0,0,0-1.8,1.8v14.4a1.8,1.8,0,0,0,1.8,1.8Z" transform="translate(-40.421 -311.274)" fill="#c98e60" fill-rule="evenodd"/>
      <path id="Trazado_1167727" data-name="Trazado 1167727" d="M97.6,378.723H117.49a1.8,1.8,0,0,0,1.8-1.8v-14.4a1.806,1.806,0,0,0-1.8-1.8H97.6a1.806,1.806,0,0,0-1.8,1.8v14.4A1.8,1.8,0,0,0,97.6,378.723Z" transform="translate(-71.193 -311.274)" fill="#d49768" fill-rule="evenodd"/>
      <path id="Trazado_1167728" data-name="Trazado 1167728" d="M88.517,366.474v-3.947a1.806,1.806,0,0,0-1.8-1.8H62.339a1.807,1.807,0,0,0-1.8,1.8v3.947a1.8,1.8,0,0,0,1.8,1.8h24.38A1.8,1.8,0,0,0,88.517,366.474Z" transform="translate(-40.421 -311.273)" fill="#d49768" fill-rule="evenodd"/>
      <path id="Trazado_1167729" data-name="Trazado 1167729" d="M119.288,366.474v-3.947a1.806,1.806,0,0,0-1.8-1.8H97.6a1.806,1.806,0,0,0-1.8,1.8v3.947a1.8,1.8,0,0,0,1.8,1.8H117.49a1.8,1.8,0,0,0,1.8-1.8Z" transform="translate(-71.193 -311.273)" fill="#e0a877" fill-rule="evenodd"/>
      <path id="Trazado_1167730" data-name="Trazado 1167730" d="M48.392,29.753a.764.764,0,0,1,1.527,0,3.021,3.021,0,0,0,5.94,0c0-1.711-1.091-2.037-3.015-2.459-1.675-.372-3.968-.877-3.968-3.582a3.715,3.715,0,0,1,3.25-3.506V18.9a.764.764,0,0,1,1.527,0v1.3a3.715,3.715,0,0,1,3.25,3.506.764.764,0,0,1-1.527,0,2.533,2.533,0,0,0-4.972,0c0,1.343.8,1.654,2.77,2.091,1.78.39,4.214.928,4.214,3.95a4.167,4.167,0,0,1-3.734,3.932v1.3a.764.764,0,0,1-1.527,0v-1.3a4.167,4.167,0,0,1-3.734-3.932Zm25.893.1a.805.805,0,0,1-.8.805h-2.2a.765.765,0,0,0-.744.585,18.053,18.053,0,0,1-2.127,5.131.765.765,0,0,0,.112.939l1.556,1.549a.809.809,0,0,1,0,1.141l-4.124,4.127a.808.808,0,0,1-1.141,0l-1.556-1.556a.769.769,0,0,0-.939-.112,17.784,17.784,0,0,1-5.127,2.127.765.765,0,0,0-.585.744v2.2a.809.809,0,0,1-.805.809H53.519a11.915,11.915,0,0,0-4.333-5.969A21.482,21.482,0,0,0,40.7,38.7a11,11,0,0,0,2.665-2.936,12.982,12.982,0,1,0-2.343-14.1,10.834,10.834,0,0,0-4.669-2.253A18.113,18.113,0,0,1,37.361,17.5a.765.765,0,0,0-.112-.939l-1.556-1.553a.813.813,0,0,1,0-1.145L39.82,9.745a.815.815,0,0,1,1.141,0L42.513,11.3a.77.77,0,0,0,.939.116,17.893,17.893,0,0,1,5.127-2.13.761.761,0,0,0,.585-.74v-2.2a.807.807,0,0,1,.809-.805H55.8a.806.806,0,0,1,.805.805v2.2a.758.758,0,0,0,.585.74,18.051,18.051,0,0,1,5.127,2.13.769.769,0,0,0,.939-.108l1.556-1.56a.815.815,0,0,1,1.141,0l4.124,4.124a.813.813,0,0,1,0,1.145l-1.556,1.553a.765.765,0,0,0-.112.939,18.05,18.05,0,0,1,2.127,5.131.762.762,0,0,0,.744.581h2.2a.808.808,0,0,1,.8.809v5.831ZM52.472,59.433H48.861V51.255A2.57,2.57,0,0,0,46.3,48.688H39.325v-1.4a1.434,1.434,0,0,0-1.43-1.434H30.323a1.436,1.436,0,0,0-1.437,1.434v1.4H21.917a2.567,2.567,0,0,0-2.564,2.567v8.178H15.743V51.248C16,44.4,22.961,40.9,29.471,39.892a10.813,10.813,0,0,0,9.269,0c6.51,1.007,13.472,4.5,13.732,11.356ZM46.3,66.684H21.917a1.035,1.035,0,0,1-1.036-1.033v-8.11a2.552,2.552,0,0,0,1.036.22H46.3a2.552,2.552,0,0,0,1.036-.22v8.11A1.036,1.036,0,0,1,46.3,66.684Zm0-16.469a1.039,1.039,0,0,1,1.036,1.04V55.2A1.036,1.036,0,0,1,46.3,56.234H21.917A1.035,1.035,0,0,1,20.881,55.2V51.255a1.039,1.039,0,0,1,1.036-1.04Zm-8.5-1.527H30.413V47.381H37.8ZM42.2,22.8A11.469,11.469,0,1,1,44.116,34.31,10.859,10.859,0,0,0,42.2,22.8ZM24.755,30.056a9.35,9.35,0,1,1,9.352,9.352A9.363,9.363,0,0,1,24.755,30.056Zm48.728-8.363h-1.61a19.48,19.48,0,0,0-1.849-4.463l1.137-1.141a2.34,2.34,0,0,0,0-3.3L67.037,8.666a2.343,2.343,0,0,0-3.3,0L62.6,9.8a19.713,19.713,0,0,0-4.463-1.852v-1.6A2.336,2.336,0,0,0,55.8,4.015H49.973a2.337,2.337,0,0,0-2.336,2.333V7.954A19.456,19.456,0,0,0,43.177,9.8L42.04,8.666a2.343,2.343,0,0,0-3.3,0l-4.127,4.127a2.338,2.338,0,0,0,0,3.3L35.75,17.23a19.225,19.225,0,0,0-.975,1.971c-.224-.014-.444-.025-.668-.025A10.874,10.874,0,0,0,27.517,38.7a21.458,21.458,0,0,0-8.489,3.669A11.433,11.433,0,0,0,14.215,51.2V60.2a.766.766,0,0,0,.765.766h4.373v4.69a2.564,2.564,0,0,0,2.564,2.56H46.3a2.566,2.566,0,0,0,2.564-2.56v-4.69h4.376A.765.765,0,0,0,54,60.2V51.2a11.569,11.569,0,0,0-.13-1.336H55.8a2.337,2.337,0,0,0,2.333-2.336v-1.6A19.4,19.4,0,0,0,62.6,44.077l1.137,1.141a2.343,2.343,0,0,0,3.3,0l4.124-4.127a2.344,2.344,0,0,0,0-3.3l-1.137-1.134a19.414,19.414,0,0,0,1.849-4.463h1.61a2.335,2.335,0,0,0,2.329-2.333V24.026a2.333,2.333,0,0,0-2.329-2.333Z" fill="#070202"/>
    </g>
  </g>
</svg>
