<svg xmlns="http://www.w3.org/2000/svg" xmlns:xlink="http://www.w3.org/1999/xlink" width="93.934" height="93.934" viewBox="0 0 93.934 93.934">
  <defs>
    <filter id="Trazado_978624" x="0" y="0" width="93.934" height="93.934" filterUnits="userSpaceOnUse">
      <feOffset dy="3" input="SourceAlpha"/>
      <feGaussianBlur stdDeviation="3" result="blur"/>
      <feFlood flood-opacity="0.161"/>
      <feComposite operator="in" in2="blur"/>
      <feComposite in="SourceGraphic"/>
    </filter>
  </defs>
  <g id="Grupo_1216591" data-name="Grupo 1216591" transform="translate(-189 -2466.533)">
    <g id="Grupo_1208657" data-name="Grupo 1208657" transform="translate(198 2472.533)">
      <g id="Grupo_1208063" data-name="Grupo 1208063">
        <g id="Grupo_1144123" data-name="Grupo 1144123">
          <g transform="matrix(1, 0, 0, 1, -9, -6)" filter="url(#Trazado_978624)">
            <g id="Trazado_978624-2" data-name="Trazado 978624" transform="translate(9 6)" fill="#f1ede8">
              <path d="M 37.966796875 74.43359375 C 33.04315185546875 74.43359375 28.26757431030273 73.46962738037109 23.77274131774902 71.56847381591797 C 19.43047523498535 69.73184967041016 15.53040790557861 67.10224914550781 12.18087482452393 63.75271987915039 C 8.831341743469238 60.4031867980957 6.201741218566895 56.50312042236328 4.365118980407715 52.16086196899414 C 2.463963508605957 47.66601943969727 1.499996900558472 42.89044189453125 1.499996900558472 37.966796875 C 1.499996900558472 33.04315185546875 2.463963508605957 28.26757431030273 4.365118980407715 23.77274131774902 C 6.201741218566895 19.43047523498535 8.831341743469238 15.53040790557861 12.18087482452393 12.18087482452393 C 15.53040790557861 8.831341743469238 19.43047523498535 6.201741218566895 23.77274131774902 4.365118980407715 C 28.26757431030273 2.463963508605957 33.04315185546875 1.499996900558472 37.966796875 1.499996900558472 C 42.89044189453125 1.499996900558472 47.66601943969727 2.463963508605957 52.16086196899414 4.365118980407715 C 56.50312042236328 6.201741218566895 60.4031867980957 8.831341743469238 63.75271987915039 12.18087482452393 C 67.10224914550781 15.53040790557861 69.73184967041016 19.43047523498535 71.56847381591797 23.77274131774902 C 73.46962738037109 28.26757431030273 74.43359375 33.04315185546875 74.43359375 37.966796875 C 74.43359375 42.89044189453125 73.46962738037109 47.66601943969727 71.56847381591797 52.16086196899414 C 69.73184967041016 56.50313186645508 67.10224914550781 60.4031867980957 63.75271987915039 63.75271987915039 C 60.4031867980957 67.10224914550781 56.50313186645508 69.73184967041016 52.16086196899414 71.56847381591797 C 47.66601943969727 73.46962738037109 42.89044189453125 74.43359375 37.966796875 74.43359375 Z" stroke="none"/>
              <path d="M 37.966796875 3 C 33.2449836730957 3 28.66600799560547 3.924095153808594 24.35705947875977 5.746635437011719 C 20.19359588623047 7.507621765136719 16.45379638671875 10.02927398681641 13.24153518676758 13.24153518676758 C 10.02927398681641 16.45379638671875 7.507621765136719 20.19359588623047 5.746635437011719 24.35705947875977 C 3.924095153808594 28.66600799560547 3 33.2449836730957 3 37.966796875 C 3 42.6886100769043 3.924095153808594 47.26758575439453 5.746635437011719 51.57653427124023 C 7.507621765136719 55.73999786376953 10.02927398681641 59.47979736328125 13.24153518676758 62.69205856323242 C 16.45379638671875 65.90431976318359 20.19359588623047 68.42597198486328 24.35705947875977 70.18695831298828 C 28.66600799560547 72.00949859619141 33.2449836730957 72.93359375 37.966796875 72.93359375 C 42.6886100769043 72.93359375 47.26758575439453 72.00949859619141 51.57653427124023 70.18695831298828 C 55.73999786376953 68.42597198486328 59.47979736328125 65.90431976318359 62.69205856323242 62.69205856323242 C 65.90431976318359 59.47979736328125 68.42597198486328 55.73999786376953 70.18695831298828 51.57653427124023 C 72.00949859619141 47.26758575439453 72.93359375 42.6886100769043 72.93359375 37.966796875 C 72.93359375 33.2449836730957 72.00949859619141 28.66600799560547 70.18695831298828 24.35705947875977 C 68.42597198486328 20.19359588623047 65.90431976318359 16.45379638671875 62.69205856323242 13.24153518676758 C 59.47979736328125 10.02927398681641 55.73999786376953 7.507621765136719 51.57653427124023 5.746635437011719 C 47.26758575439453 3.924095153808594 42.6886100769043 3 37.966796875 3 M 37.966796875 0 C 58.93528366088867 0 75.93359375 16.99831008911133 75.93359375 37.966796875 C 75.93359375 58.93528366088867 58.93528366088867 75.93359375 37.966796875 75.93359375 C 16.99831008911133 75.93359375 0 58.93528366088867 0 37.966796875 C 0 16.99831008911133 16.99831008911133 0 37.966796875 0 Z" stroke="none" fill="#665b4e"/>
            </g>
          </g>
        </g>
      </g>
    </g>
    <g id="_6._Signature" data-name="6. Signature" transform="translate(211.209 2490.676)">
      <rect id="Rectángulo_420528" data-name="Rectángulo 420528" width="39.715" height="56.008" rx="16" transform="translate(0.764 0.764)" fill="#f6f6f6"/>
      <path id="Trazado_1163328" data-name="Trazado 1163328" d="M45.925,465.806H9.806A1.806,1.806,0,0,1,8,464v2.709a1.806,1.806,0,0,0,1.806,1.806H45.925a1.806,1.806,0,0,0,1.806-1.806V464A1.806,1.806,0,0,1,45.925,465.806Z" transform="translate(-7.097 -411.627)" fill="#dcdcdc"/>
      <path id="Trazado_1163329" data-name="Trazado 1163329" d="M38.828,57.791H2.709A2.709,2.709,0,0,1,0,55.082V2.709A2.709,2.709,0,0,1,2.709,0H38.828a2.709,2.709,0,0,1,2.709,2.709V14.448a.9.9,0,1,1-1.806,0V2.709a.9.9,0,0,0-.9-.9H2.709a.9.9,0,0,0-.9.9V55.082a.9.9,0,0,0,.9.9H38.828a.9.9,0,0,0,.9-.9V47.858a.9.9,0,0,1,1.806,0v7.224A2.709,2.709,0,0,1,38.828,57.791Z"/>
      <path id="Trazado_1163330" data-name="Trazado 1163330" d="M352.9,193.283a.9.9,0,0,1-.9-.9V168.9a.9.9,0,1,1,1.806,0V192.38A.9.9,0,0,1,352.9,193.283Z" transform="translate(-312.269 -149.037)"/>
      <path id="Trazado_1163331" data-name="Trazado 1163331" d="M77.8,193.806H48.9a.9.9,0,1,1,0-1.806H77.8a.9.9,0,1,1,0,1.806Z" transform="translate(-42.582 -170.329)"/>
      <path id="Trazado_1163332" data-name="Trazado 1163332" d="M77.8,233.806H48.9a.9.9,0,1,1,0-1.806H77.8a.9.9,0,1,1,0,1.806Z" transform="translate(-42.582 -205.814)"/>
      <path id="Trazado_1163333" data-name="Trazado 1163333" d="M77.8,273.806H48.9a.9.9,0,0,1,0-1.806H77.8a.9.9,0,0,1,0,1.806Z" transform="translate(-42.582 -241.299)"/>
      <path id="Trazado_1163334" data-name="Trazado 1163334" d="M77.8,313.806H48.9a.9.9,0,1,1,0-1.806H77.8a.9.9,0,1,1,0,1.806Z" transform="translate(-42.582 -276.784)"/>
      <path id="Trazado_1163335" data-name="Trazado 1163335" d="M77.8,353.806H48.9a.9.9,0,0,1,0-1.806H77.8a.9.9,0,0,1,0,1.806Z" transform="translate(-42.582 -312.269)"/>
      <path id="Trazado_1163336" data-name="Trazado 1163336" d="M464,256h4.515v15.351H464Z" transform="translate(-411.627 -227.105)" fill="#a8edfd"/>
      <path id="Trazado_1163337" data-name="Trazado 1163337" d="M464,368h4.515v2.709H464Z" transform="translate(-411.627 -326.463)" fill="#8bd4de"/>
      <path id="Trazado_1163338" data-name="Trazado 1163338" d="M461.418,265.157H456.9a.9.9,0,0,1-.9-.9V248.9a.9.9,0,0,1,.9-.9h4.515a.9.9,0,0,1,.9.9v15.351A.9.9,0,0,1,461.418,265.157Zm-3.612-1.806h2.709V249.806h-2.709Z" transform="translate(-404.53 -220.008)"/>
      <path id="Trazado_1163339" data-name="Trazado 1163339" d="M212.861,243.127c-4.987,10.686-4.85,10.418-4.861,10.418a3.827,3.827,0,0,0,4.347-1.437l2.094-2.991a8.713,8.713,0,0,1,7.1-3.7,2.709,2.709,0,0,1,0,5.418h-3.612a4.515,4.515,0,0,0-4.515,4.515h8.656a3.083,3.083,0,0,1,2.179.9,3.084,3.084,0,0,0,2.18.9h6.122a3.1,3.1,0,0,0,1.379-.325l2.961-1.481V243.612h-1.058a6.167,6.167,0,0,1-4.36-1.806,6.166,6.166,0,0,0-4.36-1.806h-9.346a5.418,5.418,0,0,0-4.91,3.127Z" transform="translate(-184.523 -212.911)" fill="#e0c3aa"/>
      <path id="Trazado_1163340" data-name="Trazado 1163340" d="M200.607,247.3a.9.9,0,0,1-.533-1.242l4.861-10.418A6.345,6.345,0,0,1,210.664,232h9.346a7.023,7.023,0,0,1,5,2.07,5.225,5.225,0,0,0,3.725,1.542h1.054a.9.9,0,0,1,.9.9v5.418a.9.9,0,1,1-1.806,0v-4.515h-.155a7.023,7.023,0,0,1-5-2.07,5.225,5.225,0,0,0-3.725-1.542h-9.346a4.532,4.532,0,0,0-4.092,2.605l-4.348,9.326a2.942,2.942,0,0,0,2.278-1.242l2.095-2.992a9.584,9.584,0,0,1,7.843-4.085,3.612,3.612,0,0,1,3.612,3.612.9.9,0,0,1-1.806,0,1.806,1.806,0,0,0-1.806-1.806,7.769,7.769,0,0,0-6.363,3.313l-2.1,2.992A4.76,4.76,0,0,1,200.607,247.3Z" transform="translate(-177.415 -205.813)"/>
      <path id="Trazado_1163341" data-name="Trazado 1163341" d="M0,0H5.418V27.089H0Z" transform="matrix(0.857, 0.516, -0.516, 0.857, 37.965, 21.277)" fill="#6fc3e2"/>
      <path id="Trazado_1163342" data-name="Trazado 1163342" d="M209.7,208.057l-4.642-2.794a.9.9,0,0,1-.308-1.242l13.968-23.208a.9.9,0,0,1,1.242-.308L224.6,183.3a.9.9,0,0,1,.308,1.242l-13.971,23.208a.9.9,0,0,1-1.238.308Zm-2.935-3.875,3.089,1.862,13.037-21.664-3.095-1.862Z" transform="translate(-181.52 -160.016)"/>
      <path id="Trazado_1163343" data-name="Trazado 1163343" d="M208.912,394.01l-.472,6.04,5.114-3.246Z" transform="translate(-184.913 -349.537)" fill="#a6806f"/>
      <path id="Trazado_1163344" data-name="Trazado 1163344" d="M200.438,392.886l.473-6.039a.9.9,0,0,1,1.366-.7l4.642,2.794a.9.9,0,0,1,.018,1.536l-5.115,3.245a.9.9,0,0,1-1.384-.833Zm2.159-4.442-.218,2.782,2.356-1.489Z" transform="translate(-177.812 -342.445)"/>
      <path id="Trazado_1163345" data-name="Trazado 1163345" d="M266.836,312a2.709,2.709,0,0,1-2.709,2.709h-3.612A4.515,4.515,0,0,0,256,319.224h8.656a3.083,3.083,0,0,1,2.179.9,3.083,3.083,0,0,0,2.18.9h6.122a3.1,3.1,0,0,0,1.379-.325l2.961-1.481V312.9" transform="translate(-227.105 -276.784)" fill="#e0c3aa"/>
      <path id="Trazado_1163346" data-name="Trazado 1163346" d="M275.137,353.806h-6.122a3.083,3.083,0,0,1-2.179-.9,3.084,3.084,0,0,0-2.18-.9H256.9a4.5,4.5,0,0,0-.9,2.709h8.656a3.083,3.083,0,0,1,2.179.9,3.084,3.084,0,0,0,2.18.9h6.122a3.1,3.1,0,0,0,1.379-.325l2.961-1.481V352l-2.961,1.481A3.1,3.1,0,0,1,275.137,353.806Z" transform="translate(-227.105 -312.269)" fill="#d0a37f"/>
      <path id="Trazado_1163347" data-name="Trazado 1163347" d="M268.04,314.836h-6.122a3.96,3.96,0,0,1-2.822-1.167,2.161,2.161,0,0,0-1.537-.639H248.9a.9.9,0,0,1-.9-.9,5.424,5.424,0,0,1,5.418-5.418h3.612a1.806,1.806,0,0,0,1.806-1.806.9.9,0,1,1,1.806,0,3.612,3.612,0,0,1-3.612,3.612h-3.612a3.619,3.619,0,0,0-3.5,2.709h7.639a3.96,3.96,0,0,1,2.822,1.167,2.162,2.162,0,0,0,1.538.639h6.122a2.2,2.2,0,0,0,.975-.226l2.462-1.235v-5.763a.9.9,0,0,1,1.806,0v6.321a.9.9,0,0,1-.5.808l-2.962,1.48A4,4,0,0,1,268.04,314.836Z" transform="translate(-220.008 -269.687)"/>
      <path id="Trazado_1163348" data-name="Trazado 1163348" d="M341.019,163.428a2.709,2.709,0,0,0-3.718.924l-.931,1.547,4.642,2.794.931-1.547A2.709,2.709,0,0,0,341.019,163.428Z" transform="translate(-298.403 -144.637)" fill="#5f79a5"/>
      <path id="Trazado_1163349" data-name="Trazado 1163349" d="M333.446,162.366l-4.642-2.794a.9.9,0,0,1-.308-1.242l.931-1.547a3.612,3.612,0,1,1,6.19,3.725l-.931,1.547A.9.9,0,0,1,333.446,162.366Zm-2.935-3.875,3.095,1.862.466-.773a1.809,1.809,0,1,0-3.1-1.867Z" transform="translate(-291.302 -137.534)"/>
      <path id="Trazado_1163350" data-name="Trazado 1163350" d="M112.912,443.6a.9.9,0,0,1-.721-1.445l.748-1a2.923,2.923,0,0,1,4.68,0,2.935,2.935,0,0,1,3.912.637h12.15a.9.9,0,1,1,0,1.806H121.039a.9.9,0,0,1-.808-.5,1.114,1.114,0,0,0-2,0,.9.9,0,0,1-1.616,0l-.344-.69a1.115,1.115,0,0,0-1.9-.166l-.748,1A.9.9,0,0,1,112.912,443.6Z" transform="translate(-99.367 -390.324)"/>
      <path id="Trazado_1163351" data-name="Trazado 1163351" d="M56,56H84.9v7.224H56Z" transform="translate(-49.679 -49.679)" fill="#ead590"/>
      <path id="Trazado_1163352" data-name="Trazado 1163352" d="M56,96H84.9v2.709H56Z" transform="translate(-49.679 -85.164)" fill="#f1cb66"/>
      <path id="Trazado_1163353" data-name="Trazado 1163353" d="M77.8,57.03H48.9a.9.9,0,0,1-.9-.9V48.9a.9.9,0,0,1,.9-.9H77.8a.9.9,0,0,1,.9.9v7.224A.9.9,0,0,1,77.8,57.03ZM49.806,55.224H76.9V49.806H49.806Z" transform="translate(-42.582 -42.582)"/>
      <path id="Trazado_1163354" data-name="Trazado 1163354" d="M61.545,153.806H48.9a.9.9,0,1,1,0-1.806H61.545a.9.9,0,1,1,0,1.806Z" transform="translate(-42.582 -134.843)"/>
    </g>
  </g>
</svg>
