<svg xmlns="http://www.w3.org/2000/svg" xmlns:xlink="http://www.w3.org/1999/xlink" width="190.5" height="223" viewBox="0 0 190.5 223">
  <defs>
    <clipPath id="clip-path">
      <rect id="Rectángulo_420730" data-name="Rectángulo 420730" width="190" height="223" transform="translate(600 3066)" fill="#fff" stroke="#707070" stroke-width="1" opacity="0.42"/>
    </clipPath>
  </defs>
  <g id="Grupo_1219854" data-name="Grupo 1219854" transform="translate(-599.5 -3066)">
    <g id="Grupo_1216606" data-name="Grupo 1216606" transform="translate(531.409 3018.358)">
      <path id="Trazado_1163371" data-name="Trazado 1163371" d="M254.938,239.975c-9.183-4.27-18.763-5.982-28.276-7.277s-19.068-2.353-28.614-3.25q-22.363-2.1-44.766-2.846,3.4-.792,6.8-1.545,3.2-.708,6.4-1.391l1.732-.368.693-.146.056-.012q1.646-.347,3.293-.689,6.412-1.334,12.827-2.645c8.935-1.843,17.869-3.709,26.782-5.8,9.673-2.271,19.322-4.82,28.906-7.886,1.786-.572,3.274-3.746,3.193-6.571-.091-3.179-1.314-5.5-3.193-6.571-5.207-2.969-10.846-3.7-16.347-3.958-5.432-.259-10.872-.256-16.306-.131-11.071.253-22.132,1.144-33.177,2.339-22.122,2.394-44.184,6.009-66.315,8.212-6.184.616-12.372,1.121-18.564,1.458-2.188.119-4.384.274-6.578.275q.378-.266.758-.529c.311-.215.624-.426.936-.638l.093-.063.122-.078c.735-.47,1.47-.938,2.209-1.388a115.7,115.7,0,0,1,16.381-8.141,308.965,308.965,0,0,1,34.955-11.629q8.8-2.44,17.649-4.5,4.466-1.048,8.941-2.016,1.053-.228,2.106-.453c.164-.035,1.2-.254.651-.138l.124-.026.878-.183q2.2-.456,4.392-.9c11.9-2.388,23.821-4.444,35.751-6.382,12.056-1.959,24.118-3.821,36.179-5.714l4.464-.7c2.176-.341,3.965-2.333,4.271-5.908.272-3.175-.991-6.758-3.115-7.476A204.272,204.272,0,0,0,194.4,134.142a316.761,316.761,0,0,0-33.389.438c11.345-3.286,22.708-6.418,34.023-9.952,8.261-2.58,16.495-5.384,24.664-8.605,1.778-.7,3.276-3.65,3.193-6.571-.092-3.211-1.32-5.453-3.193-6.571-6.3-3.762-13.188-4.692-19.884-4.679-.294,0-.589.009-.883.012a9.459,9.459,0,0,0,.624-3.477c-.1-3.383-1.925-7.2-4.349-6.814-21.939,3.485-43.931,6.985-65.585,13.68-6.085,1.881-12.137,4.025-18.138,6.482-2.1.859-3.4,4.2-3.115,7.476.265,3.091,2.112,6.219,4.271,5.908,14.079-2.027,28.159-4.055,42.256-5.765,11.8-1.432,23.634-2.791,35.47-3.492-5.673,1.746-11.358,3.4-17.044,5.033-14.756,4.233-29.536,8.322-44.172,13.5-8.208,2.9-16.367,6.158-24.428,9.948-2.083.979-3.4,4.1-3.115,7.476.267,3.113,2.109,6.189,4.271,5.908,18.759-2.433,37.527-4.841,56.341-5.944,17.6-1.033,35.265-.922,52.825,1.445-.517.083-1.034.163-1.552.246-12.167,1.952-24.329,4-36.466,6.375-12.336,2.412-24.651,5.13-36.905,8.414a339.213,339.213,0,0,0-35.634,11.456,126.569,126.569,0,0,0-16.8,7.858,103.86,103.86,0,0,0-8.911,5.71A32.437,32.437,0,0,0,71.63,196.3a24.125,24.125,0,0,0-2.951,5.312c-1.2,2.846-.5,7.859,1.56,9.323a19.883,19.883,0,0,0,8.884,3.582,37.878,37.878,0,0,0,7.372.178c5.6-.244,11.193-.635,16.784-1.129,11.07-.979,22.123-2.365,33.171-3.827,21.552-2.852,43.108-6,64.736-6.983-.438.1-.876.2-1.313.294q-3.29.72-6.581,1.415l-.693.146-.029.006-.028.006-1.56.327-3.293.685c-17.53,3.631-35.088,7.049-52.516,11.778a290.128,290.128,0,0,0-28.7,9.3c-2.1.813-3.393,4.233-3.115,7.476.281,3.27,2.094,5.969,4.271,5.908q28.829-.807,57.659.616,8.508.422,17.012,1.048-26.359,2.284-52.612,6.818-8.724,1.509-17.429,3.269c-5.928,1.2-12.05,1.837-17.463,6.158-2.031,1.621-2.782,6.353-1.56,9.323,1.337,3.248,3.778,4.179,5.95,2.445.185-.148.426-.4.651-.554a1.213,1.213,0,0,0,.231-.1,17.311,17.311,0,0,1,1.688-.879,23.339,23.339,0,0,1,3.491-1.23c.536-.147,1.074-.279,1.613-.4.2-.045,1.06-.232,1.2-.265q1.744-.366,3.489-.721,7.638-1.552,15.292-2.913Q142.143,260,157.5,258.042q30.708-3.906,61.533-4.734,17.373-.466,34.748.051c2.166.064,3.991-2.642,4.271-5.908C258.341,244.09,257.032,240.949,254.938,239.975Z" fill="#fcf5f0"/>
    </g>
    <g id="Grupo_1217185" data-name="Grupo 1217185" transform="translate(115 -202.734)">
      <g id="Grupo_1217169" data-name="Grupo 1217169" transform="translate(399.929 3286.578)">
        <path id="Trazado_1163637" data-name="Trazado 1163637" d="M210.316,172.254a3.722,3.722,0,1,1,3.722-3.722A3.726,3.726,0,0,1,210.316,172.254Zm0-6.412a2.69,2.69,0,1,0,2.69,2.69A2.693,2.693,0,0,0,210.316,165.842Z" fill="#301b1b"/>
      </g>
      <g id="Grupo_1217176" data-name="Grupo 1217176" transform="translate(399.929 3286.578)">
        <g id="Grupo_1217175" data-name="Grupo 1217175">
          <path id="Trazado_1163642" data-name="Trazado 1163642" d="M219.186,190.718c3.711,1.756,6.667-1.761,7.974-4.829.738-1.733,1.99-6.652-1.478-6.441-2.973.181-2.508,4.612-1.68,6.4a13.237,13.237,0,0,0,17.054,6.178c.442-.207.057-.862-.383-.655A12.474,12.474,0,0,1,227.05,188.8c-1.692-1.635-3.364-4.117-2.9-6.582.209-1.108,1.155-2.7,2.462-1.745,1,.734.74,2.452.461,3.48-.822,3.024-3.652,7.93-7.5,6.107-.44-.209-.826.445-.384.654Z" fill="#301b1b"/>
        </g>
      </g>
    </g>
    <g id="Grupo_1217184" data-name="Grupo 1217184" transform="translate(384.218 2908.927)">
      <g id="Grupo_1217183" data-name="Grupo 1217183" transform="translate(235.931 196.52)">
        <path id="Trazado_1163646" data-name="Trazado 1163646" d="M236.228,220.966a22.69,22.69,0,0,0,8.473-5.055,22.349,22.349,0,0,0,3.168-3.737c.821-1.219,1.862-2.772,1.6-4.324-.4-2.375-3.676-2.443-4.865-.659a3.461,3.461,0,0,0,.063,3.553,4.885,4.885,0,0,0,3.5,2.342c3.046.533,6.367-.772,8.82-2.513a15.716,15.716,0,0,0,5.457-6.871,8.923,8.923,0,0,0,.913-4.314,1.657,1.657,0,0,0-2.419-1.205c-1.277.566-1.444,2.159-1.1,3.357a5.624,5.624,0,0,0,2.191,2.991c2.831,2.022,6.457,1.663,9.454.244a32.158,32.158,0,0,0,5.289-3.406q2.953-2.191,5.9-4.385c.248-.184.006-.605-.245-.419-2.566,1.906-5.1,3.87-7.719,5.706-2.3,1.609-4.935,3.172-7.823,3.216-2.334.035-4.941-.937-6.149-3.048-.646-1.129-1.081-3.378.581-3.884,2.181-.663,1.474,2.458,1.155,3.575a14.983,14.983,0,0,1-10.32,10.2c-2.671.708-6.588.558-7.428-2.713a2.434,2.434,0,0,1,1.5-3.053,1.959,1.959,0,0,1,2.784,1.6c.1,1.541-1.078,3.1-1.933,4.292a21.88,21.88,0,0,1-3.008,3.376,22.124,22.124,0,0,1-7.979,4.67c-.3.1-.169.565.128.467Z" transform="translate(-235.931 -196.52)" fill="#301b1b"/>
      </g>
    </g>
    <g id="Grupo_1217186" data-name="Grupo 1217186" transform="translate(696.072 -874.251)">
      <g id="Grupo_1217165" data-name="Grupo 1217165" transform="translate(50.087 4056.96)">
        <path id="Trazado_1163633" data-name="Trazado 1163633" d="M262.564,389.624a5.121,5.121,0,1,1,5.121-5.121A5.127,5.127,0,0,1,262.564,389.624Zm0-9.483a4.362,4.362,0,1,0,4.362,4.362A4.367,4.367,0,0,0,262.564,380.142Z" transform="translate(-257.443 -379.382)" fill="#301b1b"/>
      </g>
      <g id="Grupo_1217166" data-name="Grupo 1217166" transform="translate(61.96 4068.095)">
        <path id="Trazado_1163634" data-name="Trazado 1163634" d="M275.346,398.04a1.759,1.759,0,1,1,1.759-1.759A1.761,1.761,0,0,1,275.346,398.04Zm0-2.759a1,1,0,1,0,1,1A1,1,0,0,0,275.346,395.28Z" transform="translate(-273.587 -394.522)" fill="#301b1b"/>
      </g>
      <g id="Grupo_1217182" data-name="Grupo 1217182" transform="translate(30.404 4069.854)">
        <g id="Grupo_1217181" data-name="Grupo 1217181" transform="translate(0 0)">
          <path id="Trazado_1163645" data-name="Trazado 1163645" d="M272.682,443.325a5.876,5.876,0,0,0,7.225-1.1,6.011,6.011,0,0,0,1.45-3.207c.143-1.12.1-1.976-1.239-1.9a2.73,2.73,0,0,0-2.206,1.606,3.69,3.69,0,0,0,.485,3.409,9.647,9.647,0,0,0,5.715,3.937c4.376,1.163,9.733-.242,12.358-4.108.551-.81,1.052-2.051.314-2.907a1.76,1.76,0,0,0-2.355-.066c-2.056,1.389-1.31,4.309-.055,5.951,1.842,2.41,4.881,3.553,7.818,3.86a14.787,14.787,0,0,0,9.589-2.306c.3-.2.02-.679-.282-.482a14.24,14.24,0,0,1-12.73,1.414,8.11,8.11,0,0,1-4.713-4.106,3.575,3.575,0,0,1-.073-2.942,2.173,2.173,0,0,1,1.039-1.1c1.164-.549,1.775.5,1.439,1.506-.563,1.692-2.423,3.075-3.939,3.859a11.591,11.591,0,0,1-5.148,1.263,11.112,11.112,0,0,1-4.937-1.043c-1.746-.836-3.673-2.356-4.13-4.331a2.338,2.338,0,0,1,.5-2.167c.352-.376,1.253-1,1.781-.655.8.519-.115,2.652-.471,3.268a5.277,5.277,0,0,1-7.155,1.862.278.278,0,0,0-.28.481Z" transform="translate(-272.545 -437.115)" fill="#301b1b"/>
        </g>
      </g>
    </g>
    <g id="Enmascarar_grupo_1153315" data-name="Enmascarar grupo 1153315" clip-path="url(#clip-path)">
      <g id="Grupo_1218201" data-name="Grupo 1218201" transform="translate(0 6)">
        <g id="Grupo_1218200" data-name="Grupo 1218200" transform="translate(600 3121.216)">
          <g id="Grupo_1216769" data-name="Grupo 1216769" transform="translate(0 0)">
            <g id="Grupo_1216611" data-name="Grupo 1216611" transform="translate(6.478)">
              <path id="Trazado_1163375" data-name="Trazado 1163375" d="M514.6,310.963c-.365,1.59-2.591,1.657-4.189,1.323a142.319,142.319,0,0,1-15.965-4.313c-5.091-1.7-10.386-3.913-13.448-8.32a14.147,14.147,0,0,1,.435-16.291c1.128-1.452,2.6-2.769,3-4.562.63-2.777-1.482-5.321-2.837-7.825A15.891,15.891,0,0,1,498.3,247.756c-2.491-4.881.756-11.249,5.723-13.567s10.887-1.408,15.958.672c-2.38-6.135,1.657-13.636,7.837-15.9a17.282,17.282,0,0,1,18.269,4.789q-.122.3-.244.606c.856-1.191,1.032-3.236,1.647-4.593.745-1.643,1.635-3.219,2.417-4.845,1.684-3.5,3.729-7.169,6.585-9.885a44.826,44.826,0,0,1,5.3-3.722,15.961,15.961,0,0,1,5.2-2.419c1.341-.346,16.789-2.276,21.346-.248a14.813,14.813,0,0,1,8.721,11.345l-.308-1.119c5.625-1.361,11.521,6.544,11.171,12.32s-4.225,10.663-8.039,15.017c1.608,3.419.918,7.518-.627,10.966s-3.873,6.483-5.674,9.805c-1.434,2.645-2.537,5.477-4.207,7.981-3.272,4.909-8.433,8.174-13.44,11.293-8.434,5.253-17.53,10.693-27.46,10.358-3.4-.115-6.881-.911-10.166-.012-5.482,1.5-8.622,7.083-11.246,12.125S520.161,309.8,514.6,310.963Z" transform="translate(-478.628 -197.734)" fill="#301b1b"/>
            </g>
            <g id="Grupo_1216622" data-name="Grupo 1216622" transform="translate(0 145.061)">
              <g id="Grupo_1216612" data-name="Grupo 1216612">
                <path id="Trazado_1163376" data-name="Trazado 1163376" d="M626.376,404.573s-.414,31.365-1.463,40.8h-91.86s6.511-44.2,24.509-58.153S626.376,404.573,626.376,404.573Z" transform="translate(-533.053 -383.64)" fill="#301b1b"/>
              </g>
              <g id="Grupo_1216621" data-name="Grupo 1216621" transform="translate(13.535 17.254)">
                <g id="Grupo_1216614" data-name="Grupo 1216614" transform="translate(39.371 19.151)">
                  <g id="Grupo_1216613" data-name="Grupo 1216613" transform="translate(0)">
                    <path id="Trazado_1163377" data-name="Trazado 1163377" d="M567.362,454.826c.8-4.853,1.689-9.772,3.807-14.251a23.209,23.209,0,0,1,9.394-10.237.3.3,0,0,1,.3.511,22.764,22.764,0,0,0-9.324,10.332c-1.994,4.345-2.834,9.118-3.6,13.8-.062.375-.633.216-.571-.158Z" transform="translate(-567.358 -430.296)" fill="#fff"/>
                  </g>
                </g>
                <g id="Grupo_1216616" data-name="Grupo 1216616" transform="translate(47.532 24.208)">
                  <g id="Grupo_1216615" data-name="Grupo 1216615" transform="translate(0)">
                    <path id="Trazado_1163378" data-name="Trazado 1163378" d="M568.744,438.443a8.4,8.4,0,0,0,3.912-1.622.3.3,0,0,1,.4.106.3.3,0,0,1-.106.4,8.757,8.757,0,0,1-4.054,1.682.307.307,0,0,1-.364-.207.3.3,0,0,1,.207-.364Z" transform="translate(-568.529 -436.777)" fill="#fff"/>
                  </g>
                </g>
                <g id="Grupo_1216618" data-name="Grupo 1216618" transform="translate(0)">
                  <g id="Grupo_1216617" data-name="Grupo 1216617">
                    <path id="Trazado_1163379" data-name="Trazado 1163379" d="M629.041,406.207c-.725,1.708-2.37,2.644-3.969,3.418a27.632,27.632,0,0,1-6.022,2.123,18.042,18.042,0,0,1-11.988-1.125c-.342-.169-.042-.68.3-.511a17.387,17.387,0,0,0,11.532,1.065,26.763,26.763,0,0,0,5.421-1.845c1.658-.766,3.465-1.65,4.217-3.423.149-.35.659-.048.512.3Z" transform="translate(-606.91 -405.753)" fill="#fff"/>
                  </g>
                </g>
                <g id="Grupo_1216620" data-name="Grupo 1216620" transform="translate(71.222 9.732)">
                  <g id="Grupo_1216619" data-name="Grupo 1216619" transform="translate(0)">
                    <path id="Trazado_1163380" data-name="Trazado 1163380" d="M541.784,429.794a21.387,21.387,0,0,1-5.684-11.2c-.064-.373.506-.533.571-.158a20.845,20.845,0,0,0,5.531,10.937c.264.274-.154.694-.419.419Z" transform="translate(-536.095 -418.225)" fill="#fff"/>
                  </g>
                </g>
              </g>
            </g>
            <g id="Grupo_1216657" data-name="Grupo 1216657" transform="translate(72.456 4.128)">
              <g id="Grupo_1216626" data-name="Grupo 1216626" transform="translate(0)">
                <g id="Grupo_1216623" data-name="Grupo 1216623" transform="translate(0 51.55)">
                  <path id="Trazado_1163381" data-name="Trazado 1163381" d="M528.966,269.089l-22.656,2.888s19.306,16.7,38.546,11.207c.677-.194,3.188-2.776,3.188-2.776l-10.337-8.43Z" transform="translate(-506.31 -269.089)" fill="#fcc0b4"/>
                </g>
                <g id="Grupo_1216624" data-name="Grupo 1216624" transform="translate(16.732)">
                  <path id="Trazado_1163382" data-name="Trazado 1163382" d="M492.965,223.111c-.037-5.3.534-10.907,3.663-15.184a11.7,11.7,0,0,1,10.546-4.818,11.867,11.867,0,0,1,4.365,1.094c1.664,1.024,2.89,3.1,3.852,4.736a24.519,24.519,0,0,1,2.542,6.067,5.848,5.848,0,0,1,2.463-1.123c3.542-.688,7.046,2.017,7.828,6.041s-1.455,7.844-5,8.533a5.866,5.866,0,0,1-2.993-.211,14.47,14.47,0,0,1-5.938,13.211,28.14,28.14,0,0,1-6.271,2.956c-2.584.967-5.439,1.941-8.035,1.006-3.415-1.229-4.912-5.179-5.655-8.731A68.588,68.588,0,0,1,492.965,223.111Z" transform="translate(-492.963 -203.024)" fill="#fcc0b4"/>
                </g>
                <g id="Grupo_1216625" data-name="Grupo 1216625" transform="translate(19.404 24.831)">
                  <path id="Trazado_1163383" data-name="Trazado 1163383" d="M527.865,234.847a40.354,40.354,0,0,1-1.965,11.3c-.084.274-3.058,2.825-3.146,3.1-2.146,6.649-2.824,12.039-6.24,18.162a57.892,57.892,0,0,1-13.733-1.987c4.281-4.285,6.918-10.549,9.222-16.15a40.616,40.616,0,0,1,4.585-8.362,13.618,13.618,0,0,1,7.69-5.125C525.426,235.5,527.647,236.008,527.865,234.847Z" transform="translate(-502.781 -234.847)" fill="#fcc0b4"/>
                </g>
              </g>
              <g id="Grupo_1216656" data-name="Grupo 1216656" transform="translate(18.002 11.887)">
                <g id="Grupo_1216653" data-name="Grupo 1216653" transform="translate(0)">
                  <g id="Grupo_1216633" data-name="Grupo 1216633" transform="translate(0 6.158)">
                    <g id="Grupo_1216629" data-name="Grupo 1216629" transform="translate(13.043)">
                      <g id="Grupo_1216627" data-name="Grupo 1216627" transform="translate(0 0.001)">
                        <path id="Trazado_1163384" data-name="Trazado 1163384" d="M514.1,229.93a3.779,3.779,0,0,1-3.779-3.779h7.558A3.779,3.779,0,0,1,514.1,229.93Z" transform="translate(-510.323 -226.151)" fill="#fff"/>
                      </g>
                      <g id="Grupo_1216628" data-name="Grupo 1216628" transform="translate(3.876)">
                        <path id="Trazado_1163385" data-name="Trazado 1163385" d="M511.9,226.15h1.874a1.408,1.408,0,1,1-1.874,0Z" transform="translate(-511.434 -226.15)" fill="#301b1b"/>
                      </g>
                    </g>
                    <g id="Grupo_1216632" data-name="Grupo 1216632">
                      <g id="Grupo_1216630" data-name="Grupo 1216630" transform="translate(0 0.001)">
                        <path id="Trazado_1163386" data-name="Trazado 1163386" d="M530.818,229.93a3.779,3.779,0,0,1-3.779-3.779H534.6A3.779,3.779,0,0,1,530.818,229.93Z" transform="translate(-527.039 -226.151)" fill="#fff"/>
                      </g>
                      <g id="Grupo_1216631" data-name="Grupo 1216631" transform="translate(3.877)">
                        <path id="Trazado_1163387" data-name="Trazado 1163387" d="M528.62,226.15h1.874a1.408,1.408,0,1,1-1.874,0Z" transform="translate(-528.149 -226.15)" fill="#301b1b"/>
                      </g>
                    </g>
                  </g>
                  <g id="Grupo_1216638" data-name="Grupo 1216638" transform="translate(26.826 2.241)">
                    <g id="Grupo_1216635" data-name="Grupo 1216635" transform="translate(0)">
                      <g id="Grupo_1216634" data-name="Grupo 1216634">
                        <path id="Trazado_1163388" data-name="Trazado 1163388" d="M498.176,221.13c1.572.1,2.576,1.758,2.964,3.127a5.988,5.988,0,0,1-.494,4.484c-.183.334-.694.036-.511-.3a5.355,5.355,0,0,0,.489-3.819c-.278-1.144-1.1-2.814-2.449-2.9-.378-.024-.382-.616,0-.591Z" transform="translate(-497.891 -221.129)" fill="#301b1b"/>
                      </g>
                    </g>
                    <g id="Grupo_1216637" data-name="Grupo 1216637" transform="translate(0.356 3.266)">
                      <g id="Grupo_1216636" data-name="Grupo 1216636" transform="translate(0)">
                        <path id="Trazado_1163389" data-name="Trazado 1163389" d="M500.986,225.862a3.514,3.514,0,0,0-1.958,2.947c-.018.379-.61.382-.592,0a4.105,4.105,0,0,1,2.251-3.458.3.3,0,0,1,.4.106.3.3,0,0,1-.106.4Z" transform="translate(-498.436 -225.315)" fill="#301b1b"/>
                      </g>
                    </g>
                  </g>
                  <g id="Grupo_1216640" data-name="Grupo 1216640" transform="translate(7.133 11.386)">
                    <g id="Grupo_1216639" data-name="Grupo 1216639" transform="translate(0)">
                      <path id="Trazado_1163390" data-name="Trazado 1163390" d="M525.771,233.441a1.485,1.485,0,0,0-1.509,1.2,1.2,1.2,0,0,0,.995,1.389,1.1,1.1,0,0,0,.963-.364.3.3,0,0,1,.419.419,1.722,1.722,0,0,1-2.482.024,1.92,1.92,0,0,1,.075-2.641,2.193,2.193,0,0,1,1.54-.619.3.3,0,0,1,0,.592Z" transform="translate(-523.666 -232.849)" fill="#301b1b"/>
                    </g>
                  </g>
                  <g id="Grupo_1216644" data-name="Grupo 1216644" transform="translate(9.396 13.639)">
                    <g id="Grupo_1216641" data-name="Grupo 1216641" transform="translate(0 0)">
                      <ellipse id="Elipse_14385" data-name="Elipse 14385" cx="2.186" cy="3.092" rx="2.186" ry="3.092" transform="matrix(-0.783, -0.622, 0.622, -0.783, 3.423, 7.561)" fill="#301b1b"/>
                    </g>
                    <g id="Grupo_1216642" data-name="Grupo 1216642" transform="translate(1.495 3.787)">
                      <path id="Trazado_1163391" data-name="Trazado 1163391" d="M521.946,242.213a2.883,2.883,0,0,0-2.735-1.618,1.637,1.637,0,0,0,.609,2.147A1.91,1.91,0,0,0,521.946,242.213Z" transform="translate(-519.031 -240.59)" fill="#f47471"/>
                    </g>
                    <g id="Grupo_1216643" data-name="Grupo 1216643" transform="translate(3.93 1.422)">
                      <path id="Trazado_1163392" data-name="Trazado 1163392" d="M519.1,238.76s-1.325.659-1.939-1.093C517.162,237.667,518.433,237.051,519.1,238.76Z" transform="translate(-517.162 -237.559)" fill="#fff"/>
                    </g>
                  </g>
                  <g id="Grupo_1216646" data-name="Grupo 1216646" transform="translate(9.639 20.355)">
                    <g id="Grupo_1216645" data-name="Grupo 1216645" transform="translate(0)">
                      <path id="Trazado_1163393" data-name="Trazado 1163393" d="M523.327,246.171a3.334,3.334,0,0,1-1.964-1.383.3.3,0,0,1,.106-.4.3.3,0,0,1,.4.106c.026.038.053.076.08.114.012.016.023.031,0,.007.014.019.029.037.044.055.056.068.115.134.177.2s.133.13.2.19l.043.036s.06.047.036.029l.037.027.057.041a2.97,2.97,0,0,0,.46.261l.064.028c-.029-.012-.013-.005.006,0,.043.016.087.034.13.048.088.03.177.055.268.078a.3.3,0,1,1-.156.57Z" transform="translate(-521.322 -244.344)" fill="#301b1b"/>
                    </g>
                  </g>
                  <g id="Grupo_1216648" data-name="Grupo 1216648" transform="translate(8.301 23.292)">
                    <g id="Grupo_1216647" data-name="Grupo 1216647" transform="translate(0)">
                      <path id="Trazado_1163394" data-name="Trazado 1163394" d="M504.124,255.671c5.848-.577,12.961-2.266,16.512-7.431.215-.312.728-.016.511.3-3.686,5.362-10.939,7.122-17.023,7.723-.378.038-.376-.554,0-.591Z" transform="translate(-503.841 -248.108)" fill="#301b1b"/>
                    </g>
                  </g>
                  <g id="Grupo_1216650" data-name="Grupo 1216650" transform="translate(12.511 0.045)">
                    <g id="Grupo_1216649" data-name="Grupo 1216649" transform="translate(0)">
                      <path id="Trazado_1163395" data-name="Trazado 1163395" d="M517.8,219.427a44.288,44.288,0,0,0-7.7.041c-.617.057-.613-.907,0-.964a44.283,44.283,0,0,1,7.7-.041c.613.05.619,1.014,0,.964Z" transform="translate(-509.64 -218.316)" fill="#301b1b"/>
                    </g>
                  </g>
                  <g id="Grupo_1216652" data-name="Grupo 1216652" transform="translate(0.303)">
                    <g id="Grupo_1216651" data-name="Grupo 1216651" transform="translate(0)">
                      <path id="Trazado_1163396" data-name="Trazado 1163396" d="M534.084,219.223a30.562,30.562,0,0,0-5.3.907.482.482,0,0,1-.256-.929,32.042,32.042,0,0,1,5.555-.941c.618-.05.615.914,0,.964Z" transform="translate(-528.188 -218.258)" fill="#301b1b"/>
                    </g>
                  </g>
                </g>
                <g id="Grupo_1216655" data-name="Grupo 1216655" transform="translate(11.945 44.188)">
                  <g id="Grupo_1216654" data-name="Grupo 1216654" transform="translate(0)">
                    <path id="Trazado_1163397" data-name="Trazado 1163397" d="M520.273,275.472a12.453,12.453,0,0,1-2.825.453c-.381.017-.38-.575,0-.592a11.744,11.744,0,0,0,2.667-.432.3.3,0,0,1,.158.571Z" transform="translate(-517.163 -274.888)" fill="#301b1b"/>
                  </g>
                </g>
              </g>
            </g>
            <g id="Grupo_1216658" data-name="Grupo 1216658" transform="translate(18.161 57.245)">
              <path id="Trazado_1163398" data-name="Trazado 1163398" d="M480.972,359.581c12.267-18,18.225-51.389,21.811-72.413-5.624,2.07-5.594,1.481-11.656,4.6a45.2,45.2,0,0,1,10.582-11.132c10.138-7.253,24.358-8.352,37.107-9.544a30.9,30.9,0,0,0,16.274,10.714c6.554,1.614,12.506-1.007,17.649-5.1,10.7,10.211,20.084,24.329,24.034,38.075-5.745.347-11.583.868-17.329,1.214-1.272,5.9-1.959,11.979-3.231,17.877a42.15,42.15,0,0,1-3.009,9.907c-1.317,2.671,6.874,5.151,5.416,7.76-4.81,8.607-5.742,20.325-5.617,30.015-14.323,5.083-39.082,4.738-53.958,1.267S490.978,370.34,480.972,359.581Z" transform="translate(-480.972 -271.097)" fill="#5bafbb"/>
            </g>
            <g id="Grupo_1216659" data-name="Grupo 1216659" transform="translate(28.318 73.315)">
              <path id="Trazado_1163399" data-name="Trazado 1163399" d="M601.424,296.3l8.788,7.74,2.868-12.346S609.079,292.508,601.424,296.3Z" transform="translate(-601.424 -291.692)" fill="#2a7d7f"/>
            </g>
            <g id="Grupo_1216662" data-name="Grupo 1216662" transform="translate(90.062 26.295)">
              <g id="Grupo_1216660" data-name="Grupo 1216660" transform="translate(15.661)">
                <ellipse id="Elipse_14386" data-name="Elipse 14386" cx="3.543" cy="2.02" rx="3.543" ry="2.02" transform="translate(0)" fill="#f47471"/>
              </g>
              <g id="Grupo_1216661" data-name="Grupo 1216661" transform="translate(0 0.644)">
                <ellipse id="Elipse_14387" data-name="Elipse 14387" cx="3.43" cy="2.02" rx="3.43" ry="2.02" fill="#f47471"/>
              </g>
            </g>
            <g id="Grupo_1216695" data-name="Grupo 1216695" transform="translate(38.303 61.487)">
              <g id="Grupo_1216664" data-name="Grupo 1216664" transform="translate(27.343)">
                <g id="Grupo_1216663" data-name="Grupo 1216663" transform="translate(0)">
                  <path id="Trazado_1163400" data-name="Trazado 1163400" d="M565.614,280.387a1.928,1.928,0,0,1,0-3.853c2.479,0,2.484,3.853,0,3.853Z" transform="translate(-563.753 -276.534)" fill="#ffdcc5"/>
                </g>
              </g>
              <g id="Grupo_1216666" data-name="Grupo 1216666" transform="translate(6.836 4.423)">
                <g id="Grupo_1216665" data-name="Grupo 1216665" transform="translate(0)">
                  <path id="Trazado_1163401" data-name="Trazado 1163401" d="M591.9,286.055a1.928,1.928,0,0,1,0-3.853c2.479,0,2.483,3.853,0,3.853Z" transform="translate(-590.034 -282.202)" fill="#ffdcc5"/>
                </g>
              </g>
              <g id="Grupo_1216668" data-name="Grupo 1216668" transform="translate(44.231 6.835)">
                <g id="Grupo_1216667" data-name="Grupo 1216667" transform="translate(0)">
                  <path id="Trazado_1163402" data-name="Trazado 1163402" d="M543.971,289.147a1.928,1.928,0,0,1,0-3.853,1.928,1.928,0,0,1,0,3.853Z" transform="translate(-542.11 -285.294)" fill="#ffdcc5"/>
                </g>
              </g>
              <g id="Grupo_1216670" data-name="Grupo 1216670" transform="translate(77.539 18.897)">
                <g id="Grupo_1216669" data-name="Grupo 1216669" transform="translate(0)">
                  <path id="Trazado_1163403" data-name="Trazado 1163403" d="M500.148,300.753h.8a1.982,1.982,0,0,1,1.927,1.927c-.023.171-.046.342-.069.512a1.928,1.928,0,0,1-.5.851l-.39.3a1.918,1.918,0,0,1-.972.263h-.8a1.982,1.982,0,0,1-1.927-1.927c.023-.171.046-.342.069-.512a1.929,1.929,0,0,1,.5-.851l.39-.3a1.922,1.922,0,0,1,.972-.263Z" transform="translate(-498.221 -300.751)" fill="#ffdcc5"/>
                </g>
              </g>
              <g id="Grupo_1216672" data-name="Grupo 1216672" transform="translate(52.273 43.829)">
                <g id="Grupo_1216671" data-name="Grupo 1216671" transform="translate(0)">
                  <path id="Trazado_1163404" data-name="Trazado 1163404" d="M533.665,336.557a1.928,1.928,0,0,1,0-3.853,1.928,1.928,0,0,1,0,3.853Z" transform="translate(-531.804 -332.704)" fill="#ffdcc5"/>
                </g>
              </g>
              <g id="Grupo_1216674" data-name="Grupo 1216674" transform="translate(6.836 52.273)">
                <g id="Grupo_1216673" data-name="Grupo 1216673" transform="translate(0)">
                  <path id="Trazado_1163405" data-name="Trazado 1163405" d="M591.9,347.378a1.928,1.928,0,0,1,0-3.853c2.479,0,2.483,3.853,0,3.853Z" transform="translate(-590.034 -343.525)" fill="#ffdcc5"/>
                </g>
              </g>
              <g id="Grupo_1216676" data-name="Grupo 1216676" transform="translate(29.353 51.469)">
                <g id="Grupo_1216675" data-name="Grupo 1216675" transform="translate(0)">
                  <path id="Trazado_1163406" data-name="Trazado 1163406" d="M563.038,346.348a1.928,1.928,0,0,1,0-3.853,1.928,1.928,0,0,1,0,3.853Z" transform="translate(-561.177 -342.495)" fill="#ffdcc5"/>
                </g>
              </g>
              <g id="Grupo_1216678" data-name="Grupo 1216678" transform="translate(65.542 33.777)">
                <g id="Grupo_1216677" data-name="Grupo 1216677" transform="translate(0)">
                  <path id="Trazado_1163407" data-name="Trazado 1163407" d="M516.659,323.674a1.928,1.928,0,0,1,0-3.853,1.928,1.928,0,0,1,0,3.853Z" transform="translate(-514.798 -319.821)" fill="#ffdcc5"/>
                </g>
              </g>
              <g id="Grupo_1216680" data-name="Grupo 1216680" transform="translate(59.444 53.075)">
                <g id="Grupo_1216679" data-name="Grupo 1216679" transform="translate(0)">
                  <path id="Trazado_1163408" data-name="Trazado 1163408" d="M523.854,344.555h.4a1.982,1.982,0,0,1,1.927,1.927c-.023.171-.046.342-.069.512a1.929,1.929,0,0,1-.5.85l-.39.3a1.918,1.918,0,0,1-.972.263h-.4a1.982,1.982,0,0,1-1.927-1.927c.023-.171.046-.342.069-.512a1.928,1.928,0,0,1,.5-.85l.39-.3a1.924,1.924,0,0,1,.972-.263Z" transform="translate(-521.926 -344.553)" fill="#ffdcc5"/>
                </g>
              </g>
              <g id="Grupo_1216682" data-name="Grupo 1216682" transform="translate(7.975 94.491)">
                <g id="Grupo_1216681" data-name="Grupo 1216681" transform="translate(0)">
                  <path id="Trazado_1163409" data-name="Trazado 1163409" d="M590.218,401.487h-.4a1.982,1.982,0,0,1-1.927-1.927c.023-.171.046-.342.069-.512a1.929,1.929,0,0,1,.5-.851l.39-.3a1.918,1.918,0,0,1,.972-.263h.4a1.982,1.982,0,0,1,1.927,1.927c-.023.171-.046.342-.069.512a1.925,1.925,0,0,1-.5.851l-.39.3a1.923,1.923,0,0,1-.972.263Z" transform="translate(-587.888 -397.631)" fill="#ffdcc5"/>
                </g>
              </g>
              <g id="Grupo_1216684" data-name="Grupo 1216684" transform="translate(46.644 98.916)">
                <g id="Grupo_1216683" data-name="Grupo 1216683" transform="translate(0)">
                  <path id="Trazado_1163410" data-name="Trazado 1163410" d="M540.879,407.155a1.928,1.928,0,0,1,0-3.853,1.928,1.928,0,0,1,0,3.853Z" transform="translate(-539.018 -403.302)" fill="#ffdcc5"/>
                </g>
              </g>
              <g id="Grupo_1216686" data-name="Grupo 1216686" transform="translate(60.416 87.758)">
                <g id="Grupo_1216685" data-name="Grupo 1216685" transform="translate(0)">
                  <path id="Trazado_1163411" data-name="Trazado 1163411" d="M523.229,392.855a1.928,1.928,0,0,1,0-3.853c2.479,0,2.484,3.853,0,3.853Z" transform="translate(-521.368 -389.002)" fill="#ffdcc5"/>
                </g>
              </g>
              <g id="Grupo_1216688" data-name="Grupo 1216688" transform="translate(61.999 99.512)">
                <g id="Grupo_1216687" data-name="Grupo 1216687" transform="translate(0)">
                  <path id="Trazado_1163412" data-name="Trazado 1163412" d="M521.2,407.919a1.928,1.928,0,0,1,0-3.853c2.479,0,2.484,3.853,0,3.853Z" transform="translate(-519.339 -404.066)" fill="#ffdcc5"/>
                </g>
              </g>
              <g id="Grupo_1216690" data-name="Grupo 1216690" transform="translate(0 87.255)">
                <g id="Grupo_1216689" data-name="Grupo 1216689" transform="translate(0)">
                  <path id="Trazado_1163413" data-name="Trazado 1163413" d="M600.656,392.211a1.928,1.928,0,0,1,0-3.853,1.928,1.928,0,0,1,0,3.853Z" transform="translate(-598.794 -388.358)" fill="#ffdcc5"/>
                </g>
              </g>
              <g id="Grupo_1216692" data-name="Grupo 1216692" transform="translate(24.93 100.524)">
                <g id="Grupo_1216691" data-name="Grupo 1216691" transform="translate(0)">
                  <path id="Trazado_1163414" data-name="Trazado 1163414" d="M568.706,409.216a1.928,1.928,0,0,1,0-3.853,1.928,1.928,0,0,1,0,3.853Z" transform="translate(-566.844 -405.363)" fill="#ffdcc5"/>
                </g>
              </g>
              <g id="Grupo_1216694" data-name="Grupo 1216694" transform="translate(30.895 67.953)">
                <g id="Grupo_1216693" data-name="Grupo 1216693" transform="translate(0)">
                  <path id="Trazado_1163415" data-name="Trazado 1163415" d="M562.884,365.548v.4a1.982,1.982,0,0,1-1.927,1.927l-.512-.069a1.93,1.93,0,0,1-.851-.5l-.3-.39a1.918,1.918,0,0,1-.263-.972v-.4a1.981,1.981,0,0,1,1.927-1.927l.512.069a1.93,1.93,0,0,1,.851.5l.3.39a1.92,1.92,0,0,1,.264.972Z" transform="translate(-559.029 -363.621)" fill="#ffdcc5"/>
                </g>
              </g>
            </g>
            <g id="Grupo_1216728" data-name="Grupo 1216728" transform="translate(35.618 24.431)">
              <g id="Grupo_1216696" data-name="Grupo 1216696" transform="translate(0)">
                <path id="Trazado_1163416" data-name="Trazado 1163416" d="M479.032,277.928c-1.354,5.99-2.913,11.99-4.036,18.027-1.255,6.743,1.167,14.893,7.554,17.394,3.213,1.259,6.824.876,10.205.188,19.756-4.021,44.292-17.522,59.448-30.818l8.4-7.369a21.224,21.224,0,0,0,5.139-5.761c1.975-3.761,1.521-8.262,1.524-12.51a7.719,7.719,0,0,1,1.032-4.565c1.055-1.467,2.923-2.077,4.316-3.229s2.135-3.614.63-4.614a24.306,24.306,0,0,1,2.735-3.445,7.416,7.416,0,0,0,1.936-3.884,3.3,3.3,0,0,0-2.04-3.514c-1.408-.416-3.137.977-2.7,2.378,1.022-2.111,1.908-4.988.12-6.506a3.5,3.5,0,0,0-4.014-.053,7.625,7.625,0,0,0-2.633,3.319,19.541,19.541,0,0,0-1.87,7.356c-3,1.371-6.32,3.1-7.228,6.27a15.184,15.184,0,0,0-.21,4.526,24.268,24.268,0,0,1-14.775,22.438c-12.944,5.237-19.268,5.88-32.567,10.136,1.186-3.322.849-5.573,2.944-9.888C505.015,273.839,486.177,274.489,479.032,277.928Z" transform="translate(-474.676 -229.043)" fill="#fcc0b4"/>
              </g>
              <g id="Grupo_1216727" data-name="Grupo 1216727" transform="translate(6.222 0.01)">
                <g id="Grupo_1216719" data-name="Grupo 1216719" transform="translate(76.416)">
                  <g id="Grupo_1216698" data-name="Grupo 1216698" transform="translate(0 14.432)">
                    <g id="Grupo_1216697" data-name="Grupo 1216697">
                      <path id="Trazado_1163417" data-name="Trazado 1163417" d="M484.224,269.6c1.858-2.313,1.018-5.476,1.274-8.19a7.253,7.253,0,0,1,.921-3.152,5.817,5.817,0,0,1,2.786-2.127,19.464,19.464,0,0,0,3.789-2.243c1.2-.921,3.067-2.358,2.684-4.1-.449-2.035-3.393-1.67-4.937-1.427A20.776,20.776,0,0,0,486.4,249.6c-2.811,1.106-5.684,2.925-6.494,6.021a.3.3,0,0,1-.571-.158c.725-2.772,3.008-4.622,5.5-5.822,2.731-1.316,6.463-2.633,9.517-1.866a2.421,2.421,0,0,1,1.967,2.407c0,1.472-1.086,2.6-2.132,3.5a18.982,18.982,0,0,1-4.372,2.819,8.061,8.061,0,0,0-2.225,1.252,4.765,4.765,0,0,0-1.3,2.431c-.776,3.268.643,6.984-1.645,9.832-.239.3-.655-.124-.419-.418Z" transform="translate(-479.323 -247.551)" fill="#301b1b"/>
                    </g>
                  </g>
                  <g id="Grupo_1216700" data-name="Grupo 1216700" transform="translate(7.201 9.303)">
                    <g id="Grupo_1216699" data-name="Grupo 1216699" transform="translate(0)">
                      <path id="Trazado_1163418" data-name="Trazado 1163418" d="M479.025,242.42a37.938,37.938,0,0,1,4.768-1.338,5.2,5.2,0,0,1,3.7.569,3,3,0,0,1,1.5,2.722,2.922,2.922,0,0,1-1.8,2.444c-.351.147-.5-.425-.158-.571a2.3,2.3,0,0,0,1.348-2.429,2.83,2.83,0,0,0-1.981-2.037,6.1,6.1,0,0,0-3.492.1c-1.255.325-2.49.737-3.73,1.113-.365.111-.521-.46-.157-.571Z" transform="translate(-478.818 -240.979)" fill="#301b1b"/>
                    </g>
                  </g>
                  <g id="Grupo_1216702" data-name="Grupo 1216702" transform="translate(14.222 2.347)">
                    <g id="Grupo_1216701" data-name="Grupo 1216701" transform="translate(0)">
                      <path id="Trazado_1163419" data-name="Trazado 1163419" d="M482.038,232.35a9.9,9.9,0,0,1-2.452,6.754c-.251.287-.669-.133-.419-.419a9.287,9.287,0,0,0,2.278-6.336.3.3,0,0,1,.593,0Z" transform="translate(-479.091 -232.064)" fill="#301b1b"/>
                    </g>
                  </g>
                  <g id="Grupo_1216704" data-name="Grupo 1216704" transform="translate(9.327)">
                    <g id="Grupo_1216703" data-name="Grupo 1216703" transform="translate(0)">
                      <path id="Trazado_1163420" data-name="Trazado 1163420" d="M487.742,229.352a4.583,4.583,0,0,1-1.557,3.137,3.161,3.161,0,0,1-3.27.465c-.346-.16-.045-.67.3-.511a2.565,2.565,0,0,0,2.655-.456,4.02,4.02,0,0,0,1.281-2.634.3.3,0,0,1,.3-.3.3.3,0,0,1,.3.3Z" transform="translate(-482.762 -229.056)" fill="#301b1b"/>
                    </g>
                  </g>
                  <g id="Grupo_1216706" data-name="Grupo 1216706" transform="translate(16.131 5.202)">
                    <g id="Grupo_1216705" data-name="Grupo 1216705" transform="translate(0)">
                      <path id="Trazado_1163421" data-name="Trazado 1163421" d="M479.5,236.1a2.143,2.143,0,0,1-3.125,1.357c-.321-.2-.024-.716.3-.511a1.548,1.548,0,0,0,2.255-1,.3.3,0,0,1,.364-.207.3.3,0,0,1,.207.364Z" transform="translate(-476.236 -235.723)" fill="#301b1b"/>
                    </g>
                  </g>
                  <g id="Grupo_1216708" data-name="Grupo 1216708" transform="translate(12.943 9.574)">
                    <g id="Grupo_1216707" data-name="Grupo 1216707" transform="translate(0)">
                      <path id="Trazado_1163422" data-name="Trazado 1163422" d="M483.18,243.773a3.806,3.806,0,0,1-2.684-.2,2,2,0,0,1-1.049-2.035.3.3,0,0,1,.364-.207.3.3,0,0,1,.207.364,1.435,1.435,0,0,0,.865,1.414,3.294,3.294,0,0,0,2.14.088c.372-.08.531.491.158.571Z" transform="translate(-479.421 -241.326)" fill="#301b1b"/>
                    </g>
                  </g>
                  <g id="Grupo_1216710" data-name="Grupo 1216710" transform="translate(12.092 14.407)">
                    <g id="Grupo_1216709" data-name="Grupo 1216709" transform="translate(0)">
                      <path id="Trazado_1163423" data-name="Trazado 1163423" d="M484.178,250.059a3.477,3.477,0,0,1-3.214.1,2.2,2.2,0,0,1-1.081-2.431.3.3,0,0,1,.571.158,1.616,1.616,0,0,0,.856,1.79,2.892,2.892,0,0,0,2.569-.126c.343-.164.643.346.3.51Z" transform="translate(-479.809 -247.519)" fill="#301b1b"/>
                    </g>
                  </g>
                  <g id="Grupo_1216712" data-name="Grupo 1216712" transform="translate(3.738 14.101)">
                    <g id="Grupo_1216711" data-name="Grupo 1216711" transform="translate(0)">
                      <path id="Trazado_1163424" data-name="Trazado 1163424" d="M495.473,248.4l-.3-.9a.3.3,0,0,1,.207-.364.3.3,0,0,1,.364.207q.151.452.3.9a.3.3,0,0,1-.207.364.3.3,0,0,1-.364-.207Z" transform="translate(-495.159 -247.127)" fill="#301b1b"/>
                    </g>
                  </g>
                  <g id="Grupo_1216714" data-name="Grupo 1216714" transform="translate(2.836 14.854)">
                    <g id="Grupo_1216713" data-name="Grupo 1216713" transform="translate(0)">
                      <path id="Trazado_1163425" data-name="Trazado 1163425" d="M496.674,248.918c-.05-.151-.1-.3-.151-.453a.224.224,0,0,1-.005-.118.215.215,0,0,1,.035-.11.3.3,0,0,1,.177-.136.3.3,0,0,1,.228.03.319.319,0,0,1,.136.177c.05.151.1.3.151.453a.224.224,0,0,1,.005.118.215.215,0,0,1-.035.11.3.3,0,0,1-.177.136.3.3,0,0,1-.228-.03.327.327,0,0,1-.136-.177Z" transform="translate(-496.513 -248.093)" fill="#301b1b"/>
                    </g>
                  </g>
                  <g id="Grupo_1216716" data-name="Grupo 1216716" transform="translate(3.908 20.578)">
                    <g id="Grupo_1216715" data-name="Grupo 1216715" transform="translate(0)">
                      <path id="Trazado_1163426" data-name="Trazado 1163426" d="M495.26,256.649l-.4-.78a.309.309,0,0,1-.03-.228.3.3,0,0,1,.541-.071l.4.78a.309.309,0,0,1,.03.228.3.3,0,0,1-.541.071Z" transform="translate(-494.818 -255.428)" fill="#301b1b"/>
                    </g>
                  </g>
                  <g id="Grupo_1216718" data-name="Grupo 1216718" transform="translate(4.8 19.531)">
                    <g id="Grupo_1216717" data-name="Grupo 1216717" transform="translate(0)">
                      <path id="Trazado_1163427" data-name="Trazado 1163427" d="M494.108,255.433q-.226-.452-.453-.9a.3.3,0,1,1,.511-.3q.226.452.453.9a.3.3,0,0,1-.511.3Z" transform="translate(-493.62 -254.087)" fill="#301b1b"/>
                    </g>
                  </g>
                </g>
                <g id="Grupo_1216726" data-name="Grupo 1216726" transform="translate(0 53.516)">
                  <g id="Grupo_1216721" data-name="Grupo 1216721" transform="translate(2.381)">
                    <g id="Grupo_1216720" data-name="Grupo 1216720" transform="translate(0)">
                      <path id="Trazado_1163428" data-name="Trazado 1163428" d="M587.3,298.215c-10.01,1.426-20.211,2.91-29.394,7.385-.341.166-.641-.344-.3-.511,9.235-4.5,19.467-6.011,29.536-7.446.373-.053.534.517.158.571Z" transform="translate(-557.458 -297.641)" fill="#301b1b"/>
                    </g>
                  </g>
                  <g id="Grupo_1216723" data-name="Grupo 1216723" transform="translate(2.865 3.395)">
                    <g id="Grupo_1216722" data-name="Grupo 1216722" transform="translate(0)">
                      <path id="Trazado_1163429" data-name="Trazado 1163429" d="M593.457,302.566a21.457,21.457,0,0,0-5.327,1.493c-.346.148-.648-.361-.3-.511a22.007,22.007,0,0,1,5.468-1.554c.373-.054.534.517.158.571Z" transform="translate(-587.676 -301.991)" fill="#301b1b"/>
                    </g>
                  </g>
                  <g id="Grupo_1216725" data-name="Grupo 1216725" transform="translate(0 26.129)">
                    <g id="Grupo_1216724" data-name="Grupo 1216724">
                      <path id="Trazado_1163430" data-name="Trazado 1163430" d="M596.5,334.231a1.318,1.318,0,0,0-.041-1.433,2.289,2.289,0,0,0-1.312-.883,5.046,5.046,0,0,0-3.614.338c-.341.167-.641-.343-.3-.511a5.548,5.548,0,0,1,4.385-.288,2.622,2.622,0,0,1,1.461,1.25,1.871,1.871,0,0,1-.069,1.826c-.209.317-.722.02-.512-.3Z" transform="translate(-591.085 -331.127)" fill="#301b1b"/>
                    </g>
                  </g>
                </g>
              </g>
            </g>
            <g id="Grupo_1216760" data-name="Grupo 1216760" transform="translate(24.509 100.893)">
              <g id="Grupo_1216729" data-name="Grupo 1216729" transform="translate(0)">
                <path id="Trazado_1163431" data-name="Trazado 1163431" d="M549.472,328.255c-2.354,8.784-2.752,13.749-3.793,16.077-14.627,7.37-29.716,20.547-45.678,18.179-2.5-.371-4.524-2.312-6.386-4.168l-8.179-8.146c-1.666-1.66-3.411-3.369-5.572-4.075-4.482-1.466-9.07,1.792-12.458,5.317a6.85,6.85,0,0,0-1.829,2.716,2.658,2.658,0,0,0,.877,2.988c1.327.767,2.977-.478,3.979-1.7-1.219,1.531-2.883,2.669-3.764,4.455s-.389,4.629,1.444,4.954c1.9.336,3.069-1.987,4.96-2.351a4.308,4.308,0,0,0-2.232,4.555,3.964,3.964,0,0,0,3.64,3.3,10.855,10.855,0,0,0,2.991-.723,10.345,10.345,0,0,1,11.562,5.112A14.879,14.879,0,0,0,490.6,377.4c1.759,2.01,4.7,1.8,7.222,1.436,10.515-1.507,54.482-9.433,65.328-12.673,4.443-1.327,7.582-6.636,9.624-11.146,6.094-13.455.183-12.549,3.956-26.984C566.273,326.215,560.178,327.244,549.472,328.255Z" transform="translate(-465.452 -327.035)" fill="#fcc0b4"/>
              </g>
              <g id="Grupo_1216759" data-name="Grupo 1216759" transform="translate(0.026 16.148)">
                <g id="Grupo_1216731" data-name="Grupo 1216731" transform="translate(86.942)">
                  <g id="Grupo_1216730" data-name="Grupo 1216730" transform="translate(0)">
                    <path id="Trazado_1163432" data-name="Trazado 1163432" d="M507.818,348.322a19.186,19.186,0,0,0-5.329,1.018c-.361.123-.517-.448-.158-.571a19.774,19.774,0,0,1,5.486-1.039c.381-.017.38.575,0,.592Z" transform="translate(-502.128 -347.73)" fill="#301b1b"/>
                  </g>
                </g>
                <g id="Grupo_1216758" data-name="Grupo 1216758" transform="translate(0 4.179)">
                  <g id="Grupo_1216733" data-name="Grupo 1216733" transform="translate(36.984 16.785)">
                    <g id="Grupo_1216732" data-name="Grupo 1216732" transform="translate(0)">
                      <path id="Trazado_1163433" data-name="Trazado 1163433" d="M573.527,374.811a5.065,5.065,0,0,1,.068,1.492.3.3,0,0,1-.3.3.3.3,0,0,1-.3-.3,4.807,4.807,0,0,0,.025-.7c0-.114-.013-.227-.025-.34l-.009-.081c.008.063,0-.016,0-.03-.009-.063-.02-.126-.033-.188a.3.3,0,1,1,.57-.158Z" transform="translate(-572.95 -374.596)" fill="#301b1b"/>
                    </g>
                  </g>
                  <g id="Grupo_1216735" data-name="Grupo 1216735" transform="translate(35.646 16.177)">
                    <g id="Grupo_1216734" data-name="Grupo 1216734" transform="translate(0)">
                      <path id="Trazado_1163434" data-name="Trazado 1163434" d="M575.212,374.194q-.235.709-.471,1.418a.3.3,0,0,1-.571-.158q.235-.709.471-1.418a.3.3,0,0,1,.571.158Z" transform="translate(-574.156 -373.817)" fill="#301b1b"/>
                    </g>
                  </g>
                  <g id="Grupo_1216737" data-name="Grupo 1216737" transform="translate(5.682 11.896)">
                    <g id="Grupo_1216736" data-name="Grupo 1216736">
                      <path id="Trazado_1163435" data-name="Trazado 1163435" d="M592.867,374.349a9.8,9.8,0,0,1,6.936-5.818c3.569-.845,6.607,1.121,9.365,3.141.3.223.009.737-.3.511-2.523-1.848-5.351-3.8-8.643-3.14a9.232,9.232,0,0,0-6.788,5.463c-.129.356-.7.2-.571-.157Z" transform="translate(-592.848 -368.33)" fill="#301b1b"/>
                    </g>
                  </g>
                  <g id="Grupo_1216739" data-name="Grupo 1216739" transform="translate(1.796 4.218)">
                    <g id="Grupo_1216738" data-name="Grupo 1216738">
                      <path id="Trazado_1163436" data-name="Trazado 1163436" d="M592.437,365.824a25.6,25.6,0,0,1,4.361-4.331,15.16,15.16,0,0,1,4.836-2.807,7,7,0,0,1,5.187.892c2.116,1.117,4.1,2.53,6.118,3.812.321.2.024.716-.3.511-1.725-1.1-3.431-2.233-5.185-3.282-1.815-1.085-3.852-2-5.975-1.263a16.836,16.836,0,0,0-4.913,3.075,25.546,25.546,0,0,0-3.711,3.812c-.236.3-.653-.123-.418-.419Z" transform="translate(-592.367 -358.491)" fill="#301b1b"/>
                    </g>
                  </g>
                  <g id="Grupo_1216741" data-name="Grupo 1216741" transform="translate(0 3.996)">
                    <g id="Grupo_1216740" data-name="Grupo 1216740">
                      <path id="Trazado_1163437" data-name="Trazado 1163437" d="M619.325,358.3a4.859,4.859,0,0,1,.783,1.277,1.309,1.309,0,0,1-.023,1.379,5,5,0,0,1-1.179.914l-1.429.986c-.314.217-.611-.3-.3-.511l1.163-.8c.368-.254.769-.488,1.11-.778a.649.649,0,0,0,.261-.375,1.276,1.276,0,0,0-.149-.588,4.112,4.112,0,0,0-.657-1.081c-.244-.291.173-.712.419-.42Z" transform="translate(-617.045 -358.206)" fill="#301b1b"/>
                    </g>
                  </g>
                  <g id="Grupo_1216743" data-name="Grupo 1216743" transform="translate(1.018 11.577)">
                    <g id="Grupo_1216742" data-name="Grupo 1216742">
                      <path id="Trazado_1163438" data-name="Trazado 1163438" d="M618.407,368.019c.5.576,1.072,1.365.759,2.165a4.348,4.348,0,0,1-.778,1.072l-.934,1.14a.3.3,0,0,1-.419,0,.3.3,0,0,1,0-.419l.786-.96a9.5,9.5,0,0,0,.705-.879c.378-.6-.158-1.259-.539-1.7-.247-.286.169-.707.419-.417Z" transform="translate(-616.951 -367.921)" fill="#301b1b"/>
                    </g>
                  </g>
                  <g id="Grupo_1216745" data-name="Grupo 1216745" transform="translate(5.859 16.396)">
                    <g id="Grupo_1216744" data-name="Grupo 1216744">
                      <path id="Trazado_1163439" data-name="Trazado 1163439" d="M611.6,374.173a12.92,12.92,0,0,1,1.007.964,1.082,1.082,0,0,1,.357,1.181,2.573,2.573,0,0,1-.375.52l-.465.575-.954,1.181a.3.3,0,0,1-.419,0,.3.3,0,0,1,0-.419c.526-.651,1.07-1.29,1.579-1.953a.319.319,0,0,0,.075-.377,1.8,1.8,0,0,0-.344-.421c-.281-.29-.575-.567-.88-.832-.289-.25.132-.668.418-.419Z" transform="translate(-610.665 -374.097)" fill="#301b1b"/>
                    </g>
                  </g>
                  <g id="Grupo_1216747" data-name="Grupo 1216747" transform="translate(13.234 13.27)">
                    <g id="Grupo_1216746" data-name="Grupo 1216746" transform="translate(0)">
                      <path id="Trazado_1163440" data-name="Trazado 1163440" d="M603.437,371.695a3.728,3.728,0,0,0,.017-.646c0-.05-.007-.1-.012-.149,0-.029-.006-.058-.01-.087s0-.016,0,.017l-.007-.049c-.016-.107-.038-.212-.064-.317a.3.3,0,1,1,.571-.158,4.011,4.011,0,0,1,.094,1.387.323.323,0,0,1-.087.209.3.3,0,0,1-.209.087.3.3,0,0,1-.3-.295Z" transform="translate(-603.355 -370.092)" fill="#301b1b"/>
                    </g>
                  </g>
                  <g id="Grupo_1216749" data-name="Grupo 1216749" transform="translate(12.406 14.08)">
                    <g id="Grupo_1216748" data-name="Grupo 1216748" transform="translate(0)">
                      <path id="Trazado_1163441" data-name="Trazado 1163441" d="M604.535,372.1l-.108-.6a.32.32,0,0,1,.03-.228.3.3,0,0,1,.177-.136.3.3,0,0,1,.228.03.289.289,0,0,1,.136.177l.108.6a.321.321,0,0,1-.03.228.3.3,0,0,1-.177.136.3.3,0,0,1-.228-.03.292.292,0,0,1-.136-.177Z" transform="translate(-604.42 -371.129)" fill="#301b1b"/>
                    </g>
                  </g>
                  <g id="Grupo_1216751" data-name="Grupo 1216751" transform="translate(11.616 5.632)">
                    <g id="Grupo_1216750" data-name="Grupo 1216750">
                      <path id="Trazado_1163442" data-name="Trazado 1163442" d="M605.513,361.6a2.385,2.385,0,0,0,0-.6c0,.027.007.052.011.079a2.454,2.454,0,0,0-.091-.4.3.3,0,0,1,.207-.364.3.3,0,0,1,.364.207,2.592,2.592,0,0,1,.1,1.085.325.325,0,0,1-.087.209.3.3,0,0,1-.418,0,.278.278,0,0,1-.087-.209Z" transform="translate(-605.419 -360.302)" fill="#301b1b"/>
                    </g>
                  </g>
                  <g id="Grupo_1216753" data-name="Grupo 1216753" transform="translate(10.628 5.731)">
                    <g id="Grupo_1216752" data-name="Grupo 1216752" transform="translate(0)">
                      <path id="Trazado_1163443" data-name="Trazado 1163443" d="M606.812,361.506c-.033-.235-.066-.469-.1-.7a.224.224,0,0,1-.005-.118.214.214,0,0,1,.035-.11.3.3,0,0,1,.177-.136.3.3,0,0,1,.228.03.283.283,0,0,1,.136.177c.033.235.066.469.1.7a.224.224,0,0,1,.005.118.216.216,0,0,1-.035.11.3.3,0,0,1-.177.136.3.3,0,0,1-.228-.03.289.289,0,0,1-.136-.177Z" transform="translate(-606.702 -360.429)" fill="#301b1b"/>
                    </g>
                  </g>
                  <g id="Grupo_1216755" data-name="Grupo 1216755" transform="translate(12.115 0.303)">
                    <g id="Grupo_1216754" data-name="Grupo 1216754" transform="translate(0)">
                      <path id="Trazado_1163444" data-name="Trazado 1163444" d="M604.924,354.875V353.77a.3.3,0,1,1,.591,0v1.106a.3.3,0,0,1-.591,0Z" transform="translate(-604.924 -353.474)" fill="#301b1b"/>
                    </g>
                  </g>
                  <g id="Grupo_1216757" data-name="Grupo 1216757" transform="translate(10.713)">
                    <g id="Grupo_1216756" data-name="Grupo 1216756" transform="translate(0)">
                      <path id="Trazado_1163445" data-name="Trazado 1163445" d="M606.587,354.77l-.49-1.312a.3.3,0,0,1,.207-.364.3.3,0,0,1,.364.207l.49,1.312a.3.3,0,0,1-.207.364.3.3,0,0,1-.364-.207Z" transform="translate(-606.083 -353.085)" fill="#301b1b"/>
                    </g>
                  </g>
                </g>
              </g>
            </g>
            <g id="Grupo_1216762" data-name="Grupo 1216762" transform="translate(53.558 120.655)">
              <g id="Grupo_1216761" data-name="Grupo 1216761" transform="translate(0)">
                <path id="Trazado_1163446" data-name="Trazado 1163446" d="M572.318,352.942a142.327,142.327,0,0,1-40.29,3.465c-.378-.022-.382-.614,0-.592a141.764,141.764,0,0,0,40.132-3.443c.371-.086.53.485.158.571Z" transform="translate(-531.744 -352.362)" fill="#301b1b"/>
              </g>
            </g>
            <g id="Grupo_1216764" data-name="Grupo 1216764" transform="translate(59.18 120.707)">
              <g id="Grupo_1216763" data-name="Grupo 1216763" transform="translate(0)">
                <path id="Trazado_1163447" data-name="Trazado 1163447" d="M570.816,353.023a143.229,143.229,0,0,1-19.712.685c-.38-.013-.382-.606,0-.592a143.229,143.229,0,0,0,19.712-.685c.379-.04.376.552,0,.592Z" transform="translate(-550.819 -352.429)" fill="#301b1b"/>
              </g>
            </g>
            <g id="Grupo_1216766" data-name="Grupo 1216766" transform="translate(53.14 68.48)">
              <g id="Grupo_1216765" data-name="Grupo 1216765" transform="translate(0)">
                <path id="Trazado_1163448" data-name="Trazado 1163448" d="M577.875,286.149q-11.065-.243-22.119.488c-.381.025-.379-.567,0-.592q11.044-.732,22.119-.488a.3.3,0,0,1,0,.592Z" transform="translate(-555.471 -285.496)" fill="#301b1b"/>
              </g>
            </g>
            <g id="Grupo_1216768" data-name="Grupo 1216768" transform="translate(105.078 87.266)">
              <g id="Grupo_1216767" data-name="Grupo 1216767" transform="translate(0)">
                <path id="Trazado_1163449" data-name="Trazado 1163449" d="M507.7,309.857a93.915,93.915,0,0,1-3.526,30.3A.3.3,0,0,1,503.6,340a93.407,93.407,0,0,0,3.505-30.142c-.018-.38.574-.379.592,0Z" transform="translate(-503.585 -309.571)" fill="#301b1b"/>
              </g>
            </g>
          </g>
        </g>
        <g id="Grupo_1217162" data-name="Grupo 1217162" transform="translate(233.53 3024.639)">
          <g id="Grupo_1217153" data-name="Grupo 1217153" transform="translate(477.392 41.028)">
            <g id="Grupo_1217150" data-name="Grupo 1217150" transform="translate(4.339 2.185)">
              <path id="Trazado_1163626" data-name="Trazado 1163626" d="M547.134,98.036a22.392,22.392,0,0,0,7.771-3.948c5.233-4.315,7.353-11.557,6.948-18.327s-3-13.2-5.821-19.371c-1.476-3.23-3.173-6.6-6.2-8.466-3.373-2.08-7.64-1.826-11.577-1.375a158.033,158.033,0,0,0-35.415,8.069C493.427,58,485.98,65.205,488.1,76.066a33.665,33.665,0,0,0,4.68,10.944c1.723,2.817,3.719,5.606,6.562,7.286,3.127,1.848,6.891,2.139,10.445,2.889s7.319,2.264,8.991,5.489a35.586,35.586,0,0,0-8.893-1.406,133.082,133.082,0,0,0,8.647,14.463,24.775,24.775,0,0,0-2.642-9.213l15.839.56-3.169-5.345c-.566-.954-.962-2.492.065-2.911a2.1,2.1,0,0,1,1.451.163c4.173,1.45,8.764.973,13.086.061C544.491,98.765,545.826,98.438,547.134,98.036Z" transform="translate(-487.734 -46.237)" fill="#f47471"/>
            </g>
            <g id="Grupo_1217151" data-name="Grupo 1217151">
              <path id="Trazado_1163627" data-name="Trazado 1163627" d="M508.9,97.571l-.359-.1a35.412,35.412,0,0,0-8.854-1.4l.009-.32a35.733,35.733,0,0,1,8.562,1.307c-1.439-2.451-4.362-4.157-8.7-5.072-.813-.172-1.652-.322-2.463-.467a23.747,23.747,0,0,1-8.031-2.441c-2.934-1.734-4.992-4.684-6.617-7.341a33.1,33.1,0,0,1-4.7-11c-1.859-9.539,3.692-17.625,14.85-21.63a158.446,158.446,0,0,1,35.451-8.078l.036.318a158.118,158.118,0,0,0-35.38,8.061c-11,3.947-16.469,11.9-14.643,21.267a32.787,32.787,0,0,0,4.659,10.891c1.6,2.623,3.633,5.533,6.507,7.232a23.508,23.508,0,0,0,7.924,2.4c.814.146,1.655.3,2.472.469,4.628.977,7.691,2.852,9.1,5.572Z" transform="translate(-477.392 -41.028)" fill="#301b1b"/>
            </g>
            <g id="Grupo_1217152" data-name="Grupo 1217152" transform="translate(28.295 9.934)">
              <path id="Trazado_1163628" data-name="Trazado 1163628" d="M560.968,115.63l-16.132-.57.011-.32,15.546.55-3.019-5.093a3.339,3.339,0,0,1-.513-2.442,1.1,1.1,0,0,1,.655-.7,2.184,2.184,0,0,1,1.535.15c4.469,1.554,9.309.85,13.03.066,1.475-.311,2.77-.64,3.961-1.006a22.093,22.093,0,0,0,7.717-3.918c4.761-3.926,7.337-10.727,6.891-18.194-.42-7.011-3.217-13.646-5.807-19.314l.291-.133c2.6,5.7,5.413,12.362,5.836,19.428.452,7.569-2.167,14.47-7.006,18.46a22.408,22.408,0,0,1-7.827,3.977c-1.2.369-2.5.7-3.989,1.013-3.761.793-8.657,1.5-13.171-.067a1.974,1.974,0,0,0-1.339-.166.788.788,0,0,0-.472.5,3.045,3.045,0,0,0,.485,2.177Z" transform="translate(-544.836 -64.706)" fill="#301b1b"/>
            </g>
          </g>
          <g id="Grupo_1217155" data-name="Grupo 1217155" transform="translate(488.984 68.501)">
            <g id="Grupo_1217154" data-name="Grupo 1217154">
              <path id="Trazado_1163629" data-name="Trazado 1163629" d="M505.282,106.626a14.12,14.12,0,0,0,3.983,12.762c.147.143.373-.082.225-.225a13.791,13.791,0,0,1-3.9-12.452c.039-.2-.267-.286-.307-.085Z" transform="translate(-505.022 -106.512)" fill="#301b1b"/>
            </g>
          </g>
          <g id="Grupo_1217157" data-name="Grupo 1217157" transform="translate(487.787 73.523)">
            <g id="Grupo_1217156" data-name="Grupo 1217156">
              <path id="Trazado_1163630" data-name="Trazado 1163630" d="M502.171,118.634a17.4,17.4,0,0,0,.966,4.439c.069.191.377.109.307-.085a17.052,17.052,0,0,1-.955-4.354c-.017-.2-.336-.2-.318,0Z" transform="translate(-502.17 -118.481)" fill="#301b1b"/>
            </g>
          </g>
          <g id="Grupo_1217159" data-name="Grupo 1217159" transform="translate(535.18 68.177)">
            <g id="Grupo_1217158" data-name="Grupo 1217158" transform="translate(0)">
              <path id="Trazado_1163631" data-name="Trazado 1163631" d="M615.377,123.243c6.559-3.156,9.174-10.523,9.593-17.349.013-.2-.306-.2-.318,0-.413,6.721-2.977,13.967-9.435,17.074-.185.089-.023.363.161.275Z" transform="translate(-615.134 -105.741)" fill="#301b1b"/>
            </g>
          </g>
          <g id="Grupo_1217161" data-name="Grupo 1217161" transform="translate(538.416 72.047)">
            <g id="Grupo_1217160" data-name="Grupo 1217160" transform="translate(0)">
              <path id="Trazado_1163632" data-name="Trazado 1163632" d="M623.149,120.5a11.83,11.83,0,0,0,1.767-5.378c.016-.2-.3-.2-.318,0a11.485,11.485,0,0,1-1.723,5.218c-.109.174.167.334.275.161Z" transform="translate(-622.849 -114.965)" fill="#301b1b"/>
            </g>
          </g>
        </g>
      </g>
    </g>
  </g>
</svg>
