<svg xmlns="http://www.w3.org/2000/svg" xmlns:xlink="http://www.w3.org/1999/xlink" width="93.934" height="93.934" viewBox="0 0 93.934 93.934">
  <defs>
    <filter id="Trazado_978624" x="0" y="0" width="93.934" height="93.934" filterUnits="userSpaceOnUse">
      <feOffset dy="3" input="SourceAlpha"/>
      <feGaussianBlur stdDeviation="3" result="blur"/>
      <feFlood flood-opacity="0.161"/>
      <feComposite operator="in" in2="blur"/>
      <feComposite in="SourceGraphic"/>
    </filter>
  </defs>
  <g id="Grupo_1216605" data-name="Grupo 1216605" transform="translate(-189 -2609.033)">
    <g id="Grupo_1208659" data-name="Grupo 1208659" transform="translate(198 2615.033)">
      <g id="Grupo_1208062" data-name="Grupo 1208062" transform="translate(0 0)">
        <g id="Grupo_1144123" data-name="Grupo 1144123">
          <g transform="matrix(1, 0, 0, 1, -9, -6)" filter="url(#Trazado_978624)">
            <g id="Trazado_978624-2" data-name="Trazado 978624" transform="translate(9 6)" fill="#f1ede8">
              <path d="M 37.966796875 74.43359375 C 33.04315185546875 74.43359375 28.26757431030273 73.46962738037109 23.77274131774902 71.56847381591797 C 19.43047523498535 69.73184967041016 15.53040790557861 67.10224914550781 12.18087482452393 63.75271987915039 C 8.831341743469238 60.4031867980957 6.201741218566895 56.50312042236328 4.365118980407715 52.16086196899414 C 2.463963508605957 47.66601943969727 1.499996900558472 42.89044189453125 1.499996900558472 37.966796875 C 1.499996900558472 33.04315185546875 2.463963508605957 28.26757431030273 4.365118980407715 23.77274131774902 C 6.201741218566895 19.43047523498535 8.831341743469238 15.53040790557861 12.18087482452393 12.18087482452393 C 15.53040790557861 8.831341743469238 19.43047523498535 6.201741218566895 23.77274131774902 4.365118980407715 C 28.26757431030273 2.463963508605957 33.04315185546875 1.499996900558472 37.966796875 1.499996900558472 C 42.89044189453125 1.499996900558472 47.66601943969727 2.463963508605957 52.16086196899414 4.365118980407715 C 56.50312042236328 6.201741218566895 60.4031867980957 8.831341743469238 63.75271987915039 12.18087482452393 C 67.10224914550781 15.53040790557861 69.73184967041016 19.43047523498535 71.56847381591797 23.77274131774902 C 73.46962738037109 28.26757431030273 74.43359375 33.04315185546875 74.43359375 37.966796875 C 74.43359375 42.89044189453125 73.46962738037109 47.66601943969727 71.56847381591797 52.16086196899414 C 69.73184967041016 56.50313186645508 67.10224914550781 60.4031867980957 63.75271987915039 63.75271987915039 C 60.4031867980957 67.10224914550781 56.50313186645508 69.73184967041016 52.16086196899414 71.56847381591797 C 47.66601943969727 73.46962738037109 42.89044189453125 74.43359375 37.966796875 74.43359375 Z" stroke="none"/>
              <path d="M 37.966796875 3 C 33.2449836730957 3 28.66600799560547 3.924095153808594 24.35705947875977 5.746635437011719 C 20.19359588623047 7.507621765136719 16.45379638671875 10.02927398681641 13.24153518676758 13.24153518676758 C 10.02927398681641 16.45379638671875 7.507621765136719 20.19359588623047 5.746635437011719 24.35705947875977 C 3.924095153808594 28.66600799560547 3 33.2449836730957 3 37.966796875 C 3 42.6886100769043 3.924095153808594 47.26758575439453 5.746635437011719 51.57653427124023 C 7.507621765136719 55.73999786376953 10.02927398681641 59.47979736328125 13.24153518676758 62.69205856323242 C 16.45379638671875 65.90431976318359 20.19359588623047 68.42597198486328 24.35705947875977 70.18695831298828 C 28.66600799560547 72.00949859619141 33.2449836730957 72.93359375 37.966796875 72.93359375 C 42.6886100769043 72.93359375 47.26758575439453 72.00949859619141 51.57653427124023 70.18695831298828 C 55.73999786376953 68.42597198486328 59.47979736328125 65.90431976318359 62.69205856323242 62.69205856323242 C 65.90431976318359 59.47979736328125 68.42597198486328 55.73999786376953 70.18695831298828 51.57653427124023 C 72.00949859619141 47.26758575439453 72.93359375 42.6886100769043 72.93359375 37.966796875 C 72.93359375 33.2449836730957 72.00949859619141 28.66600799560547 70.18695831298828 24.35705947875977 C 68.42597198486328 20.19359588623047 65.90431976318359 16.45379638671875 62.69205856323242 13.24153518676758 C 59.47979736328125 10.02927398681641 55.73999786376953 7.507621765136719 51.57653427124023 5.746635437011719 C 47.26758575439453 3.924095153808594 42.6886100769043 3 37.966796875 3 M 37.966796875 0 C 58.93528366088867 0 75.93359375 16.99831008911133 75.93359375 37.966796875 C 75.93359375 58.93528366088867 58.93528366088867 75.93359375 37.966796875 75.93359375 C 16.99831008911133 75.93359375 0 58.93528366088867 0 37.966796875 C 0 16.99831008911133 16.99831008911133 0 37.966796875 0 Z" stroke="none" fill="#665b4e"/>
            </g>
          </g>
        </g>
      </g>
    </g>
    <g id="testamento" transform="translate(189.631 2632)">
      <g id="Grupo_1216603" data-name="Grupo 1216603" transform="translate(19.91 0.864)">
        <g id="Grupo_1216592" data-name="Grupo 1216592" transform="translate(0)">
          <path id="Trazado_1163355" data-name="Trazado 1163355" d="M72.015,61.913l2.1-2.1v-45.2A7.133,7.133,0,0,0,67,7.5H33.659a7.133,7.133,0,0,0-7.112,7.112V57.628a7.133,7.133,0,0,0,7.112,7.112h.488l19.921-2.591Z" transform="translate(-26.547 -7.5)" fill="#f2f2f2"/>
        </g>
        <g id="Grupo_1216593" data-name="Grupo 1216593" transform="translate(0)">
          <path id="Trazado_1163356" data-name="Trazado 1163356" d="M37.934,57.628V14.612A7.133,7.133,0,0,1,45.046,7.5H33.659a7.133,7.133,0,0,0-7.112,7.112V57.628a7.133,7.133,0,0,0,7.112,7.112h.488l7.353-.956A7.126,7.126,0,0,1,37.934,57.628Z" transform="translate(-26.547 -7.5)" fill="#eae8e5"/>
        </g>
        <g id="Grupo_1216594" data-name="Grupo 1216594" transform="translate(7.599 49.177)">
          <path id="Trazado_1163357" data-name="Trazado 1163357" d="M131.287,434.5H98.234a2.326,2.326,0,0,0-2.24,2.948,4.059,4.059,0,0,1-3.465,5.113h38.756a4.031,4.031,0,0,0,0-8.062Z" transform="translate(-92.53 -434.5)" fill="#fff"/>
        </g>
        <g id="Grupo_1216595" data-name="Grupo 1216595" transform="translate(14.435 10.078)">
          <path id="Trazado_1163358" data-name="Trazado 1163358" d="M169.374,95.013a1.333,1.333,0,0,0-.932.26,4.945,4.945,0,0,1-2.954,1.069h-8.515a4.945,4.945,0,0,1-2.954-1.069,1.332,1.332,0,0,0-.932-.26,1.374,1.374,0,0,0-1.2,1.386v3.891a1.374,1.374,0,0,0,1.2,1.387,1.333,1.333,0,0,0,.932-.26,4.945,4.945,0,0,1,2.954-1.069h8.515a4.945,4.945,0,0,1,2.954,1.069,1.332,1.332,0,0,0,.932.26,1.374,1.374,0,0,0,1.2-1.387V96.4A1.374,1.374,0,0,0,169.374,95.013Z" transform="translate(-151.883 -95.006)" fill="#f9d171"/>
        </g>
        <g id="Grupo_1216596" data-name="Grupo 1216596" transform="translate(20.444 4.737)">
          <path id="Trazado_1163359" data-name="Trazado 1163359" d="M209.4,67.574V53.718a4.946,4.946,0,0,1,1.069-2.954,1.333,1.333,0,0,0,.26-.932,1.374,1.374,0,0,0-1.387-1.2h-3.891a1.374,1.374,0,0,0-1.387,1.2,1.332,1.332,0,0,0,.26.932,4.946,4.946,0,0,1,1.069,2.954V67.574a4.945,4.945,0,0,1-1.069,2.954,1.332,1.332,0,0,0-.26.932,1.374,1.374,0,0,0,1.386,1.2h3.891a1.374,1.374,0,0,0,1.386-1.2,1.333,1.333,0,0,0-.26-.932A4.946,4.946,0,0,1,209.4,67.574Z" transform="translate(-204.059 -48.628)" fill="#fad989"/>
        </g>
        <g id="Grupo_1216597" data-name="Grupo 1216597" transform="translate(44.631 5.806)">
          <path id="Trazado_1163360" data-name="Trazado 1163360" d="M416.7,71.326a2.636,2.636,0,0,1-2.629-2.629v-8.16a2.629,2.629,0,1,1,5.257,0V68.7A2.636,2.636,0,0,1,416.7,71.326Z" transform="translate(-414.075 -57.909)" fill="#475066"/>
        </g>
        <g id="Grupo_1216598" data-name="Grupo 1216598" transform="translate(42.739 11.754)">
          <path id="Trazado_1163361" data-name="Trazado 1163361" d="M403.7,109.562H400.4a2.77,2.77,0,0,0-2.762,2.762v30.322l4.207,2.419,4.611-2.419V112.324A2.77,2.77,0,0,0,403.7,109.562Z" transform="translate(-397.64 -109.562)" fill="#5d6a83"/>
        </g>
        <g id="Grupo_1216599" data-name="Grupo 1216599" transform="translate(42.739 11.754)">
          <path id="Trazado_1163362" data-name="Trazado 1163362" d="M403.933,109.572c-.078-.007-.157-.011-.237-.011H400.4a2.77,2.77,0,0,0-2.762,2.762v30.322h3.767V112.323A2.771,2.771,0,0,1,403.933,109.572Z" transform="translate(-397.64 -109.561)" fill="#525e77"/>
        </g>
        <g id="Grupo_1216600" data-name="Grupo 1216600" transform="translate(42.739 44.838)">
          <path id="Trazado_1163363" data-name="Trazado 1163363" d="M397.64,396.825l2.655,5.869a1.925,1.925,0,0,0,3.509,0l2.655-5.869Z" transform="translate(-397.64 -396.825)" fill="#525e77"/>
        </g>
        <g id="Grupo_1216601" data-name="Grupo 1216601" transform="translate(42.739 44.838)">
          <path id="Trazado_1163364" data-name="Trazado 1163364" d="M401.37,396.825h-3.73l2.655,5.869a1.925,1.925,0,0,0,3.509,0l.111-.245Z" transform="translate(-397.64 -396.825)" fill="#475066"/>
        </g>
        <g id="Grupo_1216602" data-name="Grupo 1216602" transform="translate(48.325 15.619)">
          <path id="Trazado_1163365" data-name="Trazado 1163365" d="M448.413,158.793a2.27,2.27,0,0,1-2.263-2.263V145.384a2.263,2.263,0,0,1,4.527,0V156.53A2.27,2.27,0,0,1,448.413,158.793Z" transform="translate(-446.15 -143.121)" fill="#475066"/>
        </g>
      </g>
      <g id="Grupo_1216604" data-name="Grupo 1216604" transform="translate(19.046 0)">
        <path id="Trazado_1163366" data-name="Trazado 1163366" d="M150.337,47.8a4.1,4.1,0,0,1-2.435-.9,2.2,2.2,0,0,0-1.533-.429,2.248,2.248,0,0,0-1.986,2.246v3.891a2.248,2.248,0,0,0,1.986,2.246q.106.01.212.01a2.2,2.2,0,0,0,1.32-.44,4.1,4.1,0,0,1,2.435-.9h1.391v7.4a4.1,4.1,0,0,1-.9,2.435,2.2,2.2,0,0,0-.429,1.533,2.248,2.248,0,0,0,2.246,1.986h3.891a2.247,2.247,0,0,0,2.246-1.986,2.2,2.2,0,0,0-.429-1.533,4.1,4.1,0,0,1-.9-2.435v-7.4h1.391a4.1,4.1,0,0,1,2.435.9,2.2,2.2,0,0,0,1.321.44c.07,0,.141,0,.212-.01a2.248,2.248,0,0,0,1.986-2.246V48.725a2.248,2.248,0,0,0-1.986-2.246,2.2,2.2,0,0,0-1.533.429,4.1,4.1,0,0,1-2.436.9h-1.39v-.722a4.1,4.1,0,0,1,.9-2.436,2.2,2.2,0,0,0,.429-1.533,2.247,2.247,0,0,0-2.246-1.986h-3.891a2.248,2.248,0,0,0-2.246,1.986,2.2,2.2,0,0,0,.429,1.533,4.1,4.1,0,0,1,.9,2.436V47.8h-1.391Zm0,4.006a5.8,5.8,0,0,0-3.472,1.242.467.467,0,0,1-.331.091.515.515,0,0,1-.422-.527V48.725a.515.515,0,0,1,.422-.527.468.468,0,0,1,.331.091,5.8,5.8,0,0,0,3.472,1.242h1.39V51.81h-1.391Zm8.515-2.279a5.8,5.8,0,0,0,3.472-1.242.468.468,0,0,1,.332-.091.515.515,0,0,1,.422.527v3.891a.515.515,0,0,1-.422.527.47.47,0,0,1-.332-.091,5.8,5.8,0,0,0-3.472-1.242h-1.391V49.532h1.39Zm-6.729-6.255a.515.515,0,0,1,.527-.422h3.891a.515.515,0,0,1,.527.423.469.469,0,0,1-.091.331,5.8,5.8,0,0,0-1.242,3.473V60.937a5.8,5.8,0,0,0,1.242,3.472.468.468,0,0,1,.091.332.515.515,0,0,1-.527.422h-3.891a.515.515,0,0,1-.527-.422.469.469,0,0,1,.091-.331,5.8,5.8,0,0,0,1.242-3.472V47.081a5.8,5.8,0,0,0-1.242-3.473A.468.468,0,0,1,152.122,43.277Z" transform="translate(-129.948 -36.39)"/>
        <path id="Trazado_1163367" data-name="Trazado 1163367" d="M72.33,16.214V15.38a3.625,3.625,0,0,0-1.668-3.049V9.3a3.5,3.5,0,0,0-2.595-3.375A8.01,8.01,0,0,0,60.363,0H27.022a7.984,7.984,0,0,0-7.975,7.975v37.44a.864.864,0,0,0,1.728,0V7.975a6.255,6.255,0,0,1,6.248-6.248H60.363a6.278,6.278,0,0,1,5.9,4.2A3.5,3.5,0,0,0,63.678,9.3v2.9a3.629,3.629,0,0,0-1.893,3.184v4.271a.864.864,0,1,0,1.728,0V15.38a1.9,1.9,0,0,1,1.9-1.9H68.7a1.9,1.9,0,0,1,1.9,1.9v.242l-.1,0a3.131,3.131,0,0,0-3.127,3.127V29.892A3.131,3.131,0,0,0,70.5,33.019l.1,0V44.838h-7.09V23.25a.864.864,0,1,0-1.728,0V45.7s0,.005,0,.008c0,.019,0,.039,0,.059s0,.019,0,.029,0,.033.007.049,0,.025.007.038.006.024.009.036.009.033.014.049l.01.026c.007.019.014.038.022.056l0,.007,1.411,3.119H33.214a3.19,3.19,0,0,0-3.072,4.042,3.195,3.195,0,0,1-2.687,4.02h-.432a6.255,6.255,0,0,1-6.248-6.248V48.966a.864.864,0,1,0-1.728,0v2.025a7.984,7.984,0,0,0,7.975,7.975H66.266a4.894,4.894,0,0,0,3.773-8.012l2.215-4.9,0-.007c.008-.018.015-.037.022-.056l.01-.026c.005-.016.01-.033.014-.049s.007-.024.009-.036,0-.025.007-.038.006-.033.007-.049,0-.019,0-.029,0-.039,0-.059c0,0,0-.005,0-.008V32.424a3.124,3.124,0,0,0,1.3-2.532V18.747a3.124,3.124,0,0,0-1.3-2.532Zm-6.92-4.46h-.005V9.3a1.765,1.765,0,1,1,3.53,0v2.465c-.076,0-.153-.008-.23-.008Zm2.614,39.46a1.061,1.061,0,0,1-1.934,0l-2.1-4.649h6.14Zm-1.759,6.025H30.832a4.936,4.936,0,0,0,.974-4.48A1.462,1.462,0,0,1,33.213,50.9H64.054l.462,1.022a2.792,2.792,0,0,0,4.591.745,3.167,3.167,0,0,1-2.841,4.567ZM69.1,29.892V18.746a1.4,1.4,0,1,1,2.8,0V29.892a1.4,1.4,0,1,1-2.8,0Z" transform="translate(-19.046 0)"/>
        <path id="Trazado_1163368" data-name="Trazado 1163368" d="M175.809,293.75H160.666a.864.864,0,1,0,0,1.728h15.144a.864.864,0,0,0,0-1.728Z" transform="translate(-143.591 -259.919)"/>
        <path id="Trazado_1163369" data-name="Trazado 1163369" d="M111.011,338.282a.864.864,0,0,0,.864.864h26.382a.864.864,0,1,0,0-1.728H111.875A.864.864,0,0,0,111.011,338.282Z" transform="translate(-100.419 -298.558)"/>
        <path id="Trazado_1163370" data-name="Trazado 1163370" d="M111.875,383.313h26.382a.864.864,0,1,0,0-1.728H111.875a.864.864,0,0,0,0,1.728Z" transform="translate(-100.419 -337.638)"/>
      </g>
    </g>
  </g>
</svg>
