<svg xmlns="http://www.w3.org/2000/svg" width="103.759" height="110" viewBox="0 0 103.759 110">
  <g id="Grupo_1218309" data-name="Grupo 1218309" transform="translate(-1285.241 -3592)">
    <rect id="Rectángulo_420800" data-name="Rectángulo 420800" width="81" height="110" transform="translate(1308 3592)" fill="#248abf"/>
    <g id="obligacion_3_" data-name="obligacion (3)" transform="translate(1256.241 3605.029)">
      <g id="Grupo_1218299" data-name="Grupo 1218299" transform="translate(37.807 1.42)">
        <g id="Grupo_1218289" data-name="Grupo 1218289" transform="translate(0 43.643)">
          <g id="Grupo_1218279" data-name="Grupo 1218279" transform="translate(0 5.553)">
            <path id="Trazado_1167731" data-name="Trazado 1167731" d="M128.4,292.624a1.011,1.011,0,0,1-1.01-1.01V267.255h-8.814v7.318a.761.761,0,0,1-.76.759.746.746,0,0,1-.4-.117l-8.777-5.49-8.777,5.489a.744.744,0,0,1-.4.117.761.761,0,0,1-.76-.759v-7.318H88.444A12.944,12.944,0,0,0,75.5,280.2v3.17h29.276a2.593,2.593,0,0,1,2.59,2.59v23.45a2.593,2.593,0,0,1-2.59,2.59v.189h34.172a2.841,2.841,0,0,0,2.841-2.841V292.624Z" transform="translate(-75.5 -267.255)" fill="#c8effe"/>
          </g>
          <g id="Grupo_1218280" data-name="Grupo 1218280" transform="translate(29.276 16.816)">
            <path id="Trazado_1167732" data-name="Trazado 1167732" d="M232.666,334.163v23.45a2.592,2.592,0,0,1-2.59,2.59v.189h10.518l-4.2-33.67h-4.9l-.621,4.978A2.593,2.593,0,0,1,232.666,334.163Z" transform="translate(-230.076 -326.722)" fill="#9e9797"/>
          </g>
          <g id="Grupo_1218281" data-name="Grupo 1218281" transform="translate(31.692 16.816)">
            <path id="Trazado_1167733" data-name="Trazado 1167733" d="M246.735,326.722h-3.9l4.2,33.67h3.9Z" transform="translate(-242.831 -326.722)" fill="#766e6e"/>
          </g>
          <g id="Grupo_1218283" data-name="Grupo 1218283" transform="translate(55.777 31.111)">
            <g id="Grupo_1218282" data-name="Grupo 1218282">
              <path id="Trazado_1167734" data-name="Trazado 1167734" d="M372.841,402.2v16.534A2.841,2.841,0,0,1,370,421.577h7.671a2.841,2.841,0,0,0,2.841-2.841V402.2Z" transform="translate(-370 -402.202)" fill="#99e6fc"/>
            </g>
          </g>
          <g id="Grupo_1218286" data-name="Grupo 1218286" transform="translate(28.065 8.247)">
            <g id="Grupo_1218284" data-name="Grupo 1218284">
              <path id="Trazado_1167735" data-name="Trazado 1167735" d="M228.763,281.479l-5.079,3.176,2.627,5.392h4.9l2.627-5.392Z" transform="translate(-223.684 -281.479)" fill="#b9acac"/>
            </g>
            <g id="Grupo_1218285" data-name="Grupo 1218285" transform="translate(3.127)">
              <path id="Trazado_1167736" data-name="Trazado 1167736" d="M240.194,282.7a4.1,4.1,0,0,1,1.511,5.271l-1.012,2.077h3.9l2.627-5.392-5.079-3.176Z" transform="translate(-240.194 -281.479)" fill="#9e9797"/>
            </g>
          </g>
          <g id="Grupo_1218287" data-name="Grupo 1218287" transform="translate(23.018)">
            <path id="Trazado_1167737" data-name="Trazado 1167737" d="M211.545,239.533h-8.766a11.058,11.058,0,0,1-5.743-1.6v12.871a.947.947,0,0,0,1.449.8l8.677-5.427,8.677,5.427a.947.947,0,0,0,1.449-.8V237.935A11.057,11.057,0,0,1,211.545,239.533Z" transform="translate(-197.036 -237.935)" fill="#99e6fc"/>
          </g>
          <g id="Grupo_1218288" data-name="Grupo 1218288" transform="translate(27.98 1.568)">
            <path id="Trazado_1167738" data-name="Trazado 1167738" d="M232.78,246.242h-8.766c-.263,0-.523-.012-.781-.03v1.218a1.212,1.212,0,0,0,.381.883l4.783,4.5,4.783-4.5a1.212,1.212,0,0,0,.381-.883v-1.218c-.258.018-.518.03-.781.03Z" transform="translate(-223.233 -246.212)" fill="#f89580"/>
          </g>
        </g>
        <g id="Grupo_1218298" data-name="Grupo 1218298" transform="translate(9.186)">
          <g id="Grupo_1218294" data-name="Grupo 1218294">
            <g id="Grupo_1218290" data-name="Grupo 1218290" transform="translate(32.688 3.821)">
              <path id="Trazado_1167739" data-name="Trazado 1167739" d="M297.573,31.319v7.662h1.311a4.4,4.4,0,0,1,4.394,4.394V46.1h2.433a5.879,5.879,0,0,1,3.526,1.17v-8.48A11.117,11.117,0,0,0,298.12,27.677h-1.53A7.218,7.218,0,0,1,297.573,31.319Z" transform="translate(-296.59 -27.677)" fill="#a44f3e"/>
            </g>
            <g id="Grupo_1218291" data-name="Grupo 1218291" transform="translate(2.583 11.891)">
              <path id="Trazado_1167740" data-name="Trazado 1167740" d="M147.57,73.122h-4.178a7.255,7.255,0,0,1-5.754-2.838V81.812a5.879,5.879,0,0,1,3.526-1.17H143.6V77.913a4.4,4.4,0,0,1,4.339-4.393l.055-.2Z" transform="translate(-137.638 -70.284)" fill="#c96e59"/>
            </g>
            <g id="Grupo_1218292" data-name="Grupo 1218292" transform="translate(0 22.049)">
              <path id="Trazado_1167741" data-name="Trazado 1167741" d="M132.542,123.92h-2.433a6.109,6.109,0,1,0,0,12.218h2.433Z" transform="translate(-124 -123.92)" fill="#ffb09e"/>
            </g>
            <g id="Grupo_1218293" data-name="Grupo 1218293" transform="translate(0.873)">
              <path id="Trazado_1167742" data-name="Trazado 1167742" d="M140.619,22.626h20.79l.2-.2V14.964A7.464,7.464,0,0,0,154.144,7.5H136.076a7.464,7.464,0,0,0,0,14.927h4.6Z" transform="translate(-128.612 -7.5)" fill="#bb5d4c"/>
            </g>
          </g>
          <g id="Grupo_1218295" data-name="Grupo 1218295" transform="translate(8.343 14.927)">
            <path id="Trazado_1167743" data-name="Trazado 1167743" d="M188.083,116.99h-8.836a11.2,11.2,0,0,1-11.2-11.2V90.908a4.593,4.593,0,0,1,4.593-4.593h22.046a4.593,4.593,0,0,1,4.593,4.593v14.884A11.2,11.2,0,0,1,188.083,116.99Z" transform="translate(-168.049 -86.315)" fill="#ffcebf"/>
          </g>
          <g id="Grupo_1218296" data-name="Grupo 1218296" transform="translate(22.496 14.927)">
            <path id="Trazado_1167744" data-name="Trazado 1167744" d="M255.264,86.315h-5.881a4.593,4.593,0,0,1,4.593,4.593v14.884a11.2,11.2,0,0,1-11.2,11.2h5.881a11.2,11.2,0,0,0,11.2-11.2V90.908A4.593,4.593,0,0,0,255.264,86.315Z" transform="translate(-242.778 -86.315)" fill="#ffb09e"/>
          </g>
          <g id="Grupo_1218297" data-name="Grupo 1218297" transform="translate(39.376 22.049)">
            <path id="Trazado_1167745" data-name="Trazado 1167745" d="M334.334,123.92H331.9v12.218h2.432a6.109,6.109,0,0,0,0-12.218Z" transform="translate(-331.902 -123.92)" fill="#f89580"/>
          </g>
        </g>
      </g>
      <g id="Grupo_1218302" data-name="Grupo 1218302" transform="translate(89.512 44.548)">
        <g id="Grupo_1218300" data-name="Grupo 1218300" transform="translate(0)">
          <path id="Trazado_1167746" data-name="Trazado 1167746" d="M364.529,235.213H349.7a1.2,1.2,0,0,0-1.2,1.2v29.228a1.2,1.2,0,0,0,1.2,1.2h21.655a1.2,1.2,0,0,0,1.2-1.2v-22.9a1.2,1.2,0,0,0-.351-.848l-5.977-5.977A2.4,2.4,0,0,0,364.529,235.213Z" transform="translate(-348.5 -235.213)" fill="#ffe177"/>
        </g>
        <g id="Grupo_1218301" data-name="Grupo 1218301" transform="translate(10.253)">
          <path id="Trazado_1167747" data-name="Trazado 1167747" d="M416.083,241.892l-5.977-5.977a2.4,2.4,0,0,0-1.7-.7h-5.777a2.4,2.4,0,0,1,1.7.7l5.977,5.977a1.2,1.2,0,0,1,.351.848v22.9a1.2,1.2,0,0,1-1.2,1.2h5.777a1.2,1.2,0,0,0,1.2-1.2v-22.9A1.2,1.2,0,0,0,416.083,241.892Z" transform="translate(-402.634 -235.213)" fill="#ffd15b"/>
        </g>
      </g>
      <g id="Grupo_1218307" data-name="Grupo 1218307" transform="translate(30.42 66.541)">
        <g id="Grupo_1218303" data-name="Grupo 1218303" transform="translate(0 0)">
          <path id="Trazado_1167748" data-name="Trazado 1167748" d="M73.162,351.335H39.279a2.779,2.779,0,0,0-2.779,2.779v23.45a2.779,2.779,0,0,0,2.779,2.779H73.162a2.779,2.779,0,0,0,2.779-2.779v-23.45A2.779,2.779,0,0,0,73.162,351.335Z" transform="translate(-36.5 -351.335)" fill="#bb5d4c"/>
        </g>
        <g id="Grupo_1218304" data-name="Grupo 1218304" transform="translate(27.808 0)">
          <path id="Trazado_1167749" data-name="Trazado 1167749" d="M192.181,351.335h-8.854a2.779,2.779,0,0,1,2.779,2.779v23.45a2.779,2.779,0,0,1-2.779,2.779h8.854a2.779,2.779,0,0,0,2.779-2.779v-23.45A2.779,2.779,0,0,0,192.181,351.335Z" transform="translate(-183.327 -351.335)" fill="#a44f3e"/>
        </g>
        <g id="Grupo_1218305" data-name="Grupo 1218305" transform="translate(0)">
          <path id="Trazado_1167750" data-name="Trazado 1167750" d="M73.162,351.335H39.279a2.779,2.779,0,0,0-2.779,2.779v4.4a8.367,8.367,0,0,0,8.367,8.367H67.574a8.367,8.367,0,0,0,8.367-8.367v-4.4A2.779,2.779,0,0,0,73.162,351.335Z" transform="translate(-36.5 -351.335)" fill="#d78878"/>
        </g>
        <g id="Grupo_1218306" data-name="Grupo 1218306" transform="translate(27.809 0)">
          <path id="Trazado_1167751" data-name="Trazado 1167751" d="M186.107,354.115V366.88h.487a8.367,8.367,0,0,0,8.367-8.367v-4.4a2.779,2.779,0,0,0-2.779-2.779h-8.854A2.779,2.779,0,0,1,186.107,354.115Z" transform="translate(-183.328 -351.336)" fill="#c96e59"/>
        </g>
      </g>
      <g id="Grupo_1218308" data-name="Grupo 1218308" transform="translate(29 0)">
        <path id="Trazado_1167752" data-name="Trazado 1167752" d="M205.109,123.5a1.42,1.42,0,0,0,1.42-1.42v-2.6a1.42,1.42,0,1,0-2.841,0v2.6A1.42,1.42,0,0,0,205.109,123.5Z" transform="translate(-170.604 -95.698)"/>
        <path id="Trazado_1167753" data-name="Trazado 1167753" d="M283.731,123.5a1.42,1.42,0,0,0,1.42-1.42v-2.6a1.42,1.42,0,0,0-2.841,0v2.6A1.42,1.42,0,0,0,283.731,123.5Z" transform="translate(-234.335 -95.698)"/>
        <path id="Trazado_1167754" data-name="Trazado 1167754" d="M236.755,149.529c.045,0,.091.006.135.006a1.42,1.42,0,0,0,.132-2.835.519.519,0,0,1,0-1.033,1.42,1.42,0,0,0-.267-2.828,3.36,3.36,0,0,0,0,6.69Z" transform="translate(-194.94 -115.781)"/>
        <path id="Trazado_1167755" data-name="Trazado 1167755" d="M224.271,203.926H231.9a1.42,1.42,0,1,0,0-2.841h-7.632a1.42,1.42,0,0,0,0,2.841Z" transform="translate(-186.136 -163)"/>
        <path id="Trazado_1167756" data-name="Trazado 1167756" d="M114.218,50.223l-5.977-5.977a3.793,3.793,0,0,0-2.7-1.119H90.711a2.623,2.623,0,0,0-2.62,2.62V49.2H82.5V46.229a12.626,12.626,0,0,0,5.425-9.121H88.8a7.525,7.525,0,0,0,4.947-13.2V16.359A12.551,12.551,0,0,0,81.21,3.822h-.517A8.879,8.879,0,0,0,73.4,0H55.33a8.878,8.878,0,0,0-7.175,14.115V23.91a7.525,7.525,0,0,0,4.947,13.2h.878a12.625,12.625,0,0,0,5.425,9.121V49.2H50.752A14.381,14.381,0,0,0,36.387,63.561v1.559H33.2a4.2,4.2,0,0,0-4.2,4.2V92.771a4.2,4.2,0,0,0,4.2,4.2h68.055a4.266,4.266,0,0,0,4.261-4.261V77.6h6.85a2.623,2.623,0,0,0,2.62-2.62v-22.9A2.6,2.6,0,0,0,114.218,50.223ZM93.489,29.579A4.694,4.694,0,0,1,88.8,34.267h-.813V24.89H88.8a4.694,4.694,0,0,1,4.688,4.688Zm-2.583-13.22v5.993a7.507,7.507,0,0,0-2.106-.3h-.813V20.941a6.021,6.021,0,0,0-5.7-6.006V8.884A8.875,8.875,0,0,0,82.01,6.7a9.708,9.708,0,0,1,8.9,9.661ZM55.33,2.841H73.4a6.05,6.05,0,0,1,6.043,6.043v6.043H55.33a6.043,6.043,0,1,1,0-12.086Zm-.5,14.912a5.976,5.976,0,0,0-.918,3.187v1.109H53.1a7.5,7.5,0,0,0-2.106.3V16.635a8.818,8.818,0,0,0,3.837,1.118Zm1.923,18.071V32.765a1.42,1.42,0,0,0-2.841,0v1.5H53.1a4.688,4.688,0,0,1,0-9.377h.813v1.246a1.42,1.42,0,1,0,2.841,0v-5.2a3.176,3.176,0,0,1,3.172-3.172H81.974a3.176,3.176,0,0,1,3.172,3.172V35.824A9.788,9.788,0,0,1,75.369,45.6H66.533A9.788,9.788,0,0,1,56.756,35.824ZM67.934,48.443h6.035l-3.018,2.84Zm.752,4.61-6.44,4.028V47.692a12.519,12.519,0,0,0,2.156.567,2.642,2.642,0,0,0,.792,1.507Zm8.022-3.286a2.642,2.642,0,0,0,.792-1.507,12.514,12.514,0,0,0,2.156-.567V57.08l-6.44-4.028Zm-37.48,13.8A11.537,11.537,0,0,1,50.751,52.037H59.4v5.9a2.368,2.368,0,0,0,3.623,2.007l2.259-1.413,1.751,3.594-.374,3H59.238v-.683a6.2,6.2,0,0,0-6.188-6.188H47.232a6.2,6.2,0,0,0-6.188,6.188v.683H39.227Zm17.17.877v.683H43.885v-.683a3.351,3.351,0,0,1,3.347-3.347H53.05A3.351,3.351,0,0,1,56.4,64.438Zm12.044,9.28a6.955,6.955,0,0,1-6.947,6.947H47.845a1.42,1.42,0,1,0,0,2.841h13.65a9.757,9.757,0,0,0,6.947-2.9V92.771a1.36,1.36,0,0,1-1.359,1.359H33.2a1.36,1.36,0,0,1-1.359-1.359V80.606a9.757,9.757,0,0,0,6.947,2.9h2.428a1.42,1.42,0,0,0,0-2.841H38.788a6.955,6.955,0,0,1-6.947-6.947v-4.4A1.36,1.36,0,0,1,33.2,67.962H67.083a1.36,1.36,0,0,1,1.359,1.359v4.4Zm-.732-16.7,3.242-2.028,3.242,2.028-1.679,3.445H69.388ZM71.056,94.13a4.181,4.181,0,0,0,.227-1.359V69.321a4.2,4.2,0,0,0-1.846-3.476l.317-2.544h2.394L75.993,94.13Zm41.089-19.375H90.932V69.508a1.42,1.42,0,1,0-2.841,0v5.468a2.623,2.623,0,0,0,2.62,2.62h11.964V92.709a1.422,1.422,0,0,1-1.42,1.42h-22.4L74.864,62.123l1.751-3.594,2.259,1.413A2.368,2.368,0,0,0,82.5,57.934v-5.9h5.594V62.879a1.42,1.42,0,1,0,2.841,0V45.969h14.609a.972.972,0,0,1,.691.286l5.912,5.912Z" transform="translate(-29 0)"/>
        <path id="Trazado_1167757" data-name="Trazado 1167757" d="M376.924,268.2a1.42,1.42,0,0,0,1.42,1.42H388.79a1.42,1.42,0,1,0,0-2.841H378.344A1.42,1.42,0,0,0,376.924,268.2Z" transform="translate(-311.029 -216.249)"/>
        <path id="Trazado_1167758" data-name="Trazado 1167758" d="M388.791,296.472H378.345a1.42,1.42,0,0,0,0,2.841h10.445a1.42,1.42,0,1,0,0-2.841Z" transform="translate(-311.029 -240.321)"/>
        <path id="Trazado_1167759" data-name="Trazado 1167759" d="M388.791,326.169H378.345a1.42,1.42,0,0,0,0,2.841h10.445a1.42,1.42,0,1,0,0-2.841Z" transform="translate(-311.029 -264.394)"/>
        <path id="Trazado_1167760" data-name="Trazado 1167760" d="M384.484,355.866h-6.14a1.42,1.42,0,1,0,0,2.841h6.14a1.42,1.42,0,1,0,0-2.841Z" transform="translate(-311.029 -288.467)"/>
        <path id="Trazado_1167761" data-name="Trazado 1167761" d="M123.278,380.111h-6.87a1.42,1.42,0,1,0,0,2.841h6.87a1.42,1.42,0,0,0,0-2.841Z" transform="translate(-98.701 -308.12)"/>
      </g>
    </g>
  </g>
</svg>
