<svg xmlns="http://www.w3.org/2000/svg" xmlns:xlink="http://www.w3.org/1999/xlink" width="190" height="322" viewBox="0 0 190 322">
  <defs>
    <clipPath id="clip-path">
      <rect id="Rectángulo_420529" data-name="Rectángulo 420529" width="190" height="322" transform="translate(600 2974)" fill="#fff" stroke="#707070" stroke-width="1"/>
    </clipPath>
  </defs>
  <g id="Grupo_1217189" data-name="Grupo 1217189" transform="translate(-600 -2974)">
    <g id="Grupo_1216606" data-name="Grupo 1216606" transform="translate(531.909 3006.981)">
      <path id="Trazado_1163371" data-name="Trazado 1163371" d="M254.938,239.975c-9.183-4.27-18.763-5.982-28.276-7.277s-19.068-2.353-28.614-3.25q-22.363-2.1-44.766-2.846,3.4-.792,6.8-1.545,3.2-.708,6.4-1.391l1.732-.368.693-.146.056-.012q1.646-.347,3.293-.689,6.412-1.334,12.827-2.645c8.935-1.843,17.869-3.709,26.782-5.8,9.673-2.271,19.322-4.82,28.906-7.886,1.786-.572,3.274-3.746,3.193-6.571-.091-3.179-1.314-5.5-3.193-6.571-5.207-2.969-10.846-3.7-16.347-3.958-5.432-.259-10.872-.256-16.306-.131-11.071.253-22.132,1.144-33.177,2.339-22.122,2.394-44.184,6.009-66.315,8.212-6.184.616-12.372,1.121-18.564,1.458-2.188.119-4.384.274-6.578.275q.378-.266.758-.529c.311-.215.624-.426.936-.638l.093-.063.122-.078c.735-.47,1.47-.938,2.209-1.388a115.7,115.7,0,0,1,16.381-8.141,308.965,308.965,0,0,1,34.955-11.629q8.8-2.44,17.649-4.5,4.466-1.048,8.941-2.016,1.053-.228,2.106-.453c.164-.035,1.2-.254.651-.138l.124-.026.878-.183q2.2-.456,4.392-.9c11.9-2.388,23.821-4.444,35.751-6.382,12.056-1.959,24.118-3.821,36.179-5.714l4.464-.7c2.176-.341,3.965-2.333,4.271-5.908.272-3.175-.991-6.758-3.115-7.476A204.272,204.272,0,0,0,194.4,134.142a316.761,316.761,0,0,0-33.389.438c11.345-3.286,22.708-6.418,34.023-9.952,8.261-2.58,16.495-5.384,24.664-8.605,1.778-.7,3.276-3.65,3.193-6.571-.092-3.211-1.32-5.453-3.193-6.571-6.3-3.762-13.188-4.692-19.884-4.679-.294,0-.589.009-.883.012a9.459,9.459,0,0,0,.624-3.477c-.1-3.383-1.925-7.2-4.349-6.814-21.939,3.485-43.931,6.985-65.585,13.68-6.085,1.881-12.137,4.025-18.138,6.482-2.1.859-3.4,4.2-3.115,7.476.265,3.091,2.112,6.219,4.271,5.908,14.079-2.027,28.159-4.055,42.256-5.765,11.8-1.432,23.634-2.791,35.47-3.492-5.673,1.746-11.358,3.4-17.044,5.033-14.756,4.233-29.536,8.322-44.172,13.5-8.208,2.9-16.367,6.158-24.428,9.948-2.083.979-3.4,4.1-3.115,7.476.267,3.113,2.109,6.189,4.271,5.908,18.759-2.433,37.527-4.841,56.341-5.944,17.6-1.033,35.265-.922,52.825,1.445-.517.083-1.034.163-1.552.246-12.167,1.952-24.329,4-36.466,6.375-12.336,2.412-24.651,5.13-36.905,8.414a339.213,339.213,0,0,0-35.634,11.456,126.569,126.569,0,0,0-16.8,7.858,103.86,103.86,0,0,0-8.911,5.71A32.437,32.437,0,0,0,71.63,196.3a24.125,24.125,0,0,0-2.951,5.312c-1.2,2.846-.5,7.859,1.56,9.323a19.883,19.883,0,0,0,8.884,3.582,37.878,37.878,0,0,0,7.372.178c5.6-.244,11.193-.635,16.784-1.129,11.07-.979,22.123-2.365,33.171-3.827,21.552-2.852,43.108-6,64.736-6.983-.438.1-.876.2-1.313.294q-3.29.72-6.581,1.415l-.693.146-.029.006-.028.006-1.56.327-3.293.685c-17.53,3.631-35.088,7.049-52.516,11.778a290.128,290.128,0,0,0-28.7,9.3c-2.1.813-3.393,4.233-3.115,7.476.281,3.27,2.094,5.969,4.271,5.908q28.829-.807,57.659.616,8.508.422,17.012,1.048-26.359,2.284-52.612,6.818-8.724,1.509-17.429,3.269c-5.928,1.2-12.05,1.837-17.463,6.158-2.031,1.621-2.782,6.353-1.56,9.323,1.337,3.248,3.778,4.179,5.95,2.445.185-.148.426-.4.651-.554a1.213,1.213,0,0,0,.231-.1,17.311,17.311,0,0,1,1.688-.879,23.339,23.339,0,0,1,3.491-1.23c.536-.147,1.074-.279,1.613-.4.2-.045,1.06-.232,1.2-.265q1.744-.366,3.489-.721,7.638-1.552,15.292-2.913Q142.143,260,157.5,258.042q30.708-3.906,61.533-4.734,17.373-.466,34.748.051c2.166.064,3.991-2.642,4.271-5.908C258.341,244.09,257.032,240.949,254.938,239.975Z" fill="#fcf5f0"/>
    </g>
    <g id="Enmascarar_grupo_1153311" data-name="Enmascarar grupo 1153311" clip-path="url(#clip-path)">
      <g id="Grupo_1217188" data-name="Grupo 1217188">
        <g id="Grupo_1216909" data-name="Grupo 1216909" transform="translate(538.861 2901.631)">
          <g id="Grupo_1216798" data-name="Grupo 1216798" transform="translate(169.261 230.863)">
            <g id="Grupo_1216770" data-name="Grupo 1216770">
              <path id="Trazado_1163450" data-name="Trazado 1163450" d="M215.013,311.658a103.179,103.179,0,0,0,34.24,13.83c3.044.628,6.376,1.081,9.124-.372a11.143,11.143,0,0,0,4.72-5.95c1.436-3.587,1.4-7.425,1.789-11.269a237.874,237.874,0,0,0,.87-36.639c-.16-2.983-.36-6.069.686-8.866a4.348,4.348,0,0,1,1.444-2.112,5.191,5.191,0,0,1,2.781-.693c3.376-.157,6.8.042,10.1-.674s6.587-2.55,8-5.62c.414-.9.459-2.275-.486-2.575a2,2,0,0,0-1.356.23c-2.273.972-3.991,1.671-6.265,2.643a20.658,20.658,0,0,0,6.315-2.583,7.9,7.9,0,0,0,3.612-5.564,1.59,1.59,0,0,0-.2-1.092,1.239,1.239,0,0,0-1.423-.309,3.523,3.523,0,0,0-1.228.946c-1.267,1.325-2.534,2.693-3.711,4.1,2.542-1.765,4.926-4.345,4.916-7.44a2.646,2.646,0,0,0-.828-2.125,2.24,2.24,0,0,0-2.55.081,5.6,5.6,0,0,0-1.674,2.117,27.217,27.217,0,0,0-2,4.3,5.85,5.85,0,0,0,1.244-5.707,1.353,1.353,0,0,0-.461-.728,1.3,1.3,0,0,0-1.337.122c-1.921,1.1-2.538,3.53-3.826,5.331a8.09,8.09,0,0,1-8.719,2.948c.238-2.532,3.214-3.625,5.527-4.684a3.268,3.268,0,0,0,1.4-1.01c.9-1.313-.444-3.226-2.024-3.437s-3.08.687-4.365,1.63c-6.112,4.483-10.734,10.753-14.236,17.474s-4.264,13.477-6.7,20.652c-1.7,5-4.16,13.887-4.719,19.14-12.323-10.488-24.384-15.295-34.841-23.989C209.454,286.026,212.012,299.744,215.013,311.658Z" transform="translate(-208.823 -238.82)" fill="#fcc0b4"/>
            </g>
            <g id="Grupo_1216797" data-name="Grupo 1216797" transform="translate(32.565 0.362)">
              <g id="Grupo_1216772" data-name="Grupo 1216772" transform="translate(29.609)">
                <g id="Grupo_1216771" data-name="Grupo 1216771">
                  <path id="Trazado_1163451" data-name="Trazado 1163451" d="M293.756,239.725a1.335,1.335,0,0,0,1.472.906,3.774,3.774,0,0,0,1.069-.312l1.1-.455a.287.287,0,0,0,.194-.342.279.279,0,0,0-.342-.194l-.927.383a6.347,6.347,0,0,1-.87.32c-.419.105-1.042.058-1.162-.454-.082-.347-.618-.2-.536.148Z" transform="translate(-293.747 -239.314)" fill="#301b1b"/>
                </g>
              </g>
              <g id="Grupo_1216774" data-name="Grupo 1216774" transform="translate(34.749 0.229)">
                <g id="Grupo_1216773" data-name="Grupo 1216773">
                  <path id="Trazado_1163452" data-name="Trazado 1163452" d="M309.8,239.695c-1.584,1.324-2.3,3.3-3.328,5.027a7.326,7.326,0,0,1-2.14,2.419,14.083,14.083,0,0,1-3.37,1.506c-.336.116-.192.653.148.536a15.31,15.31,0,0,0,3.377-1.48,7.461,7.461,0,0,0,2.193-2.262c1.16-1.791,1.83-3.948,3.513-5.355.275-.228-.119-.62-.392-.392Z" transform="translate(-300.767 -239.626)" fill="#301b1b"/>
                </g>
              </g>
              <g id="Grupo_1216776" data-name="Grupo 1216776" transform="translate(40.457 0.056)">
                <g id="Grupo_1216775" data-name="Grupo 1216775">
                  <path id="Trazado_1163453" data-name="Trazado 1163453" d="M308.936,239.6a3.077,3.077,0,0,0-.325,1.859,1.389,1.389,0,0,0,1.034,1.081.286.286,0,0,0,.342-.194.28.28,0,0,0-.194-.342.876.876,0,0,1-.662-.764,2.87,2.87,0,0,1,.34-1.492.279.279,0,0,0-.194-.342.284.284,0,0,0-.341.194Z" transform="translate(-308.563 -239.391)" fill="#301b1b"/>
                </g>
              </g>
              <g id="Grupo_1216778" data-name="Grupo 1216778" transform="translate(45.941 0.322)">
                <g id="Grupo_1216777" data-name="Grupo 1216777">
                  <path id="Trazado_1163454" data-name="Trazado 1163454" d="M316.935,239.889l-.516,1.089a2.14,2.14,0,0,0-.358,1.112,1.1,1.1,0,0,0,.408.682,3.78,3.78,0,0,1,.582.507.287.287,0,0,0,.38.1.279.279,0,0,0,.1-.38,2.873,2.873,0,0,0-.533-.508c-.148-.118-.357-.263-.387-.458a.68.68,0,0,1,.1-.368c.076-.163.154-.325.231-.488l.477-1.008a.286.286,0,0,0-.1-.38.281.281,0,0,0-.381.1Z" transform="translate(-316.054 -239.753)" fill="#301b1b"/>
                </g>
              </g>
              <g id="Grupo_1216780" data-name="Grupo 1216780" transform="translate(36.722 4.425)">
                <g id="Grupo_1216779" data-name="Grupo 1216779">
                  <path id="Trazado_1163455" data-name="Trazado 1163455" d="M315.164,245.376a3.359,3.359,0,0,0-2.633,1.162c-.926.864-1.77,1.815-2.663,2.712-1.735,1.741-3.713,3.355-6.2,3.776-.351.059-.2.6.148.536a11.324,11.324,0,0,0,5.71-3.2c.879-.824,1.694-1.712,2.537-2.573.823-.84,1.8-2.022,3.1-1.857.354.043.351-.513,0-.556Z" transform="translate(-303.463 -245.358)" fill="#301b1b"/>
                </g>
              </g>
              <g id="Grupo_1216782" data-name="Grupo 1216782" transform="translate(37.239 11.131)">
                <g id="Grupo_1216781" data-name="Grupo 1216781">
                  <path id="Trazado_1163456" data-name="Trazado 1163456" d="M314.184,254.744a2.231,2.231,0,0,0-2.056.059c-.8.354-1.539.849-2.324,1.237a10.651,10.651,0,0,1-5.369,1.307c-.357-.023-.356.533,0,.556a10.313,10.313,0,0,0,4.7-.945,22.859,22.859,0,0,0,2.248-1.13c.728-.411,1.677-1.07,2.518-.6.313.174.593-.306.28-.48Z" transform="translate(-304.169 -254.517)" fill="#301b1b"/>
                </g>
              </g>
              <g id="Grupo_1216784" data-name="Grupo 1216784" transform="translate(47.956 4.658)">
                <g id="Grupo_1216783" data-name="Grupo 1216783">
                  <path id="Trazado_1163457" data-name="Trazado 1163457" d="M319.813,248c-.023.009-.045.015-.067.022s.03-.012-.019,0H319.7c.027.005.03.006.01,0a.375.375,0,0,1-.062-.018c.056.021-.077-.052-.038-.022a.619.619,0,0,1-.1-.1c.012.015-.038-.058-.05-.079s-.025-.045-.036-.068a.176.176,0,0,1-.014-.034.722.722,0,0,1-.051-.257,3.146,3.146,0,0,1,.138-.715,2.032,2.032,0,0,0,.04-.855.281.281,0,0,0-.342-.194.284.284,0,0,0-.194.342,1.994,1.994,0,0,1-.108.837,1.863,1.863,0,0,0-.055.871c.113.482.579,1.009,1.121.8a.286.286,0,0,0,.194-.342.279.279,0,0,0-.341-.193Z" transform="translate(-318.807 -245.676)" fill="#301b1b"/>
                </g>
              </g>
              <g id="Grupo_1216786" data-name="Grupo 1216786" transform="translate(46.21 11.263)">
                <g id="Grupo_1216785" data-name="Grupo 1216785">
                  <path id="Trazado_1163458" data-name="Trazado 1163458" d="M317.229,258.066a2.509,2.509,0,0,1,.5-2.9c.259-.247-.134-.64-.393-.393a3.075,3.075,0,0,0-.588,3.571c.165.318.644.037.48-.28Z" transform="translate(-316.422 -254.698)" fill="#301b1b"/>
                </g>
              </g>
              <g id="Grupo_1216788" data-name="Grupo 1216788" transform="translate(21.78 10.646)">
                <g id="Grupo_1216787" data-name="Grupo 1216787">
                  <path id="Trazado_1163459" data-name="Trazado 1163459" d="M283.072,255.689c.449,1.187,1.92,1.548,3.047,1.733a5.042,5.042,0,0,0,3.921-.8,4.989,4.989,0,0,0,1.091-1.287c.365-.551.9-1.272,1.635-.8.706.457.748,1.491.865,2.238l.433,2.766c.055.352.591.2.536-.148q-.209-1.33-.417-2.659a5.33,5.33,0,0,0-.563-2.095,1.512,1.512,0,0,0-2.5-.223c-.4.441-.638,1-1.043,1.43a3.633,3.633,0,0,1-1.918,1.023,5.782,5.782,0,0,1-2.581-.13c-.712-.181-1.677-.434-1.966-1.2-.126-.332-.663-.188-.537.147Z" transform="translate(-283.053 -253.855)" fill="#301b1b"/>
                </g>
              </g>
              <g id="Grupo_1216790" data-name="Grupo 1216790" transform="translate(25.647 16.407)">
                <g id="Grupo_1216789" data-name="Grupo 1216789">
                  <path id="Trazado_1163460" data-name="Trazado 1163460" d="M288.855,263.42a2.411,2.411,0,0,1,2.682-1.052.278.278,0,0,0,.148-.536,2.976,2.976,0,0,0-3.31,1.307.278.278,0,0,0,.48.281Z" transform="translate(-288.334 -261.724)" fill="#301b1b"/>
                </g>
              </g>
              <g id="Grupo_1216792" data-name="Grupo 1216792" transform="translate(2.093 56.06)">
                <g id="Grupo_1216791" data-name="Grupo 1216791">
                  <path id="Trazado_1163461" data-name="Trazado 1163461" d="M256.5,316.087a34.6,34.6,0,0,0,1.759,16.749c.122.333.659.189.536-.148a34.045,34.045,0,0,1-1.759-16.454c.049-.349-.486-.5-.536-.147Z" transform="translate(-256.162 -315.886)" fill="#301b1b"/>
                </g>
              </g>
              <g id="Grupo_1216794" data-name="Grupo 1216794" transform="translate(0 61.158)">
                <g id="Grupo_1216793" data-name="Grupo 1216793">
                  <path id="Trazado_1163462" data-name="Trazado 1163462" d="M254.177,323.051q-.527,2.753-.87,5.536c-.044.354.512.351.556,0q.336-2.708.851-5.388c.067-.35-.469-.5-.536-.148Z" transform="translate(-253.304 -322.85)" fill="#301b1b"/>
                </g>
              </g>
              <g id="Grupo_1216796" data-name="Grupo 1216796" transform="translate(13.397 79.938)">
                <g id="Grupo_1216795" data-name="Grupo 1216795">
                  <path id="Trazado_1163463" data-name="Trazado 1163463" d="M272.115,352.708a10.932,10.932,0,0,1,3.074-3.735.28.28,0,0,0,0-.393.285.285,0,0,0-.393,0,11.3,11.3,0,0,0-3.161,3.847c-.16.318.319.6.48.28Z" transform="translate(-271.602 -348.501)" fill="#301b1b"/>
                </g>
              </g>
            </g>
          </g>
          <g id="Grupo_1216799" data-name="Grupo 1216799" transform="translate(61.139 209.118)">
            <path id="Trazado_1163464" data-name="Trazado 1163464" d="M152.306,221.835c-.428-3.251-.732-6.665-2.513-9.417-3.952-6.105-11.39-2.426-16.112.575a42.032,42.032,0,0,0-13.18,13.786c-4.776,7.89-7.3,16.951-8.805,26.051-3.6-3.3-7.706-6.243-12.436-7.456s-10.185-.428-13.712,2.95c-2.888,2.767-4.145,6.9-4.216,10.9a18.8,18.8,0,0,0,3.792,11.627,26.837,26.837,0,0,0-4.907-2.13c-4.4-1.378-9.427-1.331-13.406,1.007s-6.56,7.249-5.388,11.713c.8,3.066,3.15,5.492,5.68,7.4a33.567,33.567,0,0,0,20.526,6.714c-5.158,1.3-10.394,2.774-14.776,5.788s-7.834,7.867-7.834,13.187a14.547,14.547,0,0,0,7.333,12.116,19.955,19.955,0,0,0,14.349,1.9c5.989-1.338,11.22-4.855,16.779-7.452q1.365-.638,2.764-1.2a57.992,57.992,0,0,1,25.319-4.1c5.333.34,10.769,1.414,15.95.1,5.6-1.415,10.261-5.56,13.138-10.566a38.012,38.012,0,0,0,4.481-16.574C166.59,266,155.285,244.443,152.306,221.835Z" transform="translate(-61.139 -209.118)" fill="#301b1b"/>
          </g>
          <g id="Grupo_1216800" data-name="Grupo 1216800" transform="translate(114.219 360.787)">
            <path id="Trazado_1163465" data-name="Trazado 1163465" d="M137.086,428.7a110.94,110.94,0,0,0-3.445,21.6h74.871V416.284Z" transform="translate(-133.641 -416.284)" fill="#301b1b"/>
          </g>
          <g id="Grupo_1216801" data-name="Grupo 1216801" transform="translate(122.733 212.224)">
            <path id="Trazado_1163466" data-name="Trazado 1163466" d="M174.594,265.411c-1.654-6.262-2.4-8.133-3.809-14.211,4.344-.206,9.5-.993,12.835-4.188,2.3-2.21.573-6.439-.037-9.573a59.3,59.3,0,0,0-7.842-19.96,9.33,9.33,0,0,0-3.092-3.409,7.18,7.18,0,0,0-5.462-.334,13.593,13.593,0,0,0-8.151,6.99,17.711,17.711,0,0,0-1.472,10.766,4.258,4.258,0,0,0-5.937-1.158,7.36,7.36,0,0,0-2.387,4.163,9.556,9.556,0,0,0-.4,2.827,6.045,6.045,0,0,0,10.516,3.82c-.042,8.23-.063,18.126-.1,26.356l-13.983,6.9s16.183,5.076,32.425-1.223c0,0,9.982-1.393,12.848-5.069Z" transform="translate(-145.271 -213.36)" fill="#fcc0b4"/>
          </g>
          <g id="Grupo_1216802" data-name="Grupo 1216802" transform="translate(99.994 264.276)">
            <path id="Trazado_1163467" data-name="Trazado 1163467" d="M208.011,386.309c-1.922-17.137-4.5-33.953-7.783-50.882a25.968,25.968,0,0,0,3.469-6.364,13.482,13.482,0,0,0-1.931-12.956c-1.955-2.557-3.873-5.073-5.941-7.75a25.853,25.853,0,0,0,6.159-14.256,106.217,106.217,0,0,0-20.179-9.643,41.091,41.091,0,0,1-44.568,4.657c-8.7,5.32-17.069,11.9-23.026,20.171a81.417,81.417,0,0,0,28.027,20.106c-6.888,11.749-14.409,24.063-15.176,37.661-.546,9.691-2.619,20.021-3.51,29.687,14.717,1.909,28.2,3.63,42.992,2.476S195.665,394.544,208.011,386.309Z" transform="translate(-114.212 -284.458)" fill="#f47471"/>
          </g>
          <g id="Grupo_1216807" data-name="Grupo 1216807" transform="translate(130.415 231.9)">
            <g id="Grupo_1216804" data-name="Grupo 1216804">
              <g id="Grupo_1216803" data-name="Grupo 1216803">
                <path id="Trazado_1163468" data-name="Trazado 1163468" d="M157.856,240.277a4.153,4.153,0,0,0-.262,7.047c.293.206.571-.275.28-.48a3.6,3.6,0,0,1,.262-6.088.278.278,0,0,0-.28-.48Z" transform="translate(-155.764 -240.237)" fill="#301b1b"/>
              </g>
            </g>
            <g id="Grupo_1216806" data-name="Grupo 1216806" transform="translate(0.465 3.331)">
              <g id="Grupo_1216805" data-name="Grupo 1216805">
                <path id="Trazado_1163469" data-name="Trazado 1163469" d="M156.676,245.359a1.933,1.933,0,0,1,.332-.015,1.127,1.127,0,0,1,.255.034,1.693,1.693,0,0,1,.562.225,1.744,1.744,0,0,1,.732.873.285.285,0,0,0,.342.194.28.28,0,0,0,.194-.342,2.329,2.329,0,0,0-2.417-1.526.287.287,0,0,0-.277.277.279.279,0,0,0,.277.278Z" transform="translate(-156.399 -244.786)" fill="#301b1b"/>
              </g>
            </g>
          </g>
          <g id="Grupo_1216809" data-name="Grupo 1216809" transform="translate(142.753 267.261)">
            <g id="Grupo_1216808" data-name="Grupo 1216808" transform="translate(0 0)">
              <path id="Trazado_1163470" data-name="Trazado 1163470" d="M175.483,290.264a4.7,4.7,0,0,0-2.523-1.718.278.278,0,0,0-.148.536,4.092,4.092,0,0,1,2.19,1.463.287.287,0,0,0,.38.1.278.278,0,0,0,.1-.38Z" transform="translate(-172.616 -288.535)" fill="#301b1b"/>
            </g>
          </g>
          <g id="Grupo_1216811" data-name="Grupo 1216811" transform="translate(147.513 265.738)">
            <g id="Grupo_1216810" data-name="Grupo 1216810" transform="translate(0 0)">
              <path id="Trazado_1163471" data-name="Trazado 1163471" d="M179.665,289.1a4.746,4.746,0,0,1,1.3-2.175c.259-.247-.134-.64-.393-.393a5.306,5.306,0,0,0-1.447,2.42.278.278,0,0,0,.536.148Z" transform="translate(-179.118 -286.456)" fill="#301b1b"/>
            </g>
          </g>
          <g id="Grupo_1216824" data-name="Grupo 1216824" transform="translate(105.504 270.561)">
            <g id="Grupo_1216813" data-name="Grupo 1216813" transform="translate(27.162 59.368)">
              <g id="Grupo_1216812" data-name="Grupo 1216812">
                <path id="Trazado_1163472" data-name="Trazado 1163472" d="M164.575,377.485a2.1,2.1,0,0,0-1.928-3.331,2.027,2.027,0,0,0-1.73,1.474,2.188,2.188,0,0,0,.74,2.243c.019-.146.037-.291.056-.436a4.931,4.931,0,0,0-2.579,2.287,3.078,3.078,0,0,0,.111,2.852,2.1,2.1,0,0,0,2.337,1.013,1.951,1.951,0,0,0,1.556-1.94l-.545.074a2.079,2.079,0,0,0,1.786,1.578,2.7,2.7,0,0,0,2.385-.981c.961-1.088,1.766-3.64.005-4.438q-.033.254-.067.507a1.369,1.369,0,0,0,.507-2.2c-.819-.918-2.231-.3-2.818.545-.2.3.277.573.48.28.37-.536,1.311-1.048,1.887-.5.368.353.351,1.181-.2,1.334-.213.059-.292.406-.067.507,1.346.61.659,2.6-.022,3.451a2.272,2.272,0,0,1-1.85.958,1.562,1.562,0,0,1-1.488-1.2.279.279,0,0,0-.545.074,1.433,1.433,0,0,1-1.309,1.437,1.647,1.647,0,0,1-1.748-1.218c-.63-1.824.947-3.286,2.466-3.953a.279.279,0,0,0,.056-.436,1.531,1.531,0,1,1,2.045-.274c-.213.287.269.565.482.282Z" transform="translate(-158.838 -374.135)" fill="#ffbf73"/>
              </g>
            </g>
            <g id="Grupo_1216815" data-name="Grupo 1216815" transform="translate(56.742 17.049)">
              <g id="Grupo_1216814" data-name="Grupo 1216814">
                <path id="Trazado_1163473" data-name="Trazado 1163473" d="M205.839,317.647a1.85,1.85,0,1,0-1.274,3.367v-.536c-2.357.495-5.383,2.556-5.322,5.268a2.237,2.237,0,0,0,4.423.495c.073-.294-.368-.509-.507-.214a2.636,2.636,0,0,0,2.363,3.633,3.017,3.017,0,0,0,2.6-3.794l-.464.27a2.163,2.163,0,0,0,2.332.649,3.373,3.373,0,0,0,2-2.025,4.222,4.222,0,0,0,.291-3.248,1.916,1.916,0,0,0-2.189-1.159l.313.408c.666-1.417.4-3.47-1.153-4.2a2.478,2.478,0,0,0-3.421,1.515c-.081.348.454.5.536.148A1.919,1.919,0,0,1,209.1,317.1a2.628,2.628,0,0,1,.824,3.377.281.281,0,0,0,.313.408c.906-.233,1.576.6,1.676,1.417a4.529,4.529,0,0,1-.515,2.416c-.575,1.182-2.27,2.4-3.349,1.023-.179-.229-.53.023-.464.27a2.485,2.485,0,0,1-1.873,3.073,2.067,2.067,0,0,1-2.078-2.779l-.507-.214a1.693,1.693,0,0,1-2.364,1.193c-1.118-.535-1.12-1.83-.677-2.822a6.522,6.522,0,0,1,4.623-3.45.28.28,0,0,0,0-.536,1.3,1.3,0,1,1,.846-2.352c.3.187.584-.294.28-.48Z" transform="translate(-199.242 -316.331)" fill="#ffbf73"/>
              </g>
            </g>
            <g id="Grupo_1216817" data-name="Grupo 1216817" transform="translate(65.042 85.347)">
              <g id="Grupo_1216816" data-name="Grupo 1216816">
                <path id="Trazado_1163474" data-name="Trazado 1163474" d="M219.32,410.258a2.647,2.647,0,0,0-3.709,3.769c.041-.154.082-.31.122-.464-2.724.45-5.324,3.032-5.146,5.929a2.523,2.523,0,0,0,1.941,2.587c1.408.158,2.406-1.176,3.055-2.236l-.507-.067a2.978,2.978,0,1,0,5.634-1.682l-.48.28c.694,1.414,2.431,1.042,3.406.174a5.353,5.353,0,0,0,1.668-4.283,4.881,4.881,0,0,0-2.081-3.822,2.987,2.987,0,0,0-3.871.457c-.231.271.161.665.393.393a2.449,2.449,0,0,1,3.282-.316,4.288,4.288,0,0,1,1.7,3.025,4.994,4.994,0,0,1-.742,3.29c-.616.948-2.483,2.412-3.272.8-.16-.327-.616-.04-.48.28a2.426,2.426,0,1,1-4.619,1.255c-.039-.249-.394-.253-.507-.067-.551.9-1.527,2.314-2.778,1.911-1.16-.373-1.313-1.99-1.1-2.988a5.748,5.748,0,0,1,4.66-4.385c.225-.037.242-.322.122-.464a2.092,2.092,0,0,1,2.923-2.983c.274.222.669-.169.392-.395Z" transform="translate(-210.578 -409.62)" fill="#ffbf73"/>
              </g>
            </g>
            <g id="Grupo_1216819" data-name="Grupo 1216819" transform="translate(0 3.356)">
              <g id="Grupo_1216818" data-name="Grupo 1216818">
                <path id="Trazado_1163475" data-name="Trazado 1163475" d="M121.771,306.343a2.286,2.286,0,1,0,4.339-.357c-.1-.269-.568-.264-.545.074a2.074,2.074,0,0,0,2.6,1.673c1.567-.319,2.261-2.067,2.662-3.423l-.408.166c1.549.924,3.125-.482,3.37-2.017a5.276,5.276,0,0,0-1.978-4.765c-.275-.223-.671.168-.393.393a4.9,4.9,0,0,1,1.865,3.6,2.7,2.7,0,0,1-.676,2.026A1.588,1.588,0,0,1,130.7,304a.28.28,0,0,0-.408.166c-.316,1.073-.775,2.4-1.87,2.905-.824.384-2.233.054-2.3-1.008l-.545.074a1.855,1.855,0,0,1-1.177,2.412,1.808,1.808,0,0,1-2.09-2.055c.062-.35-.474-.5-.537-.148Z" transform="translate(-121.737 -297.627)" fill="#ffbf73"/>
              </g>
            </g>
            <g id="Grupo_1216821" data-name="Grupo 1216821" transform="translate(74.56)">
              <g id="Grupo_1216820" data-name="Grupo 1216820">
                <path id="Trazado_1163476" data-name="Trazado 1163476" d="M224.506,293.1a2.088,2.088,0,0,0,1.882,3.7l-.27-.464a3.73,3.73,0,0,0-1.249,4.259,2.8,2.8,0,0,0,3.543,1.47c.328-.141.045-.619-.28-.48a2.254,2.254,0,0,1-2.836-1.411,3.266,3.266,0,0,1,1.215-3.445.28.28,0,0,0-.27-.464,1.535,1.535,0,0,1-1.455-2.684c.288-.208.011-.69-.28-.48Z" transform="translate(-223.578 -293.044)" fill="#ffbf73"/>
              </g>
            </g>
            <g id="Grupo_1216823" data-name="Grupo 1216823" transform="translate(12.648 95.123)">
              <g id="Grupo_1216822" data-name="Grupo 1216822">
                <path id="Trazado_1163477" data-name="Trazado 1163477" d="M139.76,423.108c-.728,1.264-1.258,3.1.057,4.2a1.656,1.656,0,0,0,2.7-.841c.051-.288-.355-.516-.507-.214a1.923,1.923,0,1,0,3.425,1.735l-.507-.067a3.888,3.888,0,1,0,6.82-3.6c-.2-.294-.681-.017-.48.28a3.334,3.334,0,1,1-5.806,3.169c-.081-.2-.392-.305-.507-.067a1.37,1.37,0,1,1-2.466-1.174l-.507-.214c-.206,1.17-1.657.976-2.151.144-.594-1-.11-2.169.414-3.079a.278.278,0,0,0-.481-.28Z" transform="translate(-139.013 -422.973)" fill="#ffbf73"/>
              </g>
            </g>
          </g>
          <g id="Grupo_1216833" data-name="Grupo 1216833" transform="translate(115.31 373.061)">
            <g id="Grupo_1216826" data-name="Grupo 1216826" transform="translate(46.639 6.435)">
              <g id="Grupo_1216825" data-name="Grupo 1216825">
                <path id="Trazado_1163478" data-name="Trazado 1163478" d="M199.38,456.652c1.271-5.587,3.368-11.858,9.077-14.308.327-.141.045-.619-.28-.48-5.835,2.505-8.032,8.927-9.332,14.641-.078.347.457.5.536.147Z" transform="translate(-198.836 -441.838)" fill="#fff"/>
              </g>
            </g>
            <g id="Grupo_1216828" data-name="Grupo 1216828" transform="translate(53.325 9.68)">
              <g id="Grupo_1216827" data-name="Grupo 1216827">
                <path id="Trazado_1163479" data-name="Trazado 1163479" d="M208.384,448.223l3.249-1.441a.28.28,0,0,0,.1-.38.284.284,0,0,0-.38-.1l-3.249,1.441a.28.28,0,0,0-.1.38.285.285,0,0,0,.38.1Z" transform="translate(-207.968 -446.27)" fill="#fff"/>
              </g>
            </g>
            <g id="Grupo_1216830" data-name="Grupo 1216830" transform="translate(65.859 0)">
              <g id="Grupo_1216829" data-name="Grupo 1216829">
                <path id="Trazado_1163480" data-name="Trazado 1163480" d="M225.092,433.4a7.458,7.458,0,0,0,7.134,6.175.278.278,0,0,0,0-.556,6.909,6.909,0,0,1-6.6-5.768c-.052-.352-.587-.2-.535.148Z" transform="translate(-225.088 -433.048)" fill="#fff"/>
              </g>
            </g>
            <g id="Grupo_1216832" data-name="Grupo 1216832" transform="translate(0 6.387)">
              <g id="Grupo_1216831" data-name="Grupo 1216831">
                <path id="Trazado_1163481" data-name="Trazado 1163481" d="M135.4,449.722a14.829,14.829,0,0,0,14.48-7.531c.171-.314-.309-.6-.48-.28a14.29,14.29,0,0,1-14,7.255c-.354-.041-.351.515,0,.556Z" transform="translate(-135.131 -441.773)" fill="#fff"/>
              </g>
            </g>
          </g>
          <g id="Grupo_1216876" data-name="Grupo 1216876" transform="translate(86.913 292.55)">
            <g id="Grupo_1216834" data-name="Grupo 1216834" transform="translate(0 0)">
              <path id="Trazado_1163482" data-name="Trazado 1163482" d="M138.086,339.72c-5.149,13.416-6.659,17.985-12.3,31.2,13.112,4.221,21.849,7.141,35.33,9.964l1.714-7.4c.643-2.775,1.321-5.629,2.979-7.945,2.371-3.311,6.446-5.037,10.479-5.605a2.541,2.541,0,0,1,1.217.037,1.723,1.723,0,0,1,.976,1.854,3.458,3.458,0,0,1-1.111,1.926c-1.338,1.311-3.12,2.046-4.707,3.04a6.06,6.06,0,0,0-2.61,4.639,14.563,14.563,0,0,1,14.13-8.375c1.331.111,2.841.564,3.349,1.8a2.879,2.879,0,0,1-1.168,3.226,8.42,8.42,0,0,1-3.451,1.233c-2.572.511-4.443,1.9-7.015,2.413a14.5,14.5,0,0,1,6.943-2.666,6.913,6.913,0,0,1,5.2,1.188c1.4,1.176,1.87,3.545.582,4.843a4.352,4.352,0,0,1-3.6.9,11.289,11.289,0,0,0-3.053-.152c2.029-.709,4.267,1.491,3.994,3.623a4.713,4.713,0,0,1-4.6,3.735c-1.687.047-3.379-.635-5.032-.292-3.409.707-4.466,4.953-6.661,7.656-2.721,3.353-7.365,4.329-11.648,4.884a135.977,135.977,0,0,1-37.122-.307c-5.191-.761-10.438-1.858-15-4.446s-8.4-6.885-9.322-12.051c-.666-3.746.226-7.577,1.185-11.259,4.748-18.218,6.8-27.371,15.018-44.309C113,323,127.337,335.983,138.086,339.72Z" transform="translate(-96.344 -323.077)" fill="#fcc0b4"/>
            </g>
            <g id="Grupo_1216875" data-name="Grupo 1216875" transform="translate(3.354 36.683)">
              <g id="Grupo_1216836" data-name="Grupo 1216836" transform="translate(10.359 7.248)">
                <g id="Grupo_1216835" data-name="Grupo 1216835">
                  <path id="Trazado_1163483" data-name="Trazado 1163483" d="M132.6,387.055a75.648,75.648,0,0,0-17.26-3.97c-.355-.039-.352.517,0,.556a75.019,75.019,0,0,1,17.112,3.95c.338.12.483-.417.148-.536Z" transform="translate(-115.076 -383.083)" fill="#301b1b"/>
                </g>
              </g>
              <g id="Grupo_1216838" data-name="Grupo 1216838" transform="translate(19.558 5.838)">
                <g id="Grupo_1216837" data-name="Grupo 1216837">
                  <path id="Trazado_1163484" data-name="Trazado 1163484" d="M131,382.757l-2.939-1.565c-.316-.168-.6.311-.28.48l2.939,1.565c.316.168.6-.311.28-.48Z" transform="translate(-127.64 -381.157)" fill="#301b1b"/>
                </g>
              </g>
              <g id="Grupo_1216840" data-name="Grupo 1216840" transform="translate(61.054 20.743)">
                <g id="Grupo_1216839" data-name="Grupo 1216839">
                  <path id="Trazado_1163485" data-name="Trazado 1163485" d="M184.332,401.859l1.193,4.111a.278.278,0,0,0,.536-.148l-1.193-4.111a.278.278,0,0,0-.536.148Z" transform="translate(-184.319 -401.516)" fill="#301b1b"/>
                </g>
              </g>
              <g id="Grupo_1216842" data-name="Grupo 1216842" transform="translate(62.107 21.894)">
                <g id="Grupo_1216841" data-name="Grupo 1216841">
                  <path id="Trazado_1163486" data-name="Trazado 1163486" d="M185.839,403.561c.129.116.253.239.371.366.059.064.116.13.172.2s.1.122.145.182a5.532,5.532,0,0,1,.548.9.279.279,0,0,0,.38.1.285.285,0,0,0,.1-.38,5.8,5.8,0,0,0-1.324-1.759.278.278,0,1,0-.392.393Z" transform="translate(-185.759 -403.088)" fill="#301b1b"/>
                </g>
              </g>
              <g id="Grupo_1216844" data-name="Grupo 1216844" transform="translate(69.624 3.841)">
                <g id="Grupo_1216843" data-name="Grupo 1216843">
                  <path id="Trazado_1163487" data-name="Trazado 1163487" d="M204.747,378.448a14.3,14.3,0,0,0-8.706,8.914c-.112.34.424.486.536.148a13.713,13.713,0,0,1,8.318-8.526c.333-.119.189-.657-.149-.536Z" transform="translate(-196.026 -378.43)" fill="#301b1b"/>
                </g>
              </g>
              <g id="Grupo_1216846" data-name="Grupo 1216846" transform="translate(72.578 8.892)">
                <g id="Grupo_1216845" data-name="Grupo 1216845">
                  <path id="Trazado_1163488" data-name="Trazado 1163488" d="M214.221,385.831a5.268,5.268,0,0,0-3.723-.32,19.391,19.391,0,0,0-4.566,1.22,12.382,12.382,0,0,0-5.836,5.382c-.172.313.307.594.48.28a11.885,11.885,0,0,1,5.256-5.008,15.841,15.841,0,0,1,3.943-1.181c1.347-.256,2.911-.651,4.165.106a.278.278,0,0,0,.281-.48Z" transform="translate(-200.06 -385.328)" fill="#301b1b"/>
                </g>
              </g>
              <g id="Grupo_1216848" data-name="Grupo 1216848" transform="translate(73.767 15.296)">
                <g id="Grupo_1216847" data-name="Grupo 1216847">
                  <path id="Trazado_1163489" data-name="Trazado 1163489" d="M213.43,395.438a3.142,3.142,0,0,0-2.477-1.262,10.6,10.6,0,0,0-3.308.063,10.844,10.844,0,0,0-5.879,3.091c-.25.256.143.649.393.393a10.308,10.308,0,0,1,5.129-2.848,10.172,10.172,0,0,1,2.909-.223c.927.063,2.239.173,2.754,1.067a.278.278,0,0,0,.479-.281Z" transform="translate(-201.685 -394.076)" fill="#301b1b"/>
                </g>
              </g>
              <g id="Grupo_1216850" data-name="Grupo 1216850" transform="translate(75.413)">
                <g id="Grupo_1216849" data-name="Grupo 1216849">
                  <path id="Trazado_1163490" data-name="Trazado 1163490" d="M204.13,373.729c.054.014,0-.01-.021-.026l.006.01c-.009-.026-.01-.029,0-.01a.28.28,0,0,1,.023.134c.007.121,0,.242.012.363a1.11,1.11,0,0,0,.512.8,2.122,2.122,0,0,0,2.036-.093.287.287,0,0,0,.194-.342.28.28,0,0,0-.342-.194,3.161,3.161,0,0,1-.98.3.9.9,0,0,1-.7-.213.5.5,0,0,1-.159-.256,2,2,0,0,1-.015-.324c-.01-.3-.093-.6-.416-.689a.278.278,0,0,0-.148.536Z" transform="translate(-203.933 -373.183)" fill="#301b1b"/>
                </g>
              </g>
              <g id="Grupo_1216852" data-name="Grupo 1216852" transform="translate(84.458 3.005)">
                <g id="Grupo_1216851" data-name="Grupo 1216851">
                  <path id="Trazado_1163491" data-name="Trazado 1163491" d="M216.308,377.633a3.532,3.532,0,0,1-.02,1.02,1.1,1.1,0,0,0,.4.964,2.725,2.725,0,0,0,1.183.357,8.142,8.142,0,0,0,1.443.1.278.278,0,0,0,0-.556,7.352,7.352,0,0,1-1.243-.07c-.209-.031-.417-.071-.622-.119a1.166,1.166,0,0,1-.447-.165c-.209-.16-.168-.468-.148-.7a2.766,2.766,0,0,0-.012-.973.278.278,0,0,0-.535.147Z" transform="translate(-216.287 -377.288)" fill="#301b1b"/>
                </g>
              </g>
              <g id="Grupo_1216854" data-name="Grupo 1216854" transform="translate(87.542 10.355)">
                <g id="Grupo_1216853" data-name="Grupo 1216853">
                  <path id="Trazado_1163492" data-name="Trazado 1163492" d="M220.99,387.461a3.218,3.218,0,0,0-.472,1.133,1.609,1.609,0,0,0,.211,1.063,3.724,3.724,0,0,0,1.6,1.276c.318.161.6-.318.28-.48a3.412,3.412,0,0,1-1.36-1.007,1.09,1.09,0,0,1-.193-.741,2.616,2.616,0,0,1,.41-.963.278.278,0,0,0-.48-.281Z" transform="translate(-220.5 -387.327)" fill="#301b1b"/>
                </g>
              </g>
              <g id="Grupo_1216856" data-name="Grupo 1216856" transform="translate(84.59 17.311)">
                <g id="Grupo_1216855" data-name="Grupo 1216855">
                  <path id="Trazado_1163493" data-name="Trazado 1163493" d="M217.109,396.909c-.455.562-.933,1.341-.421,2.027a2.9,2.9,0,0,0,.678.59,1.365,1.365,0,0,1,.507.54.279.279,0,0,0,.38.1.285.285,0,0,0,.1-.38c-.214-.49-.73-.692-1.093-1.037a.641.641,0,0,1-.235-.584,1.935,1.935,0,0,1,.477-.862.286.286,0,0,0,0-.393.279.279,0,0,0-.392,0Z" transform="translate(-216.467 -396.828)" fill="#301b1b"/>
                </g>
              </g>
              <g id="Grupo_1216858" data-name="Grupo 1216858" transform="translate(78.534 17.268)">
                <g id="Grupo_1216857" data-name="Grupo 1216857">
                  <path id="Trazado_1163494" data-name="Trazado 1163494" d="M208.2,397.121c.043.206.086.413.129.62a.278.278,0,0,0,.507.067.3.3,0,0,0,.028-.214c-.043-.206-.086-.413-.129-.62a.277.277,0,0,0-.341-.194.285.285,0,0,0-.166.127.3.3,0,0,0-.028.214Z" transform="translate(-208.195 -396.77)" fill="#301b1b"/>
                </g>
              </g>
              <g id="Grupo_1216860" data-name="Grupo 1216860" transform="translate(79.388 17.023)">
                <g id="Grupo_1216859" data-name="Grupo 1216859">
                  <path id="Trazado_1163495" data-name="Trazado 1163495" d="M209.362,396.712v.5a.286.286,0,0,0,.081.2.278.278,0,0,0,.392,0,.288.288,0,0,0,.081-.2v-.5a.286.286,0,0,0-.081-.2.278.278,0,0,0-.392,0,.288.288,0,0,0-.081.2Z" transform="translate(-209.362 -396.435)" fill="#301b1b"/>
                </g>
              </g>
              <g id="Grupo_1216862" data-name="Grupo 1216862" transform="translate(78.748 11.318)">
                <g id="Grupo_1216861" data-name="Grupo 1216861">
                  <path id="Trazado_1163496" data-name="Trazado 1163496" d="M208.5,388.993l.121.373a.3.3,0,0,0,.127.166.2.2,0,0,0,.1.033.211.211,0,0,0,.111-.005.285.285,0,0,0,.166-.127.277.277,0,0,0,.028-.214l-.121-.373a.3.3,0,0,0-.127-.166.205.205,0,0,0-.1-.033.212.212,0,0,0-.111.005.285.285,0,0,0-.166.127.28.28,0,0,0-.028.214Z" transform="translate(-208.488 -388.642)" fill="#301b1b"/>
                </g>
              </g>
              <g id="Grupo_1216864" data-name="Grupo 1216864" transform="translate(79.636 10.94)">
                <g id="Grupo_1216863" data-name="Grupo 1216863">
                  <path id="Trazado_1163497" data-name="Trazado 1163497" d="M209.7,388.4v.621a.286.286,0,0,0,.081.2.277.277,0,0,0,.474-.2V388.4a.286.286,0,0,0-.081-.2.277.277,0,0,0-.474.2Z" transform="translate(-209.701 -388.126)" fill="#301b1b"/>
                </g>
              </g>
              <g id="Grupo_1216866" data-name="Grupo 1216866" transform="translate(76.028 7.097)">
                <g id="Grupo_1216865" data-name="Grupo 1216865">
                  <path id="Trazado_1163498" data-name="Trazado 1163498" d="M204.809,383.294l.248.5a.279.279,0,0,0,.166.127.283.283,0,0,0,.214-.028.279.279,0,0,0,.127-.166.306.306,0,0,0-.028-.214l-.248-.5a.279.279,0,0,0-.166-.127.283.283,0,0,0-.214.028.279.279,0,0,0-.127.166.3.3,0,0,0,.028.214Z" transform="translate(-204.773 -382.877)" fill="#301b1b"/>
                </g>
              </g>
              <g id="Grupo_1216868" data-name="Grupo 1216868" transform="translate(77.152 6.719)">
                <g id="Grupo_1216867" data-name="Grupo 1216867">
                  <path id="Trazado_1163499" data-name="Trazado 1163499" d="M206.319,382.712l.124.373a.3.3,0,0,0,.127.166.2.2,0,0,0,.1.033.21.21,0,0,0,.111-.005.285.285,0,0,0,.166-.127.277.277,0,0,0,.028-.214l-.124-.373a.3.3,0,0,0-.127-.166.2.2,0,0,0-.1-.033.211.211,0,0,0-.111.005.285.285,0,0,0-.166.127.28.28,0,0,0-.028.214Z" transform="translate(-206.308 -382.361)" fill="#301b1b"/>
                </g>
              </g>
              <g id="Grupo_1216870" data-name="Grupo 1216870" transform="translate(69.553 4.367)">
                <g id="Grupo_1216869" data-name="Grupo 1216869">
                  <path id="Trazado_1163500" data-name="Trazado 1163500" d="M195.938,379.5l.123.5a.287.287,0,0,0,.127.166.28.28,0,0,0,.214.028.285.285,0,0,0,.166-.127.294.294,0,0,0,.028-.214l-.123-.5a.287.287,0,0,0-.127-.166.28.28,0,0,0-.214-.028.285.285,0,0,0-.166.127.3.3,0,0,0-.028.214Z" transform="translate(-195.929 -379.148)" fill="#301b1b"/>
                </g>
              </g>
              <g id="Grupo_1216872" data-name="Grupo 1216872" transform="translate(70.816 2.996)">
                <g id="Grupo_1216871" data-name="Grupo 1216871">
                  <path id="Trazado_1163501" data-name="Trazado 1163501" d="M197.663,377.627l.124.5a.287.287,0,0,0,.127.166.28.28,0,0,0,.214.028.285.285,0,0,0,.166-.127.294.294,0,0,0,.028-.214c-.042-.165-.083-.331-.124-.5a.287.287,0,0,0-.127-.166.28.28,0,0,0-.214-.028.285.285,0,0,0-.166.127.293.293,0,0,0-.028.214Z" transform="translate(-197.654 -377.276)" fill="#301b1b"/>
                </g>
              </g>
              <g id="Grupo_1216874" data-name="Grupo 1216874" transform="translate(0 15.478)">
                <g id="Grupo_1216873" data-name="Grupo 1216873">
                  <path id="Trazado_1163502" data-name="Trazado 1163502" d="M100.965,394.739a9.126,9.126,0,0,1,.789,7.342c-.109.341.427.488.536.148a9.686,9.686,0,0,0-.846-7.771.278.278,0,0,0-.48.28Z" transform="translate(-100.926 -394.325)" fill="#301b1b"/>
                </g>
              </g>
            </g>
          </g>
          <g id="Grupo_1216897" data-name="Grupo 1216897" transform="translate(139.475 219.374)">
            <g id="Grupo_1216886" data-name="Grupo 1216886" transform="translate(1.968)">
              <g id="Grupo_1216881" data-name="Grupo 1216881" transform="translate(2.602 3.878)">
                <g id="Grupo_1216878" data-name="Grupo 1216878" transform="translate(0 3.384)">
                  <g id="Grupo_1216877" data-name="Grupo 1216877">
                    <path id="Trazado_1163503" data-name="Trazado 1163503" d="M174.4,234.9a4.9,4.9,0,0,0,2.969,3.175,2.186,2.186,0,0,0,2.076-.266,2.523,2.523,0,0,0,.8-1.723,17.838,17.838,0,0,0-.028-2.775c-.013-.357-.569-.358-.556,0a19.5,19.5,0,0,1,.04,2.664,1.677,1.677,0,0,1-1.166,1.664,2.841,2.841,0,0,1-2.273-.846,4.563,4.563,0,0,1-1.332-2.039c-.108-.34-.644-.2-.536.146Z" transform="translate(-174.381 -233.046)" fill="#301b1b"/>
                  </g>
                </g>
                <g id="Grupo_1216880" data-name="Grupo 1216880" transform="translate(9.115)">
                  <g id="Grupo_1216879" data-name="Grupo 1216879">
                    <path id="Trazado_1163504" data-name="Trazado 1163504" d="M186.879,231.146c.711,1.062,1.585,2.245,2.969,2.354a2.188,2.188,0,0,0,1.554-.453,1.9,1.9,0,0,0,.579-1.756,8.966,8.966,0,0,0-.284-1.238l-.39-1.433a.278.278,0,0,0-.536.148l.367,1.349a8.578,8.578,0,0,1,.3,1.25,1.283,1.283,0,0,1-.851,1.5c-1.468.458-2.514-.944-3.223-2-.2-.3-.68-.018-.48.28Z" transform="translate(-186.831 -228.423)" fill="#301b1b"/>
                  </g>
                </g>
              </g>
              <g id="Grupo_1216883" data-name="Grupo 1216883" transform="translate(0 2.407)">
                <g id="Grupo_1216882" data-name="Grupo 1216882">
                  <path id="Trazado_1163505" data-name="Trazado 1163505" d="M171.664,231.08a10.275,10.275,0,0,1,3.5-3.811c.488-.313.035-1.1-.456-.78a11.21,11.21,0,0,0-3.827,4.136c-.274.513.507.97.78.456Z" transform="translate(-170.827 -226.415)" fill="#301b1b"/>
                </g>
              </g>
              <g id="Grupo_1216885" data-name="Grupo 1216885" transform="translate(9.547)">
                <g id="Grupo_1216884" data-name="Grupo 1216884">
                  <path id="Trazado_1163506" data-name="Trazado 1163506" d="M184.439,224.613a12.633,12.633,0,0,1,3.4-.583.452.452,0,0,0,0-.9,13.578,13.578,0,0,0-3.642.616.452.452,0,1,0,.24.87Z" transform="translate(-183.867 -223.127)" fill="#301b1b"/>
                </g>
              </g>
            </g>
            <g id="Grupo_1216888" data-name="Grupo 1216888" transform="translate(0 24.278)">
              <g id="Grupo_1216887" data-name="Grupo 1216887">
                <path id="Trazado_1163507" data-name="Trazado 1163507" d="M168.158,256.623a14.65,14.65,0,0,0,1.568,3.033,6.8,6.8,0,0,0,2.142,2.218,8.376,8.376,0,0,0,3.164.761,30.886,30.886,0,0,0,3.971.192.278.278,0,0,0,0-.556,31.05,31.05,0,0,1-3.362-.128,9.688,9.688,0,0,1-3.33-.663,5.919,5.919,0,0,1-2.106-2.1,14.085,14.085,0,0,1-1.513-2.9c-.126-.33-.663-.187-.535.149Z" transform="translate(-168.138 -256.288)" fill="#301b1b"/>
              </g>
            </g>
            <g id="Grupo_1216892" data-name="Grupo 1216892" transform="translate(8.707 15.943)">
              <g id="Grupo_1216889" data-name="Grupo 1216889">
                <path id="Trazado_1163508" data-name="Trazado 1163508" d="M183.491,245.5a3.385,3.385,0,0,0-1.73-.589,2.013,2.013,0,0,0-1.505,1.491,4.912,4.912,0,0,0,1.342,5.008,5,5,0,0,0,4.881,1.153,4.4,4.4,0,0,0,2.994-3.929,2.525,2.525,0,0,0-.8-2.035,3.344,3.344,0,0,0-2.106-.525,11.112,11.112,0,0,1-1.7-.133A5.25,5.25,0,0,1,183.491,245.5Z" transform="translate(-180.031 -244.903)" fill="#301b1b"/>
              </g>
              <g id="Grupo_1216890" data-name="Grupo 1216890" transform="translate(1.345 4.377)">
                <path id="Trazado_1163509" data-name="Trazado 1163509" d="M187.726,253.326a2.562,2.562,0,0,0-1.19-1.959,3.332,3.332,0,0,0-2.286-.444,3.938,3.938,0,0,0-2.382,1.324,5.758,5.758,0,0,0,2.787,1.507A4.05,4.05,0,0,0,187.726,253.326Z" transform="translate(-181.868 -250.882)" fill="#f47471"/>
              </g>
              <g id="Grupo_1216891" data-name="Grupo 1216891" transform="translate(2.561 0.77)">
                <path id="Trazado_1163510" data-name="Trazado 1163510" d="M188.953,246.907a1.887,1.887,0,0,1-.559,1.33,1.741,1.741,0,0,1-1.206.2,11.489,11.489,0,0,1-2.824-.627,1.431,1.431,0,0,1-.639-.376,1.549,1.549,0,0,1-.006-1.483,5.776,5.776,0,0,0,2.607.73A8.065,8.065,0,0,1,188.953,246.907Z" transform="translate(-183.529 -245.955)" fill="#fff"/>
              </g>
            </g>
            <g id="Grupo_1216893" data-name="Grupo 1216893" transform="translate(4.41 12.376)">
              <ellipse id="Elipse_14388" data-name="Elipse 14388" cx="2.517" cy="1.632" rx="2.517" ry="1.632" transform="translate(0 1.071) rotate(-12.286)" fill="#f47471"/>
            </g>
            <g id="Grupo_1216894" data-name="Grupo 1216894" transform="translate(16.64 9.378)">
              <ellipse id="Elipse_14389" data-name="Elipse 14389" cx="1.5" cy="1.632" rx="1.5" ry="1.632" transform="translate(0 0.638) rotate(-12.286)" fill="#f47471"/>
            </g>
            <g id="Grupo_1216896" data-name="Grupo 1216896" transform="translate(14.268 10.871)">
              <g id="Grupo_1216895" data-name="Grupo 1216895">
                <path id="Trazado_1163511" data-name="Trazado 1163511" d="M188.1,239.063a1.556,1.556,0,0,1,2.188-.122.843.843,0,0,1,.17.863,1.011,1.011,0,0,1-.67.523,2.671,2.671,0,0,1-1.142.071.287.287,0,0,0-.342.194.28.28,0,0,0,.194.342,2.293,2.293,0,0,0,2.417-.8,1.354,1.354,0,0,0-.094-1.4,1.715,1.715,0,0,0-1.319-.75,2.593,2.593,0,0,0-1.794.69.28.28,0,0,0,0,.393.284.284,0,0,0,.393,0Z" transform="translate(-187.627 -237.975)" fill="#301b1b"/>
              </g>
            </g>
          </g>
          <g id="Grupo_1216908" data-name="Grupo 1216908" transform="translate(113.777 278.172)">
            <g id="Grupo_1216899" data-name="Grupo 1216899" transform="translate(19.886 9.58)">
              <g id="Grupo_1216898" data-name="Grupo 1216898">
                <path id="Trazado_1163512" data-name="Trazado 1163512" d="M163.162,334.319a42.128,42.128,0,0,0-2.409-17.607c-.121-.333-.658-.19-.536.148a41.743,41.743,0,0,1,2.389,17.459c-.027.356.529.354.556,0Z" transform="translate(-160.199 -316.524)" fill="#301b1b"/>
              </g>
            </g>
            <g id="Grupo_1216901" data-name="Grupo 1216901" transform="translate(14.883 0.325)">
              <g id="Grupo_1216900" data-name="Grupo 1216900">
                <path id="Trazado_1163513" data-name="Trazado 1163513" d="M156.243,307.629l-2.352-3.619c-.194-.3-.675-.021-.48.28l2.352,3.619c.194.3.675.021.48-.28Z" transform="translate(-153.365 -303.882)" fill="#301b1b"/>
              </g>
            </g>
            <g id="Grupo_1216903" data-name="Grupo 1216903" transform="translate(58.241)">
              <g id="Grupo_1216902" data-name="Grupo 1216902">
                <path id="Trazado_1163514" data-name="Trazado 1163514" d="M212.655,303.926a117.822,117.822,0,0,0,12.429,13.057c.265.239.659-.153.393-.393a117.758,117.758,0,0,1-12.429-13.057c-.226-.277-.617.119-.393.393Z" transform="translate(-212.588 -303.439)" fill="#301b1b"/>
              </g>
            </g>
            <g id="Grupo_1216905" data-name="Grupo 1216905" transform="translate(29.783 37.165)">
              <g id="Grupo_1216904" data-name="Grupo 1216904">
                <path id="Trazado_1163515" data-name="Trazado 1163515" d="M173.919,356.77a38.692,38.692,0,0,0,7.14.346c2.464.015,4.93,0,7.392-.111a56.23,56.23,0,0,0,14.2-2.255l-.214-.507q-8.725,4.586-17.617,8.843c-.322.154-.041.633.28.48q8.891-4.257,17.617-8.843a.279.279,0,0,0-.214-.507,55.634,55.634,0,0,1-14.05,2.235c-2.286.1-4.576.123-6.864.113a40.609,40.609,0,0,1-7.52-.329c-.351-.069-.5.466-.149.535Z" transform="translate(-173.718 -354.202)" fill="#301b1b"/>
              </g>
            </g>
            <g id="Grupo_1216907" data-name="Grupo 1216907" transform="translate(0 21.836)">
              <g id="Grupo_1216906" data-name="Grupo 1216906">
                <path id="Trazado_1163516" data-name="Trazado 1163516" d="M133.131,333.724a63.188,63.188,0,0,0,20.686,11.207c.341.109.488-.428.148-.536a62.462,62.462,0,0,1-20.441-11.064c-.275-.223-.67.167-.392.393Z" transform="translate(-133.037 -333.264)" fill="#301b1b"/>
              </g>
            </g>
          </g>
        </g>
        <g id="Grupo_1217126" data-name="Grupo 1217126" transform="translate(685 3036.098)">
          <g id="Grupo_1217117" data-name="Grupo 1217117" transform="translate(0 0)">
            <g id="Grupo_1217114" data-name="Grupo 1217114" transform="translate(0 0.311)">
              <path id="Trazado_1163606" data-name="Trazado 1163606" d="M110.313,150.384c10.184,2.3,20.79,1.115,31.162-.078,6.091-.7,12.894-1.8,16.527-6.735,2.269-3.084,2.8-7.079,3.132-10.894A161.472,161.472,0,0,0,158.678,87.7c-.767-3.892-1.81-7.995-4.691-10.722-2.306-2.183-5.482-3.173-8.588-3.83-7.909-1.674-16.068-1.634-24.153-1.586-16.516.1-33.281.231-49.143,4.829-4.308,1.249-8.978,3.238-10.686,7.387-.992,2.412-.778,5.129-.541,7.727q1.922,21.06,4.439,42.06c.4,3.307.869,6.782,2.874,9.443,3.186,4.229,9.244,5.081,14.493,4.379,2.24-.3,4.583-.806,6.708-.034,4.443,1.614,5.245,7.448,5.308,12.175A29.848,29.848,0,0,1,92.3,172.3c3.266-.773,6.8-4.105,9.115-6.41a34.14,34.14,0,0,0,6.733-9.484C108.378,155.923,110.527,150.432,110.313,150.384Z" transform="translate(-60.677 -71.55)" fill="#5bafbb"/>
            </g>
            <g id="Grupo_1217115" data-name="Grupo 1217115" transform="translate(26.197 61.413)">
              <path id="Trazado_1163607" data-name="Trazado 1163607" d="M64.409,195.074l.6-.142c3.189-.754,6.625-3.867,9.263-6.493a34.263,34.263,0,0,0,6.795-9.57c.022-.047,1.769-4.267,2.125-5.78,10.247,2.241,20.772,1.03,30.955-.141,6.466-.744,13.084-1.887,16.743-6.86,2.343-3.184,2.876-7.374,3.192-11.051l-.621-.053c-.308,3.593-.825,7.682-3.072,10.735-3.511,4.771-9.984,5.881-16.312,6.61-10.234,1.178-20.818,2.4-31.058.083l-.069.3-.3.039c-.026.485-1.887,5.3-2.147,5.846a33.645,33.645,0,0,1-6.672,9.4c-2.409,2.4-5.49,5.209-8.36,6.156a30.387,30.387,0,0,0,2.172-12.294c-.094-7.074-1.9-11.151-5.513-12.464a12.182,12.182,0,0,0-5.955-.108c-.3.043-.6.087-.9.127l.083.617c.3-.04.6-.084.907-.128a11.728,11.728,0,0,1,5.653.078c3.344,1.215,5.013,5.1,5.1,11.887a29.7,29.7,0,0,1-2.37,12.639Z" transform="translate(-55.277 -154.983)" fill="#301b1b"/>
            </g>
            <g id="Grupo_1217116" data-name="Grupo 1217116" transform="translate(3.924)">
              <path id="Trazado_1163608" data-name="Trazado 1163608" d="M69.8,133.493l.619-.074c-1.669-13.928-3.162-28.076-4.438-42.052-.221-2.424-.472-5.172.519-7.58,1.744-4.241,6.819-6.144,10.484-7.207,15.938-4.62,32.775-4.72,49.058-4.817,7.951-.048,16.175-.1,24.086,1.578,2.684.568,6.069,1.508,8.439,3.752l.428-.453c-2.483-2.35-5.974-3.323-8.738-3.909-7.977-1.688-16.234-1.638-24.219-1.592-16.325.1-33.207.2-49.228,4.842-3.788,1.1-9.039,3.078-10.886,7.568-1.049,2.55-.78,5.5-.564,7.873C66.64,105.4,68.134,119.558,69.8,133.493Z" transform="translate(-65.166 -71.125)" fill="#301b1b"/>
            </g>
          </g>
          <g id="Grupo_1217119" data-name="Grupo 1217119" transform="translate(84.543 63.421)">
            <g id="Grupo_1217118" data-name="Grupo 1217118" transform="translate(0 0)">
              <path id="Trazado_1163609" data-name="Trazado 1163609" d="M80.367,158.063a22.245,22.245,0,0,1-7.221,9.926c-.279.217-.675-.174-.393-.393a21.737,21.737,0,0,0,7.077-9.681c.122-.333.66-.189.537.148Z" transform="translate(-72.656 -157.726)" fill="#301b1b"/>
            </g>
          </g>
          <g id="Grupo_1217121" data-name="Grupo 1217121" transform="translate(82.98 62.912)">
            <g id="Grupo_1217120" data-name="Grupo 1217120" transform="translate(0 0)">
              <path id="Trazado_1163610" data-name="Trazado 1163610" d="M83.428,157.365a26.748,26.748,0,0,1-4.707,7.811c-.234.271-.626-.124-.393-.393a25.958,25.958,0,0,0,4.564-7.566c.128-.33.666-.186.536.148Z" transform="translate(-78.257 -157.03)" fill="#301b1b"/>
            </g>
          </g>
          <g id="Grupo_1217123" data-name="Grupo 1217123" transform="translate(12.896 9.778)">
            <g id="Grupo_1217122" data-name="Grupo 1217122" transform="translate(0 0)">
              <path id="Trazado_1163611" data-name="Trazado 1163611" d="M177.932,84.951a26.505,26.505,0,0,0-7.65,17c-.022.355-.578.358-.556,0a27.1,27.1,0,0,1,7.813-17.395.278.278,0,0,1,.393.393Z" transform="translate(-169.726 -84.476)" fill="#301b1b"/>
            </g>
          </g>
          <g id="Grupo_1217125" data-name="Grupo 1217125" transform="translate(16.77 19.256)">
            <g id="Grupo_1217124" data-name="Grupo 1217124">
              <path id="Trazado_1163612" data-name="Trazado 1163612" d="M174.778,97.844a24.374,24.374,0,0,0-2.006,7.048c-.044.35-.6.354-.556,0a25.229,25.229,0,0,1,2.081-7.329c.149-.325.628-.043.48.28Z" transform="translate(-172.214 -97.419)" fill="#301b1b"/>
            </g>
          </g>
        </g>
        <g id="Grupo_1217185" data-name="Grupo 1217185" transform="translate(129 -220.734)">
          <g id="Grupo_1217169" data-name="Grupo 1217169" transform="translate(399.929 3286.578)">
            <path id="Trazado_1163637" data-name="Trazado 1163637" d="M210.316,172.254a3.722,3.722,0,1,1,3.722-3.722A3.726,3.726,0,0,1,210.316,172.254Zm0-6.412a2.69,2.69,0,1,0,2.69,2.69A2.693,2.693,0,0,0,210.316,165.842Z" fill="#301b1b"/>
          </g>
          <g id="Grupo_1217176" data-name="Grupo 1217176" transform="translate(399.929 3286.578)">
            <g id="Grupo_1217175" data-name="Grupo 1217175">
              <path id="Trazado_1163642" data-name="Trazado 1163642" d="M219.186,190.718c3.711,1.756,6.667-1.761,7.974-4.829.738-1.733,1.99-6.652-1.478-6.441-2.973.181-2.508,4.612-1.68,6.4a13.237,13.237,0,0,0,17.054,6.178c.442-.207.057-.862-.383-.655A12.474,12.474,0,0,1,227.05,188.8c-1.692-1.635-3.364-4.117-2.9-6.582.209-1.108,1.155-2.7,2.462-1.745,1,.734.74,2.452.461,3.48-.822,3.024-3.652,7.93-7.5,6.107-.44-.209-.826.445-.384.654Z" fill="#301b1b"/>
            </g>
          </g>
        </g>
        <g id="Grupo_1217184" data-name="Grupo 1217184" transform="translate(371.756 2890.927)">
          <g id="Grupo_1217183" data-name="Grupo 1217183">
            <path id="Trazado_1163646" data-name="Trazado 1163646" d="M236.4,234.773a35.506,35.506,0,0,0,13.258-7.91,34.972,34.972,0,0,0,4.957-5.848c1.285-1.907,2.913-4.338,2.508-6.766-.62-3.717-5.752-3.823-7.613-1.031a5.416,5.416,0,0,0,.1,5.56,7.644,7.644,0,0,0,5.483,3.665c4.767.834,9.963-1.208,13.8-3.933a24.593,24.593,0,0,0,8.539-10.751c.786-1.945,1.782-4.616,1.428-6.751a2.593,2.593,0,0,0-3.785-1.886c-2,.886-2.259,3.379-1.727,5.253a8.8,8.8,0,0,0,3.429,4.681c4.43,3.164,10.1,2.6,14.794.382a50.319,50.319,0,0,0,8.276-5.329q4.621-3.429,9.238-6.861c.388-.288.01-.947-.383-.655-4.016,2.983-7.981,6.056-12.079,8.928-3.594,2.518-7.723,4.963-12.241,5.032-3.653.055-7.731-1.466-9.622-4.769-1.011-1.766-1.692-5.286.909-6.077,3.413-1.037,2.307,3.847,1.808,5.594a23.446,23.446,0,0,1-16.148,15.96c-4.179,1.108-10.309.873-11.623-4.246a3.809,3.809,0,0,1,2.353-4.777c1.972-.663,4.21.191,4.356,2.5.153,2.411-1.687,4.853-3.025,6.716a34.24,34.24,0,0,1-4.707,5.283,34.62,34.62,0,0,1-12.485,7.307c-.462.151-.265.884.2.73Z" fill="#301b1b"/>
          </g>
        </g>
        <g id="Grupo_1217186" data-name="Grupo 1217186" transform="translate(706.072 -1061.268)">
          <g id="Grupo_1217165" data-name="Grupo 1217165" transform="translate(-200.277 3677.578)">
            <path id="Trazado_1163633" data-name="Trazado 1163633" d="M264.406,393.308a6.963,6.963,0,1,1,6.963-6.963A6.971,6.971,0,0,1,264.406,393.308Zm0-12.893a5.931,5.931,0,1,0,5.931,5.931A5.938,5.938,0,0,0,264.406,380.415Z" fill="#301b1b"/>
          </g>
          <g id="Grupo_1217166" data-name="Grupo 1217166" transform="translate(-200.277 3677.578)">
            <path id="Trazado_1163634" data-name="Trazado 1163634" d="M275.979,399.3a2.391,2.391,0,1,1,2.392-2.391A2.394,2.394,0,0,1,275.979,399.3Zm0-3.752a1.359,1.359,0,1,0,1.36,1.36A1.362,1.362,0,0,0,275.979,395.553Z" fill="#301b1b"/>
          </g>
          <g id="Grupo_1217182" data-name="Grupo 1217182" transform="translate(-242.141 3637.376)">
            <g id="Grupo_1217181" data-name="Grupo 1217181">
              <path id="Trazado_1163645" data-name="Trazado 1163645" d="M272.731,445.559a7.989,7.989,0,0,0,9.824-1.494,8.173,8.173,0,0,0,1.971-4.36c.194-1.523.133-2.687-1.684-2.584a3.712,3.712,0,0,0-3,2.183,5.017,5.017,0,0,0,.66,4.635,13.116,13.116,0,0,0,7.771,5.353c5.95,1.581,13.233-.329,16.8-5.586.749-1.1,1.431-2.789.427-3.952a2.393,2.393,0,0,0-3.2-.09c-2.8,1.889-1.781,5.859-.075,8.092,2.5,3.277,6.637,4.831,10.63,5.248a20.1,20.1,0,0,0,13.038-3.136c.407-.266.027-.923-.383-.655a19.361,19.361,0,0,1-17.308,1.923,11.027,11.027,0,0,1-6.408-5.583,4.86,4.86,0,0,1-.1-4,2.955,2.955,0,0,1,1.413-1.49c1.582-.746,2.413.676,1.956,2.048-.766,2.3-3.3,4.181-5.355,5.247a15.76,15.76,0,0,1-7,1.717A15.11,15.11,0,0,1,286,447.657c-2.374-1.137-4.994-3.2-5.616-5.889a3.179,3.179,0,0,1,.678-2.947c.478-.511,1.7-1.355,2.421-.891,1.093.706-.157,3.606-.64,4.443a7.175,7.175,0,0,1-9.729,2.532.379.379,0,0,0-.381.654Z" fill="#301b1b"/>
            </g>
          </g>
          <g id="Grupo_1217187" data-name="Grupo 1217187" transform="translate(-237.277 3827.578)">
            <path id="Trazado_1163633-2" data-name="Trazado 1163633" d="M262.562,389.62a5.119,5.119,0,1,1,5.119-5.119A5.125,5.125,0,0,1,262.562,389.62Zm0-9.478a4.36,4.36,0,1,0,4.36,4.36A4.365,4.365,0,0,0,262.562,380.141Z" transform="translate(0 0)" fill="#301b1b"/>
          </g>
        </g>
      </g>
    </g>
  </g>
</svg>
