<svg xmlns="http://www.w3.org/2000/svg" xmlns:xlink="http://www.w3.org/1999/xlink" width="108" height="108" viewBox="0 0 108 108">
  <defs>
    <filter id="Trazado_978624" x="0" y="0" width="108" height="108" filterUnits="userSpaceOnUse">
      <feOffset dy="3" input="SourceAlpha"/>
      <feGaussianBlur stdDeviation="3" result="blur"/>
      <feFlood flood-opacity="0.161"/>
      <feComposite operator="in" in2="blur"/>
      <feComposite in="SourceGraphic"/>
    </filter>
    <filter id="Trazado_1076716" x="0" y="0" width="108" height="108" filterUnits="userSpaceOnUse">
      <feOffset dy="3" input="SourceAlpha"/>
      <feGaussianBlur stdDeviation="3" result="blur-2"/>
      <feFlood flood-opacity="0.161"/>
      <feComposite operator="in" in2="blur-2"/>
      <feComposite in="SourceGraphic"/>
    </filter>
  </defs>
  <g id="Grupo_1218202" data-name="Grupo 1218202" transform="translate(-196 -3490)">
    <g id="Grupo_1216151" data-name="Grupo 1216151" transform="translate(205 3496)">
      <g id="Grupo_1208503" data-name="Grupo 1208503" transform="translate(0)">
        <g id="Grupo_1200660" data-name="Grupo 1200660">
          <g id="Grupo_1181203" data-name="Grupo 1181203">
            <g id="Grupo_1172348" data-name="Grupo 1172348">
              <g id="Grupo_1171897" data-name="Grupo 1171897">
                <g id="Grupo_1171052" data-name="Grupo 1171052">
                  <g id="Grupo_1164581" data-name="Grupo 1164581">
                    <g id="Grupo_1144123" data-name="Grupo 1144123">
                      <g transform="matrix(1, 0, 0, 1, -9, -6)" filter="url(#Trazado_978624)">
                        <g id="Trazado_978624-2" data-name="Trazado 978624" transform="translate(9 6)" fill="#f2f4f0">
                          <path d="M 45 88.5 C 39.12687683105469 88.5 33.43022537231445 87.35007476806641 28.06830024719238 85.08217620849609 C 22.88852500915527 82.89131164550781 18.23629951477051 79.75458526611328 14.2408504486084 75.75914764404297 C 10.24541282653809 71.76370239257812 7.108687400817871 67.11147308349609 4.917825222015381 61.93170166015625 C 2.649924993515015 56.56977462768555 1.5 50.87312316894531 1.5 45 C 1.5 39.12687683105469 2.649924993515015 33.43022537231445 4.917825222015381 28.06830024719238 C 7.108687400817871 22.88852500915527 10.24541282653809 18.23629951477051 14.2408504486084 14.2408504486084 C 18.23629951477051 10.24541282653809 22.88852500915527 7.108687400817871 28.06830024719238 4.917825222015381 C 33.43022537231445 2.649924993515015 39.12687683105469 1.5 45 1.5 C 50.87312316894531 1.5 56.56977462768555 2.649924993515015 61.93170166015625 4.917825222015381 C 67.11147308349609 7.108687400817871 71.76370239257812 10.24541282653809 75.75914764404297 14.2408504486084 C 79.75458526611328 18.23629951477051 82.89131164550781 22.88852500915527 85.08217620849609 28.06830024719238 C 87.35007476806641 33.43022537231445 88.5 39.12687683105469 88.5 45 C 88.5 50.87312316894531 87.35007476806641 56.56977462768555 85.08217620849609 61.93170166015625 C 82.89131164550781 67.11147308349609 79.75458526611328 71.76370239257812 75.75914764404297 75.75914764404297 C 71.76370239257812 79.75458526611328 67.11147308349609 82.89131164550781 61.93170166015625 85.08217620849609 C 56.56977462768555 87.35007476806641 50.87312316894531 88.5 45 88.5 Z" stroke="none"/>
                          <path d="M 45 3 C 39.32871246337891 3 33.82865524291992 4.110054016113281 28.65262985229492 6.299339294433594 C 23.65165710449219 8.414573669433594 19.15968322753906 11.44334411621094 15.301513671875 15.301513671875 C 11.44334411621094 19.15968322753906 8.414573669433594 23.65165710449219 6.299339294433594 28.65262985229492 C 4.110054016113281 33.82865524291992 3 39.32871246337891 3 45 C 3 50.67128753662109 4.110054016113281 56.17134475708008 6.299339294433594 61.34737396240234 C 8.414573669433594 66.34834289550781 11.44334411621094 70.84031677246094 15.301513671875 74.698486328125 C 19.15968322753906 78.55665588378906 23.65165710449219 81.58542633056641 28.65262985229492 83.70066070556641 C 33.82865524291992 85.88994598388672 39.32871246337891 87 45 87 C 50.67128753662109 87 56.17134475708008 85.88994598388672 61.34737396240234 83.70066070556641 C 66.34834289550781 81.58542633056641 70.84031677246094 78.55665588378906 74.698486328125 74.698486328125 C 78.55665588378906 70.84031677246094 81.58542633056641 66.34834289550781 83.70066070556641 61.34737396240234 C 85.88994598388672 56.17134475708008 87 50.67128753662109 87 45 C 87 39.32871246337891 85.88994598388672 33.82865524291992 83.70066070556641 28.65262985229492 C 81.58542633056641 23.65165710449219 78.55665588378906 19.15968322753906 74.698486328125 15.301513671875 C 70.84031677246094 11.44334411621094 66.34834289550781 8.414573669433594 61.34737396240234 6.299339294433594 C 56.17134475708008 4.110054016113281 50.67128753662109 3 45 3 M 45 0 C 69.85281372070312 0 90 20.14718627929688 90 45 C 90 69.85281372070312 69.85281372070312 90 45 90 C 20.14718627929688 90 0 69.85281372070312 0 45 C 0 20.14718627929688 20.14718627929688 0 45 0 Z" stroke="none" fill="#899e78"/>
                        </g>
                      </g>
                      <g transform="matrix(1, 0, 0, 1, -9, -6)" filter="url(#Trazado_1076716)">
                        <g id="Trazado_1076716-2" data-name="Trazado 1076716" transform="translate(9 6)" fill="#f2f4f0">
                          <path d="M 45 88.5 C 39.12687683105469 88.5 33.43022537231445 87.35007476806641 28.06830024719238 85.08217620849609 C 22.88852500915527 82.89131164550781 18.23629951477051 79.75458526611328 14.2408504486084 75.75914764404297 C 10.24541282653809 71.76370239257812 7.108687400817871 67.11147308349609 4.917825222015381 61.93170166015625 C 2.649924993515015 56.56977462768555 1.5 50.87312316894531 1.5 45 C 1.5 39.12687683105469 2.649924993515015 33.43022537231445 4.917825222015381 28.06830024719238 C 7.108687400817871 22.88852500915527 10.24541282653809 18.23629951477051 14.2408504486084 14.2408504486084 C 18.23629951477051 10.24541282653809 22.88852500915527 7.108687400817871 28.06830024719238 4.917825222015381 C 33.43022537231445 2.649924993515015 39.12687683105469 1.5 45 1.5 C 50.87312316894531 1.5 56.56977462768555 2.649924993515015 61.93170166015625 4.917825222015381 C 67.11147308349609 7.108687400817871 71.76370239257812 10.24541282653809 75.75914764404297 14.2408504486084 C 79.75458526611328 18.23629951477051 82.89131164550781 22.88852500915527 85.08217620849609 28.06830024719238 C 87.35007476806641 33.43022537231445 88.5 39.12687683105469 88.5 45 C 88.5 50.87312316894531 87.35007476806641 56.56977462768555 85.08217620849609 61.93170166015625 C 82.89131164550781 67.11147308349609 79.75458526611328 71.76370239257812 75.75914764404297 75.75914764404297 C 71.76370239257812 79.75458526611328 67.11147308349609 82.89131164550781 61.93170166015625 85.08217620849609 C 56.56977462768555 87.35007476806641 50.87312316894531 88.5 45 88.5 Z" stroke="none"/>
                          <path d="M 45 3 C 39.32871246337891 3 33.82865524291992 4.110054016113281 28.65262985229492 6.299339294433594 C 23.65165710449219 8.414573669433594 19.15968322753906 11.44334411621094 15.301513671875 15.301513671875 C 11.44334411621094 19.15968322753906 8.414573669433594 23.65165710449219 6.299339294433594 28.65262985229492 C 4.110054016113281 33.82865524291992 3 39.32871246337891 3 45 C 3 50.67128753662109 4.110054016113281 56.17134475708008 6.299339294433594 61.34737396240234 C 8.414573669433594 66.34834289550781 11.44334411621094 70.84031677246094 15.301513671875 74.698486328125 C 19.15968322753906 78.55665588378906 23.65165710449219 81.58542633056641 28.65262985229492 83.70066070556641 C 33.82865524291992 85.88994598388672 39.32871246337891 87 45 87 C 50.67128753662109 87 56.17134475708008 85.88994598388672 61.34737396240234 83.70066070556641 C 66.34834289550781 81.58542633056641 70.84031677246094 78.55665588378906 74.698486328125 74.698486328125 C 78.55665588378906 70.84031677246094 81.58542633056641 66.34834289550781 83.70066070556641 61.34737396240234 C 85.88994598388672 56.17134475708008 87 50.67128753662109 87 45 C 87 39.32871246337891 85.88994598388672 33.82865524291992 83.70066070556641 28.65262985229492 C 81.58542633056641 23.65165710449219 78.55665588378906 19.15968322753906 74.698486328125 15.301513671875 C 70.84031677246094 11.44334411621094 66.34834289550781 8.414573669433594 61.34737396240234 6.299339294433594 C 56.17134475708008 4.110054016113281 50.67128753662109 3 45 3 M 45 0 C 69.85281372070312 0 90 20.14718627929688 90 45 C 90 69.85281372070312 69.85281372070312 90 45 90 C 20.14718627929688 90 0 69.85281372070312 0 45 C 0 20.14718627929688 20.14718627929688 0 45 0 Z" stroke="none" fill="#899e78"/>
                        </g>
                      </g>
                    </g>
                  </g>
                </g>
              </g>
            </g>
          </g>
        </g>
      </g>
    </g>
    <g id="justicia_1_" data-name="justicia (1)" transform="translate(212.885 3511.77)">
      <path id="Trazado_1167653" data-name="Trazado 1167653" d="M436.024,294.5l-6.524,6.524h4.349a6.524,6.524,0,0,0,6.524-6.524Z" transform="translate(-367.231 -251.803)" fill="#ffbb6e"/>
      <path id="Trazado_1167654" data-name="Trazado 1167654" d="M338.979,294.5H316a6.524,6.524,0,0,0,6.524,6.524h9.931A6.524,6.524,0,0,0,338.979,294.5Z" transform="translate(-270.186 -251.803)" fill="#ffd478"/>
      <path id="Trazado_1167655" data-name="Trazado 1167655" d="M127.524,294.5,121,301.024h4.349a6.524,6.524,0,0,0,6.524-6.524Z" transform="translate(-103.457 -251.803)" fill="#ffbb6e"/>
      <path id="Trazado_1167656" data-name="Trazado 1167656" d="M30.479,294.5H7.5a6.524,6.524,0,0,0,6.524,6.524h9.931A6.524,6.524,0,0,0,30.479,294.5Z" transform="translate(-6.413 -251.803)" fill="#ffd478"/>
      <path id="Trazado_1167657" data-name="Trazado 1167657" d="M301,384.5h6.524v10.874H301Z" transform="translate(-257.361 -328.755)" fill="#ff8053"/>
      <path id="Trazado_1167658" data-name="Trazado 1167658" d="M166,384.5h21.747v10.874H166Z" transform="translate(-141.933 -328.755)" fill="#ffa061"/>
      <path id="Trazado_1167659" data-name="Trazado 1167659" d="M102.773,429.5h-39.5l-3.143,4.715a4.063,4.063,0,0,1-3.381,1.81V438.2h55.161Z" transform="translate(-48.522 -367.231)" fill="#ffd478"/>
      <path id="Trazado_1167660" data-name="Trazado 1167660" d="M382.565,434.215l-3.143-4.715H374.2l3.143,4.715a4.063,4.063,0,0,0,3.381,1.81l2.614,2.175,2.614-2.175A4.063,4.063,0,0,1,382.565,434.215Z" transform="translate(-319.944 -367.231)" fill="#ffbb6e"/>
      <path id="Trazado_1167661" data-name="Trazado 1167661" d="M241,67.5h6.524V78.374H241Z" transform="translate(-206.06 -57.714)" fill="#ff8053"/>
      <path id="Trazado_1167662" data-name="Trazado 1167662" d="M226,67.5h4.349V78.374H226Z" transform="translate(-193.234 -57.714)" fill="#ffa061"/>
      <path id="Trazado_1167663" data-name="Trazado 1167663" d="M241,142.5h6.524v35.085H241Z" transform="translate(-206.06 -121.84)" fill="#ffe7ad"/>
      <path id="Trazado_1167664" data-name="Trazado 1167664" d="M226,142.5h4.349v35.085H226Z" transform="translate(-193.234 -121.84)" fill="#fff5de"/>
      <path id="Trazado_1167665" data-name="Trazado 1167665" d="M260.349,127.5H256v4.349h4.349a2.175,2.175,0,0,0,0-4.349Z" transform="translate(-218.885 -109.015)" fill="#ffbb6e"/>
      <path id="Trazado_1167666" data-name="Trazado 1167666" d="M219.7,129.675a2.175,2.175,0,0,0-2.175-2.175h-4.349a2.175,2.175,0,0,0,0,4.349h4.349A2.175,2.175,0,0,0,219.7,129.675Z" transform="translate(-180.409 -109.015)" fill="#ffd478"/>
      <path id="Trazado_1167667" data-name="Trazado 1167667" d="M320.349,369.5H316v4.349h4.349a2.175,2.175,0,1,0,0-4.349Z" transform="translate(-270.186 -315.93)" fill="#ffbb6e"/>
      <path id="Trazado_1167668" data-name="Trazado 1167668" d="M177.1,371.675a2.175,2.175,0,0,0-2.175-2.175H153.175a2.175,2.175,0,0,0,0,4.349h21.747A2.175,2.175,0,0,0,177.1,371.675Z" transform="translate(-129.108 -315.93)" fill="#ffd478"/>
      <path id="Trazado_1167669" data-name="Trazado 1167669" d="M384.6,37.5H380.25v4.349H384.6a2.175,2.175,0,1,0,0-4.349Z" transform="translate(-325.121 -32.063)" fill="#ffbb6e"/>
      <path id="Trazado_1167670" data-name="Trazado 1167670" d="M131.476,39.675A2.175,2.175,0,0,0,129.3,37.5H88.925a2.175,2.175,0,1,0,0,4.349H129.3A2.175,2.175,0,0,0,131.476,39.675Z" transform="translate(-74.173 -32.063)" fill="#ffd478"/>
      <path id="Trazado_1167671" data-name="Trazado 1167671" d="M429.6,474.5H425.25l4.349,4.349h4.349A4.349,4.349,0,0,0,429.6,474.5Z" transform="translate(-363.597 -405.707)" fill="#ffd478"/>
      <path id="Trazado_1167672" data-name="Trazado 1167672" d="M84.525,474.5H31.1a4.349,4.349,0,0,0-4.349,4.349H88.874A4.349,4.349,0,0,0,84.525,474.5Z" transform="translate(-22.872 -405.707)" fill="#ffe7ad"/>
      <circle id="Elipse_14398" data-name="Elipse 14398" cx="6.524" cy="6.524" r="6.524" transform="translate(30.591 1.087)" fill="#ffe7ad"/>
      <circle id="Elipse_14399" data-name="Elipse 14399" cx="2.175" cy="2.175" r="2.175" transform="translate(34.94 5.437)" fill="#ffd478"/>
      <circle id="Elipse_14400" data-name="Elipse 14400" cx="2.175" cy="2.175" r="2.175" transform="translate(12.577 9.786)" fill="#ffe7ad"/>
      <circle id="Elipse_14401" data-name="Elipse 14401" cx="2.175" cy="2.175" r="2.175" transform="translate(57.304 9.786)" fill="#ffe7ad"/>
      <path id="Trazado_1167673" data-name="Trazado 1167673" d="M44.726,42.7a7.62,7.62,0,0,0,7.611,7.611H66.619A7.62,7.62,0,0,0,74.23,42.7a1.089,1.089,0,0,0-.106-.469L61.019,14.835a3.258,3.258,0,0,0,.889-5.049,3.26,3.26,0,0,0-2.429-5.437H43.991a7.609,7.609,0,0,0-13.751,0H14.752a3.26,3.26,0,0,0-2.429,5.437,3.258,3.258,0,0,0,.889,5.049L.106,42.227A1.089,1.089,0,0,0,0,42.7a7.62,7.62,0,0,0,7.611,7.611H21.892A7.62,7.62,0,0,0,29.5,42.7a1.089,1.089,0,0,0-.106-.469L16.292,14.835a3.259,3.259,0,0,0,1.535-3.962H30.239a7.641,7.641,0,0,0,1.439,2.058v4.654a3.261,3.261,0,0,0,0,6.15V52.483H24.067a3.262,3.262,0,0,0-1.087,6.338v2.361H14.752a1.087,1.087,0,0,0-.9.484L10.7,66.381a2.97,2.97,0,0,1-2.476,1.325,5.443,5.443,0,0,0-5.437,5.437A1.087,1.087,0,0,0,3.878,74.23H70.352a1.087,1.087,0,0,0,1.087-1.087A5.443,5.443,0,0,0,66,67.706a2.97,2.97,0,0,1-2.476-1.325l-3.143-4.715a1.087,1.087,0,0,0-.9-.484H51.251V58.82a3.262,3.262,0,0,0-1.087-6.337H42.552V23.735a3.261,3.261,0,0,0,0-6.15V12.931a7.645,7.645,0,0,0,1.439-2.058H56.4a3.259,3.259,0,0,0,1.535,3.962L44.833,42.228a1.088,1.088,0,0,0-.106.469Zm21.892,5.437H52.338a5.445,5.445,0,0,1-5.326-4.349H71.945A5.445,5.445,0,0,1,66.619,48.133ZM47.539,41.609,59.478,16.655,71.417,41.609ZM14.752,16.655,26.691,41.609H2.813Zm7.14,31.478H7.611a5.445,5.445,0,0,1-5.326-4.349H27.219A5.445,5.445,0,0,1,21.892,48.133ZM15.839,11.961a1.087,1.087,0,1,1-1.087-1.087A1.088,1.088,0,0,1,15.839,11.961ZM14.752,8.7a1.087,1.087,0,1,1,0-2.175H29.582a7.535,7.535,0,0,0,0,2.175Zm19.1,8.7V14.487a7.6,7.6,0,0,0,6.524,0V17.4ZM69.078,72.055H5.152a3.268,3.268,0,0,1,3.076-2.175H66A3.268,3.268,0,0,1,69.078,72.055Zm-7.362-4.468c.027.041.057.079.085.119H12.429c.028-.04.058-.078.085-.119l2.82-4.23H58.9ZM51.251,55.745a1.088,1.088,0,0,1-1.087,1.087H28.416a1.087,1.087,0,0,0,0,2.175h20.66v2.175H25.154V57.92a1.087,1.087,0,0,0-1.087-1.087,1.087,1.087,0,1,1,0-2.175h26.1A1.088,1.088,0,0,1,51.251,55.745Zm-17.4-3.262V23.922h6.524V52.483Zm7.611-30.736h-8.7a1.087,1.087,0,1,1,0-2.175h8.7a1.087,1.087,0,0,1,0,2.175Zm-4.349-8.7a5.437,5.437,0,1,1,5.437-5.437A5.443,5.443,0,0,1,37.115,13.048Zm7.533-6.524H59.478a1.087,1.087,0,1,1,0,2.175H44.648a7.535,7.535,0,0,0,0-2.175Zm15.918,5.437a1.087,1.087,0,1,1-1.087-1.087A1.088,1.088,0,0,1,60.566,11.961Z" transform="translate(0)"/>
      <path id="Trazado_1167674" data-name="Trazado 1167674" d="M236.762,30a3.262,3.262,0,1,0,3.262,3.262A3.266,3.266,0,0,0,236.762,30Zm0,4.349a1.087,1.087,0,1,1,1.087-1.087A1.088,1.088,0,0,1,236.762,34.349Z" transform="translate(-199.647 -25.651)"/>
    </g>
  </g>
</svg>
