<svg xmlns="http://www.w3.org/2000/svg" xmlns:xlink="http://www.w3.org/1999/xlink" width="505" height="242" viewBox="0 0 505 242">
  <defs>
    <clipPath id="clip-path">
      <rect id="Rectángulo_420524" data-name="Rectángulo 420524" width="505" height="242" transform="translate(915 570)" fill="#fff" stroke="#707070" stroke-width="1"/>
    </clipPath>
    <clipPath id="clip-path-2">
      <rect id="Rectángulo_420522" data-name="Rectángulo 420522" width="395.04" height="225.122" fill="none"/>
    </clipPath>
    <clipPath id="clip-path-5">
      <rect id="Rectángulo_420490" data-name="Rectángulo 420490" width="48.836" height="25.824" fill="none"/>
    </clipPath>
    <clipPath id="clip-path-6">
      <rect id="Rectángulo_420491" data-name="Rectángulo 420491" width="45.443" height="8.767" fill="none"/>
    </clipPath>
    <clipPath id="clip-path-7">
      <rect id="Rectángulo_420492" data-name="Rectángulo 420492" width="51.013" height="5.643" fill="none"/>
    </clipPath>
    <clipPath id="clip-path-8">
      <rect id="Rectángulo_420493" data-name="Rectángulo 420493" width="55.227" height="15.658" fill="none"/>
    </clipPath>
    <clipPath id="clip-path-9">
      <rect id="Rectángulo_420494" data-name="Rectángulo 420494" width="28.626" height="35.525" fill="none"/>
    </clipPath>
    <clipPath id="clip-path-10">
      <rect id="Rectángulo_420497" data-name="Rectángulo 420497" width="23.478" height="47.375" fill="none"/>
    </clipPath>
    <clipPath id="clip-path-11">
      <rect id="Rectángulo_420498" data-name="Rectángulo 420498" width="28" height="6.174" fill="none"/>
    </clipPath>
    <clipPath id="clip-path-12">
      <rect id="Rectángulo_420499" data-name="Rectángulo 420499" width="27.999" height="6.174" fill="none"/>
    </clipPath>
    <clipPath id="clip-path-13">
      <rect id="Rectángulo_420500" data-name="Rectángulo 420500" width="46.337" height="16.25" fill="none"/>
    </clipPath>
    <clipPath id="clip-path-15">
      <rect id="Rectángulo_420502" data-name="Rectángulo 420502" width="6.146" height="80.522" fill="none"/>
    </clipPath>
    <clipPath id="clip-path-16">
      <rect id="Rectángulo_420503" data-name="Rectángulo 420503" width="10.801" height="10.801" fill="none"/>
    </clipPath>
    <clipPath id="clip-path-17">
      <rect id="Rectángulo_420504" data-name="Rectángulo 420504" width="49.469" height="17.978" fill="none"/>
    </clipPath>
    <clipPath id="clip-path-18">
      <rect id="Rectángulo_420505" data-name="Rectángulo 420505" width="21.756" height="19.579" fill="none"/>
    </clipPath>
    <clipPath id="clip-path-19">
      <rect id="Rectángulo_420506" data-name="Rectángulo 420506" width="17.112" height="19.774" fill="none"/>
    </clipPath>
    <clipPath id="clip-path-20">
      <rect id="Rectángulo_420507" data-name="Rectángulo 420507" width="21.755" height="19.579" fill="none"/>
    </clipPath>
    <clipPath id="clip-path-22">
      <rect id="Rectángulo_420509" data-name="Rectángulo 420509" width="16.922" height="16.922" fill="none"/>
    </clipPath>
    <clipPath id="clip-path-26">
      <rect id="Rectángulo_420513" data-name="Rectángulo 420513" width="44.374" height="23.241" fill="none"/>
    </clipPath>
    <clipPath id="clip-path-27">
      <rect id="Rectángulo_420514" data-name="Rectángulo 420514" width="19.244" height="0.669" fill="none"/>
    </clipPath>
    <clipPath id="clip-path-29">
      <rect id="Rectángulo_420518" data-name="Rectángulo 420518" width="45.941" height="28.261" fill="none"/>
    </clipPath>
  </defs>
  <g id="Enmascarar_grupo_1153310" data-name="Enmascarar grupo 1153310" transform="translate(-915 -570)" clip-path="url(#clip-path)">
    <g id="Grupo_1216538" data-name="Grupo 1216538">
      <rect id="Rectángulo_420523" data-name="Rectángulo 420523" width="457" height="105" rx="23" transform="translate(940 648)" fill="#bca78f"/>
      <g id="Grupo_1216537" data-name="Grupo 1216537" transform="translate(970.98 586.429)">
        <g id="Grupo_1216535" data-name="Grupo 1216535" clip-path="url(#clip-path-2)">
          <rect id="Rectángulo_420457" data-name="Rectángulo 420457" width="2.659" height="22.484" transform="translate(116.338 149.753)" fill="#d77c2f"/>
          <rect id="Rectángulo_420458" data-name="Rectángulo 420458" width="2.659" height="22.484" transform="translate(92.905 149.753)" fill="#d77c2f"/>
          <rect id="Rectángulo_420459" data-name="Rectángulo 420459" width="2.659" height="22.484" transform="translate(100.716 149.753)" fill="#d77c2f"/>
          <rect id="Rectángulo_420460" data-name="Rectángulo 420460" width="2.659" height="22.484" transform="translate(108.526 149.753)" fill="#d77c2f"/>
          <rect id="Rectángulo_420461" data-name="Rectángulo 420461" width="2.659" height="22.484" transform="translate(124.149 149.753)" fill="#d77c2f"/>
          <rect id="Rectángulo_420462" data-name="Rectángulo 420462" width="2.659" height="22.484" transform="translate(131.96 149.753)" fill="#d77c2f"/>
          <rect id="Rectángulo_420463" data-name="Rectángulo 420463" width="2.659" height="22.484" transform="translate(139.77 149.753)" fill="#d77c2f"/>
          <rect id="Rectángulo_420464" data-name="Rectángulo 420464" width="53.143" height="3.356" transform="translate(91.095 148.076)" fill="#b14f18"/>
          <rect id="Rectángulo_420465" data-name="Rectángulo 420465" width="55.526" height="5.397" transform="translate(89.904 143.915)" fill="#d77c2f"/>
          <rect id="Rectángulo_420466" data-name="Rectángulo 420466" width="53.143" height="5.365" transform="translate(91.095 172.238)" fill="#b14f18"/>
          <rect id="Rectángulo_420467" data-name="Rectángulo 420467" width="60.381" height="5.033" transform="translate(87.477 175.593)" fill="#d77c2f"/>
          <rect id="Rectángulo_420468" data-name="Rectángulo 420468" width="67.184" height="3.356" transform="translate(84.075 178.948)" fill="#b14f18"/>
          <path id="Trazado_1163050" data-name="Trazado 1163050" d="M193.345,212.31l-25.872-15.38h-3.782l-25.872,15.38v2.247h55.526Z" transform="translate(-47.915 -68.466)" fill="#b14f18" fill-rule="evenodd"/>
          <path id="Trazado_1163051" data-name="Trazado 1163051" d="M164.955,194.458l-28.939,17.2V214l28.939-17.2L193.894,214v-2.343Z" transform="translate(-47.288 -67.606)" fill="#d77c2f" fill-rule="evenodd"/>
          <g id="Grupo_1216515" data-name="Grupo 1216515">
            <g id="Grupo_1216514" data-name="Grupo 1216514" clip-path="url(#clip-path-2)">
              <path id="Trazado_1163052" data-name="Trazado 1163052" d="M140.993,232.136h3.982a.774.774,0,0,1,.772.772h0a.775.775,0,0,1-.772.772h-3.982a.775.775,0,0,1-.772-.772h0a.774.774,0,0,1,.772-.772" transform="translate(-48.75 -80.705)" fill="#d77c2f" fill-rule="evenodd"/>
              <rect id="Rectángulo_420469" data-name="Rectángulo 420469" width="2.659" height="0.341" transform="translate(116.338 152.975)" fill="#b06042"/>
              <rect id="Rectángulo_420470" data-name="Rectángulo 420470" width="2.659" height="0.341" transform="translate(92.905 152.975)" fill="#b06042"/>
              <rect id="Rectángulo_420471" data-name="Rectángulo 420471" width="2.659" height="0.341" transform="translate(100.716 152.975)" fill="#b06042"/>
              <rect id="Rectángulo_420472" data-name="Rectángulo 420472" width="2.659" height="0.341" transform="translate(108.526 152.975)" fill="#b06042"/>
              <rect id="Rectángulo_420473" data-name="Rectángulo 420473" width="2.659" height="0.341" transform="translate(124.149 152.975)" fill="#b06042"/>
              <rect id="Rectángulo_420474" data-name="Rectángulo 420474" width="2.659" height="0.341" transform="translate(131.96 152.975)" fill="#b06042"/>
              <rect id="Rectángulo_420475" data-name="Rectángulo 420475" width="2.659" height="0.341" transform="translate(139.77 152.975)" fill="#b06042"/>
              <path id="Trazado_1163053" data-name="Trazado 1163053" d="M141.163,233.532a.453.453,0,1,0-.453-.453.455.455,0,0,0,.453.453" transform="translate(-48.92 -80.876)" fill="#b06042" fill-rule="evenodd"/>
              <path id="Trazado_1163054" data-name="Trazado 1163054" d="M147.267,233.532a.453.453,0,1,0-.453-.453.455.455,0,0,0,.453.453" transform="translate(-51.042 -80.876)" fill="#b06042" fill-rule="evenodd"/>
              <path id="Trazado_1163055" data-name="Trazado 1163055" d="M152.968,232.136h3.982a.774.774,0,0,1,.772.772h0a.774.774,0,0,1-.772.772h-3.982a.774.774,0,0,1-.772-.772h0a.774.774,0,0,1,.772-.772" transform="translate(-52.913 -80.705)" fill="#d77c2f" fill-rule="evenodd"/>
              <path id="Trazado_1163056" data-name="Trazado 1163056" d="M153.137,233.532a.453.453,0,1,0-.453-.453.455.455,0,0,0,.453.453" transform="translate(-53.083 -80.876)" fill="#b06042" fill-rule="evenodd"/>
              <path id="Trazado_1163057" data-name="Trazado 1163057" d="M159.241,233.532a.453.453,0,1,0-.453-.453.455.455,0,0,0,.453.453" transform="translate(-55.205 -80.876)" fill="#b06042" fill-rule="evenodd"/>
              <path id="Trazado_1163058" data-name="Trazado 1163058" d="M164.942,232.136h3.982a.774.774,0,0,1,.772.772h0a.775.775,0,0,1-.772.772h-3.982a.774.774,0,0,1-.772-.772h0a.774.774,0,0,1,.772-.772" transform="translate(-57.076 -80.705)" fill="#d77c2f" fill-rule="evenodd"/>
              <path id="Trazado_1163059" data-name="Trazado 1163059" d="M165.111,233.532a.453.453,0,1,0-.453-.453.455.455,0,0,0,.453.453" transform="translate(-57.246 -80.876)" fill="#b06042" fill-rule="evenodd"/>
              <path id="Trazado_1163060" data-name="Trazado 1163060" d="M171.214,233.532a.453.453,0,1,0-.453-.453.455.455,0,0,0,.453.453" transform="translate(-59.367 -80.876)" fill="#b06042" fill-rule="evenodd"/>
              <path id="Trazado_1163061" data-name="Trazado 1163061" d="M176.915,232.136H180.9a.774.774,0,0,1,.772.772h0a.774.774,0,0,1-.772.772h-3.982a.774.774,0,0,1-.772-.772h0a.774.774,0,0,1,.772-.772" transform="translate(-61.239 -80.705)" fill="#d77c2f" fill-rule="evenodd"/>
              <path id="Trazado_1163062" data-name="Trazado 1163062" d="M177.084,233.532a.453.453,0,1,0-.453-.453.455.455,0,0,0,.453.453" transform="translate(-61.408 -80.876)" fill="#b06042" fill-rule="evenodd"/>
              <path id="Trazado_1163063" data-name="Trazado 1163063" d="M183.188,233.532a.453.453,0,1,0-.453-.453.455.455,0,0,0,.453.453" transform="translate(-63.53 -80.876)" fill="#b06042" fill-rule="evenodd"/>
              <path id="Trazado_1163064" data-name="Trazado 1163064" d="M188.889,232.136h3.982a.774.774,0,0,1,.772.772h0a.775.775,0,0,1-.772.772h-3.982a.774.774,0,0,1-.772-.772h0a.774.774,0,0,1,.772-.772" transform="translate(-65.402 -80.705)" fill="#d77c2f" fill-rule="evenodd"/>
              <path id="Trazado_1163065" data-name="Trazado 1163065" d="M189.058,233.532a.453.453,0,1,0-.453-.453.455.455,0,0,0,.453.453" transform="translate(-65.571 -80.876)" fill="#b06042" fill-rule="evenodd"/>
              <path id="Trazado_1163066" data-name="Trazado 1163066" d="M195.162,233.532a.453.453,0,1,0-.453-.453.455.455,0,0,0,.453.453" transform="translate(-67.693 -80.876)" fill="#b06042" fill-rule="evenodd"/>
              <path id="Trazado_1163067" data-name="Trazado 1163067" d="M200.862,232.136h3.982a.774.774,0,0,1,.772.772h0a.775.775,0,0,1-.772.772h-3.982a.775.775,0,0,1-.772-.772h0a.774.774,0,0,1,.772-.772" transform="translate(-69.564 -80.705)" fill="#d77c2f" fill-rule="evenodd"/>
              <path id="Trazado_1163068" data-name="Trazado 1163068" d="M201.032,233.532a.453.453,0,1,0-.453-.453.455.455,0,0,0,.453.453" transform="translate(-69.734 -80.876)" fill="#b06042" fill-rule="evenodd"/>
              <path id="Trazado_1163069" data-name="Trazado 1163069" d="M207.135,233.532a.453.453,0,1,0-.453-.453.455.455,0,0,0,.453.453" transform="translate(-71.856 -80.876)" fill="#b06042" fill-rule="evenodd"/>
              <path id="Trazado_1163070" data-name="Trazado 1163070" d="M212.835,232.136h3.982a.774.774,0,0,1,.772.772h0a.774.774,0,0,1-.772.772h-3.982a.775.775,0,0,1-.772-.772h0a.774.774,0,0,1,.772-.772" transform="translate(-73.727 -80.705)" fill="#d77c2f" fill-rule="evenodd"/>
              <path id="Trazado_1163071" data-name="Trazado 1163071" d="M213.006,233.532a.453.453,0,1,0-.453-.453.455.455,0,0,0,.453.453" transform="translate(-73.897 -80.876)" fill="#b06042" fill-rule="evenodd"/>
              <path id="Trazado_1163072" data-name="Trazado 1163072" d="M219.109,233.532a.453.453,0,1,0-.453-.453.455.455,0,0,0,.453.453" transform="translate(-76.019 -80.876)" fill="#b06042" fill-rule="evenodd"/>
              <rect id="Rectángulo_420476" data-name="Rectángulo 420476" width="4.014" height="1.089" transform="translate(92.227 171.149)" fill="#d77c2f"/>
              <rect id="Rectángulo_420477" data-name="Rectángulo 420477" width="4.014" height="1.089" transform="translate(100.038 171.149)" fill="#d77c2f"/>
              <rect id="Rectángulo_420478" data-name="Rectángulo 420478" width="4.014" height="1.089" transform="translate(107.849 171.149)" fill="#d77c2f"/>
              <rect id="Rectángulo_420479" data-name="Rectángulo 420479" width="4.014" height="1.089" transform="translate(115.66 171.149)" fill="#d77c2f"/>
              <rect id="Rectángulo_420480" data-name="Rectángulo 420480" width="4.014" height="1.089" transform="translate(123.47 171.149)" fill="#d77c2f"/>
              <rect id="Rectángulo_420481" data-name="Rectángulo 420481" width="4.014" height="1.089" transform="translate(131.281 171.149)" fill="#d77c2f"/>
              <rect id="Rectángulo_420482" data-name="Rectángulo 420482" width="4.015" height="1.089" transform="translate(139.092 171.149)" fill="#d77c2f"/>
              <rect id="Rectángulo_420483" data-name="Rectángulo 420483" width="0.678" height="0.908" transform="translate(92.625 171.192)" fill="#b14f18"/>
              <rect id="Rectángulo_420484" data-name="Rectángulo 420484" width="0.678" height="0.908" transform="translate(100.436 171.192)" fill="#b14f18"/>
              <rect id="Rectángulo_420485" data-name="Rectángulo 420485" width="0.678" height="0.908" transform="translate(108.132 171.192)" fill="#b14f18"/>
              <rect id="Rectángulo_420486" data-name="Rectángulo 420486" width="0.678" height="0.908" transform="translate(115.943 171.192)" fill="#b14f18"/>
              <rect id="Rectángulo_420487" data-name="Rectángulo 420487" width="0.678" height="0.908" transform="translate(123.754 171.192)" fill="#b14f18"/>
              <rect id="Rectángulo_420488" data-name="Rectángulo 420488" width="0.677" height="0.908" transform="translate(131.565 171.192)" fill="#b14f18"/>
              <rect id="Rectángulo_420489" data-name="Rectángulo 420489" width="0.678" height="0.908" transform="translate(139.375 171.192)" fill="#b14f18"/>
              <path id="Trazado_1163073" data-name="Trazado 1163073" d="M191.691,214.421l-48.44-.344,24.22-14.4.108.065Zm-46.937-.751,45.428.323L167.47,200.167Z" transform="translate(-49.803 -69.422)" fill="#f7eedf"/>
              <line id="Línea_713" data-name="Línea 713" y2="17.529" transform="translate(93.546 153.619)" fill="none" stroke="#1b2536" stroke-miterlimit="10" stroke-width="0.464"/>
              <line id="Línea_714" data-name="Línea 714" y2="17.529" transform="translate(101.453 153.619)" fill="none" stroke="#1b2536" stroke-miterlimit="10" stroke-width="0.464"/>
              <line id="Línea_715" data-name="Línea 715" y2="17.529" transform="translate(109.36 153.619)" fill="none" stroke="#1b2536" stroke-miterlimit="10" stroke-width="0.464"/>
              <line id="Línea_716" data-name="Línea 716" y2="17.529" transform="translate(117.108 153.619)" fill="none" stroke="#1b2536" stroke-miterlimit="10" stroke-width="0.464"/>
              <line id="Línea_717" data-name="Línea 717" y2="17.529" transform="translate(124.951 153.619)" fill="none" stroke="#1b2536" stroke-miterlimit="10" stroke-width="0.464"/>
              <line id="Línea_718" data-name="Línea 718" y2="17.529" transform="translate(132.668 153.619)" fill="none" stroke="#1b2536" stroke-miterlimit="10" stroke-width="0.464"/>
              <line id="Línea_719" data-name="Línea 719" y2="17.529" transform="translate(140.575 153.619)" fill="none" stroke="#1b2536" stroke-miterlimit="10" stroke-width="0.464"/>
              <path id="Trazado_1163074" data-name="Trazado 1163074" d="M165.148,277.106l4.808,25.824,18.488-.381,3.2-.069,22.189-.458c.05-.089.1-.173.146-.262q6.78-11.823-.146-23.647l-21.319-.442-3.12-.065-5.586-.115Z" transform="translate(-57.416 -96.34)" fill="#324b85"/>
              <path id="Trazado_1163075" data-name="Trazado 1163075" d="M224.114,278.327s8.315,10.51,0,24.209l-8.46.175s7.727-10.161,0-24.558Z" transform="translate(-74.975 -96.703)" fill="#002638"/>
              <path id="Trazado_1163076" data-name="Trazado 1163076" d="M200.861,302.816l3.2-.069a25.591,25.591,0,0,0,.87-24.808l-3.12-.065a22.9,22.9,0,0,1-.954,24.943" transform="translate(-69.832 -96.606)" fill="#f7eedf"/>
              <g id="Grupo_1216462" data-name="Grupo 1216462" transform="translate(107.732 180.766)" style="mix-blend-mode: multiply;isolation: isolate">
                <g id="Grupo_1216461" data-name="Grupo 1216461">
                  <g id="Grupo_1216460" data-name="Grupo 1216460" clip-path="url(#clip-path-5)">
                    <path id="Trazado_1163077" data-name="Trazado 1163077" d="M165.148,277.106l4.808,25.824,18.488-.381,3.2-.069,22.189-.458c.05-.089.1-.173.146-.262a31.98,31.98,0,0,1-30.171-24.269Z" transform="translate(-165.148 -277.106)" fill="#bfd4ea"/>
                  </g>
                </g>
              </g>
              <path id="Trazado_1163078" data-name="Trazado 1163078" d="M133.791,298.11l-.583-17.766H110.176V275.97l49.379,1.022a26.1,26.1,0,0,1,0,25.363l-49.379,1.022v-4.712Z" transform="translate(-38.304 -95.945)" fill="#7197d5"/>
              <path id="Trazado_1163079" data-name="Trazado 1163079" d="M118.223,292.756a32.244,32.244,0,0,1-1.566,8.14l43.442-1.02a17.547,17.547,0,0,0,2-7.747,21.041,21.041,0,0,0-2-9.456H116.657a21.622,21.622,0,0,1,1.566,10.083" transform="translate(-40.557 -98.275)" fill="#fff"/>
              <path id="Trazado_1163080" data-name="Trazado 1163080" d="M160.057,287.3q-4.4-.132-8.789-.117c-2.929,0-5.857.044-8.785.1-2.928.068-5.855.145-8.781.267s-5.852.272-8.777.482q4.4.133,8.79.118c2.929,0,5.857-.044,8.784-.1s5.855-.146,8.782-.267,5.852-.272,8.777-.481" transform="translate(-43.432 -99.844)" fill="#7197d5"/>
              <path id="Trazado_1163081" data-name="Trazado 1163081" d="M143.97,293.513c-1.59-.128-3.179-.179-4.767-.2s-3.176-.015-4.763.009-3.174.086-4.759.179-3.172.2-4.756.4c1.59.129,3.179.181,4.767.205s3.176.014,4.763-.01,3.174-.087,4.759-.18,3.172-.2,4.756-.394" transform="translate(-43.432 -101.967)" fill="#7197d5"/>
              <path id="Trazado_1163082" data-name="Trazado 1163082" d="M154.391,304.125c-1.241-.14-2.482-.2-3.722-.24s-2.48-.038-3.718-.027c-1.239.027-2.478.063-3.716.144s-2.476.179-3.712.359c1.242.14,2.482.2,3.722.241s2.48.039,3.719.025,2.478-.063,3.716-.144,2.476-.179,3.712-.358" transform="translate(-48.507 -105.638)" fill="#7197d5"/>
              <path id="Trazado_1163083" data-name="Trazado 1163083" d="M163.032,299.241q-3.3-.175-6.589-.2c-2.2-.03-4.391-.015-6.585.009s-4.39.086-6.583.179-4.388.214-6.58.4q3.3.177,6.589.205c2.2.029,4.391.014,6.585-.01s4.39-.087,6.583-.18,4.388-.214,6.58-.394" transform="translate(-47.524 -103.959)" fill="#7197d5"/>
              <g id="Grupo_1216465" data-name="Grupo 1216465" transform="translate(76.1 193.853)" style="mix-blend-mode: multiply;isolation: isolate">
                <g id="Grupo_1216464" data-name="Grupo 1216464">
                  <g id="Grupo_1216463" data-name="Grupo 1216463" clip-path="url(#clip-path-6)">
                    <path id="Trazado_1163084" data-name="Trazado 1163084" d="M116.657,305.935l43.442-1.02a17.538,17.538,0,0,0,2-7.747q-21.933.7-43.877.627a32.243,32.243,0,0,1-1.566,8.14" transform="translate(-116.657 -297.168)" fill="#bfd4ea"/>
                  </g>
                </g>
              </g>
              <path id="Trazado_1163085" data-name="Trazado 1163085" d="M170.146,293.293h5.279a14.321,14.321,0,0,0-2.132,12.89c-1.538-.874-3.132-1.76-4.669-2.634a12.3,12.3,0,0,1-2.185,2.75,14.776,14.776,0,0,1,3.708-13.006" transform="translate(-57.759 -101.967)" fill="#c12c22"/>
              <path id="Trazado_1163086" data-name="Trazado 1163086" d="M114.955,315.662l54.506-1.2,55.7-1.227v2.095l-21.62.819v11.978l21.62.4v2.3l-57.214-.5-52.994-.47c-3.016-4.866-2.943-9.59,0-14.187" transform="translate(-39.189 -108.899)" fill="#c12c22"/>
              <path id="Trazado_1163087" data-name="Trazado 1163087" d="M114.956,330.5l6.171.053,35.137.311,1.361.01,10.323.093c-.029-.075-.061-.149-.085-.225-3.2-8.15-.222-13.407,1.6-15.637l-9.137.2-3.194.072-27.426.6-8.333.186-6.414.14c-2.945,4.6-3.016,9.323,0,14.19" transform="translate(-39.189 -109.552)" fill="#bd4a2c"/>
              <path id="Trazado_1163088" data-name="Trazado 1163088" d="M199.329,323.994a9.065,9.065,0,0,0,1.243,4.716l49.771.927a13.534,13.534,0,0,1-1.431-4.913,13.283,13.283,0,0,1,2.054-8.032L200.572,318.6a13.184,13.184,0,0,0-1.243,5.394" transform="translate(-69.3 -110.102)" fill="#fff"/>
              <path id="Trazado_1163089" data-name="Trazado 1163089" d="M253.772,319.834q-4.4-.132-8.789-.117c-2.929,0-5.857.044-8.785.1-2.928.068-5.855.145-8.781.267s-5.852.272-8.777.482q4.4.133,8.79.118c2.929,0,5.857-.044,8.784-.1s5.855-.145,8.782-.267,5.852-.272,8.777-.481" transform="translate(-76.013 -111.154)" fill="#7197d5"/>
              <path id="Trazado_1163090" data-name="Trazado 1163090" d="M223.867,325.415c-1.59-.128-3.179-.179-4.767-.2s-3.176-.014-4.763.009-3.174.086-4.759.179-3.172.2-4.756.4c1.59.129,3.179.181,4.767.205s3.176.014,4.763-.01c1.587-.04,3.174-.087,4.759-.18s3.172-.2,4.756-.394" transform="translate(-71.209 -113.059)" fill="#7197d5"/>
              <path id="Trazado_1163091" data-name="Trazado 1163091" d="M255.566,330.493q-3.3-.176-6.589-.2c-2.2-.03-4.391-.015-6.586.009s-4.389.086-6.583.179-4.388.214-6.58.4q3.3.176,6.589.206c2.2.029,4.391.014,6.585-.01,2.2-.04,4.39-.087,6.583-.18s4.388-.214,6.58-.394" transform="translate(-79.695 -114.824)" fill="#7197d5"/>
              <path id="Trazado_1163092" data-name="Trazado 1163092" d="M124.891,330.7l35.137.312c-3.02-6.467-.581-12.71.865-15.484l-35.756.789c-2.767,5.459-1.281,11.467-.247,14.383" transform="translate(-42.955 -109.699)" fill="#c12c22"/>
              <path id="Trazado_1163093" data-name="Trazado 1163093" d="M130.6,326.065c0,1.382,5.714,2.5,12.762,2.5s12.762-1.121,12.762-2.5-5.714-2.5-12.762-2.5-12.762,1.121-12.762,2.5" transform="translate(-45.405 -112.491)" fill="#fff"/>
              <g id="Grupo_1216468" data-name="Grupo 1216468" transform="translate(130.029 213.891)" style="mix-blend-mode: multiply;isolation: isolate">
                <g id="Grupo_1216467" data-name="Grupo 1216467">
                  <g id="Grupo_1216466" data-name="Grupo 1216466" clip-path="url(#clip-path-7)">
                    <path id="Trazado_1163094" data-name="Trazado 1163094" d="M199.329,327.885a9.065,9.065,0,0,0,1.243,4.716l49.771.927a13.534,13.534,0,0,1-1.431-4.913q-24.8.139-49.582-.731" transform="translate(-199.329 -327.885)" fill="#bfd4ea"/>
                  </g>
                </g>
              </g>
              <g id="Grupo_1216471" data-name="Grupo 1216471" transform="translate(73.532 205.745)" opacity="0.15" style="mix-blend-mode: multiply;isolation: isolate">
                <g id="Grupo_1216470" data-name="Grupo 1216470">
                  <g id="Grupo_1216469" data-name="Grupo 1216469" clip-path="url(#clip-path-8)">
                    <path id="Trazado_1163095" data-name="Trazado 1163095" d="M114.956,330.587l6.171.053,35.137.311,1.361.01,10.323.093c-.029-.076-.061-.15-.085-.226a19.294,19.294,0,0,1-5.089-3.523,18.407,18.407,0,0,0-2.451-11.91l-3.194.072-27.426.6-8.333.186-6.414.14c-2.945,4.6-3.016,9.323,0,14.19" transform="translate(-112.721 -315.397)" fill="#8a2c08"/>
                  </g>
                </g>
              </g>
              <path id="Trazado_1163096" data-name="Trazado 1163096" d="M209.306,323.562h-2.714a9.7,9.7,0,0,0,2.381,7.343,9.4,9.4,0,0,0,7.006,3.114c-.3-.742-.515-1.356-.815-2.1a22.073,22.073,0,0,0,4.247.183,18.566,18.566,0,0,1-6.588-2.474,8.047,8.047,0,0,1-3.517-6.069" transform="translate(-71.81 -112.491)" fill="#324b85"/>
              <path id="Trazado_1163097" data-name="Trazado 1163097" d="M9.634,232.322c-.221-4.728.349-9.9-2.364-13.777-1.127-1.612-2.728-2.83-3.975-4.35-2.581-3.148-3.47-7.415-3.268-11.481a49.843,49.843,0,0,1,2.579-11.9c-1.44,3.843.8,8,2.96,11.488a16.358,16.358,0,0,0,4.275,5.156c1.965,1.35,4.412,1.772,6.561,2.808,5.061,2.441,7.953,8.2,8.135,13.819.158,4.849-1.378,9.916.39,14.434,1.84,4.7,11.376,17.864-1.351,14.52-9.315-2.447-13.525-11.8-13.941-20.712" transform="translate(0 -66.337)" fill="#3e3e15"/>
              <path id="Trazado_1163098" data-name="Trazado 1163098" d="M3.939,190.808C2.546,210.6,15.508,211.3,15.784,223.7c.364,16.4,9.124,29.328,14.281,29.571" transform="translate(-1.333 -66.337)" fill="none" stroke="#a2a34a" stroke-miterlimit="10" stroke-width="1"/>
              <path id="Trazado_1163099" data-name="Trazado 1163099" d="M29.668,215.7c2.628-4.816,6.3-9.592,5.953-15.066-.146-2.274-1-4.444-1.318-6.7-.661-4.671,1.028-9.431,3.675-13.336s6.2-7.092,9.719-10.236c-3.74,2.939-4.022,8.4-3.984,13.158.022,2.607.061,5.3,1.13,7.679,1.134,2.52,3.3,4.411,4.806,6.729,3.543,5.465,2.938,12.91-.262,18.582-2.763,4.9-7.335,8.99-8.3,14.529-1.006,5.759.512,24.538-10.079,13.565-7.752-8.031-6.29-19.827-1.338-28.9" transform="translate(-8.891 -59.227)" fill="#6b671f"/>
              <path id="Trazado_1163100" data-name="Trazado 1163100" d="M51.291,170.355c-13.293,18.76-.877,27.254-8.073,39.706-9.512,16.46-8.619,34.536-3.659,37.88" transform="translate(-12.485 -59.226)" fill="none" stroke="#a2a34a" stroke-miterlimit="10" stroke-width="1"/>
              <path id="Trazado_1163101" data-name="Trazado 1163101" d="M44.817,231.864c3.371-3.324,7.6-6.354,8.671-10.964.446-1.915.282-3.92.581-5.864.618-4.024,3.2-7.536,6.359-10.1a49.841,49.841,0,0,1,10.58-6.035c-3.822,1.5-5.416,5.939-6.57,9.878a16.346,16.346,0,0,0-.98,6.625c.309,2.364,1.63,4.467,2.294,6.757,1.566,5.4-.789,11.4-4.846,15.286-3.5,3.357-8.3,5.6-10.479,9.934-2.266,4.507-5.69,20.4-11.706,8.7-4.4-8.566-.257-17.948,6.1-24.211" transform="translate(-12.826 -69.15)" fill="#3e3e15"/>
              <path id="Trazado_1163102" data-name="Trazado 1163102" d="M73.124,198.9c-15.657,12.187-7.514,22.3-16.562,30.792C44.6,240.92,40.837,256.075,44.1,260.073" transform="translate(-14.942 -69.15)" fill="none" stroke="#a2a34a" stroke-miterlimit="10" stroke-width="1"/>
              <path id="Trazado_1163103" data-name="Trazado 1163103" d="M49.556,274.367l-4.541,28.523L42.208,320.51H22.047l-5.658-35.525L14.7,274.367Z" transform="translate(-5.11 -95.388)" fill="#142216"/>
              <g id="Grupo_1216474" data-name="Grupo 1216474" transform="translate(11.279 189.597)" opacity="0.58" style="mix-blend-mode: multiply;isolation: isolate">
                <g id="Grupo_1216473" data-name="Grupo 1216473">
                  <g id="Grupo_1216472" data-name="Grupo 1216472" clip-path="url(#clip-path-9)">
                    <path id="Trazado_1163104" data-name="Trazado 1163104" d="M45.916,308.549l-2.807,17.62H22.948L17.29,290.643Z" transform="translate(-17.29 -290.643)" fill="#cc6017"/>
                  </g>
                </g>
              </g>
              <rect id="Rectángulo_420495" data-name="Rectángulo 420495" width="5.495" height="29.932" transform="translate(351.208 39.444) rotate(-23.099)" fill="#4a75c9"/>
              <path id="Trazado_1163105" data-name="Trazado 1163105" d="M543.441,57.16l1.174,2.753a15.117,15.117,0,0,1-4.651,3.1l-1.579-3.7Z" transform="translate(-187.177 -19.872)" fill="#1b2536"/>
              <rect id="Rectángulo_420496" data-name="Rectángulo 420496" width="5.496" height="18.864" transform="translate(355.551 49.625) rotate(-23.099)" fill="#1b2536"/>
              <path id="Trazado_1163106" data-name="Trazado 1163106" d="M511.974,37.347a15.171,15.171,0,1,0,8-19.906,15.171,15.171,0,0,0-8,19.906" transform="translate(-177.571 -5.639)" fill="#4a75c9"/>
              <path id="Trazado_1163107" data-name="Trazado 1163107" d="M517.489,37.882a11.375,11.375,0,1,0,6-14.926,11.376,11.376,0,0,0-6,14.926" transform="translate(-179.594 -7.663)" fill="#fff"/>
              <path id="Trazado_1163108" data-name="Trazado 1163108" d="M546.4,33.507a9.09,9.09,0,0,0-.543-1.07" transform="translate(-189.774 -11.277)" fill="none" stroke="#bedce0" stroke-miterlimit="10" stroke-width="1.747"/>
              <path id="Trazado_1163109" data-name="Trazado 1163109" d="M538.446,28.291a8.99,8.99,0,0,0-9.834-1.864" transform="translate(-183.779 -8.937)" fill="none" stroke="#bedce0" stroke-miterlimit="10" stroke-width="1.747"/>
              <path id="Trazado_1163110" data-name="Trazado 1163110" d="M422.219,305.218a26.564,26.564,0,0,1-.543,5.223l-13.3.945-.159.012-.158-.012-13.3-.945a26.615,26.615,0,0,1-.543-5.223c.012-9.84,6.491-14.04,9.167-15.312a4.593,4.593,0,0,0,2.9-4.7v-.023a4.479,4.479,0,0,0-2.892-4.2c-2.677-1.273-9.156-5.472-9.167-15.312a26.607,26.607,0,0,1,.543-5.223l13.3-.945.159-.011.159.011,13.3.945a26.609,26.609,0,0,1,.543,5.223c-.012,9.84-6.491,14.04-9.167,15.312a4.592,4.592,0,0,0-2.9,4.7v.023a4.478,4.478,0,0,0,2.891,4.2c2.676,1.273,9.156,5.472,9.167,15.312" transform="translate(-137.056 -90.214)" fill="#ea9b1c"/>
              <g id="Grupo_1216477" data-name="Grupo 1216477" transform="translate(259.427 171.54)" opacity="0.52" style="mix-blend-mode: multiply;isolation: isolate">
                <g id="Grupo_1216476" data-name="Grupo 1216476">
                  <g id="Grupo_1216475" data-name="Grupo 1216475" clip-path="url(#clip-path-10)">
                    <path id="Trazado_1163111" data-name="Trazado 1163111" d="M420.953,263.784l-11.522-.821-11.521.821a23.446,23.446,0,0,0-.215,3.09,15.992,15.992,0,0,0,1.2,6.3,13.621,13.621,0,0,0,6.677,6.972,6.762,6.762,0,0,1,3.859,4.21,6.8,6.8,0,0,1,3.859-4.21,13.628,13.628,0,0,0,7.153-8.256,16.8,16.8,0,0,0,.724-5.013,23.494,23.494,0,0,0-.215-3.09m-.006,39.837a13.675,13.675,0,0,0-7.662-10.463,7.058,7.058,0,0,1-3.412-3.107,5.889,5.889,0,0,1-.447-1.1,6.8,6.8,0,0,1-3.859,4.21c-2.365,1.126-7.866,4.674-7.877,13.27a23.373,23.373,0,0,0,.215,3.089l11.522.821,11.521-.821a23.383,23.383,0,0,0,.215-3.089,18.206,18.206,0,0,0-.215-2.807" transform="translate(-397.689 -262.963)" fill="#cc6017"/>
                  </g>
                </g>
              </g>
              <path id="Trazado_1163112" data-name="Trazado 1163112" d="M421.156,320.277a12.536,12.536,0,0,1-.209,3.089l-11.522.821-11.521-.821a23.369,23.369,0,0,1-.215-3.089c.776-2.133,2.581-2.66,7.017-5.178s5.036-6.83,4.719-12.3h.566s-.057.414-.119,1.1a21.61,21.61,0,0,0,.332,6.493,6.172,6.172,0,0,0,1.774,3.275c1.718,1.542,3.74,1.482,5.675,2.547a9.065,9.065,0,0,1,1.263.9,8.372,8.372,0,0,1,1.677,1.618,3.328,3.328,0,0,1,.562,1.549" transform="translate(-138.262 -105.271)" fill="#8a3d12"/>
              <g id="Grupo_1216480" data-name="Grupo 1216480" transform="translate(257.169 169.282)" opacity="0.52" style="mix-blend-mode: multiply;isolation: isolate">
                <g id="Grupo_1216479" data-name="Grupo 1216479">
                  <g id="Grupo_1216478" data-name="Grupo 1216478" clip-path="url(#clip-path-11)">
                    <path id="Trazado_1163113" data-name="Trazado 1163113" d="M422.228,265.67a.667.667,0,0,1-.108.006H394.33a.6.6,0,0,1-.1-.006,26.618,26.618,0,0,1,.543-5.223l13.3-.945h.317l13.3.945a26.613,26.613,0,0,1,.543,5.223" transform="translate(-394.228 -259.502)" fill="#cc6017"/>
                  </g>
                </g>
              </g>
              <path id="Trazado_1163114" data-name="Trazado 1163114" d="M421.357,262.118H393.93a1.377,1.377,0,0,1-1.376-1.376V259.51a1.376,1.376,0,0,1,1.376-1.376h27.426a1.376,1.376,0,0,1,1.376,1.376v1.232a1.377,1.377,0,0,1-1.376,1.376" transform="translate(-136.477 -89.744)" fill="#ea9b1c"/>
              <g id="Grupo_1216483" data-name="Grupo 1216483" transform="translate(257.164 214.999)" opacity="0.52" style="mix-blend-mode: multiply;isolation: isolate">
                <g id="Grupo_1216482" data-name="Grupo 1216482">
                  <g id="Grupo_1216481" data-name="Grupo 1216481" clip-path="url(#clip-path-12)">
                    <path id="Trazado_1163115" data-name="Trazado 1163115" d="M394.22,329.588a.66.66,0,0,1,.108-.006h27.789a.6.6,0,0,1,.1.006,26.615,26.615,0,0,1-.543,5.223l-13.3.945h-.317l-13.3-.945a26.615,26.615,0,0,1-.543-5.223" transform="translate(-394.221 -329.583)" fill="#cc6017"/>
                  </g>
                </g>
              </g>
              <path id="Trazado_1163116" data-name="Trazado 1163116" d="M393.93,334.307h27.426a1.377,1.377,0,0,1,1.376,1.376v1.232a1.377,1.377,0,0,1-1.376,1.376H393.93a1.377,1.377,0,0,1-1.376-1.376v-1.232a1.377,1.377,0,0,1,1.376-1.376" transform="translate(-136.477 -116.227)" fill="#ea9b1c"/>
              <path id="Trazado_1163117" data-name="Trazado 1163117" d="M421.086,276.173a13.628,13.628,0,0,1-7.153,8.256,6.8,6.8,0,0,0-3.859,4.21,6.762,6.762,0,0,0-3.859-4.21,13.621,13.621,0,0,1-6.677-6.972c7.458-2.835,16.422-2.461,21.549-1.284" transform="translate(-138.905 -95.709)" fill="#8a3d12"/>
              <path id="Trazado_1163118" data-name="Trazado 1163118" d="M273.89,86.153a.279.279,0,0,0-.055.009,14.77,14.77,0,0,1-5.294-.148,24.084,24.084,0,0,1-4.784-1.564c-1.5-.659-2.932-1.4-4.324-2.139L255.3,80.066a29.158,29.158,0,0,0-8.323-3.271,15.169,15.169,0,0,0-8.546.918,14.914,14.914,0,0,0-6.741,5.452,15.842,15.842,0,0,0-2.714,8.314c0,.115,0,.232,0,.343-.018,1.382.219,2.812.279,4.338a8.025,8.025,0,0,1-1.132,4.9,4.464,4.464,0,0,1-2.078,1.675,3.7,3.7,0,0,1-2.714.042,2.691,2.691,0,0,1-1.146-.862,3.176,3.176,0,0,1-.58-1.271,2.878,2.878,0,0,1,.046-1.4,2.234,2.234,0,0,1,.826-1.2.456.456,0,0,1,.645.1.463.463,0,0,1-.093.64,1.579,1.579,0,0,0-.436,1.638,1.833,1.833,0,0,0,1.137,1.345,2.583,2.583,0,0,0,1.874-.116,3.273,3.273,0,0,0,1.48-1.281,6.792,6.792,0,0,0,.761-4.134c-.107-1.494-.441-3.062-.441-4.727a17.531,17.531,0,0,1,2.7-9.376,16.868,16.868,0,0,1,3.238-3.776,17.691,17.691,0,0,1,14.048-4.069,31.559,31.559,0,0,1,9.223,3.229l4.2,2.1c1.4.687,2.774,1.341,4.166,1.889a20.838,20.838,0,0,0,4.171,1.215,11.3,11.3,0,0,0,4.05-.014l.028-.005a1.758,1.758,0,0,1,2.056,1.4c0,.009,0,.023,0,.033a1.761,1.761,0,0,1-1.4,2.027" transform="translate(-77.021 -25.759)" fill="#142216"/>
              <g id="Grupo_1216486" data-name="Grupo 1216486" transform="translate(151.96 49.47)" style="mix-blend-mode: multiply;isolation: isolate">
                <g id="Grupo_1216485" data-name="Grupo 1216485">
                  <g id="Grupo_1216484" data-name="Grupo 1216484" clip-path="url(#clip-path-13)">
                    <path id="Trazado_1163119" data-name="Trazado 1163119" d="M277.856,86.759a.279.279,0,0,0-.055.009,14.771,14.771,0,0,1-5.294-.148,24.085,24.085,0,0,1-4.784-1.564c-1.5-.659-2.932-1.4-4.324-2.139l-4.129-2.245a29.159,29.159,0,0,0-8.323-3.271,15.169,15.169,0,0,0-8.546.918,14.914,14.914,0,0,0-6.741,5.452,15.842,15.842,0,0,0-2.714,8.314,17.782,17.782,0,0,1,3.345-10.212,14.814,14.814,0,0,1,9.641-5.9c4-.566,8.035.687,11.7,2.39s7.1,3.874,10.871,5.317c3.419,1.3,7.251,1.98,10.759,1.053a1.761,1.761,0,0,1-1.4,2.027" transform="translate(-232.947 -75.835)" fill="#bfd4ea"/>
                  </g>
                </g>
              </g>
              <path id="Trazado_1163120" data-name="Trazado 1163120" d="M299.886,86.153a.287.287,0,0,1,.055.009,14.766,14.766,0,0,0,5.293-.148,24.078,24.078,0,0,0,4.784-1.564c1.5-.659,2.931-1.4,4.323-2.139l4.13-2.245A29.152,29.152,0,0,1,326.8,76.8a15.169,15.169,0,0,1,8.545.918,14.919,14.919,0,0,1,6.742,5.452,15.847,15.847,0,0,1,2.714,8.314c0,.115,0,.232,0,.343.018,1.382-.219,2.812-.279,4.338a8.02,8.02,0,0,0,1.132,4.9,4.462,4.462,0,0,0,2.078,1.675,3.7,3.7,0,0,0,2.715.042,2.686,2.686,0,0,0,1.146-.862,3.168,3.168,0,0,0,.58-1.271,2.885,2.885,0,0,0-.046-1.4,2.234,2.234,0,0,0-.827-1.2.456.456,0,0,0-.645.1.463.463,0,0,0,.093.64,1.58,1.58,0,0,1,.436,1.638,1.835,1.835,0,0,1-1.137,1.345,2.582,2.582,0,0,1-1.874-.116,3.267,3.267,0,0,1-1.48-1.281,6.8,6.8,0,0,1-.761-4.134c.107-1.494.442-3.062.442-4.727a17.542,17.542,0,0,0-2.7-9.376,16.887,16.887,0,0,0-3.239-3.776,17.694,17.694,0,0,0-14.048-4.069,31.553,31.553,0,0,0-9.223,3.229l-4.2,2.1c-1.4.687-2.775,1.341-4.166,1.889a20.851,20.851,0,0,1-4.171,1.215,11.307,11.307,0,0,1-4.051-.014l-.027-.005a1.759,1.759,0,0,0-2.055,1.4c0,.009,0,.023,0,.033a1.761,1.761,0,0,0,1.4,2.027" transform="translate(-103.764 -25.759)" fill="#142216"/>
              <g id="Grupo_1216489" data-name="Grupo 1216489" transform="translate(194.695 49.47)" style="mix-blend-mode: multiply;isolation: isolate">
                <g id="Grupo_1216488" data-name="Grupo 1216488">
                  <g id="Grupo_1216487" data-name="Grupo 1216487" clip-path="url(#clip-path-13)">
                    <path id="Trazado_1163121" data-name="Trazado 1163121" d="M299.886,86.759a.286.286,0,0,1,.055.009,14.766,14.766,0,0,0,5.293-.148,24.078,24.078,0,0,0,4.784-1.564c1.5-.659,2.931-1.4,4.323-2.139l4.13-2.245A29.152,29.152,0,0,1,326.8,77.4a15.169,15.169,0,0,1,8.545.918,14.919,14.919,0,0,1,6.742,5.452,15.847,15.847,0,0,1,2.714,8.314,17.783,17.783,0,0,0-3.346-10.212,14.811,14.811,0,0,0-9.64-5.9c-4-.566-8.035.687-11.7,2.39s-7.1,3.874-10.871,5.317c-3.419,1.3-7.251,1.98-10.758,1.053a1.761,1.761,0,0,0,1.4,2.027" transform="translate(-298.459 -75.835)" fill="#bfd4ea"/>
                  </g>
                </g>
              </g>
              <path id="Trazado_1163122" data-name="Trazado 1163122" d="M294.909,170.084c-.065,0-.125,0-.19,0-12.146,0-1.206-45.949-1.206-45.949h.344l1.939-35.278h2.014v35.278s8.963,45.467-2.9,45.945" transform="translate(-100.471 -30.894)" fill="#142216"/>
              <g id="Grupo_1216492" data-name="Grupo 1216492" transform="translate(194.438 58.668)" style="mix-blend-mode: multiply;isolation: isolate">
                <g id="Grupo_1216491" data-name="Grupo 1216491">
                  <g id="Grupo_1216490" data-name="Grupo 1216490" clip-path="url(#clip-path-15)">
                    <path id="Trazado_1163123" data-name="Trazado 1163123" d="M298.064,170.457a60.624,60.624,0,0,0,3.382-21.388,167.19,167.19,0,0,0-1.967-24.964l.645-34.165c.283,0,.566,0,.84,0v34.578s8.963,45.467-2.9,45.945" transform="translate(-298.064 -89.936)" fill="#bfd4ea"/>
                  </g>
                </g>
              </g>
              <path id="Trazado_1163124" data-name="Trazado 1163124" d="M302.222,137.683a5.827,5.827,0,1,1-5.827-5.827,5.827,5.827,0,0,1,5.827,5.827" transform="translate(-101.02 -45.842)" fill="#d97c2f"/>
              <g id="Grupo_1216495" data-name="Grupo 1216495" transform="translate(190.402 86.867)" style="mix-blend-mode: multiply;isolation: isolate">
                <g id="Grupo_1216494" data-name="Grupo 1216494">
                  <g id="Grupo_1216493" data-name="Grupo 1216493" clip-path="url(#clip-path-16)">
                    <path id="Trazado_1163125" data-name="Trazado 1163125" d="M302.678,138.136a5.826,5.826,0,0,1-10.8,3.034,5.767,5.767,0,0,0,3.035.854,5.828,5.828,0,0,0,5.827-5.827,5.765,5.765,0,0,0-.853-3.034,5.823,5.823,0,0,1,2.793,4.973" transform="translate(-291.877 -133.163)" fill="#bfd4ea"/>
                  </g>
                </g>
              </g>
              <path id="Trazado_1163126" data-name="Trazado 1163126" d="M299.727,124.2l-3.57.081c-1.925.044-1.932,3.041,0,3l3.57-.082c1.926-.044,1.932-3.041,0-3" transform="translate(-102.46 -43.179)" fill="#d97c2f"/>
              <path id="Trazado_1163127" data-name="Trazado 1163127" d="M303.244,87.631a4.337,4.337,0,1,1-4.337-4.337,4.336,4.336,0,0,1,4.337,4.337" transform="translate(-102.412 -28.958)" fill="#d97c2f"/>
              <path id="Trazado_1163128" data-name="Trazado 1163128" d="M299.648,91.317A2.947,2.947,0,1,1,302.6,88.37a2.95,2.95,0,0,1-2.947,2.947m0-5.039a2.092,2.092,0,1,0,2.092,2.092,2.095,2.095,0,0,0-2.092-2.092" transform="translate(-103.152 -29.699)" fill="#142216"/>
              <path id="Trazado_1163129" data-name="Trazado 1163129" d="M309.011,216.9v8.675l-8.424-.419-35.94-1.8.08-1.222.267-4.146.359-5.532s23.1-6.758,41.624,3.268c.684.363,1.362.759,2.033,1.174" transform="translate(-92.008 -73.09)" fill="#d97c2f"/>
              <path id="Trazado_1163130" data-name="Trazado 1163130" d="M309.011,223.17v6.542L264.647,227.5l.348-5.368c7.473.248,33.711.819,44.016,1.042" transform="translate(-92.008 -77.226)" fill="#ffb549"/>
              <path id="Trazado_1163131" data-name="Trazado 1163131" d="M314.713,239.29l-49.161.659-12.846.172.839-11.931,7.03.192L299,229.42l5.856.16,8.316.224Z" transform="translate(-87.857 -79.333)" fill="#142216"/>
              <g id="Grupo_1216498" data-name="Grupo 1216498" transform="translate(177.388 142.637)" style="mix-blend-mode: multiply;isolation: isolate">
                <g id="Grupo_1216497" data-name="Grupo 1216497">
                  <g id="Grupo_1216496" data-name="Grupo 1216496" clip-path="url(#clip-path-17)">
                    <path id="Trazado_1163132" data-name="Trazado 1163132" d="M321.4,235.975l-49.161.659-.308-.811s21.078-1.31,31.191-7.737a16.084,16.084,0,0,0,2.568-1.981,15.12,15.12,0,0,0,3.823-7.449c.683.363,1.362.759,2.033,1.174v6.435l8.316.224Z" transform="translate(-271.927 -218.656)" fill="#bfd4ea"/>
                  </g>
                </g>
              </g>
              <path id="Trazado_1163133" data-name="Trazado 1163133" d="M192.206,142.995a.428.428,0,0,1-.325-.706l22.39-26.155a.429.429,0,0,1,.32-.15h0a.429.429,0,0,1,.318.142L238.4,142.281a.428.428,0,1,1-.637.571L214.6,117.06l-22.073,25.785a.428.428,0,0,1-.325.149" transform="translate(-66.674 -40.323)" fill="#142216"/>
              <path id="Trazado_1163134" data-name="Trazado 1163134" d="M212.15,142.292a.42.42,0,0,1-.147-.027.426.426,0,0,1-.253-.549l9.38-25.452a.427.427,0,0,1,.8.3l-9.381,25.452a.428.428,0,0,1-.4.28" transform="translate(-73.608 -40.324)" fill="#142216"/>
              <path id="Trazado_1163135" data-name="Trazado 1163135" d="M217.645,173.764c-.673.042-1.369.06-2.083.06-.112.005-.223.005-.334.005-1.495,0-2.9-.065-4.208-.186-20.9-1.935-19.963-18.275-19.963-18.275s2.9-.422,7.506-.863c1.615-.153,3.442-.311,5.428-.45a165.256,165.256,0,0,1,27.4.13c2.737.283,5.433.668,8,1.183,0,0,.988,17.259-21.75,18.4" transform="translate(-66.421 -53.383)" fill="#ea9b1c"/>
              <g id="Grupo_1216501" data-name="Grupo 1216501" transform="translate(149.33 100.802)" style="mix-blend-mode: multiply;isolation: isolate">
                <g id="Grupo_1216500" data-name="Grupo 1216500">
                  <g id="Grupo_1216499" data-name="Grupo 1216499" clip-path="url(#clip-path-18)">
                    <path id="Trazado_1163136" data-name="Trazado 1163136" d="M228.916,174.1c13.062-3.4,14.026-13.336,13.747-19.579,2.737.283,5.433.668,8,1.183,0,0,.988,17.259-21.75,18.4" transform="translate(-228.916 -154.525)" fill="#dbc8aa"/>
                  </g>
                </g>
              </g>
              <g id="Grupo_1216504" data-name="Grupo 1216504" transform="translate(130.135 100.672)" style="mix-blend-mode: soft-light;isolation: isolate">
                <g id="Grupo_1216503" data-name="Grupo 1216503">
                  <g id="Grupo_1216502" data-name="Grupo 1216502" clip-path="url(#clip-path-19)">
                    <path id="Trazado_1163137" data-name="Trazado 1163137" d="M216.6,174.094c-.112,0-.222,0-.334,0-1.494,0-2.9-.065-4.208-.185A17.818,17.818,0,0,1,199.6,154.776c1.615-.153,3.442-.311,5.428-.45a17.667,17.667,0,0,0,1.99,12.017,17.288,17.288,0,0,0,9.58,7.752" transform="translate(-199.491 -154.326)" fill="#fff"/>
                  </g>
                </g>
              </g>
              <path id="Trazado_1163138" data-name="Trazado 1163138" d="M341.35,142.995a.424.424,0,0,1-.278-.1.429.429,0,0,1-.047-.6l22.389-26.155a.431.431,0,0,1,.32-.15h0a.428.428,0,0,1,.318.142l23.486,26.155a.428.428,0,0,1-.637.571l-23.16-25.793-22.072,25.785a.426.426,0,0,1-.325.149" transform="translate(-118.527 -40.323)" fill="#142216"/>
              <path id="Trazado_1163139" data-name="Trazado 1163139" d="M361.294,142.292a.42.42,0,0,1-.147-.027.426.426,0,0,1-.253-.549l9.379-25.452a.427.427,0,1,1,.8.3l-9.379,25.452a.428.428,0,0,1-.4.28" transform="translate(-125.46 -40.324)" fill="#142216"/>
              <path id="Trazado_1163140" data-name="Trazado 1163140" d="M366.274,173.764c-.673.042-1.369.06-2.084.06-.112.005-.222.005-.334.005-1.494,0-2.894-.065-4.208-.186-20.9-1.935-19.963-18.275-19.963-18.275s2.894-.422,7.506-.863c1.615-.153,3.443-.311,5.429-.45a165.256,165.256,0,0,1,27.4.13c2.737.283,5.432.668,8,1.183,0,0,.988,17.259-21.749,18.4" transform="translate(-118.094 -53.383)" fill="#ea9b1c"/>
              <g id="Grupo_1216507" data-name="Grupo 1216507" transform="translate(248.18 100.802)" style="mix-blend-mode: multiply;isolation: isolate">
                <g id="Grupo_1216506" data-name="Grupo 1216506">
                  <g id="Grupo_1216505" data-name="Grupo 1216505" clip-path="url(#clip-path-20)">
                    <path id="Trazado_1163141" data-name="Trazado 1163141" d="M380.448,174.1c13.062-3.4,14.025-13.336,13.747-19.579,2.737.283,5.432.668,8,1.183,0,0,.988,17.259-21.749,18.4" transform="translate(-380.448 -154.525)" fill="#dbc8aa"/>
                  </g>
                </g>
              </g>
              <g id="Grupo_1216510" data-name="Grupo 1216510" transform="translate(228.984 100.672)" style="mix-blend-mode: soft-light;isolation: isolate">
                <g id="Grupo_1216509" data-name="Grupo 1216509">
                  <g id="Grupo_1216508" data-name="Grupo 1216508" clip-path="url(#clip-path-19)">
                    <path id="Trazado_1163142" data-name="Trazado 1163142" d="M368.134,174.094c-.112,0-.222,0-.334,0-1.494,0-2.9-.065-4.208-.185a17.819,17.819,0,0,1-12.457-19.138c1.615-.153,3.443-.311,5.429-.45a17.667,17.667,0,0,0,1.99,12.017,17.287,17.287,0,0,0,9.58,7.752" transform="translate(-351.022 -154.326)" fill="#fff"/>
                  </g>
                </g>
              </g>
              <path id="Trazado_1163143" data-name="Trazado 1163143" d="M395.265,213.408a13.072,13.072,0,1,1-13.072-13.072,13.072,13.072,0,0,1,13.072,13.072" transform="translate(-128.33 -69.65)" fill="#cc6017"/>
              <path id="Trazado_1163144" data-name="Trazado 1163144" d="M398.659,213.408a13.072,13.072,0,1,1-13.072-13.072,13.072,13.072,0,0,1,13.072,13.072" transform="translate(-129.51 -69.65)" fill="#ea9b1c"/>
              <path id="Trazado_1163145" data-name="Trazado 1163145" d="M397.193,215.081a9.933,9.933,0,1,1-9.933-9.933,9.933,9.933,0,0,1,9.933,9.933" transform="translate(-131.183 -71.323)" fill="#cc6017"/>
              <g id="Grupo_1216513" data-name="Grupo 1216513" transform="translate(247.616 135.298)" opacity="0.58" style="mix-blend-mode: multiply;isolation: isolate">
                <g id="Grupo_1216512" data-name="Grupo 1216512">
                  <g id="Grupo_1216511" data-name="Grupo 1216511" clip-path="url(#clip-path-22)">
                    <path id="Trazado_1163146" data-name="Trazado 1163146" d="M396.505,215.866a8.461,8.461,0,1,1-8.461-8.461,8.461,8.461,0,0,1,8.461,8.461" transform="translate(-379.584 -207.405)" fill="#cc6017"/>
                  </g>
                </g>
              </g>
            </g>
          </g>
          <text id="_" data-name="$" transform="translate(252.627 145.289)" fill="#ea9b1c" font-size="9" font-family="Montserrat-Black, Montserrat" font-weight="800"><tspan x="0" y="0">$</tspan></text>
          <g id="Grupo_1216520" data-name="Grupo 1216520">
            <g id="Grupo_1216519" data-name="Grupo 1216519" clip-path="url(#clip-path-2)">
              <path id="Trazado_1163147" data-name="Trazado 1163147" d="M393.6,29.159a13.072,13.072,0,1,1-13.072-13.072A13.072,13.072,0,0,1,393.6,29.159" transform="translate(-127.752 -5.593)" fill="#cc6017"/>
              <path id="Trazado_1163148" data-name="Trazado 1163148" d="M397,29.159a13.072,13.072,0,1,1-13.072-13.072A13.072,13.072,0,0,1,397,29.159" transform="translate(-128.932 -5.593)" fill="#ea9b1c"/>
              <path id="Trazado_1163149" data-name="Trazado 1163149" d="M395.531,30.832A9.933,9.933,0,1,1,385.6,20.9a9.933,9.933,0,0,1,9.933,9.933" transform="translate(-130.605 -7.266)" fill="#cc6017"/>
              <g id="Grupo_1216518" data-name="Grupo 1216518" transform="translate(246.532 15.105)" opacity="0.58" style="mix-blend-mode: multiply;isolation: isolate">
                <g id="Grupo_1216517" data-name="Grupo 1216517">
                  <g id="Grupo_1216516" data-name="Grupo 1216516" clip-path="url(#clip-path-22)">
                    <path id="Trazado_1163150" data-name="Trazado 1163150" d="M394.843,31.617a8.461,8.461,0,1,1-8.461-8.461,8.461,8.461,0,0,1,8.461,8.461" transform="translate(-377.922 -23.156)" fill="#cc6017"/>
                  </g>
                </g>
              </g>
            </g>
          </g>
          <text id="_2" data-name="$" transform="translate(251.543 25.097)" fill="#ea9b1c" font-size="9" font-family="Montserrat-Black, Montserrat" font-weight="800"><tspan x="0" y="0">$</tspan></text>
          <g id="Grupo_1216534" data-name="Grupo 1216534">
            <g id="Grupo_1216533" data-name="Grupo 1216533" clip-path="url(#clip-path-2)">
              <path id="Trazado_1163151" data-name="Trazado 1163151" d="M224.029,307.819v21.112H315.9a10.556,10.556,0,0,0,0-21.112Z" transform="translate(-77.887 -107.018)" fill="#bd4a2c"/>
              <path id="Trazado_1163152" data-name="Trazado 1163152" d="M224.029,307.819v21.112h82.164a10.556,10.556,0,0,0,0-21.112Z" transform="translate(-77.887 -107.018)" fill="#8a2c08"/>
              <path id="Trazado_1163153" data-name="Trazado 1163153" d="M224.122,327.39h82.213a7.257,7.257,0,1,0,0-14.514H224.122a.092.092,0,0,0-.092.091V327.3a.092.092,0,0,0,.092.092" transform="translate(-77.887 -108.776)" fill="#fff"/>
              <path id="Trazado_1163154" data-name="Trazado 1163154" d="M306.453,318.173l-82.422-.1V316.99l82.422.1a.541.541,0,0,1,0,1.082" transform="translate(-77.888 -110.206)" fill="#dfcab8"/>
              <path id="Trazado_1163155" data-name="Trazado 1163155" d="M306.453,323.735l-82.422-.1v-1.082l82.422.1a.541.541,0,0,1,0,1.082" transform="translate(-77.888 -112.14)" fill="#dfcab8"/>
              <path id="Trazado_1163156" data-name="Trazado 1163156" d="M306.453,329.55l-82.422-.1v-1.082l82.422.1a.541.541,0,0,1,0,1.082" transform="translate(-77.888 -114.161)" fill="#dfcab8"/>
              <path id="Trazado_1163157" data-name="Trazado 1163157" d="M241.164,275.72v21.112h91.872a10.556,10.556,0,0,0,0-21.112Z" transform="translate(-83.844 -95.858)" fill="#835f26"/>
              <path id="Trazado_1163158" data-name="Trazado 1163158" d="M241.164,275.72v21.112h82.164a10.556,10.556,0,0,0,0-21.112Z" transform="translate(-83.844 -95.858)" fill="#5a3b08"/>
              <path id="Trazado_1163159" data-name="Trazado 1163159" d="M241.165,295.291h82.3a7.257,7.257,0,1,0,0-14.514h-82.3Z" transform="translate(-83.844 -97.616)" fill="#fff"/>
              <path id="Trazado_1163160" data-name="Trazado 1163160" d="M323.587,291.637l-82.422-.1v-1.082l82.422.1a.541.541,0,0,1,0,1.082" transform="translate(-83.844 -100.98)" fill="#dfcab8"/>
              <path id="Trazado_1163161" data-name="Trazado 1163161" d="M323.587,297.452l-82.422-.1v-1.082l82.422.1a.541.541,0,0,1,0,1.082" transform="translate(-83.844 -103.002)" fill="#dfcab8"/>
              <path id="Trazado_1163162" data-name="Trazado 1163162" d="M323.587,286.074l-82.422-.1v-1.082l82.422.1a.541.541,0,0,1,0,1.082" transform="translate(-83.844 -99.046)" fill="#dfcab8"/>
              <path id="Trazado_1163163" data-name="Trazado 1163163" d="M230.367,243.639v21.112h91.872a10.556,10.556,0,0,0,0-21.112Z" transform="translate(-80.09 -84.705)" fill="#324b85"/>
              <path id="Trazado_1163164" data-name="Trazado 1163164" d="M230.367,243.639v21.112h82.164a10.556,10.556,0,0,0,0-21.112Z" transform="translate(-80.09 -84.705)" fill="#13244a"/>
              <path id="Trazado_1163165" data-name="Trazado 1163165" d="M230.368,263.21h82.3a7.257,7.257,0,0,0,0-14.514h-82.3Z" transform="translate(-80.091 -86.463)" fill="#fff"/>
              <path id="Trazado_1163166" data-name="Trazado 1163166" d="M312.79,253.993l-82.422-.1V252.81l82.422.1a.541.541,0,0,1,0,1.082" transform="translate(-80.091 -87.893)" fill="#dfcab8"/>
              <path id="Trazado_1163167" data-name="Trazado 1163167" d="M312.79,259.555l-82.422-.1v-1.082l82.422.1a.541.541,0,0,1,0,1.082" transform="translate(-80.091 -89.827)" fill="#dfcab8"/>
              <path id="Trazado_1163168" data-name="Trazado 1163168" d="M312.79,265.372l-82.422-.1v-1.082l82.422.1a.541.541,0,0,1,0,1.082" transform="translate(-80.091 -91.849)" fill="#dfcab8"/>
              <path id="Trazado_1163169" data-name="Trazado 1163169" d="M256.686,252.854v10.355l-3.247-3.247-3.358,3.358V252.81Z" transform="translate(-86.944 -87.893)" fill="#bd4a2c"/>
              <path id="Trazado_1163170" data-name="Trazado 1163170" d="M455.784,302.805l-.01,12.475a7.664,7.664,0,0,0,.449,2.606,34.154,34.154,0,0,1,2.009,12.174l-28.75-.025s1.682-3.807,9.3-6.143a10.412,10.412,0,0,0,3.673-2.05l2.8-2.387a5.724,5.724,0,0,0,1.923-5.37L445.152,302.8Z" transform="translate(-149.315 -105.271)" fill="#bd5331"/>
              <path id="Trazado_1163171" data-name="Trazado 1163171" d="M456.88,329.018l-6.971,3.321-5.14-3.37-2.318,1.973a10.4,10.4,0,0,1-3.673,2.049c-7.615,2.337-9.3,6.144-9.3,6.144l28.75.024a33.437,33.437,0,0,0-1.352-10.141" transform="translate(-149.316 -114.371)" fill="#142216"/>
              <path id="Trazado_1163172" data-name="Trazado 1163172" d="M505.382,302.84l2.494,14a6.574,6.574,0,0,1,.031,2.115l-1.65,11.142,22.012.019s-.3-3.294-1.344-4.194-4.041-3.148-4.041-3.148l-4.492-4.667a6.175,6.175,0,0,1-1.714-3.881l-.74-11.373Z" transform="translate(-175.703 -105.287)" fill="#bd5331"/>
              <path id="Trazado_1163173" data-name="Trazado 1163173" d="M519.028,326.509a10.764,10.764,0,0,0-7.619,3.825l-3.251-1.707-1.436,9.694,22.012.019s-.3-3.294-1.344-4.194S523.35,331,523.35,331Z" transform="translate(-176.169 -113.515)" fill="#142216"/>
              <path id="Trazado_1163174" data-name="Trazado 1163174" d="M453.007,69.611l9.443-10.1,11.455-.065L480.3,69.634l-5.437,33.77-21.32-.018Z" transform="translate(-157.494 -20.667)" fill="#ffb549"/>
              <path id="Trazado_1163175" data-name="Trazado 1163175" d="M464.254,73.792l6.557-5.46,7.778,7.643" transform="translate(-161.404 -23.757)" fill="none" stroke="#fff" stroke-miterlimit="10" stroke-width="0.464"/>
              <line id="Línea_720" data-name="Línea 720" x1="4.202" y2="32.341" transform="translate(305.202 47.158)" fill="none" stroke="#fff" stroke-miterlimit="10" stroke-width="0.464"/>
              <path id="Trazado_1163176" data-name="Trazado 1163176" d="M480.5,144.1l17.661,99.218-20.215-.017-20.757-88.964,6.157,90.075-20.44-.017-5.674-104.562,9.311-12.762,29.33.773Z" transform="translate(-152.008 -44.177)" fill="#142216"/>
              <g id="Grupo_1216523" data-name="Grupo 1216523" transform="translate(285.219 82.892)" opacity="0.57" style="mix-blend-mode: multiply;isolation: isolate">
                <g id="Grupo_1216522" data-name="Grupo 1216522">
                  <g id="Grupo_1216521" data-name="Grupo 1216521" clip-path="url(#clip-path-26)">
                    <path id="Trazado_1163177" data-name="Trazado 1163177" d="M480.5,144.1l-4.628-16.256-29.33-.773-9.311,12.762.142,2.6c6.363.132,27.324,1.09,44.233,7.877Z" transform="translate(-437.228 -127.069)" fill="#215681"/>
                  </g>
                </g>
              </g>
              <path id="Trazado_1163178" data-name="Trazado 1163178" d="M466.4,155.455l-2.165-8.584,0-.031,1.523-16.678.357.033L464.6,146.843l2.149,8.525Z" transform="translate(-161.398 -45.253)" fill="#f7eedf"/>
              <g id="Grupo_1216526" data-name="Grupo 1216526" transform="translate(296.477 102.974)" opacity="0.57" style="mix-blend-mode: multiply;isolation: isolate">
                <g id="Grupo_1216525" data-name="Grupo 1216525">
                  <g id="Grupo_1216524" data-name="Grupo 1216524" clip-path="url(#clip-path-27)">
                    <line id="Línea_721" data-name="Línea 721" x2="19.243" y2="0.016" transform="translate(0 0.326)" fill="none" stroke="#215681" stroke-miterlimit="10" stroke-width="1"/>
                  </g>
                </g>
              </g>
              <rect id="Rectángulo_420515" data-name="Rectángulo 420515" width="0.359" height="15.016" transform="translate(301.893 84.938) rotate(-4.206)" fill="#f7eedf"/>
              <path id="Trazado_1163179" data-name="Trazado 1163179" d="M452.467,248.913l-5.3-108.866.359-.018,5.3,108.866Z" transform="translate(-155.464 -48.683)" fill="#f7eedf"/>
              <path id="Trazado_1163180" data-name="Trazado 1163180" d="M505.806,247.846,486.225,140.09l.354-.063,19.58,107.755Z" transform="translate(-169.043 -48.682)" fill="#f7eedf"/>
              <rect id="Rectángulo_420516" data-name="Rectángulo 420516" width="28.107" height="4.482" transform="translate(293.986 81.41)" fill="#1b2536"/>
              <path id="Trazado_1163181" data-name="Trazado 1163181" d="M465.732,17.942a12.741,12.741,0,0,1,9.988,8.544c.9,2.416,1.063,4.886,3.2,6.4a5.279,5.279,0,0,1,2.3,4.943,4.615,4.615,0,0,0,1.625,4.1l-31.277-.026s1.743-2.638,1.408-4.884-1.4-3.764-.613-6.065,1.853-3.336.341-5.278c-2.187-2.81,1.244-9.825,13.034-7.738" transform="translate(-156.992 -6.105)" fill="#142216"/>
              <path id="Trazado_1163182" data-name="Trazado 1163182" d="M466.827,25.978c0,.973.818,6.515,5.309,8.689l.334,3.108,3.024,10.034-7.08,5.2-4.376-5.132,0-4.53c-2.92.259-5.352-1.431-5.537-4.575s-.032-5.874-.929-7.56c0,0,4.567-.07,9.251-5.233" transform="translate(-159.083 -9.032)" fill="#bd5331"/>
              <path id="Trazado_1163183" data-name="Trazado 1163183" d="M473.819,42.6a1.609,1.609,0,1,1-1.609-1.609,1.609,1.609,0,0,1,1.609,1.609" transform="translate(-163.611 -14.252)" fill="#d65353"/>
              <path id="Trazado_1163184" data-name="Trazado 1163184" d="M468.219,51.039a7.123,7.123,0,0,0,5.2-2.719" transform="translate(-162.783 -16.799)" fill="none" stroke="#422424" stroke-miterlimit="10" stroke-width="0.464"/>
              <path id="Trazado_1163185" data-name="Trazado 1163185" d="M481.815,38.1c-.785,1.778-2.533,2.728-3.9,2.123s-1.846-2.538-1.061-4.315,2.533-2.728,3.9-2.123,1.846,2.538,1.061,4.315" transform="translate(-165.652 -11.682)" fill="#bd5331"/>
              <path id="Trazado_1163186" data-name="Trazado 1163186" d="M478.344,38.9s.508-2.694,2.838-3.226" transform="translate(-166.303 -12.402)" fill="none" stroke="#422424" stroke-miterlimit="10" stroke-width="0.464"/>
              <line id="Línea_722" data-name="Línea 722" x1="0.354" y1="1.669" transform="translate(313.681 23.818)" fill="none" stroke="#422424" stroke-miterlimit="10" stroke-width="0.464"/>
              <path id="Trazado_1163187" data-name="Trazado 1163187" d="M483.2,42.626a1.085,1.085,0,1,1-1.085-1.087A1.086,1.086,0,0,1,483.2,42.626Z" transform="translate(-167.235 -14.442)" fill="none" stroke="#fff" stroke-miterlimit="10" stroke-width="0.464"/>
              <path id="Trazado_1163188" data-name="Trazado 1163188" d="M461.793,39.776l.362-.524a.81.81,0,0,0-.713-.254.824.824,0,1,0,.943.684.75.75,0,0,0-.034-.091Z" transform="translate(-160.185 -13.555)" fill="#1b2536"/>
              <path id="Trazado_1163189" data-name="Trazado 1163189" d="M469.586,38.539l.362-.524a.81.81,0,0,0-.713-.254.824.824,0,1,0,.943.684.749.749,0,0,0-.034-.091Z" transform="translate(-162.895 -13.125)" fill="#1b2536"/>
              <path id="Trazado_1163190" data-name="Trazado 1163190" d="M465.2,39.947s.018.88,0,1.61.842,1.123,1.778.507" transform="translate(-161.734 -13.888)" fill="none" stroke="#422424" stroke-miterlimit="10" stroke-width="0.464"/>
              <path id="Trazado_1163191" data-name="Trazado 1163191" d="M465.629,44.614a3.876,3.876,0,0,0,4.157-1.419" transform="translate(-161.882 -15.017)" fill="none" stroke="#422424" stroke-miterlimit="10" stroke-width="0.464"/>
              <line id="Línea_723" data-name="Línea 723" x2="0.948" y2="0.581" transform="translate(307.291 27.821)" fill="none" stroke="#422424" stroke-miterlimit="10" stroke-width="0.464"/>
              <path id="Trazado_1163192" data-name="Trazado 1163192" d="M467.215,35.111a6.478,6.478,0,0,1,3.463-.166" transform="translate(-162.434 -12.084)" fill="none" stroke="#732727" stroke-linecap="round" stroke-linejoin="round" stroke-width="0.971"/>
              <path id="Trazado_1163193" data-name="Trazado 1163193" d="M460.012,36.575a3.652,3.652,0,0,1,2.733-.3" transform="translate(-159.93 -12.56)" fill="none" stroke="#732727" stroke-linecap="round" stroke-linejoin="round" stroke-width="0.971"/>
              <path id="Trazado_1163194" data-name="Trazado 1163194" d="M481.292,59.446l-6.885,42.213a11.629,11.629,0,0,0,.415,5.457l2.725,8.4a2.33,2.33,0,0,0,3.38,1.3l13.463-7.76-5.833-8.877,7.726-27.24a7.8,7.8,0,0,0-4.628-9.382Z" transform="translate(-164.882 -20.667)" fill="#324b85"/>
              <line id="Línea_724" data-name="Línea 724" x1="7.118" y2="5.973" transform="translate(313.601 79.924)" fill="none" stroke="#1b2536" stroke-miterlimit="10" stroke-width="0.464"/>
              <path id="Trazado_1163195" data-name="Trazado 1163195" d="M482.956,61.833l.648.995a10,10,0,0,1,.362,10.322L482.715,75.4l1.4,4.136a7.11,7.11,0,0,1-.4,5.493L476.124,99.99" transform="translate(-165.531 -21.497)" fill="none" stroke="#1b2536" stroke-miterlimit="10" stroke-width="0.464"/>
              <path id="Trazado_1163196" data-name="Trazado 1163196" d="M491.376,121.892l-9.014,16.927a2.3,2.3,0,0,0,1.384-.291l13.463-7.759Z" transform="translate(-167.7 -42.377)" fill="#1b2536"/>
              <path id="Trazado_1163197" data-name="Trazado 1163197" d="M496.494,89.813l.944,16.875,3.43-12.091Z" transform="translate(-172.613 -31.225)" fill="#1b2536"/>
              <path id="Trazado_1163198" data-name="Trazado 1163198" d="M486.174,144.216l9.193,2.05-5.634-6.185Z" transform="translate(-169.025 -48.701)" fill="#bd5331"/>
              <path id="Trazado_1163199" data-name="Trazado 1163199" d="M450.847,59.546l-5.5,54.126a3,3,0,0,1-2.984,2.694l-13.574-.012s5.4-13.041,9.788-20.216l-.109-3.922-6.379,6.72a7.218,7.218,0,0,1-11.3-8.889l13.781-21.316a13.759,13.759,0,0,1,6.5-5.329Z" transform="translate(-145.891 -20.702)" fill="#324b85"/>
              <path id="Trazado_1163200" data-name="Trazado 1163200" d="M463.375,60.836c-1.574,2.357-5.789,5.891-2.538,13.25-3.374,5.949-4.054,13.974-1.592,23.805" transform="translate(-159.15 -21.15)" fill="none" stroke="#1b2536" stroke-miterlimit="10" stroke-width="0.464"/>
              <line id="Línea_725" data-name="Línea 725" y1="11.043" x2="1.237" transform="translate(285.683 63.311)" fill="none" stroke="#1b2536" stroke-miterlimit="10" stroke-width="0.464"/>
              <path id="Trazado_1163201" data-name="Trazado 1163201" d="M456.273,96.133,434.9,96.115,424.411,65.949l21.375.018Z" transform="translate(-147.553 -22.928)" fill="#fff"/>
              <path id="Trazado_1163202" data-name="Trazado 1163202" d="M493.531,79.97l9.794,17.3-11.694,16.312,7.78,8.542,16.294-15.12A10.815,10.815,0,0,0,517.948,94.1L507.06,73.12a16.361,16.361,0,0,0-8.487-7.672l-3.965-1.575Z" transform="translate(-170.922 -22.206)" fill="#324b85"/>
              <line id="Línea_726" data-name="Línea 726" y1="3.517" x2="2.661" transform="translate(332.402 71.55)" fill="none" stroke="#1b2536" stroke-miterlimit="10" stroke-width="0.464"/>
              <path id="Trazado_1163203" data-name="Trazado 1163203" d="M426.052,89.105a12.159,12.159,0,0,1,2.81-2.89A18.887,18.887,0,0,1,431.1,84.9a1.058,1.058,0,0,1,1.246.22l1.072,1.129a1.064,1.064,0,0,1,.143,1.276l-2.485,4.191s3.68-1.962,3.932-1.793c.149.1-1.255,1.673-2.421,2.935a3.157,3.157,0,0,1-3.8.665c-1.537-.823-3.2-2.24-2.737-4.422" transform="translate(-148.096 -29.479)" fill="#bd5331"/>
              <line id="Línea_727" data-name="Línea 727" y1="3.348" x2="4.305" transform="translate(280.146 55.858)" fill="none" stroke="#422424" stroke-miterlimit="10" stroke-width="0.464"/>
              <line id="Línea_728" data-name="Línea 728" y1="4.329" x2="3.563" transform="translate(281.689 56.788)" fill="none" stroke="#422424" stroke-miterlimit="10" stroke-width="0.464"/>
              <path id="Trazado_1163204" data-name="Trazado 1163204" d="M579.91,231.866c.221-4.728-.349-9.9,2.364-13.777,1.127-1.612,2.728-2.83,3.975-4.35,2.581-3.148,3.469-7.415,3.268-11.481a49.851,49.851,0,0,0-2.579-11.9c1.44,3.843-.8,8-2.96,11.488A16.356,16.356,0,0,1,579.7,207c-1.965,1.35-4.412,1.772-6.561,2.808-5.062,2.441-7.953,8.2-8.135,13.819-.157,4.849,1.379,9.916-.389,14.434-1.84,4.7-11.376,17.864,1.351,14.52,9.315-2.447,13.525-11.8,13.941-20.712" transform="translate(-194.504 -66.179)" fill="#3e3e15"/>
              <path id="Trazado_1163205" data-name="Trazado 1163205" d="M587.658,190.353c1.393,19.791-11.569,20.489-11.845,32.9-.364,16.4-9.124,29.328-14.281,29.571" transform="translate(-195.225 -66.179)" fill="none" stroke="#a2a34a" stroke-miterlimit="10" stroke-width="1"/>
              <path id="Trazado_1163206" data-name="Trazado 1163206" d="M561.8,215.239c-2.628-4.816-6.3-9.592-5.953-15.066.146-2.274,1-4.444,1.318-6.7.661-4.671-1.028-9.431-3.675-13.336s-6.2-7.092-9.719-10.236c3.74,2.939,4.022,8.4,3.984,13.158-.021,2.607-.06,5.3-1.129,7.679-1.134,2.52-3.3,4.411-4.806,6.729-3.544,5.465-2.938,12.91.262,18.582,2.763,4.9,7.335,8.99,8.3,14.529,1.006,5.759-.512,24.538,10.079,13.565,7.752-8.031,6.29-19.827,1.338-28.9" transform="translate(-187.532 -59.068)" fill="#6b671f"/>
              <path id="Trazado_1163207" data-name="Trazado 1163207" d="M546.09,169.9c13.293,18.76.877,27.254,8.073,39.706,9.512,16.46,8.619,34.535,3.658,37.88" transform="translate(-189.856 -59.068)" fill="none" stroke="#a2a34a" stroke-miterlimit="10" stroke-width="1"/>
              <path id="Trazado_1163208" data-name="Trazado 1163208" d="M542.578,231.409c-3.371-3.324-7.6-6.354-8.672-10.964-.446-1.915-.282-3.92-.581-5.864-.618-4.024-3.2-7.536-6.358-10.1a49.863,49.863,0,0,0-10.58-6.035c3.822,1.5,5.416,5.939,6.57,9.878a16.348,16.348,0,0,1,.98,6.625c-.309,2.364-1.63,4.467-2.294,6.757-1.566,5.4.789,11.4,4.846,15.286,3.5,3.357,8.3,5.6,10.479,9.934,2.266,4.507,5.69,20.4,11.705,8.7,4.4-8.566.257-17.947-6.1-24.211" transform="translate(-179.529 -68.992)" fill="#3e3e15"/>
              <path id="Trazado_1163209" data-name="Trazado 1163209" d="M516.387,198.443c15.657,12.187,7.514,22.3,16.562,30.792,11.959,11.229,15.725,26.385,12.46,30.383" transform="translate(-179.529 -68.992)" fill="none" stroke="#a2a34a" stroke-miterlimit="10" stroke-width="1"/>
              <path id="Trazado_1163210" data-name="Trazado 1163210" d="M537.445,273.912l4.541,28.523,2.806,17.619h20.162l5.658-35.525,1.69-10.617Z" transform="translate(-186.85 -95.229)" fill="#142216"/>
              <g id="Grupo_1216529" data-name="Grupo 1216529" transform="translate(355.135 189.3)" opacity="0.58" style="mix-blend-mode: multiply;isolation: isolate">
                <g id="Grupo_1216528" data-name="Grupo 1216528">
                  <g id="Grupo_1216527" data-name="Grupo 1216527" clip-path="url(#clip-path-9)">
                    <path id="Trazado_1163211" data-name="Trazado 1163211" d="M544.406,308.094l2.807,17.62h20.161l5.658-35.526Z" transform="translate(-544.406 -290.188)" fill="#cc6017"/>
                  </g>
                </g>
              </g>
              <path id="Trazado_1163212" data-name="Trazado 1163212" d="M549.465,144.444a.637.637,0,0,1-.637-.637v-9.59a.637.637,0,1,1,1.275,0v9.59a.637.637,0,0,1-.637.637" transform="translate(-190.808 -46.441)" fill="#b34f18"/>
              <path id="Trazado_1163213" data-name="Trazado 1163213" d="M551.7,142.2h-9.59a.637.637,0,0,1,0-1.275h9.59a.637.637,0,0,1,0,1.275" transform="translate(-188.252 -48.996)" fill="#b34f18"/>
              <path id="Trazado_1163214" data-name="Trazado 1163214" d="M166.46,71.166a.637.637,0,0,1-.637-.637v-9.59a.637.637,0,1,1,1.275,0v9.59a.637.637,0,0,1-.637.637" transform="translate(-57.651 -20.964)" fill="#b34f18"/>
              <path id="Trazado_1163215" data-name="Trazado 1163215" d="M168.7,68.927h-9.59a.637.637,0,0,1,0-1.275h9.59a.637.637,0,1,1,0,1.275" transform="translate(-55.095 -23.52)" fill="#b34f18"/>
              <path id="Trazado_1163216" data-name="Trazado 1163216" d="M16.968,58.7a.637.637,0,0,1-.637-.637v-9.59a.637.637,0,1,1,1.275,0v9.59a.637.637,0,0,1-.637.637" transform="translate(-5.678 -16.632)" fill="#b34f18"/>
              <path id="Trazado_1163217" data-name="Trazado 1163217" d="M19.208,56.463H9.618a.637.637,0,0,1,0-1.275h9.59a.637.637,0,0,1,0,1.275" transform="translate(-3.122 -19.187)" fill="#b34f18"/>
              <path id="Trazado_1163218" data-name="Trazado 1163218" d="M300.879,58.273a.637.637,0,0,1-.637-.637v-9.59a.637.637,0,0,1,1.275,0v9.59a.637.637,0,0,1-.637.637" transform="translate(-104.383 -16.482)" fill="#b34f18"/>
              <path id="Trazado_1163219" data-name="Trazado 1163219" d="M303.118,56.033h-9.59a.637.637,0,1,1,0-1.274h9.59a.637.637,0,1,1,0,1.274" transform="translate(-101.828 -19.038)" fill="#b34f18"/>
              <path id="Trazado_1163220" data-name="Trazado 1163220" d="M110.018,20.436a3.686,3.686,0,0,0-4.761-2.052,4.4,4.4,0,0,0-1.487.814,4.191,4.191,0,0,0-6.671.033,4.2,4.2,0,0,0-6.5.646,3.553,3.553,0,0,0-2.382,6.692L91.034,31.7,104.1,28.3l2.357-3.284a4.539,4.539,0,0,0,.838-.175,3.686,3.686,0,0,0,2.727-4.41" transform="translate(-29.874 -6.105)" fill="#1b2536"/>
              <path id="Trazado_1163221" data-name="Trazado 1163221" d="M185.719,71.354l5.933-7.041s.286-3.9,2.144-6,3.646-3,4-2.859-2.18,4.253-2.18,4.253a8.89,8.89,0,0,0,3.789-1.394c1.394-1.108,4.181-4.074,5.039-3.645s1.609,5.146-1.93,9.078a3.525,3.525,0,0,0,2.072-.753c1-.783,1.609-1.5,2-1.105s-1.144,2.68-2.144,3.288a13.441,13.441,0,0,1-2.252,1.037,10.61,10.61,0,0,1-6.009,2.9l-3.355,7.613Z" transform="translate(-64.568 -18.99)" fill="#bd5331"/>
              <path id="Trazado_1163222" data-name="Trazado 1163222" d="M206.884,61.088a20.382,20.382,0,0,0,4.984-5.334" transform="translate(-71.926 -19.384)" fill="none" stroke="#422424" stroke-miterlimit="10" stroke-width="0.464"/>
              <path id="Trazado_1163223" data-name="Trazado 1163223" d="M209.018,63.873s2.279-2.547,3.753-4.5" transform="translate(-72.668 -20.641)" fill="none" stroke="#422424" stroke-miterlimit="10" stroke-width="0.464"/>
              <path id="Trazado_1163224" data-name="Trazado 1163224" d="M205.813,62.822a16.345,16.345,0,0,1,2.815,3.619" transform="translate(-71.554 -21.841)" fill="none" stroke="#422424" stroke-miterlimit="10" stroke-width="0.464"/>
              <path id="Trazado_1163225" data-name="Trazado 1163225" d="M198.252,70.4a8.838,8.838,0,0,1,6.648-2.079" transform="translate(-68.925 -23.724)" fill="none" stroke="#422424" stroke-miterlimit="10" stroke-width="0.464"/>
              <path id="Trazado_1163226" data-name="Trazado 1163226" d="M188.33,75.521l-2.611,3.1,7.112,5.361,2.116-4.8Z" transform="translate(-64.568 -26.256)" fill="#28364f"/>
              <path id="Trazado_1163227" data-name="Trazado 1163227" d="M137.948,67.907,153.6,84.166l11.938-12.938,9.936,9.007s-10.291,16.45-13.507,21.525-11.726,6.925-18.374-.152C137.41,95.03,127.72,83.666,127.72,83.666l-3.245-21.9,1.329.15a19.966,19.966,0,0,1,12.143,5.994" transform="translate(-43.276 -21.473)" fill="#324b85"/>
              <path id="Trazado_1163228" data-name="Trazado 1163228" d="M136.237,74.773l6.067,26.392-8.474-9.653Z" transform="translate(-46.528 -25.996)" fill="#1b2536"/>
              <path id="Trazado_1163229" data-name="Trazado 1163229" d="M97.028,310.22l-.232,7.408a6.176,6.176,0,0,0,3.512,5.766l6.336,3.026a9.033,9.033,0,0,1,4.142,4.023A1.683,1.683,0,0,1,109.3,332.9c-7.031.048-25.173.153-25-.02s1.892-7.453,2.542-10.225a5.839,5.839,0,0,0,.1-2.13l-1.424-10.3Z" transform="translate(-29.309 -107.852)" fill="#bd5331"/>
              <path id="Trazado_1163230" data-name="Trazado 1163230" d="M178.1,310.22l1.4,7.408a8.208,8.208,0,0,0,4.786,5.766l7,3.026a12.419,12.419,0,0,1,5.031,4.023,1.543,1.543,0,0,1-1.23,2.458c-7.215.048-24.847.149-24.714-.022s.246-7.453.283-10.225a6.086,6.086,0,0,0-.372-2.13l-3.7-10.3Z" transform="translate(-57.916 -107.852)" fill="#bd5331"/>
              <path id="Trazado_1163231" data-name="Trazado 1163231" d="M120.548,141.192,150,250.988H131.985L99.211,155.772,96.96,250.988H80.376l-4.7-107.454,29.075-13.555Z" transform="translate(-26.31 -45.189)" fill="#142216"/>
              <g id="Grupo_1216532" data-name="Grupo 1216532" transform="translate(49.366 84.79)" opacity="0.57" style="mix-blend-mode: multiply;isolation: isolate">
                <g id="Grupo_1216531" data-name="Grupo 1216531">
                  <g id="Grupo_1216530" data-name="Grupo 1216530" clip-path="url(#clip-path-29)">
                    <path id="Trazado_1163232" data-name="Trazado 1163232" d="M121.617,145.177,76.32,158.24l-.643-14.707,29.075-13.555,15.8,11.214Z" transform="translate(-75.676 -129.979)" fill="#215681"/>
                  </g>
                </g>
              </g>
              <rect id="Rectángulo_420519" data-name="Rectángulo 420519" width="0.767" height="116.865" transform="matrix(0.955, -0.297, 0.297, 0.955, 75.001, 94.33)" fill="#f7eedf"/>
              <path id="Trazado_1163233" data-name="Trazado 1163233" d="M103.7,114.786l1.02-3.27,1.307,3.567a6.428,6.428,0,0,0,6.036,4.217h10.689L116.1,91.583l-.08-21.85a8.458,8.458,0,0,0-7.508-8.374l-9.593-1.085H87.9l-6.089,1.348a6.916,6.916,0,0,0-5.2,8.482l6.518,25.232s-5.576,15.815-7.452,23.964H97.559a6.428,6.428,0,0,0,6.137-4.514" transform="translate(-26.31 -20.955)" fill="#324b85"/>
              <path id="Trazado_1163234" data-name="Trazado 1163234" d="M87.329,88.49l-2.884,13.1L82.107,92.54Z" transform="translate(-28.546 -30.765)" fill="#1b2536"/>
              <rect id="Rectángulo_420520" data-name="Rectángulo 420520" width="0.767" height="107.537" transform="translate(53.178 98.359) rotate(-2.25)" fill="#f7eedf"/>
              <line id="Línea_729" data-name="Línea 729" x1="5.718" y2="5.647" transform="translate(104.603 62.693)" fill="none" stroke="#1b2536" stroke-miterlimit="10" stroke-width="0.464"/>
              <path id="Trazado_1163235" data-name="Trazado 1163235" d="M75.676,142.251h9.561l-4.828-15.959c-1.695,5.136-3.736,11.63-4.733,15.959" transform="translate(-26.31 -43.907)" fill="#1b2536"/>
              <path id="Trazado_1163236" data-name="Trazado 1163236" d="M121.609,109.631l2.17,4.095a4.488,4.488,0,0,1,.3,3.492l-3.447,10.574" transform="translate(-41.94 -38.115)" fill="none" stroke="#1b2536" stroke-miterlimit="10" stroke-width="0.464"/>
              <circle id="Elipse_14384" data-name="Elipse 14384" cx="1.037" cy="1.037" r="1.037" transform="translate(77.297 75.917)" fill="none" stroke="#fff" stroke-miterlimit="10" stroke-width="0.464"/>
              <path id="Trazado_1163237" data-name="Trazado 1163237" d="M95.674,175.785l-2.744-3.364-1.614-1.112,6.771-5.981,3.416,4.3.757,3.067-2.105-1.457-3.819-.407Z" transform="translate(-31.747 -57.479)" fill="#142216"/>
              <path id="Trazado_1163238" data-name="Trazado 1163238" d="M110.787,336.507h0a9.036,9.036,0,0,0-4.143-4.024l-6.335-3.026a6.153,6.153,0,0,1-2.213-1.8H95.049a3.382,3.382,0,0,0-3.382,3.382v.466l-2.573-3.848h-2.1a5.862,5.862,0,0,1-.147,1.057c-.649,2.772-2.367,10.052-2.541,10.225s17.969.067,25,.02a1.684,1.684,0,0,0,1.483-2.456" transform="translate(-29.309 -113.916)" fill="#d97c2f"/>
              <path id="Trazado_1163239" data-name="Trazado 1163239" d="M197.108,338.964a1.542,1.542,0,0,0,1.23-2.457,12.422,12.422,0,0,0-5.031-4.024l-7-3.026a8.4,8.4,0,0,1-2.609-1.8h-3.047a2.632,2.632,0,0,0-2.635,3.382l.1.466-3.423-3.848h-2.1a5.771,5.771,0,0,1,.086,1.057c-.037,2.772-.148,10.052-.283,10.225s17.5.07,24.714.022" transform="translate(-59.935 -113.916)" fill="#d97c2f"/>
              <path id="Trazado_1163240" data-name="Trazado 1163240" d="M97.756,32.841a6.18,6.18,0,0,0,2-4.5s3.4.5,4.5-1.43a4.184,4.184,0,0,0,4.825.357,2.912,2.912,0,0,0,1.573.822v5.4s1.716,2.609.893,4.861a5.429,5.429,0,0,1-2.93,3.038l.679,5.862H97.756l.322-12.009Z" transform="translate(-33.986 -9.355)" fill="#bd5331"/>
              <path id="Trazado_1163241" data-name="Trazado 1163241" d="M104.043,33.462a.851.851,0,0,0-.851.851.82.82,0,0,0,.05.244l.621-.157-.434.5a.849.849,0,1,0,.615-1.434" transform="translate(-35.876 -11.634)" fill="#1b2536"/>
              <path id="Trazado_1163242" data-name="Trazado 1163242" d="M112.154,33.462a.851.851,0,0,0-.851.851.82.82,0,0,0,.05.244l.621-.157-.434.5a.849.849,0,1,0,.615-1.434" transform="translate(-38.696 -11.634)" fill="#1b2536"/>
              <path id="Trazado_1163243" data-name="Trazado 1163243" d="M109.127,33.565v1.043a2.151,2.151,0,0,0,.323,1.132l.367.59a.432.432,0,0,1-.3.654l-1.047.155" transform="translate(-37.71 -11.669)" fill="none" stroke="#422424" stroke-miterlimit="10" stroke-width="0.464"/>
              <path id="Trazado_1163244" data-name="Trazado 1163244" d="M102.508,31.082a3.569,3.569,0,0,1,2.6,0" transform="translate(-35.638 -10.715)" fill="none" stroke="#422424" stroke-miterlimit="10" stroke-width="0.728"/>
              <path id="Trazado_1163245" data-name="Trazado 1163245" d="M110.227,31.082a3.569,3.569,0,0,1,2.6,0" transform="translate(-38.322 -10.715)" fill="none" stroke="#422424" stroke-miterlimit="10" stroke-width="0.728"/>
              <path id="Trazado_1163246" data-name="Trazado 1163246" d="M109.39,40.262H105.8s.532,3.377,1.738,3.3,1.85-3.3,1.85-3.3" transform="translate(-36.784 -13.998)" fill="#422424"/>
              <path id="Trazado_1163247" data-name="Trazado 1163247" d="M107.506,42.495a8.292,8.292,0,0,0-1.134.08c.282.88.729,1.8,1.367,1.761.6-.04,1.066-.865,1.378-1.68a8.09,8.09,0,0,0-1.61-.161" transform="translate(-36.982 -14.774)" fill="#943232"/>
              <path id="Trazado_1163248" data-name="Trazado 1163248" d="M107.26,48.338c-2.172.7-5.978.161-7.587-2.117" transform="translate(-34.653 -16.069)" fill="none" stroke="#422424" stroke-miterlimit="10" stroke-width="0.464"/>
              <path id="Trazado_1163249" data-name="Trazado 1163249" d="M94.581,55.233h12.3a1.09,1.09,0,0,1,1.08.947l.464,3.485L110.851,88.4,93.222,59.861l.273-3.62a1.091,1.091,0,0,1,1.087-1.009" transform="translate(-32.41 -19.203)" fill="#ffb549"/>
              <path id="Trazado_1163250" data-name="Trazado 1163250" d="M94.989,61.918s7.72,1.394,13.135,0" transform="translate(-33.024 -21.527)" fill="none" stroke="#1b2536" stroke-miterlimit="10" stroke-width="0.464"/>
              <path id="Trazado_1163251" data-name="Trazado 1163251" d="M87.039,157.252l2.288,2.931s4.575,1.429,6.183,2.216,2.967,4.181,2.967,4.181,1.179,3.109.75,3.324-1.644-2.18-1.644-2.18l-2.109-1.859.536,4.052s.267,3.32-.071,3.453a1.233,1.233,0,0,1-1.091,0,1.165,1.165,0,0,1-1,.031c-.822.183-.947-.031-1.376-.425a28.309,28.309,0,0,1-1.894-3.717l-2-2.073s-3.932-.75-4.289-2.9l-2.18-2.752Z" transform="translate(-28.546 -54.671)" fill="#bd5331"/>
              <path id="Trazado_1163252" data-name="Trazado 1163252" d="M99.928,171.086a21.37,21.37,0,0,1,1.153,6.675" transform="translate(-34.741 -59.48)" fill="none" stroke="#422424" stroke-miterlimit="10" stroke-width="0.464"/>
              <path id="Trazado_1163253" data-name="Trazado 1163253" d="M97.38,173.757a18,18,0,0,1,1.662,4.932" transform="translate(-33.856 -60.409)" fill="none" stroke="#422424" stroke-miterlimit="10" stroke-width="0.464"/>
              <path id="Trazado_1163254" data-name="Trazado 1163254" d="M87.941,158.407,83.579,163.4l-1.472-1.857,4.932-4.288Z" transform="translate(-28.546 -54.671)" fill="#28364f"/>
              <path id="Trazado_1163255" data-name="Trazado 1163255" d="M70.5,62.378l3.669-.812L75.63,78.522l-12.33,23.3,13.8,21.945-8.435,6.362s-17.483-16.274-20.872-23.375c-3.577-7.493,8.1-28.423,13.958-38.106a13.672,13.672,0,0,1,8.75-6.274" transform="translate(-16.382 -21.404)" fill="#324b85"/>
              <line id="Línea_730" data-name="Línea 730" x2="3.932" y2="6.255" transform="translate(42.986 74.166)" fill="none" stroke="#1b2536" stroke-miterlimit="10" stroke-width="0.464"/>
              <path id="Trazado_1163256" data-name="Trazado 1163256" d="M108.265,62.392l3.323,2.587a2.229,2.229,0,0,1,.75,2.456l-1.791,5.442,3.594,3.046a2.231,2.231,0,0,1,.686,2.37l-4.69,14.916L93.922,80.741a2.229,2.229,0,0,1-.613-2.808l2.178-4.128-6.943-5.092a2.23,2.23,0,0,1-.331-3.3L90.68,62.7" transform="translate(-30.467 -21.691)" fill="none" stroke="#1b2536" stroke-miterlimit="10" stroke-width="0.464"/>
              <path id="Trazado_1163257" data-name="Trazado 1163257" d="M116.592,62.867l.427,25.019,1.958,3.168Z" transform="translate(-40.535 -21.857)" fill="#1b2536"/>
              <path id="Trazado_1163258" data-name="Trazado 1163258" d="M91.925,39.078a2.8,2.8,0,1,0-.04-3.962,2.8,2.8,0,0,0,.04,3.962" transform="translate(-31.667 -11.916)" fill="#bd5331"/>
              <path id="Trazado_1163259" data-name="Trazado 1163259" d="M92.686,37.142c.639-1.472,2.343-1.712,3.662.374" transform="translate(-32.224 -12.514)" fill="none" stroke="#422424" stroke-miterlimit="10" stroke-width="0.5"/>
              <line id="Línea_731" data-name="Línea 731" y1="1.777" x2="0.14" transform="translate(62.137 23.506)" fill="none" stroke="#422424" stroke-miterlimit="10" stroke-width="0.5"/>
            </g>
          </g>
        </g>
      </g>
    </g>
  </g>
</svg>
