<svg xmlns="http://www.w3.org/2000/svg" xmlns:xlink="http://www.w3.org/1999/xlink" width="112.317" height="125.658" viewBox="0 0 112.317 125.658">
  <defs>
    <filter id="Trazado_978624" x="0" y="0" width="112.317" height="112.317" filterUnits="userSpaceOnUse">
      <feOffset dy="3" input="SourceAlpha"/>
      <feGaussianBlur stdDeviation="3" result="blur"/>
      <feFlood flood-opacity="0.161"/>
      <feComposite operator="in" in2="blur"/>
      <feComposite in="SourceGraphic"/>
    </filter>
  </defs>
  <g id="Grupo_1217839" data-name="Grupo 1217839" transform="translate(-159.964 -661.342)">
    <g id="Grupo_1216088" data-name="Grupo 1216088" transform="translate(0 -1029.5)">
      <g id="Grupo_1210476" data-name="Grupo 1210476" transform="translate(0 -2223.158)">
        <g id="Grupo_1210475" data-name="Grupo 1210475" transform="translate(167.192 3920)">
          <g id="Grupo_1209741" data-name="Grupo 1209741" transform="translate(1.772)">
            <g id="Grupo_1178144" data-name="Grupo 1178144" transform="translate(0 0)">
              <g id="Grupo_1177896" data-name="Grupo 1177896">
                <g id="Grupo_1176881" data-name="Grupo 1176881">
                  <g id="Grupo_1175148" data-name="Grupo 1175148">
                    <g id="Grupo_1173798" data-name="Grupo 1173798">
                      <g id="Grupo_1171925" data-name="Grupo 1171925">
                        <g id="Grupo_1164524" data-name="Grupo 1164524">
                          <g id="Grupo_1144123" data-name="Grupo 1144123">
                            <g transform="matrix(1, 0, 0, 1, -9, -6)" filter="url(#Trazado_978624)">
                              <g id="Trazado_978624-2" data-name="Trazado 978624" transform="translate(9 6)" fill="#cfd7c8">
                                <path d="M 47.15840148925781 92.81680297851562 C 40.993896484375 92.81680297851562 35.01457595825195 91.60981750488281 29.38654899597168 89.22934722900391 C 23.94976234436035 86.92978668212891 19.06670761108398 83.63744354248047 14.8730411529541 79.44376373291016 C 10.67936134338379 75.25009155273438 7.387014865875244 70.36704254150391 5.087454795837402 64.93025207519531 C 2.706988096237183 59.30222702026367 1.500001430511475 53.32290649414062 1.500001430511475 47.15840148925781 C 1.500001430511475 40.993896484375 2.706988096237183 35.01457595825195 5.087454795837402 29.38654899597168 C 7.387014865875244 23.94976234436035 10.67936134338379 19.06670761108398 14.8730411529541 14.8730411529541 C 19.06670761108398 10.67936134338379 23.94976234436035 7.387014865875244 29.38654899597168 5.087454795837402 C 35.01457595825195 2.706988096237183 40.993896484375 1.500001430511475 47.15840148925781 1.500001430511475 C 53.32290649414062 1.500001430511475 59.30222702026367 2.706988096237183 64.93025207519531 5.087454795837402 C 70.36704254150391 7.387014865875244 75.25009155273438 10.67936134338379 79.44376373291016 14.8730411529541 C 83.63744354248047 19.06670761108398 86.92978668212891 23.94976234436035 89.22934722900391 29.38654899597168 C 91.60981750488281 35.01457595825195 92.81680297851562 40.993896484375 92.81680297851562 47.15840148925781 C 92.81680297851562 53.32290649414062 91.60981750488281 59.30222702026367 89.22934722900391 64.93025207519531 C 86.92978668212891 70.36704254150391 83.63744354248047 75.25009155273438 79.44376373291016 79.44376373291016 C 75.25009155273438 83.63744354248047 70.36704254150391 86.92978668212891 64.93025207519531 89.22934722900391 C 59.30222702026367 91.60981750488281 53.32290649414062 92.81680297851562 47.15840148925781 92.81680297851562 Z" stroke="none"/>
                                <path d="M 47.15840148925781 3 C 41.19572830200195 3 35.41301727294922 4.167129516601562 29.97087097167969 6.468955993652344 C 24.712890625 8.692901611328125 19.99008941650391 11.87730407714844 15.93370056152344 15.93370056152344 C 11.87730407714844 19.99008941650391 8.692901611328125 24.712890625 6.468955993652344 29.97087097167969 C 4.167129516601562 35.41301727294922 3 41.19572830200195 3 47.15840148925781 C 3 53.12107467651367 4.167129516601562 58.90378570556641 6.468955993652344 64.34593200683594 C 8.692901611328125 69.60391235351562 11.87730407714844 74.32671356201172 15.93370056152344 78.38310241699219 C 19.99008941650391 82.43949890136719 24.712890625 85.6239013671875 29.97087097167969 87.84784698486328 C 35.41301727294922 90.14967346191406 41.19572830200195 91.31680297851562 47.15840148925781 91.31680297851562 C 53.12107467651367 91.31680297851562 58.90378570556641 90.14967346191406 64.34593200683594 87.84784698486328 C 69.60391235351562 85.6239013671875 74.32671356201172 82.43949890136719 78.38310241699219 78.38310241699219 C 82.43949890136719 74.32671356201172 85.6239013671875 69.60391235351562 87.84784698486328 64.34593200683594 C 90.14967346191406 58.90378570556641 91.31680297851562 53.12107467651367 91.31680297851562 47.15840148925781 C 91.31680297851562 41.19572830200195 90.14967346191406 35.41301727294922 87.84784698486328 29.97087097167969 C 85.6239013671875 24.712890625 82.43949890136719 19.99008941650391 78.38310241699219 15.93370056152344 C 74.32671356201172 11.87730407714844 69.60391235351562 8.692901611328125 64.34593200683594 6.468955993652344 C 58.90378570556641 4.167129516601562 53.12107467651367 3 47.15840148925781 3 M 47.15840148925781 0 C 73.20327758789062 0 94.31680297851562 21.11353302001953 94.31680297851562 47.15840148925781 C 94.31680297851562 73.20327758789062 73.20327758789062 94.31680297851562 47.15840148925781 94.31680297851562 C 21.11353302001953 94.31680297851562 0 73.20327758789062 0 47.15840148925781 C 0 21.11353302001953 21.11353302001953 0 47.15840148925781 0 Z" stroke="none" fill="#899e78"/>
                              </g>
                            </g>
                          </g>
                        </g>
                      </g>
                    </g>
                  </g>
                </g>
              </g>
            </g>
          </g>
        </g>
      </g>
    </g>
    <g id="derecho-civil_1_" data-name="derecho-civil (1)" transform="translate(161.123 677)">
      <g id="Grupo_1217838" data-name="Grupo 1217838" transform="translate(1.611 1.611)">
        <g id="Grupo_1217830" data-name="Grupo 1217830" transform="translate(2.004 10.489)">
          <path id="Trazado_1167408" data-name="Trazado 1167408" d="M116.888,61.742H19.539a2.71,2.71,0,0,1,0-5.42h97.349a2.71,2.71,0,1,1,0,5.42Z" transform="translate(-16.829 -56.322)" fill="#ffd52b"/>
        </g>
        <g id="Grupo_1217834" data-name="Grupo 1217834" transform="translate(35.671)">
          <g id="Grupo_1217832" data-name="Grupo 1217832">
            <g id="Grupo_1217831" data-name="Grupo 1217831">
              <path id="Trazado_1167409" data-name="Trazado 1167409" d="M211.683,81.517H173.531v18.595a17.541,17.541,0,0,0,2.792,9.494,14.76,14.76,0,0,1,2.792,8.21v54.577h24.142V117.7a12.418,12.418,0,0,1,3.644-8.787l3.353-3.349a18.965,18.965,0,0,0,5.565-13.419V85.648A4.133,4.133,0,0,0,211.683,81.517Z" transform="translate(-173.531 -65.615)" fill="#e68d35"/>
              <path id="Trazado_1167410" data-name="Trazado 1167410" d="M257.767,29.509a4.137,4.137,0,0,1-7.272-2.693V11.632a4.136,4.136,0,0,1,8.271,0V28.34" transform="translate(-233.96 -7.5)" fill="#e68d35"/>
              <path id="Trazado_1167411" data-name="Trazado 1167411" d="M261.893,7.5a4.113,4.113,0,0,0-2.148.606,4.124,4.124,0,0,1,1.987,3.526V26.8a4.172,4.172,0,0,1-1.983,3.542,4.128,4.128,0,0,0,5.281-.835l1-1.169V11.632A4.134,4.134,0,0,0,261.893,7.5Z" transform="translate(-241.222 -7.5)" fill="#d47619"/>
              <path id="Trazado_1167412" data-name="Trazado 1167412" d="M297.245,28.375h-8.267a0,0,0,0,1,0,0V17.97a4.136,4.136,0,0,1,8.271,0v10.4A0,0,0,0,1,297.245,28.375Z" transform="translate(-264.173 -12.473)" fill="#e68d35"/>
              <path id="Trazado_1167413" data-name="Trazado 1167413" d="M300.375,13.833a4.11,4.11,0,0,0-2.148.607,4.129,4.129,0,0,1,1.987,3.529v10.4a0,0,0,0,1,0,0h4.3a0,0,0,0,0,0,0v-10.4A4.136,4.136,0,0,0,300.375,13.833Z" transform="translate(-271.437 -12.472)" fill="#d47619"/>
              <path id="Trazado_1167414" data-name="Trazado 1167414" d="M194.6,95.879a12.5,12.5,0,0,1,12.511-12.5V80.217h-4.19a6.922,6.922,0,0,1-6.926-6.918,1.345,1.345,0,0,1,1.346-1.344h14.345a4.133,4.133,0,0,1,4.136,4.131V82.58A18.964,18.964,0,0,1,210.254,96L206.9,99.348a12.419,12.419,0,0,0-3.644,8.787v54.7H179.114V108.255a14.76,14.76,0,0,0-2.792-8.21,17.541,17.541,0,0,1-2.792-9.494V69.34" transform="translate(-173.531 -56.054)" fill="none"/>
              <path id="Trazado_1167415" data-name="Trazado 1167415" d="M177.667,39.986a4.136,4.136,0,0,1-4.136-4.136V27.1a4.136,4.136,0,0,1,8.271,0V35.85A4.136,4.136,0,0,1,177.667,39.986Z" transform="translate(-173.531 -19.643)" fill="#e68d35"/>
              <path id="Trazado_1167416" data-name="Trazado 1167416" d="M184.929,22.966a4.11,4.11,0,0,0-2.148.607,4.129,4.129,0,0,1,1.987,3.529V35.85a4.129,4.129,0,0,1-1.987,3.529,4.129,4.129,0,0,0,6.284-3.529V27.1A4.135,4.135,0,0,0,184.929,22.966Z" transform="translate(-180.794 -19.643)" fill="#d47619"/>
              <path id="Trazado_1167417" data-name="Trazado 1167417" d="M216.149,34.778a4.136,4.136,0,0,1-4.136-4.136V17.97a4.136,4.136,0,1,1,8.271,0V30.642A4.136,4.136,0,0,1,216.149,34.778Z" transform="translate(-203.745 -12.473)" fill="#e68d35"/>
              <path id="Trazado_1167418" data-name="Trazado 1167418" d="M223.411,13.833a4.11,4.11,0,0,0-2.148.607,4.129,4.129,0,0,1,1.987,3.529V30.641a4.129,4.129,0,0,1-1.987,3.529,4.129,4.129,0,0,0,6.284-3.529V17.969A4.136,4.136,0,0,0,223.411,13.833Z" transform="translate(-211.008 -12.472)" fill="#d47619"/>
            </g>
          </g>
          <g id="Grupo_1217833" data-name="Grupo 1217833" transform="translate(2.686 54.614)">
            <path id="Trazado_1167419" data-name="Trazado 1167419" d="M186.032,287.16H216.1v46.694H186.032Z" transform="translate(-186.032 -281.691)" fill="#6deba9"/>
            <path id="Trazado_1167420" data-name="Trazado 1167420" d="M285.969,287.16h8.594v46.694h-8.594Z" transform="translate(-264.498 -281.691)" fill="#49de90"/>
            <path id="Trazado_1167421" data-name="Trazado 1167421" d="M186.032,261.7H216.1v10.654H186.032Z" transform="translate(-186.032 -261.705)" fill="#1caf6c"/>
            <path id="Trazado_1167422" data-name="Trazado 1167422" d="M285.969,261.7h8.594v10.654h-8.594Z" transform="translate(-264.498 -261.705)" fill="#0ea05e"/>
          </g>
          <path id="Trazado_1167423" data-name="Trazado 1167423" d="M278.079,82.861a1.345,1.345,0,0,1,1.346-1.344H293.77l-4.575,8.261h-4.19A6.922,6.922,0,0,1,278.079,82.861Z" transform="translate(-255.617 -65.615)" fill="#e68d35"/>
        </g>
        <g id="Grupo_1217835" data-name="Grupo 1217835" transform="translate(0 44.873)">
          <ellipse id="Elipse_14395" data-name="Elipse 14395" cx="4.866" cy="4.861" rx="4.866" ry="4.861" transform="translate(16.632)" fill="#ffd52b"/>
          <path id="Trazado_1167424" data-name="Trazado 1167424" d="M41.35,386.9h-24.7A9.146,9.146,0,0,1,7.5,377.75h43A9.146,9.146,0,0,1,41.35,386.9Z" transform="translate(-7.5 -343.077)" fill="#ffd52b"/>
          <path id="Trazado_1167425" data-name="Trazado 1167425" d="M134.2,377.75a9.146,9.146,0,0,1-9.146,9.146h8.594a9.146,9.146,0,0,0,9.146-9.146H134.2Z" transform="translate(-99.799 -343.077)" fill="#fcca00"/>
        </g>
        <g id="Grupo_1217837" data-name="Grupo 1217837" transform="translate(63.782 44.873)">
          <g id="Grupo_1217836" data-name="Grupo 1217836" transform="translate(16.631)">
            <ellipse id="Elipse_14396" data-name="Elipse 14396" cx="4.866" cy="4.861" rx="4.866" ry="4.861" fill="#ffd52b"/>
          </g>
          <path id="Trazado_1167426" data-name="Trazado 1167426" d="M313.521,386.9h24.7a9.146,9.146,0,0,0,9.146-9.146h-43A9.146,9.146,0,0,0,313.521,386.9Z" transform="translate(-304.375 -343.077)" fill="#ffd52b"/>
          <path id="Trazado_1167427" data-name="Trazado 1167427" d="M431.076,377.75a9.146,9.146,0,0,1-9.146,9.146h8.594a9.146,9.146,0,0,0,9.146-9.146h-8.594Z" transform="translate(-396.674 -343.077)" fill="#fcca00"/>
        </g>
      </g>
      <path id="Trazado_1167428" data-name="Trazado 1167428" d="M108.389,106.777H71.644V91.515a10.724,10.724,0,0,0,2.9.4h24.7A10.769,10.769,0,0,0,110,81.157a1.611,1.611,0,0,0-1.611-1.611h-4.446L91.285,56.1A6.467,6.467,0,0,0,88.5,45.076V19.131h4v.9a1.612,1.612,0,0,0,3.223,0v-.9h7.949c5.547,0,5.555-8.643,0-8.643H95.726V8.869a1.612,1.612,0,0,0-3.223,0v1.62h-4V8.869a1.612,1.612,0,0,0-3.223,0v1.62H71.968V7.108a5.743,5.743,0,0,0-9.241-4.559,5.745,5.745,0,0,0-9.548,0,5.739,5.739,0,0,0-8.521,1.777A5.744,5.744,0,0,0,35.671,9.07v1.419H24.721V8.869a1.612,1.612,0,0,0-3.223,0v1.62h-4V8.869a1.612,1.612,0,0,0-3.223,0v1.62H6.325c-5.547,0-5.555,8.643,0,8.643h7.949v.9a1.612,1.612,0,0,0,3.223,0v-.9h4V45.076A6.467,6.467,0,0,0,18.715,56.1L6.057,79.546H1.611A1.611,1.611,0,0,0,0,81.157,10.769,10.769,0,0,0,10.757,91.914h24.7a10.724,10.724,0,0,0,2.9-.4v15.262H1.611a1.611,1.611,0,1,0,0,3.223H108.389a1.611,1.611,0,1,0,0-3.223Zm-8.108-27.231h-3.24a1.611,1.611,0,1,0,0,3.223H106.6a7.547,7.547,0,0,1-7.361,5.923h-24.7a7.547,7.547,0,0,1-7.361-5.923H88.463V79.546H73.5L85.331,57.627a6.464,6.464,0,0,0,3.119,0Zm-58.7-21.709H68.421v7.432H41.579Zm48.567-6.491a3.255,3.255,0,1,1-3.255-3.25A3.256,3.256,0,0,1,90.146,51.345Zm-4.866-6.27A6.467,6.467,0,0,0,82.5,56.1L71.644,76.2V56.226a1.611,1.611,0,0,0-1.611-1.611H68.619a11.238,11.238,0,0,1,3.171-8.569c5.106-5.1,9.391-10.243,9.391-17.908V21.644a5.7,5.7,0,0,0-.581-2.512H85.28V45.076Zm18.395-31.364a1.1,1.1,0,0,1,0,2.2H95.726v-2.2Zm-11.172,0v2.2h-4v-2.2Zm-7.223,0v2.2L71.968,15.9v-2.19ZM66.221,4.583a2.527,2.527,0,0,1,2.524,2.524V15.9H63.7V7.027A2.526,2.526,0,0,1,66.221,4.583ZM57.953,3.223a2.525,2.525,0,0,1,2.524,2.52l0,10.224a2.96,2.96,0,0,0-2.341,2.89,8.467,8.467,0,0,0,1.126,4.226,2.545,2.545,0,0,1-3.83-2.156V5.743a2.525,2.525,0,0,1,2.524-2.52ZM49.685,4.583a2.525,2.525,0,0,1,2.52,2.444V19.861a2.523,2.523,0,0,1-5.045-.081V7.108A2.527,2.527,0,0,1,49.685,4.583ZM38.893,9.07a2.523,2.523,0,0,1,5.045-.081V17.9a2.523,2.523,0,0,1-5.045-.081Zm-3.223,4.642v2.2H24.721v-2.2Zm-29.345,2.2a1.1,1.1,0,0,1,0-2.2h7.949v2.2Zm11.172,0v-2.2h4v2.2h-4Zm18.174,3.223v7.527a1.611,1.611,0,1,0,3.223,0V22.979a5.733,5.733,0,0,0,5.765-.418,5.739,5.739,0,0,0,8.62,1.7,5.744,5.744,0,0,0,8.1,1.279,8.5,8.5,0,0,0,5.295,1.846h2.578v.035A14.132,14.132,0,0,0,56.737,41.436a1.611,1.611,0,1,0,3.223,0,10.9,10.9,0,0,1,10.9-10.884,1.611,1.611,0,0,0,1.611-1.611V25.775a1.611,1.611,0,0,0-1.611-1.611H66.67a5.318,5.318,0,0,1-5.308-5.039q7.1,0,14.207.007a2.523,2.523,0,0,1,2.39,2.512v6.493c0,6.789-3.966,11.153-8.446,15.628A14.738,14.738,0,0,0,65.4,54.614H44.477a16.792,16.792,0,0,0-3.054-9.894,15.9,15.9,0,0,1-2.529-8.612,1.611,1.611,0,0,0-3.223,0,19.114,19.114,0,0,0,3.048,10.366,13.8,13.8,0,0,1,2.535,8.14H39.968a1.611,1.611,0,0,0-1.611,1.611V76.2L27.5,56.1A6.467,6.467,0,0,0,24.72,45.076V19.131ZM23.109,48.1a3.25,3.25,0,1,1-3.255,3.25A3.256,3.256,0,0,1,23.109,48.1Zm-1.56,9.532a6.469,6.469,0,0,0,3.119,0L36.5,79.546H9.719ZM10.757,88.692A7.547,7.547,0,0,1,3.4,82.769H42.822a7.547,7.547,0,0,1-7.361,5.923Zm30.822,18.086V90a10.751,10.751,0,0,0,4.639-8.841,1.611,1.611,0,0,0-1.611-1.611H41.579V68.491H68.421V79.546H65.393a1.611,1.611,0,0,0-1.611,1.611A10.751,10.751,0,0,0,68.421,90v16.779Z" fill="#060606"/>
    </g>
  </g>
</svg>
