<svg xmlns="http://www.w3.org/2000/svg" xmlns:xlink="http://www.w3.org/1999/xlink" width="108" height="108" viewBox="0 0 108 108">
  <defs>
    <filter id="Trazado_904820" x="0" y="0" width="108" height="108" filterUnits="userSpaceOnUse">
      <feOffset dy="3" input="SourceAlpha"/>
      <feGaussianBlur stdDeviation="3" result="blur"/>
      <feFlood flood-opacity="0.161"/>
      <feComposite operator="in" in2="blur"/>
      <feComposite in="SourceGraphic"/>
    </filter>
  </defs>
  <g id="Grupo_1219853" data-name="Grupo 1219853" transform="translate(-617 -7631)">
    <g id="Grupo_1216183" data-name="Grupo 1216183" transform="translate(626 7637)">
      <g id="Grupo_1207774" data-name="Grupo 1207774" transform="translate(0 0)">
        <g id="Grupo_1206630" data-name="Grupo 1206630" transform="translate(0 0)">
          <g id="Grupo_1185091" data-name="Grupo 1185091">
            <g id="Grupo_1179560" data-name="Grupo 1179560">
              <g id="Grupo_1173787" data-name="Grupo 1173787">
                <g id="Grupo_1171910" data-name="Grupo 1171910">
                  <g id="Grupo_1167341" data-name="Grupo 1167341">
                    <g id="Grupo_1166792" data-name="Grupo 1166792">
                      <g transform="matrix(1, 0, 0, 1, -9, -6)" filter="url(#Trazado_904820)">
                        <g id="Trazado_904820-2" data-name="Trazado 904820" transform="translate(9 6)" fill="#f7f5f3">
                          <path d="M 44.99996948242188 88.50005340576172 C 39.12684631347656 88.50005340576172 33.43020629882812 87.35012817382812 28.06828117370605 85.08221435546875 C 22.88851928710938 82.89136505126953 18.23629379272461 79.754638671875 14.2408447265625 75.75918579101562 C 10.24540710449219 71.76374053955078 7.108694553375244 67.11151123046875 4.917831897735596 61.93173980712891 C 2.649931907653809 56.56980133056641 1.500007033348083 50.87314987182617 1.500007033348083 45.00002670288086 C 1.500007033348083 39.12690353393555 2.649931907653809 33.43025207519531 4.917831897735596 28.06831359863281 C 7.108694553375244 22.8885383605957 10.24540710449219 18.23631477355957 14.2408447265625 14.24086380004883 C 18.23629379272461 10.2454137802124 22.88851928710938 7.108689308166504 28.06828117370605 4.917839050292969 C 33.43020629882812 2.649926662445068 39.12684631347656 1.500001668930054 44.99996948242188 1.500001668930054 C 50.87309265136719 1.500001668930054 56.56973266601562 2.649926662445068 61.93165588378906 4.917839050292969 C 67.11143493652344 7.108689308166504 71.76364135742188 10.2454137802124 75.75909423828125 14.24086380004883 C 79.75454711914062 18.23631477355957 82.89125823974609 22.8885383605957 85.08212280273438 28.06831359863281 C 87.35002136230469 33.43025207519531 88.49994659423828 39.12690353393555 88.49994659423828 45.00002670288086 C 88.49994659423828 50.87314987182617 87.35002136230469 56.56980133056641 85.08212280273438 61.93173980712891 C 82.89125823974609 67.11151123046875 79.75454711914062 71.76374053955078 75.75909423828125 75.75918579101562 C 71.76364135742188 79.754638671875 67.11143493652344 82.89136505126953 61.93165588378906 85.08221435546875 C 56.56973266601562 87.35012817382812 50.87309265136719 88.50005340576172 44.99996948242188 88.50005340576172 Z" stroke="none"/>
                          <path d="M 44.99996948242188 3 C 39.32868194580078 3 33.82863998413086 4.110054016113281 28.65261077880859 6.299339294433594 C 23.65164184570312 8.414566040039062 19.15968322753906 11.44334411621094 15.301513671875 15.30152893066406 C 11.44332885742188 19.15969848632812 8.414566040039062 23.65167236328125 6.299324035644531 28.65264129638672 C 4.110054016113281 33.82868194580078 3 39.32873916625977 3 45.00002670288086 C 3 50.67131423950195 4.110054016113281 56.17137145996094 6.299324035644531 61.347412109375 C 8.414566040039062 66.34838104248047 11.44332885742188 70.84035491943359 15.301513671875 74.69852447509766 C 19.15968322753906 78.55670928955078 23.65164184570312 81.58547973632812 28.65261077880859 83.70071411132812 C 33.82863998413086 85.88999938964844 39.32868194580078 87.00005340576172 44.99996948242188 87.00005340576172 C 50.67125701904297 87.00005340576172 56.17129898071289 85.88999938964844 61.34732818603516 83.70071411132812 C 66.34829711914062 81.58547973632812 70.84025573730469 78.55670928955078 74.69842529296875 74.69852447509766 C 78.55661010742188 70.84035491943359 81.58537292480469 66.34838104248047 83.70061492919922 61.347412109375 C 85.88988494873047 56.17137145996094 86.99993896484375 50.67131423950195 86.99993896484375 45.00002670288086 C 86.99993896484375 39.32873916625977 85.88988494873047 33.82868194580078 83.70061492919922 28.65264129638672 C 81.58537292480469 23.65167236328125 78.55661010742188 19.15969848632812 74.69842529296875 15.30152893066406 C 70.84025573730469 11.44334411621094 66.34829711914062 8.414566040039062 61.34732818603516 6.299339294433594 C 56.17129898071289 4.110054016113281 50.67125701904297 3 44.99996948242188 3 M 44.99996948242188 0 C 69.85276794433594 0 89.99993896484375 20.14720153808594 89.99993896484375 45.00002670288086 C 89.99993896484375 69.85285949707031 69.85276794433594 90.00005340576172 44.99996948242188 90.00005340576172 C 20.14717102050781 90.00005340576172 0 69.85285949707031 0 45.00002670288086 C 0 20.14720153808594 20.14717102050781 0 44.99996948242188 0 Z" stroke="none" fill="#bca78f"/>
                        </g>
                      </g>
                    </g>
                  </g>
                </g>
              </g>
            </g>
          </g>
        </g>
      </g>
    </g>
    <g id="obediente_6_" data-name="obediente (6)" transform="translate(610.922 7640.209)">
      <g id="Grupo_1219829" data-name="Grupo 1219829" transform="translate(32.239 1.271)">
        <path id="Trazado_1168124" data-name="Trazado 1168124" d="M171.144,7.5H117.163a.848.848,0,0,0-.848.848v23.5h5.559a4.154,4.154,0,0,1,.29,8.3V45.3h0a1.694,1.694,0,0,1,1.437,1.673V57.494a1.694,1.694,0,0,1-1.437,1.673h0V64.32a4.154,4.154,0,0,1-.29,8.3h-5.559v6.956h11.7a1.7,1.7,0,0,1,1.7,1.7v3.373s0,0,0,0H131a1.7,1.7,0,0,1,1.7,1.7v5.406h39.3V8.348A.848.848,0,0,0,171.144,7.5Z" transform="translate(-116.315 -7.5)" fill="#fff3de"/>
      </g>
      <g id="Grupo_1219830" data-name="Grupo 1219830" transform="translate(32.239 1.271)">
        <path id="Trazado_1168125" data-name="Trazado 1168125" d="M121.874,31.847c.051,0,.1,0,.151,0V8.348a.848.848,0,0,1,.848-.848h-5.71a.848.848,0,0,0-.848.848v23.5Z" transform="translate(-116.315 -7.5)" fill="#ffe5c2"/>
        <path id="Trazado_1168126" data-name="Trazado 1168126" d="M121.874,391.631h-5.559v6.956h5.71v-6.96C121.975,391.629,121.925,391.631,121.874,391.631Z" transform="translate(-116.315 -326.512)" fill="#ffe5c2"/>
      </g>
      <g id="Grupo_1219848" data-name="Grupo 1219848" transform="translate(16.349 25.618)">
        <g id="Grupo_1219831" data-name="Grupo 1219831" transform="translate(23.176 17.487)">
          <path id="Trazado_1168127" data-name="Trazado 1168127" d="M159.3,254.29h7.847v5.8H159.3Z" transform="translate(-159.296 -254.29)" fill="#883f2e"/>
          <path id="Trazado_1168128" data-name="Trazado 1168128" d="M237.5,254.29h11.207v5.8H237.5Z" transform="translate(-224.245 -254.29)" fill="#883f2e"/>
        </g>
        <g id="Grupo_1219832" data-name="Grupo 1219832" transform="translate(23.176 20.489)">
          <path id="Trazado_1168129" data-name="Trazado 1168129" d="M159.3,272h7.847v2.795H159.3Z" transform="translate(-159.296 -272)" fill="#6d3326"/>
          <path id="Trazado_1168130" data-name="Trazado 1168130" d="M237.5,272h11.207v2.795H237.5Z" transform="translate(-224.245 -272)" fill="#6d3326"/>
        </g>
        <g id="Grupo_1219833" data-name="Grupo 1219833" transform="translate(47.64 16.135)">
          <path id="Trazado_1168131" data-name="Trazado 1168131" d="M335.113,250.561a4.251,4.251,0,0,1-4.251,4.251H304.582a.966.966,0,0,1-.966-.966v-6.57a.966.966,0,0,1,.966-.966h26.279A4.251,4.251,0,0,1,335.113,250.561Z" transform="translate(-303.616 -246.31)" fill="#ca6e59"/>
        </g>
        <g id="Grupo_1219834" data-name="Grupo 1219834" transform="translate(47.64 16.135)">
          <path id="Trazado_1168132" data-name="Trazado 1168132" d="M309.394,251.173a.966.966,0,0,1-.966-.966v-3.9h-3.845a.966.966,0,0,0-.966.966v6.57a.966.966,0,0,0,.966.966h26.279a4.251,4.251,0,0,0,4.207-3.639Z" transform="translate(-303.616 -246.31)" fill="#bb5d4c"/>
        </g>
        <g id="Grupo_1219835" data-name="Grupo 1219835" transform="translate(31.022 16.135)">
          <path id="Trazado_1168133" data-name="Trazado 1168133" d="M211,247.159v6.807a.848.848,0,0,1-.848.848h-3.715a.848.848,0,0,1-.848-.848v-6.807a.848.848,0,0,1,.848-.848h3.715A.847.847,0,0,1,211,247.159Z" transform="translate(-205.585 -246.311)" fill="#ca6e59"/>
        </g>
        <g id="Grupo_1219836" data-name="Grupo 1219836" transform="translate(31.022 16.135)">
          <path id="Trazado_1168134" data-name="Trazado 1168134" d="M208.043,253.966v-6.807a.848.848,0,0,1,.848-.848h-2.458a.848.848,0,0,0-.848.848v6.807a.848.848,0,0,0,.848.848h2.458A.848.848,0,0,1,208.043,253.966Z" transform="translate(-205.585 -246.311)" fill="#bb5d4c"/>
        </g>
        <g id="Grupo_1219837" data-name="Grupo 1219837" transform="translate(10.531 8.298)">
          <path id="Trazado_1168135" data-name="Trazado 1168135" d="M95.652,312.319H84.961a1.7,1.7,0,0,1-.258-.022v5.153c.1-.007.192-.011.29-.011H95.621c.1,0,.194,0,.29.011V312.3A1.68,1.68,0,0,1,95.652,312.319Z" transform="translate(-84.703 -293.274)" fill="#883f2e"/>
          <path id="Trazado_1168136" data-name="Trazado 1168136" d="M84.961,312.319a1.7,1.7,0,0,1-.258-.022v5.153c.1-.007.192-.011.29-.011h3.979v-5.121H84.961Z" transform="translate(-84.703 -293.274)" fill="#6d3326"/>
          <path id="Trazado_1168137" data-name="Trazado 1168137" d="M84.961,205.211H95.652a1.7,1.7,0,0,1,.258.022v-5.153c-.1.007-.192.011-.29.011H84.993c-.1,0-.194,0-.29-.011v5.153A1.7,1.7,0,0,1,84.961,205.211Z" transform="translate(-84.703 -200.079)" fill="#883f2e"/>
          <path id="Trazado_1168138" data-name="Trazado 1168138" d="M84.961,205.21h4.011v-5.121H84.993c-.1,0-.194,0-.29-.011v5.153A1.724,1.724,0,0,1,84.961,205.21Z" transform="translate(-84.703 -200.078)" fill="#6d3326"/>
        </g>
        <g id="Grupo_1219838" data-name="Grupo 1219838" transform="translate(9.094 13.43)">
          <path id="Trazado_1168139" data-name="Trazado 1168139" d="M90.307,232.047v10.522a1.7,1.7,0,0,1-1.7,1.7H77.92a1.7,1.7,0,0,1-1.7-1.7V232.047a1.7,1.7,0,0,1,1.7-1.7H88.612A1.7,1.7,0,0,1,90.307,232.047Z" transform="translate(-76.225 -230.352)" fill="#ca6e59"/>
        </g>
        <g id="Grupo_1219839" data-name="Grupo 1219839" transform="translate(9.094 13.43)">
          <path id="Trazado_1168140" data-name="Trazado 1168140" d="M81.95,242.569V232.047a1.7,1.7,0,0,1,1.7-1.7H77.92a1.7,1.7,0,0,0-1.7,1.7v10.522a1.7,1.7,0,0,0,1.7,1.7h5.725A1.7,1.7,0,0,1,81.95,242.569Z" transform="translate(-76.225 -230.352)" fill="#bb5d4c"/>
        </g>
        <g id="Grupo_1219842" data-name="Grupo 1219842" transform="translate(0 47.728)">
          <path id="Trazado_1168141" data-name="Trazado 1168141" d="M66.483,437.927a1.735,1.735,0,0,0,.009-.174V434.38a1.7,1.7,0,0,0-1.7-1.7H41.89a1.7,1.7,0,0,0-1.7,1.7v3.373a1.734,1.734,0,0,0,.009.174Z" transform="translate(-37.209 -432.685)" fill="#ca6e59"/>
          <path id="Trazado_1168142" data-name="Trazado 1168142" d="M45.934,437.927a1.736,1.736,0,0,1-.009-.174V434.38a1.7,1.7,0,0,1,1.7-1.7H41.89a1.7,1.7,0,0,0-1.7,1.7v3.373a1.734,1.734,0,0,0,.009.174Z" transform="translate(-37.209 -432.685)" fill="#bb5d4c"/>
          <g id="Grupo_1219840" data-name="Grupo 1219840" transform="translate(0 5.072)">
            <path id="Trazado_1168143" data-name="Trazado 1168143" d="M54.847,469.709H23.426a.848.848,0,0,1-.848-.848V464.3a1.7,1.7,0,0,1,1.7-1.7H53.152a1.7,1.7,0,0,1,1.7,1.7Z" transform="translate(-22.578 -462.608)" fill="#883f2e"/>
          </g>
          <g id="Grupo_1219841" data-name="Grupo 1219841" transform="translate(0 5.072)">
            <path id="Trazado_1168144" data-name="Trazado 1168144" d="M28.243,468.862V464.3a1.7,1.7,0,0,1,1.7-1.7H24.273a1.7,1.7,0,0,0-1.7,1.7v4.559a.848.848,0,0,0,.848.848h5.665A.848.848,0,0,1,28.243,468.862Z" transform="translate(-22.578 -462.608)" fill="#6d3326"/>
          </g>
        </g>
        <g id="Grupo_1219847" data-name="Grupo 1219847" transform="translate(6.666)">
          <g id="Grupo_1219843" data-name="Grupo 1219843" transform="translate(0 32.463)">
            <path id="Trazado_1168145" data-name="Trazado 1168145" d="M80.841,346.787a4.155,4.155,0,0,1-4.154,4.154H66.059a4.154,4.154,0,1,1,0-8.309H76.687A4.155,4.155,0,0,1,80.841,346.787Z" transform="translate(-61.905 -342.633)" fill="#ca6e59"/>
          </g>
          <g id="Grupo_1219844" data-name="Grupo 1219844" transform="translate(0 32.463)">
            <path id="Trazado_1168146" data-name="Trazado 1168146" d="M67.564,346.787a4.154,4.154,0,0,1,4.154-4.154H66.059a4.154,4.154,0,1,0,0,8.309h5.659A4.154,4.154,0,0,1,67.564,346.787Z" transform="translate(-61.905 -342.633)" fill="#bb5d4c"/>
          </g>
          <g id="Grupo_1219845" data-name="Grupo 1219845" transform="translate(0)">
            <path id="Trazado_1168147" data-name="Trazado 1168147" d="M80.841,155.282a4.155,4.155,0,0,1-4.154,4.154H66.059a4.154,4.154,0,1,1,0-8.309H76.687A4.155,4.155,0,0,1,80.841,155.282Z" transform="translate(-61.905 -151.128)" fill="#ca6e59"/>
          </g>
          <g id="Grupo_1219846" data-name="Grupo 1219846">
            <path id="Trazado_1168148" data-name="Trazado 1168148" d="M67.564,155.282a4.154,4.154,0,0,1,4.154-4.154H66.059a4.154,4.154,0,1,0,0,8.309h5.659A4.154,4.154,0,0,1,67.564,155.282Z" transform="translate(-61.905 -151.128)" fill="#bb5d4c"/>
          </g>
        </g>
      </g>
      <g id="Grupo_1219851" data-name="Grupo 1219851" transform="translate(48.183 9.172)">
        <g id="Grupo_1219849" data-name="Grupo 1219849">
          <circle id="Elipse_14406" data-name="Elipse 14406" cx="11.895" cy="11.895" r="11.895" fill="#4fc123"/>
        </g>
        <g id="Grupo_1219850" data-name="Grupo 1219850" transform="translate(0)">
          <path id="Trazado_1168149" data-name="Trazado 1168149" d="M216.072,66a11.9,11.9,0,0,1,9.044-11.548,11.895,11.895,0,1,0,0,23.1A11.9,11.9,0,0,1,216.072,66Z" transform="translate(-210.372 -54.107)" fill="#47a920"/>
        </g>
      </g>
      <g id="Grupo_1219852" data-name="Grupo 1219852" transform="translate(15.078 0)">
        <path id="Trazado_1168150" data-name="Trazado 1168150" d="M91.235,40.482H89.188v-22a1.272,1.272,0,0,0-1.31-1.271,1.307,1.307,0,0,0-1.232,1.324V40.482H78.124a1.271,1.271,0,1,0,0,2.543H91.235a2.98,2.98,0,0,1,0,5.959H65.261V43.024h6.93a1.271,1.271,0,0,0,0-2.543H64.955A2.24,2.24,0,0,0,62.9,41.834H53.908a2.121,2.121,0,0,0-1.973-1.353H48.219a2.121,2.121,0,0,0-1.973,1.353H40.8V40.743a2.965,2.965,0,0,0-1.437-2.537V34.968A5.426,5.426,0,0,0,37.8,24.347H33.51V2.543H86.645v10a1.272,1.272,0,0,0,1.31,1.271,1.307,1.307,0,0,0,1.232-1.324V2.119A2.119,2.119,0,0,0,87.068,0H33.086a2.119,2.119,0,0,0-2.119,2.119V24.347h-3.8a5.425,5.425,0,0,0-1.561,10.622v3.237a2.965,2.965,0,0,0-1.437,2.537V51.265A2.965,2.965,0,0,0,25.609,53.8v3.237A5.426,5.426,0,0,0,27.17,67.661h3.8v4.414H21.031a2.97,2.97,0,0,0-2.966,2.966v2.106h-.02a2.97,2.97,0,0,0-2.966,2.966v4.559A2.121,2.121,0,0,0,17.2,86.791H87.068a2.119,2.119,0,0,0,2.119-2.119V51.526h2.047a5.522,5.522,0,0,0,0-11.045Zm-37.181,3.9h8.665v3.254H54.053Zm-5.41-1.353H51.51v5.959H48.643ZM40.8,44.377h5.3v3.254H40.8Zm-16.509-14.6A2.886,2.886,0,0,1,27.17,26.89H37.8a2.883,2.883,0,1,1,0,5.766H27.17A2.886,2.886,0,0,1,24.287,29.773Zm2.851,21.916a.424.424,0,0,1-.424-.424V40.743a.424.424,0,0,1,.424-.424H37.83a.424.424,0,0,1,.424.424V51.265a.424.424,0,0,1-.424.424Zm9.678,2.543V56.81H28.152V54.232ZM28.152,37.776V35.2h8.665v2.578ZM27.17,65.118a2.883,2.883,0,1,1,0-5.766H37.8a2.883,2.883,0,1,1,0,5.766Zm20.177,19.13H17.621V80.113a.424.424,0,0,1,.424-.424h7.869a1.271,1.271,0,1,0,0-2.543H20.607V75.041a.424.424,0,0,1,.424-.424H43.937a.424.424,0,0,1,.424.424v2.106H31.847a1.271,1.271,0,1,0,0,2.543H46.924a.424.424,0,0,1,.424.424Zm39.3,0H49.89V80.113a2.97,2.97,0,0,0-2.966-2.966H46.9V75.041a2.97,2.97,0,0,0-2.966-2.966H33.51V67.661H37.8a5.426,5.426,0,0,0,1.561-10.622V53.8A2.965,2.965,0,0,0,40.8,51.265V50.174h5.45a2.121,2.121,0,0,0,1.973,1.353h3.715a2.121,2.121,0,0,0,1.973-1.353H62.9a2.24,2.24,0,0,0,2.054,1.353H86.645V84.248Z" transform="translate(-15.078 0)"/>
        <path id="Trazado_1168151" data-name="Trazado 1168151" d="M202.872,59.773a13.166,13.166,0,1,0,13.166-13.166,13.181,13.181,0,0,0-13.166,13.166Zm23.789,0A10.623,10.623,0,1,1,216.038,49.15a10.635,10.635,0,0,1,10.623,10.623Z" transform="translate(-171.038 -38.706)"/>
        <path id="Trazado_1168152" data-name="Trazado 1168152" d="M248.514,103.683a1.271,1.271,0,1,0-1.8,1.8l3.91,3.911a1.272,1.272,0,0,0,1.8,0l6.061-6.061a1.271,1.271,0,0,0-1.8-1.8l-5.162,5.163Z" transform="translate(-207.141 -84.011)"/>
        <path id="Trazado_1168153" data-name="Trazado 1168153" d="M243.681,328.34a1.271,1.271,0,0,0,1.271,1.271h23.381a1.271,1.271,0,1,0,0-2.543H244.952A1.271,1.271,0,0,0,243.681,328.34Z" transform="translate(-204.93 -271.626)"/>
        <path id="Trazado_1168154" data-name="Trazado 1168154" d="M323.825,363.546H311.771a1.271,1.271,0,1,0,0,2.543h12.054a1.271,1.271,0,0,0,0-2.543Z" transform="translate(-260.422 -301.92)"/>
        <path id="Trazado_1168155" data-name="Trazado 1168155" d="M244.952,366.089h6.919a1.271,1.271,0,1,0,0-2.543h-6.919a1.271,1.271,0,1,0,0,2.543Z" transform="translate(-204.93 -301.92)"/>
        <path id="Trazado_1168156" data-name="Trazado 1168156" d="M268.332,400.023H244.951a1.271,1.271,0,0,0,0,2.543h23.381a1.271,1.271,0,1,0,0-2.543Z" transform="translate(-204.929 -332.214)"/>
        <path id="Trazado_1168157" data-name="Trazado 1168157" d="M352.892,436.5h-6.121a1.271,1.271,0,0,0,0,2.543h6.121a1.271,1.271,0,1,0,0-2.543Z" transform="translate(-289.489 -362.507)"/>
        <path id="Trazado_1168158" data-name="Trazado 1168158" d="M258.313,436.5H244.952a1.271,1.271,0,1,0,0,2.543h13.361a1.271,1.271,0,0,0,0-2.543Z" transform="translate(-204.93 -362.507)"/>
      </g>
    </g>
  </g>
</svg>
