<svg xmlns="http://www.w3.org/2000/svg" xmlns:xlink="http://www.w3.org/1999/xlink" width="103.919" height="103.919" viewBox="0 0 103.919 103.919">
  <defs>
    <filter id="Trazado_978624" x="0" y="0" width="103.919" height="103.919" filterUnits="userSpaceOnUse">
      <feOffset dy="3" input="SourceAlpha"/>
      <feGaussianBlur stdDeviation="3" result="blur"/>
      <feFlood flood-opacity="0.161"/>
      <feComposite operator="in" in2="blur"/>
      <feComposite in="SourceGraphic"/>
    </filter>
  </defs>
  <g id="Grupo_1216539" data-name="Grupo 1216539" transform="translate(-159.964 -897.342)">
    <g id="Grupo_1215987" data-name="Grupo 1215987" transform="translate(0 -793.5)">
      <g id="Grupo_1210476" data-name="Grupo 1210476" transform="translate(168.964 1696.842)">
        <g id="Grupo_1210475" data-name="Grupo 1210475" transform="translate(0)">
          <g id="Grupo_1209741" data-name="Grupo 1209741" transform="translate(0 0)">
            <g id="Grupo_1178144" data-name="Grupo 1178144">
              <g id="Grupo_1177896" data-name="Grupo 1177896">
                <g id="Grupo_1176881" data-name="Grupo 1176881">
                  <g id="Grupo_1175148" data-name="Grupo 1175148">
                    <g id="Grupo_1173798" data-name="Grupo 1173798">
                      <g id="Grupo_1171925" data-name="Grupo 1171925">
                        <g id="Grupo_1164524" data-name="Grupo 1164524">
                          <g id="Grupo_1144123" data-name="Grupo 1144123">
                            <g transform="matrix(1, 0, 0, 1, -9, -6)" filter="url(#Trazado_978624)">
                              <g id="Trazado_978624-2" data-name="Trazado 978624" transform="translate(9 6)" fill="#cfd7c8">
                                <path d="M 42.95954895019531 84.41909790039062 C 37.36188507080078 84.41909790039062 31.93246078491211 83.32312774658203 26.82208633422852 81.16162109375 C 21.88528633117676 79.07353973388672 17.45127487182617 76.08393859863281 13.64322376251221 72.27588653564453 C 9.835161209106445 68.46782684326172 6.845573902130127 64.0338134765625 4.757486343383789 59.09702301025391 C 2.595973968505859 53.98664855957031 1.499998927116394 48.55721282958984 1.499998927116394 42.95954895019531 C 1.499998927116394 37.36188507080078 2.595973968505859 31.93246078491211 4.757486343383789 26.82208633422852 C 6.845573902130127 21.88528633117676 9.835161209106445 17.45127487182617 13.64322376251221 13.64322376251221 C 17.45127487182617 9.835161209106445 21.88528633117676 6.845573902130127 26.82208633422852 4.757486343383789 C 31.93246078491211 2.595973968505859 37.36188507080078 1.499998927116394 42.95954895019531 1.499998927116394 C 48.55721282958984 1.499998927116394 53.98664855957031 2.595973968505859 59.09702301025391 4.757486343383789 C 64.0338134765625 6.845573902130127 68.46782684326172 9.835161209106445 72.27588653564453 13.64322376251221 C 76.08393859863281 17.45127487182617 79.07353973388672 21.88528633117676 81.16162109375 26.82208633422852 C 83.32312774658203 31.93246078491211 84.41909790039062 37.36188507080078 84.41909790039062 42.95954895019531 C 84.41909790039062 48.55721282958984 83.32312774658203 53.98664855957031 81.16162109375 59.09702301025391 C 79.07353973388672 64.0338134765625 76.08393859863281 68.46782684326172 72.27588653564453 72.27588653564453 C 68.46782684326172 76.08393859863281 64.0338134765625 79.07353973388672 59.09702301025391 81.16162109375 C 53.98664855957031 83.32312774658203 48.55721282958984 84.41909790039062 42.95954895019531 84.41909790039062 Z" stroke="none"/>
                                <path d="M 42.95954895019531 3 C 37.563720703125 3 32.33089447021484 4.056106567382812 27.40640258789062 6.138992309570312 C 22.64841461181641 8.151458740234375 18.37467193603516 11.03309631347656 14.70388031005859 14.70388031005859 C 11.03309631347656 18.37467193603516 8.151458740234375 22.64841461181641 6.138992309570312 27.40640258789062 C 4.056106567382812 32.33089447021484 3 37.563720703125 3 42.95954895019531 C 3 48.35537719726562 4.056106567382812 53.58820343017578 6.138992309570312 58.5126953125 C 8.151458740234375 63.27068328857422 11.03309631347656 67.54443359375 14.70388031005859 71.21521759033203 C 18.37467193603516 74.88600158691406 22.64841461181641 77.76763916015625 27.40640258789062 79.78010559082031 C 32.33089447021484 81.86299133300781 37.563720703125 82.91909790039062 42.95954895019531 82.91909790039062 C 48.35537719726562 82.91909790039062 53.58820343017578 81.86299133300781 58.5126953125 79.78010559082031 C 63.27068328857422 77.76763916015625 67.54443359375 74.88600158691406 71.21521759033203 71.21521759033203 C 74.88600158691406 67.54443359375 77.76763916015625 63.27068328857422 79.78010559082031 58.5126953125 C 81.86299133300781 53.58820343017578 82.91909790039062 48.35537719726562 82.91909790039062 42.95954895019531 C 82.91909790039062 37.563720703125 81.86299133300781 32.33089447021484 79.78010559082031 27.40640258789062 C 77.76763916015625 22.64841461181641 74.88600158691406 18.37467193603516 71.21521759033203 14.70388031005859 C 67.54443359375 11.03309631347656 63.27068328857422 8.151458740234375 58.5126953125 6.138992309570312 C 53.58820343017578 4.056106567382812 48.35537719726562 3 42.95954895019531 3 M 42.95954895019531 0 C 66.68545532226562 0 85.91909790039062 19.233642578125 85.91909790039062 42.95954895019531 C 85.91909790039062 66.68545532226562 66.68545532226562 85.91909790039062 42.95954895019531 85.91909790039062 C 19.233642578125 85.91909790039062 0 66.68545532226562 0 42.95954895019531 C 0 19.233642578125 19.233642578125 0 42.95954895019531 0 Z" stroke="none" fill="#899e78"/>
                              </g>
                            </g>
                          </g>
                        </g>
                      </g>
                    </g>
                  </g>
                </g>
              </g>
            </g>
          </g>
        </g>
      </g>
    </g>
    <g id="Fill_out_line" data-name="Fill out line" transform="translate(155.964 906.074)">
      <path id="Trazado_1163260" data-name="Trazado 1163260" d="M372.877,33.811a3.066,3.066,0,0,0,3.066-3.066v-1.84A4.905,4.905,0,0,0,371.037,24H360v9.811Z" transform="translate(-291.266 -6.774)" fill="#f0bca1"/>
      <path id="Trazado_1163261" data-name="Trazado 1163261" d="M129.7,95.129H88V28.905A4.905,4.905,0,0,1,92.905,24h46.6a4.905,4.905,0,0,0-4.905,4.905V90.224A4.905,4.905,0,0,1,129.7,95.129Z" transform="translate(-60.963 -6.774)" fill="#ffd9b5"/>
      <path id="Trazado_1163262" data-name="Trazado 1163262" d="M307.066,424a3.066,3.066,0,0,1,3.066,3.066v1.84H304V424Z" transform="translate(-243.851 -345.455)" fill="#f5c9aa"/>
      <path id="Trazado_1163263" data-name="Trazado 1163263" d="M66.923,430.745a3.066,3.066,0,0,0,3.066,3.066H27.066A3.066,3.066,0,0,1,24,430.745v-3.679A3.066,3.066,0,0,1,27.066,424H69.989a3.066,3.066,0,0,0-3.066,3.066Z" transform="translate(-6.774 -345.455)" fill="#ffe3cd"/>
      <path id="Trazado_1163264" data-name="Trazado 1163264" d="M392,56h4.905v1.84a3.066,3.066,0,0,0,3.066,3.066H392Z" transform="translate(-318.361 -33.868)" fill="#f5c9aa"/>
      <path id="Trazado_1163265" data-name="Trazado 1163265" d="M220.905,116.264H216L217.226,104h2.453Z" transform="translate(-169.341 -74.51)" fill="#ba8b5d"/>
      <path id="Trazado_1163266" data-name="Trazado 1163266" d="M132.905,143.358A4.911,4.911,0,0,1,128,138.453v-1.226A1.226,1.226,0,0,1,129.226,136h7.358a1.226,1.226,0,0,1,1.226,1.226v1.226A4.911,4.911,0,0,1,132.905,143.358Z" transform="translate(-94.831 -101.605)" fill="#fab53f"/>
      <path id="Trazado_1163267" data-name="Trazado 1163267" d="M276.905,143.358A4.911,4.911,0,0,1,272,138.453v-1.226A1.226,1.226,0,0,1,273.226,136h7.358a1.226,1.226,0,0,1,1.226,1.226v1.226A4.911,4.911,0,0,1,276.905,143.358Z" transform="translate(-216.756 -101.605)" fill="#fab53f"/>
      <rect id="Rectángulo_420525" data-name="Rectángulo 420525" width="12.184" height="5.017" rx="2.509" transform="translate(43.236 41.802)" fill="#9f764a"/>
      <path id="Trazado_1163268" data-name="Trazado 1163268" d="M165.433,63.23a2.453,2.453,0,0,0-2.453-2.453h-1.226a6.937,6.937,0,0,0-9.811,0H149.49a6.937,6.937,0,0,0-9.811,0h-1.226a2.453,2.453,0,1,0,0,4.905h1.226a6.937,6.937,0,0,1,9.811,0h2.453a6.937,6.937,0,0,1,9.811,0h1.226A2.453,2.453,0,0,0,165.433,63.23Z" transform="translate(-101.605 -36.193)" fill="#9f764a"/>
      <path id="Trazado_1163269" data-name="Trazado 1163269" d="M372.848,146.453l-1.9,3.808-1.1,2.2-11.715,23.43L352,182.017l.86-6.025.366-2.56L364.941,150l1.1-2.194,1.9-3.808Z" transform="translate(-284.493 -108.378)" fill="#529ddf"/>
      <path id="Trazado_1163270" data-name="Trazado 1163270" d="M362.882,338.453l-1.829,1.829-3.443-1.722.366-2.56Z" transform="translate(-289.243 -270.945)" fill="#4384c3"/>
      <path id="Trazado_1163271" data-name="Trazado 1163271" d="M356.3,354.422l-4.3,4.3.86-6.025Z" transform="translate(-284.493 -285.085)" fill="#68737f"/>
      <path id="Trazado_1163272" data-name="Trazado 1163272" d="M366.622,138.581l-4.905-2.453a1.226,1.226,0,0,0-1.645.548l-1.9,3.809-1.191-.6a3.986,3.986,0,0,0-5.446,1.995L349,147.779l2.255.966,2.526-5.895a1.533,1.533,0,0,1,2.094-.767l1.191.6-11.715,23.43a1.227,1.227,0,0,0-.117.375l-1.226,8.585a1.226,1.226,0,0,0,2.081,1.041l6.132-6.132a1.23,1.23,0,0,0,.23-.319l14.716-29.433a1.226,1.226,0,0,0-.548-1.645Zm-16.273,29.8-3.39,3.39.678-4.745,11.626-23.252,2.712,1.356Zm12.723-25.446-2.712-1.356,1.356-2.712,2.712,1.356Z" transform="translate(-277.718 -101.603)"/>
      <path id="Trazado_1163273" data-name="Trazado 1163273" d="M82.453,22.132a3.683,3.683,0,0,1,3.679-3.679h41.7a6.1,6.1,0,0,0-1.229,3.679V36.848h2.453V22.132a3.683,3.683,0,0,1,3.679-3.679h1.226a3.683,3.683,0,0,1,3.679,3.679v1.84a1.84,1.84,0,1,1-3.679,0v-1.84a1.226,1.226,0,0,0-1.226-1.226h-2.453v2.453h1.226v.613a4.267,4.267,0,0,0,.415,1.84h-1.641v2.453H135.8a4.3,4.3,0,0,0,4.292-4.292v-1.84A6.139,6.139,0,0,0,133.961,16H86.132A6.139,6.139,0,0,0,80,22.132V74.866h2.453Z" transform="translate(-54.189)"/>
      <path id="Trazado_1163274" data-name="Trazado 1163274" d="M72.413,395.037a3.683,3.683,0,0,1-3.679,3.679H63.215a1.842,1.842,0,0,1-1.84-1.84V393.2a1.84,1.84,0,0,1,3.679,0v.613H62.6v2.453h3.679a1.226,1.226,0,0,0,1.226-1.226V393.2a4.3,4.3,0,0,0-4.292-4.292H20.292A4.3,4.3,0,0,0,16,393.2v3.679a4.3,4.3,0,0,0,4.292,4.292H68.734a6.139,6.139,0,0,0,6.132-6.132V384H72.413Zm-13.075,3.679H20.292a1.842,1.842,0,0,1-1.84-1.84V393.2a1.842,1.842,0,0,1,1.84-1.84H59.337a4.266,4.266,0,0,0-.415,1.84v3.679A4.267,4.267,0,0,0,59.337,398.716Z" transform="translate(0 -311.587)"/>
      <path id="Trazado_1163275" data-name="Trazado 1163275" d="M128,63.943a4.905,4.905,0,0,0,9.811,0V62.716a1.219,1.219,0,0,0-.176-.63h0l-3.145-5.242a5.711,5.711,0,0,1,6.944.232l-1.055,10.546h-.117a3.679,3.679,0,0,0,0,7.358h7.358a3.679,3.679,0,1,0,0-7.358H147.5l-1.055-10.546a5.711,5.711,0,0,1,6.944-.232l-3.145,5.242h0a1.219,1.219,0,0,0-.176.63v1.226a4.905,4.905,0,0,0,9.811,0V62.716a1.219,1.219,0,0,0-.176-.63h0L157.081,57.7a3.679,3.679,0,0,0-.876-7.252h-.742a8.164,8.164,0,0,0-10.3-.393V48h-2.453v2.059a8.164,8.164,0,0,0-10.3.393h-.742A3.679,3.679,0,0,0,130.8,57.7l-2.628,4.381h0a1.219,1.219,0,0,0-.176.63ZM132.9,66.4a2.456,2.456,0,0,1-2.453-2.453h4.905A2.456,2.456,0,0,1,132.9,66.4Zm1.513-4.905h-3.026l1.513-2.522Zm14.43,9.811a1.228,1.228,0,0,1-1.226,1.226h-7.358a1.226,1.226,0,1,1,0-2.453h7.358A1.228,1.228,0,0,1,148.847,71.3Zm-6-3.679.981-9.811h.233l.981,9.811Zm13.648-6.132h-3.026l1.513-2.522ZM154.979,66.4a2.456,2.456,0,0,1-2.453-2.453h4.905A2.456,2.456,0,0,1,154.979,66.4Zm-23.3-13.49H132.9a1.226,1.226,0,0,0,.867-.359,5.711,5.711,0,0,1,8.076,0,1.227,1.227,0,0,0,.867.359h2.453a1.226,1.226,0,0,0,.867-.359,5.711,5.711,0,0,1,8.076,0,1.226,1.226,0,0,0,.867.359H156.2a1.226,1.226,0,1,1,0,2.453h-.742a8.165,8.165,0,0,0-10.78,0H143.2a8.165,8.165,0,0,0-10.78,0h-.742a1.226,1.226,0,1,1,0-2.453Z" transform="translate(-94.829 -27.095)"/>
      <path id="Trazado_1163276" data-name="Trazado 1163276" d="M112,224h7.358v2.453H112Z" transform="translate(-81.284 -176.115)"/>
      <path id="Trazado_1163277" data-name="Trazado 1163277" d="M112,256h9.811v2.453H112Z" transform="translate(-81.284 -203.209)"/>
      <path id="Trazado_1163278" data-name="Trazado 1163278" d="M192,256h9.811v2.453H192Z" transform="translate(-149.02 -203.209)"/>
      <path id="Trazado_1163279" data-name="Trazado 1163279" d="M272,256h14.716v2.453H272Z" transform="translate(-216.756 -203.209)"/>
      <path id="Trazado_1163280" data-name="Trazado 1163280" d="M112,384h9.811v2.453H112Z" transform="translate(-81.284 -311.587)"/>
      <path id="Trazado_1163281" data-name="Trazado 1163281" d="M192,384h14.716v2.453H192Z" transform="translate(-149.02 -311.587)"/>
      <path id="Trazado_1163282" data-name="Trazado 1163282" d="M112,288h4.905v2.453H112Z" transform="translate(-81.284 -230.304)"/>
      <path id="Trazado_1163283" data-name="Trazado 1163283" d="M160,288h12.264v2.453H160Z" transform="translate(-121.925 -230.304)"/>
      <path id="Trazado_1163284" data-name="Trazado 1163284" d="M256,288h14.716v2.453H256Z" transform="translate(-203.209 -230.304)"/>
      <path id="Trazado_1163285" data-name="Trazado 1163285" d="M112,352h4.905v2.453H112Z" transform="translate(-81.284 -284.493)"/>
      <path id="Trazado_1163286" data-name="Trazado 1163286" d="M160,352h12.264v2.453H160Z" transform="translate(-121.925 -284.493)"/>
      <path id="Trazado_1163287" data-name="Trazado 1163287" d="M256,352h11.037v2.453H256Z" transform="translate(-203.209 -284.493)"/>
      <path id="Trazado_1163288" data-name="Trazado 1163288" d="M112,320h20.848v2.453H112Z" transform="translate(-81.284 -257.398)"/>
    </g>
  </g>
</svg>
