<svg xmlns="http://www.w3.org/2000/svg" xmlns:xlink="http://www.w3.org/1999/xlink" width="108" height="108" viewBox="0 0 108 108">
  <defs>
    <filter id="Trazado_978624" x="0" y="0" width="108" height="108" filterUnits="userSpaceOnUse">
      <feOffset dy="3" input="SourceAlpha"/>
      <feGaussianBlur stdDeviation="3" result="blur"/>
      <feFlood flood-opacity="0.161"/>
      <feComposite operator="in" in2="blur"/>
      <feComposite in="SourceGraphic"/>
    </filter>
    <filter id="Trazado_1076716" x="0" y="0" width="108" height="108" filterUnits="userSpaceOnUse">
      <feOffset dy="3" input="SourceAlpha"/>
      <feGaussianBlur stdDeviation="3" result="blur-2"/>
      <feFlood flood-opacity="0.161"/>
      <feComposite operator="in" in2="blur-2"/>
      <feComposite in="SourceGraphic"/>
    </filter>
  </defs>
  <g id="Grupo_1218276" data-name="Grupo 1218276" transform="translate(-615 -1571)">
    <g id="Grupo_1208503" data-name="Grupo 1208503" transform="translate(-1 1085)">
      <g id="Grupo_1200660" data-name="Grupo 1200660">
        <g id="Grupo_1181203" data-name="Grupo 1181203" transform="translate(625 492)">
          <g id="Grupo_1172348" data-name="Grupo 1172348" transform="translate(0)">
            <g id="Grupo_1171897" data-name="Grupo 1171897">
              <g id="Grupo_1171052" data-name="Grupo 1171052">
                <g id="Grupo_1164581" data-name="Grupo 1164581">
                  <g id="Grupo_1144123" data-name="Grupo 1144123">
                    <g transform="matrix(1, 0, 0, 1, -9, -6)" filter="url(#Trazado_978624)">
                      <g id="Trazado_978624-2" data-name="Trazado 978624" transform="translate(9 6)" fill="#f2f4f0">
                        <path d="M 45 88.5 C 39.12687683105469 88.5 33.43022537231445 87.35007476806641 28.06830024719238 85.08217620849609 C 22.88852500915527 82.89131164550781 18.23629951477051 79.75458526611328 14.2408504486084 75.75914764404297 C 10.24541282653809 71.76370239257812 7.108687400817871 67.11147308349609 4.917825222015381 61.93170166015625 C 2.649924993515015 56.56977462768555 1.5 50.87312316894531 1.5 45 C 1.5 39.12687683105469 2.649924993515015 33.43022537231445 4.917825222015381 28.06830024719238 C 7.108687400817871 22.88852500915527 10.24541282653809 18.23629951477051 14.2408504486084 14.2408504486084 C 18.23629951477051 10.24541282653809 22.88852500915527 7.108687400817871 28.06830024719238 4.917825222015381 C 33.43022537231445 2.649924993515015 39.12687683105469 1.5 45 1.5 C 50.87312316894531 1.5 56.56977462768555 2.649924993515015 61.93170166015625 4.917825222015381 C 67.11147308349609 7.108687400817871 71.76370239257812 10.24541282653809 75.75914764404297 14.2408504486084 C 79.75458526611328 18.23629951477051 82.89131164550781 22.88852500915527 85.08217620849609 28.06830024719238 C 87.35007476806641 33.43022537231445 88.5 39.12687683105469 88.5 45 C 88.5 50.87312316894531 87.35007476806641 56.56977462768555 85.08217620849609 61.93170166015625 C 82.89131164550781 67.11147308349609 79.75458526611328 71.76370239257812 75.75914764404297 75.75914764404297 C 71.76370239257812 79.75458526611328 67.11147308349609 82.89131164550781 61.93170166015625 85.08217620849609 C 56.56977462768555 87.35007476806641 50.87312316894531 88.5 45 88.5 Z" stroke="none"/>
                        <path d="M 45 3 C 39.32871246337891 3 33.82865524291992 4.110054016113281 28.65262985229492 6.299339294433594 C 23.65165710449219 8.414573669433594 19.15968322753906 11.44334411621094 15.301513671875 15.301513671875 C 11.44334411621094 19.15968322753906 8.414573669433594 23.65165710449219 6.299339294433594 28.65262985229492 C 4.110054016113281 33.82865524291992 3 39.32871246337891 3 45 C 3 50.67128753662109 4.110054016113281 56.17134475708008 6.299339294433594 61.34737396240234 C 8.414573669433594 66.34834289550781 11.44334411621094 70.84031677246094 15.301513671875 74.698486328125 C 19.15968322753906 78.55665588378906 23.65165710449219 81.58542633056641 28.65262985229492 83.70066070556641 C 33.82865524291992 85.88994598388672 39.32871246337891 87 45 87 C 50.67128753662109 87 56.17134475708008 85.88994598388672 61.34737396240234 83.70066070556641 C 66.34834289550781 81.58542633056641 70.84031677246094 78.55665588378906 74.698486328125 74.698486328125 C 78.55665588378906 70.84031677246094 81.58542633056641 66.34834289550781 83.70066070556641 61.34737396240234 C 85.88994598388672 56.17134475708008 87 50.67128753662109 87 45 C 87 39.32871246337891 85.88994598388672 33.82865524291992 83.70066070556641 28.65262985229492 C 81.58542633056641 23.65165710449219 78.55665588378906 19.15968322753906 74.698486328125 15.301513671875 C 70.84031677246094 11.44334411621094 66.34834289550781 8.414573669433594 61.34737396240234 6.299339294433594 C 56.17134475708008 4.110054016113281 50.67128753662109 3 45 3 M 45 0 C 69.85281372070312 0 90 20.14718627929688 90 45 C 90 69.85281372070312 69.85281372070312 90 45 90 C 20.14718627929688 90 0 69.85281372070312 0 45 C 0 20.14718627929688 20.14718627929688 0 45 0 Z" stroke="none" fill="#899e78"/>
                      </g>
                    </g>
                    <g transform="matrix(1, 0, 0, 1, -9, -6)" filter="url(#Trazado_1076716)">
                      <g id="Trazado_1076716-2" data-name="Trazado 1076716" transform="translate(9 6)" fill="#f2f4f0">
                        <path d="M 45 88.5 C 39.12687683105469 88.5 33.43022537231445 87.35007476806641 28.06830024719238 85.08217620849609 C 22.88852500915527 82.89131164550781 18.23629951477051 79.75458526611328 14.2408504486084 75.75914764404297 C 10.24541282653809 71.76370239257812 7.108687400817871 67.11147308349609 4.917825222015381 61.93170166015625 C 2.649924993515015 56.56977462768555 1.5 50.87312316894531 1.5 45 C 1.5 39.12687683105469 2.649924993515015 33.43022537231445 4.917825222015381 28.06830024719238 C 7.108687400817871 22.88852500915527 10.24541282653809 18.23629951477051 14.2408504486084 14.2408504486084 C 18.23629951477051 10.24541282653809 22.88852500915527 7.108687400817871 28.06830024719238 4.917825222015381 C 33.43022537231445 2.649924993515015 39.12687683105469 1.5 45 1.5 C 50.87312316894531 1.5 56.56977462768555 2.649924993515015 61.93170166015625 4.917825222015381 C 67.11147308349609 7.108687400817871 71.76370239257812 10.24541282653809 75.75914764404297 14.2408504486084 C 79.75458526611328 18.23629951477051 82.89131164550781 22.88852500915527 85.08217620849609 28.06830024719238 C 87.35007476806641 33.43022537231445 88.5 39.12687683105469 88.5 45 C 88.5 50.87312316894531 87.35007476806641 56.56977462768555 85.08217620849609 61.93170166015625 C 82.89131164550781 67.11147308349609 79.75458526611328 71.76370239257812 75.75914764404297 75.75914764404297 C 71.76370239257812 79.75458526611328 67.11147308349609 82.89131164550781 61.93170166015625 85.08217620849609 C 56.56977462768555 87.35007476806641 50.87312316894531 88.5 45 88.5 Z" stroke="none"/>
                        <path d="M 45 3 C 39.32871246337891 3 33.82865524291992 4.110054016113281 28.65262985229492 6.299339294433594 C 23.65165710449219 8.414573669433594 19.15968322753906 11.44334411621094 15.301513671875 15.301513671875 C 11.44334411621094 19.15968322753906 8.414573669433594 23.65165710449219 6.299339294433594 28.65262985229492 C 4.110054016113281 33.82865524291992 3 39.32871246337891 3 45 C 3 50.67128753662109 4.110054016113281 56.17134475708008 6.299339294433594 61.34737396240234 C 8.414573669433594 66.34834289550781 11.44334411621094 70.84031677246094 15.301513671875 74.698486328125 C 19.15968322753906 78.55665588378906 23.65165710449219 81.58542633056641 28.65262985229492 83.70066070556641 C 33.82865524291992 85.88994598388672 39.32871246337891 87 45 87 C 50.67128753662109 87 56.17134475708008 85.88994598388672 61.34737396240234 83.70066070556641 C 66.34834289550781 81.58542633056641 70.84031677246094 78.55665588378906 74.698486328125 74.698486328125 C 78.55665588378906 70.84031677246094 81.58542633056641 66.34834289550781 83.70066070556641 61.34737396240234 C 85.88994598388672 56.17134475708008 87 50.67128753662109 87 45 C 87 39.32871246337891 85.88994598388672 33.82865524291992 83.70066070556641 28.65262985229492 C 81.58542633056641 23.65165710449219 78.55665588378906 19.15968322753906 74.698486328125 15.301513671875 C 70.84031677246094 11.44334411621094 66.34834289550781 8.414573669433594 61.34737396240234 6.299339294433594 C 56.17134475708008 4.110054016113281 50.67128753662109 3 45 3 M 45 0 C 69.85281372070312 0 90 20.14718627929688 90 45 C 90 69.85281372070312 69.85281372070312 90 45 90 C 20.14718627929688 90 0 69.85281372070312 0 45 C 0 20.14718627929688 20.14718627929688 0 45 0 Z" stroke="none" fill="#899e78"/>
                      </g>
                    </g>
                  </g>
                </g>
              </g>
            </g>
          </g>
        </g>
      </g>
    </g>
    <g id="habla_1_" data-name="habla (1)" transform="translate(628.3 1579.012)">
      <g id="Grupo_1218274" data-name="Grupo 1218274" transform="translate(1.191 12.31)">
        <g id="Grupo_1218210" data-name="Grupo 1218210" transform="translate(28.269)">
          <g id="Grupo_1218209" data-name="Grupo 1218209">
            <g id="Grupo_1218208" data-name="Grupo 1218208">
              <g id="Grupo_1218207" data-name="Grupo 1218207">
                <g id="Grupo_1218206" data-name="Grupo 1218206">
                  <g id="Grupo_1218205" data-name="Grupo 1218205">
                    <g id="Grupo_1218204" data-name="Grupo 1218204" transform="translate(0 11.502)">
                      <g id="Grupo_1218203" data-name="Grupo 1218203">
                        <path id="Trazado_1167675" data-name="Trazado 1167675" d="M207.781,124.973H185.3l1.4-7.282a5.311,5.311,0,0,1,3.588-4.056l6.258-2.016,6.258,2.016a5.311,5.311,0,0,1,3.588,4.056Z" transform="translate(-185.298 -108.333)" fill="#5b5555"/>
                        <path id="Trazado_1167676" data-name="Trazado 1167676" d="M287.294,131.43h-3.687l-1.394-8.209a6.051,6.051,0,0,0-2.369-3.926l2.468.795a5.316,5.316,0,0,1,3.588,4.056Z" transform="translate(-264.812 -114.79)" fill="#444"/>
                        <path id="Trazado_1167677" data-name="Trazado 1167677" d="M231.428,113.461,225.7,128.086l-5.729-14.625,5.729-1.847Z" transform="translate(-214.458 -108.328)" fill="#efe2dd"/>
                        <path id="Trazado_1167678" data-name="Trazado 1167678" d="M246.971,90.954v4.625a2.105,2.105,0,0,1-4.21,0V90.954Z" transform="translate(-233.625 -90.954)" fill="#ba5d4f"/>
                      </g>
                    </g>
                    <path id="Trazado_1167679" data-name="Trazado 1167679" d="M226.469,18.618a5.583,5.583,0,0,0-5.583,5.583v2.426a5.584,5.584,0,0,0,11.166,0V24.2A5.583,5.583,0,0,0,226.469,18.618Z" transform="translate(-215.228 -18.617)" fill="#c86f5c"/>
                    <path id="Trazado_1167680" data-name="Trazado 1167680" d="M252.387,24.2v2.425a5.671,5.671,0,0,1-5.583,5.511,5.351,5.351,0,0,1-1.739-.291,5.682,5.682,0,0,0,3.843-5.219V24.2a5.587,5.587,0,0,0-3.843-5.309,5.589,5.589,0,0,1,7.322,5.309Z" transform="translate(-235.562 -18.614)" fill="#ba5d4f"/>
                  </g>
                </g>
              </g>
            </g>
          </g>
        </g>
        <g id="Grupo_1218211" data-name="Grupo 1218211" transform="translate(24.3 27.447)">
          <path id="Trazado_1167681" data-name="Trazado 1167681" d="M187.6,220.691h21.751V246.9H187.6Z" transform="translate(-183.266 -216.009)" fill="#a34f41"/>
          <path id="Trazado_1167682" data-name="Trazado 1167682" d="M209.352,220.694V246.9h-4.031v-18.8a2.5,2.5,0,0,0-2.5-2.5H187.6v-4.908Z" transform="translate(-183.267 -216.011)" fill="#873f30"/>
          <path id="Trazado_1167683" data-name="Trazado 1167683" d="M189.164,197H161.935a1.6,1.6,0,0,1-1.6-1.6v-2.566a1.6,1.6,0,0,1,1.6-1.6h27.228a1.6,1.6,0,0,1,1.6,1.6V195.4A1.6,1.6,0,0,1,189.164,197Z" transform="translate(-160.34 -191.243)" fill="#ba5d4f"/>
          <path id="Trazado_1167684" data-name="Trazado 1167684" d="M322.235,192.839V195.4a1.6,1.6,0,0,1-1.595,1.6h-3.969a1.6,1.6,0,0,0,1.595-1.6v-2.566a1.6,1.6,0,0,0-1.595-1.595h3.969A1.6,1.6,0,0,1,322.235,192.839Z" transform="translate(-291.816 -191.244)" fill="#a34f41"/>
        </g>
        <g id="Grupo_1218236" data-name="Grupo 1218236" transform="translate(9.878 40.489)">
          <g id="Grupo_1218219" data-name="Grupo 1218219" transform="translate(19.755)">
            <g id="Grupo_1218218" data-name="Grupo 1218218">
              <g id="Grupo_1218217" data-name="Grupo 1218217">
                <g id="Grupo_1218216" data-name="Grupo 1218216">
                  <g id="Grupo_1218215" data-name="Grupo 1218215">
                    <g id="Grupo_1218214" data-name="Grupo 1218214">
                      <g id="Grupo_1218213" data-name="Grupo 1218213" transform="translate(0 10.199)">
                        <g id="Grupo_1218212" data-name="Grupo 1218212">
                          <path id="Trazado_1167685" data-name="Trazado 1167685" d="M213.63,360.814H193.875l1.435-17.072a5.588,5.588,0,0,1,3.855-4.851l4.588-1.478,4.588,1.478a5.588,5.588,0,0,1,3.855,4.851Z" transform="translate(-193.875 -337.413)" fill="#bcea73"/>
                          <path id="Trazado_1167686" data-name="Trazado 1167686" d="M278.439,364.865h-4.1l-1.435-18.027c-.155-1.948-.412-3.657-1.97-4.609l2.213.712a5.587,5.587,0,0,1,3.854,4.85Z" transform="translate(-258.685 -341.463)" fill="#a3e440"/>
                        </g>
                      </g>
                      <path id="Trazado_1167687" data-name="Trazado 1167687" d="M230.052,273.271a4.906,4.906,0,0,0-4.906,4.906v2.131a4.906,4.906,0,0,0,9.811,0v-2.131A4.906,4.906,0,0,0,230.052,273.271Z" transform="translate(-220.174 -273.271)" fill="#d5887a"/>
                      <path id="Trazado_1167688" data-name="Trazado 1167688" d="M252.824,278.175v2.131a4.983,4.983,0,0,1-4.905,4.842,4.7,4.7,0,0,1-1.528-.256,4.992,4.992,0,0,0,3.377-4.586v-2.131a4.909,4.909,0,0,0-3.377-4.665,4.911,4.911,0,0,1,6.434,4.665Z" transform="translate(-238.04 -273.268)" fill="#c86f5c"/>
                    </g>
                  </g>
                </g>
              </g>
            </g>
          </g>
          <g id="Grupo_1218227" data-name="Grupo 1218227" transform="translate(39.51)">
            <g id="Grupo_1218226" data-name="Grupo 1218226">
              <g id="Grupo_1218225" data-name="Grupo 1218225">
                <g id="Grupo_1218224" data-name="Grupo 1218224">
                  <g id="Grupo_1218223" data-name="Grupo 1218223">
                    <g id="Grupo_1218222" data-name="Grupo 1218222">
                      <g id="Grupo_1218221" data-name="Grupo 1218221" transform="translate(0 10.199)">
                        <g id="Grupo_1218220" data-name="Grupo 1218220">
                          <path id="Trazado_1167689" data-name="Trazado 1167689" d="M337.883,360.814H318.128l1.435-17.072a5.588,5.588,0,0,1,3.855-4.851l4.588-1.478,4.588,1.478a5.588,5.588,0,0,1,3.855,4.851Z" transform="translate(-318.128 -337.413)" fill="#fcb44d"/>
                          <path id="Trazado_1167690" data-name="Trazado 1167690" d="M402.691,364.865h-4.1l-1.435-18.027c-.155-1.948-.412-3.657-1.97-4.609l2.213.712a5.587,5.587,0,0,1,3.854,4.85Z" transform="translate(-382.937 -341.463)" fill="#fb9927"/>
                        </g>
                      </g>
                      <path id="Trazado_1167691" data-name="Trazado 1167691" d="M354.3,273.271a4.906,4.906,0,0,0-4.906,4.906v2.131a4.906,4.906,0,0,0,9.811,0v-2.131A4.906,4.906,0,0,0,354.3,273.271Z" transform="translate(-344.426 -273.271)" fill="#a34f41"/>
                      <path id="Trazado_1167692" data-name="Trazado 1167692" d="M377.077,278.175v2.131a4.983,4.983,0,0,1-4.905,4.842,4.7,4.7,0,0,1-1.528-.256,4.992,4.992,0,0,0,3.377-4.586v-2.131a4.909,4.909,0,0,0-3.377-4.665,4.911,4.911,0,0,1,6.434,4.665Z" transform="translate(-362.293 -273.268)" fill="#873f30"/>
                    </g>
                  </g>
                </g>
              </g>
            </g>
          </g>
          <g id="Grupo_1218235" data-name="Grupo 1218235">
            <g id="Grupo_1218234" data-name="Grupo 1218234">
              <g id="Grupo_1218233" data-name="Grupo 1218233">
                <g id="Grupo_1218232" data-name="Grupo 1218232">
                  <g id="Grupo_1218231" data-name="Grupo 1218231">
                    <g id="Grupo_1218230" data-name="Grupo 1218230">
                      <g id="Grupo_1218229" data-name="Grupo 1218229" transform="translate(0 10.199)">
                        <g id="Grupo_1218228" data-name="Grupo 1218228">
                          <path id="Trazado_1167693" data-name="Trazado 1167693" d="M89.382,360.814H69.627l1.435-17.072a5.588,5.588,0,0,1,3.855-4.851l4.588-1.478,4.588,1.478a5.588,5.588,0,0,1,3.855,4.851Z" transform="translate(-69.627 -337.413)" fill="#27d1b3"/>
                          <path id="Trazado_1167694" data-name="Trazado 1167694" d="M154.206,364.865h-4.1l-1.435-18.027c-.155-1.948-.411-3.656-1.967-4.609l2.21.712a5.588,5.588,0,0,1,3.856,4.85Z" transform="translate(-134.45 -341.463)" fill="#20b69f"/>
                        </g>
                      </g>
                      <path id="Trazado_1167695" data-name="Trazado 1167695" d="M105.8,273.271a4.906,4.906,0,0,0-4.906,4.906v2.131a4.906,4.906,0,0,0,9.811,0v-2.131A4.906,4.906,0,0,0,105.8,273.271Z" transform="translate(-95.925 -273.271)" fill="#ffcec0"/>
                      <path id="Trazado_1167696" data-name="Trazado 1167696" d="M128.576,278.175v2.131a4.983,4.983,0,0,1-4.905,4.842,4.7,4.7,0,0,1-1.528-.256,4.992,4.992,0,0,0,3.377-4.586v-2.131a4.909,4.909,0,0,0-3.377-4.665,4.911,4.911,0,0,1,6.434,4.665Z" transform="translate(-113.792 -273.268)" fill="#fdb0a0"/>
                    </g>
                  </g>
                </g>
              </g>
            </g>
          </g>
        </g>
        <g id="Grupo_1218272" data-name="Grupo 1218272" transform="translate(0 53.552)">
          <g id="Grupo_1218253" data-name="Grupo 1218253">
            <g id="Grupo_1218244" data-name="Grupo 1218244">
              <g id="Grupo_1218243" data-name="Grupo 1218243">
                <g id="Grupo_1218242" data-name="Grupo 1218242">
                  <g id="Grupo_1218241" data-name="Grupo 1218241">
                    <g id="Grupo_1218240" data-name="Grupo 1218240">
                      <g id="Grupo_1218239" data-name="Grupo 1218239">
                        <g id="Grupo_1218238" data-name="Grupo 1218238" transform="translate(0 10.199)">
                          <g id="Grupo_1218237" data-name="Grupo 1218237">
                            <path id="Trazado_1167697" data-name="Trazado 1167697" d="M27.257,431.314H7.5l1.226-6.4a4.667,4.667,0,0,1,3.153-3.564l5.5-1.772,5.5,1.772a4.667,4.667,0,0,1,3.153,3.564Z" transform="translate(-7.502 -419.58)" fill="#fb3a82"/>
                            <path id="Trazado_1167698" data-name="Trazado 1167698" d="M97.121,436.988H93.087l-1.225-7.213c-.246-1.443-.215-2.682-1.287-3.449l2.168.7a4.671,4.671,0,0,1,3.153,3.564Z" transform="translate(-77.367 -425.253)" fill="#fb1466"/>
                          </g>
                        </g>
                        <path id="Trazado_1167699" data-name="Trazado 1167699" d="M43.678,355.437a4.906,4.906,0,0,0-4.906,4.906v2.131a4.906,4.906,0,0,0,9.811,0v-2.131A4.906,4.906,0,0,0,43.678,355.437Z" transform="translate(-33.8 -355.437)" fill="#a34f41"/>
                        <path id="Trazado_1167700" data-name="Trazado 1167700" d="M66.451,360.341v2.131a4.983,4.983,0,0,1-4.905,4.842,4.7,4.7,0,0,1-1.528-.256,4.992,4.992,0,0,0,3.377-4.586v-2.131a4.909,4.909,0,0,0-3.377-4.665,4.911,4.911,0,0,1,6.434,4.665Z" transform="translate(-51.667 -355.434)" fill="#873f30"/>
                      </g>
                    </g>
                  </g>
                </g>
              </g>
            </g>
            <g id="Grupo_1218252" data-name="Grupo 1218252" transform="translate(19.755)">
              <g id="Grupo_1218251" data-name="Grupo 1218251">
                <g id="Grupo_1218250" data-name="Grupo 1218250">
                  <g id="Grupo_1218249" data-name="Grupo 1218249">
                    <g id="Grupo_1218248" data-name="Grupo 1218248">
                      <g id="Grupo_1218247" data-name="Grupo 1218247">
                        <g id="Grupo_1218246" data-name="Grupo 1218246" transform="translate(0 10.199)">
                          <g id="Grupo_1218245" data-name="Grupo 1218245">
                            <path id="Trazado_1167701" data-name="Trazado 1167701" d="M151.5,431.314H131.75l1.226-6.4a4.667,4.667,0,0,1,3.153-3.564l5.5-1.772,5.5,1.772a4.667,4.667,0,0,1,3.153,3.564Z" transform="translate(-131.75 -419.58)" fill="#21c1f8"/>
                            <path id="Trazado_1167702" data-name="Trazado 1167702" d="M221.372,436.988h-4.035l-1.225-7.213c-.246-1.443-.215-2.682-1.287-3.449l2.168.7a4.667,4.667,0,0,1,3.152,3.564Z" transform="translate(-201.617 -425.253)" fill="#1faaee"/>
                          </g>
                        </g>
                        <path id="Trazado_1167703" data-name="Trazado 1167703" d="M167.927,355.437a4.906,4.906,0,0,0-4.906,4.906v2.131a4.906,4.906,0,0,0,9.811,0v-2.131A4.906,4.906,0,0,0,167.927,355.437Z" transform="translate(-158.049 -355.437)" fill="#ffcec0"/>
                        <path id="Trazado_1167704" data-name="Trazado 1167704" d="M190.7,360.341v2.131a4.983,4.983,0,0,1-4.905,4.842,4.7,4.7,0,0,1-1.528-.256,4.992,4.992,0,0,0,3.377-4.586v-2.131a4.909,4.909,0,0,0-3.377-4.665,4.911,4.911,0,0,1,6.434,4.665Z" transform="translate(-175.915 -355.434)" fill="#fdb0a0"/>
                      </g>
                    </g>
                  </g>
                </g>
              </g>
            </g>
          </g>
          <g id="Grupo_1218262" data-name="Grupo 1218262" transform="translate(39.51)">
            <g id="Grupo_1218261" data-name="Grupo 1218261">
              <g id="Grupo_1218260" data-name="Grupo 1218260">
                <g id="Grupo_1218259" data-name="Grupo 1218259">
                  <g id="Grupo_1218258" data-name="Grupo 1218258">
                    <g id="Grupo_1218257" data-name="Grupo 1218257">
                      <g id="Grupo_1218256" data-name="Grupo 1218256">
                        <g id="Grupo_1218255" data-name="Grupo 1218255" transform="translate(0 10.199)">
                          <g id="Grupo_1218254" data-name="Grupo 1218254">
                            <path id="Trazado_1167705" data-name="Trazado 1167705" d="M275.754,431.314H256l1.226-6.4a4.667,4.667,0,0,1,3.152-3.564l5.5-1.772,5.5,1.772a4.667,4.667,0,0,1,3.153,3.564Z" transform="translate(-255.999 -419.58)" fill="#fc95bb"/>
                            <path id="Trazado_1167706" data-name="Trazado 1167706" d="M345.623,436.988h-4.035l-1.227-7.213c-.245-1.443-.214-2.682-1.285-3.449l2.168.7a4.672,4.672,0,0,1,3.152,3.564Z" transform="translate(-325.868 -425.253)" fill="#fc78a8"/>
                          </g>
                        </g>
                        <path id="Trazado_1167707" data-name="Trazado 1167707" d="M292.176,355.437a4.906,4.906,0,0,0-4.906,4.906v2.131a4.906,4.906,0,0,0,9.811,0v-2.131A4.906,4.906,0,0,0,292.176,355.437Z" transform="translate(-282.298 -355.437)" fill="#fdb0a0"/>
                        <path id="Trazado_1167708" data-name="Trazado 1167708" d="M314.948,360.341v2.131a4.983,4.983,0,0,1-4.905,4.842,4.7,4.7,0,0,1-1.528-.256,4.992,4.992,0,0,0,3.377-4.586v-2.131a4.909,4.909,0,0,0-3.377-4.665,4.911,4.911,0,0,1,6.434,4.665Z" transform="translate(-300.164 -355.434)" fill="#f69583"/>
                      </g>
                    </g>
                  </g>
                </g>
              </g>
            </g>
          </g>
          <g id="Grupo_1218271" data-name="Grupo 1218271" transform="translate(59.265)">
            <g id="Grupo_1218270" data-name="Grupo 1218270">
              <g id="Grupo_1218269" data-name="Grupo 1218269">
                <g id="Grupo_1218268" data-name="Grupo 1218268">
                  <g id="Grupo_1218267" data-name="Grupo 1218267">
                    <g id="Grupo_1218266" data-name="Grupo 1218266">
                      <g id="Grupo_1218265" data-name="Grupo 1218265">
                        <g id="Grupo_1218264" data-name="Grupo 1218264" transform="translate(0 10.199)">
                          <g id="Grupo_1218263" data-name="Grupo 1218263">
                            <path id="Trazado_1167709" data-name="Trazado 1167709" d="M400,431.314H380.249l1.226-6.4a4.667,4.667,0,0,1,3.153-3.564l5.5-1.772,5.5,1.772a4.667,4.667,0,0,1,3.152,3.564Z" transform="translate(-380.249 -419.58)" fill="#f3eae6"/>
                            <path id="Trazado_1167710" data-name="Trazado 1167710" d="M469.874,436.988H465.84l-1.227-7.213c-.245-1.443-.214-2.682-1.285-3.449l2.168.7a4.672,4.672,0,0,1,3.152,3.564Z" transform="translate(-450.119 -425.253)" fill="#e0d3ce"/>
                          </g>
                        </g>
                        <path id="Trazado_1167711" data-name="Trazado 1167711" d="M416.426,355.437a4.906,4.906,0,0,0-4.906,4.906v2.131a4.906,4.906,0,0,0,9.811,0v-2.131A4.906,4.906,0,0,0,416.426,355.437Z" transform="translate(-406.548 -355.437)" fill="#fdb0a0"/>
                        <path id="Trazado_1167712" data-name="Trazado 1167712" d="M439.2,360.341v2.131a4.983,4.983,0,0,1-4.905,4.842,4.7,4.7,0,0,1-1.528-.256,4.992,4.992,0,0,0,3.377-4.586v-2.131a4.909,4.909,0,0,0-3.377-4.665,4.91,4.91,0,0,1,6.434,4.665Z" transform="translate(-424.414 -355.434)" fill="#f69583"/>
                      </g>
                    </g>
                  </g>
                </g>
              </g>
            </g>
          </g>
        </g>
        <g id="Grupo_1218273" data-name="Grupo 1218273" transform="translate(48.592 10.487)">
          <path id="Trazado_1167713" data-name="Trazado 1167713" d="M324.256,84.585a10.661,10.661,0,0,0-5.394,1.211h-3.726a.8.8,0,0,0-.795.795v3.726a10.7,10.7,0,1,0,9.914-5.732Z" transform="translate(-313.122 -84.576)" fill="#fcb44d"/>
          <path id="Trazado_1167714" data-name="Trazado 1167714" d="M369.671,105.971a10.39,10.39,0,0,1-1.628-.178,10.7,10.7,0,0,0,0-21.037,10.7,10.7,0,1,1,1.625,21.215Z" transform="translate(-359.311 -84.574)" fill="#fb9927"/>
        </g>
      </g>
      <g id="Grupo_1218275" data-name="Grupo 1218275" transform="translate(-0.002 11.118)">
        <path id="Trazado_1167715" data-name="Trazado 1167715" d="M81.382,87.571l-1.226-6.4A5.857,5.857,0,0,0,76.2,76.7l-.933-.3a5.906,5.906,0,0,0,1.167-3.5V70.769a6.1,6.1,0,0,0-8.249-5.705,6.751,6.751,0,0,0-2.773-1.723l-.022-.007a5.906,5.906,0,0,0,1.167-3.5V57.7a6.1,6.1,0,0,0-12.2,0v2.131a5.905,5.905,0,0,0,1.167,3.5l-.022.007a6.753,6.753,0,0,0-2.734,1.684V46.706h1.546a2.79,2.79,0,0,0,2.625-1.858,11.768,11.768,0,0,0,3.165.538q.193.006.384.006a11.876,11.876,0,0,0,10.5-17.438,1.192,1.192,0,1,0-2.106,1.119A9.5,9.5,0,0,1,60.179,43a9.507,9.507,0,0,1-8.121-13.91,1.192,1.192,0,0,0,.136-.554V25.21h3.328a1.191,1.191,0,0,0,.554-.136,9.467,9.467,0,0,1,9.39.339,1.192,1.192,0,0,0,1.258-2.026,11.851,11.851,0,0,0-11.487-.562H51.8a1.99,1.99,0,0,0-1.987,1.987v3.44c-.14.284-.266.574-.383.867a6.515,6.515,0,0,0-2.1-1.142L44,26.906v-.763a6.772,6.772,0,0,0,3.478-5.824V17.893a6.775,6.775,0,0,0-13.551,0v2.426A6.772,6.772,0,0,0,37.4,26.143v.763l-3.326,1.072a6.5,6.5,0,0,0-4.393,4.967l-1.077,5.619h-1.52A2.791,2.791,0,0,0,24.3,41.352v2.566a2.791,2.791,0,0,0,2.788,2.788h1.546V53.19a1.192,1.192,0,0,0,2.385,0V46.706H42.892a1.192,1.192,0,0,0,0-2.385H27.087a.4.4,0,0,1-.4-.4V41.352a.4.4,0,0,1,.4-.4H51.231a12.016,12.016,0,0,0,3.487,2.943v.025a.4.4,0,0,1-.4.4h-5.8a1.192,1.192,0,1,0,0,2.385h1.864V64.675a6.062,6.062,0,0,0-1.957.388,6.753,6.753,0,0,0-2.773-1.723l-.022-.007a5.906,5.906,0,0,0,1.167-3.5V57.7a6.1,6.1,0,1,0-12.2,0v2.131a5.906,5.906,0,0,0,1.167,3.5l-.022.007a6.754,6.754,0,0,0-2.773,1.723,6.059,6.059,0,0,0-1.956-.388V58.818a1.192,1.192,0,0,0-2.385,0v6.206A6.753,6.753,0,0,0,25.9,63.34l-.022-.007a5.906,5.906,0,0,0,1.167-3.5V57.7a6.1,6.1,0,1,0-12.2,0v2.131a5.906,5.906,0,0,0,1.167,3.5l-.022.007a6.748,6.748,0,0,0-2.773,1.723A6.1,6.1,0,0,0,4.97,70.768V72.9a5.906,5.906,0,0,0,1.167,3.5l-.933.3a5.857,5.857,0,0,0-3.958,4.474l-1.226,6.4a1.192,1.192,0,1,0,2.342.449l1.226-6.4a3.473,3.473,0,0,1,2.347-2.653l2.311-.745a5.953,5.953,0,0,0,5.645,0l2.311.745a3.473,3.473,0,0,1,2.347,2.653l1.226,6.4a1.192,1.192,0,0,0,2.341,0l1.227-6.4a3.473,3.473,0,0,1,2.347-2.653L28,78.223a5.953,5.953,0,0,0,5.645,0l2.311.745A3.473,3.473,0,0,1,38.3,81.621l1.226,6.4a1.192,1.192,0,0,0,2.341,0l1.227-6.4a3.473,3.473,0,0,1,2.347-2.653l2.311-.745a5.953,5.953,0,0,0,5.645,0l2.311.745a3.473,3.473,0,0,1,2.347,2.653l1.226,6.4a1.192,1.192,0,0,0,2.341.006l1.228-6.4A3.473,3.473,0,0,1,65.2,78.968l2.311-.744a5.953,5.953,0,0,0,5.645,0l2.311.745a3.473,3.473,0,0,1,2.347,2.653l1.226,6.4a1.193,1.193,0,0,0,2.343-.449ZM40.021,38.564l-3.477-8.876.995-.32a3.3,3.3,0,0,0,6.323,0l.995.32L41.38,38.564ZM36.31,17.893a4.391,4.391,0,0,1,8.781,0v2.426a4.391,4.391,0,0,1-8.781,0Zm4.391,9.13a6.568,6.568,0,0,0,.913-.066v1.479a.913.913,0,1,1-1.826,0V26.957A6.565,6.565,0,0,0,40.7,27.023Zm-8.675,6.371a4.118,4.118,0,0,1,2.259-2.936l3.176,8.107H31.035Zm11.916,5.171,3.174-8.1a4.137,4.137,0,0,1,1.6,1.358,11.931,11.931,0,0,0-.111,2.16,11.767,11.767,0,0,0,1.131,4.585H43.942Zm12.8,19.14a3.713,3.713,0,1,1,7.426,0v2.131a3.714,3.714,0,0,1-7.426,0Zm-19.755,0a3.713,3.713,0,1,1,7.426,0v2.131a3.714,3.714,0,0,1-7.426,0Zm-19.755,0a3.713,3.713,0,1,1,7.426,0v2.131a3.714,3.714,0,0,1-7.426,0ZM7.355,72.9V70.768a3.713,3.713,0,0,1,7.426,0V72.9a3.779,3.779,0,0,1-3.713,3.65A3.778,3.778,0,0,1,7.355,72.9Zm13.591,8.272A5.924,5.924,0,0,0,16.933,76.7L16,76.4a5.907,5.907,0,0,0,1.167-3.5V70.768A6.078,6.078,0,0,0,15.3,66.383a4.385,4.385,0,0,1,1.425-.773l1.4-.451a5.953,5.953,0,0,0,5.645,0l1.4.451a4.386,4.386,0,0,1,1.424.773,6.079,6.079,0,0,0-1.867,4.386V72.9a5.906,5.906,0,0,0,1.167,3.5l-.933.3A5.924,5.924,0,0,0,20.946,81.172ZM27.11,72.9V70.768a3.713,3.713,0,0,1,7.426,0V72.9a3.714,3.714,0,0,1-7.426,0ZM40.7,81.172A5.924,5.924,0,0,0,36.688,76.7l-.933-.3a5.907,5.907,0,0,0,1.167-3.5V70.768a6.079,6.079,0,0,0-1.867-4.385,4.384,4.384,0,0,1,1.425-.773l1.4-.451a5.953,5.953,0,0,0,5.645,0l1.4.451a4.382,4.382,0,0,1,1.424.773,6.079,6.079,0,0,0-1.867,4.386V72.9a5.907,5.907,0,0,0,1.167,3.5l-.933.3A5.923,5.923,0,0,0,40.7,81.172ZM46.865,72.9V70.768a3.713,3.713,0,0,1,7.426,0V72.9a3.714,3.714,0,0,1-7.426,0Zm13.591,8.272A5.925,5.925,0,0,0,56.443,76.7l-.933-.3a5.906,5.906,0,0,0,1.167-3.5V70.769a6.079,6.079,0,0,0-1.867-4.385,4.386,4.386,0,0,1,1.425-.773l1.4-.451a5.953,5.953,0,0,0,5.645,0l1.4.451a4.384,4.384,0,0,1,1.424.773,6.079,6.079,0,0,0-1.868,4.386V72.9A5.906,5.906,0,0,0,65.4,76.4l-.933.3a5.922,5.922,0,0,0-4.012,4.474ZM66.62,72.9V70.768a3.713,3.713,0,0,1,7.426,0V72.9a3.714,3.714,0,0,1-7.426,0Z" transform="translate(0.002 -11.118)"/>
        <path id="Trazado_1167716" data-name="Trazado 1167716" d="M351.588,119.876V116.89a1.192,1.192,0,0,0-.693-2.162h-3.858a1.192,1.192,0,0,0-2.383,0H340.8a1.192,1.192,0,0,0-.693,2.162v2.985h-.012a1.192,1.192,0,1,0,0,2.385H342.5a1.192,1.192,0,0,0,0-2.385h-.012v-2.762h2.165v6.246H343.33a1.192,1.192,0,1,0,0,2.385h5.032a1.192,1.192,0,0,0,0-2.385h-1.323v-6.246H349.2v2.762h-.012a1.192,1.192,0,0,0,0,2.385H351.6a1.192,1.192,0,1,0,0-2.385h-.012Z" transform="translate(-285.016 -97.271)"/>
      </g>
    </g>
  </g>
</svg>
