<svg xmlns="http://www.w3.org/2000/svg" xmlns:xlink="http://www.w3.org/1999/xlink" width="93.934" height="93.934" viewBox="0 0 93.934 93.934">
  <defs>
    <filter id="Trazado_982547" x="0" y="0" width="93.934" height="93.934" filterUnits="userSpaceOnUse">
      <feOffset dy="3" input="SourceAlpha"/>
      <feGaussianBlur stdDeviation="3" result="blur"/>
      <feFlood flood-opacity="0.161"/>
      <feComposite operator="in" in2="blur"/>
      <feComposite in="SourceGraphic"/>
    </filter>
  </defs>
  <g id="Grupo_1216284" data-name="Grupo 1216284" transform="translate(-611.066 -1042.849)">
    <g id="Grupo_1215982" data-name="Grupo 1215982" transform="translate(-0.229 -2679.151)">
      <g id="Grupo_1214640" data-name="Grupo 1214640" transform="translate(0 -1406)">
        <g id="Grupo_1214433" data-name="Grupo 1214433" transform="translate(-0.771 -2738.674)">
          <g id="Grupo_1183190" data-name="Grupo 1183190" transform="translate(1 1016.674)">
            <g id="Grupo_1179611" data-name="Grupo 1179611" transform="translate(428 4723.467)">
              <g id="Grupo_1175227" data-name="Grupo 1175227" transform="translate(-5.967 140.533)">
                <g id="Grupo_1167337" data-name="Grupo 1167337" transform="translate(198.033 1992)">
                  <g id="Grupo_1166720" data-name="Grupo 1166720">
                    <g id="Grupo_1164305" data-name="Grupo 1164305">
                      <g id="Grupo_1163948" data-name="Grupo 1163948">
                        <g id="Grupo_1158168" data-name="Grupo 1158168">
                          <g id="Grupo_1152576" data-name="Grupo 1152576">
                            <g id="Grupo_1148633" data-name="Grupo 1148633">
                              <g id="Grupo_1148525" data-name="Grupo 1148525">
                                <g transform="matrix(1, 0, 0, 1, -9, -6)" filter="url(#Trazado_982547)">
                                  <g id="Trazado_982547-2" data-name="Trazado 982547" transform="translate(9 6)" fill="#eae4dc">
                                    <path d="M 37.966796875 74.43359375 C 33.04315185546875 74.43359375 28.26757431030273 73.46962738037109 23.77274131774902 71.56847381591797 C 19.43047523498535 69.73184967041016 15.53040790557861 67.10224914550781 12.18087482452393 63.75271987915039 C 8.831341743469238 60.4031867980957 6.201741218566895 56.50312042236328 4.365118980407715 52.16086196899414 C 2.463963508605957 47.66601943969727 1.499996900558472 42.89044189453125 1.499996900558472 37.966796875 C 1.499996900558472 33.04315185546875 2.463963508605957 28.26757431030273 4.365118980407715 23.77274131774902 C 6.201741218566895 19.43047523498535 8.831341743469238 15.53040790557861 12.18087482452393 12.18087482452393 C 15.53040790557861 8.831341743469238 19.43047523498535 6.201741218566895 23.77274131774902 4.365118980407715 C 28.26757431030273 2.463963508605957 33.04315185546875 1.499996900558472 37.966796875 1.499996900558472 C 42.89044189453125 1.499996900558472 47.66601943969727 2.463963508605957 52.16086196899414 4.365118980407715 C 56.50312042236328 6.201741218566895 60.4031867980957 8.831341743469238 63.75271987915039 12.18087482452393 C 67.10224914550781 15.53040790557861 69.73184967041016 19.43047523498535 71.56847381591797 23.77274131774902 C 73.46962738037109 28.26757431030273 74.43359375 33.04315185546875 74.43359375 37.966796875 C 74.43359375 42.89044189453125 73.46962738037109 47.66601943969727 71.56847381591797 52.16086196899414 C 69.73184967041016 56.50313186645508 67.10224914550781 60.4031867980957 63.75271987915039 63.75271987915039 C 60.4031867980957 67.10224914550781 56.50313186645508 69.73184967041016 52.16086196899414 71.56847381591797 C 47.66601943969727 73.46962738037109 42.89044189453125 74.43359375 37.966796875 74.43359375 Z" stroke="none"/>
                                    <path d="M 37.966796875 3 C 33.2449836730957 3 28.66600799560547 3.924095153808594 24.35705947875977 5.746635437011719 C 20.19359588623047 7.507637023925781 16.45379638671875 10.02928161621094 13.24153518676758 13.24153518676758 C 10.02927398681641 16.45379638671875 7.507621765136719 20.19359588623047 5.746635437011719 24.35705947875977 C 3.924095153808594 28.66600799560547 3 33.2449836730957 3 37.966796875 C 3 42.6886100769043 3.924095153808594 47.26758575439453 5.746635437011719 51.57653427124023 C 7.507621765136719 55.73999786376953 10.02927398681641 59.47979736328125 13.24153518676758 62.69205856323242 C 16.45379638671875 65.90431976318359 20.19359588623047 68.42597198486328 24.35705947875977 70.18695831298828 C 28.66600799560547 72.00949859619141 33.2449836730957 72.93359375 37.966796875 72.93359375 C 42.6886100769043 72.93359375 47.26758575439453 72.00949859619141 51.57653427124023 70.18695831298828 C 55.73999786376953 68.42597198486328 59.47979736328125 65.90431976318359 62.69205856323242 62.69205856323242 C 65.90431976318359 59.47979736328125 68.42597198486328 55.73999786376953 70.18695831298828 51.57653427124023 C 72.00949859619141 47.26758575439453 72.93359375 42.6886100769043 72.93359375 37.966796875 C 72.93359375 33.2449836730957 72.00949859619141 28.66600799560547 70.18695831298828 24.35705947875977 C 68.42597198486328 20.19359588623047 65.90431976318359 16.45379638671875 62.69205856323242 13.24153518676758 C 59.47979736328125 10.02928161621094 55.73999786376953 7.507637023925781 51.57653427124023 5.746635437011719 C 47.26758575439453 3.924095153808594 42.6886100769043 3 37.966796875 3 M 37.966796875 0 C 58.93528366088867 0 75.93359375 16.99832153320312 75.93359375 37.966796875 C 75.93359375 58.93528366088867 58.93528366088867 75.93359375 37.966796875 75.93359375 C 16.99831008911133 75.93359375 0 58.93528366088867 0 37.966796875 C 0 16.99832153320312 16.99831008911133 0 37.966796875 0 Z" stroke="none" fill="#665b4e"/>
                                  </g>
                                </g>
                              </g>
                            </g>
                          </g>
                        </g>
                      </g>
                    </g>
                  </g>
                </g>
              </g>
            </g>
          </g>
        </g>
      </g>
    </g>
    <g id="deuda" transform="translate(601.097 1060.056)">
      <g id="Grupo_1216283" data-name="Grupo 1216283" transform="translate(26.015 0.915)">
        <path id="Trazado_1162623" data-name="Trazado 1162623" d="M227.153,40.926c2.3,19.314-26.487,18.163-24.506.349.528-4.733,4.929-9.645,9.44-15.508L210.5,15.232l-3.238-5.459c-1.054-1.681,3.6-1.184,6.78.459.866-2.043,6.593-4.134,6-.569l-2.642,16.1c4.515,5.862,9.033,9.052,9.758,15.158Z" transform="translate(-182.056 -7.734)" fill="#b5b682" fill-rule="evenodd"/>
        <path id="Trazado_1162624" data-name="Trazado 1162624" d="M252.074,59.591c-7.044,4.727-9.615,3.128-16.8,2.8-3.384-.5-2.645-3.238-.985-3.238-4.11.14-2.755-3.923-.668-3.6h-.4a1.868,1.868,0,1,1,.041-3.735h1.893c-4.035,0-3.259-4.36-.688-4.354,1.526,0,1.489.011,3.015.013,2.321.007,7.472-.237,7.438-3.194,3.994.541,3.946,1.694,7.156,3.573Z" transform="translate(-207.344 -39.867)" fill="#fad1a2" fill-rule="evenodd"/>
        <path id="Trazado_1162625" data-name="Trazado 1162625" d="M404.3,52.5l5.7-.528A.989.989,0,0,1,411,53V69.079A.981.981,0,0,1,410,70.106l-5.7-.694a1.066,1.066,0,0,1-1.006-1.026V53.529A1.055,1.055,0,0,1,404.3,52.5Z" transform="translate(-358.559 -46.629)" fill="#7292cb" fill-rule="evenodd"/>
        <path id="Trazado_1162626" data-name="Trazado 1162626" d="M43.314,108.16A10.492,10.492,0,1,1,32.82,118.65,10.492,10.492,0,0,1,43.314,108.16Z" transform="translate(-32.82 -96.034)" fill="#fad1a2" fill-rule="evenodd"/>
        <path id="Trazado_1162627" data-name="Trazado 1162627" d="M127.87,346.966c.545-.4,1.136-.862,1.808-1.424,4.548-3.792,6.548-3.518,14.21-2.752,3.248.328,2.266,3.908-.993,3.83l-5.658-.134c3.224.858,5.6,1.489,8.82,2.348a23.7,23.7,0,0,0,5.558.151l8.423-3.436c3.022-1.235,5.729.9,2.923,2.567l-7.194,4.282a88.13,88.13,0,0,1-9.645,3.238c-2.505.11-12.592.517-13.451.551a5.5,5.5,0,0,0-.965.164Z" transform="translate(-116.393 -301.921)" fill="#fad1a2" fill-rule="evenodd"/>
        <path id="Trazado_1162628" data-name="Trazado 1162628" d="M81.417,372.74l4.248,10.4c.308.753-4.6,5.209-5.425,3.179L75.4,374.464C74.636,372.592,81.065,371.878,81.417,372.74Z" transform="translate(-70.204 -328.349)" fill="#7292cb" fill-rule="evenodd"/>
      </g>
      <path id="Trazado_1162629" data-name="Trazado 1162629" d="M42.269,56.115c-.866,2.3-5.849,6.158-7.085,3.121L30.344,47.377a.464.464,0,0,1-.03-.093,1.769,1.769,0,0,1,.9-2.183c1.608-1.071,5.261-1.459,6.554-.528l.931-.756c2.878-2.4,4.781-3.279,7.516-3.425a14.373,14.373,0,0,1-.537-6.041c.427-3.847,3.272-7.772,5.75-11a2.353,2.353,0,0,1-.647-2.615,2.582,2.582,0,0,1-.869-3.933,2.868,2.868,0,0,1,.6-4.548,3.1,3.1,0,0,1,2.369-4.668L50.423,3.442A1.446,1.446,0,0,1,51.2,1.153c1.554-.548,4.658.274,6.479,1.071a6.893,6.893,0,0,1,5.1-2.23,2.319,2.319,0,0,1,2.143,2.994l-.257,1.564c2.772.52,3.446,1.424,5.233,2.69a2.031,2.031,0,0,1,1.772-1.386l5.7-.53a1.922,1.922,0,0,1,2.026,1.957V23.362a1.918,1.918,0,0,1-2.05,1.957l-5.7-.694a2.01,2.01,0,0,1-1.834-1.957v-.328a21.527,21.527,0,0,1-3.046,1.55c2.642,3.06,4.785,5.931,5.281,10.1A14.362,14.362,0,0,1,70.3,43.361c3.847-.825,6.137,2.533,2.755,4.542l-7.194,4.285c-.373.222-2.763,1.106-5.162,1.91a48.119,48.119,0,0,1-4.918,1.459v0l-13.458.551A.332.332,0,0,0,42.269,56.115Zm-1.657-.054-4.251-10.4c0-.011-1.078.171-2.2.369a5.486,5.486,0,0,0-1.92.633c-.072.048-.164-.013-.171,0l4.843,11.873c.017.041,0-.058.041-.065a5.035,5.035,0,0,0,1.694-.893c.994-.735,1.973-1.491,1.962-1.515ZM48.2,40.392c1.44.062,3.4.26,5.4.462,3.716.373,3.652,4.339.569,5.435a13.427,13.427,0,0,0,2.42.726,29.573,29.573,0,0,0,4.295.1l5.764-2.351a9.685,9.685,0,0,0,3-4.35,13.771,13.771,0,0,0,.534-6.2c-.472-3.987-2.752-6.725-5.35-9.7a20.311,20.311,0,0,1-7.119.136c-1.133-.106-2.375-.222-3.817-.287a.8.8,0,0,1-.093-.007,6.361,6.361,0,0,1-.692-.14c-2.313,3.005-5.192,6.845-5.578,10.337a12.2,12.2,0,0,0,.662,5.837Zm-9.272,5.651c-.1.078-.2.157-.3.229L41.9,54.277a3.509,3.509,0,0,1,.36-.031c.561-.024,5.031-.2,8.776-.356,1.916-.078,3.655-.151,4.593-.192.962-.222,2.735-.78,4.487-1.369,2.307-.774,4.528-1.578,4.8-1.742L72.107,46.3c.448-.267.8-.6.7-.756a.794.794,0,0,0-.287-.226,3.132,3.132,0,0,0-2.509.082l-8.423,3.436a9.433,9.433,0,0,1-2.67.171,27.833,27.833,0,0,1-3.477-.284l-8.82-2.348a.933.933,0,0,1,.261-1.834l5.658.134c1.509.034,2.235-.948,2-1.455-.209-.435-.9-.493-1.5-.554-7.037-.705-8.964-.9-13.13,2.58-.353.291-.675.554-.976.791ZM40.7,18.014a.937.937,0,0,1,1.325,1.325l-9.706,9.706a.937.937,0,0,1-1.325-1.325Zm-5.637-.158a3.132,3.132,0,1,1-4.429,0A3.135,3.135,0,0,1,35.061,17.856Zm-.955,2.214a1.259,1.259,0,1,0-1.259,1.259A1.26,1.26,0,0,0,34.105,20.071Zm8.277,4.7a3.132,3.132,0,1,1-4.429,0A3.135,3.135,0,0,1,42.382,24.77Zm-.955,2.214a1.259,1.259,0,1,0-1.259,1.259,1.26,1.26,0,0,0,1.259-1.259ZM36.508,12.1A11.43,11.43,0,1,1,25.08,23.529,11.429,11.429,0,0,1,36.508,12.1Zm6.757,4.672a9.557,9.557,0,1,0,0,13.516A9.553,9.553,0,0,0,43.265,16.772ZM77.491,7.189l-5.658.524c-.058.007-.155.037-.155.1l.01,14.885a.286.286,0,0,0,.171.072l5.637.688.024-.093V7.284Zm-22.441.394a20.674,20.674,0,0,0,5.459-.446,2.963,2.963,0,0,0,2.05-1.308l.517-3.138c.1-.633,0-.8-.462-.838-1.205-.11-3.364.985-3.741,1.886a.934.934,0,0,1-1.3.5,12.39,12.39,0,0,0-5.33-1.393ZM57.883,22.8c4.231.394,6.852.64,11.925-2.662V9.424a23.29,23.29,0,0,1-1.964-1.376A7.09,7.09,0,0,0,64.359,6.4c-.959,2.854-5.925,3.063-8.207,3.056l-3.015-.017a1.247,1.247,0,0,0-1.1,1.739c.205.421.759.75,1.783.75v1.865H51.932a.957.957,0,0,0-.938,1.356.865.865,0,0,0,.774.51,2.535,2.535,0,0,1,.66.013.936.936,0,0,1-.216,1.859h-.278a.985.985,0,0,0-.636,1.259c.164.28.612.489,1.475.483a1.484,1.484,0,0,1,.181-.007.936.936,0,0,1,0,1.873.441.441,0,0,0-.411.651,2.135,2.135,0,0,0,1.5.718C55.473,22.574,56.733,22.69,57.883,22.8Zm2.022,18.385v.852a.936.936,0,1,1-1.873,0v-.852c-1.832-.295-3.608-1.55-3.608-3.44a.936.936,0,0,1,1.873,0c0,1.41,2.97,2.287,4.682,1.061a1.371,1.371,0,0,0,.66-1.061c0-1.174-1.414-1.414-2.824-1.653-2.2-.373-4.391-.75-4.391-3.5,0-1.89,1.776-3.145,3.608-3.44V28.3a.936.936,0,1,1,1.873,0v.852c1.832.295,3.608,1.55,3.608,3.44a.936.936,0,0,1-1.873,0c0-1.41-2.97-2.287-4.682-1.065a1.383,1.383,0,0,0-.66,1.065c0,1.174,1.414,1.414,2.824,1.653,2.2.373,4.391.746,4.391,3.5C63.513,39.635,61.737,40.892,59.906,41.185Z" transform="translate(0 0)"/>
    </g>
  </g>
</svg>
