<svg xmlns="http://www.w3.org/2000/svg" xmlns:xlink="http://www.w3.org/1999/xlink" width="295" height="225" viewBox="0 0 295 225">
  <defs>
    <clipPath id="clip-path">
      <rect id="Rectángulo_420723" data-name="Rectángulo 420723" width="295" height="225" transform="translate(1020 2093)" fill="#fff" stroke="#707070" stroke-width="1"/>
    </clipPath>
    <clipPath id="clip-path-2">
      <rect id="Rectángulo_420720" data-name="Rectángulo 420720" width="295" height="294" transform="translate(0 0.063)"/>
    </clipPath>
  </defs>
  <g id="Enmascarar_grupo_1153313" data-name="Enmascarar grupo 1153313" transform="translate(-1020 -2093)" clip-path="url(#clip-path)">
    <g id="Grupo_1217969" data-name="Grupo 1217969" transform="translate(-6504 141.566)">
      <g id="Grupo_1217940" data-name="Grupo 1217940" transform="translate(7524 1891.37)" clip-path="url(#clip-path-2)">
        <g id="Grupo_1217873" data-name="Grupo 1217873" transform="translate(107.156 169.657)">
          <g id="Grupo_1217845" data-name="Grupo 1217845" transform="translate(8.132)">
            <path id="Trazado_1167457" data-name="Trazado 1167457" d="M267.845,288.141s-5.328,0-8.373,3.791c-6.735,8.385-20.552,40.939-20.552,40.939s-6.437-6-11.418-7.581c-10.452-3.324-22.247-4.842-27.4-2.274-13.7,6.823,4.567,46.246,28.925,58.376s37.3-29.567,37.3-29.567Z" transform="translate(-195.403 -288.141)" fill="#f7ab69"/>
          </g>
          <g id="Grupo_1217870" data-name="Grupo 1217870" transform="translate(0 3.888)">
            <g id="Grupo_1217848" data-name="Grupo 1217848" transform="translate(8.263 22.267)">
              <g id="Grupo_1217847" data-name="Grupo 1217847">
                <g id="Grupo_1217846" data-name="Grupo 1217846">
                  <ellipse id="Elipse_14397" data-name="Elipse 14397" cx="17.127" cy="17.058" rx="17.127" ry="17.058" fill="#f9ccb2"/>
                </g>
              </g>
            </g>
            <g id="Grupo_1217851" data-name="Grupo 1217851" transform="translate(0 20.747)">
              <g id="Grupo_1217850" data-name="Grupo 1217850">
                <g id="Grupo_1217849" data-name="Grupo 1217849">
                  <path id="Trazado_1167458" data-name="Trazado 1167458" d="M189.883,348.474s-9.433-13.836-8.142-17.911,13.47,11.846,13.47,11.846Z" transform="translate(-181.619 -329.896)" fill="#f9ccb2"/>
                </g>
              </g>
            </g>
            <g id="Grupo_1217854" data-name="Grupo 1217854" transform="translate(7.367 5.726)">
              <g id="Grupo_1217853" data-name="Grupo 1217853">
                <g id="Grupo_1217852" data-name="Grupo 1217852">
                  <path id="Trazado_1167459" data-name="Trazado 1167459" d="M198.808,333.487s-7.612-27.293-3.467-28.909c5.8-2.262,11.088,23.513,11.088,23.513Z" transform="translate(-194.105 -304.437)" fill="#f9ccb2"/>
                </g>
              </g>
            </g>
            <g id="Grupo_1217857" data-name="Grupo 1217857" transform="translate(18.36)">
              <g id="Grupo_1217856" data-name="Grupo 1217856">
                <g id="Grupo_1217855" data-name="Grupo 1217855">
                  <path id="Trazado_1167460" data-name="Trazado 1167460" d="M213.408,323.151s-2.43-27.709,1.966-28.4c6.151-.963,7.057,29.447,7.057,29.447Z" transform="translate(-212.738 -294.731)" fill="#f9ccb2"/>
                </g>
              </g>
            </g>
            <g id="Grupo_1217860" data-name="Grupo 1217860" transform="translate(27.293 1.62)">
              <g id="Grupo_1217859" data-name="Grupo 1217859">
                <g id="Grupo_1217858" data-name="Grupo 1217858">
                  <path id="Trazado_1167461" data-name="Trazado 1167461" d="M227.878,326.084s1.773-28.681,6.223-28.607c6.226.1,2.91,28.607,2.91,28.607Z" transform="translate(-227.878 -297.477)" fill="#f9ccb2"/>
                </g>
              </g>
            </g>
            <g id="Grupo_1217863" data-name="Grupo 1217863" transform="translate(27.569 20.861)">
              <g id="Grupo_1217862" data-name="Grupo 1217862">
                <g id="Grupo_1217861" data-name="Grupo 1217861">
                  <path id="Trazado_1167462" data-name="Trazado 1167462" d="M228.346,348.959s16.1-20.554,20.165-18.759c5.693,2.512-8.6,25.922-8.6,25.922Z" transform="translate(-228.346 -330.089)" fill="#f9ccb2"/>
                </g>
              </g>
            </g>
            <g id="Grupo_1217866" data-name="Grupo 1217866" transform="translate(25.396 27.579)">
              <g id="Grupo_1217865" data-name="Grupo 1217865">
                <g id="Grupo_1217864" data-name="Grupo 1217864">
                  <path id="Trazado_1167463" data-name="Trazado 1167463" d="M225.412,355.565c2.2-11.708,11.018-13.328,11.107-13.342l-.126-.748c-.094.015-9.423,1.7-11.729,13.951Z" transform="translate(-224.664 -341.475)" fill="#f3ab92"/>
                </g>
              </g>
            </g>
            <g id="Grupo_1217869" data-name="Grupo 1217869" transform="translate(13.909 25.64)">
              <g id="Grupo_1217868" data-name="Grupo 1217868">
                <g id="Grupo_1217867" data-name="Grupo 1217867">
                  <path id="Trazado_1167464" data-name="Trazado 1167464" d="M205.755,346.282a21.613,21.613,0,0,1,16.966-7.3l.087-.753a22.389,22.389,0,0,0-17.614,7.54Z" transform="translate(-205.194 -338.189)" fill="#f3ab92"/>
                </g>
              </g>
            </g>
          </g>
          <g id="Grupo_1217871" data-name="Grupo 1217871" transform="translate(51.001 44.083)">
            <path id="Trazado_1167465" data-name="Trazado 1167465" d="M275.565,380.613c-1.488-11.116-7.443-17.16-7.5-17.219l.538-.536c.062.061,6.2,6.287,7.72,17.655Z" transform="translate(-268.061 -362.858)" fill="#d6905c"/>
          </g>
          <g id="Grupo_1217872" data-name="Grupo 1217872" transform="translate(51.591 44.354)">
            <path id="Trazado_1167466" data-name="Trazado 1167466" d="M279.08,369.589c-2.915-4.355-9.948-5.511-10.019-5.522l.119-.749c.3.047,7.432,1.217,10.533,5.85Z" transform="translate(-269.061 -363.318)" fill="#d6905c"/>
          </g>
        </g>
        <g id="Grupo_1217874" data-name="Grupo 1217874" transform="translate(172.729 167.411)">
          <path id="Trazado_1167467" data-name="Trazado 1167467" d="M393.722,396.092c.053.561.107,1.092.152,1.592a8.968,8.968,0,0,1-3.783,8.2,77.309,77.309,0,0,1-15.84,8.559c-.921.372-1.873.728-2.847,1.069-.578.2-1.157.394-1.751.584a65.932,65.932,0,0,1-38.751.841c-12.438-3.533-20.947-6.27-26.771-8.347-1.606-.576-3-1.1-4.217-1.569-.51-.2-.982-.386-1.431-.569-.053-.023-.107-.038-.152-.061a8.941,8.941,0,0,1-5.427-9.886l.89-4.935,5.237-28.922a9.763,9.763,0,0,0,.145-1.562l.213-65.495a8.973,8.973,0,0,1,7.832-8.87c5.032-.652,12.27-1.433,21.039-1.91l.868-.045c7.566-.409,16.236-.583,25.591-.28,3.745.122,7.6.319,11.547.607,1.728.129,3.479.273,5.237.44,4.476.417,9.043.963,13.663,1.653a20.868,20.868,0,0,1,17.423,24.684c-4.4,22.1-10.885,54.145-11.357,53.357C390.7,364.341,392.663,385.16,393.722,396.092Z" transform="translate(-292.76 -284.335)" fill="#f9ccb2"/>
        </g>
        <g id="Grupo_1217875" data-name="Grupo 1217875" transform="translate(179.883 195.98)">
          <path id="Trazado_1167468" data-name="Trazado 1167468" d="M379.222,434.3c-.921.372-1.873.728-2.847,1.069-.578.2-1.157.394-1.751.584a65.932,65.932,0,0,1-38.751.841c-12.438-3.533-20.947-6.27-26.771-8.347-1.606-.576-3-1.1-4.217-1.569l15.46-92.393s23.6,18.953,60.133,0C407.325,320.557,390.191,394.247,379.222,434.3Z" transform="translate(-304.886 -332.757)" fill="#492c47"/>
        </g>
        <g id="Grupo_1217898" data-name="Grupo 1217898" transform="translate(184.444 73.366)">
          <g id="Grupo_1217876" data-name="Grupo 1217876" transform="translate(0 4.327)">
            <path id="Trazado_1167469" data-name="Trazado 1167469" d="M365.38,212.862s39.581-4.549,31.969-48.52c-5.866-33.884-60.894-41.7-78.4-19.711s6.85,54.585,6.85,54.585Z" transform="translate(-312.617 -132.27)" fill="#b25b49"/>
          </g>
          <g id="Grupo_1217895" data-name="Grupo 1217895" transform="translate(4.958 19.034)">
            <g id="Grupo_1217892" data-name="Grupo 1217892" transform="translate(1.756)">
              <g id="Grupo_1217880" data-name="Grupo 1217880">
                <g id="Grupo_1217877" data-name="Grupo 1217877" transform="translate(17.939 41.154)">
                  <path id="Trazado_1167470" data-name="Trazado 1167470" d="M372.981,280.815A18.563,18.563,0,0,1,355.474,268.5h-.008a18.311,18.311,0,0,1-1.066-6.186V240.6l3.935-1.486,8.693-3.29,13.648-5.17,8.662-3.275,1.081-.409.038-.015.114,3.548.259,8.385.716,22.858A18.534,18.534,0,0,1,372.981,280.815Z" transform="translate(-354.401 -226.95)" fill="#f9ccb2"/>
                </g>
                <g id="Grupo_1217878" data-name="Grupo 1217878">
                  <path id="Trazado_1167471" data-name="Trazado 1167471" d="M327.268,173.329l-.891,18.779S314.6,220.6,343.443,226.822s34.373-26.574,34.373-26.574l1.811-24.28a16.958,16.958,0,0,0-16.413-18.178l-18.424-.584A16.973,16.973,0,0,0,327.268,173.329Z" transform="translate(-323.997 -157.197)" fill="#f9ccb2"/>
                </g>
                <g id="Grupo_1217879" data-name="Grupo 1217879" transform="translate(43.626 29.149)">
                  <path id="Trazado_1167472" data-name="Trazado 1167472" d="M398.038,217.045A12.054,12.054,0,1,0,408.423,206.7,12.036,12.036,0,0,0,398.038,217.045Z" transform="translate(-397.939 -206.603)" fill="#f9ccb2"/>
                </g>
              </g>
              <g id="Grupo_1217881" data-name="Grupo 1217881" transform="translate(17.939 60.017)">
                <path id="Trazado_1167473" data-name="Trazado 1167473" d="M384.635,258.921c-.716,25.519-23.855,23.494-29.161,22.691h-.008a18.312,18.312,0,0,1-1.066-6.186V268.17c.015.008.038.008.053.015C376.109,275,384.635,258.921,384.635,258.921Z" transform="translate(-354.401 -258.921)" fill="#f3ab92"/>
              </g>
              <g id="Grupo_1217882" data-name="Grupo 1217882" transform="translate(52.87 35.638)">
                <path id="Trazado_1167474" data-name="Trazado 1167474" d="M417.214,228.36c3.526,1.348,3.618-2.624,5.433-6.179a2.959,2.959,0,0,0-1.529-4.246,5.6,5.6,0,0,0-7.5,4.932A5.478,5.478,0,0,0,417.214,228.36Z" transform="translate(-413.607 -217.6)" fill="#f3ab92"/>
              </g>
              <g id="Grupo_1217883" data-name="Grupo 1217883" transform="translate(22.061 20.839)">
                <path id="Trazado_1167475" data-name="Trazado 1167475" d="M361.39,197.559c-.068,2.864,2.785.066,6.22.148s6.152,3.011,6.22.147-2.661-5.252-6.1-5.333S361.459,194.695,361.39,197.559Z" transform="translate(-361.389 -192.518)" fill="#703b48"/>
              </g>
              <g id="Grupo_1217884" data-name="Grupo 1217884" transform="translate(4.589 18.919)">
                <path id="Trazado_1167476" data-name="Trazado 1167476" d="M331.868,193c-.7,2.778,2.7.679,6.033,1.517s5.328,4.295,6.033,1.517-1.426-5.709-4.758-6.547S332.573,190.223,331.868,193Z" transform="translate(-331.775 -189.264)" fill="#703b48"/>
              </g>
              <g id="Grupo_1217885" data-name="Grupo 1217885" transform="translate(24.072 29.39)">
                <path id="Trazado_1167477" data-name="Trazado 1167477" d="M364.843,208.961a2.435,2.435,0,1,0,1.912-1.9A2.432,2.432,0,0,0,364.843,208.961Z" transform="translate(-364.797 -207.012)" fill="#703b48"/>
              </g>
              <g id="Grupo_1217886" data-name="Grupo 1217886" transform="translate(8.128 29.149)">
                <path id="Trazado_1167478" data-name="Trazado 1167478" d="M337.818,208.552a2.435,2.435,0,1,0,1.911-1.9A2.432,2.432,0,0,0,337.818,208.552Z" transform="translate(-337.772 -206.603)" fill="#703b48"/>
              </g>
              <g id="Grupo_1217889" data-name="Grupo 1217889" transform="translate(10.931 28.435)">
                <g id="Grupo_1217887" data-name="Grupo 1217887" transform="translate(5.293)">
                  <path id="Trazado_1167479" data-name="Trazado 1167479" d="M352.247,216.6l-.753-.112,1.683-11.093.753.113Z" transform="translate(-351.494 -205.392)" fill="#703b48"/>
                </g>
                <g id="Grupo_1217888" data-name="Grupo 1217888" transform="translate(0 10.465)">
                  <path id="Trazado_1167480" data-name="Trazado 1167480" d="M348.84,229.885c-1.5-.889-6.4-3.914-6.315-5.534a.833.833,0,0,1,.319-.6c1.286-1.081,7.255-.45,8.439-.313l-.088.753c-2.613-.3-7.059-.534-7.859.139-.012.009-.048.042-.049.062-.042.8,3.052,3.132,5.944,4.842Z" transform="translate(-342.523 -223.13)" fill="#703b48"/>
                </g>
              </g>
              <g id="Grupo_1217890" data-name="Grupo 1217890" transform="translate(20.169 47.665)">
                <path id="Trazado_1167481" data-name="Trazado 1167481" d="M364.67,240.528a3.305,3.305,0,0,0-6.487.291c.067,1.483,1.5,1.043,3.294.962S364.737,242.01,364.67,240.528Z" transform="translate(-358.181 -237.985)" fill="#fff"/>
              </g>
              <g id="Grupo_1217891" data-name="Grupo 1217891" transform="translate(25.852 54.822)">
                <path id="Trazado_1167482" data-name="Trazado 1167482" d="M371.736,251.215a2.058,2.058,0,0,0-3.855,1.219c.281.881,1.073.385,2.138.049S372.017,252.1,371.736,251.215Z" transform="translate(-367.814 -250.116)" fill="#f3ab92"/>
              </g>
            </g>
            <g id="Grupo_1217893" data-name="Grupo 1217893" transform="translate(31.58 36.405)">
              <path id="Trazado_1167483" data-name="Trazado 1167483" d="M385.531,222.817c0,2.163-2.459,3.916-5.492,3.916s-5.492-1.753-5.492-3.916,2.459-3.916,5.492-3.916S385.531,220.654,385.531,222.817Z" transform="translate(-374.546 -218.901)" fill="#f3ab92"/>
            </g>
            <g id="Grupo_1217894" data-name="Grupo 1217894" transform="translate(0 37.816)">
              <path id="Trazado_1167484" data-name="Trazado 1167484" d="M332.006,225.208c0,2.163-2.459,3.916-5.492,3.916s-5.492-1.753-5.492-3.916,2.459-3.916,5.492-3.916S332.006,223.045,332.006,225.208Z" transform="translate(-321.021 -221.292)" fill="#f3ab92"/>
            </g>
          </g>
          <g id="Grupo_1217896" data-name="Grupo 1217896" transform="translate(32.972 17.234)">
            <path id="Trazado_1167485" data-name="Trazado 1167485" d="M397.372,184.872s-23.542,14.215-28.87-29.757c0,0,16.746-4.549,25.119,6.065S397.372,184.872,397.372,184.872Z" transform="translate(-368.502 -154.147)" fill="#b25b49"/>
          </g>
          <g id="Grupo_1217897" data-name="Grupo 1217897" transform="translate(67.152)">
            <path id="Trazado_1167486" data-name="Trazado 1167486" d="M426.507,142.382s-.92-7.476,3.806-12.888c5.163-5.913,16.311-7.646,26.641,4.549,20.551,24.26-9.9,38.664-20.551,26.535C425.194,147.819,426.507,142.382,426.507,142.382Z" transform="translate(-426.434 -124.936)" fill="#b25b49"/>
          </g>
        </g>
        <g id="Grupo_1217902" data-name="Grupo 1217902" transform="translate(234.341 168.12)">
          <g id="Grupo_1217899" data-name="Grupo 1217899">
            <path id="Trazado_1167487" data-name="Trazado 1167487" d="M414.516,285.557s-13.7,60.65-16.746,77.329,6.85,72.78,6.85,72.78,31.208.758,42.626-18.953c0,0-12.179-47.762-11.418-50.795s9.025-49.279,10.221-54.964S447.246,284.8,414.516,285.557Z" transform="translate(-397.188 -285.536)" fill="#f7ab69"/>
          </g>
          <g id="Grupo_1217900" data-name="Grupo 1217900" transform="translate(0.268 0.455)">
            <path id="Trazado_1167488" data-name="Trazado 1167488" d="M398.271,363.415l-.629-.427c.228-.333,22.8-33.4,24.3-43.058,1.5-9.727,3.106-33.385,3.122-33.623l.76.05c-.016.238-1.622,23.929-3.13,33.688C421.172,329.874,399.2,362.051,398.271,363.415Z" transform="translate(-397.642 -286.308)" fill="#d6905c"/>
          </g>
          <g id="Grupo_1217901" data-name="Grupo 1217901" transform="translate(6.672 93.27)">
            <path id="Trazado_1167489" data-name="Trazado 1167489" d="M408.5,449.749l1.522,8.276s21.231-2.342,30.787-7.856l-1.59-6.548S421.436,448.475,408.5,449.749Z" transform="translate(-408.496 -443.621)" fill="#d6905c"/>
          </g>
        </g>
        <g id="Grupo_1217907" data-name="Grupo 1217907" transform="translate(164.515 167.761)">
          <g id="Grupo_1217903" data-name="Grupo 1217903">
            <path id="Trazado_1167490" data-name="Trazado 1167490" d="M318.42,284.928l-5.328,68.99-2.664,78.466a47.064,47.064,0,0,1-31.589-28.43s11.418-37.906,12.179-43.971,1.522-59.892,2.283-65.2S294.062,285.686,318.42,284.928Z" transform="translate(-278.839 -284.928)" fill="#f7ab69"/>
          </g>
          <g id="Grupo_1217904" data-name="Grupo 1217904" transform="translate(23.976 0.243)">
            <path id="Trazado_1167491" data-name="Trazado 1167491" d="M328.621,359.479c-.373-1.611-9.144-39.534-9.144-45.573s6.482-27.649,6.758-28.566l.729.218c-.067.224-6.725,22.408-6.725,28.348s9.033,45.009,9.124,45.4Z" transform="translate(-319.477 -285.34)" fill="#d6905c"/>
          </g>
          <g id="Grupo_1217905" data-name="Grupo 1217905" transform="translate(8.109 93.629)">
            <path id="Trazado_1167492" data-name="Trazado 1167492" d="M294.841,443.621a80.551,80.551,0,0,0,18.82,4.84l-.879,6.531s-13.174,0-20.2-5.715Z" transform="translate(-292.583 -443.621)" fill="#d6905c"/>
          </g>
          <g id="Grupo_1217906" data-name="Grupo 1217906" transform="translate(8.983 38.367)">
            <path id="Trazado_1167493" data-name="Trazado 1167493" d="M294.8,399.279l-.735-.2,4.717-17.416-.081-31.71h.762l.081,31.81-.014.049Z" transform="translate(-294.065 -349.956)" fill="#d6905c"/>
          </g>
        </g>
        <g id="Grupo_1217939" data-name="Grupo 1217939" transform="translate(256.003 170.263)">
          <g id="Grupo_1217935" data-name="Grupo 1217935" transform="translate(0 75.79)">
            <g id="Grupo_1217910" data-name="Grupo 1217910" transform="translate(13.692)">
              <g id="Grupo_1217909" data-name="Grupo 1217909">
                <g id="Grupo_1217908" data-name="Grupo 1217908">
                  <path id="Trazado_1167494" data-name="Trazado 1167494" d="M473.724,417.627s-5.551,4.984-7.366,5.106-1.8-2.505-6-1.753l.784,5.507-4.029,1.725s6.445,19.117,11.562,22.048,14.519,2.355,14.519,2.355Z" transform="translate(-457.111 -417.627)" fill="#f9ccb2"/>
                </g>
              </g>
            </g>
            <g id="Grupo_1217913" data-name="Grupo 1217913" transform="translate(0 8.242)">
              <g id="Grupo_1217912" data-name="Grupo 1217912">
                <g id="Grupo_1217911" data-name="Grupo 1217911">
                  <path id="Trazado_1167495" data-name="Trazado 1167495" d="M438.032,444.832l18.748-5.694a2.614,2.614,0,0,0,1.741-3.256l-.746-2.438a2.628,2.628,0,0,0-3.269-1.734L435.758,437.4a2.614,2.614,0,0,0-1.741,3.256l.746,2.438A2.628,2.628,0,0,0,438.032,444.832Z" transform="translate(-433.904 -431.596)" fill="#f9ccb2"/>
                </g>
              </g>
            </g>
            <g id="Grupo_1217916" data-name="Grupo 1217916" transform="translate(4.046 14.884)">
              <g id="Grupo_1217915" data-name="Grupo 1217915">
                <g id="Grupo_1217914" data-name="Grupo 1217914">
                  <path id="Trazado_1167496" data-name="Trazado 1167496" d="M444.891,456.09l18.748-5.694a2.614,2.614,0,0,0,1.741-3.256l-.746-2.438a2.629,2.629,0,0,0-3.269-1.734l-18.748,5.694a2.614,2.614,0,0,0-1.741,3.256l.746,2.438A2.63,2.63,0,0,0,444.891,456.09Z" transform="translate(-440.762 -442.854)" fill="#f9ccb2"/>
                </g>
              </g>
            </g>
            <g id="Grupo_1217919" data-name="Grupo 1217919" transform="translate(9.393 21.803)">
              <g id="Grupo_1217918" data-name="Grupo 1217918">
                <g id="Grupo_1217917" data-name="Grupo 1217917">
                  <path id="Trazado_1167497" data-name="Trazado 1167497" d="M453.791,466.765l17.044-5.177a2.614,2.614,0,0,0,1.741-3.256l-.583-1.906a2.628,2.628,0,0,0-3.269-1.734l-17.045,5.177a2.614,2.614,0,0,0-1.741,3.256l.584,1.906A2.628,2.628,0,0,0,453.791,466.765Z" transform="translate(-449.825 -454.581)" fill="#f9ccb2"/>
                </g>
              </g>
            </g>
            <g id="Grupo_1217922" data-name="Grupo 1217922" transform="translate(15.292 27.942)">
              <g id="Grupo_1217921" data-name="Grupo 1217921">
                <g id="Grupo_1217920" data-name="Grupo 1217920">
                  <path id="Trazado_1167498" data-name="Trazado 1167498" d="M464.193,475.98l14.335-4.354a3.359,3.359,0,0,0,2.237-4.184l-.025-.083a3.377,3.377,0,0,0-4.2-2.228L462.2,469.486a3.359,3.359,0,0,0-2.237,4.184l.025.083A3.377,3.377,0,0,0,464.193,475.98Z" transform="translate(-459.822 -464.987)" fill="#f9ccb2"/>
                </g>
              </g>
            </g>
            <g id="Grupo_1217925" data-name="Grupo 1217925" transform="translate(14.478 15.529)">
              <g id="Grupo_1217924" data-name="Grupo 1217924">
                <g id="Grupo_1217923" data-name="Grupo 1217923">
                  <path id="Trazado_1167499" data-name="Trazado 1167499" d="M471.041,460.983c-6.853-3.885-12.368-16.206-12.6-16.729l.7-.306c.056.126,5.645,12.615,12.279,16.375Z" transform="translate(-458.442 -443.948)" fill="#f3ab92"/>
                </g>
              </g>
            </g>
            <g id="Grupo_1217928" data-name="Grupo 1217928" transform="translate(5.377 17.54)">
              <g id="Grupo_1217927" data-name="Grupo 1217927">
                <g id="Grupo_1217926" data-name="Grupo 1217926">
                  <path id="Trazado_1167500" data-name="Trazado 1167500" d="M443.239,451.242l-.222-.724,10.412-3.163.222.725Z" transform="translate(-443.017 -447.355)" fill="#f3ab92"/>
                </g>
              </g>
            </g>
            <g id="Grupo_1217931" data-name="Grupo 1217931" transform="translate(10.977 24.237)">
              <g id="Grupo_1217930" data-name="Grupo 1217930">
                <g id="Grupo_1217929" data-name="Grupo 1217929">
                  <path id="Trazado_1167501" data-name="Trazado 1167501" d="M452.741,462.115l-.233-.721,8.369-2.688.234.722Z" transform="translate(-452.508 -458.706)" fill="#f3ab92"/>
                </g>
              </g>
            </g>
            <g id="Grupo_1217934" data-name="Grupo 1217934" transform="translate(16.187 29.682)">
              <g id="Grupo_1217933" data-name="Grupo 1217933">
                <g id="Grupo_1217932" data-name="Grupo 1217932">
                  <path id="Trazado_1167502" data-name="Trazado 1167502" d="M461.61,471.7l-.271-.709,8.04-3.052.271.709Z" transform="translate(-461.339 -467.935)" fill="#f3ab92"/>
                </g>
              </g>
            </g>
          </g>
          <g id="Grupo_1217936" data-name="Grupo 1217936" transform="translate(9.131)">
            <path id="Trazado_1167503" data-name="Trazado 1167503" d="M449.38,289.169a22.7,22.7,0,0,1,15.46,8.491c18.046,22.118,50.237,61.408,45.67,84.91-4.114,21.17-31.969,18.953-31.969,18.953l-14.462-33.357,1.522-1.516L452.661,347.7Z" transform="translate(-449.38 -289.169)" fill="#f7ab69"/>
          </g>
          <g id="Grupo_1217937" data-name="Grupo 1217937" transform="translate(18.519 27.781)">
            <rect id="Rectángulo_420719" data-name="Rectángulo 420719" width="38.784" height="0.761" transform="translate(0 38.668) rotate(-85.538)" fill="#d6905c"/>
          </g>
          <g id="Grupo_1217938" data-name="Grupo 1217938" transform="translate(24.39 65.396)">
            <path id="Trazado_1167504" data-name="Trazado 1167504" d="M475.243,412.1l.279-.732c.093-.244,2.394-6.042,12.3-11.354l.36.668c-7.62,4.087-10.649,8.53-11.592,10.235a52.857,52.857,0,0,1,25.21.436l-.194.733a50.887,50.887,0,0,0-25.614-.222Z" transform="translate(-475.243 -400.009)" fill="#d6905c"/>
          </g>
        </g>
        <path id="Trazado_1167505" data-name="Trazado 1167505" d="M340.856,352.3s15.549,11.426,40.668,2.329" transform="translate(-139.751 -144.788)" fill="none" stroke="#331f33" stroke-miterlimit="10" stroke-width="1"/>
      </g>
      <g id="Grupo_1217967" data-name="Grupo 1217967" transform="translate(7524 1891.37)" clip-path="url(#clip-path-2)">
        <g id="Grupo_1217951" data-name="Grupo 1217951" transform="translate(-66.606 189.043)">
          <g id="Grupo_1217949" data-name="Grupo 1217949" transform="translate(83.585)">
            <path id="Trazado_1167506" data-name="Trazado 1167506" d="M120.738,410.538s13.116-4.46,12.59-7.662-15.826-.238-15.826-.238,12.651-9.235,12.385-11.622-17.6-1.265-17.6-1.265l-3.853,12.542Z" transform="translate(-61.439 -349.079)" fill="#f3ab92"/>
            <path id="Trazado_1167507" data-name="Trazado 1167507" d="M60.119,445.188l12.972-8.047-1.854-15.3L52.149,432.2Z" transform="translate(-38.36 -362.343)" fill="#f3ab92"/>
            <g id="Grupo_1217943" data-name="Grupo 1217943" transform="translate(15.928 4.667)">
              <path id="Trazado_1167508" data-name="Trazado 1167508" d="M55.813,332.458l14.971,67.483a1.625,1.625,0,0,0,1.6,1.3l26.951-1.513a1.284,1.284,0,0,0,1.173-1.492l-7.383-67.847a1.636,1.636,0,0,0-1.628-1.479L56.959,330.79A1.3,1.3,0,0,0,55.813,332.458Z" transform="translate(-55.774 -328.911)" fill="#adb95a"/>
              <g id="Grupo_1217941" data-name="Grupo 1217941" transform="translate(9.531 10.164)">
                <path id="Trazado_1167509" data-name="Trazado 1167509" d="M89.691,347.395a4.671,4.671,0,0,0-3.439-1.246,4.234,4.234,0,0,0-2.74,1.109,11.53,11.53,0,0,0-2.167,3.6,7.772,7.772,0,0,1-1.21,2.14,1.951,1.951,0,0,1-1.338.71,1.257,1.257,0,0,1-.817-.217.965.965,0,0,1,0-1.625,6.635,6.635,0,0,1,1.975-.768,16.3,16.3,0,0,0-.727-2.612,8.3,8.3,0,0,0-1.051-1.956,5.075,5.075,0,0,0-2.72,1.884,5.435,5.435,0,0,0-.877,3.254q-.666.046-1.3.032t-1.347-.08a7.69,7.69,0,0,0,.181,1.829,7.187,7.187,0,0,0,.576,1.774,6.062,6.062,0,0,0,1.044-.042q.581-.068,1.447-.214a7.308,7.308,0,0,0,2.4,3.418,4.963,4.963,0,0,0,3.442,1.1,4.382,4.382,0,0,0,2.445-.858,9.445,9.445,0,0,0,2.171-3.17q.205-.388.53-1.115t.486-1.055a3.831,3.831,0,0,1,.776-1.089,1.432,1.432,0,0,1,.867-.376,1.3,1.3,0,0,1,1.009.319,1.79,1.79,0,0,1,.514,1.073,1.919,1.919,0,0,1-.723,1.819,3.822,3.822,0,0,1-2.358.9,12.053,12.053,0,0,0,.593,2.2,11.924,11.924,0,0,0,1,2.089,4.084,4.084,0,0,0,3.081-1.736,6.529,6.529,0,0,0,1.217-4.055q.72-.05,1.395-.038t1.414.076a7.718,7.718,0,0,0-.181-1.829,7.2,7.2,0,0,0-.576-1.774,6.65,6.65,0,0,0-1.084.045q-.595.07-1.513.219A8.244,8.244,0,0,0,89.691,347.395Z" transform="translate(-71.929 -346.138)" fill="#4a96a8"/>
              </g>
              <g id="Grupo_1217942" data-name="Grupo 1217942" transform="translate(14.921 48.266)">
                <path id="Trazado_1167510" data-name="Trazado 1167510" d="M98.827,411.974a4.671,4.671,0,0,0-3.439-1.246,4.234,4.234,0,0,0-2.74,1.109,11.53,11.53,0,0,0-2.167,3.6,7.772,7.772,0,0,1-1.21,2.14,1.951,1.951,0,0,1-1.338.71,1.257,1.257,0,0,1-.817-.217.965.965,0,0,1,0-1.625,6.634,6.634,0,0,1,1.975-.768,16.245,16.245,0,0,0-.727-2.612,8.3,8.3,0,0,0-1.051-1.956,5.075,5.075,0,0,0-2.72,1.884,5.435,5.435,0,0,0-.877,3.254q-.666.046-1.3.032t-1.347-.08a7.714,7.714,0,0,0,.181,1.829,7.186,7.186,0,0,0,.576,1.774,6.06,6.06,0,0,0,1.044-.042q.581-.068,1.447-.214a7.308,7.308,0,0,0,2.4,3.418,4.965,4.965,0,0,0,3.442,1.1,4.385,4.385,0,0,0,2.445-.858,9.445,9.445,0,0,0,2.171-3.17q.205-.388.53-1.115t.486-1.055a3.831,3.831,0,0,1,.776-1.089,1.432,1.432,0,0,1,.867-.376,1.3,1.3,0,0,1,1.009.319,1.793,1.793,0,0,1,.514,1.073,1.919,1.919,0,0,1-.723,1.819,3.823,3.823,0,0,1-2.358.9,12.053,12.053,0,0,0,.593,2.2,11.882,11.882,0,0,0,1,2.089,4.086,4.086,0,0,0,3.081-1.736,6.529,6.529,0,0,0,1.217-4.054q.72-.05,1.395-.038t1.414.076a7.688,7.688,0,0,0-.181-1.829,7.2,7.2,0,0,0-.576-1.773,6.649,6.649,0,0,0-1.084.045q-.595.07-1.513.219A8.241,8.241,0,0,0,98.827,411.974Z" transform="translate(-81.065 -410.717)" fill="#4a96a8"/>
              </g>
              <path id="Trazado_1167511" data-name="Trazado 1167511" d="M61.234,338.606l13.308,59.619a1.977,1.977,0,0,0,1.859,1.581l22.447-.342a1.549,1.549,0,0,0,1.473-1.829l-6.779-59.361a2.077,2.077,0,0,0-1.972-1.864l-29.063.389A1.393,1.393,0,0,0,61.234,338.606Z" transform="translate(-57.995 -331.985)" fill="none" stroke="#fff" stroke-miterlimit="10" stroke-width="1"/>
            </g>
            <g id="Grupo_1217945" data-name="Grupo 1217945" transform="translate(22.054 1.997)">
              <path id="Trazado_1167512" data-name="Trazado 1167512" d="M67.823,325.671l-1.665,67.371a1.68,1.68,0,0,0,1.274,1.657l27.185,5.927a1.248,1.248,0,0,0,1.533-1.08l9.3-65.645a1.676,1.676,0,0,0-1.258-1.831l-34.824-7.653A1.259,1.259,0,0,0,67.823,325.671Z" transform="translate(-66.157 -324.385)" fill="#adb95a"/>
              <g id="Grupo_1217944" data-name="Grupo 1217944" transform="translate(3.879 49.351)">
                <path id="Trazado_1167513" data-name="Trazado 1167513" d="M91.715,411.982a5.058,5.058,0,0,0-3.116-2.106,4.472,4.472,0,0,0-3,.293,10.914,10.914,0,0,0-3.04,2.787,7.317,7.317,0,0,1-1.729,1.677,2.029,2.029,0,0,1-1.505.3,1.373,1.373,0,0,1-.76-.427.932.932,0,0,1-.269-.724.886.886,0,0,1,.669-.8,7.026,7.026,0,0,1,2.153-.182,15.231,15.231,0,0,0-.083-2.648,8.013,8.013,0,0,0-.565-2.122,5.165,5.165,0,0,0-3.168,1.025,4.991,4.991,0,0,0-1.671,2.813q-.673-.139-1.3-.325t-1.32-.443a7.063,7.063,0,0,0-.269,1.765,6.748,6.748,0,0,0,.137,1.82,6.585,6.585,0,0,0,1.049.244q.6.095,1.492.194a7.223,7.223,0,0,0,1.546,3.859,5.394,5.394,0,0,0,3.154,1.972,4.659,4.659,0,0,0,2.643-.139,9.024,9.024,0,0,0,2.938-2.381q.3-.307.8-.9t.742-.857a3.65,3.65,0,0,1,1.04-.81,1.507,1.507,0,0,1,.955-.116,1.41,1.41,0,0,1,.926.575,1.724,1.724,0,0,1,.248,1.146,1.786,1.786,0,0,1-1.166,1.509,4.047,4.047,0,0,1-2.565.2,11.232,11.232,0,0,0,.049,2.228,11.409,11.409,0,0,0,.487,2.233,4.229,4.229,0,0,0,3.492-.788,6.012,6.012,0,0,0,2.205-3.471q.727.15,1.4.345t1.388.457a7.058,7.058,0,0,0,.269-1.765,6.75,6.75,0,0,0-.137-1.82,7.2,7.2,0,0,0-1.089-.253q-.609-.1-1.559-.208A8.093,8.093,0,0,0,91.715,411.982Z" transform="translate(-72.732 -408.031)" fill="#4a96a8"/>
              </g>
              <path id="Trazado_1167514" data-name="Trazado 1167514" d="M72.133,331.957,70.744,391.5a2.038,2.038,0,0,0,1.462,1.989l22.417,5.8a1.51,1.51,0,0,0,1.914-1.314l7.823-57.521a2.122,2.122,0,0,0-1.505-2.286l-29.011-7.556A1.349,1.349,0,0,0,72.133,331.957Z" transform="translate(-68.037 -326.917)" fill="none" stroke="#fff" stroke-miterlimit="10" stroke-width="1"/>
            </g>
            <g id="Grupo_1217948" data-name="Grupo 1217948" transform="translate(21.599)">
              <path id="Trazado_1167515" data-name="Trazado 1167515" d="M77.833,322.042l-12.42,64.88a1.683,1.683,0,0,0,1.015,1.829L92.789,399.3a1.254,1.254,0,0,0,1.712-.773l19.818-61.857a1.671,1.671,0,0,0-.971-1.994L79.589,321.1A1.257,1.257,0,0,0,77.833,322.042Z" transform="translate(-65.386 -321)" fill="#adb95a"/>
              <g id="Grupo_1217946" data-name="Grupo 1217946" transform="translate(16.016 13.936)">
                <path id="Trazado_1167516" data-name="Trazado 1167516" d="M111.9,350.519a5.249,5.249,0,0,0-2.794-2.59,4.716,4.716,0,0,0-3.059-.248,10.819,10.819,0,0,0-3.5,2.158,7.223,7.223,0,0,1-2,1.316,2.127,2.127,0,0,1-1.56.025,1.431,1.431,0,0,1-.7-.548.9.9,0,0,1-.155-.748.866.866,0,0,1,.8-.656,7.413,7.413,0,0,1,2.192.205,14.377,14.377,0,0,0,.339-2.577,7.679,7.679,0,0,0-.23-2.152,5.361,5.361,0,0,0-3.346.431,4.793,4.793,0,0,0-2.128,2.425q-.654-.253-1.257-.545t-1.256-.662a6.641,6.641,0,0,0-.552,1.66,6.391,6.391,0,0,0-.152,1.785,7.018,7.018,0,0,0,1.015.422q.583.2,1.467.451a7.015,7.015,0,0,0,.937,4.007,5.619,5.619,0,0,0,2.853,2.467,4.93,4.93,0,0,0,2.677.335,9.015,9.015,0,0,0,3.331-1.783q.35-.244.948-.73t.882-.7a3.659,3.659,0,0,1,1.174-.6,1.59,1.59,0,0,1,.978.057,1.465,1.465,0,0,1,.838.72,1.651,1.651,0,0,1,.067,1.153,1.737,1.737,0,0,1-1.412,1.253,4.273,4.273,0,0,1-2.608-.264,10.591,10.591,0,0,0-.306,2.165,10.893,10.893,0,0,0,.133,2.247,4.418,4.418,0,0,0,3.633-.144,5.788,5.788,0,0,0,2.769-2.967q.707.274,1.348.581t1.321.687a6.633,6.633,0,0,0,.552-1.66,6.387,6.387,0,0,0,.152-1.785,7.816,7.816,0,0,0-1.054-.438q-.6-.2-1.533-.477A7.817,7.817,0,0,0,111.9,350.519Z" transform="translate(-92.532 -344.62)" fill="#fff"/>
              </g>
              <g id="Grupo_1217947" data-name="Grupo 1217947" transform="translate(6.076 49.221)">
                <path id="Trazado_1167517" data-name="Trazado 1167517" d="M95.049,410.323a5.249,5.249,0,0,0-2.794-2.59,4.716,4.716,0,0,0-3.059-.248,10.818,10.818,0,0,0-3.5,2.158,7.222,7.222,0,0,1-2,1.316,2.127,2.127,0,0,1-1.56.025,1.432,1.432,0,0,1-.7-.548.9.9,0,0,1-.155-.748.866.866,0,0,1,.8-.656,7.412,7.412,0,0,1,2.192.205,14.377,14.377,0,0,0,.339-2.577,7.7,7.7,0,0,0-.229-2.152,5.361,5.361,0,0,0-3.346.431,4.793,4.793,0,0,0-2.128,2.425q-.654-.253-1.257-.545t-1.256-.662a6.64,6.64,0,0,0-.552,1.66A6.389,6.389,0,0,0,75.7,409.6a7.043,7.043,0,0,0,1.015.422q.583.2,1.467.451a7.016,7.016,0,0,0,.937,4.007,5.618,5.618,0,0,0,2.854,2.467,4.93,4.93,0,0,0,2.677.335,9.02,9.02,0,0,0,3.331-1.783q.35-.244.948-.73t.882-.7a3.659,3.659,0,0,1,1.174-.6,1.59,1.59,0,0,1,.978.057,1.468,1.468,0,0,1,.838.72,1.649,1.649,0,0,1,.066,1.153,1.737,1.737,0,0,1-1.412,1.253,4.273,4.273,0,0,1-2.608-.264,10.59,10.59,0,0,0-.306,2.165,10.894,10.894,0,0,0,.133,2.247,4.418,4.418,0,0,0,3.633-.144,5.788,5.788,0,0,0,2.769-2.967q.707.273,1.348.581t1.321.687a6.632,6.632,0,0,0,.552-1.66,6.387,6.387,0,0,0,.152-1.785,7.811,7.811,0,0,0-1.054-.438q-.6-.2-1.533-.477A7.833,7.833,0,0,0,95.049,410.323Z" transform="translate(-75.684 -404.424)" fill="#fff"/>
              </g>
              <path id="Trazado_1167518" data-name="Trazado 1167518" d="M82.011,328.862,71.117,386.217a2.037,2.037,0,0,0,1.151,2.183l21.592,9.581a1.518,1.518,0,0,0,2.132-.932l17.034-54.26a2.111,2.111,0,0,0-1.147-2.478l-27.935-12.45A1.349,1.349,0,0,0,82.011,328.862Z" transform="translate(-67.722 -323.758)" fill="none" stroke="#fff" stroke-miterlimit="10" stroke-width="1"/>
            </g>
            <path id="Trazado_1167519" data-name="Trazado 1167519" d="M29.84,378.8s13.783-19.748,19.021-22.936S71.55,358.5,70.175,362.88s-17.137,4.654-17.137,4.654,13.892,19.723,10.009,27.67-18.092,13.464-18.092,13.464L28.778,382.3Z" transform="translate(-28.778 -334.92)" fill="#f9ccb2"/>
          </g>
          <g id="Grupo_1217950" data-name="Grupo 1217950" transform="translate(0 47.378)">
            <path id="Trazado_1167520" data-name="Trazado 1167520" d="M-112.892,453.17-29.306,401.3l21.759,35.467-78.274,66.451Z" transform="translate(112.892 -401.302)" fill="#5ba9be"/>
          </g>
        </g>
        <g id="Grupo_1217965" data-name="Grupo 1217965" transform="translate(-42.709 85.369)">
          <g id="Grupo_1217962" data-name="Grupo 1217962" transform="translate(98.253)">
            <g id="Grupo_1217952" data-name="Grupo 1217952" transform="translate(1.567 57.776)">
              <path id="Trazado_1167521" data-name="Trazado 1167521" d="M97.7,258.614l15.247-1.031,5.586-14.377-21.737.211Z" transform="translate(-96.798 -243.206)" fill="#f3ab92"/>
            </g>
            <g id="Grupo_1217953" data-name="Grupo 1217953" transform="translate(1.863)">
              <path id="Trazado_1167522" data-name="Trazado 1167522" d="M128,163.635l6.517-17.155a1.866,1.866,0,0,1,2.6-.989l63.992,33.231a1.848,1.848,0,0,1,.718,2.63c-7.559,11.962-52.476,83-52.418,82.129.057-.858-42.367-22.314-51.1-26.72a1.851,1.851,0,0,1-.868-2.388Z" transform="translate(-97.299 -145.281)" fill="#fff"/>
            </g>
            <g id="Grupo_1217954" data-name="Grupo 1217954" transform="translate(42.348 17.964)">
              <path id="Trazado_1167523" data-name="Trazado 1167523" d="M166.442,180.435a2.874,2.874,0,0,1-.517-1.473,3.165,3.165,0,0,1,1.416-2.777,2.929,2.929,0,0,1,1.5-.455,3.332,3.332,0,0,1,1.618.376,3.374,3.374,0,0,1,1.066.821,2.685,2.685,0,0,1,.57,1.108l-.933.276a2.055,2.055,0,0,0-1.093-1.325,2.217,2.217,0,0,0-1.09-.253,1.922,1.922,0,0,0-1,.32,2.26,2.26,0,0,0-.969,1.907,1.892,1.892,0,0,0,.335.995,2.2,2.2,0,0,0,.85.726,2.055,2.055,0,0,0,1.722.086l.326.92a2.7,2.7,0,0,1-1.238.2,3.418,3.418,0,0,1-1.3-.372A3.336,3.336,0,0,1,166.442,180.435Z" transform="translate(-165.919 -175.729)" fill="#492c47"/>
              <path id="Trazado_1167524" data-name="Trazado 1167524" d="M176.8,185.659a2.883,2.883,0,0,1-.522-1.48,3.135,3.135,0,0,1,1.409-2.771,2.907,2.907,0,0,1,1.507-.458,3.379,3.379,0,0,1,1.629.382,3.345,3.345,0,0,1,1.273,1.081,2.887,2.887,0,0,1,.525,1.477,3.15,3.15,0,0,1-1.412,2.779,2.928,2.928,0,0,1-1.506.453,3.563,3.563,0,0,1-2.9-1.463Zm2.777.466a1.918,1.918,0,0,0,1-.327,2.24,2.24,0,0,0,.966-1.9,1.908,1.908,0,0,0-.325-.995,2.257,2.257,0,0,0-1.9-.955,1.928,1.928,0,0,0-1,.327,2.248,2.248,0,0,0-.966,1.9,1.908,1.908,0,0,0,.326.994,2.253,2.253,0,0,0,1.894.955Z" transform="translate(-170.165 -177.869)" fill="#492c47"/>
              <path id="Trazado_1167525" data-name="Trazado 1167525" d="M194.581,188.033l-2.672,5.257-.8-.406-1.093-5.023-1.81,3.56-.969-.489,2.672-5.257.8.406L191.8,191.1l1.809-3.56Z" transform="translate(-174.658 -179.807)" fill="#492c47"/>
              <path id="Trazado_1167526" data-name="Trazado 1167526" d="M202.891,192.65l-1.744-.88.42-.826,4.466,2.251-.42.825-1.744-.879-2.252,4.431-.978-.493Z" transform="translate(-180.154 -181.967)" fill="#492c47"/>
              <path id="Trazado_1167527" data-name="Trazado 1167527" d="M211.219,203.026l-.292-2.082a2,2,0,0,1-.207-.094l-1.188-.6-.779,1.532-.978-.493,2.672-5.257,2.166,1.092a3.256,3.256,0,0,1,1.077.826,1.93,1.93,0,0,1,.45,1.038A2.206,2.206,0,0,1,213.094,201a1.944,1.944,0,0,1-1.156.219l.333,2.338Zm1.761-4.34a1.675,1.675,0,0,0-.833-.759L211,197.35l-1.065,2.1,1.143.576a1.667,1.667,0,0,0,1.109.215,1.074,1.074,0,0,0,.726-.611A1.053,1.053,0,0,0,212.98,198.686Z" transform="translate(-183.08 -184.053)" fill="#492c47"/>
              <path id="Trazado_1167528" data-name="Trazado 1167528" d="M221.881,207.7l-2.632-1.327-1.137.955-1.008-.507,5.041-4.064.962.484-.3,6.455-1.023-.515Zm.066-.929.176-2.8-2.153,1.8Z" transform="translate(-186.905 -186.811)" fill="#492c47"/>
              <path id="Trazado_1167529" data-name="Trazado 1167529" d="M230.618,212.787a2.873,2.873,0,0,1-.517-1.473,3.165,3.165,0,0,1,1.416-2.777,2.928,2.928,0,0,1,1.5-.455,3.324,3.324,0,0,1,1.618.376,3.364,3.364,0,0,1,1.066.821,2.692,2.692,0,0,1,.571,1.109l-.934.275a2.055,2.055,0,0,0-1.093-1.325,2.21,2.21,0,0,0-1.09-.253,1.918,1.918,0,0,0-1,.32,2.26,2.26,0,0,0-.969,1.907,1.9,1.9,0,0,0,.335.995,2.2,2.2,0,0,0,.85.726,2.059,2.059,0,0,0,1.722.086l.327.92a2.706,2.706,0,0,1-1.238.2,3.409,3.409,0,0,1-1.3-.372A3.344,3.344,0,0,1,230.618,212.787Z" transform="translate(-192.231 -188.993)" fill="#492c47"/>
              <path id="Trazado_1167530" data-name="Trazado 1167530" d="M243.556,213.148l-1.745-.879.42-.826,4.466,2.251-.42.826-1.744-.879-2.252,4.431-.978-.493Z" transform="translate(-196.827 -190.371)" fill="#492c47"/>
            </g>
            <g id="Grupo_1217955" data-name="Grupo 1217955" transform="translate(32.036 35.466)">
              <path id="Trazado_1167531" data-name="Trazado 1167531" d="M149.744,205.392l50.573,22.31-1.881,2.41-50-21.583Z" transform="translate(-148.441 -205.392)" fill="#f9eee5"/>
            </g>
            <g id="Grupo_1217956" data-name="Grupo 1217956" transform="translate(27.298 43.726)">
              <path id="Trazado_1167532" data-name="Trazado 1167532" d="M141.712,219.392l50.572,22.31-1.88,2.41-50-21.583Z" transform="translate(-140.409 -219.392)" fill="#f9eee5"/>
            </g>
            <g id="Grupo_1217957" data-name="Grupo 1217957" transform="translate(22.559 52.576)">
              <path id="Trazado_1167533" data-name="Trazado 1167533" d="M133.68,234.392l50.572,22.31-1.88,2.41-50-21.583Z" transform="translate(-132.377 -234.392)" fill="#f9eee5"/>
            </g>
            <g id="Grupo_1217958" data-name="Grupo 1217958" transform="translate(17.82 62.016)">
              <path id="Trazado_1167534" data-name="Trazado 1167534" d="M125.6,250.392l48.6,22.156-1.807,2.393-48.043-21.432Z" transform="translate(-124.345 -250.392)" fill="#f9eee5"/>
            </g>
            <g id="Grupo_1217959" data-name="Grupo 1217959" transform="translate(14.265 70.276)">
              <path id="Trazado_1167535" data-name="Trazado 1167535" d="M119.573,264.392l48.6,22.156-1.807,2.393L118.32,267.508Z" transform="translate(-118.32 -264.392)" fill="#f9eee5"/>
            </g>
            <g id="Grupo_1217960" data-name="Grupo 1217960" transform="translate(8.341 78.536)">
              <path id="Trazado_1167536" data-name="Trazado 1167536" d="M109.533,278.392l48.6,22.156-1.807,2.393L108.28,281.508Z" transform="translate(-108.28 -278.392)" fill="#f9eee5"/>
            </g>
            <g id="Grupo_1217961" data-name="Grupo 1217961" transform="translate(0 17.757)">
              <path id="Trazado_1167537" data-name="Trazado 1167537" d="M96.729,186.727s21.484-10.98,27.612-11.342,18.788,12.939,15.506,16.165-17.322-3.913-17.322-3.913,2.956,23.911-4.221,29.109-22.323,3.416-22.323,3.416l-1.838-30.848Z" transform="translate(-94.142 -175.378)" fill="#f9ccb2"/>
            </g>
          </g>
          <g id="Grupo_1217964" data-name="Grupo 1217964" transform="translate(0 31.694)">
            <g id="Grupo_1217963" data-name="Grupo 1217963">
              <path id="Trazado_1167538" data-name="Trazado 1167538" d="M-72.388,205.659,25.865,199l2.472,41.491L-72.108,262.508Z" transform="translate(72.388 -198.999)" fill="#5ba9be"/>
            </g>
          </g>
        </g>
        <g id="Grupo_1217966" data-name="Grupo 1217966" transform="translate(66.859 158.25)">
          <path id="Trazado_1167539" data-name="Trazado 1167539" d="M132.993,271.873l-19.5,66.939a4.254,4.254,0,0,0,5.113,5.306l67.953-16.651a4.24,4.24,0,0,0,2.057-7.063l-48.454-50.288A4.27,4.27,0,0,0,132.993,271.873Z" transform="translate(-113.32 -268.808)" fill="#c97575"/>
          <path id="Trazado_1167540" data-name="Trazado 1167540" d="M165.11,329.2l5.177-9.6-6.949-3.718-5.183,9.611-9.657-5.147-3.722,6.927,9.646,5.142-5.177,9.6,6.949,3.718,5.183-9.611,9.657,5.148,3.722-6.927Z" transform="translate(-126.217 -288.108)" fill="none" stroke="#f9eee5" stroke-miterlimit="10" stroke-width="1"/>
        </g>
      </g>
      <g id="Grupo_1217968" data-name="Grupo 1217968" transform="translate(7524 1891.37)" clip-path="url(#clip-path-2)">
        <path id="Trazado_1167542" data-name="Trazado 1167542" d="M190.21,447.2l5.177-9.6-6.95-3.718-5.183,9.611-9.657-5.147-3.722,6.927,9.647,5.142-5.177,9.6,6.95,3.718,5.183-9.611,9.657,5.148,3.722-6.927Z" transform="translate(-69.649 -178.238)" fill="none" stroke="#703b48" stroke-miterlimit="10" stroke-width="1" opacity="0.3"/>
        <path id="Trazado_1167544" data-name="Trazado 1167544" d="M28.883,335.412l6.986-2.854L33.8,327.54l-7,2.858-2.879-6.962L18.895,325.5l2.877,6.955-6.987,2.855,2.066,5.017,6.994-2.858,2.88,6.962,5.034-2.066Z" transform="translate(-6.062 -132.955)" fill="none" stroke="#703b48" stroke-miterlimit="10" stroke-width="1" opacity="0.3"/>
        <path id="Trazado_1167545" data-name="Trazado 1167545" d="M478.682,253.412l6.987-2.854L483.6,245.54l-6.994,2.858-2.88-6.962-5.034,2.065,2.877,6.955-6.987,2.855,2.066,5.017,6.994-2.858,2.88,6.962,5.034-2.066Z" transform="translate(-190.479 -99.335)" fill="none" stroke="#703b48" stroke-miterlimit="10" stroke-width="1" opacity="0.3"/>
      </g>
    </g>
  </g>
</svg>
