<svg xmlns="http://www.w3.org/2000/svg" xmlns:xlink="http://www.w3.org/1999/xlink" width="105.658" height="105.658" viewBox="0 0 105.658 105.658">
  <defs>
    <filter id="Trazado_978624" x="0" y="0" width="105.658" height="105.658" filterUnits="userSpaceOnUse">
      <feOffset dy="3" input="SourceAlpha"/>
      <feGaussianBlur stdDeviation="3" result="blur"/>
      <feFlood flood-opacity="0.161"/>
      <feComposite operator="in" in2="blur"/>
      <feComposite in="SourceGraphic"/>
    </filter>
  </defs>
  <g id="Grupo_1216561" data-name="Grupo 1216561" transform="translate(-159.964 -1831.342)">
    <g id="Grupo_1216021" data-name="Grupo 1216021" transform="translate(168.964 1837.342)">
      <g id="Grupo_1210476" data-name="Grupo 1210476" transform="translate(0 0)">
        <g id="Grupo_1210475" data-name="Grupo 1210475" transform="translate(0 0)">
          <g id="Grupo_1209741" data-name="Grupo 1209741" transform="translate(0 0)">
            <g id="Grupo_1178144" data-name="Grupo 1178144">
              <g id="Grupo_1177896" data-name="Grupo 1177896">
                <g id="Grupo_1176881" data-name="Grupo 1176881">
                  <g id="Grupo_1175148" data-name="Grupo 1175148">
                    <g id="Grupo_1173798" data-name="Grupo 1173798">
                      <g id="Grupo_1171925" data-name="Grupo 1171925">
                        <g id="Grupo_1164524" data-name="Grupo 1164524">
                          <g id="Grupo_1144123" data-name="Grupo 1144123">
                            <g transform="matrix(1, 0, 0, 1, -9, -6)" filter="url(#Trazado_978624)">
                              <g id="Trazado_978624-2" data-name="Trazado 978624" transform="translate(9 6)" fill="#e7f2f8">
                                <path d="M 43.82918167114258 86.15837097167969 C 38.11412048339844 86.15837097167969 32.57080841064453 85.03940582275391 27.35321998596191 82.83254241943359 C 22.31287002563477 80.70065307617188 17.78585624694824 77.64835357666016 13.8979320526123 73.76042938232422 C 10.01000690460205 69.87250518798828 6.957719326019287 65.34550476074219 4.825831890106201 60.30514526367188 C 2.618969202041626 55.08755493164062 1.500006675720215 49.54424285888672 1.500006675720215 43.82918167114258 C 1.500006675720215 38.11412048339844 2.618969202041626 32.57080841064453 4.825831890106201 27.35321998596191 C 6.957719326019287 22.31287002563477 10.01000690460205 17.78585624694824 13.8979320526123 13.8979320526123 C 17.78585624694824 10.01000690460205 22.31287002563477 6.957719326019287 27.35321998596191 4.825831890106201 C 32.57080841064453 2.618969202041626 38.11412048339844 1.500006675720215 43.82918167114258 1.500006675720215 C 49.54424285888672 1.500006675720215 55.08755493164062 2.618969202041626 60.30514526367188 4.825831890106201 C 65.34550476074219 6.957719326019287 69.87250518798828 10.01000690460205 73.76042938232422 13.8979320526123 C 77.64835357666016 17.78585624694824 80.70065307617188 22.31287002563477 82.83254241943359 27.35321998596191 C 85.03940582275391 32.57080841064453 86.15837097167969 38.11412048339844 86.15837097167969 43.82918167114258 C 86.15837097167969 49.54424285888672 85.03940582275391 55.08755493164062 82.83254241943359 60.30514526367188 C 80.70065307617188 65.34549713134766 77.64835357666016 69.87250518798828 73.76042938232422 73.76042938232422 C 69.87250518798828 77.64835357666016 65.34549713134766 80.70065307617188 60.30514526367188 82.83254241943359 C 55.08755493164062 85.03940582275391 49.54424285888672 86.15837097167969 43.82918167114258 86.15837097167969 Z" stroke="none"/>
                                <path d="M 43.82918167114258 2.999992370605469 C 38.31595230102539 2.999992370605469 32.96923828125 4.079093933105469 27.93753814697266 6.207321166992188 C 23.07599639892578 8.263580322265625 18.70923614501953 11.20793914794922 14.95859527587891 14.95859527587891 C 11.20793914794922 18.70923614501953 8.263580322265625 23.07599639892578 6.207321166992188 27.93753814697266 C 4.079093933105469 32.96923828125 2.999992370605469 38.31595230102539 2.999992370605469 43.82918167114258 C 2.999992370605469 49.34241104125977 4.079093933105469 54.68912506103516 6.207321166992188 59.7208251953125 C 8.263580322265625 64.58236694335938 11.20793914794922 68.94912719726562 14.95859527587891 72.69976806640625 C 18.70923614501953 76.45042419433594 23.07599639892578 79.39478302001953 27.93753814697266 81.45104217529297 C 32.96923828125 83.57926940917969 38.31595230102539 84.65837097167969 43.82918167114258 84.65837097167969 C 49.34241104125977 84.65837097167969 54.68912506103516 83.57926940917969 59.7208251953125 81.45104217529297 C 64.58236694335938 79.39478302001953 68.94912719726562 76.45042419433594 72.69976806640625 72.69976806640625 C 76.45042419433594 68.94912719726562 79.39478302001953 64.58236694335938 81.45104217529297 59.7208251953125 C 83.57926940917969 54.68912506103516 84.65837097167969 49.34241104125977 84.65837097167969 43.82918167114258 C 84.65837097167969 38.31595230102539 83.57926940917969 32.96923828125 81.45104217529297 27.93753814697266 C 79.39478302001953 23.07599639892578 76.45042419433594 18.70923614501953 72.69976806640625 14.95859527587891 C 68.94912719726562 11.20793914794922 64.58236694335938 8.263580322265625 59.7208251953125 6.207321166992188 C 54.68912506103516 4.079093933105469 49.34241104125977 2.999992370605469 43.82918167114258 2.999992370605469 M 43.82918167114258 -7.62939453125e-06 C 68.03536987304688 -7.62939453125e-06 87.65837097167969 19.62299346923828 87.65837097167969 43.82918167114258 C 87.65837097167969 68.03536987304688 68.03536987304688 87.65837097167969 43.82918167114258 87.65837097167969 C 19.62299346923828 87.65837097167969 -7.62939453125e-06 68.03536987304688 -7.62939453125e-06 43.82918167114258 C -7.62939453125e-06 19.62299346923828 19.62299346923828 -7.62939453125e-06 43.82918167114258 -7.62939453125e-06 Z" stroke="none" fill="#248abf"/>
                              </g>
                            </g>
                          </g>
                        </g>
                      </g>
                    </g>
                  </g>
                </g>
              </g>
            </g>
          </g>
        </g>
      </g>
    </g>
    <g id="tribunal-de-justicia" transform="translate(177.337 1854.087)">
      <g id="Grupo_1216560" data-name="Grupo 1216560" transform="translate(1.144 1.144)">
        <g id="Grupo_1216540" data-name="Grupo 1216540" transform="translate(22.875 4.575)">
          <path id="Trazado_1163289" data-name="Trazado 1163289" d="M43.875,11.863v4.575a2.294,2.294,0,0,0-2.288-2.288H39.3v-.869a3.7,3.7,0,0,0-3.706-3.706,3.748,3.748,0,0,0-1.647.389l-1.51.755-1.51-.755a3.748,3.748,0,0,0-1.647-.389,3.71,3.71,0,0,0-3.706,3.706v.869H23.288A2.3,2.3,0,0,0,21,16.438V11.863A6.868,6.868,0,0,1,27.863,5h9.15A6.868,6.868,0,0,1,43.875,11.863Z" transform="translate(-21 -5)" fill="#b27946"/>
        </g>
        <g id="Grupo_1216541" data-name="Grupo 1216541" transform="translate(29.738 0)">
          <path id="Trazado_1163290" data-name="Trazado 1163290" d="M36.15,5.575H27a4.575,4.575,0,1,1,9.15,0Z" transform="translate(-27 -1)" fill="#b27946"/>
        </g>
        <g id="Grupo_1216542" data-name="Grupo 1216542" transform="translate(0 29.738)">
          <path id="Trazado_1163291" data-name="Trazado 1163291" d="M14.725,28.144v2.288a1.147,1.147,0,0,1-1.144,1.144H2.144A1.147,1.147,0,0,1,1,30.431V28.144A1.147,1.147,0,0,1,2.144,27H13.581A1.147,1.147,0,0,1,14.725,28.144Z" transform="translate(-1 -27)" fill="#cf9e76"/>
        </g>
        <g id="Grupo_1216543" data-name="Grupo 1216543" transform="translate(4.575)">
          <path id="Trazado_1163292" data-name="Trazado 1163292" d="M9.575,2.144V30.738H5V2.144A1.147,1.147,0,0,1,6.144,1H8.431A1.147,1.147,0,0,1,9.575,2.144Z" transform="translate(-5 -1)" fill="#dfb28b"/>
        </g>
        <g id="Grupo_1216544" data-name="Grupo 1216544" transform="translate(4.575 34.313)">
          <path id="Trazado_1163293" data-name="Trazado 1163293" d="M9.575,40.15v3.431a1.147,1.147,0,0,1-1.144,1.144H6.144A1.147,1.147,0,0,1,5,43.581V31H9.575Z" transform="translate(-5 -31)" fill="#b27946"/>
        </g>
        <g id="Grupo_1216545" data-name="Grupo 1216545" transform="translate(33.604 45.899)">
          <path id="Trazado_1163294" data-name="Trazado 1163294" d="M36.545,41.13l3.168,8.715L30.38,44.653Z" transform="translate(-30.38 -41.13)" fill="#aab2bd"/>
        </g>
        <g id="Grupo_1216546" data-name="Grupo 1216546" transform="translate(25.986 43.463)">
          <path id="Trazado_1163295" data-name="Trazado 1163295" d="M36.622,39l.881,2.436-6.165,3.523L23.72,49.317,27.472,39Z" transform="translate(-23.72 -39)" fill="#ccd1d9"/>
        </g>
        <g id="Grupo_1216547" data-name="Grupo 1216547" transform="translate(20.588 49.422)">
          <path id="Trazado_1163296" data-name="Trazado 1163296" d="M39.588,63.414H19l5.4-14.846,7.617-4.358L41.349,49.4l5.1,14.011Z" transform="translate(-19 -44.21)" fill="#e6e9ed"/>
        </g>
        <g id="Grupo_1216548" data-name="Grupo 1216548" transform="translate(27.45 34.313)">
          <path id="Trazado_1163297" data-name="Trazado 1163297" d="M38.657,33.253a2.875,2.875,0,0,1-.137,1.693l-2.082,5.2h-9.15l-2.082-5.2a.9.9,0,0,1-.057-.16,2.675,2.675,0,0,1-.149-.9A2.885,2.885,0,0,1,27.882,31h7.961a2.851,2.851,0,0,1,2.036.846A2.818,2.818,0,0,1,38.657,33.253Z" transform="translate(-25 -31)" fill="#e6e9ed"/>
        </g>
        <g id="Grupo_1216549" data-name="Grupo 1216549" transform="translate(59.476 38.888)">
          <path id="Trazado_1163298" data-name="Trazado 1163298" d="M53,35h9.15A4.575,4.575,0,1,1,53,35Z" transform="translate(-53 -35)" fill="#fcd770"/>
        </g>
        <g id="Grupo_1216550" data-name="Grupo 1216550" transform="translate(45.751 38.888)">
          <path id="Trazado_1163299" data-name="Trazado 1163299" d="M41,35h9.15A4.575,4.575,0,1,1,41,35Z" transform="translate(-41 -35)" fill="#fcd770"/>
        </g>
        <g id="Grupo_1216551" data-name="Grupo 1216551" transform="translate(54.901 4.575)">
          <path id="Trazado_1163300" data-name="Trazado 1163300" d="M53.575,14.15v1.144a1.147,1.147,0,0,1-1.144,1.144H50.144A1.147,1.147,0,0,1,49,15.294V6.144A1.147,1.147,0,0,1,50.144,5h2.288a1.147,1.147,0,0,1,1.144,1.144V14.15Z" transform="translate(-49 -5)" fill="#969faa"/>
        </g>
        <g id="Grupo_1216552" data-name="Grupo 1216552" transform="translate(59.476 6.863)">
          <path id="Trazado_1163301" data-name="Trazado 1163301" d="M57.575,9.288v4.575a2.294,2.294,0,0,1-2.288,2.288A2.3,2.3,0,0,1,53,13.863V9.288A2.294,2.294,0,0,1,55.288,7a2.3,2.3,0,0,1,2.288,2.288Z" transform="translate(-53 -7)" fill="#f0d0b4"/>
        </g>
        <g id="Grupo_1216553" data-name="Grupo 1216553" transform="translate(37.744 9.15)">
          <path id="Trazado_1163302" data-name="Trazado 1163302" d="M53.444,25.013v4.575H46.581l-2.493,4.987a16.867,16.867,0,0,1-6.725,1.841,2.818,2.818,0,0,0-.778-1.407,2.851,2.851,0,0,0-2.036-.846H34l1.144-4.575A11.442,11.442,0,0,0,46.581,18.15V11.288A2.294,2.294,0,0,1,48.869,9h2.288v5.719A1.147,1.147,0,0,0,52.3,15.863h1.144v4.575a2.288,2.288,0,1,0,0,4.575Z" transform="translate(-34 -9)" fill="#f0d0b4"/>
        </g>
        <g id="Grupo_1216554" data-name="Grupo 1216554" transform="translate(9.15 29.738)">
          <path id="Trazado_1163303" data-name="Trazado 1163303" d="M29.588,27l1.144,4.575h-.549A2.885,2.885,0,0,0,27.3,34.457a2.675,2.675,0,0,0,.149.9L13.918,40.188a9.073,9.073,0,0,1-3.077.538H9v-9.15h3.431l2.288,2.288,8.715-5.227A11.407,11.407,0,0,1,29.325,27Z" transform="translate(-9 -27)" fill="#f0d0b4"/>
        </g>
        <g id="Grupo_1216555" data-name="Grupo 1216555" transform="translate(41.176 13.725)">
          <path id="Trazado_1163304" data-name="Trazado 1163304" d="M39.288,13a2.294,2.294,0,0,1,2.288,2.288,2.3,2.3,0,0,1-2.288,2.288H37V13Z" transform="translate(-37 -13)" fill="#f0d0b4"/>
        </g>
        <g id="Grupo_1216556" data-name="Grupo 1216556" transform="translate(27.45 18.3)">
          <path id="Trazado_1163305" data-name="Trazado 1163305" d="M38.725,17v2.15a6.037,6.037,0,0,1-4.575,5.856v3.431h2.288l-1.144,4.575H28.431l-1.144-4.575h2.288V25.006A6.042,6.042,0,0,1,25,19.15V17Z" transform="translate(-25 -17)" fill="#f0d0b4"/>
        </g>
        <g id="Grupo_1216557" data-name="Grupo 1216557" transform="translate(22.875 13.725)">
          <path id="Trazado_1163306" data-name="Trazado 1163306" d="M25.575,13v4.575H23.288A2.294,2.294,0,0,1,21,15.288,2.3,2.3,0,0,1,23.288,13Z" transform="translate(-21 -13)" fill="#f0d0b4"/>
        </g>
        <g id="Grupo_1216558" data-name="Grupo 1216558" transform="translate(27.45 9.15)">
          <path id="Trazado_1163307" data-name="Trazado 1163307" d="M31.863,10.144l1.51-.755A3.748,3.748,0,0,1,35.019,9a3.7,3.7,0,0,1,3.706,3.706v.869H25v-.869A3.71,3.71,0,0,1,28.706,9a3.748,3.748,0,0,1,1.647.389Z" transform="translate(-25 -9)" fill="#f0d0b4"/>
        </g>
        <g id="Grupo_1216559" data-name="Grupo 1216559" transform="translate(27.45 13.725)">
          <path id="Trazado_1163308" data-name="Trazado 1163308" d="M25,13H38.725v4.575H25Z" transform="translate(-25 -13)" fill="#75b1f2"/>
        </g>
      </g>
      <path id="Trazado_1163309" data-name="Trazado 1163309" d="M65.9,29.738H59.476v-2.5a3.427,3.427,0,0,0,2.288-3.221H59.476a1.144,1.144,0,1,1-1.144-1.144h1.144V18.3a2.268,2.268,0,0,0,1.514-.587,3.43,3.43,0,0,0,5.348-2.845V10.294a3.435,3.435,0,0,0-3.431-3.431,3.393,3.393,0,0,0-1.144.21v-.21a2.29,2.29,0,0,0-2.288-2.288H57.188A2.29,2.29,0,0,0,54.9,6.863V9.15H53.757a3.435,3.435,0,0,0-3.431,3.431v6.863A10.306,10.306,0,0,1,40.032,29.738H38.888V28.284a7.172,7.172,0,0,0,4.575-6.694v-1h1.144a3.435,3.435,0,0,0,3.431-3.431V12.581a8.014,8.014,0,0,0-6.97-7.932,5.711,5.711,0,0,0-11.223,0,8.014,8.014,0,0,0-6.97,7.932v4.575a3.435,3.435,0,0,0,3.431,3.431H27.45v1a7.174,7.174,0,0,0,4.575,6.694v1.453H30.619a12.578,12.578,0,0,0-6.473,1.793L16.191,36.3l-.634-.634a2.277,2.277,0,0,0,.455-1.358V32.025a2.29,2.29,0,0,0-2.288-2.288H11.438V2.288A2.29,2.29,0,0,0,9.15,0H6.863A2.29,2.29,0,0,0,4.575,2.288v27.45H2.288A2.29,2.29,0,0,0,0,32.025v2.288A2.29,2.29,0,0,0,2.288,36.6H4.575V48.038a2.29,2.29,0,0,0,2.288,2.288H9.15a2.29,2.29,0,0,0,2.288-2.288V45.751h.7a10.276,10.276,0,0,0,3.461-.6l12.482-4.457,1.574,3.933L20.1,70.913H50.814L41.256,44.626l1.92-4.8a3.955,3.955,0,0,0,.249-1.1,18.062,18.062,0,0,0,3.183-.682l-.858,1.716v.27a5.719,5.719,0,0,0,11.438,0v-.27L53.32,32.025H63.344l-3.868,7.736v.27a5.719,5.719,0,0,0,11.438,0v-.27ZM62.907,9.15a1.145,1.145,0,0,1,1.144,1.144v4.575a1.144,1.144,0,1,1-2.288,0V10.294A1.145,1.145,0,0,1,62.907,9.15ZM57.188,6.863h2.288v8.006s0,.007,0,.009v1.135H57.188ZM41.052,38.977l-1.795,4.486h-7.6L29.861,38.98a1.736,1.736,0,0,1,1.61-2.379h7.971a1.734,1.734,0,0,1,1.609,2.377ZM44.607,18.3H43.463V16.013h1.144a1.144,1.144,0,0,1,0,2.288Zm-3.431-2.288V18.3H29.738V16.013Zm-11.41-2.288a2.552,2.552,0,0,1,2.53-2.288,2.579,2.579,0,0,1,1.144.27l2.018,1.009,2.018-1.009a2.546,2.546,0,0,1,3.674,2.018ZM35.457,2.288a3.427,3.427,0,0,1,3.221,2.288H32.237A3.424,3.424,0,0,1,35.457,2.288ZM30.882,6.863h9.15a5.725,5.725,0,0,1,5.719,5.719v1.354a3.393,3.393,0,0,0-1.144-.21H43.436a4.829,4.829,0,0,0-6.985-4.064l-.994.5-.994-.5a4.829,4.829,0,0,0-6.985,4.064H26.307a3.393,3.393,0,0,0-1.144.21V12.581A5.725,5.725,0,0,1,30.882,6.863ZM26.307,18.3a1.144,1.144,0,1,1,0-2.288H27.45V18.3Zm3.431,3.291v-1H41.176v1a4.889,4.889,0,0,1-3.708,4.75l-.867.216v5.468h1.967L38,34.313H32.918l-.572-2.288h1.967V26.557l-.867-.216A4.889,4.889,0,0,1,29.738,21.591ZM6.863,2.288H9.15v27.45H6.863ZM2.288,32.025H13.725v2.288H2.288ZM6.863,48.038V36.6H9.15V48.038Zm20.588-9.7c0,.051.013.1.015.152L14.832,43a7.993,7.993,0,0,1-2.692.466h-.7V36.6h1.814l2.584,2.584,9.488-5.693A10.272,10.272,0,0,1,30,32.067l.588,2.35A4.026,4.026,0,0,0,27.45,38.334Zm4.232,7.416h7.549l.283.777L29.274,52.38Zm8.624,2.958,1.658,4.56-4.887-2.715Zm2.93,19.918-2.089-9.4-2.234.5,1.979,8.9H36.6V57.188H34.313V68.626H30.02L32,59.724l-2.234-.5-2.089,9.4H23.365l4.7-12.921,6.693-3.825,8.4,4.668,4.391,12.078Zm8.233-25.163a3.425,3.425,0,0,1-3.22-2.288h6.439a3.425,3.425,0,0,1-3.22,2.288Zm2.724-4.575H48.745l2.724-5.449Zm-3.431-9.15L48.132,35a15.833,15.833,0,0,1-5.144,1.479,4.016,4.016,0,0,0-2.662-2.06l.61-2.439A12.588,12.588,0,0,0,52.613,19.444V12.581a1.145,1.145,0,0,1,1.144-1.144H54.9v4.575A2.29,2.29,0,0,0,57.188,18.3v2.483a3.422,3.422,0,0,0,0,6.457v2.5Zm14.432,3.7,2.724,5.449H62.47Zm0,10.024a3.425,3.425,0,0,1-3.22-2.288h6.439a3.425,3.425,0,0,1-3.22,2.288Z" transform="translate(0)"/>
    </g>
  </g>
</svg>
