<svg xmlns="http://www.w3.org/2000/svg" xmlns:xlink="http://www.w3.org/1999/xlink" width="93.934" height="93.934" viewBox="0 0 93.934 93.934">
  <defs>
    <filter id="Trazado_982547" x="0" y="0" width="93.934" height="93.934" filterUnits="userSpaceOnUse">
      <feOffset dy="3" input="SourceAlpha"/>
      <feGaussianBlur stdDeviation="3" result="blur"/>
      <feFlood flood-opacity="0.161"/>
      <feComposite operator="in" in2="blur"/>
      <feComposite in="SourceGraphic"/>
    </filter>
  </defs>
  <g id="Grupo_1216286" data-name="Grupo 1216286" transform="translate(-191.066 -1194.697)">
    <g id="Grupo_1215984" data-name="Grupo 1215984" transform="translate(-0.229 -2679.151)">
      <g id="Grupo_1214662" data-name="Grupo 1214662" transform="translate(0 -1254.151)">
        <g id="Grupo_1214432" data-name="Grupo 1214432" transform="translate(-0.771 -2738.674)">
          <g id="Grupo_1183196" data-name="Grupo 1183196" transform="translate(1 1016.674)">
            <g id="Grupo_1179610" data-name="Grupo 1179610" transform="translate(8 4723.467)">
              <g id="Grupo_1175227" data-name="Grupo 1175227" transform="translate(-5.967 140.533)">
                <g id="Grupo_1167337" data-name="Grupo 1167337" transform="translate(198.033 1992)">
                  <g id="Grupo_1166720" data-name="Grupo 1166720">
                    <g id="Grupo_1164305" data-name="Grupo 1164305">
                      <g id="Grupo_1163948" data-name="Grupo 1163948">
                        <g id="Grupo_1158168" data-name="Grupo 1158168">
                          <g id="Grupo_1152576" data-name="Grupo 1152576">
                            <g id="Grupo_1148633" data-name="Grupo 1148633">
                              <g id="Grupo_1148525" data-name="Grupo 1148525">
                                <g transform="matrix(1, 0, 0, 1, -9, -6)" filter="url(#Trazado_982547)">
                                  <g id="Trazado_982547-2" data-name="Trazado 982547" transform="translate(9 6)" fill="#eae4dc">
                                    <path d="M 37.966796875 74.43359375 C 33.04315185546875 74.43359375 28.26757431030273 73.46962738037109 23.77274131774902 71.56847381591797 C 19.43047523498535 69.73184967041016 15.53040790557861 67.10224914550781 12.18087482452393 63.75271987915039 C 8.831341743469238 60.4031867980957 6.201741218566895 56.50312042236328 4.365118980407715 52.16086196899414 C 2.463963508605957 47.66601943969727 1.499996900558472 42.89044189453125 1.499996900558472 37.966796875 C 1.499996900558472 33.04315185546875 2.463963508605957 28.26757431030273 4.365118980407715 23.77274131774902 C 6.201741218566895 19.43047523498535 8.831341743469238 15.53040790557861 12.18087482452393 12.18087482452393 C 15.53040790557861 8.831341743469238 19.43047523498535 6.201741218566895 23.77274131774902 4.365118980407715 C 28.26757431030273 2.463963508605957 33.04315185546875 1.499996900558472 37.966796875 1.499996900558472 C 42.89044189453125 1.499996900558472 47.66601943969727 2.463963508605957 52.16086196899414 4.365118980407715 C 56.50312042236328 6.201741218566895 60.4031867980957 8.831341743469238 63.75271987915039 12.18087482452393 C 67.10224914550781 15.53040790557861 69.73184967041016 19.43047523498535 71.56847381591797 23.77274131774902 C 73.46962738037109 28.26757431030273 74.43359375 33.04315185546875 74.43359375 37.966796875 C 74.43359375 42.89044189453125 73.46962738037109 47.66601943969727 71.56847381591797 52.16086196899414 C 69.73184967041016 56.50313186645508 67.10224914550781 60.4031867980957 63.75271987915039 63.75271987915039 C 60.4031867980957 67.10224914550781 56.50313186645508 69.73184967041016 52.16086196899414 71.56847381591797 C 47.66601943969727 73.46962738037109 42.89044189453125 74.43359375 37.966796875 74.43359375 Z" stroke="none"/>
                                    <path d="M 37.966796875 3 C 33.2449836730957 3 28.66600799560547 3.924095153808594 24.35705947875977 5.746635437011719 C 20.19359588623047 7.507637023925781 16.45379638671875 10.02928161621094 13.24153518676758 13.24153518676758 C 10.02927398681641 16.45379638671875 7.507621765136719 20.19359588623047 5.746635437011719 24.35705947875977 C 3.924095153808594 28.66600799560547 3 33.2449836730957 3 37.966796875 C 3 42.6886100769043 3.924095153808594 47.26758575439453 5.746635437011719 51.57653427124023 C 7.507621765136719 55.73999786376953 10.02927398681641 59.47979736328125 13.24153518676758 62.69205856323242 C 16.45379638671875 65.90431976318359 20.19359588623047 68.42597198486328 24.35705947875977 70.18695831298828 C 28.66600799560547 72.00949859619141 33.2449836730957 72.93359375 37.966796875 72.93359375 C 42.6886100769043 72.93359375 47.26758575439453 72.00949859619141 51.57653427124023 70.18695831298828 C 55.73999786376953 68.42597198486328 59.47979736328125 65.90431976318359 62.69205856323242 62.69205856323242 C 65.90431976318359 59.47979736328125 68.42597198486328 55.73999786376953 70.18695831298828 51.57653427124023 C 72.00949859619141 47.26758575439453 72.93359375 42.6886100769043 72.93359375 37.966796875 C 72.93359375 33.2449836730957 72.00949859619141 28.66600799560547 70.18695831298828 24.35705947875977 C 68.42597198486328 20.19359588623047 65.90431976318359 16.45379638671875 62.69205856323242 13.24153518676758 C 59.47979736328125 10.02928161621094 55.73999786376953 7.507637023925781 51.57653427124023 5.746635437011719 C 47.26758575439453 3.924095153808594 42.6886100769043 3 37.966796875 3 M 37.966796875 0 C 58.93528366088867 0 75.93359375 16.99832153320312 75.93359375 37.966796875 C 75.93359375 58.93528366088867 58.93528366088867 75.93359375 37.966796875 75.93359375 C 16.99831008911133 75.93359375 0 58.93528366088867 0 37.966796875 C 0 16.99832153320312 16.99831008911133 0 37.966796875 0 Z" stroke="none" fill="#665b4e"/>
                                  </g>
                                </g>
                              </g>
                            </g>
                          </g>
                        </g>
                      </g>
                    </g>
                  </g>
                </g>
              </g>
            </g>
          </g>
        </g>
      </g>
    </g>
    <g id="juridico" transform="translate(220.983 1212.073)">
      <rect id="Rectángulo_420230" data-name="Rectángulo 420230" width="27.612" height="7.112" transform="translate(24.893 13.394)" fill="#a0aeff"/>
      <rect id="Rectángulo_420231" data-name="Rectángulo 420231" width="7.112" height="7.112" transform="translate(24.893 13.394)" fill="#6a80ff"/>
      <rect id="Rectángulo_420232" data-name="Rectángulo 420232" width="20.919" height="23.429" transform="translate(3.975 5.236)" fill="#fedc75"/>
      <g id="Grupo_1216285" data-name="Grupo 1216285" transform="translate(1.051 1.046)">
        <path id="Trazado_1162630" data-name="Trazado 1162630" d="M34.791,274.063H12.146a2.1,2.1,0,0,0-2.1,2.1h0a2.1,2.1,0,0,0,2.1,2.1H34.791a2.1,2.1,0,0,0,2.1-2.1h0A2.1,2.1,0,0,0,34.791,274.063Z" transform="translate(-10.051 -246.444)" fill="#fee28c"/>
        <path id="Trazado_1162631" data-name="Trazado 1162631" d="M34.791,10H12.146a2.1,2.1,0,0,0-2.1,2.1h0a2.1,2.1,0,0,0,2.1,2.1H34.791a2.1,2.1,0,0,0,2.1-2.1h0A2.1,2.1,0,0,0,34.791,10Z" transform="translate(-10.051 -10)" fill="#fee28c"/>
      </g>
      <rect id="Rectángulo_420233" data-name="Rectángulo 420233" width="27.011" height="5.194" transform="translate(1.052 47.801)" fill="#8b9cff"/>
      <path id="Trazado_1162632" data-name="Trazado 1162632" d="M52.082,400H34.092A2.092,2.092,0,0,0,32,402.092v2.929H54.174v-2.929A2.092,2.092,0,0,0,52.082,400Z" transform="translate(-28.653 -358.163)" fill="#fee28c"/>
      <path id="Trazado_1162633" data-name="Trazado 1162633" d="M85.9,97.564l-6.89-5.9-6.89,5.9h1.447v7.448H84.456V97.564Z" transform="translate(-64.579 -82.079)" fill="#fff"/>
      <path id="Trazado_1162634" data-name="Trazado 1162634" d="M27.822,395.02H26.567v-1.883A3.141,3.141,0,0,0,23.429,390H18.984a1.046,1.046,0,0,0,0,2.092h4.445a1.047,1.047,0,0,1,1.046,1.046v1.883H4.393v-1.883a1.047,1.047,0,0,1,1.046-1.046h4.55a1.046,1.046,0,0,0,0-2.092H5.439A3.141,3.141,0,0,0,2.3,393.138v1.883H1.046A1.046,1.046,0,0,0,0,396.066v5.648a1.046,1.046,0,0,0,1.046,1.046H27.822a1.046,1.046,0,0,0,1.046-1.046v-5.648A1.046,1.046,0,0,0,27.822,395.02Zm-1.046,5.648H2.092v-3.556H26.776Z" transform="translate(0 -349.209)"/>
      <path id="Trazado_1162635" data-name="Trazado 1162635" d="M52.551,12.349H25.985V6.278A3.141,3.141,0,0,0,25.837,0H3.192a3.141,3.141,0,0,0-.218,6.274V27.627A3.141,3.141,0,0,0,3.192,33.9H25.837a3.141,3.141,0,0,0,.148-6.278v-6.07H37.246a1.046,1.046,0,0,0,0-2.092H25.985V14.44h5.02V16.26a1.046,1.046,0,1,0,2.092,0V14.44H51.505v5.02H46.241a1.046,1.046,0,1,0,0,2.092h6.31A1.046,1.046,0,0,0,53.6,20.507V13.394A1.046,1.046,0,0,0,52.551,12.349ZM5.066,27.619V6.282H23.893V27.619ZM2.143,3.141A1.05,1.05,0,0,1,3.192,2.092H25.837a1.049,1.049,0,0,1,0,2.1H3.192A1.05,1.05,0,0,1,2.143,3.141ZM26.886,30.76a1.05,1.05,0,0,1-1.049,1.049H3.192a1.049,1.049,0,1,1,0-2.1H25.837A1.05,1.05,0,0,1,26.886,30.76Z" transform="translate(-0.046)"/>
      <path id="Trazado_1162636" data-name="Trazado 1162636" d="M390.525,186.06a1.046,1.046,0,1,0,.739.307A1.056,1.056,0,0,0,390.525,186.06Z" transform="translate(-348.742 -166.599)"/>
      <path id="Trazado_1162637" data-name="Trazado 1162637" d="M130.115,391.785a1.045,1.045,0,1,0-.739.307A1.053,1.053,0,0,0,130.115,391.785Z" transform="translate(-114.908 -349.209)"/>
      <path id="Trazado_1162638" data-name="Trazado 1162638" d="M77.628,87.815l-6.89-5.9a1.046,1.046,0,0,0-1.36,0l-6.89,5.9a1.046,1.046,0,0,0,.68,1.841h.4v6.4A1.046,1.046,0,0,0,64.614,97.1H75.5a1.046,1.046,0,0,0,1.046-1.046v-6.4h.4a1.046,1.046,0,0,0,.68-1.841Zm-7.57-3.725,4.059,3.474H66ZM71.1,95.011V92.787a1.046,1.046,0,1,0-2.092,0v2.224H65.66V89.655h8.8v5.356Z" transform="translate(-55.624 -73.125)"/>
    </g>
  </g>
</svg>
