<svg xmlns="http://www.w3.org/2000/svg" xmlns:xlink="http://www.w3.org/1999/xlink" width="93.934" height="93.934" viewBox="0 0 93.934 93.934">
  <defs>
    <filter id="Trazado_982547" x="0" y="0" width="93.934" height="93.934" filterUnits="userSpaceOnUse">
      <feOffset dy="3" input="SourceAlpha"/>
      <feGaussianBlur stdDeviation="3" result="blur"/>
      <feFlood flood-opacity="0.161"/>
      <feComposite operator="in" in2="blur"/>
      <feComposite in="SourceGraphic"/>
    </filter>
  </defs>
  <g id="Grupo_1216301" data-name="Grupo 1216301" transform="translate(-611.066 -1194.697)">
    <g id="Grupo_1215985" data-name="Grupo 1215985" transform="translate(-0.229 -2679.151)">
      <g id="Grupo_1214663" data-name="Grupo 1214663" transform="translate(0 -1254.151)">
        <g id="Grupo_1214433" data-name="Grupo 1214433" transform="translate(-0.771 -2738.674)">
          <g id="Grupo_1183190" data-name="Grupo 1183190" transform="translate(1 1016.674)">
            <g id="Grupo_1179611" data-name="Grupo 1179611" transform="translate(428 4723.467)">
              <g id="Grupo_1175227" data-name="Grupo 1175227" transform="translate(-5.967 140.533)">
                <g id="Grupo_1167337" data-name="Grupo 1167337" transform="translate(198.033 1992)">
                  <g id="Grupo_1166720" data-name="Grupo 1166720">
                    <g id="Grupo_1164305" data-name="Grupo 1164305">
                      <g id="Grupo_1163948" data-name="Grupo 1163948">
                        <g id="Grupo_1158168" data-name="Grupo 1158168">
                          <g id="Grupo_1152576" data-name="Grupo 1152576">
                            <g id="Grupo_1148633" data-name="Grupo 1148633">
                              <g id="Grupo_1148525" data-name="Grupo 1148525">
                                <g transform="matrix(1, 0, 0, 1, -9, -6)" filter="url(#Trazado_982547)">
                                  <g id="Trazado_982547-2" data-name="Trazado 982547" transform="translate(9 6)" fill="#eae4dc">
                                    <path d="M 37.966796875 74.43359375 C 33.04315185546875 74.43359375 28.26757431030273 73.46962738037109 23.77274131774902 71.56847381591797 C 19.43047523498535 69.73184967041016 15.53040790557861 67.10224914550781 12.18087482452393 63.75271987915039 C 8.831341743469238 60.4031867980957 6.201741218566895 56.50312042236328 4.365118980407715 52.16086196899414 C 2.463963508605957 47.66601943969727 1.499996900558472 42.89044189453125 1.499996900558472 37.966796875 C 1.499996900558472 33.04315185546875 2.463963508605957 28.26757431030273 4.365118980407715 23.77274131774902 C 6.201741218566895 19.43047523498535 8.831341743469238 15.53040790557861 12.18087482452393 12.18087482452393 C 15.53040790557861 8.831341743469238 19.43047523498535 6.201741218566895 23.77274131774902 4.365118980407715 C 28.26757431030273 2.463963508605957 33.04315185546875 1.499996900558472 37.966796875 1.499996900558472 C 42.89044189453125 1.499996900558472 47.66601943969727 2.463963508605957 52.16086196899414 4.365118980407715 C 56.50312042236328 6.201741218566895 60.4031867980957 8.831341743469238 63.75271987915039 12.18087482452393 C 67.10224914550781 15.53040790557861 69.73184967041016 19.43047523498535 71.56847381591797 23.77274131774902 C 73.46962738037109 28.26757431030273 74.43359375 33.04315185546875 74.43359375 37.966796875 C 74.43359375 42.89044189453125 73.46962738037109 47.66601943969727 71.56847381591797 52.16086196899414 C 69.73184967041016 56.50313186645508 67.10224914550781 60.4031867980957 63.75271987915039 63.75271987915039 C 60.4031867980957 67.10224914550781 56.50313186645508 69.73184967041016 52.16086196899414 71.56847381591797 C 47.66601943969727 73.46962738037109 42.89044189453125 74.43359375 37.966796875 74.43359375 Z" stroke="none"/>
                                    <path d="M 37.966796875 3 C 33.2449836730957 3 28.66600799560547 3.924095153808594 24.35705947875977 5.746635437011719 C 20.19359588623047 7.507637023925781 16.45379638671875 10.02928161621094 13.24153518676758 13.24153518676758 C 10.02927398681641 16.45379638671875 7.507621765136719 20.19359588623047 5.746635437011719 24.35705947875977 C 3.924095153808594 28.66600799560547 3 33.2449836730957 3 37.966796875 C 3 42.6886100769043 3.924095153808594 47.26758575439453 5.746635437011719 51.57653427124023 C 7.507621765136719 55.73999786376953 10.02927398681641 59.47979736328125 13.24153518676758 62.69205856323242 C 16.45379638671875 65.90431976318359 20.19359588623047 68.42597198486328 24.35705947875977 70.18695831298828 C 28.66600799560547 72.00949859619141 33.2449836730957 72.93359375 37.966796875 72.93359375 C 42.6886100769043 72.93359375 47.26758575439453 72.00949859619141 51.57653427124023 70.18695831298828 C 55.73999786376953 68.42597198486328 59.47979736328125 65.90431976318359 62.69205856323242 62.69205856323242 C 65.90431976318359 59.47979736328125 68.42597198486328 55.73999786376953 70.18695831298828 51.57653427124023 C 72.00949859619141 47.26758575439453 72.93359375 42.6886100769043 72.93359375 37.966796875 C 72.93359375 33.2449836730957 72.00949859619141 28.66600799560547 70.18695831298828 24.35705947875977 C 68.42597198486328 20.19359588623047 65.90431976318359 16.45379638671875 62.69205856323242 13.24153518676758 C 59.47979736328125 10.02928161621094 55.73999786376953 7.507637023925781 51.57653427124023 5.746635437011719 C 47.26758575439453 3.924095153808594 42.6886100769043 3 37.966796875 3 M 37.966796875 0 C 58.93528366088867 0 75.93359375 16.99832153320312 75.93359375 37.966796875 C 75.93359375 58.93528366088867 58.93528366088867 75.93359375 37.966796875 75.93359375 C 16.99831008911133 75.93359375 0 58.93528366088867 0 37.966796875 C 0 16.99832153320312 16.99831008911133 0 37.966796875 0 Z" stroke="none" fill="#665b4e"/>
                                  </g>
                                </g>
                              </g>
                            </g>
                          </g>
                        </g>
                      </g>
                    </g>
                  </g>
                </g>
              </g>
            </g>
          </g>
        </g>
      </g>
    </g>
    <g id="despacho-de-abogados_1_" data-name="despacho-de-abogados (1)" transform="translate(617.984 1194.912)">
      <g id="Grupo_1216299" data-name="Grupo 1216299" transform="translate(16.682 16.695)">
        <g id="Grupo_1216287" data-name="Grupo 1216287" transform="translate(0 0)">
          <path id="Trazado_1162639" data-name="Trazado 1162639" d="M25.3,460.02H68.916a1.46,1.46,0,0,1,1.456,1.456v1.456H23.845v-1.456A1.46,1.46,0,0,1,25.3,460.02Z" transform="translate(-23.74 -416.219)" fill="#a36b4c" fill-rule="evenodd"/>
          <path id="Trazado_1162640" data-name="Trazado 1162640" d="M38.054,460.02H80.391a1.461,1.461,0,0,1,1.456,1.456v1.456H36.6v-1.456a1.461,1.461,0,0,1,1.456-1.456Z" transform="translate(-35.216 -416.219)" fill="#b17852" fill-rule="evenodd"/>
          <path id="Trazado_1162641" data-name="Trazado 1162641" d="M23.094,35.645H69.246a.293.293,0,0,0,.292-.292V32.626a.287.287,0,0,0-.182-.27L46.28,22.937a.282.282,0,0,0-.221,0L22.984,32.356a.287.287,0,0,0-.182.27v2.727a.293.293,0,0,0,.292.292Z" transform="translate(-22.802 -22.915)" fill="#a7733e" fill-rule="evenodd"/>
          <path id="Trazado_1162642" data-name="Trazado 1162642" d="M46.414,39.725H90.229a.293.293,0,0,0,.292-.292V36.706a.287.287,0,0,0-.182-.27L68.321,27.449,46.3,36.436a.287.287,0,0,0-.182.27v2.727a.293.293,0,0,0,.292.292Z" transform="translate(-43.785 -26.995)" fill="#b4813a" fill-rule="evenodd"/>
        </g>
        <g id="Grupo_1216292" data-name="Grupo 1216292" transform="translate(2.258 12.73)">
          <g id="Grupo_1216289" data-name="Grupo 1216289" transform="translate(36.233)">
            <path id="Trazado_1162643" data-name="Trazado 1162643" d="M422.336,180.179h2.9v25.013h-2.9Z" transform="translate(-420.791 -177.15)" fill="#b4813a"/>
            <g id="Grupo_1216288" data-name="Grupo 1216288">
              <path id="Trazado_1162644" data-name="Trazado 1162644" d="M406.917,149.954H412.9v3.029h-5.987Z" transform="translate(-406.917 -149.954)" fill="#b17852"/>
              <path id="Trazado_1162645" data-name="Trazado 1162645" d="M406.917,429.8H412.9v3.029h-5.987Z" transform="translate(-406.917 -401.754)" fill="#b17852"/>
            </g>
          </g>
          <g id="Grupo_1216291" data-name="Grupo 1216291">
            <path id="Trazado_1162646" data-name="Trazado 1162646" d="M60.755,180.179h2.9v25.013h-2.9Z" transform="translate(-59.21 -177.15)" fill="#b4813a"/>
            <g id="Grupo_1216290" data-name="Grupo 1216290">
              <path id="Trazado_1162647" data-name="Trazado 1162647" d="M45.336,149.954h5.987v3.029H45.336Z" transform="translate(-45.336 -149.954)" fill="#b17852"/>
              <path id="Trazado_1162648" data-name="Trazado 1162648" d="M45.336,429.8h5.987v3.029H45.336Z" transform="translate(-45.336 -401.754)" fill="#b17852"/>
            </g>
          </g>
        </g>
        <g id="Grupo_1216294" data-name="Grupo 1216294" transform="translate(2.258 12.73)">
          <path id="Trazado_1162649" data-name="Trazado 1162649" d="M60.755,180.179h1.024v25.013H60.755Z" transform="translate(-59.21 -177.15)" fill="#a7733e"/>
          <g id="Grupo_1216293" data-name="Grupo 1216293">
            <path id="Trazado_1162650" data-name="Trazado 1162650" d="M45.336,149.956h1v3.029h-1Z" transform="translate(-45.336 -149.956)" fill="#a46b4d"/>
            <path id="Trazado_1162651" data-name="Trazado 1162651" d="M45.336,429.8h1v3.029h-1Z" transform="translate(-45.336 -401.753)" fill="#a46b4d"/>
          </g>
        </g>
        <rect id="Rect치ngulo_420234" data-name="Rect치ngulo 420234" width="26.229" height="2.326" rx="1.163" transform="translate(10.253 20.616)" fill="#a7733e"/>
        <path id="Trazado_1162652" data-name="Trazado 1162652" d="M151.58,234.662a1.168,1.168,0,0,1-1.135.908h-23.9a.93.93,0,1,1,0-1.815h23.9A1.168,1.168,0,0,1,151.58,234.662Z" transform="translate(-115.126 -212.627)" fill="#b4813a" fill-rule="evenodd"/>
        <path id="Trazado_1162653" data-name="Trazado 1162653" d="M245.555,180.468a1.164,1.164,0,0,1,1.163,1.163v25.687a1.163,1.163,0,1,1-2.326,0V181.631a1.164,1.164,0,0,1,1.163-1.163Z" transform="translate(-222.187 -164.68)" fill="#b4813a"/>
        <path id="Trazado_1162654" data-name="Trazado 1162654" d="M244.477,208.644a1.152,1.152,0,0,1-.085-.435V182.523a1.167,1.167,0,0,1,.694-1.064v27.185h-.609Z" transform="translate(-222.187 -165.572)" fill="#a7733e" fill-rule="evenodd"/>
        <g id="Grupo_1216295" data-name="Grupo 1216295" transform="translate(29.836 23.53)">
          <path id="Trazado_1162655" data-name="Trazado 1162655" d="M327.838,355.178a3.646,3.646,0,1,1-7.292,0Z" transform="translate(-320.546 -345.413)" fill="#aa763d" fill-rule="evenodd"/>
          <path id="Trazado_1162656" data-name="Trazado 1162656" d="M335.378,355.178a3.248,3.248,0,1,1-6.452,0Z" transform="translate(-328.086 -345.413)" fill="#b4813a" fill-rule="evenodd"/>
          <path id="Trazado_1162657" data-name="Trazado 1162657" d="M323.917,257.924l-3.371,9.57h7.292l-3.371-9.57a.292.292,0,0,0-.551,0Z" transform="translate(-320.546 -257.729)" fill="#c79736" fill-rule="evenodd"/>
          <path id="Trazado_1162658" data-name="Trazado 1162658" d="M328.927,272.927h6.452l-3.226-9.16Z" transform="translate(-328.087 -263.162)" fill="#cd9e34" fill-rule="evenodd"/>
        </g>
        <path id="Trazado_1162659" data-name="Trazado 1162659" d="M198.082,430.955h8.987a1.46,1.46,0,0,1,1.456,1.456v1.456h-11.9v-1.456a1.46,1.46,0,0,1,1.456-1.456Z" transform="translate(-179.208 -390.067)" fill="#b17852" fill-rule="evenodd"/>
        <path id="Trazado_1162660" data-name="Trazado 1162660" d="M196.627,452.754h11.9v.728h-11.9Z" transform="translate(-179.209 -409.681)" fill="#a36b4c"/>
        <circle id="Elipse_14352" data-name="Elipse 14352" cx="3.022" cy="3.022" r="3.022" transform="translate(20.206 19.194) rotate(-2.579)" fill="#eac165"/>
        <rect id="Rect치ngulo_420235" data-name="Rect치ngulo 420235" width="16.063" height="2.653" rx="1.327" transform="translate(15.674 6.706)" fill="#eac165"/>
        <g id="Grupo_1216296" data-name="Grupo 1216296" transform="translate(9.608 23.53)">
          <path id="Trazado_1162661" data-name="Trazado 1162661" d="M125.976,355.178a3.646,3.646,0,0,1-7.292,0Z" transform="translate(-118.684 -345.413)" fill="#aa763d" fill-rule="evenodd"/>
          <path id="Trazado_1162662" data-name="Trazado 1162662" d="M133.516,355.178a3.248,3.248,0,1,1-6.452,0Z" transform="translate(-126.224 -345.413)" fill="#b4813a" fill-rule="evenodd"/>
          <path id="Trazado_1162663" data-name="Trazado 1162663" d="M122.055,257.924l-3.371,9.57h7.292l-3.371-9.57a.292.292,0,0,0-.551,0Z" transform="translate(-118.684 -257.729)" fill="#c79736" fill-rule="evenodd"/>
          <path id="Trazado_1162664" data-name="Trazado 1162664" d="M127.065,272.927h6.452l-3.226-9.16Z" transform="translate(-126.225 -263.162)" fill="#cd9e34" fill-rule="evenodd"/>
        </g>
        <g id="Grupo_1216298" data-name="Grupo 1216298" transform="translate(38.491 12.73)">
          <path id="Trazado_1162665" data-name="Trazado 1162665" d="M422.336,180.179h1.024v25.013h-1.024Z" transform="translate(-420.791 -177.15)" fill="#a7733e"/>
          <g id="Grupo_1216297" data-name="Grupo 1216297">
            <path id="Trazado_1162666" data-name="Trazado 1162666" d="M406.917,149.956h1v3.029h-1Z" transform="translate(-406.917 -149.956)" fill="#a46b4d"/>
            <path id="Trazado_1162667" data-name="Trazado 1162667" d="M406.917,429.8h1v3.029h-1Z" transform="translate(-406.917 -401.753)" fill="#a46b4d"/>
          </g>
        </g>
      </g>
      <g id="Grupo_1216300" data-name="Grupo 1216300" transform="translate(16 16.002)">
        <path id="Trazado_1162668" data-name="Trazado 1162668" d="M18.4,456.236H63.566v-.775a.775.775,0,0,0-.774-.775H19.177a.776.776,0,0,0-.775.775v.775ZM64.247,457.6H17.721a.683.683,0,0,1-.682-.682v-1.457a2.14,2.14,0,0,1,2.138-2.138H62.791a2.14,2.14,0,0,1,2.137,2.138v1.457a.682.682,0,0,1-.681.682Z" transform="translate(-16.935 -409.501)" fill-rule="evenodd"/>
        <path id="Trazado_1162669" data-name="Trazado 1162669" d="M17.363,28.754H62.736V26.679l-22.686-9.26-22.686,9.26v2.075Zm46.054,1.363H16.682A.681.681,0,0,1,16,29.435V26.22a.682.682,0,0,1,.423-.631l23.368-9.537a.684.684,0,0,1,.515,0l23.368,9.537a.682.682,0,0,1,.424.631v3.215a.681.681,0,0,1-.681.682Z" transform="translate(-16 -16.002)" fill-rule="evenodd"/>
        <path id="Trazado_1162670" data-name="Trazado 1162670" d="M416.217,199.524a.682.682,0,0,1-.682-.682V173.984a.682.682,0,0,1,1.363,0v24.859a.682.682,0,0,1-.681.682Zm2.9,0a.682.682,0,0,1-.682-.682V173.984a.682.682,0,1,1,1.363,0v24.859a.682.682,0,0,1-.681.682Z" transform="translate(-375.499 -157.54)" fill-rule="evenodd"/>
        <path id="Trazado_1162671" data-name="Trazado 1162671" d="M406.784,425.748a.681.681,0,0,1-.682-.682v-2.328h-4.624v2.328a.682.682,0,0,1-1.363,0v-3.01a.681.681,0,0,1,.682-.682h5.987a.682.682,0,0,1,.681.682v3.009A.682.682,0,0,1,406.784,425.748Z" transform="translate(-361.624 -380.754)" fill-rule="evenodd"/>
        <path id="Trazado_1162672" data-name="Trazado 1162672" d="M54.634,199.524a.682.682,0,0,1-.682-.682V173.984a.682.682,0,0,1,1.363,0v24.859a.682.682,0,0,1-.682.682Zm2.9,0a.682.682,0,0,1-.682-.682V173.984a.681.681,0,1,1,1.363,0v24.859A.681.681,0,0,1,57.53,199.524Z" transform="translate(-50.149 -157.54)" fill-rule="evenodd"/>
        <path id="Trazado_1162673" data-name="Trazado 1162673" d="M45.2,425.748a.681.681,0,0,1-.682-.682v-2.328H39.9v2.328a.682.682,0,1,1-1.363,0v-3.01a.681.681,0,0,1,.681-.682H45.2a.681.681,0,0,1,.682.682v3.009A.681.681,0,0,1,45.2,425.748Z" transform="translate(-36.275 -380.754)" fill-rule="evenodd"/>
        <path id="Trazado_1162674" data-name="Trazado 1162674" d="M129.217,225.651H120.16a1.845,1.845,0,1,1,0-3.689h9.3a.682.682,0,1,1,0,1.363h-9.3a.481.481,0,1,0,0,.963h9.057a.682.682,0,0,1,0,1.363Zm14.846,0h-9.058a.682.682,0,1,1,0-1.363h9.058a.481.481,0,0,0,0-.963h-9.3a.682.682,0,1,1,0-1.363h9.3a1.845,1.845,0,0,1,0,3.689Z" transform="translate(-108.062 -201.324)" fill-rule="evenodd"/>
        <path id="Trazado_1162675" data-name="Trazado 1162675" d="M238.269,178.632a.682.682,0,0,1-.682-.681v-2.327a1.845,1.845,0,1,1,3.689,0v2.327a.682.682,0,1,1-1.363,0v-2.327a.482.482,0,1,0-.963,0v2.327a.682.682,0,0,1-.681.682Zm0,21.609a.682.682,0,0,1-.682-.682V183.531a.682.682,0,1,1,1.363,0V199.56a.681.681,0,0,1-.681.682Zm2.326,0a.682.682,0,0,1-.682-.682V183.531a.682.682,0,1,1,1.363,0V199.56a.681.681,0,0,1-.682.682Z" transform="translate(-215.383 -157.968)" fill-rule="evenodd"/>
        <path id="Trazado_1162676" data-name="Trazado 1162676" d="M116.21,353.491a4.332,4.332,0,0,1-4.327-4.328.682.682,0,0,1,1.363,0,2.964,2.964,0,1,0,5.929,0,.682.682,0,0,1,1.363,0,4.333,4.333,0,0,1-4.328,4.328Z" transform="translate(-102.275 -315.165)" fill-rule="evenodd"/>
        <path id="Trazado_1162677" data-name="Trazado 1162677" d="M113.523,255.529h2v-5.683Zm2.683,1.363h-3.645a.681.681,0,0,1-.644-.907l3.646-10.352a.681.681,0,0,1,1.324.226v10.352a.681.681,0,0,1-.682.682Z" transform="translate(-102.271 -222.213)" fill-rule="evenodd"/>
        <path id="Trazado_1162678" data-name="Trazado 1162678" d="M152.59,256.892h-3.646a.682.682,0,0,1,0-1.363h2.684l-3.326-9.444a.682.682,0,1,1,1.286-.453l3.646,10.352a.681.681,0,0,1-.643.907Z" transform="translate(-135.009 -222.213)" fill-rule="evenodd"/>
        <path id="Trazado_1162679" data-name="Trazado 1162679" d="M318.071,353.491a4.333,4.333,0,0,1-4.327-4.328.682.682,0,0,1,1.363,0,2.964,2.964,0,1,0,5.929,0,.682.682,0,0,1,1.363,0,4.333,4.333,0,0,1-4.328,4.328Z" transform="translate(-283.908 -315.165)" fill-rule="evenodd"/>
        <path id="Trazado_1162680" data-name="Trazado 1162680" d="M315.384,255.529h2v-5.683Zm2.683,1.363h-3.645a.681.681,0,0,1-.644-.907l3.646-10.352a.681.681,0,0,1,1.324.226v10.352a.681.681,0,0,1-.682.682Z" transform="translate(-283.904 -222.213)" fill-rule="evenodd"/>
        <path id="Trazado_1162681" data-name="Trazado 1162681" d="M354.452,256.892h-3.646a.682.682,0,1,1,0-1.363h2.683l-3.326-9.444a.682.682,0,1,1,1.286-.453l3.645,10.352a.681.681,0,0,1-.643.907Z" transform="translate(-316.643 -222.213)" fill-rule="evenodd"/>
        <path id="Trazado_1162682" data-name="Trazado 1162682" d="M202.4,428.538a.682.682,0,0,1-.682-.681V426.4a.776.776,0,0,0-.774-.775h-8.987a.776.776,0,0,0-.775.775v1.455a.682.682,0,1,1-1.363,0V426.4a2.14,2.14,0,0,1,2.138-2.138h8.987a2.14,2.14,0,0,1,2.137,2.138v1.456a.681.681,0,0,1-.681.682Z" transform="translate(-172.403 -383.353)" fill-rule="evenodd"/>
        <path id="Trazado_1162683" data-name="Trazado 1162683" d="M222.742,207.662A2.341,2.341,0,1,0,225.083,210a2.343,2.343,0,0,0-2.341-2.341Zm0,6.045a3.7,3.7,0,1,1,3.7-3.7,3.708,3.708,0,0,1-3.7,3.7Z" transform="translate(-198.692 -187.23)" fill-rule="evenodd"/>
        <path id="Trazado_1162684" data-name="Trazado 1162684" d="M174.426,84.5a.645.645,0,0,0,0,1.29h13.409a.645.645,0,1,0,0-1.29Zm13.409,2.653H174.426a2.008,2.008,0,0,1,0-4.016h13.409a2.008,2.008,0,1,1,0,4.016Z" transform="translate(-156.744 -76.413)" fill-rule="evenodd"/>
        <path id="Trazado_1162685" data-name="Trazado 1162685" d="M406.783,147.631H400.8a.682.682,0,0,1-.682-.682v-3.011a.682.682,0,0,1,1.363,0v2.329H406.1v-2.329a.681.681,0,1,1,1.363,0v3.01A.682.682,0,0,1,406.783,147.631Z" transform="translate(-361.624 -130.505)" fill-rule="evenodd"/>
        <path id="Trazado_1162686" data-name="Trazado 1162686" d="M45.2,147.631H39.214a.682.682,0,0,1-.682-.682v-3.011a.682.682,0,1,1,1.363,0v2.329h4.624v-2.329a.682.682,0,1,1,1.363,0v3.01a.682.682,0,0,1-.682.682Z" transform="translate(-36.274 -130.505)" fill-rule="evenodd"/>
      </g>
    </g>
  </g>
</svg>
