<svg xmlns="http://www.w3.org/2000/svg" xmlns:xlink="http://www.w3.org/1999/xlink" width="291" height="189" viewBox="0 0 291 189">
  <defs>
    <clipPath id="clip-path">
      <rect id="Rectángulo_420729" data-name="Rectángulo 420729" width="291" height="189" transform="translate(285 2318)" fill="#fff" stroke="#707070" stroke-width="1"/>
    </clipPath>
  </defs>
  <g id="Enmascarar_grupo_1153314" data-name="Enmascarar grupo 1153314" transform="translate(-285 -2318)" clip-path="url(#clip-path)">
    <g id="Grupo_1218199" data-name="Grupo 1218199" transform="translate(295.857 2294.668)">
      <g id="Grupo_1218198" data-name="Grupo 1218198" transform="translate(46.305 28.357)">
        <g id="Grupo_1218056" data-name="Grupo 1218056" transform="translate(19.33 0)">
          <g id="Grupo_1218035" data-name="Grupo 1218035">
            <g id="Grupo_1217983" data-name="Grupo 1217983">
              <g id="Grupo_1217978" data-name="Grupo 1217978" transform="translate(0 20.437)">
                <g id="Grupo_1217970" data-name="Grupo 1217970" transform="translate(13.485)">
                  <rect id="Rectángulo_420725" data-name="Rectángulo 420725" width="113.786" height="147.394" fill="#526667"/>
                </g>
                <g id="Grupo_1217971" data-name="Grupo 1217971" transform="translate(22.827 7.052)">
                  <rect id="Rectángulo_420726" data-name="Rectángulo 420726" width="100.041" height="136.816" fill="#344949"/>
                </g>
                <g id="Grupo_1217976" data-name="Grupo 1217976" transform="translate(0 18.236)">
                  <g id="Grupo_1217972" data-name="Grupo 1217972">
                    <path id="Trazado_1167546" data-name="Trazado 1167546" d="M115.628,104.337c18.729,12.932-.029,41.109-19.184,28.823C77.716,120.229,96.474,92.052,115.628,104.337Z" transform="translate(-88.704 -101.306)" fill="#f5ce73"/>
                  </g>
                  <g id="Grupo_1217974" data-name="Grupo 1217974" transform="translate(8.064 9.004)">
                    <g id="Grupo_1217973" data-name="Grupo 1217973">
                      <path id="Trazado_1167547" data-name="Trazado 1167547" d="M124.274,129.447a6.488,6.488,0,0,1-.871,4.1l2.106,1.4-1.026,1.542L122.4,135.1a9.976,9.976,0,0,1-4.626,3.568l-1.336-2.11a8.642,8.642,0,0,0,3.932-2.809l-3.76-2.5c-4.164,5.315-11.16.9-7.671-5.106l-2.125-1.414,1.026-1.542,2.087,1.389a9.682,9.682,0,0,1,3.687-3.054L115,123.557a9.407,9.407,0,0,0-3.043,2.37l3.8,2.528C118.236,125.255,123.369,124.877,124.274,129.447Zm-11.521,1.271a5.082,5.082,0,0,0,1.578-.985l-3.346-2.227C110.073,129.021,110.9,131.214,112.752,130.718Zm9-.4c-.4-2.013-2.508-1.635-3.727-.351l3.328,2.215A3.364,3.364,0,0,0,121.753,130.32Z" transform="translate(-106.809 -121.522)" fill="#ff7f4d"/>
                    </g>
                  </g>
                  <g id="Grupo_1217975" data-name="Grupo 1217975" transform="translate(2.32 2.326)">
                    <path id="Trazado_1167548" data-name="Trazado 1167548" d="M109,136.763a15.417,15.417,0,0,1-8.373-2.637c-8.363-5.774-7.936-14.762-4-20.67s12.058-9.771,20.6-4.291l.008.005c8.355,5.769,7.928,14.756,3.995,20.665A14.959,14.959,0,0,1,109,136.763Zm-.135-29.66a14.4,14.4,0,0,0-11.77,6.666c-3.785,5.686-4.2,14.334,3.845,19.886,8.217,5.27,16.036,1.553,19.821-4.133s4.2-14.332-3.842-19.884A14.832,14.832,0,0,0,108.863,107.1Z" transform="translate(-93.912 -106.528)" fill="#ff7f4d"/>
                  </g>
                </g>
                <g id="Grupo_1217977" data-name="Grupo 1217977" transform="translate(20.735 4.893)">
                  <rect id="Rectángulo_420727" data-name="Rectángulo 420727" width="100.041" height="136.816" fill="#fff"/>
                </g>
              </g>
              <g id="Grupo_1217982" data-name="Grupo 1217982" transform="translate(43.876)">
                <g id="Grupo_1217979" data-name="Grupo 1217979" transform="translate(0 13.246)">
                  <rect id="Rectángulo_420728" data-name="Rectángulo 420728" width="53.003" height="19.151" fill="#f5ce73"/>
                </g>
                <g id="Grupo_1217980" data-name="Grupo 1217980" transform="translate(8.651)">
                  <path id="Trazado_1167549" data-name="Trazado 1167549" d="M224.486,14.478a17.851,17.851,0,0,0-17.851,17.851h35.7A17.851,17.851,0,0,0,224.486,14.478Z" transform="translate(-206.635 -14.478)" fill="#f5ce73"/>
                </g>
                <g id="Grupo_1217981" data-name="Grupo 1217981" transform="translate(17.576 5.694)">
                  <path id="Trazado_1167550" data-name="Trazado 1167550" d="M235.6,27.261c-4.929,0-8.925,3.381-8.925,7.553h17.851C244.525,30.642,240.529,27.261,235.6,27.261Z" transform="translate(-226.674 -27.261)" fill="#ff7f4d"/>
                </g>
              </g>
            </g>
            <g id="Grupo_1218034" data-name="Grupo 1218034" transform="translate(26.199 43.751)">
              <g id="Grupo_1217998" data-name="Grupo 1217998">
                <g id="Grupo_1217984" data-name="Grupo 1217984" transform="translate(26.55 0)">
                  <path id="Trazado_1167551" data-name="Trazado 1167551" d="M211.612,130.381a4.376,4.376,0,0,1-3.427-1.183,5.589,5.589,0,0,1-1.05-3.768v-1.7h3.432v2.17a2.016,2.016,0,0,0,.183.942.659.659,0,0,0,.636.34.728.728,0,0,0,.656-.276,1.7,1.7,0,0,0,.183-.908,4.822,4.822,0,0,0-.158-1.336,2.993,2.993,0,0,0-.547-1.026,11.563,11.563,0,0,0-1.08-1.139l-1.558-1.479a5.052,5.052,0,0,1-1.746-3.768,4.95,4.95,0,0,1,1.031-3.383,3.774,3.774,0,0,1,2.983-1.164,4.063,4.063,0,0,1,3.388,1.272,6.2,6.2,0,0,1,1,3.866h-3.531v-1.193a.736.736,0,0,0-.2-.552.884.884,0,0,0-1.154.035.9.9,0,0,0-.192.6,1.876,1.876,0,0,0,.2.789,3.5,3.5,0,0,0,.779.976l2,1.923a11.586,11.586,0,0,1,1.1,1.208,5.249,5.249,0,0,1,.809,1.479,6.061,6.061,0,0,1,.306,2.056,6.976,6.976,0,0,1-.9,3.832A3.463,3.463,0,0,1,211.612,130.381Z" transform="translate(-207.134 -112.707)" fill="#ff7f4d"/>
                </g>
                <g id="Grupo_1217985" data-name="Grupo 1217985" transform="translate(35.654 0.158)">
                  <path id="Trazado_1167552" data-name="Trazado 1167552" d="M229.633,130.419V116.394h-2.061v-3.333h7.594v3.333H233.1v14.025Z" transform="translate(-227.572 -113.061)" fill="#ff7f4d"/>
                </g>
                <g id="Grupo_1217986" data-name="Grupo 1217986" transform="translate(44.076)">
                  <path id="Trazado_1167553" data-name="Trazado 1167553" d="M250.763,130.381a4,4,0,0,1-3.181-1.257,5.36,5.36,0,0,1-1.1-3.634v-8.245a4.749,4.749,0,0,1,1.09-3.383,4.988,4.988,0,0,1,6.381,0,4.751,4.751,0,0,1,1.09,3.383v8.245a5.36,5.36,0,0,1-1.1,3.634A4,4,0,0,1,250.763,130.381Zm.03-3.2q.789,0,.789-1.529v-8.472q0-1.282-.77-1.282-.868,0-.868,1.312v8.462a2.5,2.5,0,0,0,.2,1.159A.689.689,0,0,0,250.793,127.185Z" transform="translate(-246.482 -112.707)" fill="#ff7f4d"/>
                </g>
                <g id="Grupo_1217987" data-name="Grupo 1217987" transform="translate(54.038 0.158)">
                  <path id="Trazado_1167554" data-name="Trazado 1167554" d="M268.848,130.419V113.061h4.586a3.689,3.689,0,0,1,2.284.641,3.509,3.509,0,0,1,1.208,1.824,9.636,9.636,0,0,1,.365,2.821,10.927,10.927,0,0,1-.306,2.747,3.345,3.345,0,0,1-1.089,1.81,3.43,3.43,0,0,1-2.224.641H272.26v6.874h-3.412Zm3.412-9.991h.2q.966,0,1.183-.543a4.522,4.522,0,0,0,.217-1.6,4.3,4.3,0,0,0-.212-1.524.949.949,0,0,0-1-.538h-.384v4.2Z" transform="translate(-268.848 -113.061)" fill="#ff7f4d"/>
                </g>
                <g id="Grupo_1217988" data-name="Grupo 1217988" transform="translate(0 24.238)">
                  <path id="Trazado_1167555" data-name="Trazado 1167555" d="M151.706,184.8a4.051,4.051,0,0,1-3.033-1.174,4.5,4.5,0,0,1-1.149-3.284v-8.008a6.382,6.382,0,0,1,1-3.866,3.8,3.8,0,0,1,3.259-1.342,5.085,5.085,0,0,1,2.195.454,3.478,3.478,0,0,1,1.514,1.356,4.288,4.288,0,0,1,.552,2.273v3h-3.452v-2.564a1.933,1.933,0,0,0-.2-1.05.705.705,0,0,0-.612-.271.652.652,0,0,0-.651.35,2.179,2.179,0,0,0-.167.932v8.689a1.812,1.812,0,0,0,.212,1.016.7.7,0,0,0,.607.3.643.643,0,0,0,.626-.365,2.119,2.119,0,0,0,.183-.946v-3.127h3.492v3.284a4.247,4.247,0,0,1-1.154,3.319A4.675,4.675,0,0,1,151.706,184.8Z" transform="translate(-147.524 -167.126)" fill="#ff7f4d"/>
                </g>
                <g id="Grupo_1217989" data-name="Grupo 1217989" transform="translate(9.577 24.238)">
                  <path id="Trazado_1167556" data-name="Trazado 1167556" d="M173.305,184.8a4,4,0,0,1-3.181-1.257,5.36,5.36,0,0,1-1.1-3.634v-8.245a4.751,4.751,0,0,1,1.09-3.383,4.988,4.988,0,0,1,6.382,0,4.751,4.751,0,0,1,1.09,3.383v8.245a5.36,5.36,0,0,1-1.1,3.634A4,4,0,0,1,173.305,184.8Zm.03-3.2q.789,0,.789-1.529V171.6q0-1.282-.769-1.282-.868,0-.868,1.312V180.1a2.5,2.5,0,0,0,.2,1.159A.689.689,0,0,0,173.335,181.6Z" transform="translate(-169.025 -167.126)" fill="#ff7f4d"/>
                </g>
                <g id="Grupo_1217990" data-name="Grupo 1217990" transform="translate(19.538 24.396)">
                  <path id="Trazado_1167557" data-name="Trazado 1167557" d="M191.39,184.838V167.48h5.326a2.937,2.937,0,0,1,2.012.607,3.042,3.042,0,0,1,.912,1.7,12.427,12.427,0,0,1,.232,2.559,5.915,5.915,0,0,1-.36,2.268,2.081,2.081,0,0,1-1.356,1.174,1.556,1.556,0,0,1,1.149.814,3.668,3.668,0,0,1,.33,1.672v6.569h-3.422v-6.8q0-.76-.31-.942a2.065,2.065,0,0,0-1-.183v7.92Zm3.531-10.928h.838q.72,0,.72-1.568a3.565,3.565,0,0,0-.158-1.331.6.6,0,0,0-.592-.315h-.809v3.215Z" transform="translate(-191.39 -167.48)" fill="#ff7f4d"/>
                </g>
                <g id="Grupo_1217991" data-name="Grupo 1217991" transform="translate(29.164 24.396)">
                  <path id="Trazado_1167558" data-name="Trazado 1167558" d="M213,184.838V167.48h5.326a2.937,2.937,0,0,1,2.012.607,3.042,3.042,0,0,1,.912,1.7,12.426,12.426,0,0,1,.232,2.559,5.915,5.915,0,0,1-.36,2.268,2.081,2.081,0,0,1-1.356,1.174,1.556,1.556,0,0,1,1.149.814,3.668,3.668,0,0,1,.33,1.672v6.569h-3.422v-6.8q0-.76-.31-.942a2.065,2.065,0,0,0-1-.183v7.92Zm3.531-10.928h.838q.72,0,.72-1.568a3.565,3.565,0,0,0-.158-1.331.6.6,0,0,0-.592-.315h-.809Z" transform="translate(-213.002 -167.48)" fill="#ff7f4d"/>
                </g>
                <g id="Grupo_1217992" data-name="Grupo 1217992" transform="translate(38.583 24.396)">
                  <path id="Trazado_1167559" data-name="Trazado 1167559" d="M238.371,185a3.947,3.947,0,0,1-3.2-1.218,5.441,5.441,0,0,1-1.026-3.585V167.48h3.373v12.575a6.8,6.8,0,0,0,.049.834,1.453,1.453,0,0,0,.227.656.647.647,0,0,0,.572.257.662.662,0,0,0,.582-.251,1.384,1.384,0,0,0,.222-.656,7.728,7.728,0,0,0,.045-.838V167.48h3.373v12.713a5.441,5.441,0,0,1-1.026,3.585A3.947,3.947,0,0,1,238.371,185Z" transform="translate(-234.149 -167.48)" fill="#ff7f4d"/>
                </g>
                <g id="Grupo_1217993" data-name="Grupo 1217993" transform="translate(48.357 24.396)">
                  <path id="Trazado_1167560" data-name="Trazado 1167560" d="M256.093,184.838V167.48h4.586a3.689,3.689,0,0,1,2.284.641,3.509,3.509,0,0,1,1.208,1.824,9.638,9.638,0,0,1,.365,2.821,10.927,10.927,0,0,1-.306,2.747,3.345,3.345,0,0,1-1.089,1.81,3.43,3.43,0,0,1-2.224.641h-1.411v6.874h-3.412Zm3.413-9.991h.2q.966,0,1.183-.543a4.524,4.524,0,0,0,.216-1.6,4.3,4.3,0,0,0-.212-1.524.949.949,0,0,0-1-.538h-.384v4.2Z" transform="translate(-256.093 -167.48)" fill="#ff7f4d"/>
                </g>
                <g id="Grupo_1217994" data-name="Grupo 1217994" transform="translate(57.322 24.396)">
                  <path id="Trazado_1167561" data-name="Trazado 1167561" d="M278.283,184.838V170.813h-2.062V167.48h7.595v3.333h-2.061v14.025Z" transform="translate(-276.221 -167.48)" fill="#ff7f4d"/>
                </g>
                <g id="Grupo_1217995" data-name="Grupo 1217995" transform="translate(65.726 24.396)">
                  <path id="Trazado_1167562" data-name="Trazado 1167562" d="M295.089,184.838V167.48h3.353v17.358Z" transform="translate(-295.089 -167.48)" fill="#ff7f4d"/>
                </g>
                <g id="Grupo_1217996" data-name="Grupo 1217996" transform="translate(70.321 24.238)">
                  <path id="Trazado_1167563" data-name="Trazado 1167563" d="M309.687,184.8a4,4,0,0,1-3.181-1.257,5.36,5.36,0,0,1-1.1-3.634v-8.245a4.749,4.749,0,0,1,1.09-3.383,4.987,4.987,0,0,1,6.381,0,4.751,4.751,0,0,1,1.09,3.383v8.245a5.36,5.36,0,0,1-1.1,3.634A4,4,0,0,1,309.687,184.8Zm.03-3.2q.789,0,.789-1.529V171.6q0-1.282-.77-1.282-.868,0-.868,1.312V180.1a2.5,2.5,0,0,0,.2,1.159A.689.689,0,0,0,309.717,181.6Z" transform="translate(-305.406 -167.126)" fill="#ff7f4d"/>
                </g>
                <g id="Grupo_1217997" data-name="Grupo 1217997" transform="translate(80.283 24.396)">
                  <path id="Trazado_1167564" data-name="Trazado 1167564" d="M327.772,184.838V167.48h3.57l1.6,8.314V167.48h3.353v17.358H332.9l-1.736-8.679v8.679Z" transform="translate(-327.772 -167.48)" fill="#ff7f4d"/>
                </g>
              </g>
              <g id="Grupo_1218033" data-name="Grupo 1218033" transform="translate(0.944 51.639)">
                <g id="Grupo_1218012" data-name="Grupo 1218012" transform="translate(7.603)">
                  <g id="Grupo_1217999" data-name="Grupo 1217999" transform="translate(0 0)">
                    <path id="Trazado_1167565" data-name="Trazado 1167565" d="M166.715,236.576V234.9h.51v-4.587h-.51v-1.672h3.873v1.672h-.51V234.9h.51v1.672Z" transform="translate(-166.715 -228.646)" fill="#526667"/>
                  </g>
                  <g id="Grupo_1218000" data-name="Grupo 1218000" transform="translate(4.261 2.121)">
                    <path id="Trazado_1167566" data-name="Trazado 1167566" d="M183.049,237.544v1.672h-3.221v-1.672h.428v-1.672a.724.724,0,0,0-.143-.494.549.549,0,0,0-.428-.158q-.612,0-.612.653v1.672h.428v1.672h-3.221v-1.672h.449V235.22h-.449v-1.672h2.793v.8a2.243,2.243,0,0,1,1.835-.938,1.526,1.526,0,0,1,1.269.53,2.276,2.276,0,0,1,.423,1.457v2.151Z" transform="translate(-176.282 -233.406)" fill="#526667"/>
                  </g>
                  <g id="Grupo_1218001" data-name="Grupo 1218001" transform="translate(11.253 1.06)">
                    <path id="Trazado_1167567" data-name="Trazado 1167567" d="M192.973,237.513a2.385,2.385,0,0,1-.545-1.769V233.9h-.449v-1.672a.775.775,0,0,0,.581-.2.749.749,0,0,0,.194-.546v-.459h2.161v1.2h1.376V233.9h-1.376v1.672a.705.705,0,0,0,.148.494.58.58,0,0,0,.444.158,4.345,4.345,0,0,0,.846-.092v1.6a4.69,4.69,0,0,1-.77.209,5,5,0,0,1-.983.1A2.257,2.257,0,0,1,192.973,237.513Z" transform="translate(-191.979 -231.025)" fill="#526667"/>
                  </g>
                  <g id="Grupo_1218002" data-name="Grupo 1218002" transform="translate(15.91 2.12)">
                    <path id="Trazado_1167568" data-name="Trazado 1167568" d="M203.252,238.6a3.421,3.421,0,0,1,0-4.434,3.194,3.194,0,0,1,2.263-.759,2.585,2.585,0,0,1,2.074.749,2.773,2.773,0,0,1,.637,1.86v.734h-3.3v.061a.667.667,0,0,0,.224.555,1.207,1.207,0,0,0,.744.178,7.333,7.333,0,0,0,1.182-.092,6.118,6.118,0,0,0,.979-.234v1.631a4.3,4.3,0,0,1-1.044.352,6.657,6.657,0,0,1-1.493.158A3.189,3.189,0,0,1,203.252,238.6Zm2.854-2.971v-.122a.7.7,0,0,0-.148-.5.589.589,0,0,0-.443-.153.58.58,0,0,0-.444.158.705.705,0,0,0-.148.494v.122Z" transform="translate(-202.436 -233.405)" fill="#526667"/>
                  </g>
                  <g id="Grupo_1218003" data-name="Grupo 1218003" transform="translate(22.026 2.121)">
                    <path id="Trazado_1167569" data-name="Trazado 1167569" d="M220.886,233.447a1.334,1.334,0,0,1,.306.1V235.5a2.321,2.321,0,0,0-.9-.173,1.363,1.363,0,0,0-.989.336,1.331,1.331,0,0,0-.347,1v.887h.918v1.672h-3.71v-1.672h.449V235.22h-.449v-1.672h2.793v.744a2.184,2.184,0,0,1,.652-.657,1.641,1.641,0,0,1,.887-.229A1.78,1.78,0,0,1,220.886,233.447Z" transform="translate(-216.167 -233.406)" fill="#526667"/>
                  </g>
                  <g id="Grupo_1218004" data-name="Grupo 1218004" transform="translate(27.378 2.121)">
                    <path id="Trazado_1167570" data-name="Trazado 1167570" d="M234.949,237.544v1.672h-3.221v-1.672h.428v-1.672a.724.724,0,0,0-.143-.494.549.549,0,0,0-.428-.158q-.611,0-.612.653v1.672h.428v1.672h-3.221v-1.672h.449V235.22h-.449v-1.672h2.793v.8a2.243,2.243,0,0,1,1.835-.938,1.527,1.527,0,0,1,1.269.53,2.276,2.276,0,0,1,.423,1.457v2.151Z" transform="translate(-228.182 -233.406)" fill="#526667"/>
                  </g>
                  <g id="Grupo_1218005" data-name="Grupo 1218005" transform="translate(34.471 2.121)">
                    <path id="Trazado_1167571" data-name="Trazado 1167571" d="M250.051,237.545v1.672H247.36v-.693a2.124,2.124,0,0,1-.627.581,1.806,1.806,0,0,1-.983.255,1.7,1.7,0,0,1-1.2-.408,1.5,1.5,0,0,1-.438-1.151q0-1.927,3.272-1.977a.549.549,0,0,0-.265-.474,1.793,1.793,0,0,0-.8-.127,5.441,5.441,0,0,0-.984.1,5.772,5.772,0,0,0-.963.26V233.7a10.7,10.7,0,0,1,1.172-.214,9.63,9.63,0,0,1,1.233-.082,3.374,3.374,0,0,1,2.171.551,2.1,2.1,0,0,1,.653,1.7v1.885h.448Zm-2.691-.714a1.65,1.65,0,0,0-.709.122.42.42,0,0,0-.25.408.378.378,0,0,0,.107.28.408.408,0,0,0,.3.107.455.455,0,0,0,.408-.224,1.177,1.177,0,0,0,.143-.632v-.061Z" transform="translate(-244.109 -233.407)" fill="#526667"/>
                  </g>
                  <g id="Grupo_1218006" data-name="Grupo 1218006" transform="translate(40.637 1.06)">
                    <path id="Trazado_1167572" data-name="Trazado 1167572" d="M258.945,237.513a2.386,2.386,0,0,1-.545-1.769V233.9h-.449v-1.672a.776.776,0,0,0,.581-.2.749.749,0,0,0,.194-.546v-.459h2.161v1.2h1.376V233.9h-1.376v1.672a.7.7,0,0,0,.148.494.579.579,0,0,0,.443.158,4.341,4.341,0,0,0,.846-.092v1.6a4.69,4.69,0,0,1-.77.209,5,5,0,0,1-.983.1A2.258,2.258,0,0,1,258.945,237.513Z" transform="translate(-257.951 -231.025)" fill="#526667"/>
                  </g>
                  <g id="Grupo_1218007" data-name="Grupo 1218007" transform="translate(45.336 0)">
                    <path id="Trazado_1167573" data-name="Trazado 1167573" d="M268.5,236.576V234.9h.448V232.58H268.5v-1.672h2.793v4h.449v1.672Zm.489-6.228v-1.7h2.079v1.7Z" transform="translate(-268.502 -228.646)" fill="#526667"/>
                  </g>
                  <g id="Grupo_1218008" data-name="Grupo 1218008" transform="translate(48.822 2.12)">
                    <path id="Trazado_1167574" data-name="Trazado 1167574" d="M277.144,238.6a3.421,3.421,0,0,1,0-4.434,3.192,3.192,0,0,1,2.263-.759,3.159,3.159,0,0,1,2.273.77,3.423,3.423,0,0,1-.01,4.424,3.751,3.751,0,0,1-4.526,0Zm2.706-1.213a.7.7,0,0,0,.148-.494v-1.02a.706.706,0,0,0-.148-.494.7.7,0,0,0-.886,0,.7.7,0,0,0-.148.494v1.02a.7.7,0,0,0,.148.494.7.7,0,0,0,.886,0Z" transform="translate(-276.328 -233.405)" fill="#526667"/>
                  </g>
                  <g id="Grupo_1218009" data-name="Grupo 1218009" transform="translate(55.305 2.121)">
                    <path id="Trazado_1167575" data-name="Trazado 1167575" d="M297.65,237.544v1.672h-3.221v-1.672h.428v-1.672a.724.724,0,0,0-.143-.494.549.549,0,0,0-.428-.158q-.611,0-.612.653v1.672h.428v1.672h-3.221v-1.672h.449V235.22h-.449v-1.672h2.793v.8a2.244,2.244,0,0,1,1.835-.938,1.527,1.527,0,0,1,1.269.53,2.276,2.276,0,0,1,.423,1.457v2.151Z" transform="translate(-290.883 -233.406)" fill="#526667"/>
                  </g>
                  <g id="Grupo_1218010" data-name="Grupo 1218010" transform="translate(62.399 2.121)">
                    <path id="Trazado_1167576" data-name="Trazado 1167576" d="M312.752,237.545v1.672h-2.691v-.693a2.125,2.125,0,0,1-.627.581,1.806,1.806,0,0,1-.983.255,1.7,1.7,0,0,1-1.2-.408,1.5,1.5,0,0,1-.438-1.151q0-1.927,3.272-1.977a.549.549,0,0,0-.265-.474,1.793,1.793,0,0,0-.8-.127,5.441,5.441,0,0,0-.984.1,5.773,5.773,0,0,0-.963.26V233.7a10.7,10.7,0,0,1,1.172-.214,9.63,9.63,0,0,1,1.233-.082,3.374,3.374,0,0,1,2.171.551,2.1,2.1,0,0,1,.652,1.7v1.885h.448Zm-2.691-.714a1.65,1.65,0,0,0-.709.122.42.42,0,0,0-.25.408.378.378,0,0,0,.107.28.407.407,0,0,0,.3.107.456.456,0,0,0,.408-.224,1.177,1.177,0,0,0,.143-.632v-.061Z" transform="translate(-306.81 -233.407)" fill="#526667"/>
                  </g>
                  <g id="Grupo_1218011" data-name="Grupo 1218011" transform="translate(68.666)">
                    <path id="Trazado_1167577" data-name="Trazado 1167577" d="M320.882,236.585V234.9h.449v-4.587h-.449v-1.672h2.793V234.9h.449v1.682Z" transform="translate(-320.882 -228.645)" fill="#526667"/>
                  </g>
                </g>
                <g id="Grupo_1218028" data-name="Grupo 1218028" transform="translate(0 12.539)">
                  <g id="Grupo_1218013" data-name="Grupo 1218013" transform="translate(0 0.143)">
                    <path id="Trazado_1167578" data-name="Trazado 1167578" d="M157.207,263.376h.408v1.672h-4v-1.672h.612l-.163-.816h-1.386l-.163.816h.612v1.672h-3.486v-1.672h.408l1.722-6.258h3.71Zm-4.3-1.9h.938l-.418-2.028h-.1Z" transform="translate(-149.644 -257.118)" fill="#526667"/>
                  </g>
                  <g id="Grupo_1218014" data-name="Grupo 1218014" transform="translate(8.277 2.263)">
                    <path id="Trazado_1167579" data-name="Trazado 1167579" d="M174.994,266.017v1.672h-3.221v-1.672h.428v-1.672a.724.724,0,0,0-.142-.494.549.549,0,0,0-.428-.158q-.612,0-.612.653v1.672h.428v1.672h-3.221v-1.672h.449v-2.324h-.449v-1.672h2.793v.8a2.243,2.243,0,0,1,1.835-.938,1.526,1.526,0,0,1,1.269.53,2.276,2.276,0,0,1,.423,1.457v2.15Z" transform="translate(-168.227 -261.879)" fill="#526667"/>
                  </g>
                  <g id="Grupo_1218015" data-name="Grupo 1218015" transform="translate(15.268 1.203)">
                    <path id="Trazado_1167580" data-name="Trazado 1167580" d="M184.918,265.986a2.384,2.384,0,0,1-.545-1.768v-1.845h-.449V260.7a.776.776,0,0,0,.581-.2.747.747,0,0,0,.194-.545V259.5h2.161v1.2h1.376v1.672h-1.376v1.672a.7.7,0,0,0,.148.494.579.579,0,0,0,.444.158,4.312,4.312,0,0,0,.846-.092v1.6a4.683,4.683,0,0,1-.77.209,4.964,4.964,0,0,1-.983.1A2.259,2.259,0,0,1,184.918,265.986Z" transform="translate(-183.924 -259.498)" fill="#526667"/>
                  </g>
                  <g id="Grupo_1218016" data-name="Grupo 1218016" transform="translate(19.967 0.143)">
                    <path id="Trazado_1167581" data-name="Trazado 1167581" d="M194.474,265.048v-1.672h.449v-2.324h-.449v-1.672h2.793v4h.449v1.672Zm.489-6.228v-1.7h2.079v1.7Z" transform="translate(-194.474 -257.119)" fill="#526667"/>
                  </g>
                  <g id="Grupo_1218017" data-name="Grupo 1218017" transform="translate(23.657 4.373)">
                    <path id="Trazado_1167582" data-name="Trazado 1167582" d="M202.757,268.287v-1.672h3.272v1.672Z" transform="translate(-202.757 -266.615)" fill="#526667"/>
                  </g>
                  <g id="Grupo_1218018" data-name="Grupo 1218018" transform="translate(27.418)">
                    <path id="Trazado_1167583" data-name="Trazado 1167583" d="M212.246,264.035a4.112,4.112,0,0,1-1.045-3.129q0-4.108,4-4.108a6.62,6.62,0,0,1,1.8.234,4.245,4.245,0,0,1,1.239.52V260.1h-2.446v-.734a.808.808,0,0,0-.173-.571.828.828,0,0,0-1.04,0,.806.806,0,0,0-.173.571v3.078a.805.805,0,0,0,.173.571.828.828,0,0,0,1.04,0,.807.807,0,0,0,.173-.571v-.826h2.446v2.64a4.395,4.395,0,0,1-1.239.52,6.452,6.452,0,0,1-1.778.234A4.182,4.182,0,0,1,212.246,264.035Z" transform="translate(-211.201 -256.798)" fill="#526667"/>
                  </g>
                  <g id="Grupo_1218019" data-name="Grupo 1218019" transform="translate(34.776 2.262)">
                    <path id="Trazado_1167584" data-name="Trazado 1167584" d="M228.538,267.07a3.421,3.421,0,0,1,0-4.434,3.746,3.746,0,0,1,4.536.01,2.911,2.911,0,0,1,.806,2.207,2.881,2.881,0,0,1-.816,2.217,3.751,3.751,0,0,1-4.526,0Zm2.707-1.212a.7.7,0,0,0,.148-.494v-1.019a.706.706,0,0,0-.148-.494.7.7,0,0,0-.887,0,.706.706,0,0,0-.148.494v1.019a.7.7,0,0,0,.148.494.7.7,0,0,0,.887,0Z" transform="translate(-227.722 -261.877)" fill="#526667"/>
                  </g>
                  <g id="Grupo_1218020" data-name="Grupo 1218020" transform="translate(41.28 2.262)">
                    <path id="Trazado_1167585" data-name="Trazado 1167585" d="M247.043,261.918a1.352,1.352,0,0,1,.306.1v1.947a2.315,2.315,0,0,0-.9-.173,1.361,1.361,0,0,0-.989.336,1.33,1.33,0,0,0-.347,1v.887h.918v1.672h-3.71v-1.672h.449v-2.324h-.449V262.02h2.793v.744a2.194,2.194,0,0,1,.652-.658,1.642,1.642,0,0,1,.887-.229A1.808,1.808,0,0,1,247.043,261.918Z" transform="translate(-242.324 -261.877)" fill="#526667"/>
                  </g>
                  <g id="Grupo_1218021" data-name="Grupo 1218021" transform="translate(46.651 2.262)">
                    <path id="Trazado_1167586" data-name="Trazado 1167586" d="M259.1,261.918a1.352,1.352,0,0,1,.306.1v1.947a2.315,2.315,0,0,0-.9-.173,1.361,1.361,0,0,0-.989.336,1.33,1.33,0,0,0-.347,1v.887h.918v1.672h-3.71v-1.672h.449v-2.324h-.449V262.02h2.793v.744a2.194,2.194,0,0,1,.653-.658,1.642,1.642,0,0,1,.887-.229A1.8,1.8,0,0,1,259.1,261.918Z" transform="translate(-254.383 -261.877)" fill="#526667"/>
                  </g>
                  <g id="Grupo_1218022" data-name="Grupo 1218022" transform="translate(51.94 2.406)">
                    <path id="Trazado_1167587" data-name="Trazado 1167587" d="M273.026,266.194v1.672h-2.793v-.8a2.242,2.242,0,0,1-1.835.938,1.525,1.525,0,0,1-1.269-.53,2.275,2.275,0,0,1-.423-1.457v-2.151h-.449V262.2h2.793v3.343a.7.7,0,0,0,.148.494.7.7,0,0,0,.886,0,.7.7,0,0,0,.148-.494v-1.672h-.55V262.2h2.895v4h.449Z" transform="translate(-266.258 -262.199)" fill="#526667"/>
                  </g>
                  <g id="Grupo_1218023" data-name="Grupo 1218023" transform="translate(58.953 2.263)">
                    <path id="Trazado_1167588" data-name="Trazado 1167588" d="M282,268.279h.448v-4.587H282v-1.672H284.8v.694a2.56,2.56,0,0,1,.657-.581,1.69,1.69,0,0,1,.922-.255,1.766,1.766,0,0,1,1.565.775,4.877,4.877,0,0,1,0,4.4,1.765,1.765,0,0,1-1.565.775,1.684,1.684,0,0,1-.922-.255,2.541,2.541,0,0,1-.657-.581v1.284h.7v1.672H282Zm3.827-2.42a.7.7,0,0,0,.148-.494v-1.019a.706.706,0,0,0-.148-.494.7.7,0,0,0-.887,0,.706.706,0,0,0-.147.494v1.019a.7.7,0,0,0,.147.494.7.7,0,0,0,.887,0Z" transform="translate(-282.003 -261.878)" fill="#526667"/>
                  </g>
                  <g id="Grupo_1218024" data-name="Grupo 1218024" transform="translate(65.598 1.203)">
                    <path id="Trazado_1167589" data-name="Trazado 1167589" d="M297.916,265.986a2.384,2.384,0,0,1-.545-1.768v-1.845h-.449V260.7a.777.777,0,0,0,.581-.2.747.747,0,0,0,.194-.545V259.5h2.161v1.2h1.376v1.672h-1.376v1.672a.7.7,0,0,0,.148.494.579.579,0,0,0,.443.158,4.308,4.308,0,0,0,.846-.092v1.6a4.684,4.684,0,0,1-.77.209,4.964,4.964,0,0,1-.983.1A2.259,2.259,0,0,1,297.916,265.986Z" transform="translate(-296.922 -259.498)" fill="#526667"/>
                  </g>
                  <g id="Grupo_1218025" data-name="Grupo 1218025" transform="translate(70.297 0.143)">
                    <path id="Trazado_1167590" data-name="Trazado 1167590" d="M307.472,265.048v-1.672h.448v-2.324h-.448v-1.672h2.793v4h.449v1.672Zm.49-6.228v-1.7h2.079v1.7Z" transform="translate(-307.472 -257.119)" fill="#526667"/>
                  </g>
                  <g id="Grupo_1218026" data-name="Grupo 1218026" transform="translate(73.783 2.262)">
                    <path id="Trazado_1167591" data-name="Trazado 1167591" d="M316.114,267.07a3.421,3.421,0,0,1,0-4.434,3.746,3.746,0,0,1,4.536.01,2.911,2.911,0,0,1,.806,2.207,2.881,2.881,0,0,1-.816,2.217,3.751,3.751,0,0,1-4.526,0Zm2.706-1.212a.7.7,0,0,0,.148-.494v-1.019a.706.706,0,0,0-.148-.494.7.7,0,0,0-.886,0,.7.7,0,0,0-.148.494v1.019a.7.7,0,0,0,.148.494.7.7,0,0,0,.886,0Z" transform="translate(-315.298 -261.877)" fill="#526667"/>
                  </g>
                  <g id="Grupo_1218027" data-name="Grupo 1218027" transform="translate(80.266 2.263)">
                    <path id="Trazado_1167592" data-name="Trazado 1167592" d="M336.621,266.017v1.672H333.4v-1.672h.428v-1.672a.723.723,0,0,0-.143-.494.549.549,0,0,0-.428-.158q-.611,0-.611.653v1.672h.428v1.672h-3.221v-1.672h.448v-2.324h-.448v-1.672h2.793v.8a2.244,2.244,0,0,1,1.835-.938,1.527,1.527,0,0,1,1.269.53,2.276,2.276,0,0,1,.423,1.457v2.15Z" transform="translate(-329.854 -261.879)" fill="#526667"/>
                  </g>
                </g>
                <g id="Grupo_1218032" data-name="Grupo 1218032" transform="translate(33.278 25.355)">
                  <g id="Grupo_1218029" data-name="Grupo 1218029">
                    <path id="Trazado_1167593" data-name="Trazado 1167593" d="M224.359,291.828h.51v-4.576h-.51V285.57H228.5a3.817,3.817,0,0,1,2.706.933,5.082,5.082,0,0,1,0,6.065,3.817,3.817,0,0,1-2.706.933h-4.138Zm3.955,0a.683.683,0,0,0,.52-.184.807.807,0,0,0,.173-.571V288q0-.754-.693-.754h-.591v4.587h.591Z" transform="translate(-224.359 -285.57)" fill="#526667"/>
                  </g>
                  <g id="Grupo_1218030" data-name="Grupo 1218030" transform="translate(8.174 2.12)">
                    <path id="Trazado_1167594" data-name="Trazado 1167594" d="M248.654,294.468v1.672h-2.691v-.693a2.124,2.124,0,0,1-.627.581,1.8,1.8,0,0,1-.983.255,1.7,1.7,0,0,1-1.2-.408,1.5,1.5,0,0,1-.438-1.152q0-1.927,3.272-1.977a.55.55,0,0,0-.265-.474,1.792,1.792,0,0,0-.8-.127,5.443,5.443,0,0,0-.984.1,5.857,5.857,0,0,0-.963.26v-1.875a10.694,10.694,0,0,1,1.172-.214,9.624,9.624,0,0,1,1.233-.082,3.374,3.374,0,0,1,2.171.55,2.1,2.1,0,0,1,.653,1.7v1.885Zm-2.691-.713a1.649,1.649,0,0,0-.709.122.42.42,0,0,0-.25.408.379.379,0,0,0,.107.281.407.407,0,0,0,.3.107.456.456,0,0,0,.408-.224,1.179,1.179,0,0,0,.143-.632v-.061Z" transform="translate(-242.712 -290.33)" fill="#526667"/>
                  </g>
                  <g id="Grupo_1218031" data-name="Grupo 1218031" transform="translate(14.361 2.263)">
                    <path id="Trazado_1167595" data-name="Trazado 1167595" d="M262.818,290.65v1.672h-.387l-1.335,3.537a5.83,5.83,0,0,1-1.142,2,2.241,2.241,0,0,1-1.692.668,4.478,4.478,0,0,1-.866-.086,4,4,0,0,1-.8-.24v-1.845h1.407v.1q0,.255.265.255a.387.387,0,0,0,.357-.224l-1.611-4.169h-.387V290.65h3.027v1.672h-.346l.53,1.59.49-1.59h-.347V290.65Z" transform="translate(-256.601 -290.65)" fill="#526667"/>
                  </g>
                </g>
              </g>
            </g>
          </g>
          <g id="Grupo_1218055" data-name="Grupo 1218055" transform="translate(120.777 36.223)">
            <g id="Grupo_1218037" data-name="Grupo 1218037" transform="translate(0 4.038)">
              <g id="Grupo_1218036" data-name="Grupo 1218036">
                <path id="Trazado_1167596" data-name="Trazado 1167596" d="M359.867,115.85l34.889-10.98.916,41.942-35.8,4.351Z" transform="translate(-359.867 -104.87)" fill="#95c696"/>
              </g>
            </g>
            <g id="Grupo_1218039" data-name="Grupo 1218039">
              <g id="Grupo_1218038" data-name="Grupo 1218038">
                <path id="Trazado_1167597" data-name="Trazado 1167597" d="M359.867,110.823,390.6,101.15l-.71-5.345-30.022,11.753Z" transform="translate(-359.867 -95.805)" fill="#639e63"/>
              </g>
            </g>
            <g id="Grupo_1218042" data-name="Grupo 1218042" transform="translate(0 8.978)">
              <g id="Grupo_1218041" data-name="Grupo 1218041">
                <g id="Grupo_1218040" data-name="Grupo 1218040">
                  <path id="Trazado_1167598" data-name="Trazado 1167598" d="M359.867,153.713v-.468l32.889-3.153-.8-33.554-32.087,8.541v-.587l32.518-8.53.007.283.818,34.251Z" transform="translate(-359.867 -115.962)" fill="#639e63"/>
                </g>
              </g>
            </g>
            <g id="Grupo_1218044" data-name="Grupo 1218044" transform="translate(21.017 9.411)">
              <g id="Grupo_1218043" data-name="Grupo 1218043">
                <path id="Trazado_1167599" data-name="Trazado 1167599" d="M407.054,119.8s4.67,5.972,11.289,6.465h.316l-.436-9.326Z" transform="translate(-407.054 -116.935)" fill="#639e63"/>
              </g>
            </g>
            <g id="Grupo_1218046" data-name="Grupo 1218046" transform="translate(23.428 31.87)">
              <g id="Grupo_1218045" data-name="Grupo 1218045">
                <path id="Trazado_1167600" data-name="Trazado 1167600" d="M421.659,167.358s-7.263,3.626-8.835,10.075l-.357,2.28,9.576-.868Z" transform="translate(-412.467 -167.358)" fill="#639e63"/>
              </g>
            </g>
            <g id="Grupo_1218048" data-name="Grupo 1218048" transform="translate(0 23.267)">
              <g id="Grupo_1218047" data-name="Grupo 1218047">
                <path id="Trazado_1167601" data-name="Trazado 1167601" d="M359.867,148.043s11.386,8.133,0,19.985Z" transform="translate(-359.867 -148.043)" fill="#639e63"/>
              </g>
            </g>
            <g id="Grupo_1218051" data-name="Grupo 1218051" transform="translate(12.864 26.366)">
              <g id="Grupo_1218050" data-name="Grupo 1218050">
                <g id="Grupo_1218049" data-name="Grupo 1218049">
                  <path id="Trazado_1167602" data-name="Trazado 1167602" d="M389.165,156.6l4.342-.943c.42-.091.242-.735-.178-.644l-4.342.943c-.42.091-.242.735.178.644Z" transform="translate(-388.748 -155.001)" fill="#639e63"/>
                </g>
              </g>
            </g>
            <g id="Grupo_1218054" data-name="Grupo 1218054" transform="translate(13.21 28.683)">
              <g id="Grupo_1218053" data-name="Grupo 1218053">
                <g id="Grupo_1218052" data-name="Grupo 1218052">
                  <path id="Trazado_1167603" data-name="Trazado 1167603" d="M389.94,162.593l6.1-1.732a.334.334,0,0,0-.178-.644l-6.1,1.732a.334.334,0,0,0,.178.644Z" transform="translate(-389.527 -160.203)" fill="#639e63"/>
                </g>
              </g>
            </g>
          </g>
        </g>
        <g id="Grupo_1218197" data-name="Grupo 1218197" transform="translate(0 84.947)">
          <g id="Grupo_1218121" data-name="Grupo 1218121">
            <g id="Grupo_1218113" data-name="Grupo 1218113">
              <g id="Grupo_1218058" data-name="Grupo 1218058">
                <g id="Grupo_1218057" data-name="Grupo 1218057">
                  <path id="Trazado_1167604" data-name="Trazado 1167604" d="M99.818,345.234l6.666-18.39c2.162-5.964,4.337-11.981,5.208-18.265,1.185-8.554-.077-17.4,2.007-25.785,1.236-4.969,3.617-9.614,4.635-14.632.419-2.067.551-4.392-.674-6.109-1.273-1.785-3.712-2.4-5.888-2.13-6.652.826-10.46,7.992-12.125,14.484a65.917,65.917,0,0,0-2.062,16.034A7.428,7.428,0,0,1,97,293.428c-.976.7-2.18-.489-2.789-1.522L83.264,273.33a31.9,31.9,0,0,1-4.053-8.832c-1.409-6.139.9-12.461,1.22-18.751.09-1.732-.037-3.639-1.212-4.914-1.4-1.515-3.9-1.569-5.709-.592a10.537,10.537,0,0,0-4.014,4.577,27.523,27.523,0,0,0-2.4,19.062c1.622,6.767,5.745,12.627,8.524,19.007a8.63,8.63,0,0,1,1.087,3.785c-2.5.8-4.971-1.227-6.629-3.259a38.289,38.289,0,0,1-8.48-26.066c.167-3,.69-5.965,1.071-8.944a6.747,6.747,0,0,0-.108-3.121c-.76-2.13-3.54-3.006-5.679-2.27a8.855,8.855,0,0,0-4.676,4.677,27.656,27.656,0,0,0-2.4,8.85,31.452,31.452,0,0,0,.253,11.344c2.223,9.293,10.333,15.807,17.944,21.583.562.426-.114.855-.79,1.053a3.2,3.2,0,0,1-2.046-.337c-2.753-1.118-5.669-2.363-7.332-4.826-3.4-5.036.119-12.21-2.235-17.811-.633-1.505-1.9-2.946-3.529-3-1.74-.062-3.122,1.433-4.027,2.92a19.223,19.223,0,0,0-1.9,15.508c.421,1.348.771,2.7,1.984,3.427-2.146,2.231-1.814,6.156-.364,8.892s3.953,4.73,6.388,6.642l12,9.424c3.362,2.642,6.855,5.447,8.554,9.371,1.86,4.295,1.261,9.249.07,13.775s-2.946,8.949-3.334,13.612a58.377,58.377,0,0,0,25.225-2.639C98.092,344.995,99.3,346.649,99.818,345.234Z" transform="translate(-45.305 -239.586)" fill="#fbc29d"/>
                </g>
              </g>
              <g id="Grupo_1218061" data-name="Grupo 1218061" transform="translate(66.521 20.543)">
                <g id="Grupo_1218060" data-name="Grupo 1218060">
                  <g id="Grupo_1218059" data-name="Grupo 1218059">
                    <path id="Trazado_1167605" data-name="Trazado 1167605" d="M197.434,285.846c-1.475,2-3.058,4.25-2.737,6.867a4.46,4.46,0,0,0,1.317,2.766,6.942,6.942,0,0,0,3.41,1.407c.4.085.573-.532.17-.616a6.442,6.442,0,0,1-3.127-1.243,3.936,3.936,0,0,1-1.168-2.765c-.1-2.331,1.371-4.31,2.688-6.093.244-.331-.31-.651-.553-.323Z" transform="translate(-194.655 -285.708)" fill="#e17e6b"/>
                  </g>
                </g>
              </g>
              <g id="Grupo_1218064" data-name="Grupo 1218064" transform="translate(24.079 0.446)">
                <g id="Grupo_1218063" data-name="Grupo 1218063">
                  <g id="Grupo_1218062" data-name="Grupo 1218062">
                    <path id="Trazado_1167606" data-name="Trazado 1167606" d="M99.5,246.827a4.526,4.526,0,0,0,5.287-.4c1.74-1.322,2.56-3.479,3.309-5.452.146-.385-.472-.551-.616-.17a11.669,11.669,0,0,1-2.885,4.962,3.95,3.95,0,0,1-4.772.51c-.332-.243-.652.312-.322.552Z" transform="translate(-99.365 -240.587)" fill="#e17e6b"/>
                  </g>
                </g>
              </g>
              <g id="Grupo_1218067" data-name="Grupo 1218067" transform="translate(67.615 27.765)">
                <g id="Grupo_1218066" data-name="Grupo 1218066">
                  <g id="Grupo_1218065" data-name="Grupo 1218065">
                    <path id="Trazado_1167607" data-name="Trazado 1167607" d="M197.655,303.988a4.64,4.64,0,0,1,4.466-1.288.32.32,0,0,0,.17-.616,5.289,5.289,0,0,0-5.088,1.452c-.284.3.168.751.452.452Z" transform="translate(-197.113 -301.923)" fill="#e17e6b"/>
                  </g>
                </g>
              </g>
              <g id="Grupo_1218070" data-name="Grupo 1218070" transform="translate(24.811 3.685)">
                <g id="Grupo_1218069" data-name="Grupo 1218069">
                  <g id="Grupo_1218068" data-name="Grupo 1218068">
                    <path id="Trazado_1167608" data-name="Trazado 1167608" d="M101.605,248.4c-.049.078-.1.108-.167.089-.021-.006-.014,0,.022,0l.032.01c-.022-.009-.022-.008,0,0,.061.032.121.066.18.1a2.722,2.722,0,0,1,.287.2,3.167,3.167,0,0,1,.529.551,3.032,3.032,0,0,1,.568,1.4.33.33,0,0,0,.32.32.322.322,0,0,0,.32-.32,3.7,3.7,0,0,0-.82-1.934,3.6,3.6,0,0,0-.754-.685c-.316-.216-.788-.475-1.069-.062a.32.32,0,0,0,.551.323Z" transform="translate(-101.009 -247.859)" fill="#e17e6b"/>
                  </g>
                </g>
              </g>
              <g id="Grupo_1218073" data-name="Grupo 1218073" transform="translate(6.79 3.334)">
                <g id="Grupo_1218072" data-name="Grupo 1218072">
                  <g id="Grupo_1218071" data-name="Grupo 1218071">
                    <path id="Trazado_1167609" data-name="Trazado 1167609" d="M60.708,252.5a3.941,3.941,0,0,0,2.681.207,6.727,6.727,0,0,0,2.634-.978,7.128,7.128,0,0,0,2.614-4.256c.094-.4-.522-.571-.616-.17a6.587,6.587,0,0,1-2.232,3.81,5.589,5.589,0,0,1-2.206.9,3.665,3.665,0,0,1-2.55-.065c-.363-.192-.687.359-.323.553Z" transform="translate(-60.549 -247.072)" fill="#e17e6b"/>
                  </g>
                </g>
              </g>
              <g id="Grupo_1218076" data-name="Grupo 1218076" transform="translate(8.086 5.97)">
                <g id="Grupo_1218075" data-name="Grupo 1218075">
                  <g id="Grupo_1218074" data-name="Grupo 1218074">
                    <path id="Trazado_1167610" data-name="Trazado 1167610" d="M66.806,255.019c.123-.366-.187-.677-.429-.906a4.11,4.11,0,0,0-2.6-1.122.32.32,0,0,0,0,.64,3.432,3.432,0,0,1,1.395.4,3.4,3.4,0,0,1,.591.394,3.665,3.665,0,0,1,.281.264,1.844,1.844,0,0,1,.129.142c.029.038.006.045.014.021a.32.32,0,0,0,.616.17Z" transform="translate(-63.459 -252.99)" fill="#e17e6b"/>
                  </g>
                </g>
              </g>
              <g id="Grupo_1218079" data-name="Grupo 1218079" transform="translate(3.836 25.971)">
                <g id="Grupo_1218078" data-name="Grupo 1218078">
                  <g id="Grupo_1218077" data-name="Grupo 1218077">
                    <path id="Trazado_1167611" data-name="Trazado 1167611" d="M53.92,298.2c.511,5.166,3.527,9.592,7.014,13.269.284.3.735-.154.452-.452-3.358-3.541-6.333-7.832-6.826-12.816-.041-.405-.68-.41-.64,0Z" transform="translate(-53.918 -297.895)" fill="#e17e6b"/>
                  </g>
                </g>
              </g>
              <g id="Grupo_1218082" data-name="Grupo 1218082" transform="translate(2.485 46.38)">
                <g id="Grupo_1218081" data-name="Grupo 1218081">
                  <g id="Grupo_1218080" data-name="Grupo 1218080">
                    <path id="Trazado_1167612" data-name="Trazado 1167612" d="M50.942,344.181a45.514,45.514,0,0,0,12.8,12.412c.347.224.668-.33.323-.552a44.723,44.723,0,0,1-12.568-12.182c-.232-.336-.787-.017-.552.323Z" transform="translate(-50.885 -343.715)" fill="#e17e6b"/>
                  </g>
                </g>
              </g>
              <g id="Grupo_1218085" data-name="Grupo 1218085" transform="translate(25.301 28.118)">
                <g id="Grupo_1218084" data-name="Grupo 1218084">
                  <g id="Grupo_1218083" data-name="Grupo 1218083">
                    <path id="Trazado_1167613" data-name="Trazado 1167613" d="M102.654,304.436c.112-.117.229-.23.351-.338q.094-.083.192-.162l.044-.035.012-.01.1-.075a5.74,5.74,0,0,1,.845-.511.322.322,0,0,0,.115-.437.328.328,0,0,0-.437-.115,6.014,6.014,0,0,0-1.673,1.23.319.319,0,0,0,.451.452Z" transform="translate(-102.111 -302.714)" fill="#e17e6b"/>
                  </g>
                </g>
              </g>
              <g id="Grupo_1218088" data-name="Grupo 1218088" transform="translate(25.046 26.959)">
                <g id="Grupo_1218087" data-name="Grupo 1218087">
                  <g id="Grupo_1218086" data-name="Grupo 1218086">
                    <path id="Trazado_1167614" data-name="Trazado 1167614" d="M101.942,301.413a1.229,1.229,0,0,0,.942-.9.334.334,0,0,0-.032-.246.32.32,0,0,0-.584.076.882.882,0,0,1-.045.137l.032-.076a.938.938,0,0,1-.114.195l.05-.065a.99.99,0,0,1-.167.167l.065-.05a.976.976,0,0,1-.2.12l.076-.032a.883.883,0,0,1-.188.055.323.323,0,0,0-.191.147.326.326,0,0,0-.032.246.323.323,0,0,0,.147.191.363.363,0,0,0,.246.032Z" transform="translate(-101.538 -300.113)" fill="#e17e6b"/>
                  </g>
                </g>
              </g>
              <g id="Grupo_1218091" data-name="Grupo 1218091" transform="translate(7.602 30.394)">
                <g id="Grupo_1218090" data-name="Grupo 1218090">
                  <g id="Grupo_1218089" data-name="Grupo 1218089">
                    <path id="Trazado_1167615" data-name="Trazado 1167615" d="M62.854,309.838l1.845-1.412a.329.329,0,0,0,.115-.437.323.323,0,0,0-.437-.115l-1.845,1.412a.329.329,0,0,0-.115.437.323.323,0,0,0,.437.115Z" transform="translate(-62.372 -307.825)" fill="#e17e6b"/>
                  </g>
                </g>
              </g>
              <g id="Grupo_1218094" data-name="Grupo 1218094" transform="translate(7.134 29.468)">
                <g id="Grupo_1218093" data-name="Grupo 1218093">
                  <g id="Grupo_1218092" data-name="Grupo 1218092">
                    <path id="Trazado_1167616" data-name="Trazado 1167616" d="M61.8,307.053l.92-.71a.353.353,0,0,0,.147-.191.328.328,0,0,0-.032-.246.324.324,0,0,0-.191-.147.31.31,0,0,0-.246.032l-.92.71a.353.353,0,0,0-.147.191.328.328,0,0,0,.032.246.324.324,0,0,0,.191.147.306.306,0,0,0,.246-.032Z" transform="translate(-61.323 -305.747)" fill="#e17e6b"/>
                  </g>
                </g>
              </g>
              <g id="Grupo_1218097" data-name="Grupo 1218097" transform="translate(3.452 42.058)">
                <g id="Grupo_1218096" data-name="Grupo 1218096">
                  <g id="Grupo_1218095" data-name="Grupo 1218095">
                    <path id="Trazado_1167617" data-name="Trazado 1167617" d="M53.678,336.046a2.547,2.547,0,0,1,.105-.453c.012-.037.025-.073.039-.11l.019-.048c.014-.036-.023.049,0-.007s.067-.14.1-.208.074-.127.116-.187c.022-.032.045-.064.068-.095.049-.067-.026.029.005-.007l.033-.04a2.586,2.586,0,0,1,.341-.336.321.321,0,0,0,0-.452.329.329,0,0,0-.452,0,2.843,2.843,0,0,0-1,1.774.353.353,0,0,0,.032.246.319.319,0,0,0,.584-.077Z" transform="translate(-53.055 -334.013)" fill="#e17e6b"/>
                  </g>
                </g>
              </g>
              <g id="Grupo_1218100" data-name="Grupo 1218100" transform="translate(5.295 43.686)">
                <g id="Grupo_1218099" data-name="Grupo 1218099">
                  <g id="Grupo_1218098" data-name="Grupo 1218098">
                    <path id="Trazado_1167618" data-name="Trazado 1167618" d="M57.823,339.234l.465-1.162a.32.32,0,0,0-.032-.246.32.32,0,0,0-.437-.115.372.372,0,0,0-.147.191l-.465,1.162a.32.32,0,0,0,.032.246.32.32,0,0,0,.437.115.374.374,0,0,0,.147-.191Z" transform="translate(-57.194 -337.669)" fill="#e17e6b"/>
                  </g>
                </g>
              </g>
              <g id="Grupo_1218103" data-name="Grupo 1218103" transform="translate(3.419 53.208)">
                <g id="Grupo_1218102" data-name="Grupo 1218102">
                  <g id="Grupo_1218101" data-name="Grupo 1218101">
                    <path id="Trazado_1167619" data-name="Trazado 1167619" d="M53.611,360.845l.46-1.4a.322.322,0,0,0-.223-.393.327.327,0,0,0-.393.223l-.46,1.4a.322.322,0,0,0,.223.393.326.326,0,0,0,.393-.223Z" transform="translate(-52.982 -359.046)" fill="#e17e6b"/>
                  </g>
                </g>
              </g>
              <g id="Grupo_1218106" data-name="Grupo 1218106" transform="translate(2.698 52.029)">
                <g id="Grupo_1218105" data-name="Grupo 1218105">
                  <g id="Grupo_1218104" data-name="Grupo 1218104">
                    <path id="Trazado_1167620" data-name="Trazado 1167620" d="M51.957,357.569l.478-.688a.32.32,0,0,0-.361-.469.358.358,0,0,0-.191.147l-.478.688a.32.32,0,0,0,.361.469.358.358,0,0,0,.191-.147Z" transform="translate(-51.362 -356.399)" fill="#e17e6b"/>
                  </g>
                </g>
              </g>
              <g id="Grupo_1218109" data-name="Grupo 1218109" transform="translate(63.163 44.817)">
                <g id="Grupo_1218108" data-name="Grupo 1218108">
                  <g id="Grupo_1218107" data-name="Grupo 1218107">
                    <path id="Trazado_1167621" data-name="Trazado 1167621" d="M187.524,340.882c.029-.008.059-.016.089-.022l.05-.009c.044-.008-.01,0-.024,0,.061,0,.122-.01.183-.008l.092.005c.011,0,.059.008.008,0s.006,0,.018,0a1.443,1.443,0,0,1,.178.044c.026.008.052.018.077.027.065.023-.047-.022-.01,0l.037.017a1.371,1.371,0,0,1,.16.09l.042.028c.042.028-.018-.009-.016-.013s.062.052.07.059a1.317,1.317,0,0,1,.133.141.321.321,0,0,0,.452,0,.329.329,0,0,0,0-.452,1.67,1.67,0,0,0-1.708-.523.32.32,0,1,0,.17.616Z" transform="translate(-187.117 -340.206)" fill="#e17e6b"/>
                  </g>
                </g>
              </g>
              <g id="Grupo_1218112" data-name="Grupo 1218112" transform="translate(64.103 42.046)">
                <g id="Grupo_1218111" data-name="Grupo 1218111">
                  <g id="Grupo_1218110" data-name="Grupo 1218110">
                    <path id="Trazado_1167622" data-name="Trazado 1167622" d="M189.319,334.531a5.054,5.054,0,0,0,1.978,1.063.32.32,0,1,0,.17-.616,4.72,4.72,0,0,1-.476-.157l-.058-.023-.01,0-.114-.051c-.081-.037-.16-.077-.238-.119a4.6,4.6,0,0,1-.429-.26l-.1-.072-.051-.037-.03-.022-.029-.023-.049-.04c-.037-.03-.072-.06-.108-.091a.32.32,0,0,0-.453.452Z" transform="translate(-189.227 -333.987)" fill="#e17e6b"/>
                  </g>
                </g>
              </g>
            </g>
            <g id="Grupo_1218115" data-name="Grupo 1218115" transform="translate(7.061 86.141)">
              <g id="Grupo_1218114" data-name="Grupo 1218114">
                <path id="Trazado_1167623" data-name="Trazado 1167623" d="M61.159,462.835l13.8-27.523s22.24-9.063,45.4,8.6l-7.69,18.925Z" transform="translate(-61.159 -432.987)" fill="#526667"/>
              </g>
            </g>
            <g id="Grupo_1218118" data-name="Grupo 1218118" transform="translate(16.824 100.978)">
              <g id="Grupo_1218117" data-name="Grupo 1218117">
                <g id="Grupo_1218116" data-name="Grupo 1218116">
                  <path id="Trazado_1167624" data-name="Trazado 1167624" d="M83.4,467.359a69.179,69.179,0,0,1,32.944,4.547,67.75,67.75,0,0,1,8.669,4.21.334.334,0,0,0,.337-.577,69.758,69.758,0,0,0-32.33-9.205,68.364,68.364,0,0,0-9.621.356c-.423.046-.427.714,0,.668Z" transform="translate(-83.078 -466.296)" fill="#354747"/>
                </g>
              </g>
            </g>
            <g id="Grupo_1218120" data-name="Grupo 1218120" transform="translate(51.439 96.919)">
              <g id="Grupo_1218119" data-name="Grupo 1218119">
                <path id="Trazado_1167625" data-name="Trazado 1167625" d="M165.187,465.969a4.392,4.392,0,1,1,4.392-4.392A4.4,4.4,0,0,1,165.187,465.969Zm0-7.894a3.5,3.5,0,1,0,3.5,3.5A3.505,3.505,0,0,0,165.187,458.075Z" transform="translate(-160.795 -457.185)" fill="#354747"/>
              </g>
            </g>
          </g>
          <g id="Grupo_1218186" data-name="Grupo 1218186" transform="translate(106.354)">
            <g id="Grupo_1218178" data-name="Grupo 1218178">
              <g id="Grupo_1218123" data-name="Grupo 1218123">
                <g id="Grupo_1218122" data-name="Grupo 1218122">
                  <path id="Trazado_1167626" data-name="Trazado 1167626" d="M302.9,345.234l-6.666-18.39c-2.162-5.964-4.337-11.981-5.208-18.265-1.185-8.554.078-17.4-2.007-25.785-1.236-4.969-3.617-9.614-4.635-14.632-.419-2.067-.551-4.392.674-6.109,1.273-1.785,3.712-2.4,5.888-2.13,6.652.826,10.46,7.992,12.125,14.484a65.918,65.918,0,0,1,2.062,16.034,7.429,7.429,0,0,0,.587,2.987c.976.7,2.18-.489,2.789-1.522l10.944-18.576a31.905,31.905,0,0,0,4.053-8.832c1.409-6.139-.9-12.461-1.22-18.751-.089-1.732.037-3.639,1.212-4.914,1.4-1.515,3.9-1.569,5.709-.592a10.538,10.538,0,0,1,4.014,4.577,27.521,27.521,0,0,1,2.4,19.062c-1.622,6.767-5.745,12.627-8.524,19.007a8.63,8.63,0,0,0-1.087,3.785c2.5.8,4.971-1.227,6.629-3.259a38.289,38.289,0,0,0,8.48-26.066c-.167-3-.69-5.965-1.071-8.944a6.747,6.747,0,0,1,.108-3.121c.76-2.13,3.54-3.006,5.679-2.27a8.854,8.854,0,0,1,4.676,4.677,27.655,27.655,0,0,1,2.4,8.85,31.453,31.453,0,0,1-.252,11.344c-2.223,9.293-10.333,15.807-17.944,21.583-.562.426.114.855.79,1.053a3.2,3.2,0,0,0,2.046-.337c2.754-1.118,5.669-2.363,7.332-4.826,3.4-5.036-.119-12.21,2.235-17.811.633-1.505,1.9-2.946,3.529-3,1.74-.062,3.122,1.433,4.027,2.92a19.223,19.223,0,0,1,1.9,15.508c-.421,1.348-.771,2.7-1.984,3.427,2.146,2.231,1.814,6.156.364,8.892s-3.953,4.73-6.388,6.642l-12,9.424c-3.362,2.642-6.855,5.447-8.554,9.371-1.859,4.295-1.261,9.249-.07,13.775s2.946,8.949,3.334,13.612a58.375,58.375,0,0,1-25.225-2.639C304.625,344.995,303.412,346.649,302.9,345.234Z" transform="translate(-284.087 -239.586)" fill="#fbc29d"/>
                </g>
              </g>
              <g id="Grupo_1218126" data-name="Grupo 1218126" transform="translate(1.635 20.543)">
                <g id="Grupo_1218125" data-name="Grupo 1218125">
                  <g id="Grupo_1218124" data-name="Grupo 1218124">
                    <path id="Trazado_1167627" data-name="Trazado 1167627" d="M289.6,286.168c1.318,1.783,2.786,3.762,2.688,6.093a3.962,3.962,0,0,1-1.115,2.714,6.285,6.285,0,0,1-3.181,1.294c-.4.085-.232.7.17.616a6.973,6.973,0,0,0,3.41-1.407,4.444,4.444,0,0,0,1.318-2.766c.319-2.619-1.261-4.87-2.737-6.867-.242-.327-.8-.008-.552.323Z" transform="translate(-287.758 -285.708)" fill="#e17e6b"/>
                  </g>
                </g>
              </g>
              <g id="Grupo_1218129" data-name="Grupo 1218129" transform="translate(40.489 0.446)">
                <g id="Grupo_1218128" data-name="Grupo 1218128">
                  <g id="Grupo_1218127" data-name="Grupo 1218127">
                    <path id="Trazado_1167628" data-name="Trazado 1167628" d="M383.287,246.275a3.951,3.951,0,0,1-4.772-.51,11.67,11.67,0,0,1-2.885-4.962c-.145-.381-.763-.216-.616.17.749,1.973,1.569,4.131,3.309,5.452a4.527,4.527,0,0,0,5.287.4c.329-.24.011-.8-.322-.552Z" transform="translate(-374.991 -240.587)" fill="#e17e6b"/>
                  </g>
                </g>
              </g>
              <g id="Grupo_1218132" data-name="Grupo 1218132" transform="translate(0.304 27.765)">
                <g id="Grupo_1218131" data-name="Grupo 1218131">
                  <g id="Grupo_1218130" data-name="Grupo 1218130">
                    <path id="Trazado_1167629" data-name="Trazado 1167629" d="M290.084,303.536A5.289,5.289,0,0,0,285,302.083a.32.32,0,0,0,.17.616,4.639,4.639,0,0,1,4.466,1.288c.284.3.736-.154.452-.452Z" transform="translate(-284.769 -301.923)" fill="#e17e6b"/>
                  </g>
                </g>
              </g>
              <g id="Grupo_1218135" data-name="Grupo 1218135" transform="translate(45.826 3.685)">
                <g id="Grupo_1218134" data-name="Grupo 1218134">
                  <g id="Grupo_1218133" data-name="Grupo 1218133">
                    <path id="Trazado_1167630" data-name="Trazado 1167630" d="M389.617,248.079c-.28-.413-.752-.154-1.069.062a3.556,3.556,0,0,0-.754.685,3.71,3.71,0,0,0-.82,1.934.322.322,0,0,0,.32.32.328.328,0,0,0,.32-.32,3.031,3.031,0,0,1,.568-1.4,3.152,3.152,0,0,1,.514-.538,2.689,2.689,0,0,1,.3-.213c.053-.033.109-.062.163-.094s-.021-.005.049-.022l.032-.008c-.066.023-.125-.006-.177-.086a.328.328,0,0,0,.437.115.324.324,0,0,0,.114-.438Z" transform="translate(-386.973 -247.86)" fill="#e17e6b"/>
                  </g>
                </g>
              </g>
              <g id="Grupo_1218138" data-name="Grupo 1218138" transform="translate(58.438 3.335)">
                <g id="Grupo_1218137" data-name="Grupo 1218137">
                  <g id="Grupo_1218136" data-name="Grupo 1218136">
                    <path id="Trazado_1167631" data-name="Trazado 1167631" d="M422.9,251.946a3.594,3.594,0,0,1-2.491.078,5.688,5.688,0,0,1-2.266-.912,6.587,6.587,0,0,1-2.232-3.81c-.094-.4-.711-.231-.616.17a7.138,7.138,0,0,0,2.614,4.256,6.622,6.622,0,0,0,2.573.965,4,4,0,0,0,2.742-.2c.363-.193.041-.746-.323-.552Z" transform="translate(-415.289 -247.073)" fill="#e17e6b"/>
                  </g>
                </g>
              </g>
              <g id="Grupo_1218141" data-name="Grupo 1218141" transform="translate(61.865 5.971)">
                <g id="Grupo_1218140" data-name="Grupo 1218140">
                  <g id="Grupo_1218139" data-name="Grupo 1218139">
                    <path id="Trazado_1167632" data-name="Trazado 1167632" d="M423.627,254.85c.008.022-.019.022.014-.019s.074-.087.114-.128a3.58,3.58,0,0,1,.28-.265,3.5,3.5,0,0,1,2-.806.327.327,0,0,0,.32-.32.323.323,0,0,0-.32-.32,4.17,4.17,0,0,0-1.83.548,4.128,4.128,0,0,0-.752.56c-.247.232-.569.548-.444.921a.327.327,0,0,0,.393.223.323.323,0,0,0,.223-.394Z" transform="translate(-422.983 -252.991)" fill="#e17e6b"/>
                  </g>
                </g>
              </g>
              <g id="Grupo_1218144" data-name="Grupo 1218144" transform="translate(61.931 25.971)">
                <g id="Grupo_1218143" data-name="Grupo 1218143">
                  <g id="Grupo_1218142" data-name="Grupo 1218142">
                    <path id="Trazado_1167633" data-name="Trazado 1167633" d="M430.048,298.2c-.493,4.984-3.468,9.275-6.826,12.816-.283.3.168.751.452.452,3.487-3.677,6.5-8.1,7.014-13.269.041-.409-.6-.406-.64,0Z" transform="translate(-423.132 -297.895)" fill="#e17e6b"/>
                  </g>
                </g>
              </g>
              <g id="Grupo_1218147" data-name="Grupo 1218147" transform="translate(57.515 46.38)">
                <g id="Grupo_1218146" data-name="Grupo 1218146">
                  <g id="Grupo_1218145" data-name="Grupo 1218145">
                    <path id="Trazado_1167634" data-name="Trazado 1167634" d="M425.933,343.859a44.716,44.716,0,0,1-12.568,12.182c-.345.222-.025.776.323.552a45.514,45.514,0,0,0,12.8-12.412c.234-.34-.32-.66-.552-.323Z" transform="translate(-413.217 -343.716)" fill="#e17e6b"/>
                  </g>
                </g>
              </g>
              <g id="Grupo_1218150" data-name="Grupo 1218150" transform="translate(45.782 28.118)">
                <g id="Grupo_1218149" data-name="Grupo 1218149">
                  <g id="Grupo_1218148" data-name="Grupo 1218148">
                    <path id="Trazado_1167635" data-name="Trazado 1167635" d="M389.025,303.985a6.037,6.037,0,0,0-1.673-1.23.32.32,0,0,0-.322.552,5.763,5.763,0,0,1,.845.511l.09.066c.029.022-.034-.028.012.01l.044.035q.1.078.192.161.188.166.362.347a.323.323,0,0,0,.452,0,.327.327,0,0,0,0-.452Z" transform="translate(-386.875 -302.716)" fill="#e17e6b"/>
                  </g>
                </g>
              </g>
              <g id="Grupo_1218153" data-name="Grupo 1218153" transform="translate(46.923 26.957)">
                <g id="Grupo_1218152" data-name="Grupo 1218152">
                  <g id="Grupo_1218151" data-name="Grupo 1218151">
                    <path id="Trazado_1167636" data-name="Trazado 1167636" d="M390.558,300.794a.89.89,0,0,1-.188-.055l.076.032a.926.926,0,0,1-.2-.12l.065.05a.972.972,0,0,1-.167-.168l.05.065a.921.921,0,0,1-.114-.195l.032.076a.88.88,0,0,1-.045-.137.32.32,0,0,0-.616.17,1.229,1.229,0,0,0,.942.9.346.346,0,0,0,.246-.032.32.32,0,0,0,.115-.437.314.314,0,0,0-.191-.147Z" transform="translate(-389.437 -300.109)" fill="#e17e6b"/>
                  </g>
                </g>
              </g>
              <g id="Grupo_1218156" data-name="Grupo 1218156" transform="translate(63.239 30.395)">
                <g id="Grupo_1218155" data-name="Grupo 1218155">
                  <g id="Grupo_1218154" data-name="Grupo 1218154">
                    <path id="Trazado_1167637" data-name="Trazado 1167637" d="M428.393,309.287l-1.845-1.412a.32.32,0,0,0-.437.115.329.329,0,0,0,.115.437l1.845,1.412a.32.32,0,0,0,.437-.115.33.33,0,0,0-.115-.437Z" transform="translate(-426.068 -307.828)" fill="#e17e6b"/>
                  </g>
                </g>
              </g>
              <g id="Grupo_1218159" data-name="Grupo 1218159" transform="translate(64.631 29.469)">
                <g id="Grupo_1218158" data-name="Grupo 1218158">
                  <g id="Grupo_1218157" data-name="Grupo 1218157">
                    <path id="Trazado_1167638" data-name="Trazado 1167638" d="M430.6,306.5l-.92-.71a.32.32,0,0,0-.246-.032.326.326,0,0,0-.191.147.322.322,0,0,0-.032.246l.032.076a.322.322,0,0,0,.115.115l.92.71a.32.32,0,0,0,.246.032.326.326,0,0,0,.191-.147.322.322,0,0,0,.032-.246l-.032-.076a.323.323,0,0,0-.115-.115Z" transform="translate(-429.194 -305.749)" fill="#e17e6b"/>
                  </g>
                </g>
              </g>
              <g id="Grupo_1218162" data-name="Grupo 1218162" transform="translate(68.324 42.057)">
                <g id="Grupo_1218161" data-name="Grupo 1218161">
                  <g id="Grupo_1218160" data-name="Grupo 1218160">
                    <path id="Trazado_1167639" data-name="Trazado 1167639" d="M439.027,335.874a2.845,2.845,0,0,0-1-1.774.327.327,0,0,0-.452,0,.323.323,0,0,0,0,.452,2.558,2.558,0,0,1,.332.326l.033.04c.039.046-.016-.024.006.007s.046.062.068.094q.066.1.123.2t.1.2c.013.029.02.048,0,.007l.019.048c.014.036.027.073.04.11a2.529,2.529,0,0,1,.109.466.32.32,0,0,0,.393.223.33.33,0,0,0,.224-.393Z" transform="translate(-437.484 -334.01)" fill="#e17e6b"/>
                  </g>
                </g>
              </g>
              <g id="Grupo_1218165" data-name="Grupo 1218165" transform="translate(66.922 43.685)">
                <g id="Grupo_1218164" data-name="Grupo 1218164">
                  <g id="Grupo_1218163" data-name="Grupo 1218163">
                    <path id="Trazado_1167640" data-name="Trazado 1167640" d="M435.431,339.063l-.465-1.162a.35.35,0,0,0-.147-.191.326.326,0,0,0-.246-.032.323.323,0,0,0-.191.147.309.309,0,0,0-.032.246l.465,1.162a.349.349,0,0,0,.147.191.32.32,0,0,0,.437-.115.31.31,0,0,0,.032-.246Z" transform="translate(-434.336 -337.666)" fill="#e17e6b"/>
                  </g>
                </g>
              </g>
              <g id="Grupo_1218168" data-name="Grupo 1218168" transform="translate(68.802 53.204)">
                <g id="Grupo_1218167" data-name="Grupo 1218167">
                  <g id="Grupo_1218166" data-name="Grupo 1218166">
                    <path id="Trazado_1167641" data-name="Trazado 1167641" d="M439.649,360.67l-.46-1.4a.32.32,0,0,0-.616.17l.46,1.4a.32.32,0,1,0,.616-.17Z" transform="translate(-438.559 -359.037)" fill="#e17e6b"/>
                  </g>
                </g>
              </g>
              <g id="Grupo_1218171" data-name="Grupo 1218171" transform="translate(69.511 52.031)">
                <g id="Grupo_1218170" data-name="Grupo 1218170">
                  <g id="Grupo_1218169" data-name="Grupo 1218169">
                    <path id="Trazado_1167642" data-name="Trazado 1167642" d="M441.224,357.249l-.478-.688a.342.342,0,0,0-.191-.147.328.328,0,0,0-.246.032.324.324,0,0,0-.147.191.317.317,0,0,0,.032.246l.478.688a.342.342,0,0,0,.191.147.327.327,0,0,0,.246-.032.324.324,0,0,0,.147-.191.317.317,0,0,0-.032-.246Z" transform="translate(-440.151 -356.403)" fill="#e17e6b"/>
                  </g>
                </g>
              </g>
              <g id="Grupo_1218174" data-name="Grupo 1218174" transform="translate(8.123 44.817)">
                <g id="Grupo_1218173" data-name="Grupo 1218173">
                  <g id="Grupo_1218172" data-name="Grupo 1218172">
                    <path id="Trazado_1167643" data-name="Trazado 1167643" d="M304.127,340.265a1.67,1.67,0,0,0-1.708.523.345.345,0,0,0-.094.226.32.32,0,0,0,.546.226,1.279,1.279,0,0,1,.125-.134c.022-.021.046-.04.069-.06s-.051.036-.016.013l.042-.029a1.376,1.376,0,0,1,.159-.091l.037-.017c.053-.025-.048.018-.011,0s.057-.021.087-.031a1.439,1.439,0,0,1,.168-.042.188.188,0,0,0,.05-.009c-.012.006-.07.008-.024,0,.031,0,.061,0,.091-.006a1.79,1.79,0,0,1,.183.007c.041,0-.083-.015-.014,0l.04.008c.033.007.066.015.1.025a.32.32,0,1,0,.17-.616Z" transform="translate(-302.325 -340.206)" fill="#e17e6b"/>
                  </g>
                </g>
              </g>
              <g id="Grupo_1218177" data-name="Grupo 1218177" transform="translate(6.745 42.048)">
                <g id="Grupo_1218176" data-name="Grupo 1218176">
                  <g id="Grupo_1218175" data-name="Grupo 1218175">
                    <path id="Trazado_1167644" data-name="Trazado 1167644" d="M301.162,334.08c-.063.055-.127.108-.193.159.027-.021,0,0-.01.007l-.05.037-.1.072a4.68,4.68,0,0,1-.442.269c-.074.039-.148.077-.224.112l-.114.052c-.049.021.039-.016-.01,0l-.058.024a4.736,4.736,0,0,1-.491.163.32.32,0,1,0,.17.616,5.057,5.057,0,0,0,1.978-1.063.321.321,0,0,0,0-.452.327.327,0,0,0-.452,0Z" transform="translate(-299.229 -333.99)" fill="#e17e6b"/>
                  </g>
                </g>
              </g>
            </g>
            <g id="Grupo_1218180" data-name="Grupo 1218180" transform="translate(7.066 86.141)">
              <g id="Grupo_1218179" data-name="Grupo 1218179">
                <path id="Trazado_1167645" data-name="Trazado 1167645" d="M359.149,462.835l-13.8-27.523s-22.24-9.063-45.4,8.6l7.69,18.925Z" transform="translate(-299.952 -432.987)" fill="#526667"/>
              </g>
            </g>
            <g id="Grupo_1218183" data-name="Grupo 1218183" transform="translate(14.069 100.982)">
              <g id="Grupo_1218182" data-name="Grupo 1218182">
                <g id="Grupo_1218181" data-name="Grupo 1218181">
                  <path id="Trazado_1167646" data-name="Trazado 1167646" d="M357.787,466.7a69.407,69.407,0,0,0-41.951,8.849.334.334,0,0,0,.337.577,68.726,68.726,0,0,1,41.613-8.757c.428.046.424-.622,0-.668Z" transform="translate(-315.674 -466.307)" fill="#354747"/>
                </g>
              </g>
            </g>
            <g id="Grupo_1218185" data-name="Grupo 1218185" transform="translate(13.101 96.919)">
              <g id="Grupo_1218184" data-name="Grupo 1218184">
                <path id="Trazado_1167647" data-name="Trazado 1167647" d="M317.892,465.969a4.392,4.392,0,1,1,4.392-4.392A4.4,4.4,0,0,1,317.892,465.969Zm0-7.894a3.5,3.5,0,1,0,3.5,3.5A3.505,3.505,0,0,0,317.892,458.075Z" transform="translate(-313.5 -457.185)" fill="#354747"/>
              </g>
            </g>
          </g>
          <g id="Grupo_1218196" data-name="Grupo 1218196" transform="translate(22.978 67.238)">
            <g id="Grupo_1218190" data-name="Grupo 1218190">
              <g id="Grupo_1218188" data-name="Grupo 1218188">
                <g id="Grupo_1218187" data-name="Grupo 1218187">
                  <path id="Trazado_1167648" data-name="Trazado 1167648" d="M139.315,419.73,137,418.113a19.656,19.656,0,0,0,.885-5.765,19.13,19.13,0,0,0-38.159-1.958l-2.835.69c1.092-11.21,10.587-20.534,21.865-20.534a21.826,21.826,0,0,1,21.8,21.8A28.359,28.359,0,0,1,139.315,419.73Z" transform="translate(-96.894 -390.546)" fill="#344949"/>
                </g>
              </g>
              <g id="Grupo_1218189" data-name="Grupo 1218189" transform="translate(39.164 7.01)">
                <path id="Trazado_1167649" data-name="Trazado 1167649" d="M199.091,418.448,196.725,408a2.2,2.2,0,0,0-2.633-1.66l-9.268,2.1,3.338,14.742,9.268-2.1A2.2,2.2,0,0,0,199.091,418.448Zm-4.589-3.29-.97.22a2.618,2.618,0,1,1-.5-2.213l.97-.22a1.134,1.134,0,0,1,.5,2.213Z" transform="translate(-184.824 -406.285)" fill="#344949"/>
              </g>
            </g>
            <g id="Grupo_1218194" data-name="Grupo 1218194" transform="translate(80.511)">
              <g id="Grupo_1218192" data-name="Grupo 1218192" transform="translate(9.819)">
                <g id="Grupo_1218191" data-name="Grupo 1218191">
                  <path id="Trazado_1167650" data-name="Trazado 1167650" d="M300.944,419.73l2.313-1.617a19.655,19.655,0,0,1-.885-5.765,19.13,19.13,0,0,1,38.159-1.958l2.835.69c-1.092-11.21-10.587-20.534-21.865-20.534a21.826,21.826,0,0,0-21.8,21.8A28.36,28.36,0,0,0,300.944,419.73Z" transform="translate(-299.699 -390.546)" fill="#344949"/>
                </g>
              </g>
              <g id="Grupo_1218193" data-name="Grupo 1218193" transform="translate(0 7.01)">
                <path id="Trazado_1167651" data-name="Trazado 1167651" d="M279.369,421.082l9.268,2.1,3.338-14.742-9.268-2.1a2.2,2.2,0,0,0-2.633,1.66l-2.366,10.448A2.2,2.2,0,0,0,279.369,421.082Zm2.072-7.28a1.134,1.134,0,0,1,1.357-.856l.97.22a2.618,2.618,0,1,1-.5,2.213l-.97-.22A1.135,1.135,0,0,1,281.441,413.8Z" transform="translate(-277.654 -406.285)" fill="#344949"/>
              </g>
            </g>
            <g id="Grupo_1218195" data-name="Grupo 1218195" transform="translate(50.993 12.386)">
              <path id="Trazado_1167652" data-name="Trazado 1167652" d="M223.694,448.258a11.628,11.628,0,0,1-1.753-.132c-.156-.024-.312-.051-.467-.082a.623.623,0,1,1,.24-1.223q.208.041.417.073a10.22,10.22,0,0,0,1.9.113.623.623,0,0,1,.041,1.246Q223.883,448.259,223.694,448.258Zm2.8-.345a.623.623,0,0,1-.148-1.228,12.07,12.07,0,0,0,2.212-.783.623.623,0,1,1,.527,1.129,13.3,13.3,0,0,1-2.441.863A.644.644,0,0,1,226.5,447.914Zm-7.24-.643a.618.618,0,0,1-.276-.065,7.416,7.416,0,0,1-2.171-1.579.623.623,0,1,1,.914-.848,6.172,6.172,0,0,0,1.81,1.309.624.624,0,0,1-.277,1.183Zm11.7-1.43a.623.623,0,0,1-.366-1.128,12.076,12.076,0,0,0,1.761-1.55.623.623,0,0,1,.912.849,13.327,13.327,0,0,1-1.942,1.712A.626.626,0,0,1,230.951,445.84Zm-14.829-2.171a.623.623,0,0,1-.608-.49,7.242,7.242,0,0,1-.152-1.556c0-.269.011-.561.033-.891l.014-.195a.623.623,0,0,1,1.243.094l-.013.183c-.018.269-.03.539-.03.809a6.034,6.034,0,0,0,.123,1.29.623.623,0,0,1-.476.742A.6.6,0,0,1,216.123,443.669Zm18.16-1.433a.623.623,0,0,1-.536-.939,9.1,9.1,0,0,0,.917-2.117.623.623,0,1,1,1.2.341,10.326,10.326,0,0,1-1.042,2.408A.624.624,0,0,1,234.283,442.236Zm-17.908-3.475a.639.639,0,0,1-.126-.013.623.623,0,0,1-.486-.735,21.4,21.4,0,0,1,.66-2.459.623.623,0,1,1,1.183.394,20.161,20.161,0,0,0-.621,2.314A.623.623,0,0,1,216.375,438.761Zm19.264-1.225h-.021a.623.623,0,0,1-.6-.643c0-.113.006-.226.006-.339a10.627,10.627,0,0,0-.19-1.983.623.623,0,0,1,1.224-.233,11.807,11.807,0,0,1,.212,2.217q0,.19-.006.38A.623.623,0,0,1,235.639,437.536ZM217.93,434.08a.614.614,0,0,1-.263-.059.623.623,0,0,1-.3-.828,23.032,23.032,0,0,1,1.2-2.238.623.623,0,1,1,1.064.648,21.815,21.815,0,0,0-1.134,2.117A.623.623,0,0,1,217.93,434.08Zm16.814-1.37a.623.623,0,0,1-.578-.391,13.88,13.88,0,0,0-1.071-2.107.623.623,0,0,1,1.061-.655,15.2,15.2,0,0,1,1.167,2.3.624.624,0,0,1-.578.856Zm-14.252-2.847a.623.623,0,0,1-.494-1,24.545,24.545,0,0,1,1.644-1.93.623.623,0,0,1,.906.856,23.172,23.172,0,0,0-1.56,1.831A.624.624,0,0,1,220.492,429.864Zm11.675-1.35a.62.62,0,0,1-.474-.219,16.835,16.835,0,0,0-1.673-1.7.623.623,0,0,1,.824-.935,18.011,18.011,0,0,1,1.8,1.823.623.623,0,0,1-.473,1.028Zm-8.284-2.237a.623.623,0,0,1-.407-1.095q.4-.348.824-.681c.379-.3.775-.594,1.175-.875a.354.354,0,0,0,.311-.535.623.623,0,0,1,.84-.267,22.86,22.86,0,0,1,2.19,1.288.623.623,0,0,1-.692,1.037c-.528-.353-1.088-.689-1.668-1a.622.622,0,0,1-.265.5c-.381.268-.758.547-1.117.832q-.4.316-.783.647A.62.62,0,0,1,223.882,426.276Zm4.038-2.839a.623.623,0,0,1-.31-1.165c.722-.411,1.478-.8,2.248-1.151a.623.623,0,1,1,.519,1.132c-.738.338-1.461.709-2.151,1.1A.621.621,0,0,1,227.921,423.438Zm-3.831-.461a.619.619,0,0,1-.23-.045c-.73-.29-1.5-.558-2.284-.794a.623.623,0,0,1,.359-1.194c.82.247,1.623.526,2.386.83a.623.623,0,0,1-.23,1.2Zm-4.728-1.432a.631.631,0,0,1-.134-.015c-.771-.169-1.575-.317-2.39-.438a.623.623,0,0,1,.184-1.233c.843.126,1.675.278,2.474.454a.623.623,0,0,1-.133,1.232Zm13.047-.166a.623.623,0,0,1-.21-1.21c.788-.283,1.6-.537,2.408-.754a.623.623,0,1,1,.323,1.2c-.776.208-1.554.451-2.31.722A.621.621,0,0,1,232.409,421.379Zm-17.934-.568-.054,0c-.8-.069-1.615-.115-2.433-.139a.623.623,0,1,1,.036-1.245c.842.024,1.684.073,2.5.143a.623.623,0,0,1-.053,1.244Zm22.7-.714a.623.623,0,0,1-.111-1.236c.824-.151,1.664-.27,2.5-.353a.623.623,0,1,1,.124,1.24c-.8.08-1.606.195-2.4.339A.642.642,0,0,1,237.178,420.1Zm6.4-.48h-.021c-.482-.016-.965-.02-1.453-.011h-.011a.623.623,0,0,1-.01-1.246q.76-.014,1.516.011a.623.623,0,0,1-.02,1.246Z" transform="translate(-211.382 -418.356)" fill="#344949"/>
            </g>
          </g>
        </g>
      </g>
    </g>
  </g>
</svg>
