<svg xmlns="http://www.w3.org/2000/svg" width="397.541" height="409.8" viewBox="0 0 397.541 409.8">
  <g id="Grupo_1216563" data-name="Grupo 1216563" transform="translate(-1020 -2296)">
    <rect id="Rectángulo_420526" data-name="Rectángulo 420526" width="256" height="406" rx="58" transform="translate(1136 2296)" fill="#899e78"/>
    <g id="Grupo_1216562" data-name="Grupo 1216562">
      <g id="Grupo_1216417" data-name="Grupo 1216417" transform="translate(1038.544 2549.531)">
        <g id="Grupo_1216415" data-name="Grupo 1216415" transform="translate(1.055)">
          <path id="Trazado_1162899" data-name="Trazado 1162899" d="M67.163,380.357s-11.993-11.305-16-25.76-4.007-38.067-4.007-38.067S57.89,323.4,69.2,345.152s12.737,35.205,12.737,35.205Z" transform="translate(-47.157 -287.193)" fill="#6b671f"/>
          <path id="Trazado_1162900" data-name="Trazado 1162900" d="M53.958,331.464S73.421,372.966,75,383.127" transform="translate(-47.376 -287.673)" fill="none" stroke="#a2a34a" stroke-miterlimit="10" stroke-width="1"/>
          <path id="Trazado_1162901" data-name="Trazado 1162901" d="M90.163,356.111S100.9,310.029,109.912,301.3c0,0,8.3,31.77,0,61.252S97.6,394.608,97.6,394.608H90.163Z" transform="translate(-48.54 -286.703)" fill="#6b671f"/>
          <line id="Línea_679" data-name="Línea 679" x1="13.828" y2="69.552" transform="translate(45.773 30.624)" fill="none" stroke="#a2a34a" stroke-miterlimit="10" stroke-width="1"/>
          <path id="Trazado_1162902" data-name="Trazado 1162902" d="M73.038,376.682s-5.1-22.97.71-56.986c2.145-12.563,6.946-33.479,6.946-33.479a227.811,227.811,0,0,1,12.165,34.06c6.01,21.753,10.447,62.826,10.447,62.826H80.381Z" transform="translate(-47.923 -286.218)" fill="#7f7d2a"/>
          <path id="Trazado_1162903" data-name="Trazado 1162903" d="M83.088,312.833s8.8,66.475,8.8,69.7" transform="translate(-48.312 -287.074)" fill="none" stroke="#a2a34a" stroke-miterlimit="10" stroke-width="1"/>
        </g>
        <g id="Grupo_1216416" data-name="Grupo 1216416" transform="translate(0 74.441)">
          <path id="Trazado_1162904" data-name="Trazado 1162904" d="M51.651,363.132h61.073s18.89,43.792-10.519,78.926h-39.5S34.372,418.1,51.651,363.132Z" transform="translate(-46.067 -363.132)" fill="#2d759c"/>
          <path id="Trazado_1162905" data-name="Trazado 1162905" d="M47.49,381.064h70.024c-.32-1.941-.682-3.762-1.061-5.438H48.521Q47.927,378.408,47.49,381.064Z" transform="translate(-46.112 -363.534)" fill="#abdaef"/>
          <path id="Trazado_1162906" data-name="Trazado 1162906" d="M56.734,436.769a38.432,38.432,0,0,0,6.317,7.657h39.5a71.423,71.423,0,0,0,5.588-7.657Z" transform="translate(-46.41 -365.5)" fill="#abdaef"/>
          <path id="Trazado_1162907" data-name="Trazado 1162907" d="M51.652,363.132C34.372,418.1,62.707,442.058,62.707,442.058h39.5a70.383,70.383,0,0,0,7.865-11.52H78.677a22.548,22.548,0,0,1-21.26-15.049,51.911,51.911,0,0,1-3.083-15.863c-.429-16.958,7.943-36.493,7.943-36.493Z" transform="translate(-46.067 -363.132)" fill="#3c4042" opacity="0.22"/>
        </g>
      </g>
      <g id="Grupo_1216423" data-name="Grupo 1216423" transform="translate(1020 2312.373)">
        <path id="Trazado_1162908" data-name="Trazado 1162908" d="M405.7,205.88s-2.255,26.383-29,36.333a65.2,65.2,0,0,1-22.889,3.736c-48.46,0-51.886-40.069-51.886-40.069Z" transform="translate(-35.75 -46.476)" fill="#215681"/>
        <path id="Trazado_1162909" data-name="Trazado 1162909" d="M376.708,242.213a65.2,65.2,0,0,1-22.889,3.736c-48.46,0-51.886-40.069-51.886-40.069h20.141l2.139,2.681c.629,25.009,21.6,34.155,50.018,33.642C375.13,242.184,375.962,242.184,376.708,242.213Z" transform="translate(-35.75 -46.476)" fill="#143e56"/>
        <ellipse id="Elipse_14359" data-name="Elipse 14359" cx="51.886" cy="5.139" rx="51.886" ry="5.139" transform="translate(266.179 154.439)" fill="#4580a8"/>
        <ellipse id="Elipse_14360" data-name="Elipse 14360" cx="46.195" cy="3.194" rx="46.195" ry="3.194" transform="translate(271.87 156.384)" fill="#215681"/>
        <path id="Trazado_1162910" data-name="Trazado 1162910" d="M302.109,200.889,353.821,88.61l49.737,112.279" transform="translate(-35.756 -42.705)" fill="none" stroke="#5f6666" stroke-linecap="round" stroke-linejoin="round" stroke-miterlimit="10" stroke-width="3"/>
        <circle id="Elipse_14361" data-name="Elipse 14361" cx="4.617" cy="4.617" r="4.617" transform="translate(261.562 154.787)" fill="#ea9b1c"/>
        <circle id="Elipse_14362" data-name="Elipse 14362" cx="4.617" cy="4.617" r="4.617" transform="translate(365.015 154.787)" fill="#ea9b1c"/>
        <g id="Grupo_1216418" data-name="Grupo 1216418" transform="translate(103.453)">
          <path id="Trazado_1162911" data-name="Trazado 1162911" d="M240.542,297.322H199.07l9.466-205.8h22.541Z" transform="translate(-135.895 -42.799)" fill="#215681"/>
          <path id="Trazado_1162912" data-name="Trazado 1162912" d="M241.3,297.322H224.135L222.78,91.52h9.059Z" transform="translate(-136.658 -42.799)" fill="#143e56"/>
          <rect id="Rectángulo_420450" data-name="Rectángulo 420450" width="161.204" height="105.48" transform="translate(5.523 285.044)" fill="#af4700"/>
          <path id="Trazado_1162913" data-name="Trazado 1162913" d="M153.788,388.832V335.7H139.5V441.175h161.2V423.362H188.318A34.53,34.53,0,0,1,153.788,388.832Z" transform="translate(-133.98 -50.651)" fill="#8e3900"/>
          <path id="Trazado_1162914" data-name="Trazado 1162914" d="M299.409,325.64h-163.4a2.212,2.212,0,0,0-2.212,2.212v5.31a2.211,2.211,0,0,0,2.212,2.211h163.4a2.211,2.211,0,0,0,2.212-2.211v-5.31A2.213,2.213,0,0,0,299.409,325.64Z" transform="translate(-133.796 -50.328)" fill="#cc6017"/>
          <path id="Trazado_1162915" data-name="Trazado 1162915" d="M281.095,314.96H155.443L151.218,325.3h134.1Z" transform="translate(-134.356 -49.984)" fill="#215681"/>
          <path id="Trazado_1162916" data-name="Trazado 1162916" d="M271.818,304.16H165.4L161.823,314.5H275.4Z" transform="translate(-134.697 -49.637)" fill="#42779b"/>
          <path id="Trazado_1162917" data-name="Trazado 1162917" d="M231.582,95.759l-.2-4.239H208.844l-.195,4.239Z" transform="translate(-136.203 -42.799)" fill="#fab725"/>
          <path id="Trazado_1162918" data-name="Trazado 1162918" d="M231.29,90.434H208.765a2.848,2.848,0,0,1-2.848-2.848v-27a2.848,2.848,0,0,1,2.848-2.848h22.526a2.848,2.848,0,0,1,2.848,2.848v27A2.85,2.85,0,0,1,231.29,90.434Z" transform="translate(-136.115 -41.713)" fill="#f09716"/>
          <circle id="Elipse_14363" data-name="Elipse 14363" cx="10.586" cy="10.586" r="10.586" transform="translate(71.248 40.372) rotate(-77.249)" fill="#fab725"/>
          <ellipse id="Elipse_14364" data-name="Elipse 14364" cx="7.556" cy="7.556" rx="7.556" ry="7.556" transform="translate(75.08 26.35) rotate(-10.696)" fill="#ea9b1c"/>
          <rect id="Rectángulo_420451" data-name="Rectángulo 420451" width="21.173" height="4.471" transform="translate(73.326 11.556)" fill="#fab725"/>
          <path id="Trazado_1162919" data-name="Trazado 1162919" d="M220.237,41.18c-8.982,0-7.722,11.556-7.722,11.556H227.96S229.22,41.18,220.237,41.18Z" transform="translate(-136.326 -41.18)" fill="#215681"/>
        </g>
        <g id="Grupo_1216421" data-name="Grupo 1216421" transform="translate(0 17.729)">
          <path id="Trazado_1162920" data-name="Trazado 1162920" d="M135.452,205.88s-2.255,26.383-29,36.333a65.2,65.2,0,0,1-22.889,3.736c-48.46,0-51.886-40.069-51.886-40.069Z" transform="translate(-27.06 -64.205)" fill="#215681"/>
          <path id="Trazado_1162921" data-name="Trazado 1162921" d="M106.455,242.213a65.2,65.2,0,0,1-22.889,3.736c-48.46,0-51.886-40.069-51.886-40.069H51.821l2.139,2.681c.629,25.009,21.6,34.155,50.018,33.642C104.878,242.184,105.71,242.184,106.455,242.213Z" transform="translate(-27.06 -64.205)" fill="#143e56"/>
          <ellipse id="Elipse_14365" data-name="Elipse 14365" cx="51.886" cy="5.139" rx="51.886" ry="5.139" transform="translate(4.617 136.71)" fill="#4580a8"/>
          <ellipse id="Elipse_14366" data-name="Elipse 14366" cx="46.195" cy="3.194" rx="46.195" ry="3.194" transform="translate(10.308 138.655)" fill="#215681"/>
          <path id="Trazado_1162922" data-name="Trazado 1162922" d="M31.856,200.889,83.568,88.61l49.737,112.279" transform="translate(-27.065 -60.434)" fill="none" stroke="#5f6666" stroke-linecap="round" stroke-linejoin="round" stroke-miterlimit="10" stroke-width="3"/>
          <circle id="Elipse_14367" data-name="Elipse 14367" cx="4.617" cy="4.617" r="4.617" transform="translate(0 137.058)" fill="#ea9b1c"/>
          <circle id="Elipse_14368" data-name="Elipse 14368" cx="4.617" cy="4.617" r="4.617" transform="translate(103.453 137.058)" fill="#ea9b1c"/>
          <g id="Grupo_1216420" data-name="Grupo 1216420" transform="translate(25.053 98.819)">
            <path id="Trazado_1162923" data-name="Trazado 1162923" d="M106.8,169.73l5.6,9.291-4.259,28.342s-35.258.983-55.355-.394l8.832-45.37" transform="translate(-52.791 -161.6)" fill="#fff"/>
            <path id="Trazado_1162924" data-name="Trazado 1162924" d="M52.791,206.97l8.832-45.37,45.179,8.13-6.854,37.9S64.875,208.231,52.791,206.97Z" transform="translate(-52.791 -161.6)" fill="#d3492a"/>
            <path id="Trazado_1162925" data-name="Trazado 1162925" d="M70.086,205.031a8.125,8.125,0,0,1-7.691-9.838l6.943-32.2L61.624,161.6l-8.832,45.37c12.084,1.261,47.156.665,47.156.665l.531-2.936C90.859,205.455,78.527,205.291,70.086,205.031Z" transform="translate(-52.791 -161.6)" fill="#aa3421" opacity="0.26"/>
            <line id="Línea_680" data-name="Línea 680" x1="5.401" y2="31.213" transform="translate(50.294 14.024)" fill="none" stroke="#d9dadb" stroke-linecap="round" stroke-linejoin="round" stroke-miterlimit="10" stroke-width="0.5"/>
            <line id="Línea_681" data-name="Línea 681" x1="5.691" y2="28.513" transform="translate(51.862 16.26)" fill="none" stroke="#d9dadb" stroke-linecap="round" stroke-linejoin="round" stroke-miterlimit="10" stroke-width="0.5"/>
            <line id="Línea_682" data-name="Línea 682" y1="24.215" x2="4.617" transform="translate(53.72 19.976)" fill="none" stroke="#d9dadb" stroke-linecap="round" stroke-linejoin="round" stroke-miterlimit="10" stroke-width="0.5"/>
            <line id="Línea_683" data-name="Línea 683" x1="8.449" y2="43.03" transform="translate(3.344 1.568)" fill="none" stroke="#e86752" stroke-linecap="round" stroke-linejoin="round" stroke-miterlimit="10" stroke-width="0.75"/>
            <g id="Grupo_1216419" data-name="Grupo 1216419" transform="translate(13.971 12.485)">
              <path id="Trazado_1162926" data-name="Trazado 1162926" d="M69.315,174.5,68.1,185.882h3.992" transform="translate(-67.254 -174.5)" fill="none" stroke="#fff" stroke-linecap="round" stroke-linejoin="round" stroke-miterlimit="10" stroke-width="1"/>
              <path id="Trazado_1162927" data-name="Trazado 1162927" d="M75.836,185.955l4.7-9.175.873,11.846" transform="translate(-67.503 -174.573)" fill="none" stroke="#fff" stroke-linecap="round" stroke-linejoin="round" stroke-miterlimit="10" stroke-width="1"/>
              <line id="Línea_684" data-name="Línea 684" x2="3.265" y2="0.404" transform="translate(10.207 7.726)" fill="none" stroke="#fff" stroke-linecap="round" stroke-linejoin="round" stroke-miterlimit="10" stroke-width="1"/>
              <path id="Trazado_1162928" data-name="Trazado 1162928" d="M86.036,177.8l2.323,10.859,2.671-6.125,2.149,6.676,4.791-8.914" transform="translate(-67.831 -174.606)" fill="none" stroke="#fff" stroke-linecap="round" stroke-linejoin="round" stroke-miterlimit="10" stroke-width="1"/>
              <line id="Línea_685" data-name="Línea 685" x2="25.522" y2="4.53" transform="translate(0 15.911)" fill="none" stroke="#fff" stroke-linecap="round" stroke-linejoin="round" stroke-miterlimit="10" stroke-width="1"/>
            </g>
          </g>
          <path id="Trazado_1162929" data-name="Trazado 1162929" d="M201.638,60.177V85.845s-34.494-.7-58.187,7.2-36.41,14.053-54.18,8.653S71.444,90.374,74.231,83.87a11.2,11.2,0,0,1,16.26-4.994c5.807,3.484,5.575,11.15,4.53,13.937,0,0,12.659,2.787,39.14-7.2S182.867,55.561,201.638,60.177Z" transform="translate(-28.385 -59.498)" fill="#fab725"/>
          <circle id="Elipse_14369" data-name="Elipse 14369" cx="4.413" cy="4.413" r="4.413" transform="translate(52.089 23.762)" fill="#f09716"/>
        </g>
        <g id="Grupo_1216422" data-name="Grupo 1216422" transform="translate(201.476 17.729)">
          <path id="Trazado_1162930" data-name="Trazado 1162930" d="M235.076,60.177V85.845s34.494-.7,58.187,7.2,36.41,14.053,54.18,8.653,17.828-11.324,15.04-17.828a11.2,11.2,0,0,0-16.26-4.994c-5.807,3.484-5.575,11.15-4.529,13.937,0,0-12.659,2.787-39.14-7.2S253.848,55.561,235.076,60.177Z" transform="translate(-235.076 -59.498)" fill="#fab725"/>
          <circle id="Elipse_14370" data-name="Elipse 14370" cx="4.413" cy="4.413" r="4.413" transform="translate(112.337 23.762)" fill="#f09716"/>
        </g>
      </g>
      <g id="Grupo_1216426" data-name="Grupo 1216426" transform="translate(1230.56 2341.667)">
        <path id="Trazado_1162931" data-name="Trazado 1162931" d="M385.921,422.72s-22.88,12.95-24.622,15.214-1.568,6.039-1.568,6.039h50.632a2.59,2.59,0,0,0,2.586-2.731l-1.012-18.523Z" transform="translate(-248.168 -82.744)" fill="#4a1913"/>
        <path id="Trazado_1162932" data-name="Trazado 1162932" d="M295.883,422.068s-20.441,10.2-23.751,11.943-4.007,8.362-3.426,9.872h58.477V419.9Z" transform="translate(-245.235 -82.653)" fill="#4a1913"/>
        <path id="Trazado_1162933" data-name="Trazado 1162933" d="M314.338,246.8s-15.5,67.826-20.847,168.637c0,0,13.414,5.807,37.107,2.323,0,0,15.1-127.291,20.557-151.158,0,0,21.486,146.416,23.344,152.271h36.468s-18.35-162.2-18.35-166.033S314.338,246.8,314.338,246.8Z" transform="translate(-246.038 -77.086)" fill="#192d35"/>
        <path id="Trazado_1162934" data-name="Trazado 1162934" d="M394.125,261.839c-.552-5.252-.869-8.5-.869-9,0-3.833-78.279-6.039-78.279-6.039s-.61,2.67-1.627,7.721c7.085,3.5,23.662,11.443,32.985,14l4.762-9.64,5.342,10.917S383.732,264.52,394.125,261.839Z" transform="translate(-246.677 -77.086)" fill="#192d35" opacity="0.33"/>
        <path id="Trazado_1162935" data-name="Trazado 1162935" d="M273.2,124.8l-25.13,31L253,160.085l4.831-5.882,8.188-9.879,11.108-16.208Z" transform="translate(-244.578 -73.163)" fill="#47210c"/>
        <path id="Trazado_1162936" data-name="Trazado 1162936" d="M277.383,145.75a49.112,49.112,0,0,1-3.963-6.141c-1.263-2.57-2.874-6.359-3.266-6.489s-2,.828-2,.828-3.746-4.747-4.036-4.747-4.152,2.657-4.5,3.876a6.43,6.43,0,0,0-3.687,3.963,5.374,5.374,0,0,0-3.252,4.123s-2.323,2.149-2.323,3.426,5.342,7.085,5.342,7.085,2.9-2.265,3.02-3.136c0,0,2.76-1.307,2.972-3.636,0,0,.4.442,1.673-1.532l3.658-1.1-2.671,3.775-6.446,8.3a51.869,51.869,0,0,0,5.459,7.085S273.87,154.054,277.383,145.75Z" transform="translate(-244.651 -73.304)" fill="#fca388"/>
        <path id="Trazado_1162937" data-name="Trazado 1162937" d="M267.275,166.683l-3.484-4.7L277.815,146.3l2.352,3.4Z" transform="translate(-245.083 -73.854)" fill="#f8efe2"/>
        <path id="Trazado_1162938" data-name="Trazado 1162938" d="M327.988,122.933s-12.717,2.634-13.676,2.9-22.531,34.378-22.531,34.378l-11.963-13.124L263.791,168.1a60.066,60.066,0,0,1,4.762,3.949c1.51,1.51,18.815,19.628,20.673,20.325s8.827,1.045,9.988.7,16.027-21.486,16.027-21.486l3.6,29.5L308.505,245.88s27.409,12.466,33.681,13.743c0,0,4.646-8.246,6.272-9.524,0,0,6.968,9.407,8.014,11.73l38.907-10.22s-4.065-29.268-10.685-46.514l-.871-9.93s8.188,2,10.8,1.568,6.533-4.268,8.362-7.578,1.568-5.488.435-9.582-6.881-27.787-9.93-36.149-10.366-18.565-10.366-18.565-.958-.772-5.314-1.295-15.36-1.684-15.36-1.684Z" transform="translate(-245.083 -73.069)" fill="#0f3e54"/>
        <path id="Trazado_1162939" data-name="Trazado 1162939" d="M405.352,188.128c.049-.109.095-.219.138-.326.1-.241.183-.477.258-.711.049-.153.1-.306.135-.456q.089-.334.147-.664c.03-.175.053-.351.072-.527.012-.109.019-.221.027-.331a10.11,10.11,0,0,0-.094-2.108v0c-.618,3.346-3.125,6.909-9.27,7.82-7.782,1.154-39.924-9.736-39.924-9.736l-5.767-58.79-18.953.58-2.282.07-.132.027-1.282.266c-6.037,17.924-7.035,25.975-7.035,25.975a20.779,20.779,0,0,0,5.575,2.149c-1.082,1.163-2.352,8.406-2.352,8.406,2.7,6.577,9.146,12.413,9.146,12.413a11.7,11.7,0,0,0,3.658,5.923l-2.245,7.665,10.918,4.109,1.025,6.645a14.7,14.7,0,0,1,.17,2.02l.824,54.38a25.6,25.6,0,0,1,1.554-2.141l-1.052-52.827-.87-7.456,16.452,6.193a33.885,33.885,0,0,1,20.663,22.213c2.317,8,4.1,16.791,3.314,23.191a24.089,24.089,0,0,1-7.058,13.757l16.117-4.233s-.571-4.115-1.635-10.17q-.134-.756-.276-1.552c-.191-1.061-.395-2.17-.613-3.318q-.163-.861-.336-1.75c-.346-1.776-.721-3.628-1.123-5.522-.671-3.156-1.42-6.428-2.24-9.659-.328-1.292-.668-2.577-1.018-3.847-1.051-3.807-2.2-7.463-3.445-10.7l-.871-9.93s.8.2,1.979.451c.471.1,1,.214,1.57.327s1.166.226,1.773.333,1.221.2,1.816.286c.3.041.589.077.873.109.567.063,1.1.105,1.576.119a6.48,6.48,0,0,0,1.215-.058,6.211,6.211,0,0,0,2.151-.9,14.265,14.265,0,0,0,1.744-1.292,20.6,20.6,0,0,0,1.705-1.646,21.744,21.744,0,0,0,1.534-1.847,17.266,17.266,0,0,0,1.227-1.891C405.038,188.808,405.2,188.465,405.352,188.128Z" transform="translate(-246.936 -73.082)" fill="#0f3e54" opacity="0.25"/>
        <path id="Trazado_1162940" data-name="Trazado 1162940" d="M323.015,204.646l-8.543-47.981c-5.9,10.759-17.581,28.643-23.852,27.192-5.293-1.225-16.791-18.044-20.249-23.263l-6.579,8.629a60.066,60.066,0,0,1,4.762,3.949c1.51,1.51,18.815,19.628,20.673,20.325s8.827,1.045,9.988.7,16.027-21.486,16.027-21.486l3.6,29.5L308.505,247Z" transform="translate(-245.083 -74.188)" fill="#0f3e54" opacity="0.25"/>
        <path id="Trazado_1162941" data-name="Trazado 1162941" d="M383.284,155.219l1.983-7.675-3.279-3.1a68.138,68.138,0,0,1,2.9-17.254c-2.125,3.451-5.269,16.584-5.269,16.584l-3.183,22.706,15.2,1.637A26.844,26.844,0,0,1,383.284,155.219Z" transform="translate(-248.706 -73.24)" fill="#0f3e54" opacity="0.25"/>
        <path id="Trazado_1162942" data-name="Trazado 1162942" d="M367.191,122.052l-1.624-.172-1.988.061-2.947,25.432H374.22C368.552,140.293,367.417,126.831,367.191,122.052Z" transform="translate(-248.198 -73.069)" fill="#0f3e54" opacity="0.25"/>
        <path id="Trazado_1162943" data-name="Trazado 1162943" d="M350.567,250.789s-1.045-48.2-1.045-49.825-2.091-17.923-2.091-17.923" transform="translate(-247.773 -75.036)" fill="none" stroke="#06222d" stroke-linecap="round" stroke-linejoin="round" stroke-miterlimit="10" stroke-width="1"/>
        <path id="Trazado_1162944" data-name="Trazado 1162944" d="M385.538,126.05a61.578,61.578,0,0,0-6.1,19.512" transform="translate(-248.802 -73.203)" fill="none" stroke="#06222d" stroke-linecap="round" stroke-linejoin="round" stroke-miterlimit="10" stroke-width="1"/>
        <path id="Trazado_1162945" data-name="Trazado 1162945" d="M359.932,121.88h4.413s.116,14.837,4.123,21.631l-23.013,33.013s-14.442-6.185-19.146-16.768c0,0,.784-7.8,3.223-9.364,0,0-5.749-.7-6.881-1.742,0,0,2.962-16.33,7.23-25.717l5.081-.414Z" transform="translate(-246.976 -73.069)" fill="#184e63"/>
        <path id="Trazado_1162946" data-name="Trazado 1162946" d="M357.545,139.672l22.328,5.139,2.7,2.991-4.617,19.221s-11.057-1.272-14.9-.871l-4.239,7.375-.639,9.233a36.156,36.156,0,0,0-1.219,4.384l11.846,4.094a113.417,113.417,0,0,1-14.227-2.874c-6.765-1.916-15.89-4.7-15.89-4.7l3.724-14.285-1.423-14.547,5.994-19.6Z" transform="translate(-247.492 -73.498)" fill="#2983bb"/>
        <line id="Línea_686" data-name="Línea 686" x1="11.004" y2="43.901" transform="translate(93.502 65.768)" fill="none" stroke="#1c69a3" stroke-linecap="round" stroke-linejoin="round" stroke-miterlimit="10" stroke-width="0.75"/>
        <path id="Trazado_1162947" data-name="Trazado 1162947" d="M360.453,165.26l3.136,1.858-4.878,16.608-3.6-1.278S356.389,169.441,360.453,165.26Z" transform="translate(-248.02 -74.464)" fill="#f8efe2"/>
        <path id="Trazado_1162948" data-name="Trazado 1162948" d="M338.98,159.022a12.017,12.017,0,0,0-.407,2.163,9.374,9.374,0,0,0-1.873,5.88,9.545,9.545,0,0,0-.74,4.617,2.524,2.524,0,0,0-.3,1.437c.131.653,2.163,4.254,3.325,4.718s13.124,4.646,15.5,4.3l5.342-17.189s-6.91-7.317-8.072-7.84-3.6,2.149-3.6,2.149l-4.413-1.1-3.659-2.671A3.013,3.013,0,0,0,338.98,159.022Z" transform="translate(-247.394 -74.15)" fill="#fca388"/>
        <path id="Trazado_1162949" data-name="Trazado 1162949" d="M335.306,122.519a48.516,48.516,0,0,0,2.5,33.971l9.988-15.621.755-3.194,3.136.174,5.691,1.394s1.423-12.079,2.9-17.363Z" transform="translate(-247.32 -73.069)" fill="#efe1ce"/>
        <path id="Trazado_1162950" data-name="Trazado 1162950" d="M340.651,127.911s1.5,7.577,3.589,8.971h2.16a83.821,83.821,0,0,0,3.441-8.493,5.9,5.9,0,0,0-.915-4.094h-5.194Z" transform="translate(-247.555 -73.147)" fill="#c1332d"/>
        <path id="Trazado_1162951" data-name="Trazado 1162951" d="M339.523,122.166l-4.152.346s0,6.736,2.962,10.917c0,0,2.78-6.265,7.894-8.794,0,0,3.749,7.632,7.495,9.375,0,0,5.749-11.44,6.62-12.137l-1.693-.229Z" transform="translate(-247.385 -73.061)" fill="#f8efe2"/>
        <path id="Trazado_1162952" data-name="Trazado 1162952" d="M325.107,94.618s-2.381,15.476,13.734,22.009l.392,4.7s1.254,1.481,8.009,2.091a17.343,17.343,0,0,0,11.2-2.7l-1.655-5.749a39.862,39.862,0,0,0,5.662-5.009s4.82.218,7.259-6,.929-9.582-.7-10.859L358.7,79.52l-29.935,3.252S326.617,85.095,325.107,94.618Z" transform="translate(-247.051 -71.707)" fill="#fca388"/>
        <path id="Trazado_1162953" data-name="Trazado 1162953" d="M328.756,84.716s-2.265,2.207-3.658,9.988a14.14,14.14,0,0,1,0-6.867c.929-4.007,2.5-5.662,2.5-5.662Z" transform="translate(-247.042 -71.792)" fill="#051d28"/>
        <path id="Trazado_1162954" data-name="Trazado 1162954" d="M326.31,79.609a7.047,7.047,0,0,0,4.762,7.259s2.584.058,11.382-.813A36.886,36.886,0,0,0,357.61,81l-3.658,3.658s-.7,5.139,1.916,9.146a8.814,8.814,0,0,0,6.446,4.181s2.962-5.488,3.615-6.054a3.818,3.818,0,0,1,3.121.915s.987-6.1,0-9.465-4.355-4.994-5.923-4.646c0,0-3.513-6.446-14.053-7.23s-18.973,6.245-20.818,8.1A2.078,2.078,0,0,1,326.31,79.609Z" transform="translate(-247.093 -71.447)" fill="#092b3d"/>
        <path id="Trazado_1162955" data-name="Trazado 1162955" d="M369.537,82.615c-1.426.168-3.035,1.079-5.61,2.886-4.094,2.874-8.144-.466-8.144-.466l2.744-3.716-3.658,3.658s-.7,5.139,1.916,9.146a8.814,8.814,0,0,0,6.446,4.181s2.962-5.488,3.615-6.054a3.818,3.818,0,0,1,3.121.915s.987-6.1,0-9.465A6.569,6.569,0,0,0,369.537,82.615Z" transform="translate(-248.009 -71.765)" fill="#092b3d" opacity="0.33"/>
        <path id="Trazado_1162956" data-name="Trazado 1162956" d="M327.151,91.146s.174,1.219,1.176,1.437a5.989,5.989,0,0,1,5.744-2.13.688.688,0,0,0,.766-.518,1.879,1.879,0,0,0-1.241-2.362S329.125,87.415,327.151,91.146Z" transform="translate(-247.121 -71.966)" fill="#092b3d"/>
        <path id="Trazado_1162957" data-name="Trazado 1162957" d="M343.957,90.771a4.938,4.938,0,0,1,.255-2.109,10.419,10.419,0,0,1,4.7-1.1,3.853,3.853,0,0,1,2.845,2.381s0,1.6-1.394,1.742a2.448,2.448,0,0,0-2.061-1.307,9.212,9.212,0,0,0-3.679.817A.487.487,0,0,1,343.957,90.771Z" transform="translate(-247.661 -71.964)" fill="#092b3d"/>
        <ellipse id="Elipse_14371" data-name="Elipse 14371" cx="1.219" cy="2.809" rx="1.219" ry="2.809" transform="translate(84.429 21.925)" fill="#06202b"/>
        <ellipse id="Elipse_14372" data-name="Elipse 14372" cx="1.219" cy="2.809" rx="1.219" ry="2.809" transform="translate(99.881 22.143)" fill="#06202b"/>
        <path id="Trazado_1162958" data-name="Trazado 1162958" d="M339.23,97.52l-2.134,7.622h2.526" transform="translate(-247.441 -72.286)" fill="none" stroke="#ef6159" stroke-linecap="round" stroke-linejoin="round" stroke-miterlimit="10" stroke-width="1.2"/>
        <g id="Grupo_1216424" data-name="Grupo 1216424" transform="translate(94.945 33.228)">
          <path id="Trazado_1162959" data-name="Trazado 1162959" d="M342.78,111.542a33.668,33.668,0,0,0,9.97-5.728.144.144,0,0,1,.2.2,19.47,19.47,0,0,1-4.551,3.777,20.125,20.125,0,0,1-5.456,2.341.308.308,0,0,1-.164-.594Z" transform="translate(-342.561 -105.779)" fill="#ef6159"/>
        </g>
        <path id="Trazado_1162960" data-name="Trazado 1162960" d="M324.462,98.4l.486,4.352,10.848-.462.546-4.771Z" transform="translate(-247.034 -72.286)" fill="#bbeaea" opacity="0.23"/>
        <path id="Trazado_1162961" data-name="Trazado 1162961" d="M343.051,102.254V97.5l11.356-.566v4.138A25.614,25.614,0,0,1,343.051,102.254Z" transform="translate(-247.632 -72.267)" fill="#bbeaea" opacity="0.23"/>
        <path id="Trazado_1162962" data-name="Trazado 1162962" d="M324.462,98.4l.486,4.352,10.848-.462.546-4.771Z" transform="translate(-247.034 -72.286)" fill="none" stroke="#5e5654" stroke-linecap="round" stroke-linejoin="round" stroke-miterlimit="10" stroke-width="0.5"/>
        <path id="Trazado_1162963" data-name="Trazado 1162963" d="M336.427,100.21a13.46,13.46,0,0,1,6.237,0" transform="translate(-247.419 -72.36)" fill="none" stroke="#5e5654" stroke-linecap="round" stroke-linejoin="round" stroke-miterlimit="10" stroke-width="0.5"/>
        <path id="Trazado_1162964" data-name="Trazado 1162964" d="M343.051,102.254V97.5l11.356-.566v4.138A25.614,25.614,0,0,1,343.051,102.254Z" transform="translate(-247.632 -72.267)" fill="none" stroke="#5e5654" stroke-linecap="round" stroke-linejoin="round" stroke-miterlimit="10" stroke-width="0.5"/>
        <line id="Línea_687" data-name="Línea 687" y1="5.604" x2="11.66" transform="translate(106.774 20.676)" fill="none" stroke="#5e5654" stroke-linecap="round" stroke-linejoin="round" stroke-miterlimit="10" stroke-width="0.5"/>
        <path id="Trazado_1162965" data-name="Trazado 1162965" d="M368.762,97.88s-3.484,3.789-4.486,5.88" transform="translate(-248.315 -72.297)" fill="none" stroke="#ef6159" stroke-linecap="round" stroke-linejoin="round" stroke-miterlimit="10" stroke-width="1"/>
        <path id="Trazado_1162966" data-name="Trazado 1162966" d="M368.8,100.918a6.611,6.611,0,0,0-3.325,1.088" transform="translate(-248.353 -72.395)" fill="none" stroke="#ef6159" stroke-linecap="round" stroke-linejoin="round" stroke-miterlimit="10" stroke-width="1"/>
        <path id="Trazado_1162967" data-name="Trazado 1162967" d="M360.541,108.98a7.594,7.594,0,0,0,2.642,1.916" transform="translate(-248.195 -72.654)" fill="none" stroke="#ef6159" stroke-linecap="round" stroke-linejoin="round" stroke-miterlimit="10" stroke-width="0.75"/>
        <path id="Trazado_1162968" data-name="Trazado 1162968" d="M339.3,117.85a20.032,20.032,0,0,0,13.095-.29h0a1.6,1.6,0,0,1-.418,2.232,17.037,17.037,0,0,1-12.285,2.762Z" transform="translate(-247.512 -72.93)" fill="#ef6159" opacity="0.65"/>
        <path id="Trazado_1162969" data-name="Trazado 1162969" d="M346.313,137.3l1.626,4.065-4.123,16.2a28.952,28.952,0,0,0-3.891-.755c-.348.116-.871,1.626-.871,1.626l-1.1-1.452s3.252-11.091,6.2-19.686Z" transform="translate(-247.468 -73.565)" fill="#d34439"/>
        <line id="Línea_688" data-name="Línea 688" x2="3.949" y2="3.223" transform="translate(91.528 87.254)" fill="none" stroke="#ef6159" stroke-linecap="round" stroke-linejoin="round" stroke-miterlimit="10" stroke-width="0.75"/>
        <line id="Línea_689" data-name="Línea 689" x2="4.669" y2="3.19" transform="translate(89.647 93.428)" fill="none" stroke="#ef6159" stroke-linecap="round" stroke-linejoin="round" stroke-miterlimit="10" stroke-width="0.75"/>
        <line id="Línea_690" data-name="Línea 690" x2="4.138" y2="3.179" transform="translate(89.133 97.837)" fill="none" stroke="#ef6159" stroke-linecap="round" stroke-linejoin="round" stroke-miterlimit="10" stroke-width="0.75"/>
        <line id="Línea_691" data-name="Línea 691" x1="3.484" y1="1.263" transform="translate(101.023 85.424)" fill="none" stroke="#ef6159" stroke-linecap="round" stroke-linejoin="round" stroke-miterlimit="10" stroke-width="0.75"/>
        <path id="Trazado_1162970" data-name="Trazado 1162970" d="M379.154,167.342l4.617-19.221-2.7-2.991-5.137,21.876C377.827,167.189,379.154,167.342,379.154,167.342Z" transform="translate(-248.69 -73.817)" fill="#1c69a3"/>
        <line id="Línea_692" data-name="Línea 692" x1="4.762" y2="0.174" transform="translate(82.876 77.207)" fill="none" stroke="#0f3e54" stroke-linecap="round" stroke-linejoin="round" stroke-miterlimit="10" stroke-width="0.5"/>
        <path id="Trazado_1162971" data-name="Trazado 1162971" d="M358.79,184.34l-1.219,4.384s24.085,7.518,30.29,8.688" transform="translate(-248.099 -75.078)" fill="none" stroke="#06222d" stroke-linecap="round" stroke-linejoin="round" stroke-miterlimit="10" stroke-width="1"/>
        <path id="Trazado_1162972" data-name="Trazado 1162972" d="M363.871,167.18s20.789.406,32.984,3.31" transform="translate(-248.302 -74.526)" fill="none" stroke="#06222d" stroke-linecap="round" stroke-linejoin="round" stroke-miterlimit="10" stroke-width="1"/>
        <line id="Línea_693" data-name="Línea 693" x1="1.566" y1="2.578" transform="translate(132.061 91.144)" fill="none" stroke="#06222d" stroke-linecap="round" stroke-linejoin="round" stroke-miterlimit="10" stroke-width="1"/>
        <path id="Trazado_1162973" data-name="Trazado 1162973" d="M315.511,143s1.161,24.012,1.248,28.106" transform="translate(-246.747 -73.748)" fill="none" stroke="#06222d" stroke-linecap="round" stroke-linejoin="round" stroke-miterlimit="10" stroke-width="1"/>
        <line id="Línea_694" data-name="Línea 694" x1="6.359" y1="7.52" transform="translate(47.104 87.66)" fill="none" stroke="#06222d" stroke-linecap="round" stroke-linejoin="round" stroke-miterlimit="10" stroke-width="1"/>
        <path id="Trazado_1162974" data-name="Trazado 1162974" d="M357.2,201.084a1.819,1.819,0,1,1-1.819-1.819A1.818,1.818,0,0,1,357.2,201.084Z" transform="translate(-247.97 -75.558)" fill="#ffc741"/>
        <path id="Trazado_1162975" data-name="Trazado 1162975" d="M357.72,222.223A1.819,1.819,0,1,1,355.9,220.4,1.818,1.818,0,0,1,357.72,222.223Z" transform="translate(-247.987 -76.237)" fill="#ffc741"/>
        <path id="Trazado_1162976" data-name="Trazado 1162976" d="M359.115,241.663a1.819,1.819,0,1,1-1.819-1.819A1.818,1.818,0,0,1,359.115,241.663Z" transform="translate(-248.032 -76.863)" fill="#ffc741"/>
        <path id="Trazado_1162977" data-name="Trazado 1162977" d="M268.421,134.1s-5.4,3.179-5.792,3.31-3.7,3.136-3.7,3.136-.566,2.047.566,3.092,4.137-.116,4.137-.116l4.268-1.408-3.641,4.543" transform="translate(-244.922 -73.462)" fill="none" stroke="#ef6159" stroke-linecap="round" stroke-linejoin="round" stroke-miterlimit="10" stroke-width="0.75"/>
        <line id="Línea_695" data-name="Línea 695" x2="5.27" y2="6.489" transform="translate(8.299 68.352)" fill="none" stroke="#ef6159" stroke-linecap="round" stroke-linejoin="round" stroke-miterlimit="10" stroke-width="0.75"/>
        <path id="Trazado_1162978" data-name="Trazado 1162978" d="M256.546,138.02c.131.131,2.308,2.657,2.308,2.657" transform="translate(-244.85 -73.588)" fill="none" stroke="#ef6159" stroke-linecap="round" stroke-linejoin="round" stroke-miterlimit="10" stroke-width="0.75"/>
        <line id="Línea_696" data-name="Línea 696" x2="0.424" y2="0.581" transform="translate(16.61 70.581)" fill="none" stroke="#ef6159" stroke-linecap="round" stroke-linejoin="round" stroke-miterlimit="10" stroke-width="0.75"/>
        <line id="Línea_697" data-name="Línea 697" x2="2.837" y2="3.642" transform="translate(15.223 60.135)" fill="none" stroke="#ef6159" stroke-linecap="round" stroke-linejoin="round" stroke-miterlimit="10" stroke-width="0.75"/>
        <path id="Trazado_1162979" data-name="Trazado 1162979" d="M247.955,156.8l-.813-.713a.409.409,0,0,0-.574.035l-2,2.243a.408.408,0,0,0,.013.557l5.652,5.771a.407.407,0,0,0,.6-.017l2.429-2.777a.41.41,0,0,0-.041-.579Z" transform="translate(-244.462 -74.166)" fill="#682e14"/>
        <path id="Trazado_1162980" data-name="Trazado 1162980" d="M265.711,117.755l18.35,14.924,9.872-12.95L275.467,105.56Z" transform="translate(-245.145 -72.544)" fill="#682e14"/>
        <path id="Trazado_1162981" data-name="Trazado 1162981" d="M270.8,121.881l9.593-12.546,8.832,6.776-9.54,13Z" transform="translate(-245.309 -72.666)" fill="#8e492e"/>
        <path id="Trazado_1162982" data-name="Trazado 1162982" d="M264.631,119.561l11.992-14.788a.715.715,0,0,0-.161-1.047l-2.742-1.815a.715.715,0,0,0-.956.154l-11.536,14.65a.714.714,0,0,0,.1.986l2.287,1.952A.712.712,0,0,0,264.631,119.561Z" transform="translate(-244.996 -72.423)" fill="#47210c"/>
        <path id="Trazado_1162983" data-name="Trazado 1162983" d="M286.77,136.48l11.992-14.788a.715.715,0,0,0-.161-1.047l-2.743-1.815a.715.715,0,0,0-.956.154l-11.536,14.65a.715.715,0,0,0,.1.986l2.287,1.952A.715.715,0,0,0,286.77,136.48Z" transform="translate(-245.708 -72.967)" fill="#47210c"/>
        <g id="Grupo_1216425" data-name="Grupo 1216425" transform="translate(47.453 189.516)">
          <path id="Trazado_1162984" data-name="Trazado 1162984" d="M412.884,419.531s-.841-7.432-2.162-19.146a18.992,18.992,0,0,1-2.2,1.1c-12.1,5.057-25.812-2.566-28.693-15.364L353.071,267.26s21.486,146.416,23.344,152.271h36.468Z" transform="translate(-295.407 -267.26)" fill="#192d35" opacity="0.33"/>
          <path id="Trazado_1162985" data-name="Trazado 1162985" d="M330.6,418.418s15.1-127.291,20.557-151.158c-4.348,11.821-18.45,89.449-24.446,123.045-2.705,15.155-20.954,21.762-32.4,11.8q-.44,6.884-.819,13.993S306.905,421.9,330.6,418.418Z" transform="translate(-293.491 -267.26)" fill="#192d35" opacity="0.33"/>
        </g>
      </g>
      <g id="Grupo_1216447" data-name="Grupo 1216447" transform="translate(1119.079 2393.095)">
        <g id="Grupo_1216431" data-name="Grupo 1216431" transform="translate(59.048 39.937)">
          <circle id="Elipse_14373" data-name="Elipse 14373" cx="19.142" cy="19.142" r="19.142" transform="translate(4.482 18.56) rotate(-29)" fill="#efac18"/>
          <circle id="Elipse_14374" data-name="Elipse 14374" cx="19.142" cy="19.142" r="19.142" transform="translate(4.482 18.56) rotate(-29)" fill="#cc6017"/>
          <g id="Grupo_1216427" data-name="Grupo 1216427" transform="translate(33.17 7.972)">
            <path id="Trazado_1162986" data-name="Trazado 1162986" d="M229.357,174.524c-.37-.157-.74-.306-1.12-.439l-3.678,2.341.522.82Z" transform="translate(-224.559 -174.085)" fill="#d6800d"/>
            <path id="Trazado_1162987" data-name="Trazado 1162987" d="M235.238,199.094l-2.429,4.317,4.22,1.557c.214-.264.423-.531.622-.806l-3.435-1.268,1.538-2.733,3.852.617c.137-.3.279-.608.4-.92Z" transform="translate(-224.824 -174.889)" fill="#d6800d"/>
            <path id="Trazado_1162988" data-name="Trazado 1162988" d="M232.339,176.107,227.512,180l3.474,4.6,6.262-3.95c-.2-.26-.406-.511-.616-.761l-5.409,3.412-2.366-3.132,4.32-3.484C232.9,176.484,232.623,176.29,232.339,176.107Z" transform="translate(-224.654 -174.15)" fill="#d6800d"/>
            <path id="Trazado_1162989" data-name="Trazado 1162989" d="M240.554,187.047c-.093-.312-.176-.627-.284-.93l-5.23,1.661-.022,5.578,6.326.037q.022-.483.019-.972l-5.369-.031.015-3.9Z" transform="translate(-224.895 -174.472)" fill="#d6800d"/>
          </g>
          <circle id="Elipse_14375" data-name="Elipse 14375" cx="19.142" cy="19.142" r="19.142" transform="translate(0 31.149) rotate(-54.015)" fill="#fab725"/>
          <path id="Trazado_1162990" data-name="Trazado 1162990" d="M232.535,189.557A15.568,15.568,0,1,1,213.8,177.986,15.568,15.568,0,0,1,232.535,189.557Z" transform="translate(-190.657 -166.225)" fill="#dd8447" opacity="0.62"/>
          <path id="Trazado_1162991" data-name="Trazado 1162991" d="M230.247,190.2a13.134,13.134,0,1,1-15.8-9.761A13.134,13.134,0,0,1,230.247,190.2Z" transform="translate(-190.738 -166.306)" fill="#cc6017"/>
          <g id="Grupo_1216430" data-name="Grupo 1216430" transform="translate(21.376 17.511)">
            <g id="Grupo_1216429" data-name="Grupo 1216429">
              <g id="Grupo_1216428" data-name="Grupo 1216428" transform="translate(0 2.645)">
                <path id="Trazado_1162992" data-name="Trazado 1162992" d="M223.439,195.134a3.774,3.774,0,0,1-.645,3.3,5.387,5.387,0,0,1-3.194,1.933,10.075,10.075,0,0,1-5-.191,1.185,1.185,0,0,1-.765-1.512l.07-.208a1.179,1.179,0,0,1,1.482-.742,6.89,6.89,0,0,0,3.727.257,2.359,2.359,0,0,0,1.369-.777,1.37,1.37,0,0,0,.282-1.218q-.232-.981-3.017-1.152c-.143-.017-.249-.027-.317-.028q-4.332-.141-4.941-2.717a3.587,3.587,0,0,1,.723-3.239,5.978,5.978,0,0,1,3.409-1.958,7.623,7.623,0,0,1,3.442-.017,1.181,1.181,0,0,1,.874,1.432h0a1.192,1.192,0,0,1-1.4.874,6.24,6.24,0,0,0-2.594.07,3.237,3.237,0,0,0-1.51.733,1.187,1.187,0,0,0-.361,1.212,1,1,0,0,0,.858.781,6.376,6.376,0,0,0,1.338.125q.843.009,1.5.059t1.294.161a7.948,7.948,0,0,1,1.4.394A3.146,3.146,0,0,1,223.439,195.134Z" transform="translate(-212.373 -186.674)" fill="#ea9b1c"/>
              </g>
              <path id="Trazado_1162993" data-name="Trazado 1162993" d="M216.808,188.316h0a1.279,1.279,0,0,1-1.54-.951l-.436-1.849a1.28,1.28,0,0,1,.951-1.54h0a1.28,1.28,0,0,1,1.54.951l.437,1.849A1.28,1.28,0,0,1,216.808,188.316Z" transform="translate(-212.451 -183.941)" fill="#ea9b1c"/>
              <path id="Trazado_1162994" data-name="Trazado 1162994" d="M220.3,203.1h0a1.281,1.281,0,0,1-1.541-.951l-.437-1.849a1.28,1.28,0,0,1,.951-1.54h0a1.28,1.28,0,0,1,1.54.951l.437,1.849A1.278,1.278,0,0,1,220.3,203.1Z" transform="translate(-212.563 -184.417)" fill="#ea9b1c"/>
            </g>
          </g>
        </g>
        <g id="Grupo_1216436" data-name="Grupo 1216436" transform="translate(2.764 0)">
          <path id="Trazado_1162995" data-name="Trazado 1162995" d="M165.7,155.969a16.461,16.461,0,1,1-1.815-23.209A16.461,16.461,0,0,1,165.7,155.969Z" transform="translate(-132.28 -124.72)" fill="#efac18"/>
          <path id="Trazado_1162996" data-name="Trazado 1162996" d="M165.7,155.969a16.461,16.461,0,1,1-1.815-23.209A16.461,16.461,0,0,1,165.7,155.969Z" transform="translate(-132.28 -124.72)" fill="#cc6017"/>
          <g id="Grupo_1216432" data-name="Grupo 1216432" transform="translate(19.043 14.425)">
            <path id="Trazado_1162997" data-name="Trazado 1162997" d="M170.144,141.854c-.078-.336-.164-.67-.263-1l-3.492-1.365-.3.778Z" transform="translate(-152.267 -139.489)" fill="#d6800d"/>
            <path id="Trazado_1162998" data-name="Trazado 1162998" d="M156.037,158.425l-4.229.5,1.061,3.719c.292.014.584.024.875.022l-.863-3.028,2.678-.319,1.527,2.987c.282-.059.563-.115.842-.19Z" transform="translate(-151.808 -140.098)" fill="#d6800d"/>
            <path id="Trazado_1162999" data-name="Trazado 1162999" d="M170.486,144.754l-5.153-1.374-1.428,4.744,5.92,2.343c.08-.27.149-.542.215-.814l-5.114-2.023.973-3.234,4.612,1.23C170.511,145.335,170.5,145.045,170.486,144.754Z" transform="translate(-152.197 -139.614)" fill="#d6800d"/>
            <path id="Trazado_1163000" data-name="Trazado 1163000" d="M167.031,155.973c.168-.223.345-.44.5-.669l-3.807-2.787-3.883,2.815,3.185,4.41q.347-.231.684-.48l-2.7-3.743,2.715-1.969Z" transform="translate(-152.066 -139.908)" fill="#d6800d"/>
          </g>
          <circle id="Elipse_14376" data-name="Elipse 14376" cx="16.462" cy="16.462" r="16.462" transform="matrix(0.124, -0.992, 0.992, 0.124, 0, 32.671)" fill="#fab725"/>
          <path id="Trazado_1163001" data-name="Trazado 1163001" d="M160.844,151.829a13.389,13.389,0,1,1-1.476-18.877A13.389,13.389,0,0,1,160.844,151.829Z" transform="translate(-132.298 -124.75)" fill="#dd8447" opacity="0.62"/>
          <path id="Trazado_1163002" data-name="Trazado 1163002" d="M159.322,150.538a11.295,11.295,0,1,1-1.245-15.925A11.294,11.294,0,0,1,159.322,150.538Z" transform="translate(-132.368 -124.82)" fill="#cc6017"/>
          <g id="Grupo_1216435" data-name="Grupo 1216435" transform="translate(12.046 11.957)">
            <g id="Grupo_1216434" data-name="Grupo 1216434">
              <g id="Grupo_1216433" data-name="Grupo 1216433" transform="translate(0 0.954)">
                <path id="Trazado_1163003" data-name="Trazado 1163003" d="M152.622,148.224A3.242,3.242,0,0,1,150,149.45a4.634,4.634,0,0,1-2.964-1.236,8.668,8.668,0,0,1-2.407-3.569,1.019,1.019,0,0,1,.661-1.3l.18-.057a1.014,1.014,0,0,1,1.268.652,5.933,5.933,0,0,0,1.714,2.718,2.03,2.03,0,0,0,1.235.557,1.181,1.181,0,0,0,.989-.423q.563-.659-.732-2.679c-.06-.108-.107-.187-.141-.235q-2.1-3.079-.622-4.808a3.085,3.085,0,0,1,2.616-1.142,5.143,5.143,0,0,1,3.089,1.372,6.569,6.569,0,0,1,1.76,2.38,1.015,1.015,0,0,1-.551,1.334h0a1.026,1.026,0,0,1-1.316-.527,5.373,5.373,0,0,0-1.365-1.765,2.788,2.788,0,0,0-1.275-.677,1.022,1.022,0,0,0-1.024.364.861.861,0,0,0-.106.992,5.393,5.393,0,0,0,.592.991q.422.589.722,1.073t.545.979a6.864,6.864,0,0,1,.437,1.172A2.718,2.718,0,0,1,152.622,148.224Z" transform="translate(-144.579 -137.924)" fill="#ea9b1c"/>
              </g>
              <path id="Trazado_1163004" data-name="Trazado 1163004" d="M154.184,140.118h0a1.1,1.1,0,0,1-.121-1.552l1.062-1.242a1.1,1.1,0,0,1,1.552-.121h0a1.1,1.1,0,0,1,.121,1.552L155.737,140A1.1,1.1,0,0,1,154.184,140.118Z" transform="translate(-144.876 -136.939)" fill="#ea9b1c"/>
              <path id="Trazado_1163005" data-name="Trazado 1163005" d="M145.7,150.046h0a1.1,1.1,0,0,1-.121-1.552l1.062-1.242a1.1,1.1,0,0,1,1.552-.121h0a1.1,1.1,0,0,1,.121,1.552l-1.062,1.242A1.1,1.1,0,0,1,145.7,150.046Z" transform="translate(-144.603 -137.258)" fill="#ea9b1c"/>
            </g>
          </g>
        </g>
        <g id="Grupo_1216441" data-name="Grupo 1216441" transform="translate(0 83.624)">
          <circle id="Elipse_14377" data-name="Elipse 14377" cx="23.323" cy="23.323" r="23.323" transform="matrix(0.996, -0.092, 0.092, 0.996, 11.197, 10.187)" fill="#efac18"/>
          <circle id="Elipse_14378" data-name="Elipse 14378" cx="23.323" cy="23.323" r="23.323" transform="matrix(0.996, -0.092, 0.092, 0.996, 11.197, 10.187)" fill="#cc6017"/>
          <g id="Grupo_1216437" data-name="Grupo 1216437" transform="translate(41.824 10.226)">
            <path id="Trazado_1163006" data-name="Trazado 1163006" d="M178.549,222.231c-.427-.238-.857-.467-1.3-.678l-4.759,2.36.526,1.061Z" transform="translate(-172.49 -221.553)" fill="#d6800d"/>
            <path id="Trazado_1163007" data-name="Trazado 1163007" d="M182.481,252.755l-3.5,4.915,4.91,2.433c.293-.292.581-.588.858-.9l-4-1.981,2.218-3.113,4.588,1.246c.206-.351.416-.7.6-1.064Z" transform="translate(-172.699 -222.556)" fill="#d6800d"/>
            <path id="Trazado_1163008" data-name="Trazado 1163008" d="M181.95,224.54l-6.352,4.091,3.612,6.018,8.1-3.974c-.206-.342-.426-.672-.648-1l-7,3.432L177.2,229l5.685-3.662C182.582,225.067,182.271,224.8,181.95,224.54Z" transform="translate(-172.59 -221.649)" fill="#d6800d"/>
            <path id="Trazado_1163009" data-name="Trazado 1163009" d="M190.47,238.86c-.072-.389-.132-.783-.223-1.163l-6.551,1.335-.749,6.755,7.659.864q.089-.584.149-1.175l-6.5-.733.524-4.722Z" transform="translate(-172.826 -222.072)" fill="#d6800d"/>
          </g>
          <ellipse id="Elipse_14379" data-name="Elipse 14379" cx="23.323" cy="23.324" rx="23.323" ry="23.324" transform="matrix(0.866, -0.5, 0.5, 0.866, 0, 23.323)" fill="#fab725"/>
          <path id="Trazado_1163010" data-name="Trazado 1163010" d="M180.39,240.9A18.969,18.969,0,1,1,159.2,224.457,18.969,18.969,0,0,1,180.39,240.9Z" transform="translate(-129.705 -211.415)" fill="#dd8447" opacity="0.62"/>
          <circle id="Elipse_14380" data-name="Elipse 14380" cx="16.003" cy="16.003" r="16.003" transform="translate(11.024 40.714) rotate(-68.024)" fill="#cc6017"/>
          <g id="Grupo_1216440" data-name="Grupo 1216440" transform="translate(25.653 20.239)">
            <g id="Grupo_1216439" data-name="Grupo 1216439">
              <g id="Grupo_1216438" data-name="Grupo 1216438" transform="translate(0 3.47)">
                <path id="Trazado_1163011" data-name="Trazado 1163011" d="M168.7,246.441a4.6,4.6,0,0,1-1.209,3.913,6.561,6.561,0,0,1-4.121,1.928,12.271,12.271,0,0,1-6.035-.878,1.445,1.445,0,0,1-.731-1.931l.111-.244a1.436,1.436,0,0,1,1.891-.708,8.4,8.4,0,0,0,4.482.794,2.878,2.878,0,0,0,1.76-.764,1.673,1.673,0,0,0,.5-1.439q-.154-1.219-3.505-1.787c-.17-.04-.3-.066-.381-.076q-5.231-.733-5.634-3.931a4.371,4.371,0,0,1,1.3-3.832,7.282,7.282,0,0,1,4.383-1.93,9.293,9.293,0,0,1,4.172.425,1.44,1.44,0,0,1,.874,1.849h0a1.453,1.453,0,0,1-1.807.878,7.6,7.6,0,0,0-3.151-.252,3.949,3.949,0,0,0-1.924.692,1.448,1.448,0,0,0-.594,1.421,1.22,1.22,0,0,0,.938,1.058,7.685,7.685,0,0,0,1.6.324q1.021.119,1.813.266t1.547.362a9.713,9.713,0,0,1,1.646.659A3.834,3.834,0,0,1,168.7,246.441Z" transform="translate(-155.782 -235.483)" fill="#ea9b1c"/>
              </g>
              <path id="Trazado_1163012" data-name="Trazado 1163012" d="M161.562,237.3h0a1.561,1.561,0,0,1-1.743-1.352l-.289-2.3a1.561,1.561,0,0,1,1.352-1.743h0a1.561,1.561,0,0,1,1.743,1.352l.289,2.3A1.56,1.56,0,0,1,161.562,237.3Z" transform="translate(-155.902 -231.898)" fill="#ea9b1c"/>
              <path id="Trazado_1163013" data-name="Trazado 1163013" d="M163.878,255.664h0a1.561,1.561,0,0,1-1.743-1.352l-.289-2.3a1.561,1.561,0,0,1,1.352-1.743h0a1.56,1.56,0,0,1,1.743,1.352l.289,2.3A1.559,1.559,0,0,1,163.878,255.664Z" transform="translate(-155.977 -232.489)" fill="#ea9b1c"/>
            </g>
          </g>
        </g>
        <g id="Grupo_1216446" data-name="Grupo 1216446" transform="translate(111.562 109.088)">
          <circle id="Elipse_14381" data-name="Elipse 14381" cx="19.086" cy="19.086" r="19.086" transform="translate(1.911 38.633) rotate(-76.945)" fill="#efac18"/>
          <circle id="Elipse_14382" data-name="Elipse 14382" cx="19.086" cy="19.086" r="19.086" transform="translate(1.911 38.633) rotate(-76.945)" fill="#cc6017"/>
          <g id="Grupo_1216442" data-name="Grupo 1216442" transform="translate(22.635 17.259)">
            <path id="Trazado_1163014" data-name="Trazado 1163014" d="M289.193,257.873c-.091-.389-.19-.776-.3-1.16l-4.049-1.582-.353.9Z" transform="translate(-268.465 -255.13)" fill="#d6800d"/>
            <path id="Trazado_1163015" data-name="Trazado 1163015" d="M272.836,277.085l-4.9.585,1.23,4.313c.339.016.677.028,1.015.026l-1-3.511,3.1-.371,1.771,3.463c.326-.069.653-.134.977-.22Z" transform="translate(-267.933 -255.836)" fill="#d6800d"/>
            <path id="Trazado_1163016" data-name="Trazado 1163016" d="M289.589,261.235l-5.974-1.594-1.655,5.5,6.865,2.716c.094-.313.172-.628.25-.944l-5.929-2.346,1.128-3.748,5.347,1.427C289.617,261.909,289.609,261.572,289.589,261.235Z" transform="translate(-268.384 -255.275)" fill="#d6800d"/>
            <path id="Trazado_1163017" data-name="Trazado 1163017" d="M285.583,274.242c.2-.258.4-.511.582-.775l-4.414-3.232-4.5,3.264,3.693,5.113q.4-.267.794-.557l-3.135-4.339,3.147-2.283Z" transform="translate(-268.233 -255.616)" fill="#d6800d"/>
          </g>
          <circle id="Elipse_14383" data-name="Elipse 14383" cx="19.086" cy="19.086" r="19.086" transform="matrix(0.988, -0.158, 0.158, 0.988, 0, 6.027)" fill="#fab725"/>
          <path id="Trazado_1163018" data-name="Trazado 1163018" d="M278.409,269.437a15.523,15.523,0,1,1-1.711-21.886A15.523,15.523,0,0,1,278.409,269.437Z" transform="translate(-244.756 -237.508)" fill="#dd8447" opacity="0.62"/>
          <path id="Trazado_1163019" data-name="Trazado 1163019" d="M276.645,267.941a13.1,13.1,0,1,1-1.443-18.463A13.094,13.094,0,0,1,276.645,267.941Z" transform="translate(-244.837 -237.588)" fill="#cc6017"/>
          <g id="Grupo_1216445" data-name="Grupo 1216445" transform="translate(14.523 14.398)">
            <g id="Grupo_1216444" data-name="Grupo 1216444">
              <g id="Grupo_1216443" data-name="Grupo 1216443" transform="translate(0 1.105)">
                <path id="Trazado_1163020" data-name="Trazado 1163020" d="M268.875,265.257a3.764,3.764,0,0,1-3.034,1.423,5.372,5.372,0,0,1-3.436-1.433,10.044,10.044,0,0,1-2.79-4.138,1.182,1.182,0,0,1,.767-1.5l.209-.067a1.175,1.175,0,0,1,1.469.756,6.872,6.872,0,0,0,1.987,3.15,2.357,2.357,0,0,0,1.431.646,1.368,1.368,0,0,0,1.146-.491q.653-.764-.848-3.106c-.07-.126-.124-.216-.164-.273q-2.436-3.57-.721-5.575a3.575,3.575,0,0,1,3.033-1.324,5.963,5.963,0,0,1,3.582,1.591,7.591,7.591,0,0,1,2.039,2.76,1.178,1.178,0,0,1-.638,1.547h0a1.19,1.19,0,0,1-1.526-.611,6.229,6.229,0,0,0-1.582-2.047,3.231,3.231,0,0,0-1.478-.784,1.186,1.186,0,0,0-1.188.422,1,1,0,0,0-.124,1.15,6.311,6.311,0,0,0,.686,1.15q.489.684.837,1.244t.632,1.136a7.965,7.965,0,0,1,.507,1.36A3.14,3.14,0,0,1,268.875,265.257Z" transform="translate(-259.551 -253.316)" fill="#ea9b1c"/>
              </g>
              <path id="Trazado_1163021" data-name="Trazado 1163021" d="M270.688,255.861h0a1.276,1.276,0,0,1-.14-1.8l1.231-1.439a1.275,1.275,0,0,1,1.8-.14h0a1.275,1.275,0,0,1,.14,1.8l-1.231,1.439A1.276,1.276,0,0,1,270.688,255.861Z" transform="translate(-259.895 -252.174)" fill="#ea9b1c"/>
              <path id="Trazado_1163022" data-name="Trazado 1163022" d="M260.846,267.372h0a1.275,1.275,0,0,1-.14-1.8l1.231-1.439a1.275,1.275,0,0,1,1.8-.14h0a1.275,1.275,0,0,1,.14,1.8l-1.231,1.439A1.277,1.277,0,0,1,260.846,267.372Z" transform="translate(-259.578 -252.544)" fill="#ea9b1c"/>
            </g>
          </g>
        </g>
      </g>
      <g id="Grupo_1216452" data-name="Grupo 1216452" transform="translate(1116.793 2639.905)">
        <g id="Grupo_1216449" data-name="Grupo 1216449" transform="translate(0.044 41.854)">
          <rect id="Rectángulo_420452" data-name="Rectángulo 420452" width="75.434" height="17.421" transform="translate(18.931 1.684)" fill="#fff"/>
          <path id="Trazado_1163033" data-name="Trazado 1163033" d="M148.911,436.622v-6.833a3.871,3.871,0,0,1,3.871-3.871h71.5v-.174a2.9,2.9,0,0,0-2.9-2.9H130.831a3.872,3.872,0,0,0-3.871,3.871v13.395a3.872,3.872,0,0,0,3.871,3.871h90.551a2.9,2.9,0,0,0,2.9-2.9v-.581h-71.5A3.872,3.872,0,0,1,148.911,436.622Z" transform="translate(-126.96 -422.84)" fill="#2983bb"/>
          <path id="Trazado_1163034" data-name="Trazado 1163034" d="M140.844,422.84s-1.655,3.252-1.655,10.569,2.091,10.569,2.091,10.569l-10.056-.3a33.843,33.843,0,0,1-1.384-10.269c0-7.027,1.916-10.569,1.916-10.569Z" transform="translate(-127.053 -422.84)" fill="#1c69a3"/>
          <path id="Trazado_1163035" data-name="Trazado 1163035" d="M143.46,422.84s-1.8,3.833-1.8,10.569a27.964,27.964,0,0,0,1.8,10.569h4.355a30.1,30.1,0,0,1,0-21.138Z" transform="translate(-127.433 -422.84)" fill="#1c69a3"/>
          <line id="Línea_698" data-name="Línea 698" x2="49.273" transform="translate(32.607 5.952)" fill="none" stroke="#c9cfd1" stroke-linecap="round" stroke-linejoin="round" stroke-miterlimit="10" stroke-width="0.75"/>
          <path id="Trazado_1163036" data-name="Trazado 1163036" d="M159.66,432.59a54.606,54.606,0,0,1,2.787,6.823c.987,3.194.261,7.781.261,7.781l3.7-2.279,3.049,2.279a68.83,68.83,0,0,0-.7-8.551,35.955,35.955,0,0,0-1.96-6.054Z" transform="translate(-128.012 -423.154)" fill="#42afe5"/>
          <line id="Línea_699" data-name="Línea 699" x2="12.369" transform="translate(28.861 9.436)" fill="none" stroke="#c9cfd1" stroke-linecap="round" stroke-linejoin="round" stroke-miterlimit="10" stroke-width="0.75"/>
          <line id="Línea_700" data-name="Línea 700" x2="42.043" transform="translate(48.663 9.436)" fill="none" stroke="#c9cfd1" stroke-linecap="round" stroke-linejoin="round" stroke-miterlimit="10" stroke-width="0.75"/>
          <line id="Línea_701" data-name="Línea 701" x2="50.87" transform="translate(41.23 12.543)" fill="none" stroke="#c9cfd1" stroke-linecap="round" stroke-linejoin="round" stroke-miterlimit="10" stroke-width="0.75"/>
          <line id="Línea_702" data-name="Línea 702" x2="45.382" transform="translate(46.282 15.273)" fill="none" stroke="#c9cfd1" stroke-linecap="round" stroke-linejoin="round" stroke-miterlimit="10" stroke-width="0.75"/>
        </g>
        <g id="Grupo_1216450" data-name="Grupo 1216450" transform="translate(7.985 21.138)">
          <rect id="Rectángulo_420453" data-name="Rectángulo 420453" width="75.434" height="17.421" transform="translate(78.395 19.105) rotate(180)" fill="#fff"/>
          <path id="Trazado_1163037" data-name="Trazado 1163037" d="M210.541,415.217v-6.833a3.872,3.872,0,0,0-3.871-3.871h-71.5v-.174a2.9,2.9,0,0,1,2.9-2.9H228.62a3.872,3.872,0,0,1,3.871,3.871V418.7a3.871,3.871,0,0,1-3.871,3.871H138.069a2.9,2.9,0,0,1-2.9-2.9v-.581h71.5A3.872,3.872,0,0,0,210.541,415.217Z" transform="translate(-135.165 -401.435)" fill="#ed4f4f"/>
          <path id="Trazado_1163038" data-name="Trazado 1163038" d="M221.461,401.435s1.655,3.252,1.655,10.569-2.091,10.569-2.091,10.569l10.056-.3A33.843,33.843,0,0,0,232.465,412c0-7.027-1.916-10.569-1.916-10.569h-9.088Z" transform="translate(-137.926 -401.435)" fill="#d63434"/>
          <path id="Trazado_1163039" data-name="Trazado 1163039" d="M219.02,401.435s1.8,3.833,1.8,10.569a27.963,27.963,0,0,1-1.8,10.569h-4.355a30.1,30.1,0,0,0,0-21.138Z" transform="translate(-137.722 -401.435)" fill="#d63434"/>
          <line id="Línea_703" data-name="Línea 703" x1="49.273" transform="translate(15.447 5.952)" fill="none" stroke="#c9cfd1" stroke-linecap="round" stroke-linejoin="round" stroke-miterlimit="10" stroke-width="0.75"/>
          <path id="Trazado_1163040" data-name="Trazado 1163040" d="M202.7,411.185a54.6,54.6,0,0,0-2.787,6.823c-.987,3.194-.261,7.781-.261,7.781l-3.7-2.279L192.9,425.79a68.826,68.826,0,0,1,.7-8.551,35.952,35.952,0,0,1,1.96-6.054Z" transform="translate(-137.022 -401.749)" fill="#f97564"/>
          <line id="Línea_704" data-name="Línea 704" x1="12.369" transform="translate(56.096 9.436)" fill="none" stroke="#c9cfd1" stroke-linecap="round" stroke-linejoin="round" stroke-miterlimit="10" stroke-width="0.75"/>
          <line id="Línea_705" data-name="Línea 705" x1="42.043" transform="translate(6.62 9.436)" fill="none" stroke="#c9cfd1" stroke-linecap="round" stroke-linejoin="round" stroke-miterlimit="10" stroke-width="0.75"/>
          <line id="Línea_706" data-name="Línea 706" x1="50.87" transform="translate(5.226 12.543)" fill="none" stroke="#c9cfd1" stroke-linecap="round" stroke-linejoin="round" stroke-miterlimit="10" stroke-width="0.75"/>
          <line id="Línea_707" data-name="Línea 707" x1="45.382" transform="translate(5.662 15.273)" fill="none" stroke="#c9cfd1" stroke-linecap="round" stroke-linejoin="round" stroke-miterlimit="10" stroke-width="0.75"/>
        </g>
        <g id="Grupo_1216451" data-name="Grupo 1216451">
          <rect id="Rectángulo_420454" data-name="Rectángulo 420454" width="75.434" height="17.421" transform="translate(18.931 1.684)" fill="#fff"/>
          <path id="Trazado_1163041" data-name="Trazado 1163041" d="M148.866,393.377v-6.833a3.871,3.871,0,0,1,3.871-3.871h71.5V382.5a2.9,2.9,0,0,0-2.9-2.9H130.786a3.872,3.872,0,0,0-3.871,3.871v13.395a3.872,3.872,0,0,0,3.871,3.871h90.551a2.9,2.9,0,0,0,2.9-2.9v-.581h-71.5A3.872,3.872,0,0,1,148.866,393.377Z" transform="translate(-126.915 -379.595)" fill="#868127"/>
          <path id="Trazado_1163042" data-name="Trazado 1163042" d="M140.8,379.6s-1.655,3.252-1.655,10.569,2.091,10.569,2.091,10.569l-10.056-.3a33.843,33.843,0,0,1-1.384-10.269c0-7.027,1.916-10.569,1.916-10.569Z" transform="translate(-127.008 -379.595)" fill="#a09945"/>
          <path id="Trazado_1163043" data-name="Trazado 1163043" d="M143.415,379.6s-1.8,3.833-1.8,10.569a27.963,27.963,0,0,0,1.8,10.569h4.355a30.1,30.1,0,0,1,0-21.138Z" transform="translate(-127.388 -379.595)" fill="#a09945"/>
          <line id="Línea_708" data-name="Línea 708" x2="49.273" transform="translate(32.607 5.952)" fill="none" stroke="#c9cfd1" stroke-linecap="round" stroke-linejoin="round" stroke-miterlimit="10" stroke-width="0.75"/>
          <path id="Trazado_1163044" data-name="Trazado 1163044" d="M159.615,389.345a54.6,54.6,0,0,1,2.787,6.823c.987,3.194.261,7.782.261,7.782l3.7-2.279,3.049,2.279a68.835,68.835,0,0,0-.7-8.551,35.954,35.954,0,0,0-1.96-6.054Z" transform="translate(-127.967 -379.909)" fill="#a09945"/>
          <line id="Línea_709" data-name="Línea 709" x2="12.369" transform="translate(28.861 9.436)" fill="none" stroke="#c9cfd1" stroke-linecap="round" stroke-linejoin="round" stroke-miterlimit="10" stroke-width="0.75"/>
          <line id="Línea_710" data-name="Línea 710" x2="42.043" transform="translate(48.663 9.436)" fill="none" stroke="#c9cfd1" stroke-linecap="round" stroke-linejoin="round" stroke-miterlimit="10" stroke-width="0.75"/>
          <line id="Línea_711" data-name="Línea 711" x2="50.87" transform="translate(41.23 12.543)" fill="none" stroke="#c9cfd1" stroke-linecap="round" stroke-linejoin="round" stroke-miterlimit="10" stroke-width="0.75"/>
          <line id="Línea_712" data-name="Línea 712" x2="45.382" transform="translate(46.282 15.273)" fill="none" stroke="#c9cfd1" stroke-linecap="round" stroke-linejoin="round" stroke-miterlimit="10" stroke-width="0.75"/>
        </g>
      </g>
      <g id="Grupo_1216453" data-name="Grupo 1216453" transform="translate(1361.594 2317.536)">
        <path id="Trazado_1163045" data-name="Trazado 1163045" d="M430.265,119.221C400.286,105.2,402.314,76.7,402.314,76.7l17.236-10.4h21.431L458.2,76.7S460.23,105.2,430.265,119.221Z" transform="translate(-402.285 -66.294)" fill="#ea9b1c"/>
        <path id="Trazado_1163046" data-name="Trazado 1163046" d="M430.463,113.822c-23.544-11.181-21.952-33.914-21.952-33.914l13.536-8.3h16.832l13.526,8.3S454,102.642,430.463,113.822Z" transform="translate(-402.485 -66.465)" fill="#cc6017"/>
        <path id="Trazado_1163047" data-name="Trazado 1163047" d="M430.743,105.936C416.3,99.076,417.277,85.13,417.277,85.13l8.3-5.091h10.326l8.3,5.091S445.179,99.076,430.743,105.936Z" transform="translate(-402.767 -66.736)" fill="#ea9b1c"/>
        <path id="Trazado_1163048" data-name="Trazado 1163048" d="M431.2,119.221V66.294h10.716l17.222,10.4S461.159,105.2,431.2,119.221Z" transform="translate(-403.215 -66.294)" fill="#dd8447" opacity="0.62"/>
      </g>
    </g>
  </g>
</svg>
