<svg xmlns="http://www.w3.org/2000/svg" xmlns:xlink="http://www.w3.org/1999/xlink" width="93.934" height="93.934" viewBox="0 0 93.934 93.934">
  <defs>
    <filter id="Trazado_978624" x="0" y="0" width="93.934" height="93.934" filterUnits="userSpaceOnUse">
      <feOffset dy="3" input="SourceAlpha"/>
      <feGaussianBlur stdDeviation="3" result="blur"/>
      <feFlood flood-opacity="0.161"/>
      <feComposite operator="in" in2="blur"/>
      <feComposite in="SourceGraphic"/>
    </filter>
  </defs>
  <g id="Grupo_1216590" data-name="Grupo 1216590" transform="translate(-189 -2325.033)">
    <g id="Grupo_1208655" data-name="Grupo 1208655" transform="translate(198 2331.033)">
      <g id="Grupo_1208068" data-name="Grupo 1208068">
        <g id="Grupo_1144123" data-name="Grupo 1144123">
          <g transform="matrix(1, 0, 0, 1, -9, -6)" filter="url(#Trazado_978624)">
            <g id="Trazado_978624-2" data-name="Trazado 978624" transform="translate(9 6)" fill="#f1ede8">
              <path d="M 37.966796875 74.43359375 C 33.04315185546875 74.43359375 28.26757431030273 73.46962738037109 23.77274131774902 71.56847381591797 C 19.43047523498535 69.73184967041016 15.53040790557861 67.10224914550781 12.18087482452393 63.75271987915039 C 8.831341743469238 60.4031867980957 6.201741218566895 56.50312042236328 4.365118980407715 52.16086196899414 C 2.463963508605957 47.66601943969727 1.499996900558472 42.89044189453125 1.499996900558472 37.966796875 C 1.499996900558472 33.04315185546875 2.463963508605957 28.26757431030273 4.365118980407715 23.77274131774902 C 6.201741218566895 19.43047523498535 8.831341743469238 15.53040790557861 12.18087482452393 12.18087482452393 C 15.53040790557861 8.831341743469238 19.43047523498535 6.201741218566895 23.77274131774902 4.365118980407715 C 28.26757431030273 2.463963508605957 33.04315185546875 1.499996900558472 37.966796875 1.499996900558472 C 42.89044189453125 1.499996900558472 47.66601943969727 2.463963508605957 52.16086196899414 4.365118980407715 C 56.50312042236328 6.201741218566895 60.4031867980957 8.831341743469238 63.75271987915039 12.18087482452393 C 67.10224914550781 15.53040790557861 69.73184967041016 19.43047523498535 71.56847381591797 23.77274131774902 C 73.46962738037109 28.26757431030273 74.43359375 33.04315185546875 74.43359375 37.966796875 C 74.43359375 42.89044189453125 73.46962738037109 47.66601943969727 71.56847381591797 52.16086196899414 C 69.73184967041016 56.50313186645508 67.10224914550781 60.4031867980957 63.75271987915039 63.75271987915039 C 60.4031867980957 67.10224914550781 56.50313186645508 69.73184967041016 52.16086196899414 71.56847381591797 C 47.66601943969727 73.46962738037109 42.89044189453125 74.43359375 37.966796875 74.43359375 Z" stroke="none"/>
              <path d="M 37.966796875 3 C 33.2449836730957 3 28.66600799560547 3.924095153808594 24.35705947875977 5.746635437011719 C 20.19359588623047 7.507621765136719 16.45379638671875 10.02927398681641 13.24153518676758 13.24153518676758 C 10.02927398681641 16.45379638671875 7.507621765136719 20.19359588623047 5.746635437011719 24.35705947875977 C 3.924095153808594 28.66600799560547 3 33.2449836730957 3 37.966796875 C 3 42.6886100769043 3.924095153808594 47.26758575439453 5.746635437011719 51.57653427124023 C 7.507621765136719 55.73999786376953 10.02927398681641 59.47979736328125 13.24153518676758 62.69205856323242 C 16.45379638671875 65.90431976318359 20.19359588623047 68.42597198486328 24.35705947875977 70.18695831298828 C 28.66600799560547 72.00949859619141 33.2449836730957 72.93359375 37.966796875 72.93359375 C 42.6886100769043 72.93359375 47.26758575439453 72.00949859619141 51.57653427124023 70.18695831298828 C 55.73999786376953 68.42597198486328 59.47979736328125 65.90431976318359 62.69205856323242 62.69205856323242 C 65.90431976318359 59.47979736328125 68.42597198486328 55.73999786376953 70.18695831298828 51.57653427124023 C 72.00949859619141 47.26758575439453 72.93359375 42.6886100769043 72.93359375 37.966796875 C 72.93359375 33.2449836730957 72.00949859619141 28.66600799560547 70.18695831298828 24.35705947875977 C 68.42597198486328 20.19359588623047 65.90431976318359 16.45379638671875 62.69205856323242 13.24153518676758 C 59.47979736328125 10.02927398681641 55.73999786376953 7.507621765136719 51.57653427124023 5.746635437011719 C 47.26758575439453 3.924095153808594 42.6886100769043 3 37.966796875 3 M 37.966796875 0 C 58.93528366088867 0 75.93359375 16.99831008911133 75.93359375 37.966796875 C 75.93359375 58.93528366088867 58.93528366088867 75.93359375 37.966796875 75.93359375 C 16.99831008911133 75.93359375 0 58.93528366088867 0 37.966796875 C 0 16.99831008911133 16.99831008911133 0 37.966796875 0 Z" stroke="none" fill="#665b4e"/>
            </g>
          </g>
        </g>
      </g>
    </g>
    <g id="contrato_1_" data-name="contrato (1)" transform="translate(184.042 2346)">
      <g id="Grupo_1216586" data-name="Grupo 1216586" transform="translate(29.683 0.952)">
        <g id="Grupo_1216585" data-name="Grupo 1216585">
          <g id="Grupo_1216584" data-name="Grupo 1216584">
            <g id="Grupo_1216573" data-name="Grupo 1216573">
              <g id="Grupo_1216572" data-name="Grupo 1216572">
                <g id="Grupo_1216571" data-name="Grupo 1216571">
                  <g id="Grupo_1216570" data-name="Grupo 1216570">
                    <g id="Grupo_1216569" data-name="Grupo 1216569">
                      <g id="Grupo_1216568" data-name="Grupo 1216568">
                        <g id="Grupo_1216567" data-name="Grupo 1216567">
                          <g id="Grupo_1216566" data-name="Grupo 1216566">
                            <g id="Grupo_1216565" data-name="Grupo 1216565">
                              <g id="Grupo_1216564" data-name="Grupo 1216564">
                                <path id="Trazado_1163310" data-name="Trazado 1163310" d="M40.156,7.5a3.922,3.922,0,0,0-3.922,3.922v50.52a3.922,3.922,0,0,0,3.922,3.922H77.03a3.922,3.922,0,0,0,3.922-3.922V19.594a2.971,2.971,0,0,0-.87-2.1L70.959,8.37a2.971,2.971,0,0,0-2.1-.87Z" transform="translate(-36.234 -7.5)" fill="#f4f8f8"/>
                                <path id="Trazado_1163311" data-name="Trazado 1163311" d="M300.919,92.412a3.936,3.936,0,0,1-.859-.1v43.675a3.922,3.922,0,0,1-3.922,3.922h7.8a3.922,3.922,0,0,0,3.922-3.922V93.642a2.968,2.968,0,0,0-.268-1.231Z" transform="translate(-263.142 -81.548)" fill="#e7ecf1"/>
                                <path id="Trazado_1163312" data-name="Trazado 1163312" d="M312.9,19.333l-9.123-9.123a2.968,2.968,0,0,0-.87-.6v6.674a3.922,3.922,0,0,0,3.922,3.922H313.5a2.972,2.972,0,0,0-.6-.87Z" transform="translate(-269.052 -9.34)" fill="#fc8086"/>
                              </g>
                            </g>
                          </g>
                        </g>
                      </g>
                    </g>
                  </g>
                </g>
              </g>
            </g>
            <g id="Grupo_1216583" data-name="Grupo 1216583" transform="translate(7.437 32.112)">
              <g id="Grupo_1216581" data-name="Grupo 1216581" transform="translate(2.175 2.553)">
                <g id="Grupo_1216580" data-name="Grupo 1216580">
                  <g id="Grupo_1216575" data-name="Grupo 1216575">
                    <g id="Grupo_1216574" data-name="Grupo 1216574">
                      <path id="Trazado_1163313" data-name="Trazado 1163313" d="M150.18,296.9l-14.009-8.3a1.512,1.512,0,0,1-.53-2.072l.717-1.21-2.834-1.677c-1.87-1.073-2.744-1.271-4.431-.619l-1.838.711a3.913,3.913,0,0,1-3.406-.283l-4.92-2.9-6.988,11.8,6.3,3.719a3.914,3.914,0,0,1,1.1.977l2.123,2.753a24.43,24.43,0,0,0,5.145,4.07l8.1,4.8a2.251,2.251,0,0,0,2.295-3.873l2.532,1.5a2.251,2.251,0,1,0,2.295-3.873l1.688,1a2.251,2.251,0,0,0,2.295-3.873l2.065,1.224a2.251,2.251,0,1,0,2.294-3.873Z" transform="translate(-111.941 -280.553)" fill="#ffece3"/>
                    </g>
                    <path id="Trazado_1163314" data-name="Trazado 1163314" d="M264.124,389.654l-4.828-2.859a2.581,2.581,0,0,1-.646,1.16,2.682,2.682,0,0,1-3.293.4l-1.373-.814a.121.121,0,0,0-.16.175,2.621,2.621,0,0,1-3.479,3.763l-1.079-.644a.1.1,0,0,0-.136.153,2.619,2.619,0,0,1,.143,2.96,2.666,2.666,0,0,1-3.626.843l-.886-.525a.518.518,0,0,0-.772.546,2.611,2.611,0,0,1-1.537,2.93l6.156,3.647a2.3,2.3,0,0,0,3.156-.8,2.251,2.251,0,0,0-.811-3.047l2.481,1.47a2.3,2.3,0,0,0,3.156-.8,2.251,2.251,0,0,0-.811-3.047l1.637.97a2.3,2.3,0,0,0,3.156-.8,2.251,2.251,0,0,0-.811-3.047l2.015,1.194a2.3,2.3,0,0,0,3.156-.8,2.251,2.251,0,0,0-.811-3.047Z" transform="translate(-225.885 -373.307)" fill="#ffddce"/>
                  </g>
                  <g id="Grupo_1216576" data-name="Grupo 1216576" transform="translate(20.041 0.705)">
                    <path id="Trazado_1163315" data-name="Trazado 1163315" d="M286.789,286.1l-3.779,2.2a3.914,3.914,0,0,1-3.406.283l-2.073-.814a3.331,3.331,0,0,0-2.036-.129l-3.176.8a3.332,3.332,0,0,0-2.514,3.23v4.24A1.087,1.087,0,0,0,270.89,297a3.272,3.272,0,0,0,3.274-3.272v-.18l13.6,8.052a3.91,3.91,0,0,1,.858-.688l5.159-3.014Z" transform="translate(-269.805 -286.104)" fill="#fcd0a3"/>
                  </g>
                  <g id="Grupo_1216577" data-name="Grupo 1216577" transform="translate(30.175 4.107)">
                    <path id="Trazado_1163316" data-name="Trazado 1163316" d="M358.493,312.9l-.727,2.694-8.14,4.77L357.449,325a3.912,3.912,0,0,1,.858-.688l5.159-3.014Z" transform="translate(-349.627 -312.905)" fill="#ffb983"/>
                  </g>
                  <g id="Grupo_1216579" data-name="Grupo 1216579" transform="translate(3.708 14.45)">
                    <g id="Grupo_1216578" data-name="Grupo 1216578">
                      <path id="Trazado_1163317" data-name="Trazado 1163317" d="M146.5,397.937l-1.275,1.776a2.25,2.25,0,1,1-3.656-2.625l1.275-1.776a2.25,2.25,0,0,1,3.656,2.625Z" transform="translate(-141.151 -394.374)" fill="#fcd0a3"/>
                      <path id="Trazado_1163318" data-name="Trazado 1163318" d="M176.709,403.176l-2.682,3.735a2.25,2.25,0,1,1-3.656-2.625l2.681-3.735a2.25,2.25,0,1,1,3.656,2.625Z" transform="translate(-166.294 -398.948)" fill="#fcd0a3"/>
                      <path id="Trazado_1163319" data-name="Trazado 1163319" d="M205.507,423.851l-2.682,3.735a2.25,2.25,0,1,1-3.656-2.625l2.682-3.735a2.25,2.25,0,1,1,3.656,2.625Z" transform="translate(-191.435 -416.999)" fill="#fcd0a3"/>
                    </g>
                    <path id="Trazado_1163320" data-name="Trazado 1163320" d="M237.229,457.6l-.892,1.242a2.25,2.25,0,1,1-3.656-2.625l.892-1.242a2.25,2.25,0,0,1,3.656,2.625Z" transform="translate(-220.692 -446.461)" fill="#ffb983"/>
                  </g>
                </g>
              </g>
              <g id="Grupo_1216582" data-name="Grupo 1216582">
                <path id="Trazado_1163321" data-name="Trazado 1163321" d="M106.608,261.768l-1.971-1.168a1.141,1.141,0,0,0-1.563.4l-8.1,13.678a1.141,1.141,0,0,0,.4,1.563l1.971,1.168a2.782,2.782,0,0,0,3.812-.976l6.43-10.854A2.782,2.782,0,0,0,106.608,261.768Z" transform="translate(-94.812 -260.441)" fill="#7c8b96"/>
                <path id="Trazado_1163322" data-name="Trazado 1163322" d="M375.43,260.6l-1.971,1.168a2.782,2.782,0,0,0-.976,3.812l6.43,10.854a2.782,2.782,0,0,0,3.812.976l1.971-1.168a1.141,1.141,0,0,0,.4-1.563L376.993,261A1.141,1.141,0,0,0,375.43,260.6Z" transform="translate(-336.892 -260.441)" fill="#7c8b96"/>
              </g>
            </g>
          </g>
        </g>
      </g>
      <g id="Grupo_1216589" data-name="Grupo 1216589" transform="translate(28.73 0)">
        <g id="Grupo_1216588" data-name="Grupo 1216588" transform="translate(0 0)">
          <g id="Grupo_1216587" data-name="Grupo 1216587">
            <path id="Trazado_1163323" data-name="Trazado 1163323" d="M114.317,137.8H83.189a.956.956,0,1,0,0,1.912h31.128a.956.956,0,1,0,0-1.912Z" transform="translate(-75.441 -120.309)"/>
            <path id="Trazado_1163324" data-name="Trazado 1163324" d="M83.189,87.469H98.753a.956.956,0,0,0,0-1.912H83.189a.956.956,0,0,0,0,1.912Z" transform="translate(-75.441 -74.695)"/>
            <path id="Trazado_1163325" data-name="Trazado 1163325" d="M114.317,184.1H83.189a.956.956,0,1,0,0,1.912h31.128a.956.956,0,1,0,0-1.912Z" transform="translate(-75.441 -160.724)"/>
            <path id="Trazado_1163326" data-name="Trazado 1163326" d="M43.569,58.356H33.608a2.969,2.969,0,0,1-2.965-2.965V4.878a2.969,2.969,0,0,1,2.965-2.965h28.7a2.046,2.046,0,0,1,.274.021V7.9a4.883,4.883,0,0,0,4.878,4.878h5.963a2.029,2.029,0,0,1,.021.274V29.332a.956.956,0,0,0,1.912,0V13.049a3.9,3.9,0,0,0-1.15-2.777L65.083,1.15A3.9,3.9,0,0,0,62.306,0h-28.7A4.883,4.883,0,0,0,28.73,4.878V55.391a4.883,4.883,0,0,0,4.878,4.878h9.962a.956.956,0,1,0,0-1.912ZM72.09,10.862H67.458A2.969,2.969,0,0,1,64.493,7.9V3.265Z" transform="translate(-28.73 0)"/>
            <path id="Trazado_1163327" data-name="Trazado 1163327" d="M137.272,267.607l-8.1-13.675a2.1,2.1,0,0,0-2.873-.736l-1.971,1.168a3.744,3.744,0,0,0-1.651,4.365,2.931,2.931,0,0,1-2.062-.022c-1.556-.49-2.739-1.474-4.693-.98-3.317.845-3.216.8-3.517.905-1.942-1.106-3.11-1.435-5.172-.637l-1.838.711a2.941,2.941,0,0,1-2.575-.215l-.5-.3a3.736,3.736,0,0,0-1.783-3.83h0L98.564,253.2a2.1,2.1,0,0,0-2.873.735l-8.1,13.676a2.1,2.1,0,0,0,.735,2.873l1.971,1.167a3.715,3.715,0,0,0,1.9.521,3.764,3.764,0,0,0,2.042-.6l.411.242-.867,1.208a3.2,3.2,0,0,0,3.1,5.035,3.2,3.2,0,0,0,3.656,2.626,3.2,3.2,0,0,0,4.423,2.4,3.2,3.2,0,0,0,5.447.9l2.3,1.365a3.211,3.211,0,0,0,4.82-2.376l.005,0a3.207,3.207,0,0,0,4.832-2.522,3.207,3.207,0,0,0,3.973-2.773,3.208,3.208,0,0,0,3.625-5.051l1.27-.742a3.73,3.73,0,0,0,3.328-.238l1.97-1.167a2.1,2.1,0,0,0,.736-2.873Zm-46,2.4L89.3,268.834a.185.185,0,0,1-.065-.253l8.1-13.676a.185.185,0,0,1,.253-.065l1.97,1.167a1.826,1.826,0,0,1,.64,2.5l-6.429,10.852a1.828,1.828,0,0,1-2.5.64Zm4.36,5.934a1.293,1.293,0,0,1-.3-1.806l1.274-1.775a1.294,1.294,0,0,1,2.1,1.509l-1.275,1.775A1.3,1.3,0,0,1,95.63,275.936Zm3.656,2.624a1.3,1.3,0,0,1-.3-1.806l1.274-1.775h0l1.407-1.959a1.285,1.285,0,0,1,.841-.522,1.3,1.3,0,0,1,.212-.017,1.294,1.294,0,0,1,1.048,2.049l-2.681,3.735A1.293,1.293,0,0,1,99.286,278.56Zm3.656,2.624a1.3,1.3,0,0,1-.3-1.8h0l2.681-3.735a1.294,1.294,0,1,1,2.1,1.509l-1.191,1.659h0l-1.49,2.075A1.3,1.3,0,0,1,102.941,281.185Zm4.254,1.791a1.3,1.3,0,0,1-.3-1.8l.892-1.243a1.294,1.294,0,1,1,2.1,1.509L109,282.679A1.3,1.3,0,0,1,107.2,282.976Zm21.432-7.624a1.3,1.3,0,0,1-1.773.454l-8.464-5.014a.956.956,0,0,0-.975,1.645l6.4,3.791h0a1.295,1.295,0,0,1-1.32,2.228l-6.4-3.793a.956.956,0,1,0-.975,1.645l4.715,2.793h0a1.294,1.294,0,0,1-1.321,2.227l-2.53-1.5h0l-1.847-1.094a.956.956,0,1,0-.975,1.645l1.847,1.094h0a1.294,1.294,0,1,1-1.32,2.227l-2.155-1.276a3.2,3.2,0,0,0-2.153-4.9,3.2,3.2,0,0,0-3.5-4.289,3.206,3.206,0,0,0-5.439-1.714,3.2,3.2,0,0,0-4.458-1.144l-.438-.259,6.014-10.151.286.169a4.841,4.841,0,0,0,4.237.352l1.838-.711a2.822,2.822,0,0,1,2.672.058,4.28,4.28,0,0,0-1.085,2.851v4.24a2.045,2.045,0,0,0,2.041,2.044h0a4.235,4.235,0,0,0,4-2.862l12.617,7.472a1.294,1.294,0,0,1,.454,1.773Zm6.935-6.518L133.592,270a1.828,1.828,0,0,1-2.5-.64l-3.013-5.086a.956.956,0,1,0-1.645.975l3.013,5.087c.057.1.118.187.182.275l-.838.489a4.847,4.847,0,0,0-.488.331l-12.99-7.693a.957.957,0,0,0-1.443.823,2.442,2.442,0,0,1-.679,1.817,2.3,2.3,0,0,1-1.637.678h0a.131.131,0,0,1-.13-.131v-4.24a2.379,2.379,0,0,1,1.792-2.3l3.176-.8c1.152-.291,1.8.324,3.529.908a4.834,4.834,0,0,0,3.656-.059l.577.974a.956.956,0,1,0,1.645-.975l-1.137-1.919a1.825,1.825,0,0,1,.64-2.5l1.971-1.167a.185.185,0,0,1,.253.065l8.1,13.676A.184.184,0,0,1,135.562,268.834Z" transform="translate(-79.861 -220.795)"/>
          </g>
        </g>
      </g>
    </g>
  </g>
</svg>
